<svg width="24" height="24" viewBox="0 0 24 24" fill="none" xmlns="http://www.w3.org/2000/svg">
<path d="M15.0741 16.1313H7.2054L6.0252 19.869C5.6316 20.6556 5.4348 21.4428 5.4348 21.8358C5.4348 22.2294 5.6316 22.6227 5.8281 22.8198C6.2217 23.0166 6.8121 23.2128 7.7955 23.4099V24H1.5V23.4093C2.2866 23.2125 2.877 23.0157 3.0738 22.6221C3.6639 22.0326 4.2543 21.0489 4.8444 19.2783L11.7294 0H12.3195L19.2048 19.4754C19.5984 21.0492 20.1888 22.0329 20.5821 22.623C21.1722 23.016 21.7623 23.2128 22.5492 23.4099V24H14.6805V23.4093C15.4674 23.2125 16.0575 23.2125 16.254 22.8192C16.6479 22.6224 16.6479 22.2291 16.6479 21.8355C16.6479 21.4425 16.4511 20.6553 16.0575 19.4748L15.0741 16.131V16.1313ZM14.484 14.9511L11.1396 5.508L7.7955 14.9511H14.484Z" fill="#0000A3"/>
</svg>
