<svg width="66" height="74" viewBox="0 0 66 74" fill="none" xmlns="http://www.w3.org/2000/svg">
<path d="M38.0215 0.199149C39.188 -0.214344 40.4865 0.0258832 41.4278 0.829338L59.4641 16.2237C60.4054 17.0272 60.8466 18.2718 60.6214 19.4888L56.3076 42.8058C56.0825 44.0228 55.2252 45.0271 54.0587 45.4406L31.7086 53.3633C30.5421 53.7768 29.2437 53.5365 28.3023 52.7331L10.2661 37.3387C9.32478 36.5352 8.88359 35.2906 9.10873 34.0736L13.4226 10.7566C13.6477 9.53966 14.505 8.53527 15.6715 8.12177L38.0215 0.199149Z" fill="#FBB939"/>
<path d="M36.7612 7.01163C37.9277 6.59814 39.2261 6.83836 40.1675 7.64182L63.4734 27.534C64.4147 28.3375 64.8559 29.5821 64.6307 30.7991L59.0565 60.9287C58.8314 62.1456 57.9741 63.15 56.8076 63.5635L27.9275 73.8009C26.761 74.2144 25.4626 73.9742 24.5212 73.1707L1.21533 53.2785C0.273996 52.475 -0.167194 51.2304 0.0579503 50.0135L5.63217 19.8839C5.85731 18.6669 6.71459 17.6625 7.88107 17.249L36.7612 7.01163Z" fill="#1F212F"/>
<path d="M36.1313 10.4179C37.2978 10.0044 38.5963 10.2446 39.5376 11.0481L57.5738 26.4425C58.5152 27.2459 58.9564 28.4905 58.7312 29.7075L54.4174 53.0245C54.1922 54.2415 53.335 55.2459 52.1685 55.6594L29.8184 63.582C28.6519 63.9955 27.3535 63.7553 26.4121 62.9518L8.37588 47.5574C7.43455 46.7539 6.99336 45.5093 7.2185 44.2924L11.5323 20.9753C11.7575 19.7584 12.6148 18.754 13.7812 18.3405L36.1313 10.4179Z" fill="#FBB939"/>
<path fill-rule="evenodd" clip-rule="evenodd" d="M39.5376 11.0481C38.5963 10.2446 37.2978 10.0044 36.1313 10.4179L13.7812 18.3405C12.6148 18.754 11.7575 19.7584 11.5323 20.9753L7.37841 43.428C14.536 38.5076 23.5702 36.3169 32.7858 38.0218C42.0014 39.7268 49.6539 45.0047 54.5773 52.1602L58.7312 29.7075C58.9564 28.4905 58.5152 27.2459 57.5738 26.4425L39.5376 11.0481Z" fill="#EC9D04"/>
<path d="M36.1234 10.4255C37.294 10.0077 38.5987 10.2491 39.5423 11.058L61.4681 29.8535C61.8736 30.2011 62.0634 30.7383 61.9662 31.2635C61.7562 32.3989 60.3947 32.8799 59.518 32.1284L38.9121 14.4643C37.9685 13.6553 36.6638 13.414 35.4932 13.8317L9.93149 22.9544C8.84398 23.3426 7.74472 22.4064 7.95478 21.2709C8.05195 20.7458 8.42135 20.312 8.92436 20.1325L36.1234 10.4255Z" fill="#1F202F" fill-opacity="0.3"/>
<path fill-rule="evenodd" clip-rule="evenodd" d="M40.7977 4.23558C39.8564 3.43213 38.5579 3.1919 37.3914 3.60539L8.51131 13.8428C7.34483 14.2563 6.48755 15.2607 6.26241 16.4776L0.688192 46.6072C0.463047 47.8242 0.904236 49.0688 1.84557 49.8722L25.1515 69.7645C26.0928 70.5679 27.3913 70.8081 28.5577 70.3946L57.4379 60.1573C58.6043 59.7438 59.4616 58.7394 59.6868 57.5224L65.261 27.3928C65.4861 26.1759 65.0449 24.9313 64.1036 24.1278L40.7977 4.23558ZM39.5373 11.0481C38.596 10.2447 37.2975 10.0045 36.131 10.418L13.781 18.3406C12.6145 18.7541 11.7572 19.7585 11.5321 20.9754L7.21824 44.2925C6.99309 45.5094 7.43428 46.754 8.37562 47.5575L26.4118 62.9519C27.3532 63.7553 28.6516 63.9956 29.8181 63.5821L52.1682 55.6595C53.3347 55.246 54.192 54.2416 54.4171 53.0246L58.7309 29.7076C58.9561 28.4906 58.5149 27.246 57.5736 26.4426L39.5373 11.0481Z" fill="#5D6081"/>
<path fill-rule="evenodd" clip-rule="evenodd" d="M37.3914 3.60539C38.5579 3.1919 39.8564 3.43213 40.7977 4.23558L64.1036 24.1278C65.0449 24.9313 65.4861 26.1759 65.261 27.3928L64.3644 32.2388L58.4646 31.1472L58.7309 29.7076C58.9561 28.4906 58.5149 27.246 57.5736 26.4426L39.5373 11.0481C38.596 10.2447 37.2975 10.0045 36.131 10.418L13.781 18.3406C12.6145 18.7541 11.7572 19.7585 11.5321 20.9754L11.2657 22.4151L5.36587 21.3236L6.26241 16.4776C6.48755 15.2607 7.34483 14.2563 8.51131 13.8428L37.3914 3.60539Z" fill="#7275A0"/>
<path fill-rule="evenodd" clip-rule="evenodd" d="M42.9093 48.5147C42.575 48.6898 42.5306 48.7244 42.5306 48.7244C42.5306 48.7244 42.9079 49.6289 44.2591 49.6597C45.0585 49.6783 46.3742 49.0232 46.3742 49.0232C46.3742 49.0232 44.6362 47.5816 42.9093 48.5147Z" fill="#AF7811"/>
<path fill-rule="evenodd" clip-rule="evenodd" d="M43.3412 47.5498C43.3595 47.9209 43.3605 47.9771 43.3605 47.9771C43.3605 47.9771 44.3364 47.8011 44.9751 46.461C45.3431 45.6887 45.349 44.2141 45.349 44.2141C45.349 44.2141 43.2488 45.6382 43.3412 47.5498Z" fill="#AF7811"/>
<path fill-rule="evenodd" clip-rule="evenodd" d="M45.7873 47.1545C45.4995 47.4076 45.4778 47.453 45.4778 47.453C45.4778 47.453 46.0877 48.1618 47.4542 47.8095C48.2494 47.6032 49.4007 46.591 49.4007 46.591C49.4007 46.591 47.2471 45.7876 45.7873 47.1545Z" fill="#AF7811"/>
<path fill-rule="evenodd" clip-rule="evenodd" d="M46.0904 46.5187C46.0904 46.5187 47.0274 46.0733 47.2929 44.6389C47.4349 43.8146 47.0491 42.4601 47.0491 42.4601C47.0491 42.4601 45.375 44.3938 45.9597 46.1498C46.0785 46.4852 46.0904 46.5187 46.0904 46.5187Z" fill="#AF7811"/>
<path fill-rule="evenodd" clip-rule="evenodd" d="M48.2913 45.0588C48.0835 45.3779 48.0618 45.4233 48.0618 45.4233C48.0618 45.4233 48.859 45.9147 50.1054 45.1708C50.8401 44.7405 51.6941 43.475 51.6941 43.475C51.6941 43.475 49.3617 43.3391 48.2913 45.0588Z" fill="#AF7811"/>
<path fill-rule="evenodd" clip-rule="evenodd" d="M48.4248 44.3699C48.4248 44.3699 49.2331 43.668 49.094 42.2638C49.0337 41.4546 48.2584 40.3325 48.2584 40.3325C48.2584 40.3325 47.1088 42.6277 48.1826 44.0593C48.3902 44.3255 48.4021 44.359 48.4248 44.3699Z" fill="#AF7811"/>
<path fill-rule="evenodd" clip-rule="evenodd" d="M50.1983 42.3442C50.0813 42.7066 50.0597 42.752 50.0597 42.752C50.0597 42.752 50.9867 42.9709 52.0245 41.9045C52.6208 41.2967 53.1449 39.8462 53.1449 39.8462C53.1449 39.8462 50.8036 40.4307 50.1983 42.3442Z" fill="#AF7811"/>
<path fill-rule="evenodd" clip-rule="evenodd" d="M50.1927 39.6657C49.9419 38.9051 48.9459 38.0123 48.9459 38.0123C48.9459 38.0123 48.2603 40.4451 49.6544 41.5555C49.9172 41.7643 49.9518 41.8087 49.9518 41.8087C49.9518 41.8087 50.6109 40.9521 50.1927 39.6657Z" fill="#AF7811"/>
<path fill-rule="evenodd" clip-rule="evenodd" d="M51.3418 39.7113C51.3418 39.7113 52.3306 39.6251 53.0829 38.3391C53.5191 37.5992 53.6375 36.1226 53.6375 36.1226C53.6375 36.1226 51.4659 37.3454 51.356 39.2721C51.3407 39.6551 51.3418 39.7113 51.3418 39.7113Z" fill="#AF7811"/>
<path fill-rule="evenodd" clip-rule="evenodd" d="M50.6508 38.8802C50.9569 38.9983 51.0023 39.0199 51.0023 39.0199C51.0023 39.0199 51.457 38.0659 50.7379 36.9427C50.3206 36.2978 49.094 35.7133 49.094 35.7133C49.094 35.7133 48.9947 38.2025 50.6508 38.8802Z" fill="#AF7811"/>
<path fill-rule="evenodd" clip-rule="evenodd" d="M51.7765 36.5181C51.7765 36.5181 52.7372 36.1397 53.1271 34.7368C53.3481 33.9222 53.0737 32.5093 53.0737 32.5093C53.0737 32.5093 51.2276 34.2775 51.6673 36.1037C51.7527 36.451 51.7765 36.5181 51.7765 36.5181Z" fill="#AF7811"/>
<path fill-rule="evenodd" clip-rule="evenodd" d="M48.7006 33.3797C48.7006 33.3797 49.072 35.7587 50.8785 36.0622C51.2171 36.112 51.2625 36.1337 51.2625 36.1337C51.2625 36.1337 51.5246 35.1158 50.5957 34.1992C50.0344 33.6808 48.7006 33.3797 48.7006 33.3797Z" fill="#AF7811"/>
<path fill-rule="evenodd" clip-rule="evenodd" d="M51.1264 33.0864C51.2896 33.3872 51.3242 33.4316 51.3242 33.4316C51.3242 33.4316 52.1791 32.8077 52.186 31.3894C52.1928 30.5564 51.5397 29.3532 51.5397 29.3532C51.5397 29.3532 50.1965 31.5283 51.1264 33.0864Z" fill="#AF7811"/>
<path fill-rule="evenodd" clip-rule="evenodd" d="M50.7725 33.4194C50.7725 33.4194 50.9557 32.3917 49.9498 31.5779C49.3669 31.1049 47.9682 30.94 47.9682 30.94C47.9682 30.94 48.5408 33.2477 50.3668 33.3933C50.7271 33.3977 50.7498 33.4085 50.7725 33.4194Z" fill="#AF7811"/>
<path fill-rule="evenodd" clip-rule="evenodd" d="M49.9045 30.971C50.1998 31.1117 50.2452 31.1334 50.2452 31.1334C50.2452 31.1334 50.7561 30.1783 50.0706 29.0432C49.6868 28.3865 48.4927 27.7338 48.4927 27.7338C48.4927 27.7338 48.2918 30.2024 49.9045 30.971Z" fill="#AF7811"/>
<path fill-rule="evenodd" clip-rule="evenodd" d="M19.2345 44.1345C19.484 44.4177 19.5131 44.4659 19.5131 44.4659C19.5131 44.4659 18.8372 45.1755 17.5645 44.7208C16.8112 44.4522 15.817 43.3697 15.817 43.3697C15.817 43.3697 17.9557 42.6454 19.2345 44.1345Z" fill="#AF7811"/>
<path fill-rule="evenodd" clip-rule="evenodd" d="M19.1763 43.0788C19.0264 43.4188 19.0053 43.471 19.0053 43.471C19.0053 43.471 18.157 42.9574 18.0401 41.4775C17.9727 40.6246 18.4947 39.2456 18.4947 39.2456C18.4947 39.2456 19.9465 41.3268 19.1763 43.0788Z" fill="#AF7811"/>
<path fill-rule="evenodd" clip-rule="evenodd" d="M17.0334 41.8347C17.2117 42.174 17.2156 42.2242 17.2156 42.2242C17.2156 42.2242 16.3925 42.6678 15.2425 41.8501C14.5738 41.3728 13.8608 40.0157 13.8608 40.0157C13.8608 40.0157 16.1593 40.036 17.0334 41.8347Z" fill="#AF7811"/>
<path fill-rule="evenodd" clip-rule="evenodd" d="M16.978 41.1324C16.978 41.1324 16.2623 40.3813 16.5276 38.9468C16.6899 38.1263 17.5348 36.9994 17.5348 36.9994C17.5348 36.9994 18.4063 39.4042 17.2321 40.8347C17.0011 41.1054 16.978 41.1324 16.978 41.1324Z" fill="#AF7811"/>
<path fill-rule="evenodd" clip-rule="evenodd" d="M15.4453 38.9818C15.5252 39.3541 15.5292 39.4042 15.5292 39.4042C15.5292 39.4042 14.609 39.5779 13.7111 38.4373C13.179 37.7726 12.8344 36.2854 12.8344 36.2854C12.8344 36.2854 15.061 36.9929 15.4453 38.9818Z" fill="#AF7811"/>
<path fill-rule="evenodd" clip-rule="evenodd" d="M15.567 38.2907C15.567 38.2907 15.0633 37.3461 15.6956 36.0846C16.0414 35.3505 17.1669 34.5801 17.1669 34.5801C17.1669 34.5801 17.4192 37.1347 15.9044 38.0874C15.6152 38.2616 15.5921 38.2887 15.567 38.2907Z" fill="#AF7811"/>
<path fill-rule="evenodd" clip-rule="evenodd" d="M14.6357 35.7646C14.6153 36.1448 14.6192 36.195 14.6192 36.195C14.6192 36.195 13.6753 36.0677 13.0877 34.7006C12.7483 33.9198 12.7779 32.3777 12.7779 32.3777C12.7779 32.3777 14.755 33.7612 14.6357 35.7646Z" fill="#AF7811"/>
<path fill-rule="evenodd" clip-rule="evenodd" d="M15.5991 33.2654C16.1053 32.6449 17.3549 32.1675 17.3549 32.1675C17.3549 32.1675 17.1247 34.6845 15.4256 35.2226C15.1055 35.3237 15.0573 35.3527 15.0573 35.3527C15.0573 35.3527 14.7483 34.317 15.5991 33.2654Z" fill="#AF7811"/>
<path fill-rule="evenodd" clip-rule="evenodd" d="M14.5099 32.8972C14.5099 32.8972 13.6174 32.4629 13.375 30.9928C13.2324 30.1459 13.6501 28.7247 13.6501 28.7247C13.6501 28.7247 15.2405 30.6435 14.6538 32.482C14.531 32.845 14.5099 32.8972 14.5099 32.8972Z" fill="#AF7811"/>
<path fill-rule="evenodd" clip-rule="evenodd" d="M15.4528 32.3684C15.1247 32.3691 15.0745 32.373 15.0745 32.373C15.0745 32.373 14.9913 31.3195 16.0646 30.528C16.685 30.0751 18.0396 29.968 18.0396 29.968C18.0396 29.968 17.2417 32.328 15.4528 32.3684Z" fill="#AF7811"/>
<path fill-rule="evenodd" clip-rule="evenodd" d="M15.2463 29.7594C15.2463 29.7594 14.4845 29.0624 14.6223 27.6128C14.7074 26.7731 15.4691 25.5518 15.4691 25.5518C15.4691 25.5518 16.5604 27.8635 15.4964 29.4115C15.2925 29.7053 15.2463 29.7594 15.2463 29.7594Z" fill="#AF7811"/>
<path fill-rule="evenodd" clip-rule="evenodd" d="M19.2415 27.9293C19.2415 27.9293 18.0436 30.0179 16.2481 29.655C15.914 29.5804 15.8639 29.5844 15.8639 29.5844C15.8639 29.5844 15.9833 28.5401 17.1787 28.0166C17.8883 27.7333 19.2415 27.9293 19.2415 27.9293Z" fill="#AF7811"/>
<path fill-rule="evenodd" clip-rule="evenodd" d="M17.0814 26.7877C16.8213 27.0102 16.7731 27.0392 16.7731 27.0392C16.7731 27.0392 16.1981 26.1507 16.699 24.8239C16.9907 24.0436 18.031 23.1537 18.031 23.1537C18.031 23.1537 18.5071 25.6654 17.0814 26.7877Z" fill="#AF7811"/>
<path fill-rule="evenodd" clip-rule="evenodd" d="M17.2927 27.2252C17.2927 27.2252 17.4893 26.2 18.7197 25.7999C19.4333 25.5668 20.7984 25.9133 20.7984 25.9133C20.7984 25.9133 19.4381 27.8634 17.6808 27.346C17.3428 27.2212 17.3177 27.2232 17.2927 27.2252Z" fill="#AF7811"/>
<path fill-rule="evenodd" clip-rule="evenodd" d="M18.9791 25.2494C18.653 25.2752 18.6028 25.2791 18.6028 25.2791C18.6028 25.2791 18.4674 24.2045 19.5136 23.3898C20.107 22.9139 21.4556 22.7316 21.4556 22.7316C21.4556 22.7316 20.7601 25.1087 18.9791 25.2494Z" fill="#AF7811"/>
<path d="M25.5862 38.8758L31.4072 39.9527L30.1268 46.8734C30.0169 47.4675 30.2969 47.8265 30.9668 47.9504C31.6242 48.072 32.0078 47.8358 32.1177 47.2417L33.612 39.1644C33.0981 39.54 32.2533 39.619 31.0777 39.4015C29.485 39.1068 28.2532 38.4867 27.3823 37.5412C26.5263 36.5854 26.2247 35.4249 26.4772 34.0597L27.6489 27.7268C27.9412 26.1468 28.7914 25.049 30.1995 24.4336C31.6099 23.8056 33.3264 23.6787 35.3489 24.0529C37.3966 24.4317 38.9679 25.1604 40.0626 26.2388C41.17 27.3196 41.5786 28.6437 41.2887 30.2111L38.0474 47.7308C37.3972 51.2449 34.7779 52.5775 30.1894 51.7286C25.6894 50.896 23.7621 48.7354 24.4076 45.2466L25.5862 38.8758ZM34.3171 35.3533L35.5238 28.8308C35.6338 28.2367 35.3601 27.8788 34.7027 27.7572C34.0328 27.6333 33.6429 27.8684 33.533 28.4625L32.3262 34.985C32.2163 35.5791 32.4963 35.9381 33.1663 36.062C33.8236 36.1836 34.2072 35.9474 34.3171 35.3533Z" fill="#282936"/>
<path d="M18.5668 50.8918L27.9546 58.6005C28.4883 59.0387 29.2095 59.1721 29.8645 58.9538L41.3889 55.114L40.4387 60.25C40.3057 60.9692 39.7923 61.5592 39.0984 61.7904L28.6987 65.2555C28.0436 65.4737 27.3224 65.3403 26.7888 64.9021L18.3172 57.9457C17.7519 57.4816 17.4836 56.7469 17.6166 56.0277L18.5668 50.8918Z" fill="#5D6081"/>
<path d="M14.2086 52.5515L27.1007 63.1926C27.636 63.6344 28.3614 63.7686 29.0193 63.5476L44.8652 58.2232L43.5047 65.5766C43.372 66.294 42.8608 66.883 42.1692 67.1154L27.4439 72.0633C26.7859 72.2843 26.0605 72.1501 25.5252 71.7083L13.5448 61.8196C12.9821 61.3552 12.7154 60.6223 12.8482 59.9049L14.2086 52.5515Z" fill="#3A3D53"/>
<path d="M29.1809 60.523L29.8034 62.8356C29.824 62.9713 29.9408 63.0808 30.0654 63.1478L32.2986 63.9126C32.696 63.9861 32.7499 64.4355 32.4378 64.6415L30.4532 65.9884C30.3492 66.057 30.2736 66.2188 30.25 66.3463L30.2228 68.7146C30.2041 69.0627 29.7958 69.2948 29.5182 69.0676L27.6472 67.5788C27.5305 67.4693 27.398 67.4448 27.2498 67.5053L24.97 68.2262C24.6295 68.339 24.2792 68.0105 24.4383 67.6444L25.2603 65.4232C25.328 65.3039 25.2711 65.1175 25.1986 65.0162L23.8272 63.0485C23.6536 62.7527 23.8647 62.3522 24.2258 62.3751L26.5848 62.4599C26.7173 62.4844 26.8734 62.3815 26.9411 62.2621L28.3498 60.3253C28.6256 60.0687 29.0672 60.1504 29.1809 60.523Z" fill="#FBB939"/>
<path fill-rule="evenodd" clip-rule="evenodd" d="M30.1799 60.2362L30.7291 62.2767L32.5821 62.9112C33.1426 63.0511 33.5663 63.4888 33.6598 64.0595C33.7527 64.627 33.4945 65.1854 33.0173 65.5042L31.2854 66.6795L31.2617 68.7485L31.2605 68.7705C31.2296 69.3452 30.8817 69.8003 30.4512 70.0267C30.0051 70.2613 29.377 70.2901 28.867 69.8776L27.2538 68.594L25.2879 69.2156C24.2006 69.5679 22.9515 68.5248 23.4716 67.2623L24.1741 65.3639L22.9514 63.6095L22.9309 63.5745C22.3913 62.6552 22.9908 61.2684 24.2742 61.337L26.2766 61.409L27.5684 59.6329L27.6419 59.5645C28.3896 58.8688 29.802 58.9982 30.1748 60.2197L30.1799 60.2362ZM24.2258 62.3751C23.8646 62.3523 23.6535 62.7527 23.8272 63.0485L25.1985 65.0163C25.2711 65.1176 25.328 65.3039 25.2602 65.4232L24.4383 67.6444C24.2792 68.0105 24.6294 68.339 24.97 68.2262L27.2498 67.5053C27.3979 67.4448 27.5304 67.4694 27.6472 67.5788L29.5181 69.0677C29.7958 69.2948 30.2041 69.0627 30.2228 68.7146L30.2499 66.3464C30.2735 66.2189 30.3491 66.0571 30.4532 65.9884L32.4377 64.6415C32.7498 64.4356 32.696 63.9861 32.2986 63.9126L30.0653 63.1479C29.9407 63.0808 29.824 62.9714 29.8034 62.8357L29.1809 60.5231C29.0671 60.1504 28.6256 60.0687 28.3498 60.3253L26.9411 62.2622C26.8733 62.3815 26.7173 62.4845 26.5848 62.46L24.2258 62.3751Z" fill="#3A3C53"/>
<path d="M18.9681 59.5288L19.2171 60.4539C19.2253 60.5082 19.272 60.552 19.3218 60.5788L20.2151 60.8847C20.3741 60.9141 20.3956 61.0939 20.2708 61.1762L19.477 61.715C19.4353 61.7424 19.4051 61.8072 19.3957 61.8582L19.3848 62.8055C19.3773 62.9447 19.214 63.0376 19.1029 62.9467L18.3546 62.3512C18.3079 62.3074 18.2549 62.2976 18.1956 62.3217L17.2837 62.6101C17.1475 62.6552 17.0074 62.5238 17.071 62.3774L17.3998 61.4889C17.4269 61.4412 17.4041 61.3667 17.3751 61.3261L16.8266 60.539C16.7571 60.4207 16.8416 60.2605 16.986 60.2697L17.9296 60.3036C17.9826 60.3134 18.045 60.2722 18.0721 60.2245L18.6356 59.4498C18.7459 59.3471 18.9226 59.3798 18.9681 59.5288Z" fill="#FBB939"/>
<path d="M38.0435 63.0579L38.2925 63.983C38.3007 64.0373 38.3474 64.0811 38.3973 64.1079L39.2906 64.4138C39.4495 64.4432 39.4711 64.623 39.3462 64.7053L38.5524 65.2441C38.5108 65.2715 38.4805 65.3363 38.4711 65.3873L38.4602 66.3346C38.4528 66.4738 38.2894 66.5667 38.1784 66.4758L37.43 65.8803C37.3833 65.8365 37.3303 65.8267 37.271 65.8508L36.3591 66.1392C36.2229 66.1843 36.0828 66.0529 36.1464 65.9065L36.4752 65.018C36.5023 64.9703 36.4796 64.8958 36.4505 64.8552L35.902 64.0681C35.8325 63.9498 35.917 63.7896 36.0614 63.7988L37.005 63.8327C37.058 63.8425 37.1205 63.8013 37.1476 63.7536L37.711 62.9789C37.8214 62.8762 37.998 62.9089 38.0435 63.0579Z" fill="#FBB939"/>
<path d="M39.1807 5.01442L39.5063 6.2241C39.5171 6.29506 39.5781 6.35234 39.6433 6.38738L40.8115 6.78742C41.0193 6.82587 41.0475 7.06097 40.8843 7.1687L39.8462 7.87322C39.7918 7.90913 39.7522 7.99377 39.7399 8.06045L39.7257 9.29922C39.7159 9.48132 39.5023 9.60273 39.3571 9.48391L38.3784 8.70514C38.3174 8.64786 38.2481 8.63504 38.1705 8.66668L36.9781 9.04377C36.7999 9.10277 36.6167 8.93094 36.6999 8.73943L37.1299 7.57758C37.1653 7.51517 37.1356 7.41771 37.0976 7.36471L36.3803 6.33543C36.2895 6.1807 36.3999 5.97124 36.5888 5.98319L37.8227 6.02757C37.892 6.04039 37.9736 5.98653 38.0091 5.92412L38.7459 4.911C38.8902 4.77677 39.1212 4.8195 39.1807 5.01442Z" fill="#FBB939"/>
<path d="M60.2042 39.9052L60.5298 41.1149C60.5406 41.1858 60.6017 41.2431 60.6668 41.2782L61.835 41.6782C62.0429 41.7167 62.0711 41.9518 61.9078 42.0595L60.8697 42.764C60.8153 42.7999 60.7757 42.8845 60.7634 42.9512L60.7492 44.19C60.7394 44.3721 60.5258 44.4935 60.3806 44.3747L59.402 43.5959C59.3409 43.5386 59.2716 43.5258 59.1941 43.5575L58.0016 43.9345C57.8235 43.9935 57.6403 43.8217 57.7235 43.6302L58.1534 42.4684C58.1888 42.4059 58.1591 42.3085 58.1211 42.2555L57.4038 41.2262C57.313 41.0715 57.4234 40.862 57.6123 40.874L58.8463 40.9184C58.9156 40.9312 58.9972 40.8773 59.0326 40.8149L59.7695 39.8018C59.9137 39.6675 60.1447 39.7103 60.2042 39.9052Z" fill="#FBB939"/>
<path d="M6.72552 30.0114L7.05114 31.2211C7.0619 31.2921 7.12297 31.3493 7.18815 31.3844L8.35631 31.7844C8.56419 31.8229 8.59236 32.058 8.4291 32.1657L7.39101 32.8702C7.3366 32.9061 7.29705 32.9908 7.28471 33.0574L7.27052 34.2962C7.26072 34.4783 7.04715 34.5997 6.90192 34.4809L5.92327 33.7021C5.8622 33.6449 5.79291 33.632 5.71539 33.6637L4.52289 34.0408C4.34476 34.0998 4.16156 33.9279 4.24477 33.7364L4.67471 32.5746C4.71014 32.5122 4.6804 32.4147 4.64243 32.3617L3.92511 31.3324C3.8343 31.1777 3.94471 30.9682 4.13361 30.9802L5.36757 31.0246C5.43686 31.0374 5.51849 30.9835 5.55392 30.9211L6.29078 29.908C6.43505 29.7738 6.66603 29.8165 6.72552 30.0114Z" fill="#FBB939"/>
<path d="M44.3051 9.0892L44.5292 9.92174C44.5366 9.97058 44.5786 10.01 44.6235 10.0341L45.4274 10.3094C45.5705 10.3359 45.5899 10.4977 45.4775 10.5719L44.7631 11.0567C44.7256 11.0814 44.6984 11.1397 44.6899 11.1856L44.6802 12.0381C44.6734 12.1635 44.5264 12.247 44.4265 12.1653L43.7529 11.6293C43.7109 11.5899 43.6632 11.581 43.6099 11.6028L42.7891 11.8623C42.6666 11.9029 42.5405 11.7847 42.5977 11.6529L42.8936 10.8533C42.918 10.8103 42.8976 10.7432 42.8714 10.7067L42.3777 9.99836C42.3152 9.89187 42.3912 9.74771 42.5212 9.75594L43.3705 9.78649C43.4182 9.79531 43.4744 9.75824 43.4987 9.71528L44.0059 9.01802C44.1052 8.92564 44.2641 8.95505 44.3051 9.0892Z" fill="#FBB939"/>
<path d="M33.0642 7.0094L33.2883 7.84195C33.2957 7.89079 33.3378 7.93021 33.3826 7.95433L34.1866 8.22964C34.3297 8.25611 34.3491 8.41792 34.2367 8.49206L33.5223 8.97693C33.4848 9.00164 33.4576 9.05989 33.4491 9.10579L33.4393 9.95836C33.4326 10.0837 33.2856 10.1672 33.1856 10.0855L32.5121 9.54949C32.4701 9.51007 32.4224 9.50124 32.369 9.52302L31.5483 9.78254C31.4257 9.82315 31.2996 9.70489 31.3569 9.57309L31.6528 8.77346C31.6772 8.73051 31.6567 8.66343 31.6306 8.62695L31.1369 7.91857C31.0744 7.81208 31.1504 7.66792 31.2804 7.67615L32.1296 7.70669C32.1773 7.71552 32.2335 7.67844 32.2579 7.63549L32.765 6.93823C32.8643 6.84584 33.0233 6.87525 33.0642 7.0094Z" fill="#FBB939"/>
</svg>
