<svg width="31" height="31" viewBox="0 0 31 31" fill="none" xmlns="http://www.w3.org/2000/svg">
<circle cx="15.5" cy="15.5" r="15" fill="#434451" stroke="#1F202D"/>
<path fill-rule="evenodd" clip-rule="evenodd" d="M21.9004 7.5C22.1771 7.5 22.4538 7.63835 22.6844 7.82282L26.5121 12.0655C26.6043 12.2039 26.6504 12.2961 26.6504 12.4806V14.5097C26.6504 14.6481 26.6043 14.7864 26.466 14.9248L15.8592 26.3155C15.7208 26.4539 15.5825 26.5 15.398 26.5C15.2135 26.5 15.0752 26.4539 14.9368 26.3155L4.42226 14.9709C4.33003 14.8325 4.23779 14.6942 4.23779 14.5558V12.5267C4.23779 12.3883 4.28391 12.25 4.37614 12.1117L8.20381 7.86893C8.38828 7.63835 8.66498 7.54612 8.98779 7.54612C13.2766 7.5 17.6577 7.5 21.9004 7.5Z" fill="#1D1D1B"/>
<path fill-rule="evenodd" clip-rule="evenodd" d="M12.0775 8.46845L9.81779 12.8956C9.77167 12.9418 9.77167 13.034 9.81779 13.0801C9.86391 13.1262 9.91002 13.1723 9.95614 13.1723H20.8858C20.9319 13.1723 21.0241 13.1262 21.0241 13.0801C21.0702 13.034 21.0702 12.9418 21.0241 12.8956L18.8566 8.46845C18.8105 8.42234 18.7644 8.37622 18.6722 8.37622H12.262C12.1697 8.37622 12.1236 8.42234 12.0775 8.46845Z" fill="url(#paint0_linear_2722_32660)"/>
<path fill-rule="evenodd" clip-rule="evenodd" d="M12.5848 8.83735L10.6479 12.6189C10.6018 12.665 10.6479 12.7111 10.6479 12.7573C10.6941 12.8034 10.7402 12.8495 10.7863 12.8495H20.1018C20.1479 12.8495 20.1941 12.8034 20.2402 12.7573C20.2863 12.7111 20.2863 12.665 20.2402 12.6189L18.3033 8.83735C18.2572 8.79123 18.211 8.74512 18.1649 8.74512H12.7232C12.6771 8.74512 12.6309 8.74512 12.5848 8.83735Z" fill="url(#paint1_linear_2722_32660)"/>
<path fill-rule="evenodd" clip-rule="evenodd" d="M12.5851 8.83735L10.6943 12.5728C10.6482 12.6189 10.6943 12.665 10.6943 12.7111C10.7404 12.7573 10.7866 12.8034 10.8327 12.8034H12.1701C12.2623 12.8034 12.3545 12.7573 12.4006 12.665L13.8764 9.57521C13.9225 9.5291 13.9686 9.48298 14.0147 9.48298H18.2574C18.3497 9.48298 18.4419 9.43686 18.488 9.34463C18.5341 9.2524 18.5341 9.20628 18.488 9.11405L18.3497 8.83735C18.3035 8.79123 18.2574 8.74512 18.2113 8.74512H12.7235C12.6773 8.74512 12.6312 8.79123 12.5851 8.83735Z" fill="white"/>
<path fill-rule="evenodd" clip-rule="evenodd" d="M15.3057 24.932L9.81779 14.1869C9.77167 14.1407 9.77167 14.0485 9.81779 14.0024C9.86391 13.9563 9.91002 13.9102 9.95614 13.9102H20.8858C20.9319 13.9102 21.0241 13.9563 21.0241 14.0024C21.0702 14.0485 21.0702 14.1407 21.0241 14.1869L15.6285 24.932C15.5824 24.9781 15.5362 25.0242 15.444 25.0242C15.3979 25.0242 15.3518 25.0242 15.3057 24.932Z" fill="url(#paint2_linear_2722_32660)"/>
<path fill-rule="evenodd" clip-rule="evenodd" d="M14.6142 22.3495L10.6943 14.6942C10.6482 14.6481 10.6943 14.602 10.6943 14.5559C10.7404 14.5097 10.7866 14.4636 10.8327 14.4636H20.0099C20.056 14.4636 20.1021 14.5097 20.1482 14.5559C20.1943 14.602 20.1943 14.6481 20.1482 14.6942L19.8254 15.386H12.539C12.4929 15.386 12.4468 15.4321 12.4468 15.4782C12.4006 15.5243 12.4006 15.5704 12.4468 15.6627L14.8448 22.2573C14.8448 22.3034 14.8448 22.3957 14.7987 22.3957C14.7065 22.4418 14.6603 22.3957 14.6142 22.3495Z" fill="url(#paint3_linear_2722_32660)"/>
<path fill-rule="evenodd" clip-rule="evenodd" d="M16.8736 23.8252L22.4075 14.0024C22.4537 13.9563 22.4998 13.9102 22.5459 13.9102H25.8663C25.9585 13.9102 26.0046 13.9563 26.0507 14.0024C26.0969 14.0485 26.0507 14.1407 26.0046 14.1869L17.1964 24.0558C17.1503 24.148 17.0119 24.148 16.9658 24.1019C16.8736 24.0097 16.8274 23.9174 16.8736 23.8252Z" fill="#447EB1"/>
<path fill-rule="evenodd" clip-rule="evenodd" d="M14.0605 23.8252L8.52656 14.0024C8.48045 13.9563 8.43433 13.9102 8.38821 13.9102H5.02171C4.97559 13.9102 4.88336 13.9563 4.88336 14.0024C4.83724 14.0485 4.88336 14.1407 4.92948 14.1869L13.7838 24.0097C13.83 24.1019 13.9683 24.1019 14.0144 24.0558C14.0605 24.0097 14.1067 23.9174 14.0605 23.8252Z" fill="#A0D9F7"/>
<path fill-rule="evenodd" clip-rule="evenodd" d="M19.9172 8.65295L22.4075 13.0801C22.4536 13.1262 22.4997 13.1724 22.5459 13.1724H25.8662C25.9585 13.1724 26.0046 13.1262 26.0507 13.0801C26.0968 13.034 26.0507 12.9418 26.0046 12.8957L21.9925 8.46848C21.9463 8.42236 21.9002 8.42236 21.8541 8.42236H20.0094C19.9633 8.42236 19.8711 8.46848 19.8711 8.5146C19.8711 8.5146 19.8711 8.60683 19.9172 8.65295Z" fill="url(#paint4_linear_2722_32660)"/>
<path fill-rule="evenodd" clip-rule="evenodd" d="M20.3784 8.92958L22.2692 12.3422C22.3153 12.3883 22.3614 12.4344 22.4075 12.4344H24.944C24.9901 12.4344 25.0362 12.3883 25.0823 12.3422C25.1284 12.2961 25.0823 12.25 25.0362 12.2039L21.9925 8.79123C21.9464 8.74512 21.9464 8.74512 21.9003 8.74512H20.5168C20.4707 8.74512 20.4245 8.79123 20.3784 8.79123C20.3784 8.83735 20.3784 8.88347 20.3784 8.92958Z" fill="url(#paint5_linear_2722_32660)"/>
<path fill-rule="evenodd" clip-rule="evenodd" d="M11.0169 8.65295L8.52656 13.0801C8.48045 13.1262 8.43433 13.1724 8.38821 13.1724H5.02171C4.97559 13.1724 4.88336 13.1262 4.88336 13.0801C4.83724 13.034 4.88336 12.9418 4.92948 12.8957L8.94161 8.46848C8.98773 8.42236 9.03385 8.42236 9.07996 8.42236H10.9246C10.9707 8.42236 11.063 8.46848 11.063 8.5146C11.063 8.5146 11.063 8.60683 11.0169 8.65295Z" fill="url(#paint6_linear_2722_32660)"/>
<path fill-rule="evenodd" clip-rule="evenodd" d="M18.3956 21.7961L22.4538 14.5097C22.4999 14.4636 22.4999 14.4636 22.5922 14.4636H25.0825C25.1286 14.4636 25.1747 14.5097 25.2208 14.5559C25.2208 14.602 25.2208 14.6481 25.2208 14.6942L18.6261 21.9345C18.58 21.9806 18.4878 21.9806 18.4417 21.9345C18.3956 21.8884 18.3495 21.8423 18.3956 21.7961Z" fill="url(#paint7_linear_2722_32660)"/>
<path fill-rule="evenodd" clip-rule="evenodd" d="M12.4927 21.7961L8.38835 14.5097C8.34224 14.4636 8.34224 14.4636 8.25001 14.4636H5.80583C5.75971 14.4636 5.7136 14.5097 5.66748 14.5559C5.66748 14.602 5.66748 14.6481 5.66748 14.6942L12.2621 21.9345C12.3083 21.9806 12.4005 21.9806 12.4466 21.9345C12.4927 21.8884 12.5388 21.8423 12.4927 21.7961Z" fill="url(#paint8_linear_2722_32660)"/>
<path fill-rule="evenodd" clip-rule="evenodd" d="M10.5095 8.92956L8.61877 12.3422C8.57265 12.3883 8.52654 12.4344 8.48042 12.4344H5.94401C5.8979 12.4344 5.85178 12.3883 5.80566 12.3422C5.80566 12.2961 5.80566 12.2038 5.85178 12.1577L8.89547 8.74509C8.94159 8.69897 8.94159 8.69897 8.9877 8.69897H10.3712C10.4173 8.69897 10.4634 8.74509 10.5095 8.74509C10.5557 8.83732 10.5557 8.88344 10.5095 8.92956Z" fill="white"/>
<defs>
<linearGradient id="paint0_linear_2722_32660" x1="7.90465" y1="10.6596" x2="42.9969" y2="11.2722" gradientUnits="userSpaceOnUse">
<stop stop-color="#A0D9F7"/>
<stop offset="1" stop-color="#2D4192"/>
</linearGradient>
<linearGradient id="paint1_linear_2722_32660" x1="16.0955" y1="13.523" x2="10.8957" y2="4.51665" gradientUnits="userSpaceOnUse">
<stop stop-color="#A0D9F7"/>
<stop offset="1" stop-color="white"/>
</linearGradient>
<linearGradient id="paint2_linear_2722_32660" x1="7.68463" y1="18.7422" x2="42.8527" y2="21.2014" gradientUnits="userSpaceOnUse">
<stop stop-color="#A0D9F7"/>
<stop offset="1" stop-color="#2D4192"/>
</linearGradient>
<linearGradient id="paint3_linear_2722_32660" x1="18.0063" y1="24.7837" x2="12.9129" y2="4.35507" gradientUnits="userSpaceOnUse">
<stop stop-color="#A0D9F7"/>
<stop offset="1" stop-color="white"/>
</linearGradient>
<linearGradient id="paint4_linear_2722_32660" x1="18.6627" y1="10.585" x2="38.1265" y2="11.6051" gradientUnits="userSpaceOnUse">
<stop stop-color="#A0D9F7"/>
<stop offset="1" stop-color="#2D4192"/>
</linearGradient>
<linearGradient id="paint5_linear_2722_32660" x1="23.4448" y1="12.8806" x2="20.9781" y2="4.81231" gradientUnits="userSpaceOnUse">
<stop stop-color="#A0D9F7"/>
<stop offset="1" stop-color="white"/>
</linearGradient>
<linearGradient id="paint6_linear_2722_32660" x1="8.86944" y1="13.7877" x2="5.64465" y2="3.23979" gradientUnits="userSpaceOnUse">
<stop stop-color="#A0D9F7"/>
<stop offset="1" stop-color="white"/>
</linearGradient>
<linearGradient id="paint7_linear_2722_32660" x1="16.9974" y1="17.872" x2="38.3807" y2="19.3672" gradientUnits="userSpaceOnUse">
<stop stop-color="#A0D9F7"/>
<stop offset="1" stop-color="#2D4192"/>
</linearGradient>
<linearGradient id="paint8_linear_2722_32660" x1="13.922" y1="17.785" x2="-7.43205" y2="19.6532" gradientUnits="userSpaceOnUse">
<stop stop-color="#A0D9F7"/>
<stop offset="1" stop-color="#2D4192"/>
</linearGradient>
</defs>
</svg>
