<svg width="13" height="16" viewBox="0 0 13 16" fill="none" xmlns="http://www.w3.org/2000/svg">
<path d="M-3.04379e-05 7.34627C-3.03049e-05 4.30365 1.8648 1.45733 4.90743 0.377688C8.04821 -0.8001 11.5816 0.868434 12.6612 4.10735C13.6427 6.75738 12.2686 9.6037 9.61859 10.5852C8.53895 10.9778 7.36116 10.8796 6.37967 10.3889C5.39818 9.89814 4.61298 9.0148 4.22039 8.03331C3.53334 6.16848 4.51483 4.10735 6.37967 3.51846C6.87041 3.32216 7.36116 3.61661 7.55746 4.10735C7.75376 4.5981 7.45931 5.08884 6.96856 5.28514C6.08522 5.57959 5.59447 6.65923 5.88892 7.54257C6.08522 8.13146 6.57597 8.62221 7.16486 8.91665C7.75376 9.2111 8.4408 9.2111 9.0297 9.0148C10.6982 8.42591 11.5816 6.56108 10.9927 4.79439C10.2075 2.53697 7.75376 1.35918 5.49633 2.14437C2.55185 3.22401 1.07961 6.36478 2.0611 9.30925C2.74815 11.1741 4.12224 12.7445 5.98707 13.5297C7.75376 14.3149 9.61859 14.413 11.2871 13.726C11.7779 13.5297 12.2686 13.726 12.4649 14.2167C12.6612 14.7074 12.4649 15.1982 11.9742 15.3945C9.81489 16.2778 7.45931 16.1797 5.20188 15.1982C2.94445 14.2167 1.17776 12.2537 0.392565 9.89814C0.098118 9.0148 -3.04722e-05 8.13146 -3.04379e-05 7.34627Z" fill="#575869"/>
</svg>
