<svg width="10" height="14" viewBox="0 0 10 14" fill="none" xmlns="http://www.w3.org/2000/svg">
<path fill-rule="evenodd" clip-rule="evenodd" d="M9.97205 5.43323C9.81607 6.47912 9.25054 6.98735 8.50291 7.16864C9.52563 7.71328 10.0435 8.55309 9.53869 10.0173C8.91169 11.8356 7.44408 11.9968 5.49546 11.6288L5.01138 13.5827L3.86957 13.296L4.34673 11.3669C4.04262 11.291 3.73935 11.2118 3.43697 11.1291L2.9575 13.0659L1.81722 12.7793L2.3013 10.8207C2.1959 10.7936 2.09002 10.7658 1.98347 10.7378L1.98339 10.7378L1.98322 10.7378C1.81955 10.6948 1.65431 10.6515 1.48682 10.6092L0 10.235L0.574749 8.88545C0.574749 8.88545 1.41613 9.1109 1.4046 9.09463C1.72886 9.17443 1.87331 8.95673 1.93094 8.81185L2.69471 5.7222L2.81612 5.75242C2.77733 5.73681 2.73754 5.72387 2.69702 5.71368L3.24257 3.50801C3.25794 3.25777 3.17572 2.94322 2.71239 2.82624C2.73083 2.81462 1.8833 2.61861 1.8833 2.61861L2.1945 1.36044L3.76968 1.7571L3.76814 1.76253C4.0048 1.82218 4.24915 1.87874 4.49811 1.93529L4.97681 0L6.11862 0.286653L5.64914 2.18476C5.95573 2.25448 6.26385 2.32576 6.56351 2.40168L7.02992 0.516749L8.1725 0.803402L7.6938 2.73947C9.13529 3.24305 10.1872 4.00461 9.97205 5.43323ZM7.33882 9.21788C7.67796 7.84592 5.7049 7.40049 4.73995 7.18264L4.73991 7.18263C4.63142 7.15814 4.53567 7.13652 4.45739 7.11679L3.81733 9.70983C3.88147 9.72587 3.95668 9.74592 4.04087 9.76835L4.04091 9.76836C4.97343 10.0169 7.00913 10.5594 7.34035 9.2171L7.33882 9.21788ZM5.56866 3.63041C6.37315 3.80937 8.02109 4.17596 7.71301 5.42471C7.4105 6.6462 5.71209 6.18751 4.93638 5.97801C4.86684 5.95923 4.80471 5.94245 4.75167 5.92907L5.33334 3.57619C5.39847 3.59255 5.47824 3.6103 5.56866 3.63041Z" fill="white"/>
</svg>
