<svg width="24" height="21" viewBox="0 0 24 21" fill="none" xmlns="http://www.w3.org/2000/svg">
<path fill-rule="evenodd" clip-rule="evenodd" d="M7.29668 0C7.52624 1.26257 6.21447 3.04985 4.85352 3.52537C5.13227 1.80368 6.11609 0.819853 7.29668 0Z" fill="#AF7811"/>
<path fill-rule="evenodd" clip-rule="evenodd" d="M16.6758 0C18.1187 0.655883 19.0042 1.88566 19.3485 3.65655C17.922 2.98427 17.0529 1.73809 16.6758 0Z" fill="#AF7811"/>
<path fill-rule="evenodd" clip-rule="evenodd" d="M4.50932 0.246094C5.08322 1.59065 4.68969 3.85345 3.90263 4.62411C3.04998 3.42712 3.86983 1.14793 4.50932 0.246094Z" fill="#AF7811"/>
<path fill-rule="evenodd" clip-rule="evenodd" d="M19.5942 0.377197C20.5288 1.21345 20.8404 3.31227 20.4468 4.75521C19.4302 4.09933 19.299 1.93492 19.5942 0.377197Z" fill="#AF7811"/>
<path fill-rule="evenodd" clip-rule="evenodd" d="M2.80439 2.44312C3.70623 3.37775 3.42748 5.80451 2.80439 6.82113C1.95175 5.96848 2.27969 3.37775 2.80439 2.44312Z" fill="#AF7811"/>
<path fill-rule="evenodd" clip-rule="evenodd" d="M21.1852 2.44312C22.1527 3.18098 22.0707 5.77172 21.546 6.95231C20.5949 6.08326 20.7425 3.75488 21.1852 2.44312Z" fill="#AF7811"/>
<path fill-rule="evenodd" clip-rule="evenodd" d="M3.65625 6.09981C4.11537 4.4929 5.24677 3.54187 6.7061 2.93518C6.24699 4.55849 5.26316 5.6407 3.65625 6.09981Z" fill="#AF7811"/>
<path fill-rule="evenodd" clip-rule="evenodd" d="M19.8395 5.96848C20.5445 7.06709 21.594 8.42804 21.2988 10.1005C20.2002 9.36268 19.4132 7.69018 19.7083 5.96848C18.6917 5.19782 17.8062 4.29598 17.2651 3.0498C18.6753 3.21378 19.9871 4.55834 20.4298 6.09966C20.1674 6.13245 19.987 6.08326 19.8395 5.96848Z" fill="#AF7811"/>
<path fill-rule="evenodd" clip-rule="evenodd" d="M0.72168 4.6405C1.88587 5.42756 2.47617 6.78852 2.54175 8.65778C1.26278 8.0019 0.803665 6.50977 0.72168 4.6405Z" fill="#AF7811"/>
<path fill-rule="evenodd" clip-rule="evenodd" d="M23.2512 4.6405C23.8251 6.14903 22.7593 8.11668 21.6607 8.77256C21.5951 6.80491 22.4642 5.7555 23.2512 4.6405Z" fill="#AF7811"/>
<path fill-rule="evenodd" clip-rule="evenodd" d="M4.50901 5.85364C4.75496 7.55893 4.09908 9.4118 2.80371 9.9857C2.82011 8.06724 3.59077 6.88665 4.50901 5.85364Z" fill="#AF7811"/>
<path fill-rule="evenodd" clip-rule="evenodd" d="M0.607422 7.5592C2.00117 8.23148 2.67345 9.64163 2.91941 11.4453C1.54205 10.7566 0.935363 9.29729 0.607422 7.5592Z" fill="#AF7811"/>
<path fill-rule="evenodd" clip-rule="evenodd" d="M23.3824 7.5592C23.5956 9.2645 22.5954 10.8386 21.3164 11.4617C21.4148 9.57604 22.3986 8.55943 23.3824 7.5592Z" fill="#AF7811"/>
<path fill-rule="evenodd" clip-rule="evenodd" d="M3.65607 9.51025C4.67269 10.1661 4.78747 12.3306 4.50872 13.8883C3.36093 13.3144 3.42651 11.0352 3.65607 9.51025Z" fill="#AF7811"/>
<path fill-rule="evenodd" clip-rule="evenodd" d="M20.3324 9.62537C21.0867 10.724 20.6932 13.4459 19.7257 14.0034C19.2502 12.5112 19.6601 10.6912 20.3324 9.62537Z" fill="#AF7811"/>
<path fill-rule="evenodd" clip-rule="evenodd" d="M0 10.3629C1.57412 10.904 2.93507 11.6419 3.41059 13.2816C1.83647 12.7241 0.508309 11.9534 0 10.3629Z" fill="#AF7811"/>
<path fill-rule="evenodd" clip-rule="evenodd" d="M23.9884 10.4775C24.1688 11.5597 22.2339 13.0683 20.709 13.2814C21.2829 11.8385 22.5127 11.035 23.9884 10.4775Z" fill="#AF7811"/>
<path fill-rule="evenodd" clip-rule="evenodd" d="M4.86963 12.7899C6.32897 13.6754 7.37838 14.9871 7.54235 17.1679C6.08301 16.2825 5.16478 14.8559 4.86963 12.7899Z" fill="#AF7811"/>
<path fill-rule="evenodd" clip-rule="evenodd" d="M19.3651 12.9209C18.9552 14.823 18.2337 16.4135 16.6924 17.1841C16.84 15.0197 17.873 13.7571 19.3651 12.9209Z" fill="#AF7811"/>
<path fill-rule="evenodd" clip-rule="evenodd" d="M1.70605 13.1504C3.60811 13.5603 4.91988 14.5605 5.83812 15.9543C5.85451 16.2166 5.41179 16.0035 5.23142 16.0691C5.72334 16.479 6.69076 16.397 6.82194 17.1677C5.00187 17.43 2.73907 17.2333 1.95201 16.0691C2.83745 15.8395 4.08363 15.9543 5.00187 16.0691C3.72289 15.282 2.21436 14.7245 1.70605 13.1504Z" fill="#AF7811"/>
<path fill-rule="evenodd" clip-rule="evenodd" d="M18.9882 16.0855C19.808 16.2331 21.3494 15.7084 22.284 16.2003C21.3822 17.2169 19.0702 17.6596 17.4141 17.1677C17.6108 16.5938 18.2175 16.4299 18.8734 16.3151C18.8406 16.1511 18.5619 16.2167 18.3815 16.2003C19.0866 14.5606 20.5787 13.6915 22.5135 13.2816C21.8741 14.741 20.5623 15.5444 18.9882 16.0855Z" fill="#AF7811"/>
<path fill-rule="evenodd" clip-rule="evenodd" d="M7.67279 15.7083C8.755 15.3967 11.7393 17.5284 11.6901 18.5122C11.6081 19.9551 8.32867 20.1355 6.68896 19.7256C7.42683 18.6926 9.41088 18.4794 10.9522 18.627C9.65683 17.8727 8.41066 17.0365 7.67279 15.7083Z" fill="#AF7811"/>
<path fill-rule="evenodd" clip-rule="evenodd" d="M16.3158 15.5936C16.201 16.971 14.6597 17.9876 13.2659 18.5123C14.8236 18.8238 16.8733 18.6435 17.5291 19.8569C15.5943 20.2012 12.9052 19.8733 12.5444 18.6435C13.1839 17.0038 14.6761 16.2331 16.3158 15.5936Z" fill="#AF7811"/>
<path fill-rule="evenodd" clip-rule="evenodd" d="M9.37973 18.0203C8.52708 18.9714 5.67399 18.955 4.39502 18.3811C5.31326 17.3808 8.08436 17.3317 9.37973 18.0203Z" fill="#AF7811"/>
<path fill-rule="evenodd" clip-rule="evenodd" d="M19.8412 18.5124C18.3982 19.0699 16.0534 18.9715 14.8564 18.2664C15.7747 17.2498 19.1197 17.5122 19.8412 18.5124Z" fill="#AF7811"/>
<path fill-rule="evenodd" clip-rule="evenodd" d="M11.6913 19.119C11.9372 19.5453 10.7566 20.5948 10.1008 20.9391C9.88759 20.07 11.3469 19.8569 11.6913 19.119Z" fill="#AF7811"/>
<path fill-rule="evenodd" clip-rule="evenodd" d="M12.166 19.2501C12.6907 19.3485 13.9697 20.3487 13.9861 20.9554C13.1498 21.0866 12.8711 19.66 12.166 19.2501Z" fill="#AF7811"/>
</svg>
