<svg width="26" height="24" viewBox="0 0 26 24" fill="none" xmlns="http://www.w3.org/2000/svg">
<g clip-path="url(#clip0_0_113)">
<path d="M13.1146 22.7005C18.9995 22.7005 23.7702 17.9094 23.7702 11.9993C23.7702 6.08919 18.9995 1.2981 13.1146 1.2981C7.22966 1.2981 2.45898 6.08919 2.45898 11.9993C2.45898 17.9094 7.22966 22.7005 13.1146 22.7005Z" fill="white"/>
<path d="M13.1143 0C10.751 0 8.44081 0.703788 6.47584 2.02236C4.51086 3.34094 2.97934 5.21508 2.07496 7.4078C1.17058 9.60051 0.933955 12.0133 1.395 14.3411C1.85605 16.6689 2.99407 18.807 4.66515 20.4853C6.33622 22.1635 8.46531 23.3064 10.7832 23.7694C13.101 24.2324 15.5035 23.9948 17.6869 23.0865C19.8703 22.1783 21.7364 20.6402 23.0494 18.6668C24.3623 16.6934 25.0631 14.3734 25.0631 12C25.0677 10.4287 24.764 8.87191 24.1695 7.41848C23.575 5.96505 22.7012 4.64345 21.5981 3.52915C20.495 2.41484 19.1841 1.52965 17.7404 0.924121C16.2967 0.318589 14.7483 0.00457211 13.1837 0H13.1143ZM13.3168 12.4068L12.0727 16.6199H18.727C18.7711 16.6183 18.8151 16.6255 18.8564 16.641C18.8977 16.6565 18.9356 16.6801 18.9678 16.7103C19 16.7405 19.026 16.7768 19.0443 16.8171C19.0626 16.8575 19.0727 16.901 19.0742 16.9453V17.0557L18.4956 19.0605C18.4701 19.1553 18.4132 19.2386 18.3344 19.2967C18.2555 19.3548 18.1593 19.3842 18.0616 19.3801H7.8776L9.58458 13.5399L7.67507 14.1211L8.10905 12.7845L10.0186 12.2034L12.4199 4.00968C12.4463 3.91541 12.5034 3.83272 12.5821 3.7748C12.6607 3.71688 12.7564 3.68705 12.8539 3.69007H15.4288C15.4729 3.68852 15.5168 3.69571 15.5581 3.71123C15.5995 3.72674 15.6373 3.75029 15.6696 3.78051C15.7018 3.81073 15.7278 3.84704 15.7461 3.88737C15.7643 3.92769 15.7745 3.97123 15.776 4.0155V4.12591L13.7508 11.0412L15.6603 10.46L15.2552 11.8547L13.3168 12.4068Z" fill="#345D9D"/>
</g>
<defs>
<clipPath id="clip0_0_113">
<rect width="25.3913" height="24" fill="white"/>
</clipPath>
</defs>
</svg>
