<svg width="90" height="92" viewBox="0 0 90 92" fill="none" xmlns="http://www.w3.org/2000/svg">
<path d="M65.6488 3.97767C65.6488 2.91571 65.8419 1.85374 66.2281 0.888322C66.4212 0.405611 66.9039 0.212527 67.3866 0.405611C67.8693 0.598696 68.0624 1.08141 67.8693 1.56412C67.1935 3.20534 67.29 5.13618 68.0624 6.7774C68.8347 8.51516 70.3794 9.96329 72.2137 10.6391C73.5653 11.1218 75.11 11.0253 76.4616 10.446C77.8132 9.77021 78.7786 8.70824 79.2613 7.35665C80.0337 5.13618 78.8751 2.72263 76.6547 1.95029C75.8823 1.66066 75.0134 1.66066 74.2411 2.04683C73.4688 2.433 72.8895 3.10879 72.5999 3.88113C72.1172 5.13618 72.793 6.48777 74.048 6.97048C74.5307 7.16357 74.9169 7.06703 75.3996 6.87394C75.7858 6.68086 76.172 6.29469 76.2685 5.90852C76.4616 5.32927 76.9443 5.13618 77.427 5.32927C77.9097 5.52235 78.1028 6.00506 78.0063 6.48777C77.3305 8.32207 75.3031 9.2875 73.5653 8.6117C71.4414 7.83936 70.2829 5.42581 71.0552 3.30188C71.5379 2.04683 72.4068 1.08141 73.5653 0.502154C74.7238 -0.0770998 76.0754 -0.173642 77.3305 0.309069C80.4198 1.46758 82.061 4.84655 80.9991 7.93591C80.3233 9.77021 78.9717 11.2183 77.2339 12.0872C75.4962 12.9561 73.4688 13.0526 71.6345 12.3768C69.3174 11.6045 67.4831 9.86675 66.4212 7.64628C65.9384 6.39123 65.6488 5.13618 65.6488 3.97767Z" fill="#2E2F3F"/>
<path d="M77.234 15.8523C77.234 12.8595 79.0683 10.0598 82.0611 8.99783C85.1504 7.83933 88.626 9.48054 89.6879 12.6664C90.6534 15.2731 89.3018 18.0728 86.6951 19.0382C85.6332 19.4244 84.4747 19.3278 83.5092 18.8451C82.5438 18.3624 81.7715 17.4935 81.3853 16.5281C80.7095 14.6938 81.6749 12.6664 83.5092 12.0872C83.9919 11.8941 84.4747 12.1837 84.6677 12.6664C84.8608 13.1491 84.5712 13.6319 84.0885 13.8249C83.2196 14.1146 82.7369 15.1765 83.0265 16.0454C83.2196 16.6247 83.7023 17.1074 84.2816 17.397C84.8608 17.6866 85.5366 17.6866 86.1159 17.4935C87.7571 16.9143 88.626 15.08 88.0467 13.3422C87.2744 11.1218 84.8608 9.96325 82.6403 10.7356C79.7441 11.7976 78.2959 14.8869 79.2614 17.7832C79.9372 19.6175 81.2888 21.1622 83.1231 21.9345C84.8608 22.7068 86.6951 22.8034 88.3363 22.1276C88.8191 21.9345 89.3018 22.1276 89.4949 22.6103C89.6879 23.093 89.4949 23.5757 89.0121 23.7688C86.8882 24.6377 84.5712 24.5411 82.3507 23.5757C80.1302 22.6103 78.3925 20.6794 77.6201 18.3624C77.3305 17.4935 77.234 16.6247 77.234 15.8523Z" fill="#2E2F3F"/>
<path d="M59.2771 16.2385C59.2771 14.2111 60.5322 12.2803 62.5595 11.508C63.6215 11.1218 64.78 11.2183 65.7454 11.7011C66.7109 12.1838 67.4832 13.0526 67.8694 14.0181C68.159 14.8869 68.159 15.8524 67.7728 16.7212C67.3866 17.5901 66.7109 18.1694 65.7454 18.5555C65.2627 18.7486 64.78 18.459 64.5869 17.9763C64.3938 17.4936 64.6835 17.0109 65.1662 16.8178C65.6489 16.6247 65.9385 16.3351 66.1316 15.9489C66.3247 15.5627 66.3247 15.08 66.2281 14.5973C66.0351 14.0181 65.5523 13.5354 64.9731 13.2457C64.4904 13.0526 63.8146 13.0526 63.2353 13.2457C61.5941 13.825 60.7252 15.6593 61.3045 17.397C62.0768 19.6175 64.4904 20.776 66.7109 20.0037C69.6071 18.9417 71.0552 15.8524 70.0898 12.9561C69.1244 10.2529 66.6143 8.22553 63.8146 8.12899C63.3319 8.12899 62.9457 7.64628 62.9457 7.16357C62.9457 6.68085 63.4284 6.29469 63.9111 6.29469C67.3866 6.48777 70.5725 8.90133 71.8276 12.2803C73.1792 16.0454 71.1518 20.1968 67.3866 21.5484C64.2973 22.7069 60.8218 21.0656 59.7598 17.8798C59.3736 17.397 59.2771 16.8178 59.2771 16.2385Z" fill="#2E2F3F"/>
<path d="M67.9659 24.6377C67.9659 23.9619 68.0624 23.2861 68.3521 22.6103C69.7037 18.8452 73.855 16.8178 77.6201 18.1694C80.9026 19.3279 83.3161 22.4172 83.6057 25.8928C83.6057 26.3755 83.3161 26.7616 82.8334 26.8582C82.3507 26.8582 81.9645 26.5686 81.868 26.0858C81.6749 23.3827 79.7441 20.8726 77.0409 19.9071C74.1446 18.8452 71.0553 20.3899 69.9933 23.2861C69.221 25.5066 70.3795 27.9202 72.5999 28.6925C73.3723 28.9821 74.2412 28.9821 75.0135 28.5959C75.7858 28.2098 76.3651 27.534 76.6547 26.7616C77.1374 25.5066 76.4616 24.155 75.2066 23.6723C74.3377 23.3827 73.2757 23.8654 72.9861 24.7343C72.793 25.217 72.3103 25.4101 71.8276 25.3135C71.3449 25.1204 71.1518 24.6377 71.2483 24.155C71.9241 22.3207 73.9515 21.3553 75.6893 22.0311C77.8132 22.8034 78.9717 25.217 78.1994 27.3409C77.234 29.9475 74.4342 31.2991 71.8276 30.3337C69.5106 29.4648 67.9659 27.1478 67.9659 24.6377Z" fill="#2E2F3F"/>
<path d="M63.6216 8.03245L63.6216 6.29469L9.26828 6.29468L9.26828 8.03245L63.6216 8.03245Z" fill="#2E2F3F"/>
<path d="M42.7684 7.16353C43.5407 4.84652 54.3534 1.85371 49.4298 7.16353C54.3534 12.4734 43.5407 9.57709 42.7684 7.16353Z" fill="#2E2F3F"/>
<path d="M56.4774 7.16349C56.4774 5.90844 55.4154 4.94302 54.2569 4.94302C53.0019 4.94302 52.0364 6.00498 52.0364 7.16349C52.0364 8.322 53.0984 9.38396 54.2569 9.38396C55.4154 9.4805 56.4774 8.41854 56.4774 7.16349Z" fill="#2E2F3F"/>
<path d="M16.7984 10.1564C10.137 8.22555 3.04507e-05 7.16358 3.04507e-05 7.16358C3.04507e-05 7.16358 9.65425 6.39125 16.7984 4.26732C19.0188 3.59152 19.0188 10.7356 16.7984 10.1564Z" fill="#2E2F3F"/>
<path d="M83.6057 82.6596L83.6057 25.9893L81.868 25.9893L81.868 82.6596L83.6057 82.6596Z" fill="#2E2F3F"/>
<path d="M82.7369 47.3251C85.0539 46.5528 88.0468 35.7401 82.7369 40.6637C77.4271 35.7401 80.3234 46.5528 82.7369 47.3251Z" fill="#2E2F3F"/>
<path d="M82.7368 33.6161C83.9918 33.6161 84.9572 34.6781 84.9572 35.8366C84.9572 37.0916 83.8953 38.057 82.7368 38.057C81.4817 38.057 80.5163 36.9951 80.5163 35.8366C80.4198 34.6781 81.4817 33.6161 82.7368 33.6161Z" fill="#2E2F3F"/>
<path d="M79.7439 75.1292C81.6748 81.7906 82.7368 91.9275 82.7368 91.9275C82.7368 91.9275 83.5091 82.2733 85.633 75.1292C86.3088 72.9087 79.1647 72.9087 79.7439 75.1292Z" fill="#2E2F3F"/>
<path d="M87.757 68.1782L87.757 22.8034C87.757 22.3207 88.1432 21.9345 88.6259 21.9345C89.1087 21.9345 89.4948 22.3207 89.4948 22.8034L89.4948 68.1782C89.4948 68.661 89.1087 69.0471 88.6259 69.0471C88.1432 69.1437 87.757 68.661 87.757 68.1782Z" fill="#2E2F3F"/>
<path d="M20.8534 1.17788C20.8534 0.695171 21.2396 0.309002 21.7223 0.309002L67.0971 0.309004C67.5799 0.309004 67.966 0.695173 67.966 1.17788C67.966 1.6606 67.5799 2.04677 67.0971 2.04677L21.7223 2.04676C21.2396 2.14331 20.8534 1.66059 20.8534 1.17788Z" fill="#2E2F3F"/>
</svg>
