<svg width="24" height="21" viewBox="0 0 24 21" fill="none" xmlns="http://www.w3.org/2000/svg">
<path fill-rule="evenodd" clip-rule="evenodd" d="M7.2965 0C7.52605 1.26257 6.21429 3.04985 4.85333 3.52537C5.13208 1.80368 6.11591 0.819853 7.2965 0Z" fill="#AF7811"/>
<path fill-rule="evenodd" clip-rule="evenodd" d="M16.6758 0C18.1187 0.655883 19.0042 1.88566 19.3485 3.65655C17.922 2.98427 17.0529 1.73809 16.6758 0Z" fill="#AF7811"/>
<path fill-rule="evenodd" clip-rule="evenodd" d="M4.5092 0.246094C5.08309 1.59065 4.68956 3.85345 3.9025 4.62411C3.04986 3.42712 3.86971 1.14793 4.5092 0.246094Z" fill="#AF7811"/>
<path fill-rule="evenodd" clip-rule="evenodd" d="M19.5941 0.377136C20.5287 1.21339 20.8402 3.31221 20.4467 4.75515C19.4301 4.09927 19.2989 1.93486 19.5941 0.377136Z" fill="#AF7811"/>
<path fill-rule="evenodd" clip-rule="evenodd" d="M2.80427 2.44318C3.70611 3.37781 3.42736 5.80457 2.80427 6.82119C1.95162 5.96854 2.27957 3.37781 2.80427 2.44318Z" fill="#AF7811"/>
<path fill-rule="evenodd" clip-rule="evenodd" d="M21.1852 2.44318C22.1527 3.18104 22.0707 5.77178 21.546 6.95237C20.5949 6.08332 20.7425 3.75494 21.1852 2.44318Z" fill="#AF7811"/>
<path fill-rule="evenodd" clip-rule="evenodd" d="M3.65643 6.09981C4.11555 4.4929 5.24695 3.54187 6.70629 2.93518C6.24717 4.55849 5.26335 5.6407 3.65643 6.09981Z" fill="#AF7811"/>
<path fill-rule="evenodd" clip-rule="evenodd" d="M19.8397 5.96848C20.5448 7.06709 21.5942 8.42804 21.2991 10.1005C20.2005 9.36268 19.4134 7.69018 19.7085 5.96848C18.6919 5.19782 17.8065 4.29598 17.2654 3.0498C18.6755 3.21378 19.9873 4.55834 20.43 6.09966C20.1677 6.13245 19.9873 6.08326 19.8397 5.96848Z" fill="#AF7811"/>
<path fill-rule="evenodd" clip-rule="evenodd" d="M0.721924 4.6405C1.88612 5.42756 2.47641 6.78852 2.542 8.65778C1.26303 8.0019 0.803909 6.50977 0.721924 4.6405Z" fill="#AF7811"/>
<path fill-rule="evenodd" clip-rule="evenodd" d="M23.2513 4.6405C23.8252 6.14903 22.7594 8.11668 21.6608 8.77256C21.5952 6.80491 22.4642 5.7555 23.2513 4.6405Z" fill="#AF7811"/>
<path fill-rule="evenodd" clip-rule="evenodd" d="M4.50876 5.8537C4.75472 7.55899 4.09884 9.41186 2.80347 9.98576C2.81986 8.0673 3.59053 6.88671 4.50876 5.8537Z" fill="#AF7811"/>
<path fill-rule="evenodd" clip-rule="evenodd" d="M0.607239 7.55914C2.00099 8.23142 2.67327 9.64157 2.91923 11.4452C1.54187 10.7566 0.93518 9.29723 0.607239 7.55914Z" fill="#AF7811"/>
<path fill-rule="evenodd" clip-rule="evenodd" d="M23.3822 7.55914C23.5954 9.26444 22.5951 10.8386 21.3162 11.4616C21.4145 9.57598 22.3984 8.55936 23.3822 7.55914Z" fill="#AF7811"/>
<path fill-rule="evenodd" clip-rule="evenodd" d="M3.65613 9.51019C4.67275 10.1661 4.78753 12.3305 4.50878 13.8882C3.36099 13.3143 3.42658 11.0351 3.65613 9.51019Z" fill="#AF7811"/>
<path fill-rule="evenodd" clip-rule="evenodd" d="M20.3324 9.62531C21.0866 10.7239 20.6931 13.4458 19.7257 14.0033C19.2502 12.5112 19.6601 10.6911 20.3324 9.62531Z" fill="#AF7811"/>
<path fill-rule="evenodd" clip-rule="evenodd" d="M0 10.3629C1.57412 10.904 2.93507 11.6418 3.41059 13.2815C1.83647 12.724 0.508309 11.9534 0 10.3629Z" fill="#AF7811"/>
<path fill-rule="evenodd" clip-rule="evenodd" d="M23.9883 10.4775C24.1686 11.5597 22.2338 13.0683 20.7089 13.2814C21.2828 11.8385 22.5125 11.035 23.9883 10.4775Z" fill="#AF7811"/>
<path fill-rule="evenodd" clip-rule="evenodd" d="M4.86969 12.7899C6.32903 13.6754 7.37844 14.9871 7.54241 17.1679C6.08307 16.2825 5.16484 14.8559 4.86969 12.7899Z" fill="#AF7811"/>
<path fill-rule="evenodd" clip-rule="evenodd" d="M19.3649 12.921C18.9549 14.823 18.2335 16.4135 16.6921 17.1842C16.8397 15.0198 17.8727 13.7572 19.3649 12.921Z" fill="#AF7811"/>
<path fill-rule="evenodd" clip-rule="evenodd" d="M1.70618 13.1503C3.60824 13.5603 4.92 14.5605 5.83824 15.9542C5.85464 16.2166 5.41191 16.0034 5.23155 16.069C5.72346 16.4789 6.69089 16.3969 6.82206 17.1676C5.00199 17.43 2.73919 17.2332 1.95213 16.069C2.83757 15.8394 4.08375 15.9542 5.00199 16.069C3.72302 15.2819 2.21449 14.7244 1.70618 13.1503Z" fill="#AF7811"/>
<path fill-rule="evenodd" clip-rule="evenodd" d="M18.9883 16.0855C19.8082 16.2331 21.3495 15.7084 22.2841 16.2003C21.3823 17.2169 19.0703 17.6596 17.4142 17.1677C17.6109 16.5938 18.2176 16.4299 18.8735 16.3151C18.8407 16.1511 18.562 16.2167 18.3816 16.2003C19.0867 14.5606 20.5788 13.6915 22.5137 13.2816C21.8742 14.741 20.5624 15.5444 18.9883 16.0855Z" fill="#AF7811"/>
<path fill-rule="evenodd" clip-rule="evenodd" d="M7.67303 15.7083C8.75524 15.3968 11.7395 17.5284 11.6903 18.5122C11.6083 19.9552 8.32892 20.1356 6.68921 19.7256C7.42708 18.6926 9.41112 18.4795 10.9524 18.627C9.65708 17.8728 8.4109 17.0365 7.67303 15.7083Z" fill="#AF7811"/>
<path fill-rule="evenodd" clip-rule="evenodd" d="M16.3157 15.5936C16.2009 16.971 14.6596 17.9876 13.2658 18.5123C14.8236 18.8238 16.8732 18.6435 17.5291 19.8569C15.5942 20.2012 12.9051 19.8733 12.5444 18.6435C13.1839 17.0038 14.676 16.2331 16.3157 15.5936Z" fill="#AF7811"/>
<path fill-rule="evenodd" clip-rule="evenodd" d="M9.37948 18.0204C8.52684 18.9714 5.67375 18.955 4.39478 18.3811C5.31301 17.3809 8.08412 17.3317 9.37948 18.0204Z" fill="#AF7811"/>
<path fill-rule="evenodd" clip-rule="evenodd" d="M19.841 18.5124C18.3981 19.0699 16.0533 18.9715 14.8563 18.2664C15.7746 17.2498 19.1196 17.5122 19.841 18.5124Z" fill="#AF7811"/>
<path fill-rule="evenodd" clip-rule="evenodd" d="M11.6912 19.1191C11.9372 19.5454 10.7566 20.5948 10.1007 20.9392C9.88753 20.0701 11.3469 19.8569 11.6912 19.1191Z" fill="#AF7811"/>
<path fill-rule="evenodd" clip-rule="evenodd" d="M12.1662 19.2501C12.6909 19.3485 13.9699 20.3487 13.9863 20.9554C13.15 21.0866 12.8713 19.66 12.1662 19.2501Z" fill="#AF7811"/>
</svg>
