<svg width="24" height="24" viewBox="0 0 24 24" fill="none" xmlns="http://www.w3.org/2000/svg">
<path d="M12.5 4C8.37871 4 5 7.37871 5 11.5C5 15.6213 8.37871 19 12.5 19C16.6213 19 20 15.6213 20 11.5C20 7.34158 16.6213 4 12.5 4ZM6.70792 10.2005C6.33663 11.1287 6.2995 12.0198 6.22525 12.6139C6.18812 12.7624 6.11386 12.7252 6.07673 12.6881C6.00248 12.6881 5.7797 12.5396 5.7797 12.5396C5.40842 10.2005 6.11386 8.82673 6.59653 8.08416C6.55941 8.86386 6.63366 9.42079 6.74505 9.86634C6.78218 10.0149 6.74505 10.1262 6.70792 10.2005ZM15.4703 5.52228C15.6188 5.55941 15.953 5.63366 16.0644 5.70792C17.3267 6.41337 18.4406 7.97277 18.6262 8.56683C18.6262 8.56683 18.1436 9.01238 18.0322 9.08663C17.995 9.12376 17.9579 9.16089 17.8465 9.0495C17.4381 8.56683 16.6955 7.82426 15.9901 7.34158C15.8787 7.26733 15.8045 7.26733 15.7302 6.9703C15.6559 6.63614 15.4703 6.00495 15.3589 5.67079C15.3589 5.67079 15.2847 5.48515 15.4703 5.52228ZM12.9455 4.70545C12.9455 4.70545 11.7574 4.89109 10.5693 5.48515C10.495 5.52228 10.495 5.55941 10.198 5.59653C9.93812 5.63366 9.71535 5.63366 8.34158 6.07921C9.60396 5.11386 11.349 4.55693 12.9455 4.70545ZM12.0545 16.698C11.8688 17.1436 11.646 17.5149 11.349 17.849C11.3119 17.8861 11.2376 17.9604 11.052 17.9233C10.8292 17.8861 9.64109 17.5891 8.71287 17.0693C8.63861 17.0322 8.56436 16.9579 8.4901 16.8465C8.15594 16.3639 7.63614 15.2871 7.7104 14.9901C7.7104 14.9901 8.89851 14.9158 9.60396 14.7302C9.71535 14.6931 9.75248 14.6559 9.97525 14.8416C10.4208 15.2129 10.9406 15.6955 11.9431 16.4381C11.9802 16.5124 12.1287 16.5866 12.0545 16.698ZM13.5767 8.30693C13.5767 8.82673 13.5025 10.1634 13.4282 10.9431C13.4282 11.0173 13.3911 11.1287 13.2426 11.1658C12.5743 11.3886 10.9777 11.8342 10.5693 11.9827C10.3837 12.0569 10.3094 11.9455 10.2351 11.9084C9.56683 10.9431 9.12129 10.2748 8.82426 9.75495C8.75 9.60644 8.78713 9.49505 8.82426 9.42079C9.49257 8.49257 10.0866 7.71287 10.5693 7.30446C10.7178 7.15594 10.7921 7.2302 10.8663 7.2302C11.8688 7.45297 12.7228 7.75 13.354 8.0099C13.6139 8.08416 13.5767 8.23267 13.5767 8.30693ZM18.4777 14.1733C18.1064 14.8045 17.4752 15.6213 16.9183 16.2153C16.8441 16.2896 16.8069 16.3639 16.547 16.2896C16.0644 16.1782 15.5446 16.0297 15.0248 15.8441C14.9876 15.8069 14.8391 15.8069 14.9134 15.6213C15.2475 14.7673 15.3589 14.2104 15.5074 13.245C15.5074 13.1337 15.5074 13.0223 15.7302 12.948C16.4728 12.6139 16.9183 12.4653 17.6609 12.0569C17.7351 12.0198 17.8837 11.9455 17.9579 12.1312C18.255 12.6139 18.3292 13.1708 18.4777 13.9134C18.552 13.9134 18.552 14.0248 18.4777 14.1733Z" fill="white"/>
</svg>
