<svg width="53" height="50" viewBox="0 0 53 50" fill="none" xmlns="http://www.w3.org/2000/svg">
<path d="M28.435 50H2.16647V20.4818H4.38711V47.8335H28.435V50Z" fill="#EBC152"/>
<path d="M43.7086 20.4817H25.1311V18.3153H41.5421V12.8449H2.16647V18.3153H18.5775V20.4817H0V10.6785H43.7086V20.4817Z" fill="#EBC152"/>
<path d="M21.8814 12.8449C21.8272 12.8449 21.8272 12.8449 21.773 12.8449C21.6106 12.8449 17.3859 12.4117 14.0279 11.2201C12.1322 10.516 10.7782 9.10778 10.2366 7.32044C9.74912 5.64142 10.0199 3.85408 11.049 2.50004C12.2947 0.82102 14.2446 -0.0997319 16.3027 0.00859177C18.0359 0.0627536 19.5524 0.983505 20.3648 2.39171C21.8272 4.99148 22.9104 11.2743 22.9104 11.5451C22.9646 11.87 22.8563 12.195 22.6396 12.4658C22.4772 12.7366 22.1522 12.8449 21.8814 12.8449ZM15.8694 2.17507C14.6237 2.17507 13.4863 2.77085 12.728 3.74576C12.1322 4.55819 11.9156 5.64142 12.2406 6.6705C12.5655 7.8079 13.4863 8.67449 14.732 9.16194C16.6818 9.86605 19.0108 10.2993 20.5273 10.516C20.094 8.34951 19.3358 4.99148 18.4692 3.52911C18.0359 2.77085 17.1693 2.28339 16.0861 2.22923C16.0319 2.17507 15.9777 2.17507 15.8694 2.17507Z" fill="#EBC152"/>
<path d="M21.8814 12.8449C21.6106 12.8449 21.2856 12.7366 21.069 12.52C20.7982 12.2492 20.6898 11.87 20.7982 11.5451C20.8523 11.3284 21.8272 6.83298 23.1271 4.66651C23.9937 3.2583 25.4561 2.28339 26.9726 2.1209C28.2725 2.01258 29.464 2.44588 30.3306 3.42079C31.1972 4.3957 31.5764 5.58726 31.3597 6.88715C31.1431 8.34952 30.2765 9.70356 28.9766 10.516C26.5935 12.0325 22.2605 12.7908 22.0439 12.8449C21.9897 12.8449 21.9355 12.8449 21.8814 12.8449ZM27.4059 4.23322C27.3517 4.23322 27.2434 4.23322 27.1892 4.23322C26.3227 4.34154 25.5102 4.88316 24.9686 5.74975C24.3187 6.88715 23.6687 8.89113 23.2896 10.2993C24.6436 9.97437 26.5935 9.37859 27.785 8.62032C28.5433 8.13287 29.0308 7.3746 29.1391 6.50801C29.1932 6.07472 29.1391 5.37061 28.6516 4.77483C28.2725 4.34154 27.785 4.23322 27.4059 4.23322Z" fill="#EBC152"/>
<path d="M26.2143 49.9999H17.4943V10.6785H26.2685V49.9999H26.2143ZM19.6607 47.8335H24.0478V12.8449H19.6607V47.8335Z" fill="#EBC152"/>
<path d="M51.3996 50H29.5182V37.976H31.6847V47.8335H49.1789V37.976H51.3996V50Z" fill="#EBC152"/>
<path d="M52.4828 39.1134H43.7086V36.8928H50.3164V32.5057H30.6015V36.8928H38.2924V39.1134H28.435V30.3392H52.4828V39.1134Z" fill="#EBC152"/>
<path d="M44.7918 31.4225H42.6253V48.9167H44.7918V31.4225Z" fill="#EBC152"/>
<path d="M39.3215 31.4225H37.155V48.9167H39.3215V31.4225Z" fill="#EBC152"/>
<path d="M41.5421 19.3986H39.3756V23.7857H41.5421V19.3986Z" fill="#EBC152"/>
<path d="M40.2964 32.5057C39.3757 32.5057 35.8551 32.3974 33.8512 30.5559C32.118 28.9852 31.9555 26.7104 33.472 25.0314C34.1761 24.2189 35.0969 23.7856 36.0718 23.6773C37.1009 23.6231 38.1299 23.9481 38.9965 24.7605C41.3255 26.8187 41.5963 31.1516 41.5963 31.3141L41.6505 32.4515L40.5131 32.5057C40.4589 32.5057 40.4047 32.5057 40.2964 32.5057ZM36.2884 25.8979C36.2343 25.8979 36.2343 25.8979 36.1801 25.8979C35.7468 25.9521 35.3677 26.1146 35.0427 26.4937C34.3386 27.3061 34.3928 28.1727 35.2594 28.931C36.2343 29.7976 37.9675 30.1767 39.2132 30.285C38.9965 29.0393 38.5091 27.3061 37.48 26.4396C37.1009 26.0604 36.6676 25.8979 36.2884 25.8979Z" fill="#EBC152"/>
<path d="M40.7297 32.5057C40.5672 32.5057 40.5131 32.5057 40.4589 32.5057L39.2673 32.4515L39.4298 31.26C39.4298 31.0975 40.0256 26.8187 42.3004 24.7605C43.167 24.0023 44.1961 23.6231 45.2251 23.6773C46.2001 23.7315 47.1208 24.2189 47.8249 25.0313C49.3414 26.7104 49.179 28.9852 47.4458 30.5558C45.3876 32.3973 41.8129 32.5057 40.7297 32.5057ZM44.9002 25.8979C44.521 25.8979 44.0877 26.0604 43.6544 26.4395C42.6795 27.3061 42.0838 29.0393 41.7588 30.285C43.1128 30.1767 44.9543 29.7976 45.9292 28.931C46.7417 28.1727 46.85 27.3061 46.1459 26.4937C45.8209 26.1146 45.4418 25.8979 45.0085 25.8979C45.0085 25.8979 44.9543 25.8979 44.9002 25.8979Z" fill="#EBC152"/>
</svg>
