<svg width="24" height="24" viewBox="0 0 24 24" fill="none" xmlns="http://www.w3.org/2000/svg">
<path d="M19.0002 10.6251C18.9192 11.0789 18.7389 11.5092 18.472 11.8851L12.9826 19.2727C12.8086 19.4975 12.5857 19.6798 12.3308 19.8058C12.0759 19.9318 11.7957 19.9982 11.5114 20C11.227 20.0017 10.946 19.9388 10.6896 19.8159C10.4332 19.693 10.2081 19.5135 10.0313 19.2908L4.51501 11.7501C4.28068 11.4105 4.11526 11.0283 4.02813 10.6251H7.94567L10.9163 18.3495C10.9615 18.4677 11.0415 18.5694 11.1458 18.6411C11.25 18.7128 11.3736 18.7512 11.5001 18.7512C11.6266 18.7512 11.7502 18.7128 11.8544 18.6411C11.9586 18.5694 12.0386 18.4677 12.0838 18.3495L15.0545 10.6251H19.0002ZM15.0626 9.37505H18.9733C18.8782 8.95218 18.6958 8.55386 18.4377 8.20566L16.8389 6.04689C16.6074 5.72329 16.3021 5.45954 15.9483 5.27748C15.5945 5.09542 15.2024 5.0003 14.8045 5H13.4295L15.0626 9.37505ZM10.9426 5L9.28068 9.37505H13.7257L12.097 5H10.9426ZM7.94379 9.37505L9.60506 5H8.1538C7.75928 4.99961 7.3703 5.09283 7.01882 5.272C6.66733 5.45116 6.36337 5.71116 6.1319 6.03064L4.58626 8.05691C4.29051 8.44443 4.08972 8.89589 4 9.37505H7.94379ZM13.7151 10.6251H9.28506L11.5001 16.3839L13.7151 10.6251Z" fill="white"/>
</svg>
