<svg width="39" height="43" viewBox="0 0 39 43" fill="none" xmlns="http://www.w3.org/2000/svg">
<g filter="url(#filter0_df_1762_27954)">
<path d="M14.3676 6.09127C14.8115 5.64732 15.4586 5.47394 16.0651 5.63644L31.0798 9.65963C31.6863 9.82212 32.16 10.2958 32.3225 10.9023L36.3456 25.917C36.5081 26.5235 36.3348 27.1705 35.8908 27.6145L24.8993 38.6061C24.4553 39.05 23.8082 39.2234 23.2018 39.0609L8.18702 35.0377C7.58057 34.8752 7.10688 34.4015 6.94438 33.7951L2.92119 18.7803C2.75869 18.1739 2.93208 17.5268 3.37603 17.0828L14.3676 6.09127Z" fill="#1F212F"/>
<path d="M14.8225 7.78884C15.2665 7.34489 15.9136 7.1715 16.52 7.334L28.1398 10.4475C28.7463 10.61 29.2199 11.0837 29.3824 11.6902L32.496 23.3099C32.6585 23.9164 32.4851 24.5635 32.0411 25.0074L23.5348 33.5137C23.0909 33.9576 22.4438 34.131 21.8374 33.9685L10.2176 30.855C9.61113 30.6925 9.13743 30.2188 8.97494 29.6124L5.86143 17.9926C5.69893 17.3861 5.87231 16.7391 6.31626 16.2951L14.8225 7.78884Z" fill="#8B61D0"/>
<path fill-rule="evenodd" clip-rule="evenodd" d="M16.52 7.334C15.9136 7.1715 15.2665 7.34489 14.8225 7.78884L6.31626 16.2951C5.87231 16.7391 5.69893 17.3861 5.86143 17.9926L8.85952 29.1817C11.0635 25.3661 14.7227 22.3911 19.3151 21.1605C23.9076 19.93 28.5641 20.6768 32.3805 22.8792L29.3824 11.6902C29.2199 11.0837 28.7463 10.61 28.1398 10.4475L16.52 7.334Z" fill="#784CBF"/>
<path d="M14.8206 7.7939C15.2655 7.34709 15.9156 7.17288 16.5243 7.33737L30.6677 11.1595C30.9293 11.2302 31.1334 11.4348 31.2036 11.6965C31.3552 12.2624 30.8367 12.7798 30.2712 12.6269L16.9792 9.03486C16.3705 8.87036 15.7203 9.04457 15.2754 9.49138L5.56026 19.2482C5.14693 19.6633 4.43918 19.4745 4.28757 18.9086C4.21744 18.6469 4.29195 18.3677 4.48313 18.1757L14.8206 7.7939Z" fill="#1F202F" fill-opacity="0.3"/>
<path fill-rule="evenodd" clip-rule="evenodd" d="M15.6103 3.93902C15.0039 3.77652 14.3568 3.94991 13.9128 4.39386L2.92127 15.3854C2.47732 15.8294 2.30394 16.4764 2.46643 17.0829L6.48962 32.0976C6.65212 32.7041 7.12581 33.1778 7.73227 33.3403L22.747 37.3635C23.3535 37.526 24.0005 37.3526 24.4445 36.9086L35.4361 25.9171C35.88 25.4731 36.0534 24.8261 35.8909 24.2196L31.8677 9.20486C31.7052 8.5984 31.2315 8.12471 30.6251 7.96221L15.6103 3.93902ZM16.52 7.33399C15.9135 7.17149 15.2665 7.34487 14.8225 7.78883L6.31624 16.2951C5.87228 16.7391 5.6989 17.3861 5.8614 17.9926L8.97491 29.6124C9.13741 30.2188 9.6111 30.6925 10.2176 30.855L21.8373 33.9685C22.4438 34.131 23.0909 33.9576 23.5348 33.5137L32.0411 25.0074C32.485 24.5635 32.6584 23.9164 32.4959 23.3099L29.3824 11.6901C29.2199 11.0837 28.7462 10.61 28.1398 10.4475L16.52 7.33399Z" fill="#5D6081"/>
<path fill-rule="evenodd" clip-rule="evenodd" d="M13.9128 4.39386C14.3568 3.94991 15.0039 3.77652 15.6103 3.93902L30.6251 7.96221C31.2315 8.12471 31.7052 8.5984 31.8677 9.20486L32.5148 11.6198L29.5747 12.4076L29.3824 11.6901C29.2199 11.0837 28.7462 10.61 28.1398 10.4475L16.52 7.33399C15.9135 7.17149 15.2665 7.34487 14.8225 7.78883L6.31624 16.2951C5.87228 16.7391 5.6989 17.3861 5.8614 17.9926L6.05364 18.71L3.11351 19.4978L2.46643 17.0829C2.30394 16.4764 2.47732 15.8294 2.92127 15.3854L13.9128 4.39386Z" fill="#7275A0"/>
<path d="M21.0087 13.2798L21.0951 15.4543L17.7218 16.3582L18.3364 19.181C18.5532 18.8056 19.03 18.5192 19.767 18.3217C21.3293 17.9031 22.2901 18.3647 22.6496 19.7064L23.9383 24.5159C24.1476 25.297 23.9979 25.9853 23.489 26.5808C22.9802 27.1762 22.2186 27.6098 21.2045 27.8815C18.9367 28.4892 17.5851 27.9804 17.1497 26.3552L16.2458 22.9819L19.1466 22.2047L20.0783 25.6819C20.1576 25.9779 20.3642 26.0812 20.6981 25.9918C21.0257 25.904 21.1498 25.7121 21.0705 25.416L19.8628 20.9089C19.7767 20.5876 19.551 20.476 19.1856 20.5739C18.8518 20.6633 18.7528 20.9869 18.8887 21.5446L16.0811 22.2159L14.3283 15.0698L21.0087 13.2798Z" fill="#282936"/>
<path d="M13.9787 31.8692L21.661 33.7924C22.341 33.9626 23.0608 33.7698 23.5646 33.2823L29.2561 27.7757L30.0841 30.8661C30.2749 31.5779 30.0647 32.3371 29.5351 32.8495L24.7017 37.526C24.1979 38.0135 23.4781 38.2063 22.7981 38.0361L16.274 36.4029C15.5591 36.2239 14.9975 35.6715 14.8068 34.9597L13.9787 31.8692Z" fill="#3A3D53"/>
<path d="M22.5754 32.2521L23.3652 33.1753C23.4043 33.233 23.4816 33.2576 23.5533 33.2611L24.743 33.1239C24.941 33.0709 25.0638 33.2649 24.9658 33.4274L24.3509 34.4773C24.3182 34.5315 24.3189 34.6221 24.336 34.6856L24.8404 35.7761C24.9078 35.9396 24.7715 36.135 24.5948 36.0916L23.413 35.8181C23.3356 35.7935 23.2696 35.8111 23.2149 35.8712L22.3282 36.6989C22.1969 36.8249 21.9648 36.7509 21.9578 36.5485L21.8494 35.3519C21.8544 35.2825 21.7877 35.2095 21.7323 35.179L20.6748 34.5771C20.5307 34.4796 20.54 34.2501 20.7104 34.1818L21.8092 33.7057C21.8753 33.6881 21.9243 33.6068 21.9292 33.5374L22.1516 32.343C22.2219 32.1652 22.442 32.1063 22.5754 32.2521Z" fill="#8B61D0"/>
<path fill-rule="evenodd" clip-rule="evenodd" d="M22.9703 31.9025L23.6671 32.7171L24.6542 32.6033C24.9414 32.545 25.231 32.653 25.3983 32.8939C25.5648 33.1335 25.5684 33.4456 25.4194 33.6958L24.8828 34.612L25.3235 35.5647L25.3278 35.575C25.4391 35.845 25.3791 36.1293 25.2313 36.327C25.0782 36.5317 24.7969 36.682 24.4733 36.6044L23.4544 36.3687L22.6897 37.0824C22.2687 37.4811 21.469 37.276 21.4316 36.5843L21.339 35.5616L20.3961 35.025L20.3791 35.0135C19.9314 34.7102 19.9032 33.9443 20.5059 33.6956L21.4387 33.2915L21.6426 32.1962L21.6613 32.1488C21.8519 31.6671 22.527 31.418 22.9643 31.8961L22.9703 31.9025ZM20.7103 34.1816C20.54 34.2499 20.5307 34.4794 20.6748 34.577L21.7322 35.1788C21.7876 35.2094 21.8543 35.2823 21.8493 35.3517L21.9577 36.5483C21.9648 36.7507 22.1968 36.8247 22.3282 36.6987L23.2149 35.871C23.2696 35.811 23.3356 35.7933 23.4129 35.8179L24.5947 36.0914C24.7714 36.1348 24.9078 35.9394 24.8404 35.7759L24.3359 34.6854C24.3189 34.6219 24.3182 34.5313 24.3508 34.4771L24.9657 33.4272C25.0637 33.2648 24.941 33.0707 24.7429 33.1237L23.5533 33.2609C23.4816 33.2574 23.4042 33.2328 23.3652 33.1751L22.5753 32.2519C22.4419 32.1061 22.2219 32.1651 22.1516 32.3428L21.9292 33.5372C21.9242 33.6067 21.8752 33.6879 21.8092 33.7056L20.7103 34.1816Z" fill="#3A3C53"/>
<path d="M17.6813 34.0257L17.9972 34.395C18.0128 34.4181 18.0438 34.4279 18.0724 34.4293L18.5483 34.3745C18.6275 34.3532 18.6766 34.4309 18.6374 34.4958L18.3915 34.9158C18.3784 34.9375 18.3787 34.9737 18.3855 34.9991L18.5873 35.4353C18.6142 35.5007 18.5597 35.5789 18.489 35.5615L18.0163 35.4521C17.9854 35.4423 17.959 35.4493 17.9371 35.4734L17.5824 35.8044C17.5299 35.8548 17.437 35.8252 17.4342 35.7443L17.3909 35.2656C17.3929 35.2379 17.3662 35.2087 17.344 35.1965L16.921 34.9557C16.8634 34.9167 16.8671 34.8249 16.9353 34.7976L17.3748 34.6072C17.4012 34.6001 17.4208 34.5676 17.4228 34.5398L17.5118 34.0621C17.5399 33.991 17.6279 33.9674 17.6813 34.0257Z" fill="#8B61D0"/>
<path d="M27.1872 31.4785L27.5031 31.8478C27.5187 31.8708 27.5497 31.8807 27.5784 31.8821L28.0542 31.8272C28.1335 31.806 28.1826 31.8836 28.1434 31.9486L27.8974 32.3686C27.8843 32.3902 27.8846 32.4265 27.8914 32.4519L28.0932 32.8881C28.1202 32.9535 28.0656 33.0317 27.9949 33.0143L27.5222 32.9049C27.4913 32.895 27.4649 32.9021 27.443 32.9261L27.0883 33.2572C27.0358 33.3076 26.943 33.278 26.9401 33.1971L26.8968 32.7184C26.8988 32.6906 26.8721 32.6615 26.85 32.6492L26.427 32.4085C26.3693 32.3695 26.3731 32.2777 26.4412 32.2504L26.8807 32.0599C26.9071 32.0529 26.9267 32.0204 26.9287 31.9926L27.0177 31.5148C27.0458 31.4437 27.1338 31.4202 27.1872 31.4785Z" fill="#8B61D0"/>
</g>
<defs>
<filter id="filter0_df_1762_27954" x="-1.65159" y="-0.179031" width="42.1153" height="47.4161" filterUnits="userSpaceOnUse" color-interpolation-filters="sRGB">
<feFlood flood-opacity="0" result="BackgroundImageFix"/>
<feColorMatrix in="SourceAlpha" type="matrix" values="0 0 0 0 0 0 0 0 0 0 0 0 0 0 0 0 0 0 127 0" result="hardAlpha"/>
<feOffset dy="4"/>
<feGaussianBlur stdDeviation="2"/>
<feComposite in2="hardAlpha" operator="out"/>
<feColorMatrix type="matrix" values="0 0 0 0 0 0 0 0 0 0 0 0 0 0 0 0 0 0 0.25 0"/>
<feBlend mode="normal" in2="BackgroundImageFix" result="effect1_dropShadow_1762_27954"/>
<feBlend mode="normal" in="SourceGraphic" in2="effect1_dropShadow_1762_27954" result="shape"/>
<feGaussianBlur stdDeviation="2" result="effect2_foregroundBlur_1762_27954"/>
</filter>
</defs>
</svg>
