<svg width="24" height="24" viewBox="0 0 24 24" fill="none" xmlns="http://www.w3.org/2000/svg">
<path d="M10.8965 18.2269C10.794 18.1129 10.697 17.9948 10.6059 17.8727C10.368 17.5537 10.1697 17.2077 10.0133 16.8377C9.75341 16.2231 9.6216 15.5709 9.6216 14.8989C9.6216 14.2271 9.75344 13.575 10.0133 12.9604C10.2239 12.4624 10.5104 12.0074 10.8675 11.6037C10.9358 11.5264 11.0067 11.4511 11.0802 11.3778C11.1151 11.343 11.1503 11.309 11.1857 11.275C11.2994 11.1681 11.4175 11.0667 11.5396 10.9712C11.198 10.7664 10.8303 10.6103 10.4466 10.5072C10.3728 10.6446 10.3065 10.7793 10.2471 10.9094C10.1814 11.0527 10.1243 11.1904 10.0745 11.3207C9.82109 11.9848 9.75784 12.4541 9.75666 12.4618L8.88455 12.3531C8.88865 12.3208 8.94578 11.8808 9.16727 11.241C9.21531 11.1021 9.27098 10.9539 9.33572 10.7984C9.39373 10.6589 9.45906 10.5136 9.53201 10.3636C9.4617 10.3604 9.39139 10.3586 9.32078 10.3586C6.93817 10.3586 5 12.2968 5 14.6795C4.99994 17.0618 6.93812 18.9999 9.32072 18.9999C9.98867 18.9999 10.6379 18.8473 11.2244 18.5588C11.1754 18.5136 11.1274 18.4674 11.0802 18.4202C11.0172 18.3572 10.956 18.2928 10.8965 18.2269Z" fill="white"/>
<path d="M14.6013 10.7981C14.5676 10.7981 14.5342 10.7984 14.5008 10.7996C14.5453 10.9581 14.5942 11.1045 14.6441 11.2378C14.8579 11.8085 15.0934 12.1395 15.0996 12.148L14.3895 12.666C14.3725 12.6422 14.0215 12.1553 13.747 11.3383C13.7028 11.2061 13.6603 11.0652 13.6216 10.9161C13.1054 11.0424 12.6279 11.2665 12.2093 11.5677C12.1091 11.6397 12.0124 11.7162 11.9193 11.7968C11.8082 11.8926 11.7022 11.9948 11.602 12.1023C10.9188 12.8347 10.5005 13.8181 10.5005 14.8989C10.5005 15.8574 10.8292 16.7389 11.3799 17.437C11.471 17.5525 11.5683 17.6629 11.6711 17.7681C11.7748 17.8741 11.8847 17.9746 11.9995 18.0689C12.7073 18.6507 13.6134 18.9999 14.6012 18.9999C16.8663 18.9999 18.7023 17.164 18.7023 14.8988C18.7024 12.6341 16.8664 10.7981 14.6013 10.7981Z" fill="white"/>
<path d="M16.3725 6.78387L16.2661 5.91144C14.8799 6.08077 13.6474 6.47303 12.5966 7.07916C12.6062 6.32684 12.3786 5.69435 11.9163 5.1934C10.5579 3.72043 7.65383 4.0204 7.53108 4.03388L7.05005 4.08661L7.14878 4.56032C7.17398 4.68161 7.78743 7.53587 9.60873 8.37136C9.94328 8.52488 10.2925 8.60163 10.6557 8.60163C10.6754 8.60163 10.6953 8.60134 10.7149 8.60076C10.4844 8.85828 10.2708 9.13217 10.0754 9.42221C9.85773 9.74504 9.67875 10.0632 9.53168 10.3638C9.84308 10.379 10.1495 10.4273 10.4463 10.5073C10.5556 10.3034 10.6815 10.0931 10.8262 9.88098C11.544 8.83015 12.5025 8.03447 13.6913 7.501C13.4063 8.4654 13.3802 9.33608 13.4608 10.0503C13.4783 10.2035 13.5003 10.3494 13.5261 10.4874C13.5528 10.633 13.5835 10.7701 13.6163 10.8975C13.6178 10.9037 13.6196 10.9101 13.6213 10.9163C13.9037 10.8465 14.1981 10.8067 14.5005 10.7997C14.4624 10.6629 14.4272 10.5173 14.3976 10.3632C14.3707 10.2243 14.3484 10.0787 14.3317 9.92668C14.2447 9.13393 14.3171 8.1707 14.7632 7.10845C15.2669 6.96168 15.8036 6.85331 16.3725 6.78387Z" fill="white"/>
</svg>
