<svg width="92" height="90" viewBox="0 0 92 90" fill="none" xmlns="http://www.w3.org/2000/svg">
<path d="M3.97768 24.3511C2.91571 24.3511 1.85375 24.158 0.888324 23.7719C0.405612 23.5788 0.212528 23.0961 0.405612 22.6133C0.598697 22.1306 1.08141 21.9375 1.56412 22.1306C3.20534 22.8064 5.13619 22.7099 6.77741 21.9375C8.51517 21.1652 9.96331 19.6205 10.6391 17.7862C11.1218 16.4346 11.0253 14.89 10.446 13.5384C9.77022 12.1868 8.70826 11.2213 7.35666 10.7386C5.13619 9.9663 2.72263 11.1248 1.95029 13.3453C1.66066 14.1176 1.66066 14.9865 2.04683 15.7588C2.433 16.5312 3.1088 17.1104 3.88114 17.4001C5.13619 17.8828 6.48778 17.207 6.97049 15.9519C7.16358 15.4692 7.06704 15.083 6.87395 14.6003C6.68087 14.2142 6.2947 13.828 5.90853 13.7314C5.32927 13.5384 5.13619 13.0557 5.32927 12.5729C5.52236 12.0902 6.00507 11.8971 6.48778 11.9937C8.32209 12.6695 9.28751 14.6969 8.61171 16.4346C7.83937 18.5586 5.42581 19.7171 3.30188 18.9447C2.04683 18.462 1.08141 17.5931 0.502155 16.4346C-0.0770996 15.2761 -0.173642 13.9245 0.30907 12.6695C1.46758 9.58013 4.84656 7.93891 7.93592 9.00087C9.77022 9.67667 11.2184 11.0283 12.0872 12.766C12.9561 14.5038 13.0527 16.5312 12.3769 18.3655C11.6045 20.6825 9.86676 22.5168 7.64629 23.5788C6.39124 24.0615 5.13619 24.3511 3.97768 24.3511Z" fill="#2E2F3F"/>
<path d="M15.8523 12.766C12.8595 12.766 10.0598 10.9317 8.99781 7.9389C7.83931 4.84955 9.48053 1.37402 12.6664 0.312059C15.2731 -0.653364 18.0728 0.698228 19.0382 3.30487C19.4244 4.36684 19.3278 5.52535 18.8451 6.49077C18.3624 7.45619 17.4935 8.22853 16.5281 8.6147C14.6938 9.2905 12.6664 8.32507 12.0872 6.49077C11.8941 6.00806 12.1837 5.52535 12.6664 5.33226C13.1491 5.13918 13.6318 5.4288 13.8249 5.91151C14.1146 6.7804 15.1765 7.26311 16.0454 6.97348C16.6247 6.7804 17.1074 6.29768 17.397 5.71843C17.6866 5.13918 17.6866 4.46338 17.4935 3.88413C16.9143 2.24291 15.08 1.37403 13.3422 1.95328C11.1217 2.72562 9.96324 5.13918 10.7356 7.35965C11.7975 10.2559 14.8869 11.7041 17.7832 10.7386C19.6175 10.0628 21.1622 8.71124 21.9345 6.87694C22.7068 5.13918 22.8034 3.30487 22.1276 1.66365C21.9345 1.18094 22.1276 0.698229 22.6103 0.505144C23.093 0.312059 23.5757 0.505144 23.7688 0.987856C24.6377 3.11179 24.5411 5.4288 23.5757 7.64928C22.6103 9.86975 20.6794 11.6075 18.3624 12.3799C17.4935 12.6695 16.6247 12.766 15.8523 12.766Z" fill="#2E2F3F"/>
<path d="M16.2386 30.7229C14.2112 30.7229 12.2803 29.4678 11.508 27.4404C11.1218 26.3785 11.2184 25.22 11.7011 24.2545C12.1838 23.2891 13.0527 22.5168 14.0181 22.1306C14.887 21.841 15.8524 21.841 16.7213 22.2272C17.5902 22.6133 18.1694 23.2891 18.5556 24.2545C18.7487 24.7373 18.459 25.22 17.9763 25.4131C17.4936 25.6061 17.0109 25.3165 16.8178 24.8338C16.6247 24.3511 16.3351 24.0615 15.9489 23.8684C15.5628 23.6753 15.08 23.6753 14.5973 23.7718C14.0181 23.9649 13.5354 24.4476 13.2457 25.0269C13.0527 25.5096 13.0527 26.1854 13.2457 26.7647C13.825 28.4059 15.6593 29.2748 17.3971 28.6955C19.6175 27.9232 20.776 25.5096 20.0037 23.2891C18.9417 20.3929 15.8524 18.9447 12.9561 19.9101C10.2529 20.8756 8.22554 23.3857 8.129 26.1854C8.129 26.6681 7.64629 27.0543 7.16358 27.0543C6.68086 27.0543 6.2947 26.5716 6.2947 26.0889C6.48778 22.6133 8.90134 19.4274 12.2803 18.1724C16.0455 16.8208 20.1968 18.8482 21.5484 22.6133C22.7069 25.7027 21.0657 29.1782 17.8798 30.2402C17.3971 30.6263 16.8178 30.7229 16.2386 30.7229Z" fill="#2E2F3F"/>
<path d="M24.6377 22.0342C23.9619 22.0342 23.2861 21.9376 22.6103 21.648C18.8452 20.2964 16.8178 16.1451 18.1694 12.3799C19.3279 9.09748 22.4172 6.68392 25.8928 6.39429C26.3755 6.39429 26.7617 6.68392 26.8582 7.16663C26.8582 7.64934 26.5686 8.03551 26.0859 8.13205C23.3827 8.32514 20.8726 10.256 19.9071 12.9592C18.8452 15.8554 20.3899 18.9448 23.2861 20.0068C25.5066 20.7791 27.9202 19.6206 28.6925 17.4001C28.9821 16.6278 28.9821 15.7589 28.596 14.9866C28.2098 14.2142 27.534 13.635 26.7617 13.3453C25.5066 12.8626 24.155 13.5384 23.6723 14.7935C23.3827 15.6624 23.8654 16.7243 24.7343 17.014C25.217 17.207 25.4101 17.6898 25.3135 18.1725C25.1204 18.6552 24.6377 18.8483 24.155 18.7517C22.3207 18.0759 21.3553 16.0485 22.0311 14.3108C22.8034 12.1868 25.217 11.0283 27.3409 11.8007C29.9476 12.7661 31.2991 15.5658 30.3337 18.1725C29.4648 20.4895 27.1478 22.0342 24.6377 22.0342Z" fill="#2E2F3F"/>
<path d="M8.03246 26.3785H6.2947L6.2947 80.7318H8.03246L8.03246 26.3785Z" fill="#2E2F3F"/>
<path d="M7.16351 47.2317C4.8465 46.4593 1.85368 35.6466 7.16351 40.5702C12.4733 35.6466 9.57707 46.4593 7.16351 47.2317Z" fill="#2E2F3F"/>
<path d="M7.16344 33.5227C5.90839 33.5227 4.94297 34.5847 4.94297 35.7432C4.94297 36.9982 6.00493 37.9636 7.16344 37.9636C8.32195 37.9636 9.38391 36.9017 9.38391 35.7432C9.48046 34.5847 8.41849 33.5227 7.16344 33.5227Z" fill="#2E2F3F"/>
<path d="M10.1564 73.2016C8.22553 79.863 7.16356 90 7.16356 90C7.16356 90 6.39123 80.3458 4.26729 73.2016C3.5915 70.9811 10.7356 70.9811 10.1564 73.2016Z" fill="#2E2F3F"/>
<path d="M82.6597 6.39429L25.9894 6.39429V8.13206L82.6597 8.13206V6.39429Z" fill="#2E2F3F"/>
<path d="M47.3252 7.26305C46.5528 4.94603 35.7401 1.95322 40.6637 7.26305C35.7401 12.5729 46.5528 9.67661 47.3252 7.26305Z" fill="#2E2F3F"/>
<path d="M33.6161 7.2631C33.6161 6.00805 34.6781 5.04262 35.8366 5.04262C37.0916 5.04262 38.057 6.10459 38.057 7.2631C38.057 8.51815 36.9951 9.48357 35.8366 9.48357C34.6781 9.58012 33.6161 8.51815 33.6161 7.2631Z" fill="#2E2F3F"/>
<path d="M75.1294 10.256C81.7908 8.32516 91.9278 7.26319 91.9278 7.26319C91.9278 7.26319 82.2735 6.49085 75.1294 4.36692C72.9089 3.69113 72.9089 10.8353 75.1294 10.256Z" fill="#2E2F3F"/>
<path d="M68.1783 2.24299L22.8034 2.24299C22.3207 2.24299 21.9346 1.85682 21.9346 1.37411C21.9346 0.891401 22.3207 0.505232 22.8034 0.505232L68.1783 0.505232C68.6611 0.505232 69.0472 0.891401 69.0472 1.37411C69.1438 1.85682 68.6611 2.24299 68.1783 2.24299Z" fill="#2E2F3F"/>
<path d="M1.17785 69.1468C0.695143 69.1468 0.308974 68.7606 0.308974 68.2779L0.308974 22.903C0.308974 22.4203 0.695143 22.0341 1.17785 22.0341C1.66057 22.0341 2.04674 22.4203 2.04674 22.903L2.04674 68.2779C2.14328 68.7606 1.66057 69.1468 1.17785 69.1468Z" fill="#2E2F3F"/>
</svg>
