<svg width="28" height="41" viewBox="0 0 28 41" fill="none" xmlns="http://www.w3.org/2000/svg">
<path d="M27.3796 25.1926C27.3796 24.4356 26.959 23.7626 26.2861 23.4262L18.6316 19.641L18.2951 17.0334C19.3045 15.8558 20.1457 14.3837 20.6504 12.9538C21.3653 12.9538 21.9962 12.3229 21.9962 11.6079V8.83213C21.9962 8.36949 21.7439 7.94891 21.3653 7.69657V7.14982C21.3653 3.19639 18.1689 0 14.2155 0H13.1641C9.21065 0 6.01426 3.19639 6.01426 7.14982V7.69657C5.63574 7.94891 5.38339 8.36949 5.38339 8.83213V11.6079C5.38339 12.365 5.9722 12.9538 6.72924 12.9538C7.27599 14.4258 8.07509 15.8558 9.08447 17.0334L8.74801 19.5989L1.0935 23.3841C0.420578 23.7206 0 24.3935 0 25.1505V33.4359V33.478V33.52V33.5621V33.6041C0 33.6041 9.11862e-09 33.6462 0.0420578 33.6462C0.0420578 33.6462 0.0420578 33.6883 0.0841155 33.6883L0.126173 33.7303L0.168231 33.7724C0.252346 33.8565 0.252347 33.8565 0.252347 33.8565L0.294404 33.8985C0.294404 33.8985 0.336462 33.8985 0.336462 33.9406C0.336462 33.9406 0.37852 33.9406 0.37852 33.9827L7.23393 36.4641C7.27599 36.5061 7.36011 36.5061 7.44422 36.5061C7.65451 36.5061 7.90686 36.38 7.94891 36.1276C8.03303 35.8332 7.90686 35.5388 7.61245 35.4126L1.17762 33.0153V25.1926C1.17762 24.8561 1.34585 24.5617 1.64025 24.4356L9.58917 20.5242C9.79946 20.4401 9.92563 20.1877 9.88357 19.9774L10.1359 18.0848C11.1874 18.968 12.407 19.5569 13.7108 19.5569C14.0052 19.5569 14.2996 19.5148 14.594 19.4727C14.8464 19.4307 15.0987 19.3466 15.3511 19.2624C15.4352 19.2204 15.4773 19.2204 15.5614 19.1783C16.1081 18.968 16.6549 18.6316 17.1175 18.2531C17.1596 18.211 17.2437 18.1689 17.2857 18.0848L17.5381 19.9774C17.5381 20.1877 17.6222 20.398 17.8325 20.5242L25.7814 24.4356C26.0758 24.5617 26.244 24.8561 26.244 25.1926V33.0153L19.7251 35.3706C19.4307 35.4547 19.3045 35.7911 19.3886 36.0855C19.4727 36.2958 19.683 36.4641 19.8933 36.4641C19.9354 36.4641 20.0195 36.4641 20.1036 36.422L26.959 33.9406C26.959 33.9406 27.0011 33.9406 27.0011 33.8985C27.0011 33.8985 27.0431 33.8985 27.0431 33.8565L27.0852 33.8144L27.1272 33.7724L27.1693 33.7303L27.2114 33.6883C27.2114 33.6883 27.2114 33.6462 27.2534 33.6462C27.2534 33.6462 27.2534 33.6041 27.2955 33.6041V33.5621V33.52V33.478V33.4359V25.1926H27.3796ZM7.19188 7.19188C7.19188 3.86931 9.88357 1.17762 13.2061 1.17762H14.2576C17.5801 1.17762 20.2718 3.86931 20.2718 7.19188V7.52834H20.1036C19.8933 5.55162 19.2624 4.66841 18.926 4.33195C18.8839 4.28989 18.8419 4.24783 18.7998 4.24783C18.5895 4.03754 18.211 4.03754 18.0007 4.24783C17.9587 4.28989 17.8745 4.33195 17.8325 4.41606C17.7904 4.45812 17.7484 4.50018 17.7063 4.50018C17.6643 4.54224 17.6222 4.58429 17.5801 4.58429C17.5381 4.62635 17.496 4.66841 17.454 4.66841C17.4119 4.71047 17.3699 4.71047 17.3278 4.75253C17.2857 4.79458 17.2437 4.79458 17.2016 4.83664C17.1596 4.8787 17.1175 4.8787 17.0754 4.92076C17.0334 4.96281 16.9913 4.96281 16.9493 5.00487C16.9072 5.04693 16.8652 5.04693 16.8652 5.08899C16.8231 5.13105 16.781 5.13105 16.6969 5.1731C16.6549 5.1731 16.6549 5.21516 16.6128 5.21516C16.5708 5.25722 16.4866 5.25722 16.4446 5.29928C16.4025 5.29928 16.4025 5.34133 16.3605 5.34133C16.3184 5.38339 16.2343 5.38339 16.1922 5.42545C16.1502 5.42545 16.1502 5.46751 16.1081 5.46751C16.024 5.50956 15.9819 5.50956 15.8978 5.55162C15.8558 5.55162 15.8558 5.55162 15.8137 5.59368C15.7296 5.63574 15.6875 5.63574 15.6034 5.6778H15.5614C15.5614 5.63574 15.4773 5.6778 15.3931 5.6778H15.3511C15.267 5.6778 15.2249 5.71985 15.1408 5.71985H15.0987C15.0146 5.71985 14.9726 5.76191 14.8884 5.76191C14.8464 5.76191 14.8464 5.76191 14.8043 5.76191C14.7202 5.76191 14.6782 5.80397 14.594 5.80397C14.552 5.80397 14.552 5.80397 14.5099 5.80397C14.4258 5.80397 14.3838 5.80397 14.2996 5.84603C14.2576 5.84603 14.2155 5.84603 14.2155 5.84603C14.1735 5.84603 14.0893 5.84603 14.0473 5.84603C14.0052 5.84603 13.9632 5.84603 13.9211 5.84603C13.8791 5.84603 13.7949 5.84603 13.7529 5.84603C13.7108 5.84603 13.6688 5.84603 13.6267 5.84603C13.5847 5.84603 13.5005 5.84603 13.4585 5.84603C13.4164 5.84603 13.3744 5.84603 13.3744 5.84603C13.2902 5.84603 13.2482 5.84603 13.1641 5.84603C13.122 5.84603 13.122 5.84603 13.08 5.84603C12.9958 5.84603 12.9117 5.84603 12.8697 5.80397H12.8276C12.7435 5.80397 12.6594 5.76191 12.5753 5.76191H12.5332C12.4491 5.76191 12.365 5.71985 12.2809 5.71985H12.2388C12.1547 5.71985 12.0706 5.6778 11.9865 5.63574H11.9444C11.8603 5.59368 11.7762 5.59368 11.7341 5.55162H11.6921C11.6079 5.50956 11.5659 5.50956 11.4818 5.46751C11.4818 5.46751 11.4397 5.46751 11.4397 5.42545C11.3556 5.38339 11.3135 5.38339 11.2294 5.34133C11.1874 5.34133 11.1874 5.34133 11.1453 5.29928C11.1032 5.25722 11.0191 5.25722 10.9771 5.21516C10.935 5.21516 10.935 5.1731 10.893 5.1731C10.8509 5.13105 10.7668 5.08899 10.7247 5.08899C10.6827 5.08899 10.6827 5.04693 10.6406 5.04693C10.5986 5.00487 10.5565 4.96281 10.4724 4.96281C10.4303 4.92076 10.3883 4.92076 10.3883 4.8787C10.3462 4.83664 10.3041 4.79458 10.2621 4.79458C10.22 4.75253 10.178 4.75253 10.178 4.71047C10.1359 4.66841 10.0939 4.62635 10.0518 4.62635C10.0097 4.58429 9.96769 4.58429 9.92563 4.54224C9.88357 4.50018 9.84151 4.45812 9.79946 4.45812C9.7574 4.41606 9.71534 4.37401 9.67328 4.37401C9.63122 4.33195 9.54711 4.28989 9.50505 4.20577C9.29476 3.99549 8.91624 3.99549 8.70595 4.20577C8.6639 4.24783 8.62184 4.24783 8.57978 4.28989C8.24332 4.62635 7.61245 5.50956 7.40216 7.48628H7.23393V7.19188H7.19188ZM13.7108 18.3792C11.1032 18.3792 8.83213 15.3511 7.78068 12.5753C7.78068 12.5332 7.73863 12.4912 7.69657 12.407C7.52834 12.0706 7.14982 11.8603 6.72924 11.8603C6.60307 11.8603 6.47689 11.7341 6.47689 11.6079V8.83213V8.79007C6.47689 8.79007 6.47689 8.79007 6.47689 8.74801C6.47689 8.74801 6.47689 8.74801 6.47689 8.70595C6.47689 8.70595 6.47689 8.70595 6.51895 8.70595H7.10776C7.69657 8.70595 8.1592 8.28538 8.24332 7.69657C8.36949 6.47689 8.6639 5.80397 8.87419 5.46751L8.91624 5.50956C8.9583 5.55162 9.00036 5.59368 9.04242 5.59368C9.08447 5.63574 9.12653 5.6778 9.16859 5.71985C9.21065 5.76191 9.25271 5.76191 9.29476 5.80397C9.33682 5.84603 9.37888 5.88808 9.46299 5.93014C9.50505 5.9722 9.54711 5.9722 9.58917 6.01426C9.63123 6.05632 9.71534 6.09837 9.7574 6.14043C9.79946 6.18249 9.84151 6.18249 9.88357 6.22455C9.92563 6.2666 10.0097 6.30866 10.0518 6.35072C10.0939 6.35072 10.1359 6.39278 10.1359 6.39278C10.22 6.43484 10.2621 6.47689 10.3462 6.51895C10.3883 6.51895 10.3883 6.56101 10.4303 6.56101C10.5144 6.60307 10.5986 6.64512 10.6827 6.68718H10.7247C11.1453 6.85541 11.5659 6.98159 12.0285 7.10776C12.1126 7.14982 12.2388 7.14982 12.3229 7.14982H12.365C12.4491 7.14982 12.5332 7.19188 12.6173 7.19188C12.6594 7.19188 12.6594 7.19188 12.7014 7.19188C12.7856 7.19188 12.8697 7.19188 12.9538 7.19188C12.9958 7.19188 13.0379 7.19188 13.08 7.19188C13.1641 7.19188 13.2061 7.19188 13.2902 7.19188C13.3323 7.19188 13.3323 7.19188 13.3744 7.19188C13.4164 7.19188 13.4164 7.19188 13.4585 7.19188C13.5005 7.19188 13.5005 7.19188 13.5426 7.19188C13.5847 7.19188 13.5847 7.19188 13.6267 7.19188C13.6688 7.19188 13.7529 7.19188 13.7949 7.19188C13.837 7.19188 13.8791 7.19188 13.9632 7.19188C14.0052 7.19188 14.0893 7.19188 14.1314 7.19188C14.1735 7.19188 14.2155 7.19188 14.2996 7.19188C14.3417 7.19188 14.4258 7.19187 14.4679 7.14982C14.5099 7.14982 14.552 7.14982 14.6361 7.10776C14.6782 7.10776 14.7623 7.10776 14.8043 7.0657C14.8464 7.0657 14.8884 7.0657 14.9726 7.02364C15.0146 7.02364 15.0987 6.98159 15.1408 6.98159C15.1828 6.98159 15.2249 6.93953 15.309 6.93953C15.3931 6.93953 15.4352 6.89747 15.5193 6.89747C15.6034 6.85541 15.6455 6.85541 15.7296 6.81336C15.8137 6.7713 15.8558 6.7713 15.9399 6.72924C15.9819 6.72924 16.024 6.68718 16.0661 6.68718C16.1081 6.64512 16.1922 6.64512 16.2343 6.60307C16.2763 6.60307 16.3184 6.56101 16.3605 6.56101C16.4025 6.51895 16.4866 6.51895 16.5287 6.47689C16.5708 6.43484 16.6128 6.43484 16.6549 6.39278C16.6969 6.35072 16.739 6.35072 16.8231 6.30866C16.8652 6.2666 16.9072 6.2666 16.9493 6.22455C16.9913 6.18249 17.0334 6.18249 17.1175 6.14043C17.1596 6.09837 17.2016 6.09837 17.2437 6.05632C17.2857 6.01426 17.3278 6.01426 17.4119 5.9722C17.454 5.93014 17.496 5.93014 17.5381 5.88808C17.5801 5.84603 17.6222 5.80397 17.6643 5.80397C17.7063 5.76191 17.7484 5.76191 17.7904 5.71985C17.8325 5.6778 17.8745 5.63574 17.9166 5.59368C17.9587 5.55162 18.0007 5.50956 18.0428 5.50956L18.0848 5.46751C18.2951 5.80397 18.5895 6.47689 18.7157 7.69657C18.7578 8.28538 19.2624 8.70595 19.8513 8.70595H20.4401C20.4401 8.70595 20.4401 8.70595 20.4821 8.70595C20.4821 8.70595 20.4821 8.70595 20.4821 8.74801C20.4821 8.74801 20.4821 8.74801 20.4821 8.79007V8.83213V11.6079C20.4821 11.7341 20.356 11.8603 20.2298 11.8603C19.7671 11.8603 19.3466 12.1547 19.2204 12.5753C18.6316 15.3511 16.3184 18.3792 13.7108 18.3792Z" fill="#EBC152"/>
<path d="M15.5613 23.3841L17.2857 21.9541C17.538 21.7439 17.538 21.4074 17.3698 21.155C17.1595 20.9027 16.823 20.9027 16.5707 21.0709L13.7108 23.4682L10.8508 21.0709C10.5985 20.8606 10.262 20.9027 10.0517 21.155C9.84144 21.4074 9.8835 21.7439 10.1358 21.9541L11.8602 23.3841L9.5891 36.7585V36.8005C9.54704 37.0949 9.67321 37.3893 9.8835 37.5576L13.164 40.5857C13.3322 40.754 13.5425 40.796 13.7528 40.796C13.9631 40.796 14.1734 40.7119 14.3416 40.5857L17.6221 37.5576C17.8324 37.3473 17.9165 37.0949 17.9165 36.8005L15.5613 23.3841ZM13.7108 39.5763L10.6826 36.8005L12.8696 24.1832L13.3743 24.6038C13.5005 24.6879 13.6266 24.73 13.7528 24.73C13.879 24.73 14.0052 24.6879 14.1313 24.6038L14.636 24.1832L16.7389 36.8005L13.7108 39.5763Z" fill="#EBC152"/>
<path d="M9.89507 21.0245C10.1725 20.6915 10.6367 20.627 10.9815 20.9142L13.7108 23.2021L16.4483 20.9074L16.4576 20.9012C16.7745 20.6899 17.2337 20.6731 17.5265 21.0245L17.5335 21.0328L17.5395 21.0419C17.7508 21.3589 17.7676 21.8181 17.4163 22.1109L15.7827 23.4655L18.1205 36.7828V36.8005C18.1205 37.1386 18.0217 37.4465 17.7664 37.7018L17.7606 37.7076L14.4724 40.7427L14.464 40.7489C14.268 40.8959 14.0158 41 13.7529 41C13.5177 41 13.245 40.953 13.0229 40.733L9.75015 37.712C9.49161 37.5017 9.33945 37.1459 9.38516 36.7869V36.7413L11.6394 23.466L10.0057 22.1112C9.67276 21.8337 9.60779 21.3692 9.89507 21.0245Z" fill="#EBC152"/>
<path d="M24.4356 26.6226C24.3935 26.3282 24.0991 26.1179 23.8047 26.1599L19.0522 26.8328C18.7578 26.8749 18.5475 27.1693 18.5896 27.4637C18.6316 27.7581 18.884 27.9263 19.1363 27.9263C19.1784 27.9263 19.1784 27.9263 19.2204 27.9263L23.973 27.2534C24.2674 27.2114 24.4776 26.917 24.4356 26.6226Z" fill="#EBC152"/>
<path fill-rule="evenodd" clip-rule="evenodd" d="M23.7759 25.958C24.1762 25.9009 24.5787 26.1823 24.6374 26.5937C24.6946 26.994 24.4132 27.3966 24.0017 27.4554L19.2347 28.1303H19.1367C18.7999 28.1303 18.4463 27.9035 18.3876 27.4926C18.3304 27.0923 18.6118 26.6897 19.0233 26.6309L23.7759 25.958C23.776 25.958 23.7759 25.958 23.7759 25.958ZM23.8047 26.1599L23.7759 25.958L23.8047 26.1599ZM24.2336 26.6514C24.2083 26.4741 24.022 26.3349 23.8335 26.3619L19.081 27.0348C19.0809 27.0348 19.081 27.0348 19.081 27.0348C18.9037 27.0602 18.7645 27.2464 18.7914 27.4349C18.8168 27.6128 18.9684 27.7224 19.1362 27.7224H19.2053L23.944 27.0515C23.944 27.0515 23.9441 27.0515 23.944 27.0515C24.1213 27.0261 24.2605 26.8399 24.2336 26.6514Z" fill="#EBC152"/>
</svg>
