<svg width="13" height="16" viewBox="0 0 13 16" fill="none" xmlns="http://www.w3.org/2000/svg">
<path d="M6.05647 3.56285e-07C6.73771 4.15841e-07 7.41895 0.0973206 8.1002 0.389283C11.8957 1.75177 13.9394 5.93656 12.5769 9.73206C11.4091 13.041 8.29484 15.474 4.7913 15.7659C4.30469 15.7659 3.91541 15.474 3.81809 14.9874C3.81809 14.5008 4.11005 14.1115 4.59665 14.0142C7.32163 13.8195 9.85197 11.8731 10.8252 9.14814C11.8957 6.22852 10.3386 3.11426 7.41895 2.04373C5.18058 1.26517 2.74756 2.43302 1.969 4.67139C1.67703 5.44996 1.67704 6.32584 2.06632 7.10441C2.4556 7.88297 3.13684 8.46689 3.91541 8.75886C5.18058 9.24546 6.54307 8.56421 7.02967 7.29905C7.32163 6.42316 6.83503 5.35264 5.95914 5.06067C5.47254 4.86603 5.2779 4.37943 5.37522 3.89283C5.56986 3.40622 6.05647 3.21158 6.54307 3.3089C8.39216 3.99015 9.36537 6.03388 8.68412 7.78565C7.90556 9.9267 5.47254 11.0946 3.33149 10.316C0.70383 9.34278 -0.658662 6.52048 0.314545 3.89282C1.19043 1.55713 3.52613 1.35076e-07 6.05647 3.56285e-07Z" fill="#2E2F3F"/>
</svg>
