<svg width="18" height="18" viewBox="0 0 18 18" fill="none" xmlns="http://www.w3.org/2000/svg">
<path d="M8.6909 10.5335C9.0907 10.5335 9.47413 10.3747 9.75683 10.092C10.0395 9.80929 10.1984 9.42587 10.1984 9.02606C10.1984 8.62626 10.0395 8.24284 9.75683 7.96014C9.47413 7.67744 9.0907 7.51861 8.6909 7.51861C8.2911 7.51861 7.90767 7.67744 7.62497 7.96014C7.34227 8.24284 7.18345 8.62626 7.18345 9.02606C7.18345 9.42587 7.34227 9.80929 7.62497 10.092C7.90767 10.3747 8.2911 10.5335 8.6909 10.5335Z" fill="white"/>
<path fill-rule="evenodd" clip-rule="evenodd" d="M1.49902 9.02608C2.45927 5.96821 5.31589 3.75 8.69107 3.75C12.0663 3.75 14.9229 5.96821 15.8831 9.02608C14.9229 12.0839 12.0663 14.3022 8.69107 14.3022C5.31589 14.3022 2.45927 12.0839 1.49902 9.02608ZM11.706 9.02608C11.706 9.82568 11.3883 10.5925 10.8229 11.1579C10.2575 11.7233 9.49067 12.041 8.69107 12.041C7.89147 12.041 7.12462 11.7233 6.55921 11.1579C5.99381 10.5925 5.67617 9.82568 5.67617 9.02608C5.67617 8.22647 5.99381 7.45962 6.55921 6.89422C7.12462 6.32882 7.89147 6.01118 8.69107 6.01118C9.49067 6.01118 10.2575 6.32882 10.8229 6.89422C11.3883 7.45962 11.706 8.22647 11.706 9.02608Z" fill="white"/>
</svg>
