<svg width="16" height="13" viewBox="0 0 16 13" fill="none" xmlns="http://www.w3.org/2000/svg">
<path d="M6.59795e-07 6.94351C6.89573e-07 6.26227 0.0973206 5.58103 0.389282 4.89979C1.75177 1.10429 5.93654 -0.939434 9.73204 0.423051C13.0409 1.5909 15.4739 4.70515 15.7659 8.20868C15.7659 8.69528 15.4739 9.08456 14.9873 9.18188C14.5007 9.18188 14.1115 8.88992 14.0141 8.40332C13.8195 5.67835 11.8731 3.14802 9.14812 2.17482C6.22851 1.10429 3.11425 2.66142 2.04373 5.58103C1.26517 7.8194 2.43301 10.2524 4.67138 11.031C5.44994 11.3229 6.32583 11.3229 7.10439 10.9336C7.88295 10.5444 8.46687 9.86313 8.75884 9.08456C9.24544 7.8194 8.56419 6.45691 7.29903 5.97031C6.42315 5.67835 5.35262 6.16495 5.06066 7.04084C4.86602 7.52744 4.37942 7.72208 3.89282 7.62476C3.40621 7.43012 3.21157 6.94351 3.30889 6.45691C3.99014 4.60783 6.03386 3.63462 7.78563 4.31586C9.92668 5.09443 11.0945 7.52744 10.316 9.66848C9.34276 12.2961 6.52047 13.6586 3.89282 12.6854C1.55713 11.8095 5.4919e-07 9.47384 6.59795e-07 6.94351Z" fill="#2E2F3F"/>
</svg>
