<svg width="24" height="24" viewBox="0 0 24 24" fill="none" xmlns="http://www.w3.org/2000/svg">
<g clip-path="url(#clip0_0_1108)">
<path d="M13.056 0C13.2342 0.384632 13.3788 0.786316 13.5435 1.17789C14.142 2.67316 14.7303 4.17253 15.3465 5.66021C15.9294 7.1059 16.4973 8.55916 17.0892 10.0011C17.5482 11.1145 17.9865 12.2368 18.4305 13.3566C17.8617 13.9333 17.2827 14.4969 16.7187 15.0786C16.1793 14.4104 15.6807 13.7081 15.1434 13.038C13.9104 11.4347 12.6801 9.82737 11.4405 8.22853C10.1418 9.66 8.8332 11.1098 7.5282 12.5447C7.0134 13.1312 6.4737 13.6911 5.9622 14.2809C5.6283 14.6672 5.2701 15.0278 4.9311 15.4093C3.9249 16.542 2.8926 17.6473 1.8882 18.7819C1.2432 19.4577 0.6408 20.1761 0 20.8551C0.7305 19.3487 1.4955 17.8563 2.2494 16.3629C2.8494 15.1339 3.4722 13.9184 4.0884 12.6988C4.7943 11.2576 5.5284 9.83242 6.2472 8.39779C7.0635 6.72505 7.9326 5.08263 8.7423 3.40611C8.8323 3.2179 8.913 3.04105 9.0873 2.92168C9.7713 2.43032 10.4385 1.91463 11.1189 1.41663C11.6532 1.026 12.1899 0.637895 12.7158 0.233684C12.8256 0.150151 12.9391 0.072168 13.056 0V0Z" fill="white"/>
<path d="M24.0004 7.7757C23.8483 8.01538 23.6713 8.23359 23.4895 8.44833C22.8358 9.25675 22.1755 10.0589 21.5308 10.8761C20.6175 12.0006 19.7079 13.1284 18.802 14.2595C18.3376 14.8304 17.8762 15.4045 17.4142 15.978C16.4773 17.1212 15.5614 18.2842 14.6242 19.428C14.0911 20.0823 13.5772 20.7534 13.0354 21.3992C12.3514 22.2338 11.6965 23.0918 11.0014 23.9154C10.4377 23.0659 9.93759 22.1694 9.39069 21.3082C8.64189 20.1224 7.94109 18.9025 7.17969 17.7262C7.46229 17.9435 7.71069 18.1974 7.97619 18.4364C8.90469 19.3055 9.86019 20.1407 10.7785 21.0218C11.4367 20.3981 12.0544 19.7305 12.7075 19.1018C13.4101 18.3869 14.1208 17.682 14.8264 16.9702C15.469 16.3525 16.0795 15.7001 16.7191 15.0786C17.2831 14.497 17.8621 13.9333 18.4309 13.3563C18.8776 12.9111 19.3345 12.4775 19.768 12.018C20.602 11.1809 21.448 10.3563 22.2712 9.50812C22.7053 9.07643 23.1511 8.65738 23.5705 8.20706C23.7085 8.05706 23.8507 7.91243 24.0004 7.7757Z" fill="#79FFFF"/>
<path d="M18.8019 14.2595C19.2474 15.3571 19.692 16.4551 20.1261 17.5588C20.6718 18.9234 21.2346 20.2819 21.7788 21.6467C21.2133 20.9488 20.6772 20.2235 20.1228 19.5145C19.227 18.3297 18.3024 17.1695 17.4141 15.978C17.8761 15.4045 18.3375 14.8304 18.8019 14.2595Z" fill="white"/>
</g>
<defs>
<clipPath id="clip0_0_1108">
<rect width="24" height="24" fill="white"/>
</clipPath>
</defs>
</svg>
