<svg width="13" height="16" viewBox="0 0 13 16" fill="none" xmlns="http://www.w3.org/2000/svg">
<path d="M12.9785 8.65372C12.9785 11.6963 11.1136 14.5427 8.07103 15.6223C4.93026 16.8001 1.39689 15.1316 0.317253 11.8926C-0.664237 9.24261 0.70985 6.39629 3.35987 5.4148C4.43951 5.0222 5.6173 5.12035 6.59879 5.6111C7.58028 6.10184 8.36547 6.98518 8.75807 7.96668C9.44511 9.83151 8.46362 11.8926 6.59879 12.4815C6.10805 12.6778 5.6173 12.3834 5.421 11.8926C5.2247 11.4019 5.51915 10.9112 6.0099 10.7149C6.89324 10.4204 7.38398 9.34076 7.08954 8.45742C6.89324 7.86853 6.40249 7.37778 5.8136 7.08333C5.2247 6.78889 4.53766 6.78889 3.94877 6.98518C2.28023 7.57408 1.39689 9.43891 1.98579 11.2056C2.77098 13.463 5.2247 14.6408 7.48213 13.8556C10.4266 12.776 11.8988 9.63521 10.9173 6.69074C10.2303 4.8259 8.85622 3.25552 6.99139 2.47032C5.22471 1.68513 3.35987 1.58698 1.69134 2.27402C1.2006 2.47032 0.70985 2.27402 0.513552 1.78328C0.317254 1.29253 0.513553 0.801785 1.0043 0.605487C3.16358 -0.277856 5.51915 -0.179705 7.77658 0.801787C10.034 1.78328 11.8007 3.74626 12.5859 6.10184C12.8803 6.98519 12.9785 7.86853 12.9785 8.65372Z" fill="#2E2F3F"/>
</svg>
