<svg width="46" height="40" viewBox="0 0 46 40" fill="none" xmlns="http://www.w3.org/2000/svg">
<path fill-rule="evenodd" clip-rule="evenodd" d="M13.922 0C14.36 2.40905 11.8571 5.81926 9.26029 6.72657C9.79215 3.4415 11.6693 1.56432 13.922 0Z" fill="white"/>
<path fill-rule="evenodd" clip-rule="evenodd" d="M31.8176 0C34.5708 1.25145 36.2603 3.59793 36.9173 6.97686C34.1954 5.69412 32.5372 3.31635 31.8176 0Z" fill="white"/>
<path fill-rule="evenodd" clip-rule="evenodd" d="M8.60393 0.470053C9.69895 3.03553 8.94808 7.35305 7.44633 8.82351C5.81944 6.53961 7.38376 2.1908 8.60393 0.470053Z" fill="white"/>
<path fill-rule="evenodd" clip-rule="evenodd" d="M37.3863 0.72017C39.1697 2.31577 39.7641 6.32043 39.0132 9.07363C37.0735 7.82217 36.8232 3.69237 37.3863 0.72017Z" fill="white"/>
<path fill-rule="evenodd" clip-rule="evenodd" d="M5.35106 4.66193C7.07181 6.44526 6.53994 11.0756 5.35106 13.0154C3.72417 11.3885 4.3499 6.44526 5.35106 4.66193Z" fill="white"/>
<path fill-rule="evenodd" clip-rule="evenodd" d="M40.4223 4.66193C42.2682 6.06982 42.1117 11.0131 41.1106 13.2657C39.296 11.6075 39.5775 7.16484 40.4223 4.66193Z" fill="white"/>
<path fill-rule="evenodd" clip-rule="evenodd" d="M6.97632 11.6388C7.85234 8.57276 10.0111 6.75815 12.7956 5.60055C11.9196 8.6979 10.0424 10.7628 6.97632 11.6388Z" fill="white"/>
<path fill-rule="evenodd" clip-rule="evenodd" d="M37.8552 11.388C39.2005 13.4842 41.2029 16.0809 40.6397 19.2721C38.5435 17.8643 37.0418 14.673 37.6049 11.388C35.6652 9.91752 33.9757 8.19677 32.9433 5.819C35.6339 6.13187 38.1368 8.69735 38.9815 11.6383C38.481 11.7008 38.1368 11.607 37.8552 11.388Z" fill="white"/>
<path fill-rule="evenodd" clip-rule="evenodd" d="M1.37701 8.85381C3.59834 10.3556 4.72465 12.9523 4.84979 16.519C2.40946 15.2675 1.53344 12.4205 1.37701 8.85381Z" fill="white"/>
<path fill-rule="evenodd" clip-rule="evenodd" d="M44.3648 8.85381C45.4598 11.7322 43.4262 15.4865 41.33 16.738C41.2048 12.9836 42.863 10.9813 44.3648 8.85381Z" fill="white"/>
<path fill-rule="evenodd" clip-rule="evenodd" d="M8.60298 11.1694C9.07228 14.4232 7.82082 17.9586 5.3492 19.0536C5.38049 15.3931 6.85095 13.1405 8.60298 11.1694Z" fill="white"/>
<path fill-rule="evenodd" clip-rule="evenodd" d="M1.15856 14.4227C3.8179 15.7054 5.10064 18.3961 5.56993 21.8376C2.94188 20.5235 1.78428 17.7391 1.15856 14.4227Z" fill="white"/>
<path fill-rule="evenodd" clip-rule="evenodd" d="M44.6148 14.4227C45.0215 17.6765 43.113 20.68 40.6727 21.8689C40.8604 18.2709 42.7376 16.3312 44.6148 14.4227Z" fill="white"/>
<path fill-rule="evenodd" clip-rule="evenodd" d="M6.97591 18.1458C8.91566 19.3972 9.13467 23.527 8.6028 26.4992C6.41275 25.4042 6.5379 21.0554 6.97591 18.1458Z" fill="white"/>
<path fill-rule="evenodd" clip-rule="evenodd" d="M38.7951 18.3655C40.2343 20.4616 39.4834 25.6552 37.6375 26.7189C36.7302 23.8719 37.5124 20.3991 38.7951 18.3655Z" fill="white"/>
<path fill-rule="evenodd" clip-rule="evenodd" d="M0 19.7729C3.00349 20.8053 5.60026 22.2132 6.50756 25.3419C3.50407 24.2781 0.969877 22.8077 0 19.7729Z" fill="white"/>
<path fill-rule="evenodd" clip-rule="evenodd" d="M45.7704 19.9916C46.1145 22.0565 42.4228 24.9348 39.5131 25.3416C40.6081 22.5884 42.9546 21.0553 45.7704 19.9916Z" fill="white"/>
<path fill-rule="evenodd" clip-rule="evenodd" d="M9.29195 24.4044C12.0764 26.0939 14.0788 28.5968 14.3916 32.7579C11.6071 31.0684 9.85511 28.3465 9.29195 24.4044Z" fill="white"/>
<path fill-rule="evenodd" clip-rule="evenodd" d="M36.9492 24.6533C36.1671 28.2825 34.7905 31.3173 31.8495 32.7877C32.1311 28.6579 34.1022 26.2489 36.9492 24.6533Z" fill="white"/>
<path fill-rule="evenodd" clip-rule="evenodd" d="M3.25573 25.0917C6.88495 25.8738 9.38786 27.7823 11.1399 30.4416C11.1712 30.9422 10.3265 30.5355 9.9823 30.6606C10.9209 31.4428 12.7668 31.2864 13.0171 32.7568C9.54429 33.2574 5.22677 32.882 3.72503 30.6606C5.41449 30.2226 7.79226 30.4416 9.54429 30.6606C7.10396 29.1589 4.22561 28.0952 3.25573 25.0917Z" fill="white"/>
<path fill-rule="evenodd" clip-rule="evenodd" d="M36.231 30.6917C37.7953 30.9733 40.7363 29.9722 42.5196 30.9108C40.7988 32.8505 36.3875 33.6952 33.2275 32.7566C33.603 31.6616 34.7606 31.3488 36.012 31.1298C35.9494 30.8169 35.4176 30.942 35.0734 30.9108C36.4187 27.7821 39.2658 26.1239 42.9576 25.3418C41.7374 28.1263 39.2345 29.6593 36.231 30.6917Z" fill="white"/>
<path fill-rule="evenodd" clip-rule="evenodd" d="M14.6408 29.9722C16.7057 29.3777 22.3999 33.445 22.306 35.3221C22.1496 38.0753 15.8923 38.4195 12.7637 37.6373C14.1715 35.6663 17.9572 35.2596 20.8981 35.5411C18.4265 34.102 16.0487 32.5064 14.6408 29.9722Z" fill="white"/>
<path fill-rule="evenodd" clip-rule="evenodd" d="M31.1314 29.7536C30.9124 32.3816 27.9715 34.3214 25.3122 35.3226C28.2844 35.917 32.1952 35.5729 33.4466 37.888C29.7548 38.5451 24.6239 37.9193 23.9356 35.5729C25.1557 32.4442 28.0028 30.9738 31.1314 29.7536Z" fill="white"/>
<path fill-rule="evenodd" clip-rule="evenodd" d="M17.8961 34.3833C16.2692 36.1979 10.8253 36.1666 8.385 35.0716C10.137 33.1632 15.4244 33.0693 17.8961 34.3833Z" fill="white"/>
<path fill-rule="evenodd" clip-rule="evenodd" d="M37.857 35.3223C35.1038 36.386 30.6298 36.1983 28.3459 34.853C30.0979 32.9132 36.4804 33.4138 37.857 35.3223Z" fill="white"/>
<path fill-rule="evenodd" clip-rule="evenodd" d="M22.3075 36.4796C22.7768 37.293 20.5242 39.2953 19.2727 39.9523C18.866 38.2942 21.6505 37.8874 22.3075 36.4796Z" fill="white"/>
<path fill-rule="evenodd" clip-rule="evenodd" d="M23.2142 36.7299C24.2153 36.9176 26.6557 38.8261 26.687 39.9837C25.0914 40.234 24.5595 37.5121 23.2142 36.7299Z" fill="white"/>
</svg>
