<svg width="13" height="16" viewBox="0 0 13 16" fill="none" xmlns="http://www.w3.org/2000/svg">
<path d="M4.03341 15.8929C2.95656 15.8929 1.87972 15.6972 0.90077 15.3056C0.411295 15.1098 0.215505 14.6203 0.411295 14.1308C0.607085 13.6414 1.09656 13.4456 1.58603 13.6414C3.25025 14.3266 5.20815 14.2287 6.87236 13.4456C8.63447 12.6624 10.1029 11.0961 10.7882 9.23609C11.2776 7.86557 11.1797 6.29925 10.5924 4.92872C9.9071 3.55819 8.83026 2.57924 7.45973 2.08976C5.20815 1.30661 2.76077 2.48135 1.97761 4.73293C1.68393 5.51609 1.68393 6.39714 2.07551 7.1803C2.46709 7.96346 3.15235 8.55083 3.93551 8.84451C5.20815 9.33399 6.57867 8.64872 7.06815 7.37609C7.26394 6.88662 7.16604 6.49504 6.97025 6.00556C6.77447 5.61398 6.38289 5.2224 5.99131 5.12451C5.40394 4.92872 5.20815 4.43924 5.40394 3.94977C5.59973 3.46029 6.0892 3.2645 6.57867 3.3624C8.43868 4.04766 9.41763 6.10346 8.73236 7.86556C7.9492 10.0193 5.50183 11.194 3.34814 10.4108C2.07551 9.92136 1.09656 9.0403 0.50919 7.86556C-0.0781798 6.69083 -0.176075 5.3203 0.3134 4.04766C1.48814 0.915026 4.91446 -0.749187 8.0471 0.327657C9.9071 1.01292 11.3755 2.38345 12.2566 4.14556C13.1376 5.90767 13.2355 7.96346 12.5503 9.82346C11.7671 12.1729 10.005 14.0329 7.75341 15.1098C6.48078 15.5993 5.20815 15.8929 4.03341 15.8929Z" fill="#2E2F3F"/>
</svg>
