<svg width="34" height="34" viewBox="0 0 34 34" fill="none" xmlns="http://www.w3.org/2000/svg">
<g clip-path="url(#clip0_0_1167)">
<path d="M28.2066 6.00717L30.7668 4.48943L33.8625 6.32442L32.0273 3.229L33.8625 0.132812L30.7668 1.96858L27.6709 0.132812L29.5064 3.229L27.9539 5.84738H5.89745L0 15.862L17.429 33.8856L34 15.8449L28.2066 6.00717ZM21.2796 16.7071L17.3447 29.3178L12.8211 16.7071H21.2796ZM13.2117 14.723L17.02 8.69688L20.828 14.723H13.2117ZM18.8205 7.83179H25.887L22.575 13.7731L18.8205 7.83179ZM11.4647 13.7731L8.15292 7.83179H15.2192L11.4647 13.7731ZM9.72229 14.723H2.97375L6.44063 8.8354L9.72229 14.723ZM10.7129 16.7071L14.9209 28.4374L3.57764 16.7071H10.7129ZM23.3584 16.7071H30.5134L19.6775 28.5041L23.3584 16.7071ZM24.3177 14.723L27.5848 8.8616L31.0364 14.723H24.3177Z" fill="#24B674"/>
</g>
<defs>
<clipPath id="clip0_0_1167">
<rect width="34" height="34" fill="white"/>
</clipPath>
</defs>
</svg>
