<svg width="24" height="24" viewBox="0 0 24 24" fill="none" xmlns="http://www.w3.org/2000/svg">
<path d="M12.8062 15H13.375C17.5269 15 19 12.8125 19 10.9375C18.9994 10.4294 18.8219 9.93731 18.498 9.54579C18.1741 9.15427 17.724 8.88771 17.225 8.79189C17.325 8.58992 17.4104 8.38105 17.4806 8.16689C17.5897 7.80124 17.6111 7.41502 17.5432 7.03953C17.4752 6.66405 17.3197 6.30985 17.0894 6.00565C16.8569 5.69217 16.554 5.4378 16.205 5.2631C15.856 5.0884 15.4709 4.99828 15.0806 5.00002H7.91937C7.52896 4.9985 7.14368 5.08891 6.7947 5.26394C6.44573 5.43897 6.14286 5.6937 5.91062 6.00752C5.68025 6.31173 5.52478 6.66592 5.45681 7.04141C5.38883 7.41689 5.41027 7.80311 5.51937 8.16877C5.58957 8.38293 5.675 8.5918 5.775 8.79377C5.2763 8.88953 4.82645 9.1558 4.50259 9.54694C4.17873 9.93808 4.00105 10.4297 4 10.9375C4 12.8125 5.47312 15 9.62499 15H10.1937C10.2301 15.1897 10.249 15.3824 10.25 15.5756V17.5C10.2607 17.6669 10.2358 17.8343 10.1767 17.9908C10.1177 18.1473 10.026 18.2894 9.90772 18.4077C9.78943 18.526 9.64729 18.6177 9.49076 18.6767C9.33424 18.7358 9.16693 18.7607 8.99999 18.75H7.74999C7.58423 18.75 7.42526 18.8159 7.30805 18.9331C7.19084 19.0503 7.12499 19.2092 7.12499 19.375C7.12499 19.5408 7.19084 19.6997 7.30805 19.8169C7.42526 19.9342 7.58423 20 7.74999 20H15.25C15.4157 20 15.5747 19.9342 15.6919 19.8169C15.8091 19.6997 15.875 19.5408 15.875 19.375C15.875 19.2092 15.8091 19.0503 15.6919 18.9331C15.5747 18.8159 15.4157 18.75 15.25 18.75H14.0037C13.8365 18.7611 13.6689 18.7364 13.512 18.6775C13.3551 18.6187 13.2126 18.5271 13.0939 18.4088C12.9753 18.2905 12.8832 18.1482 12.8239 17.9915C12.7646 17.8348 12.7394 17.6672 12.75 17.5V15.575C12.751 15.382 12.7699 15.1895 12.8062 15ZM13.8287 13.2181C14.8996 12.2694 15.8261 11.1693 16.5787 9.95252C16.6529 9.98321 16.7322 9.99934 16.8125 10C17.0611 10 17.2996 10.0988 17.4754 10.2746C17.6512 10.4504 17.75 10.6889 17.75 10.9375C17.75 12.2975 16.6006 13.75 13.375 13.75H13.34C13.4809 13.5537 13.645 13.3751 13.8287 13.2181ZM9.62499 13.75C6.39937 13.75 5.25 12.2975 5.25 10.9375C5.25 10.6889 5.34877 10.4504 5.52459 10.2746C5.7004 10.0988 5.93886 10 6.1875 10C6.26795 9.99942 6.34753 9.98329 6.42187 9.95252C7.17449 11.1693 8.10095 12.2694 9.17187 13.2181C9.35537 13.3752 9.51926 13.5537 9.65999 13.75H9.62499Z" fill="white"/>
</svg>
