<svg width="92" height="90" viewBox="0 0 92 90" fill="none" xmlns="http://www.w3.org/2000/svg">
<path d="M87.9499 65.6488C89.0118 65.6489 90.0738 65.8419 91.0392 66.2281C91.5219 66.4212 91.715 66.9039 91.5219 67.3866C91.3288 67.8693 90.8461 68.0624 90.3634 67.8693C88.7222 67.1935 86.7913 67.2901 85.1501 68.0624C83.4123 68.8348 81.9642 70.3794 81.2884 72.2137C80.8057 73.5653 80.9022 75.11 81.4815 76.4616C82.1573 77.8132 83.2193 78.7786 84.5709 79.2614C86.7913 80.0337 89.2049 78.8752 89.9772 76.6547C90.2669 75.8824 90.2669 75.0135 89.8807 74.2411C89.4945 73.4688 88.8187 72.8895 88.0464 72.5999C86.7913 72.1172 85.4397 72.793 84.957 74.0481C84.7639 74.5308 84.8605 74.9169 85.0536 75.3997C85.2467 75.7858 85.6328 76.172 86.019 76.2685C86.5983 76.4616 86.7913 76.9443 86.5983 77.4271C86.4052 77.9098 85.9225 78.1028 85.4397 78.0063C83.6054 77.3305 82.64 75.3031 83.3158 73.5653C84.0881 71.4414 86.5017 70.2829 88.6256 71.0552C89.8807 71.538 90.8461 72.4068 91.4254 73.5653C92.0046 74.7239 92.1012 76.0755 91.6185 77.3305C90.46 80.4199 87.081 82.0611 83.9916 80.9991C82.1573 80.3233 80.7092 78.9717 79.8403 77.234C78.9714 75.4962 78.8748 73.4688 79.5506 71.6345C80.323 69.3175 82.0608 67.4832 84.2812 66.4212C85.5363 65.9385 86.7913 65.6488 87.9499 65.6488Z" fill="#2E2F3F"/>
<path d="M76.0752 77.234C79.068 77.234 81.8678 79.0683 82.9297 82.0611C84.0882 85.1505 82.447 88.626 79.2611 89.6879C76.6545 90.6534 73.8548 89.3018 72.8893 86.6951C72.5032 85.6332 72.5997 84.4747 73.0824 83.5092C73.5651 82.5438 74.434 81.7715 75.3994 81.3853C77.2337 80.7095 79.2611 81.6749 79.8404 83.5092C80.0335 83.9919 79.7438 84.4747 79.2611 84.6677C78.7784 84.8608 78.2957 84.5712 78.1026 84.0885C77.813 83.2196 76.751 82.7369 75.8822 83.0265C75.3029 83.2196 74.8202 83.7023 74.5306 84.2816C74.2409 84.8608 74.2409 85.5366 74.434 86.1159C75.0133 87.7571 76.8476 88.626 78.5853 88.0467C80.8058 87.2744 81.9643 84.8608 81.192 82.6404C80.13 79.7441 77.0407 78.2959 74.1444 79.2614C72.3101 79.9372 70.7654 81.2888 69.9931 83.1231C69.2207 84.8608 69.1242 86.6951 69.8 88.3363C69.9931 88.8191 69.8 89.3018 69.3173 89.4949C68.8346 89.6879 68.3519 89.4949 68.1588 89.0121C67.2899 86.8882 67.3864 84.5712 68.3519 82.3507C69.3173 80.1303 71.2481 78.3925 73.5651 77.6202C74.434 77.3305 75.3029 77.234 76.0752 77.234Z" fill="#2E2F3F"/>
<path d="M75.689 59.2771C77.7164 59.2771 79.6472 60.5321 80.4196 62.5595C80.8057 63.6215 80.7092 64.78 80.2265 65.7454C79.7438 66.7109 78.8749 67.4832 77.9095 67.8694C77.0406 68.159 76.0752 68.159 75.2063 67.7728C74.3374 67.3867 73.7582 66.7109 73.372 65.7454C73.1789 65.2627 73.4685 64.78 73.9513 64.5869C74.434 64.3938 74.9167 64.6835 75.1098 65.1662C75.3028 65.6489 75.5925 65.9385 75.9786 66.1316C76.3648 66.3247 76.8475 66.3247 77.3302 66.2282C77.9095 66.0351 78.3922 65.5524 78.6818 64.9731C78.8749 64.4904 78.8749 63.8146 78.6818 63.2353C78.1026 61.5941 76.2683 60.7252 74.5305 61.3045C72.31 62.0768 71.1515 64.4904 71.9239 66.7109C72.9858 69.6071 76.0752 71.0553 78.9714 70.0899C81.6746 69.1244 83.702 66.6143 83.7985 63.8146C83.7985 63.3319 84.2813 62.9457 84.764 62.9457C85.2467 62.9457 85.6328 63.4284 85.6328 63.9111C85.4398 67.3867 83.0262 70.5726 79.6472 71.8276C75.8821 73.1792 71.7308 71.1518 70.3792 67.3867C69.2207 64.2973 70.8619 60.8218 74.0478 59.7598C74.5305 59.3736 75.1098 59.2771 75.689 59.2771Z" fill="#2E2F3F"/>
<path d="M67.2898 67.9658C67.9656 67.9658 68.6414 68.0624 69.3172 68.352C73.0824 69.7036 75.1097 73.8549 73.7582 77.6201C72.5996 80.9025 69.5103 83.316 66.0348 83.6057C65.5521 83.6057 65.1659 83.316 65.0693 82.8333C65.0693 82.3506 65.359 81.9645 65.8417 81.8679C68.5449 81.6748 71.055 79.744 72.0204 77.0408C73.0824 74.1445 71.5377 71.0552 68.6414 69.9932C66.4209 69.2209 64.0074 70.3794 63.235 72.5998C62.9454 73.3722 62.9454 74.2411 63.3316 75.0134C63.7177 75.7857 64.3935 76.365 65.1659 76.6546C66.4209 77.1373 67.7725 76.4615 68.2552 75.2065C68.5449 74.3376 68.0622 73.2756 67.1933 72.986C66.7106 72.7929 66.5175 72.3102 66.614 71.8275C66.8071 71.3448 67.2898 71.1517 67.7725 71.2483C69.6068 71.9241 70.5723 73.9514 69.8965 75.6892C69.1241 77.8131 66.7106 78.9716 64.5866 78.1993C61.98 77.2339 60.6284 74.4342 61.5938 71.8275C62.4627 69.5105 64.7797 67.9658 67.2898 67.9658Z" fill="#2E2F3F"/>
<path d="M83.8951 63.6215L85.6328 63.6215L85.6328 9.26811L83.8951 9.26811L83.8951 63.6215Z" fill="#2E2F3F"/>
<path d="M84.764 42.7684C87.081 43.5407 90.0738 54.3535 84.764 49.4298C79.4542 54.3535 82.3505 43.5407 84.764 42.7684Z" fill="#2E2F3F"/>
<path d="M84.7641 56.4772C86.0191 56.4772 86.9846 55.4153 86.9846 54.2568C86.9846 53.0017 85.9226 52.0363 84.7641 52.0363C83.6056 52.0363 82.5436 53.0983 82.5436 54.2568C82.4471 55.4153 83.509 56.4772 84.7641 56.4772Z" fill="#2E2F3F"/>
<path d="M81.7711 16.7984C83.702 10.137 84.764 1.50325e-05 84.764 1.50325e-05C84.764 1.50325e-05 85.5363 9.65425 87.6602 16.7984C88.336 19.0189 81.1919 19.0189 81.7711 16.7984Z" fill="#2E2F3F"/>
<path d="M9.26782 83.6057L65.9382 83.6057L65.9382 81.868L9.26782 81.8679L9.26782 83.6057Z" fill="#2E2F3F"/>
<path d="M44.6024 82.7369C45.3747 85.0539 56.1874 88.0467 51.2638 82.7369C56.1875 77.4271 45.3747 80.3233 44.6024 82.7369Z" fill="#2E2F3F"/>
<path d="M58.3114 82.7369C58.3114 83.9919 57.2495 84.9573 56.0909 84.9573C54.8359 84.9573 53.8705 83.8954 53.8705 82.7369C53.8705 81.4818 54.9324 80.5164 56.0909 80.5164C57.2495 80.4198 58.3114 81.4818 58.3114 82.7369Z" fill="#2E2F3F"/>
<path d="M16.7983 79.744C10.1369 81.6748 -3.03222e-05 82.7368 -3.03222e-05 82.7368C-3.03222e-05 82.7368 9.6542 83.5091 16.7983 85.6331C19.0188 86.3089 19.0188 79.1647 16.7983 79.744Z" fill="#2E2F3F"/>
<path d="M23.7492 87.7569L69.1241 87.7569C69.6068 87.7569 69.993 88.1431 69.993 88.6258C69.993 89.1085 69.6068 89.4947 69.1241 89.4947L23.7492 89.4947C23.2665 89.4947 22.8803 89.1085 22.8803 88.6258C22.7838 88.1431 23.2665 87.7569 23.7492 87.7569Z" fill="#2E2F3F"/>
<path d="M90.7497 20.8532C91.2324 20.8532 91.6186 21.2394 91.6186 21.7221L91.6186 67.097C91.6186 67.5797 91.2324 67.9659 90.7497 67.9659C90.267 67.9659 89.8808 67.5797 89.8808 67.097L89.8808 21.7221C89.7842 21.2394 90.267 20.8532 90.7497 20.8532Z" fill="#2E2F3F"/>
</svg>
