<svg width="35" height="35" viewBox="0 0 35 35" fill="none" xmlns="http://www.w3.org/2000/svg">
<path fill-rule="evenodd" clip-rule="evenodd" d="M10.6408 0C10.9756 2.1043 9.06256 5.0831 7.07782 5.87563C7.48434 3.00614 8.91908 1.36643 10.6408 0Z" fill="white"/>
<path fill-rule="evenodd" clip-rule="evenodd" d="M24.3188 0C26.4231 1.09314 27.7144 3.14278 28.2166 6.09426C26.1362 4.97379 24.8688 2.89682 24.3188 0Z" fill="white"/>
<path fill-rule="evenodd" clip-rule="evenodd" d="M6.57587 0.41002C7.4128 2.65096 6.8389 6.42229 5.69111 7.70673C4.44766 5.71175 5.64328 1.91309 6.57587 0.41002Z" fill="white"/>
<path fill-rule="evenodd" clip-rule="evenodd" d="M28.5747 0.628465C29.9377 2.02222 30.392 5.52027 29.8181 7.92518C28.3356 6.83204 28.1443 3.22467 28.5747 0.628465Z" fill="white"/>
<path fill-rule="evenodd" clip-rule="evenodd" d="M4.08957 4.07184C5.40476 5.62956 4.99825 9.67418 4.08957 11.3686C2.84613 9.94747 3.32437 5.62956 4.08957 4.07184Z" fill="white"/>
<path fill-rule="evenodd" clip-rule="evenodd" d="M30.8952 4.07184C32.306 5.30162 32.1865 9.61953 31.4213 11.5872C30.0344 10.1388 30.2496 6.25812 30.8952 4.07184Z" fill="white"/>
<path fill-rule="evenodd" clip-rule="evenodd" d="M5.33225 10.1663C6.0018 7.48809 7.65176 5.90303 9.77997 4.89188C9.11042 7.5974 7.67567 9.40108 5.33225 10.1663Z" fill="white"/>
<path fill-rule="evenodd" clip-rule="evenodd" d="M28.9329 9.94743C29.9612 11.7784 31.4916 14.0467 31.0611 16.8342C29.459 15.6044 28.3112 12.8169 28.7416 9.94743C27.2591 8.66299 25.9678 7.15992 25.1787 5.08296C27.2351 5.35624 29.1481 7.59718 29.7938 10.1661C29.4112 10.2207 29.1481 10.1387 28.9329 9.94743Z" fill="white"/>
<path fill-rule="evenodd" clip-rule="evenodd" d="M1.05267 7.73416C2.75045 9.04592 3.6113 11.3142 3.70695 14.4296C1.84178 13.3365 1.17223 10.8496 1.05267 7.73416Z" fill="white"/>
<path fill-rule="evenodd" clip-rule="evenodd" d="M33.9081 7.73416C34.745 10.2484 33.1907 13.5278 31.5886 14.6209C31.4929 11.3415 32.7603 9.59249 33.9081 7.73416Z" fill="white"/>
<path fill-rule="evenodd" clip-rule="evenodd" d="M6.5754 9.75639C6.93409 12.5986 5.97759 15.6867 4.08851 16.6432C4.11242 13.4457 5.23631 11.4781 6.5754 9.75639Z" fill="white"/>
<path fill-rule="evenodd" clip-rule="evenodd" d="M0.885474 12.5987C2.91803 13.7191 3.89844 16.0694 4.25713 19.0755C2.24848 17.9277 1.36372 15.4955 0.885474 12.5987Z" fill="white"/>
<path fill-rule="evenodd" clip-rule="evenodd" d="M34.0991 12.5987C34.41 15.4408 32.9513 18.0644 31.0861 19.1029C31.2296 15.9601 32.6644 14.2657 34.0991 12.5987Z" fill="white"/>
<path fill-rule="evenodd" clip-rule="evenodd" d="M5.33188 15.85C6.81445 16.9431 6.98183 20.5505 6.57532 23.1467C4.90145 22.1902 4.9971 18.3915 5.33188 15.85Z" fill="white"/>
<path fill-rule="evenodd" clip-rule="evenodd" d="M29.6513 16.042C30.7513 17.8731 30.1774 22.4096 28.7666 23.3388C28.0731 20.8519 28.6709 17.8184 29.6513 16.042Z" fill="white"/>
<path fill-rule="evenodd" clip-rule="evenodd" d="M0 17.2711C2.2956 18.1729 4.28033 19.4027 4.97379 22.1356C2.67819 21.2064 0.741286 19.922 0 17.2711Z" fill="white"/>
<path fill-rule="evenodd" clip-rule="evenodd" d="M34.9829 17.4622C35.246 19.2659 32.4243 21.7801 30.2004 22.1354C31.0374 19.7304 32.8308 18.3914 34.9829 17.4622Z" fill="white"/>
<path fill-rule="evenodd" clip-rule="evenodd" d="M7.10171 21.3166C9.22992 22.7923 10.7603 24.9786 10.9994 28.6133C8.87123 27.1375 7.53213 24.76 7.10171 21.3166Z" fill="white"/>
<path fill-rule="evenodd" clip-rule="evenodd" d="M28.2404 21.5345C27.6426 24.7046 26.5905 27.3555 24.3427 28.6399C24.5579 25.0326 26.0644 22.9283 28.2404 21.5345Z" fill="white"/>
<path fill-rule="evenodd" clip-rule="evenodd" d="M2.48824 21.9167C5.26208 22.5999 7.17508 24.2669 8.51417 26.5898C8.53809 27.0271 7.89245 26.6718 7.62941 26.7811C8.34679 27.4644 9.75762 27.3277 9.94892 28.6122C7.29464 29.0494 3.99472 28.7215 2.84692 26.7811C4.13819 26.3985 5.95554 26.5898 7.29464 26.7811C5.42947 25.4694 3.22952 24.5402 2.48824 21.9167Z" fill="white"/>
<path fill-rule="evenodd" clip-rule="evenodd" d="M27.6912 26.8088C28.8868 27.0548 31.1346 26.1802 32.4976 27.0001C31.1824 28.6945 27.8108 29.4323 25.3956 28.6125C25.6826 27.656 26.5673 27.3827 27.5238 27.1914C27.476 26.9181 27.0695 27.0274 26.8065 27.0001C27.8347 24.2672 30.0107 22.8188 32.8324 22.1356C31.8998 24.5679 29.9868 25.907 27.6912 26.8088Z" fill="white"/>
<path fill-rule="evenodd" clip-rule="evenodd" d="M11.1899 26.1807C12.7681 25.6614 17.1202 29.2141 17.0484 30.8538C16.9289 33.2587 12.1464 33.5594 9.75515 32.8761C10.8312 31.1545 13.7246 30.7992 15.9724 31.0451C14.0833 29.788 12.266 28.3943 11.1899 26.1807Z" fill="white"/>
<path fill-rule="evenodd" clip-rule="evenodd" d="M23.7938 25.989C23.6264 28.2846 21.3786 29.979 19.3461 30.8535C21.6177 31.3727 24.6068 31.0721 25.5633 33.0944C22.7416 33.6683 18.82 33.1218 18.2939 31.0721C19.2265 28.3393 21.4025 27.0548 23.7938 25.989Z" fill="white"/>
<path fill-rule="evenodd" clip-rule="evenodd" d="M13.6784 30.0338C12.435 31.6188 8.27422 31.5915 6.40905 30.635C7.74815 28.968 11.7894 28.886 13.6784 30.0338Z" fill="white"/>
<path fill-rule="evenodd" clip-rule="evenodd" d="M28.9348 30.8535C26.8305 31.7827 23.411 31.6187 21.6654 30.4436C23.0045 28.7492 27.8826 29.1864 28.9348 30.8535Z" fill="white"/>
<path fill-rule="evenodd" clip-rule="evenodd" d="M17.0496 31.8646C17.4083 32.5752 15.6866 34.3242 14.7301 34.8981C14.4193 33.4497 16.5475 33.0944 17.0496 31.8646Z" fill="white"/>
<path fill-rule="evenodd" clip-rule="evenodd" d="M17.7423 32.0831C18.5075 32.2471 20.3727 33.9141 20.3966 34.9252C19.1771 35.1439 18.7706 32.7663 17.7423 32.0831Z" fill="white"/>
</svg>
