<svg width="113" height="134" viewBox="0 0 113 134" fill="none" xmlns="http://www.w3.org/2000/svg">
<path d="M52.9701 7.34405C54.9785 6.18716 57.4529 6.18716 59.4613 7.34405L109.186 35.9868C111.194 37.1437 112.431 39.2817 112.431 41.5955V98.8809C112.431 101.195 111.194 103.333 109.186 104.49L59.4613 133.132C57.4529 134.289 54.9785 134.289 52.9701 133.132L3.24561 104.49C1.23722 103.333 0 101.195 0 98.8809V41.5955C0 39.2817 1.23722 37.1437 3.24562 35.9868L52.9701 7.34405Z" fill="#1F212F"/>
<path d="M52.9701 13.8204C54.9785 12.6635 57.4529 12.6635 59.4613 13.8204L97.9427 35.9868C99.9511 37.1437 101.188 39.2817 101.188 41.5955V85.9282C101.188 88.242 99.9511 90.38 97.9427 91.5369L59.4613 113.703C57.4529 114.86 54.9785 114.86 52.9701 113.703L14.4888 91.5369C12.4804 90.38 11.2431 88.242 11.2431 85.9282V41.5955C11.2431 39.2817 12.4804 37.1437 14.4888 35.9868L52.9701 13.8204Z" fill="#538EFF"/>
<path fill-rule="evenodd" clip-rule="evenodd" d="M59.4614 13.8204C57.453 12.6635 54.9785 12.6635 52.9701 13.8204L14.4888 35.9867C12.4804 37.1436 11.2432 39.2817 11.2432 41.5954V84.2848C22.7543 72.8048 38.654 65.7047 56.2157 65.7047C73.7775 65.7047 89.6772 72.8048 101.188 84.2849V41.5954C101.188 39.2817 99.9511 37.1436 97.9427 35.9867L59.4614 13.8204Z" fill="#2972FF"/>
<path d="M52.9581 13.8366C54.9726 12.6705 57.4589 12.6705 59.4734 13.8366L106.281 40.9326C107.147 41.4337 107.68 42.3567 107.68 43.3552C107.68 45.514 105.335 46.8613 103.463 45.7779L59.4734 20.313C57.4589 19.1468 54.9726 19.1468 52.9581 20.313L8.96811 45.7779C7.09658 46.8613 4.75195 45.514 4.75195 43.3552C4.75195 42.3567 5.28475 41.4337 6.1504 40.9326L52.9581 13.8366Z" fill="#1F202F" fill-opacity="0.3"/>
<path fill-rule="evenodd" clip-rule="evenodd" d="M59.4613 0.86767C57.4529 -0.289222 54.9785 -0.289224 52.9701 0.867668L3.24562 29.5104C1.23722 30.6673 0 32.8053 0 35.1191V92.4045C0 94.7183 1.23722 96.8563 3.24561 98.0132L52.9701 126.656C54.9785 127.813 57.4529 127.813 59.4613 126.656L109.186 98.0132C111.194 96.8563 112.431 94.7183 112.431 92.4045V35.1191C112.431 32.8053 111.194 30.6673 109.186 29.5104L59.4613 0.86767ZM59.4613 13.8204C57.4529 12.6635 54.9785 12.6635 52.9701 13.8204L14.4888 35.9868C12.4804 37.1437 11.2431 39.2817 11.2431 41.5955V85.9282C11.2431 88.242 12.4804 90.38 14.4888 91.5369L52.9701 113.703C54.9785 114.86 57.4529 114.86 59.4613 113.703L97.9427 91.5369C99.9511 90.38 101.188 88.242 101.188 85.9282V41.5955C101.188 39.2817 99.9511 37.1437 97.9427 35.9868L59.4613 13.8204Z" fill="#5D6081"/>
<path fill-rule="evenodd" clip-rule="evenodd" d="M52.9701 0.867668C54.9785 -0.289224 57.4529 -0.289222 59.4613 0.86767L109.186 29.5104C111.194 30.6673 112.431 32.8053 112.431 35.1191V44.3327H101.188V41.5955C101.188 39.2817 99.9511 37.1437 97.9427 35.9868L59.4613 13.8204C57.4529 12.6635 54.9785 12.6635 52.9701 13.8204L14.4888 35.9868C12.4804 37.1437 11.2431 39.2817 11.2431 41.5955V44.3327H0V35.1191C0 32.8053 1.23722 30.6673 3.24562 29.5104L52.9701 0.867668Z" fill="#7275A0"/>
<path d="M71.7497 84.3294H66.1129V90.9626H55.0202V84.3294H39.6276V77.0112L50.7926 39.2667H66.1129V76.5786H71.7497V84.3294ZM55.0202 76.5786V56.1742L49.8532 76.5786H55.0202Z" fill="#282936"/>
<path d="M26.9386 98.7343L55.1796 114.388C55.7827 114.722 56.5156 114.722 57.1187 114.388L85.3597 98.7343V113.747C85.3597 114.474 84.9652 115.144 84.3293 115.496L57.1187 130.579C56.5156 130.913 55.7827 130.913 55.1796 130.579L27.969 115.496C27.3331 115.144 26.9386 114.474 26.9386 113.747V98.7343Z" fill="#3A3D53"/>
<path d="M57.2446 108.297L59.18 112.336C59.2642 112.579 59.5166 112.74 59.7691 112.821L64.1448 113.467C64.9021 113.467 65.1545 114.275 64.6497 114.76L61.452 117.911C61.2837 118.073 61.1996 118.396 61.1996 118.638L61.9569 123.001C62.0411 123.648 61.3679 124.213 60.7788 123.89L56.8239 121.789C56.5715 121.628 56.319 121.628 56.0666 121.789L52.1116 123.89C51.5226 124.213 50.7653 123.729 50.9335 123.001L51.6909 118.638C51.775 118.396 51.6067 118.073 51.4384 117.911L48.2408 114.76C47.8201 114.275 48.0725 113.467 48.7457 113.387L53.1214 112.74C53.3738 112.74 53.6263 112.498 53.7104 112.256L55.6458 108.216C56.0666 107.65 56.908 107.65 57.2446 108.297Z" fill="#538EFF"/>
<path fill-rule="evenodd" clip-rule="evenodd" d="M58.9877 107.43L60.6953 110.994L64.3258 111.53C65.4062 111.597 66.3362 112.257 66.703 113.274C67.0678 114.286 66.7822 115.401 66.0116 116.149L63.2212 118.899L63.8828 122.71L63.8881 122.751C64.027 123.818 63.5412 124.773 62.8251 125.336C62.083 125.919 60.9356 126.185 59.8552 125.601L56.4453 123.789L53.0348 125.601C51.1514 126.618 48.4942 125.126 49.0221 122.628L49.6693 118.899L46.8184 116.089L46.7687 116.032C45.4611 114.526 46.0929 111.772 48.481 111.462L52.1952 110.913L53.97 107.209L54.0821 107.058C55.2227 105.525 57.8694 105.282 58.9727 107.401L58.9877 107.43ZM48.7457 113.387C48.0725 113.467 47.8201 114.275 48.2408 114.76L51.4385 117.911C51.6067 118.073 51.775 118.396 51.6909 118.638L50.9336 123.001C50.7653 123.729 51.5226 124.213 52.1116 123.89L56.0666 121.789C56.319 121.628 56.5715 121.628 56.8239 121.789L60.7789 123.89C61.3679 124.213 62.0411 123.648 61.9569 123.001L61.1996 118.638C61.1996 118.396 61.2838 118.073 61.452 117.911L64.6497 114.76C65.1546 114.275 64.9021 113.467 64.1448 113.467L59.7691 112.821C59.5166 112.74 59.2642 112.579 59.1801 112.336L57.2447 108.297C56.9081 107.65 56.0666 107.65 55.6458 108.216L53.7104 112.256C53.6263 112.498 53.3739 112.74 53.1214 112.74L48.7457 113.387Z" fill="#3A3C53"/>
</svg>
