<svg width="13" height="16" viewBox="0 0 13 16" fill="none" xmlns="http://www.w3.org/2000/svg">
<path d="M6.05653 3.56281e-07C6.73777 4.15837e-07 7.41901 0.0973196 8.10025 0.389279C11.8957 1.75176 13.9394 5.9365 12.577 9.73197C11.4091 13.0408 8.29488 15.4738 4.79137 15.7658C4.30478 15.7658 3.9155 15.4738 3.81818 14.9872C3.81818 14.5006 4.11014 14.1114 4.59673 14.014C7.32169 13.8194 9.852 11.873 10.8252 9.14805C11.8957 6.22846 10.3386 3.11423 7.41901 2.04371C5.18065 1.26516 2.74766 2.43299 1.9691 4.67135C1.67714 5.4499 1.67714 6.32578 2.06642 7.10434C2.4557 7.8829 3.13694 8.46681 3.9155 8.75877C5.18065 9.24537 6.54313 8.56413 7.02973 7.29898C7.32169 6.4231 6.83509 5.35258 5.95921 5.06063C5.47261 4.86599 5.27797 4.37939 5.37529 3.89279C5.56993 3.40619 6.05653 3.21155 6.54313 3.30887C8.3922 3.99011 9.3654 6.03382 8.68416 7.78558C7.90561 9.92661 5.47261 11.0944 3.33158 10.3159C0.703946 9.34269 -0.658532 6.52042 0.314665 3.89279C1.19054 1.55712 3.52622 1.35075e-07 6.05653 3.56281e-07Z" fill="#575869"/>
</svg>
