<svg width="115" height="137" viewBox="0 0 115 137" fill="none" xmlns="http://www.w3.org/2000/svg">
<path d="M54.1802 7.50843C56.2345 6.32564 58.7655 6.32564 60.8198 7.50843L111.68 36.7924C113.735 37.9752 115 40.1611 115 42.5267V101.095C115 103.46 113.735 105.646 111.68 106.829L60.8198 136.113C58.7655 137.296 56.2345 137.296 54.1802 136.113L3.31976 106.829C1.26548 105.646 0 103.46 0 101.095V42.5267C0 40.1611 1.26549 37.9752 3.31976 36.7924L54.1802 7.50843Z" fill="#1F212F"/>
<path d="M54.1802 14.1298C56.2345 12.947 58.7655 12.947 60.8198 14.1298L100.18 36.7924C102.235 37.9752 103.5 40.1611 103.5 42.5267V87.8519C103.5 90.2175 102.235 92.4034 100.18 93.5862L60.8198 116.249C58.7655 117.432 56.2345 117.432 54.1802 116.249L14.8198 93.5862C12.7655 92.4034 11.5 90.2175 11.5 87.8519V42.5267C11.5 40.1611 12.7655 37.9752 14.8198 36.7924L54.1802 14.1298Z" fill="#DB37D4"/>
<path fill-rule="evenodd" clip-rule="evenodd" d="M60.8198 14.1298C58.7655 12.947 56.2345 12.947 54.1802 14.1298L14.8198 36.7924C12.7655 37.9752 11.5 40.1611 11.5 42.5267V86.1718C23.2741 74.4348 39.537 67.1757 57.5 67.1757C75.463 67.1757 91.7259 74.4348 103.5 86.1719V42.5267C103.5 40.1611 102.235 37.9752 100.18 36.7924L60.8198 14.1298Z" fill="#AF23B1"/>
<path d="M54.1681 14.1464C56.2286 12.9541 58.7717 12.9541 60.8322 14.1464L108.709 41.849C109.595 42.3613 110.14 43.305 110.14 44.3259C110.14 46.533 107.741 47.9104 105.827 46.8027L60.8322 20.7678C58.7717 19.5755 56.2286 19.5755 54.1681 20.7678L9.17308 46.8027C7.25879 47.9104 4.8606 46.533 4.8606 44.3259C4.8606 43.305 5.40557 42.3613 6.291 41.849L54.1681 14.1464Z" fill="#1F202F" fill-opacity="0.3"/>
<path fill-rule="evenodd" clip-rule="evenodd" d="M60.8198 0.887096C58.7655 -0.295697 56.2345 -0.295699 54.1802 0.887094L3.31976 30.1711C1.26549 31.3539 0 33.5397 0 35.9053V94.4733C0 96.8389 1.26548 99.0248 3.31976 100.208L54.1802 129.492C56.2345 130.674 58.7655 130.674 60.8198 129.492L111.68 100.208C113.735 99.0248 115 96.8389 115 94.4733V35.9053C115 33.5398 113.735 31.3539 111.68 30.1711L60.8198 0.887096ZM60.8198 14.1298C58.7655 12.947 56.2345 12.947 54.1802 14.1298L14.8198 36.7924C12.7655 37.9752 11.5 40.1611 11.5 42.5267V87.8519C11.5 90.2175 12.7655 92.4034 14.8198 93.5862L54.1802 116.249C56.2345 117.432 58.7655 117.432 60.8198 116.249L100.18 93.5862C102.235 92.4034 103.5 90.2175 103.5 87.8519V42.5267C103.5 40.1611 102.235 37.9752 100.18 36.7924L60.8198 14.1298Z" fill="#5D6081"/>
<path fill-rule="evenodd" clip-rule="evenodd" d="M54.1802 0.887094C56.2345 -0.295699 58.7655 -0.295697 60.8198 0.887096L111.68 30.1711C113.735 31.3539 115 33.5398 115 35.9053V45.3252H103.5V42.5267C103.5 40.1611 102.235 37.9752 100.18 36.7924L60.8198 14.1298C58.7655 12.947 56.2345 12.947 54.1802 14.1298L14.8198 36.7924C12.7655 37.9752 11.5 40.1611 11.5 42.5267V45.3252H0V35.9053C0 33.5398 1.26549 31.3539 3.31976 30.1711L54.1802 0.887094Z" fill="#7275A0"/>
<path d="M43.8909 70.8479H54.5718V83.3793C54.5718 84.6816 55.274 85.3328 56.6784 85.3328C58.0829 85.3328 58.7851 84.6816 58.7851 83.3793V71.1427C58.7851 69.7422 58.4278 68.7962 57.7133 68.3047C57.0234 67.7887 55.7175 67.5307 53.7957 67.5307V61.5599C57.1219 61.5599 58.7851 60.5279 58.7851 58.4639V49.1021C58.7851 48.0456 58.0829 47.5173 56.6784 47.5173C55.2248 47.5173 54.4979 48.0456 54.4979 49.1021V58.8324H44.1865V49.0284C44.1865 42.7873 48.523 39.6667 57.1959 39.6667C60.6699 39.6667 63.7005 40.4161 66.2876 41.915C68.8747 43.4138 70.1682 45.785 70.1682 49.0284V56.2893C70.1682 60.5156 68.1478 63.3536 64.1071 64.8033C68.2464 66.0073 70.3161 69.2753 70.3161 74.6073V82.4579C70.3161 89.8048 65.9427 93.4782 57.1959 93.4782C48.3259 93.4782 43.8909 90.1365 43.8909 83.4531V70.8479Z" fill="#282936"/>
</svg>
