<svg width="24" height="24" viewBox="0 0 24 24" fill="none" xmlns="http://www.w3.org/2000/svg">
<path d="M13.3372 13.7946C12.9391 14.06 12.4767 14.2003 12 14.2003C11.5233 14.2003 11.0609 14.06 10.6629 13.7946L4.10653 9.42359C4.07016 9.39934 4.03472 9.37405 4 9.34805V16.5105C4 17.3316 4.66641 17.9834 5.47291 17.9834H18.5271C19.3482 17.9834 20 17.317 20 16.5105V9.34802C19.9652 9.37408 19.9297 9.39943 19.8932 9.42371L13.3372 13.7946Z" fill="white"/>
<path d="M4.62656 8.6435L11.1829 13.0146C11.4311 13.18 11.7155 13.2628 12 13.2628C12.2844 13.2628 12.5689 13.18 12.8171 13.0146L19.3734 8.6435C19.7658 8.38209 20 7.94459 20 7.47241C20 6.6605 19.3395 6 18.5276 6H5.47241C4.66053 6.00003 4 6.66053 4 7.47319C4 7.94459 4.23425 8.38209 4.62656 8.6435Z" fill="white"/>
</svg>
