<svg width="43" height="41" viewBox="0 0 43 41" fill="none" xmlns="http://www.w3.org/2000/svg">
<path d="M23.2974 40.966H1.77509V16.7811H3.5945V39.1909H23.2974V40.966Z" fill="#EBC152"/>
<path d="M35.8113 16.7811H20.5904V15.0061H34.0363V10.5241H1.77503V15.0061H15.2209V16.7811H0V8.74906H35.8113V16.7811Z" fill="#EBC152"/>
<path d="M17.9278 10.5241C17.8834 10.5241 17.8834 10.5241 17.8391 10.5241C17.7059 10.5241 14.2446 10.1691 11.4933 9.19284C9.94016 8.61596 8.83077 7.46218 8.38701 5.99778C7.98762 4.62213 8.2095 3.15773 9.05264 2.04833C10.0733 0.672677 11.6708 -0.0817123 13.3571 0.0070394C14.7771 0.0514153 16.0197 0.805805 16.6853 1.95958C17.8834 4.08962 18.771 9.23722 18.771 9.4591C18.8153 9.72535 18.7266 9.99161 18.5491 10.2135C18.416 10.4354 18.1497 10.5241 17.9278 10.5241ZM13.0021 1.78207C11.9815 1.78207 11.0496 2.27021 10.4283 3.06897C9.94016 3.73461 9.76266 4.62213 10.0289 5.46527C10.2952 6.39716 11.0496 7.10718 12.0702 7.50656C13.6677 8.08344 15.5759 8.43845 16.8184 8.61596C16.4634 6.84092 15.8422 4.08962 15.1321 2.89147C14.7771 2.27021 14.0671 1.87083 13.1796 1.82645C13.1352 1.78207 13.0908 1.78207 13.0021 1.78207Z" fill="#EBC152"/>
<path d="M17.9278 10.5241C17.7059 10.5241 17.4396 10.4354 17.2621 10.2579C17.0403 10.036 16.9515 9.72535 17.0403 9.45909C17.0846 9.28159 17.8834 5.59839 18.9484 3.82336C19.6584 2.66959 20.8566 1.87082 22.0991 1.73769C23.1641 1.64894 24.1404 2.00395 24.8504 2.80271C25.5604 3.60148 25.8711 4.57775 25.6936 5.64277C25.5161 6.84092 24.806 7.95031 23.741 8.61595C21.7885 9.85847 18.2384 10.4797 18.0609 10.5241C18.0165 10.5241 17.9722 10.5241 17.9278 10.5241ZM22.4541 3.46835C22.4097 3.46835 22.321 3.46835 22.2766 3.46835C21.5666 3.5571 20.901 4.00086 20.4572 4.71087C19.9247 5.64277 19.3922 7.28467 19.0816 8.43845C20.191 8.17219 21.7885 7.68406 22.7648 7.06279C23.386 6.66341 23.7854 6.04215 23.8741 5.33214C23.9185 4.97713 23.8741 4.40024 23.4748 3.91211C23.1641 3.5571 22.7648 3.46835 22.4541 3.46835Z" fill="#EBC152"/>
<path d="M21.478 40.9659H14.3335V8.74906H21.5224V40.9659H21.478ZM16.1085 39.1909H19.703V10.5241H16.1085V39.1909Z" fill="#EBC152"/>
<path d="M42.1124 40.9659H24.1846V31.1145H25.9596V39.1909H40.293V31.1145H42.1124V40.9659Z" fill="#EBC152"/>
<path d="M43.0002 32.0464H35.8113V30.227H41.2251V26.6326H25.0723V30.227H31.3737V32.0464H23.2973V24.8575H43.0002V32.0464Z" fill="#EBC152"/>
<path d="M36.699 25.745H34.924V40.0784H36.699V25.745Z" fill="#EBC152"/>
<path d="M32.2166 25.745H30.4416V40.0784H32.2166V25.745Z" fill="#EBC152"/>
<path d="M34.0361 15.8936H32.2611V19.4881H34.0361V15.8936Z" fill="#EBC152"/>
<path d="M33.0155 26.6325C32.2611 26.6325 29.3767 26.5438 27.7348 25.035C26.3148 23.7481 26.1816 21.8843 27.4242 20.5087C28.001 19.843 28.7554 19.488 29.5542 19.3993C30.3973 19.3549 31.2405 19.6212 31.9505 20.2868C33.8587 21.9731 34.0805 25.5231 34.0805 25.6563L34.1249 26.5882L33.193 26.6325C33.1486 26.6325 33.1043 26.6325 33.0155 26.6325ZM29.7317 21.2187C29.6873 21.2187 29.6873 21.2187 29.643 21.2187C29.2879 21.2631 28.9773 21.3962 28.7111 21.7068C28.1342 22.3725 28.1786 23.0825 28.8886 23.7037C29.6873 24.4137 31.1074 24.7244 32.128 24.8131C31.9505 23.7925 31.5511 22.3725 30.708 21.6624C30.3973 21.3518 30.0423 21.2187 29.7317 21.2187Z" fill="#EBC152"/>
<path d="M33.3704 26.6325C33.2373 26.6325 33.1929 26.6325 33.1485 26.6325L32.1723 26.5881L32.3054 25.6119C32.3054 25.4788 32.7935 21.9731 34.6573 20.2868C35.3673 19.6655 36.2105 19.3549 37.0536 19.3993C37.8524 19.4436 38.6068 19.843 39.1837 20.5087C40.4262 21.8843 40.2931 23.7481 38.873 25.035C37.1867 26.5438 34.2579 26.6325 33.3704 26.6325ZM36.7874 21.2187C36.4767 21.2187 36.1217 21.3518 35.7667 21.6624C34.968 22.3724 34.4798 23.7925 34.2136 24.8131C35.323 24.7244 36.8317 24.4137 37.6305 23.7037C38.2961 23.0825 38.3849 22.3724 37.808 21.7068C37.5418 21.3962 37.2311 21.2187 36.8761 21.2187C36.8761 21.2187 36.8317 21.2187 36.7874 21.2187Z" fill="#EBC152"/>
</svg>
