<svg width="25" height="25" viewBox="0 0 25 25" fill="none" xmlns="http://www.w3.org/2000/svg">
<path d="M15.111 0.973592L16.7912 7.41864C16.8454 7.79634 17.1676 8.10342 17.5127 8.2925L23.7064 10.4685C24.81 10.6817 24.9498 11.9328 24.0773 12.4987L18.5286 16.2005C18.2378 16.3891 18.024 16.8374 17.9556 17.1915L17.8279 23.7768C17.7682 24.7445 16.6276 25.381 15.8605 24.7432L10.6903 20.5616C10.368 20.2545 10.0002 20.1834 9.5867 20.3484L3.23087 22.3029C2.28135 22.6091 1.31459 21.6878 1.76503 20.6732L4.0998 14.5143C4.29081 14.184 4.13678 13.6646 3.93715 13.3812L0.166884 7.87878C-0.309403 7.0523 0.286452 5.94335 1.29019 6.01488L7.84871 6.30284C8.21656 6.37391 8.65281 6.09098 8.84383 5.76067L12.804 0.405444C13.5767 -0.302115 14.8029 -0.0651967 15.111 0.973592Z" fill="#1F202D"/>
</svg>
