<svg width="24" height="24" viewBox="0 0 24 24" fill="none" xmlns="http://www.w3.org/2000/svg">
<path fill-rule="evenodd" clip-rule="evenodd" d="M6.96629 7.41573C6.66223 7.41573 6.41573 7.66223 6.41573 7.96629V14.2584C6.41573 14.5625 6.66223 14.809 6.96629 14.809H17.0337C17.3378 14.809 17.5843 14.5625 17.5843 14.2584V7.96629C17.5843 7.66223 17.3378 7.41573 17.0337 7.41573H6.96629ZM5 7.96629C5 6.88034 5.88034 6 6.96629 6H17.0337C18.1197 6 19 6.88034 19 7.96629V14.2584C19 15.3444 18.1197 16.2247 17.0337 16.2247H6.96629C5.88034 16.2247 5 15.3444 5 14.2584V7.96629Z" fill="white"/>
<path fill-rule="evenodd" clip-rule="evenodd" d="M8.77436 18.0337C8.77436 17.6428 9.09128 17.3258 9.48222 17.3258H14.5159C14.9069 17.3258 15.2238 17.6428 15.2238 18.0337C15.2238 18.4247 14.9069 18.7416 14.5159 18.7416H9.48222C9.09128 18.7416 8.77436 18.4247 8.77436 18.0337Z" fill="white"/>
<path fill-rule="evenodd" clip-rule="evenodd" d="M12.0012 14.8089C12.3922 14.8089 12.7091 15.1258 12.7091 15.5168V18.0336C12.7091 18.4246 12.3922 18.7415 12.0012 18.7415C11.6103 18.7415 11.2934 18.4246 11.2934 18.0336V15.5168C11.2934 15.1258 11.6103 14.8089 12.0012 14.8089Z" fill="white"/>
</svg>
