<svg width="13" height="16" viewBox="0 0 13 16" fill="none" xmlns="http://www.w3.org/2000/svg">
<path d="M6.94353 15.7659C6.26229 15.7659 5.58105 15.6686 4.8998 15.3767C1.1043 14.0142 -0.939436 9.82939 0.423052 6.03388C1.5909 2.72498 4.70516 0.291962 8.2087 0C8.69531 0 9.08459 0.291962 9.18191 0.778565C9.18191 1.26517 8.88995 1.65445 8.40334 1.75177C5.67837 1.94641 3.14803 3.89283 2.17482 6.6178C1.1043 9.53742 2.66143 12.6517 5.58105 13.7222C7.81942 14.5008 10.2524 13.3329 11.031 11.0946C11.323 10.316 11.323 9.4401 10.9337 8.66154C10.5444 7.88297 9.86315 7.29905 9.08459 7.00709C7.81942 6.52048 6.45693 7.20173 5.97033 8.4669C5.67837 9.34278 6.16497 10.4133 7.04086 10.7053C7.52746 10.8999 7.7221 11.3865 7.62478 11.8731C7.43014 12.3597 6.94353 12.5544 6.45693 12.457C4.60784 11.7758 3.63463 9.73206 4.31588 7.98029C5.09444 5.83924 7.52746 4.67139 9.66851 5.44996C12.2962 6.42316 13.6587 9.24546 12.6855 11.8731C11.8096 14.2088 9.47387 15.7659 6.94353 15.7659Z" fill="#2E2F3F"/>
</svg>
