<svg width="12" height="12" viewBox="0 0 12 12" fill="none" xmlns="http://www.w3.org/2000/svg">
<path d="M4.89424 0.243316C4.74104 0.397435 4.65505 0.605917 4.65505 0.823228C4.65505 1.04054 4.74104 1.24902 4.89424 1.40314L8.67806 5.17873L0.822525 5.17873C0.604366 5.17873 0.395142 5.2654 0.24088 5.41966C0.0866179 5.57392 -4.44125e-05 5.78314 -4.43934e-05 6.0013C-4.43744e-05 6.21946 0.0866179 6.42869 0.24088 6.58295C0.395142 6.73721 0.604366 6.82387 0.822526 6.82387L8.65339 6.82387L4.89424 10.583C4.73826 10.7379 4.6502 10.9484 4.64942 11.1682C4.64865 11.3881 4.73524 11.5992 4.89013 11.7552C5.04502 11.9112 5.25554 11.9992 5.47536 12C5.69518 12.0008 5.90631 11.9142 6.06229 11.7593L11.2938 6.51952C11.432 6.38078 11.5095 6.19297 11.5095 5.99719C11.5095 5.80141 11.432 5.6136 11.2938 5.47486L6.06229 0.243316C5.98582 0.166217 5.89485 0.105024 5.79461 0.0632625C5.69437 0.021502 5.58686 5.17776e-07 5.47827 5.27269e-07C5.36968 5.36762e-07 5.26216 0.0215021 5.16193 0.0632625C5.06169 0.105024 4.97071 0.166217 4.89424 0.243316Z" fill="#848484"/>
</svg>
