<svg width="24" height="24" viewBox="0 0 24 24" fill="none" xmlns="http://www.w3.org/2000/svg">
<path d="M12 20L11.4229 19.5936C10.6631 19.0583 4.00284 14.2363 4.00284 9.83132C3.95975 8.59709 4.40874 7.39605 5.25167 6.49073C6.09461 5.58541 7.26292 5.04945 8.50124 5C9.18477 5.00669 9.85724 5.17277 10.4648 5.48495C11.0723 5.79712 11.5981 6.24671 12 6.79772C12.4019 6.24671 12.9277 5.79712 13.5352 5.48495C14.1428 5.17277 14.8152 5.00669 15.4988 5C16.7371 5.04945 17.9054 5.58541 18.7483 6.49073C19.5913 7.39605 20.0403 8.59709 19.9972 9.83132C19.9972 14.2363 13.3369 19.0583 12.5771 19.5936L12 20Z" fill="white"/>
</svg>
