<svg width="24" height="24" viewBox="0 0 24 24" fill="none" xmlns="http://www.w3.org/2000/svg">
<path fill-rule="evenodd" clip-rule="evenodd" d="M20.587 7.72385C20.7121 7.3066 20.587 7 19.9915 7H18.0222C17.5215 7 17.2907 7.26486 17.1655 7.55692C17.1655 7.55692 16.1641 9.99783 14.7455 11.5834C14.2865 12.0423 14.0779 12.1883 13.8275 12.1883C13.7024 12.1883 13.5212 12.0423 13.5212 11.6251V7.72386C13.5212 7.22315 13.3759 7 12.9586 7H9.8641C9.5512 7 9.36302 7.23239 9.36302 7.45263C9.36302 7.92729 10.0723 8.03675 10.1454 9.37196V12.2718C10.1454 12.9076 10.0306 13.0229 9.78024 13.0229C9.11267 13.0229 7.4888 10.5711 6.5257 7.76556C6.33695 7.22027 6.14764 7 5.64437 7H3.67516C3.11253 7 3 7.26486 3 7.55692C3 8.07849 3.6676 10.6654 6.10848 14.0868C7.73572 16.4234 10.0284 17.69 12.1146 17.69C13.3663 17.69 13.5212 17.4087 13.5212 16.9241V15.1581C13.5212 14.5955 13.6398 14.4832 14.0362 14.4832C14.3282 14.4832 14.8289 14.6293 15.9972 15.7558C17.3324 17.091 17.5525 17.69 18.3036 17.69H20.2728C20.8354 17.69 21.1167 17.4087 20.9544 16.8535C20.7768 16.3002 20.1394 15.4974 19.2935 14.5458C18.8345 14.0034 18.1461 13.4193 17.9374 13.1271C17.6453 12.7517 17.7288 12.5847 17.9374 12.251C17.9374 12.251 20.3366 8.87126 20.587 7.72385Z" fill="white"/>
</svg>
