<svg width="18" height="18" viewBox="0 0 18 18" fill="none" xmlns="http://www.w3.org/2000/svg">
<path fill-rule="evenodd" clip-rule="evenodd" d="M3.93956 3.21086C3.79789 3.07403 3.60815 2.99832 3.4112 3.00003C3.21425 3.00174 3.02585 3.08074 2.88658 3.22001C2.74731 3.35928 2.66831 3.54768 2.6666 3.74463C2.66489 3.94158 2.7406 4.13132 2.87743 4.27299L13.3936 14.7891C13.5352 14.926 13.725 15.0017 13.9219 15C14.1189 14.9983 14.3073 14.9193 14.4466 14.78C14.5858 14.6407 14.6648 14.4523 14.6665 14.2554C14.6683 14.0584 14.5925 13.8687 14.4557 13.727L13.3493 12.6206C14.5192 11.6877 15.3844 10.4271 15.8341 9C14.8771 5.95257 12.0302 3.74192 8.66657 3.74192C7.48909 3.74033 6.32786 4.01674 5.27736 4.54866L3.93956 3.21086ZM7.14023 6.41077L8.27747 7.54877C8.53218 7.48113 8.80019 7.48158 9.05467 7.55007C9.30915 7.61856 9.54118 7.7527 9.72753 7.93904C9.91388 8.12539 10.048 8.35742 10.1165 8.6119C10.185 8.86638 10.1854 9.13439 10.1178 9.3891L11.255 10.5263C11.5938 9.95248 11.7322 9.28228 11.6484 8.62117C11.5646 7.96007 11.2634 7.34558 10.7922 6.87437C10.321 6.40316 9.7065 6.10197 9.0454 6.01818C8.38429 5.93439 7.71409 6.07201 7.14023 6.41077Z" fill="white"/>
<path d="M10.5099 14.0307L8.47875 11.9988C7.74839 11.9531 7.05984 11.6424 6.54231 11.125C6.02479 10.6076 5.71388 9.91912 5.66793 9.18878L2.90894 6.42979C2.27437 7.18546 1.79524 8.05898 1.49902 9.00024C2.45599 12.0477 5.30362 14.2583 8.66653 14.2583C9.30276 14.2583 9.92021 14.1794 10.5099 14.0307Z" fill="white"/>
</svg>
