<svg width="113" height="134" viewBox="0 0 113 134" fill="none" xmlns="http://www.w3.org/2000/svg">
<path d="M52.9701 0.827666C54.9785 -0.27589 57.453 -0.275888 59.4614 0.827668L97.9427 21.9721C99.9511 23.0756 101.188 25.1151 101.188 27.3222V69.611C101.188 71.8182 99.9511 73.8576 97.9427 74.9612L59.4613 96.1056C57.453 97.2091 54.9785 97.2091 52.9701 96.1056L14.4888 74.9612C12.4804 73.8576 11.2432 71.8181 11.2432 69.611V27.3222C11.2432 25.1151 12.4804 23.0756 14.4888 21.9721L52.9701 0.827666Z" fill="#FBB939"/>
<path d="M52.9701 13.1833C54.9785 12.0797 57.4529 12.0797 59.4613 13.1833L109.186 40.5055C111.194 41.609 112.431 43.6485 112.431 45.8556V100.5C112.431 102.707 111.194 104.747 109.186 105.85L59.4613 133.172C57.4529 134.276 54.9785 134.276 52.9701 133.172L3.24561 105.85C1.23722 104.747 0 102.707 0 100.5V45.8556C0 43.6485 1.23722 41.609 3.24562 40.5055L52.9701 13.1833Z" fill="#1F212F"/>
<path d="M52.9701 19.361C54.9785 18.2574 57.453 18.2574 59.4614 19.361L97.9427 40.5054C99.9511 41.609 101.188 43.6484 101.188 45.8555V88.1444C101.188 90.3515 99.9511 92.3909 97.9427 93.4945L59.4614 114.639C57.453 115.742 54.9785 115.742 52.9701 114.639L14.4888 93.4945C12.4804 92.3909 11.2432 90.3515 11.2432 88.1444V45.8555C11.2432 43.6484 12.4804 41.609 14.4888 40.5054L52.9701 19.361Z" fill="#FBB939"/>
<path fill-rule="evenodd" clip-rule="evenodd" d="M59.4614 19.361C57.453 18.2574 54.9785 18.2574 52.9701 19.361L14.4888 40.5054C12.4804 41.609 11.2432 43.6484 11.2432 45.8555V86.5768C22.7543 75.626 38.6539 68.8533 56.2157 68.8533C73.7775 68.8533 89.6772 75.6261 101.188 86.5769V45.8555C101.188 43.6484 99.9511 41.609 97.9427 40.5054L59.4614 19.361Z" fill="#EC9D04"/>
<path d="M52.9581 19.3765C54.9726 18.2641 57.4589 18.2641 59.4734 19.3765L106.281 45.2233C107.147 45.7013 107.68 46.5818 107.68 47.5343C107.68 49.5935 105.335 50.8786 103.463 49.8452L59.4734 25.5543C57.4589 24.4419 54.9726 24.4419 52.9581 25.5543L8.96812 49.8452C7.09658 50.8786 4.75195 49.5935 4.75195 47.5343C4.75195 46.5818 5.28475 45.7013 6.15041 45.2233L52.9581 19.3765Z" fill="#1F202F" fill-opacity="0.3"/>
<path fill-rule="evenodd" clip-rule="evenodd" d="M59.4613 7.0054C57.4529 5.90185 54.9785 5.90184 52.9701 7.0054L3.24562 34.3276C1.23722 35.4312 0 37.4706 0 39.6777V94.3221C0 96.5293 1.23722 98.5687 3.24561 99.6723L52.9701 126.994C54.9785 128.098 57.4529 128.098 59.4613 126.994L109.186 99.6723C111.194 98.5687 112.431 96.5293 112.431 94.3222V39.6777C112.431 37.4706 111.194 35.4312 109.186 34.3276L59.4613 7.0054ZM59.4613 19.361C57.4529 18.2574 54.9785 18.2574 52.9701 19.361L14.4888 40.5054C12.4804 41.609 11.2431 43.6484 11.2431 45.8555V88.1444C11.2431 90.3515 12.4804 92.3909 14.4888 93.4945L52.9701 114.639C54.9785 115.742 57.4529 115.742 59.4613 114.639L97.9427 93.4945C99.9511 92.3909 101.188 90.3515 101.188 88.1444V45.8555C101.188 43.6484 99.9511 41.609 97.9427 40.5054L59.4613 19.361Z" fill="#5D6081"/>
<path fill-rule="evenodd" clip-rule="evenodd" d="M52.9701 7.0054C54.9785 5.90184 57.4529 5.90185 59.4613 7.0054L109.186 34.3276C111.194 35.4312 112.431 37.4706 112.431 39.6777V48.4666H101.188V45.8555C101.188 43.6484 99.9511 41.609 97.9427 40.5054L59.4613 19.361C57.4529 18.2574 54.9785 18.2574 52.9701 19.361L14.4888 40.5054C12.4804 41.609 11.2431 43.6484 11.2431 45.8555V48.4666H0V39.6777C0 37.4706 1.23722 35.4312 3.24562 34.3276L52.9701 7.0054Z" fill="#7275A0"/>
<path fill-rule="evenodd" clip-rule="evenodd" d="M78.4564 83.9945C77.8965 84.4207 77.8259 84.4974 77.8259 84.4974C77.8259 84.4974 78.8104 85.9686 81.3094 85.5542C82.7881 85.3098 85.0021 83.6929 85.0021 83.6929C85.0021 83.6929 81.339 81.7427 78.4564 83.9945Z" fill="#AF7811"/>
<path fill-rule="evenodd" clip-rule="evenodd" d="M78.9058 82.1527C79.056 82.7961 79.0756 82.8943 79.0756 82.8943C79.0756 82.8943 80.7913 82.2513 81.528 79.6856C81.9525 78.2071 81.4982 75.6233 81.4982 75.6233C81.4982 75.6233 78.1352 78.8372 78.9058 82.1527Z" fill="#AF7811"/>
<path fill-rule="evenodd" clip-rule="evenodd" d="M83.2918 80.6857C82.8437 81.2315 82.8184 81.3191 82.8184 81.3191C82.8184 81.3191 84.1654 82.3585 86.5638 81.2651C87.9591 80.6263 89.7516 78.4431 89.7516 78.4431C89.7516 78.4431 85.5378 77.7703 83.2918 80.6857Z" fill="#AF7811"/>
<path fill-rule="evenodd" clip-rule="evenodd" d="M83.5919 79.4436C83.5919 79.4436 85.1544 78.3418 85.184 75.7381C85.1817 74.2454 84.0528 72.005 84.0528 72.005C84.0528 72.005 81.6204 75.9669 83.2377 78.8422C83.5597 79.3889 83.5919 79.4436 83.5919 79.4436Z" fill="#AF7811"/>
<path fill-rule="evenodd" clip-rule="evenodd" d="M87.1906 76.1965C86.9117 76.8288 86.8865 76.916 86.8865 76.916C86.8865 76.916 88.5018 77.5052 90.5467 75.7687C91.7545 74.7595 92.9151 72.2416 92.9151 72.2416C92.9151 72.2416 88.603 72.8056 87.1906 76.1965Z" fill="#AF7811"/>
<path fill-rule="evenodd" clip-rule="evenodd" d="M87.1481 74.9132C87.1481 74.9132 88.4014 73.4036 87.7019 70.9871C87.3351 69.5877 85.5634 67.8851 85.5634 67.8851C85.5634 67.8851 84.1924 72.3083 86.6073 74.4515C87.0708 74.8473 87.1032 74.902 87.1481 74.9132Z" fill="#AF7811"/>
<path fill-rule="evenodd" clip-rule="evenodd" d="M89.778 70.8087C89.6797 71.484 89.6547 71.571 89.6547 71.571C89.6547 71.571 91.4117 71.6363 92.9638 69.4109C93.8572 68.1409 94.3524 65.4186 94.3524 65.4186C94.3524 65.4186 90.2748 67.247 89.778 70.8087Z" fill="#AF7811"/>
<path fill-rule="evenodd" clip-rule="evenodd" d="M88.8482 66.0719C88.1465 64.8204 86.0369 63.5931 86.0369 63.5931C86.0369 63.5931 85.5551 68.1088 88.4635 69.5816C89.0116 69.8585 89.0892 69.9246 89.0892 69.9246C89.0892 69.9246 90.0243 68.1907 88.8482 66.0719Z" fill="#AF7811"/>
<path fill-rule="evenodd" clip-rule="evenodd" d="M90.9689 65.8132C90.9689 65.8132 92.7372 65.323 93.6974 62.8129C94.2561 61.3677 94.0052 58.7412 94.0052 58.7412C94.0052 58.7412 90.4479 61.6276 90.8562 65.0392C90.9493 65.7151 90.9689 65.8132 90.9689 65.8132Z" fill="#AF7811"/>
<path fill-rule="evenodd" clip-rule="evenodd" d="M89.3916 64.5678C89.9923 64.6703 90.0828 64.6928 90.0828 64.6928C90.0828 64.6928 90.6141 62.8508 88.9329 61.1163C87.9592 60.1219 85.5167 59.5139 85.5167 59.5139C85.5167 59.5139 86.1295 63.9438 89.3916 64.5678Z" fill="#AF7811"/>
<path fill-rule="evenodd" clip-rule="evenodd" d="M90.6644 60.0637C90.6644 60.0637 92.29 59.0715 92.5555 56.4806C92.6997 54.9783 91.7556 52.598 91.7556 52.598C91.7556 52.598 88.9605 56.328 90.3354 59.3754C90.6 59.9544 90.6644 60.0637 90.6644 60.0637Z" fill="#AF7811"/>
<path fill-rule="evenodd" clip-rule="evenodd" d="M83.9873 55.5533C83.9873 55.5533 85.433 59.6387 88.8583 59.5494C89.4981 59.5202 89.5887 59.5428 89.5887 59.5428C89.5887 59.5428 89.7458 57.6487 87.7409 56.3474C86.5409 55.6239 83.9873 55.5533 83.9873 55.5533Z" fill="#AF7811"/>
<path fill-rule="evenodd" clip-rule="evenodd" d="M88.2948 54.2547C88.6877 54.7261 88.7648 54.792 88.7648 54.792C88.7648 54.792 90.1254 53.4043 89.6889 50.9149C89.4374 49.452 87.866 47.5665 87.866 47.5665C87.866 47.5665 86.1064 51.842 88.2948 54.2547Z" fill="#AF7811"/>
<path fill-rule="evenodd" clip-rule="evenodd" d="M87.7633 54.9386C87.7633 54.9386 87.7718 53.0531 85.6575 51.9596C84.4318 51.3237 81.8012 51.5172 81.8012 51.5172C81.8012 51.5172 83.5954 55.4094 87.0073 55.0332C87.6727 54.916 87.718 54.9273 87.7633 54.9386Z" fill="#AF7811"/>
<path fill-rule="evenodd" clip-rule="evenodd" d="M85.3194 50.94C85.9071 51.0862 85.9975 51.1087 85.9975 51.1087C85.9975 51.1087 86.6316 49.2468 85.0091 47.4809C84.0938 46.4547 81.6905 45.7157 81.6905 45.7157C81.6905 45.7157 82.1096 50.1412 85.3194 50.94Z" fill="#AF7811"/>
<path fill-rule="evenodd" clip-rule="evenodd" d="M33.3207 83.9945C33.8805 84.4207 33.9512 84.4974 33.9512 84.4974C33.9512 84.4974 32.9667 85.9686 30.4677 85.5542C28.989 85.3098 26.7749 83.6929 26.7749 83.6929C26.7749 83.6929 30.4381 81.7427 33.3207 83.9945Z" fill="#AF7811"/>
<path fill-rule="evenodd" clip-rule="evenodd" d="M32.8713 82.1527C32.7211 82.7961 32.7014 82.8943 32.7014 82.8943C32.7014 82.8943 30.9857 82.2513 30.2491 79.6856C29.8246 78.2071 30.2789 75.6233 30.2789 75.6233C30.2789 75.6233 33.6419 78.8372 32.8713 82.1527Z" fill="#AF7811"/>
<path fill-rule="evenodd" clip-rule="evenodd" d="M28.4853 80.6857C28.9334 81.2315 28.9587 81.3191 28.9587 81.3191C28.9587 81.3191 27.6117 82.3585 25.2133 81.2651C23.818 80.6263 22.0255 78.4431 22.0255 78.4431C22.0255 78.4431 26.2393 77.7703 28.4853 80.6857Z" fill="#AF7811"/>
<path fill-rule="evenodd" clip-rule="evenodd" d="M28.1851 79.4436C28.1851 79.4436 26.6227 78.3418 26.5931 75.7381C26.5954 74.2454 27.7243 72.005 27.7243 72.005C27.7243 72.005 30.1566 75.9669 28.5393 78.8422C28.2173 79.3889 28.1851 79.4436 28.1851 79.4436Z" fill="#AF7811"/>
<path fill-rule="evenodd" clip-rule="evenodd" d="M24.5865 76.1965C24.8654 76.8288 24.8906 76.916 24.8906 76.916C24.8906 76.916 23.2753 77.5052 21.2304 75.7687C20.0226 74.7595 18.862 72.2416 18.862 72.2416C18.862 72.2416 23.1741 72.8056 24.5865 76.1965Z" fill="#AF7811"/>
<path fill-rule="evenodd" clip-rule="evenodd" d="M24.6289 74.9132C24.6289 74.9132 23.3756 73.4036 24.0751 70.9871C24.442 69.5877 26.2136 67.8851 26.2136 67.8851C26.2136 67.8851 27.5846 72.3083 25.1698 74.4515C24.7062 74.8473 24.6739 74.902 24.6289 74.9132Z" fill="#AF7811"/>
<path fill-rule="evenodd" clip-rule="evenodd" d="M21.9991 70.8087C22.0974 71.484 22.1224 71.571 22.1224 71.571C22.1224 71.571 20.3654 71.6363 18.8133 69.4109C17.9199 68.1409 17.4246 65.4186 17.4246 65.4186C17.4246 65.4186 21.5022 67.247 21.9991 70.8087Z" fill="#AF7811"/>
<path fill-rule="evenodd" clip-rule="evenodd" d="M22.9288 66.0719C23.6305 64.8204 25.7402 63.5931 25.7402 63.5931C25.7402 63.5931 26.2219 68.1088 23.3135 69.5816C22.7654 69.8585 22.6879 69.9246 22.6879 69.9246C22.6879 69.9246 21.7527 68.1907 22.9288 66.0719Z" fill="#AF7811"/>
<path fill-rule="evenodd" clip-rule="evenodd" d="M20.8081 65.8132C20.8081 65.8132 19.0398 65.323 18.0796 62.8129C17.521 61.3677 17.7718 58.7412 17.7718 58.7412C17.7718 58.7412 21.3292 61.6276 20.9209 65.0392C20.8278 65.7151 20.8081 65.8132 20.8081 65.8132Z" fill="#AF7811"/>
<path fill-rule="evenodd" clip-rule="evenodd" d="M22.3854 64.5678C21.7847 64.6703 21.6943 64.6928 21.6943 64.6928C21.6943 64.6928 21.163 62.8508 22.8442 61.1163C23.8178 60.1219 26.2604 59.5139 26.2604 59.5139C26.2604 59.5139 25.6475 63.9438 22.3854 64.5678Z" fill="#AF7811"/>
<path fill-rule="evenodd" clip-rule="evenodd" d="M21.1127 60.0637C21.1127 60.0637 19.487 59.0715 19.2216 56.4806C19.0773 54.9783 20.0214 52.598 20.0214 52.598C20.0214 52.598 22.8166 56.328 21.4416 59.3754C21.177 59.9544 21.1127 60.0637 21.1127 60.0637Z" fill="#AF7811"/>
<path fill-rule="evenodd" clip-rule="evenodd" d="M27.7898 55.5533C27.7898 55.5533 26.3441 59.6387 22.9188 59.5494C22.279 59.5202 22.1884 59.5428 22.1884 59.5428C22.1884 59.5428 22.0313 57.6487 24.0362 56.3474C25.2362 55.6239 27.7898 55.5533 27.7898 55.5533Z" fill="#AF7811"/>
<path fill-rule="evenodd" clip-rule="evenodd" d="M23.4823 54.2547C23.0894 54.7261 23.0123 54.792 23.0123 54.792C23.0123 54.792 21.6517 53.4043 22.0882 50.915C22.3397 49.452 23.9111 47.5665 23.9111 47.5665C23.9111 47.5665 25.6707 51.842 23.4823 54.2547Z" fill="#AF7811"/>
<path fill-rule="evenodd" clip-rule="evenodd" d="M24.0137 54.9386C24.0137 54.9386 24.0053 53.0531 26.1195 51.9596C27.3453 51.3237 29.9759 51.5172 29.9759 51.5172C29.9759 51.5172 28.1816 55.4094 24.7697 55.0332C24.1044 54.916 24.0591 54.9273 24.0137 54.9386Z" fill="#AF7811"/>
<path fill-rule="evenodd" clip-rule="evenodd" d="M26.4577 50.94C25.87 51.0862 25.7795 51.1087 25.7795 51.1087C25.7795 51.1087 25.1454 49.2468 26.7679 47.4809C27.6832 46.4547 30.0866 45.7157 30.0866 45.7157C30.0866 45.7157 29.6675 50.1412 26.4577 50.94Z" fill="#AF7811"/>
<path d="M43.2409 72.6861H54.3337V85.2378C54.3337 86.3153 54.972 86.854 56.2487 86.854C57.5013 86.854 58.1276 86.3153 58.1276 85.2378V70.5885C57.3086 71.4138 55.779 71.8264 53.5387 71.8264C50.5036 71.8264 48.0225 71.1387 46.0954 69.7631C44.1924 68.3647 43.2409 66.4275 43.2409 63.9516V52.4659C43.2409 49.6003 44.4333 47.3994 46.818 45.8634C49.2028 44.3045 52.3223 43.525 56.1764 43.525C60.0788 43.525 63.2223 44.293 65.6071 45.829C68.016 47.365 69.2204 49.5544 69.2204 52.3972V84.1718C69.2204 90.545 64.8483 93.7317 56.1042 93.7317C47.5286 93.7317 43.2409 90.568 43.2409 84.2405V72.6861ZM58.1276 63.6765V51.8469C58.1276 50.7695 57.5013 50.2307 56.2487 50.2307C54.972 50.2307 54.3337 50.7695 54.3337 51.8469V63.6765C54.3337 64.7539 54.972 65.2927 56.2487 65.2927C57.5013 65.2927 58.1276 64.7539 58.1276 63.6765Z" fill="#282936"/>
<path d="M34.4035 96.0356L55.2187 106.976C55.8012 107.282 56.4971 107.282 57.0796 106.976L77.8948 96.0356V106.256C77.8948 106.999 77.4829 107.681 76.8252 108.027L57.0796 118.404C56.4971 118.711 55.8012 118.711 55.2187 118.404L35.473 108.027C34.8154 107.681 34.4035 106.999 34.4035 106.256V96.0356Z" fill="#5D6081"/>
<path d="M26.9386 100.36L55.2143 115.31C55.7992 115.62 56.4991 115.62 57.084 115.31L85.3597 100.36V114.6C85.3597 115.341 84.9498 116.021 84.2945 116.368L57.084 130.755C56.4991 131.064 55.7992 131.064 55.2143 130.755L28.0038 116.368C27.3485 116.021 26.9386 115.341 26.9386 114.6V100.36Z" fill="#3A3D53"/>
<path d="M57.2446 109.482L59.18 113.335C59.2642 113.566 59.5166 113.72 59.769 113.798L64.1447 114.414C64.9021 114.414 65.1545 115.185 64.6496 115.647L61.452 118.653C61.2837 118.807 61.1996 119.115 61.1996 119.347L61.9569 123.508C62.041 124.125 61.3679 124.664 60.7788 124.356L56.8239 122.352C56.5714 122.198 56.319 122.198 56.0665 122.352L52.1116 124.356C51.5226 124.664 50.7652 124.202 50.9335 123.508L51.6909 119.347C51.775 119.115 51.6067 118.807 51.4384 118.653L48.2408 115.647C47.8201 115.185 48.0725 114.414 48.7457 114.337L53.1214 113.72C53.3738 113.72 53.6263 113.489 53.7104 113.258L55.6458 109.405C56.0665 108.865 56.908 108.865 57.2446 109.482Z" fill="#FBB939"/>
<path fill-rule="evenodd" clip-rule="evenodd" d="M58.9876 108.655L60.6953 112.055L64.3257 112.566C65.4062 112.63 66.3362 113.26 66.703 114.23C67.0677 115.195 66.7822 116.258 66.0116 116.972L63.2211 119.595L63.8828 123.231L63.8881 123.27C64.027 124.288 63.5412 125.199 62.825 125.735C62.083 126.291 60.9356 126.546 59.8551 125.988L56.4452 124.26L53.0348 125.988C51.1514 126.959 48.4941 125.535 49.022 123.152L49.6693 119.595L46.8183 116.915L46.7687 116.86C45.4611 115.423 46.0929 112.797 48.481 112.501L52.1952 111.977L53.97 108.444L54.0821 108.3C55.2227 106.837 57.8694 106.606 58.9727 108.627L58.9876 108.655ZM48.7457 114.337C48.0725 114.414 47.8201 115.185 48.2408 115.647L51.4384 118.653C51.6067 118.807 51.775 119.115 51.6909 119.347L50.9335 123.508C50.7652 124.202 51.5226 124.664 52.1116 124.356L56.0666 122.352C56.319 122.198 56.5714 122.198 56.8239 122.352L60.7788 124.356C61.3679 124.664 62.0411 124.125 61.9569 123.508L61.1996 119.347C61.1996 119.115 61.2837 118.807 61.452 118.653L64.6496 115.647C65.1545 115.185 64.9021 114.414 64.1448 114.414L59.7691 113.798C59.5166 113.72 59.2642 113.566 59.18 113.335L57.2446 109.482C56.908 108.865 56.0666 108.865 55.6458 109.405L53.7104 113.258C53.6263 113.489 53.3738 113.72 53.1214 113.72L48.7457 114.337Z" fill="#3A3C53"/>
<path d="M38.0873 111.051L38.8615 112.593C38.8951 112.685 38.9961 112.747 39.0971 112.778L40.8474 113.024C41.1503 113.024 41.2513 113.333 41.0493 113.518L39.7703 114.72C39.7029 114.782 39.6693 114.905 39.6693 114.997L39.9722 116.662C40.0059 116.909 39.7366 117.124 39.501 117.001L37.919 116.2C37.818 116.138 37.7171 116.138 37.6161 116.2L36.0341 117.001C35.7985 117.124 35.4956 116.94 35.5629 116.662L35.8658 114.997C35.8995 114.905 35.8321 114.782 35.7648 114.72L34.4858 113.518C34.3175 113.333 34.4185 113.024 34.6877 112.993L36.438 112.747C36.539 112.747 36.64 112.654 36.6736 112.562L37.4478 111.02C37.6161 110.805 37.9527 110.805 38.0873 111.051Z" fill="#FBB939"/>
<path d="M74.4382 111.051L75.2124 112.593C75.246 112.685 75.347 112.747 75.448 112.778L77.1983 113.024C77.5012 113.024 77.6022 113.333 77.4002 113.518L76.1212 114.72C76.0538 114.782 76.0202 114.905 76.0202 114.997L76.3231 116.662C76.3568 116.909 76.0875 117.124 75.8519 117.001L74.2699 116.2C74.1689 116.138 74.068 116.138 73.967 116.2L72.385 117.001C72.1494 117.124 71.8464 116.94 71.9138 116.662L72.2167 114.997C72.2504 114.905 72.183 114.782 72.1157 114.72L70.8367 113.518C70.6684 113.333 70.7694 113.024 71.0386 112.993L72.7889 112.747C72.8899 112.747 72.9909 112.654 73.0245 112.562L73.7987 111.02C73.967 110.805 74.3036 110.805 74.4382 111.051Z" fill="#FBB939"/>
<path d="M56.7471 8.8961L57.7595 10.9118C57.8035 11.0327 57.9355 11.1134 58.0676 11.1537L60.3564 11.4762C60.7526 11.4762 60.8846 11.8793 60.6205 12.1212L58.9479 13.6934C58.8599 13.7741 58.8159 13.9353 58.8159 14.0563L59.212 16.2332C59.256 16.5557 58.9039 16.8379 58.5958 16.6767L56.527 15.6285C56.395 15.5479 56.2629 15.5479 56.1309 15.6285L54.0622 16.6767C53.7541 16.8379 53.3579 16.596 53.4459 16.2332L53.8421 14.0563C53.8861 13.9353 53.7981 13.7741 53.71 13.6934L52.0374 12.1212C51.8174 11.8793 51.9494 11.4762 52.3015 11.4359L54.5904 11.1134C54.7224 11.1134 54.8544 10.9924 54.8985 10.8715L55.9108 8.85579C56.1309 8.57359 56.5711 8.57359 56.7471 8.8961Z" fill="#FBB939"/>
<path d="M107.379 63.2607L108.391 65.2764C108.435 65.3974 108.567 65.478 108.699 65.5183L110.988 65.8408C111.384 65.8408 111.516 66.2439 111.252 66.4858L109.58 68.0581C109.492 68.1387 109.447 68.2999 109.447 68.4209L109.844 70.5978C109.888 70.9203 109.536 71.2025 109.227 71.0413L107.159 69.9931C107.027 69.9125 106.895 69.9125 106.763 69.9931L104.694 71.0413C104.386 71.2025 103.99 70.9607 104.078 70.5978L104.474 68.4209C104.518 68.2999 104.43 68.1387 104.342 68.0581L102.669 66.4858C102.449 66.2439 102.581 65.8408 102.933 65.8005L105.222 65.478C105.354 65.478 105.486 65.357 105.53 65.2361L106.542 63.2204C106.763 62.9382 107.203 62.9382 107.379 63.2607Z" fill="#FBB939"/>
<path d="M5.46639 63.2607L6.47876 65.2764C6.52277 65.3974 6.65482 65.478 6.78687 65.5183L9.07569 65.8408C9.47183 65.8408 9.60388 66.2439 9.33979 66.4858L7.66718 68.0581C7.57915 68.1387 7.53514 68.2999 7.53514 68.4209L7.93128 70.5978C7.9753 70.9203 7.62317 71.2025 7.31506 71.0413L5.24632 69.9931C5.11427 69.9125 4.98222 69.9125 4.85017 69.9931L2.78143 71.0413C2.47332 71.2025 2.07718 70.9607 2.16521 70.5978L2.56135 68.4209C2.60537 68.2999 2.51734 68.1387 2.4293 68.0581L0.756703 66.4858C0.536624 66.2439 0.668671 65.8408 1.0208 65.8005L3.30962 65.478C3.44167 65.478 3.57371 65.357 3.61773 65.2361L4.63009 63.2204C4.85017 62.9382 5.29033 62.9382 5.46639 63.2607Z" fill="#FBB939"/>
<path d="M67.5786 14.3791L68.2754 15.7664C68.3056 15.8496 68.3965 15.9051 68.4874 15.9328L70.0627 16.1548C70.3353 16.1548 70.4262 16.4323 70.2444 16.5987L69.0933 17.6808C69.0327 17.7363 69.0024 17.8473 69.0024 17.9305L69.275 19.4288C69.3053 19.6507 69.063 19.8449 68.8509 19.734L67.4271 19.0126C67.3363 18.9571 67.2454 18.9571 67.1545 19.0126L65.7307 19.734C65.5187 19.8449 65.246 19.6785 65.3066 19.4288L65.5793 17.9305C65.6095 17.8473 65.549 17.7363 65.4884 17.6808L64.3372 16.5987C64.1858 16.4323 64.2766 16.1548 64.519 16.1271L66.0942 15.9051C66.1851 15.9051 66.276 15.8219 66.3063 15.7386L67.003 14.3514C67.1545 14.1571 67.4574 14.1571 67.5786 14.3791Z" fill="#FBB939"/>
<path d="M46.1575 14.3791L46.8543 15.7664C46.8846 15.8496 46.9754 15.9051 47.0663 15.9328L48.6416 16.1548C48.9142 16.1548 49.0051 16.4323 48.8233 16.5987L47.6722 17.6808C47.6116 17.7363 47.5813 17.8473 47.5813 17.9305L47.854 19.4288C47.8842 19.6507 47.6419 19.8449 47.4298 19.734L46.0061 19.0126C45.9152 18.9571 45.8243 18.9571 45.7334 19.0126L44.3096 19.734C44.0976 19.8449 43.8249 19.6785 43.8855 19.4288L44.1582 17.9305C44.1885 17.8473 44.1279 17.7363 44.0673 17.6808L42.9162 16.5987C42.7647 16.4323 42.8556 16.1548 43.0979 16.1271L44.6732 15.9051C44.764 15.9051 44.8549 15.8219 44.8852 15.7386L45.582 14.3514C45.7334 14.1571 46.0364 14.1571 46.1575 14.3791Z" fill="#FBB939"/>
</svg>
