<svg width="375" height="230" viewBox="0 0 375 230" fill="none" xmlns="http://www.w3.org/2000/svg">
<rect width="375" height="230" rx="5" fill="#282936"/>
<path d="M347.805 12.8727C347.805 12.1057 347.945 11.3388 348.224 10.6415C348.363 10.2929 348.712 10.1534 349.06 10.2929C349.409 10.4323 349.548 10.781 349.409 11.1296C348.921 12.3149 348.991 13.7094 349.548 14.8947C350.106 16.1498 351.222 17.1957 352.547 17.6837C353.523 18.0324 354.638 17.9626 355.615 17.5443C356.591 17.0562 357.288 16.2892 357.637 15.3131C358.194 13.7094 357.358 11.9663 355.754 11.4085C355.196 11.1993 354.569 11.1993 354.011 11.4782C353.453 11.7571 353.035 12.2452 352.826 12.803C352.477 13.7094 352.965 14.6856 353.871 15.0342C354.22 15.1736 354.499 15.1039 354.848 14.9645C355.126 14.825 355.405 14.5461 355.475 14.2672C355.615 13.8489 355.963 13.7094 356.312 13.8489C356.66 13.9883 356.8 14.3369 356.73 14.6856C356.242 16.0103 354.778 16.7076 353.523 16.2195C351.989 15.6617 351.152 13.9186 351.71 12.3846C352.059 11.4782 352.686 10.781 353.523 10.3626C354.359 9.94426 355.336 9.87453 356.242 10.2232C358.473 11.0599 359.659 13.5002 358.892 15.7314C358.404 17.0562 357.427 18.1021 356.172 18.7296C354.917 19.3571 353.453 19.4269 352.128 18.9388C350.455 18.381 349.13 17.1259 348.363 15.5223C348.015 14.6158 347.805 13.7094 347.805 12.8727Z" fill="#2E2F3F"/>
<path d="M356.172 21.4488C356.172 19.2874 357.497 17.2653 359.659 16.4984C361.89 15.6617 364.4 16.847 365.167 19.1479C365.864 21.0305 364.888 23.0525 363.005 23.7498C362.238 24.0287 361.402 23.959 360.704 23.6103C360.007 23.2617 359.449 22.6342 359.17 21.9369C358.682 20.6121 359.38 19.1479 360.704 18.7296C361.053 18.5901 361.402 18.7993 361.541 19.1479C361.681 19.4965 361.471 19.8452 361.123 19.9846C360.495 20.1938 360.147 20.9608 360.356 21.5883C360.495 22.0066 360.844 22.3553 361.262 22.5644C361.681 22.7736 362.169 22.7736 362.587 22.6342C363.772 22.2158 364.4 20.891 363.982 19.636C363.424 18.0323 361.681 17.1956 360.077 17.7534C357.985 18.5204 356.939 20.7516 357.637 22.8433C358.125 24.1681 359.101 25.2837 360.426 25.8415C361.681 26.3993 363.005 26.4691 364.191 25.981C364.539 25.8415 364.888 25.981 365.027 26.3296C365.167 26.6782 365.027 27.0269 364.679 27.1663C363.145 27.7938 361.471 27.7241 359.868 27.0269C358.264 26.3296 357.009 24.9351 356.451 23.2617C356.242 22.6342 356.172 22.0066 356.172 21.4488Z" fill="#2E2F3F"/>
<path d="M343.203 21.7278C343.203 20.2636 344.11 18.8691 345.574 18.3113C346.341 18.0324 347.178 18.1021 347.875 18.4507C348.572 18.7993 349.13 19.4269 349.409 20.1241C349.618 20.7516 349.618 21.4489 349.339 22.0764C349.06 22.7039 348.572 23.1223 347.875 23.4012C347.526 23.5406 347.178 23.3315 347.038 22.9828C346.899 22.6342 347.108 22.2856 347.457 22.1461C347.805 22.0067 348.014 21.7975 348.154 21.5186C348.293 21.2397 348.293 20.8911 348.224 20.5425C348.084 20.1241 347.736 19.7755 347.317 19.5663C346.969 19.4269 346.481 19.4269 346.062 19.5663C344.877 19.9847 344.249 21.3094 344.668 22.5645C345.225 24.1682 346.969 25.0049 348.572 24.4471C350.664 23.6801 351.71 21.4489 351.013 19.3571C350.315 17.4048 348.503 15.9406 346.481 15.8709C346.132 15.8709 345.853 15.5223 345.853 15.1736C345.853 14.825 346.202 14.5461 346.55 14.5461C349.06 14.6856 351.361 16.4287 352.268 18.8691C353.244 21.5883 351.78 24.5865 349.06 25.5627C346.829 26.3994 344.319 25.214 343.552 22.9131C343.273 22.5645 343.203 22.1461 343.203 21.7278Z" fill="#2E2F3F"/>
<path d="M349.479 27.7939C349.479 27.3058 349.548 26.8177 349.758 26.3297C350.734 23.6104 353.732 22.1461 356.451 23.1223C358.822 23.959 360.565 26.1902 360.774 28.7003C360.774 29.0489 360.565 29.3278 360.216 29.3976C359.868 29.3976 359.589 29.1884 359.519 28.8398C359.38 26.8875 357.985 25.0746 356.033 24.3774C353.941 23.6104 351.71 24.726 350.943 26.8177C350.385 28.4214 351.222 30.1645 352.826 30.7223C353.383 30.9315 354.011 30.9315 354.569 30.6526C355.126 30.3737 355.545 29.8856 355.754 29.3278C356.103 28.4214 355.615 27.4453 354.708 27.0966C354.081 26.8875 353.314 27.2361 353.104 27.8636C352.965 28.2122 352.616 28.3517 352.268 28.282C351.919 28.1425 351.78 27.7939 351.849 27.4453C352.337 26.1205 353.802 25.4232 355.057 25.9113C356.591 26.4691 357.427 28.2122 356.87 29.7462C356.172 31.6288 354.15 32.6049 352.268 31.9077C350.594 31.2801 349.479 29.6067 349.479 27.7939Z" fill="#2E2F3F"/>
<path d="M346.341 15.8012L346.341 14.5461L307.086 14.5461L307.086 15.8012L346.341 15.8012Z" fill="#2E2F3F"/>
<path d="M331.28 15.1736C331.838 13.5002 339.647 11.3387 336.092 15.1736C339.647 19.0085 331.838 16.9168 331.28 15.1736Z" fill="#2E2F3F"/>
<path d="M341.181 15.1736C341.181 14.2672 340.414 13.5699 339.578 13.5699C338.671 13.5699 337.974 14.3369 337.974 15.1736C337.974 16.0103 338.741 16.7773 339.578 16.7773C340.414 16.847 341.181 16.08 341.181 15.1736Z" fill="#2E2F3F"/>
<path d="M312.524 17.3351C307.713 15.9406 300.392 15.1736 300.392 15.1736C300.392 15.1736 307.365 14.6158 312.524 13.0819C314.128 12.5938 314.128 17.7535 312.524 17.3351Z" fill="#2E2F3F"/>
<path d="M360.774 69.6986L360.774 28.77L359.519 28.77L359.519 69.6986L360.774 69.6986Z" fill="#2E2F3F"/>
<path d="M360.147 44.1793C361.82 43.6215 363.982 35.8123 360.147 39.3682C356.312 35.8123 358.404 43.6215 360.147 44.1793Z" fill="#2E2F3F"/>
<path d="M360.147 34.2783C361.053 34.2783 361.75 35.0453 361.75 35.882C361.75 36.7884 360.983 37.4857 360.147 37.4857C359.24 37.4857 358.543 36.7187 358.543 35.882C358.473 35.0453 359.24 34.2783 360.147 34.2783Z" fill="#2E2F3F"/>
<path d="M357.985 64.26C359.38 69.071 360.147 76.3922 360.147 76.3922C360.147 76.3922 360.704 69.4197 362.238 64.26C362.726 62.6563 357.567 62.6563 357.985 64.26Z" fill="#2E2F3F"/>
<path d="M363.772 59.2399L363.772 26.4691C363.772 26.1205 364.051 25.8416 364.4 25.8416C364.748 25.8416 365.027 26.1205 365.027 26.4691L365.027 59.2399C365.027 59.5885 364.748 59.8674 364.4 59.8674C364.051 59.9371 363.772 59.5885 363.772 59.2399Z" fill="#2E2F3F"/>
<path d="M315.453 10.8506C315.453 10.502 315.732 10.2231 316.08 10.2231L348.851 10.2231C349.2 10.2231 349.479 10.502 349.479 10.8506C349.479 11.1993 349.2 11.4782 348.851 11.4782L316.08 11.4782C315.732 11.5479 315.453 11.1993 315.453 10.8506Z" fill="#2E2F3F"/>
<path d="M27.5871 217.519C27.5871 218.286 27.4477 219.053 27.1688 219.751C27.0293 220.099 26.6807 220.239 26.3321 220.099C25.9834 219.96 25.844 219.611 25.9834 219.263C26.4715 218.077 26.4018 216.683 25.844 215.497C25.2862 214.242 24.1706 213.196 22.8458 212.708C21.8697 212.36 20.7541 212.43 19.7779 212.848C18.8018 213.336 18.1045 214.103 17.7559 215.079C17.1981 216.683 18.0348 218.426 19.6385 218.984C20.1963 219.193 20.8238 219.193 21.3816 218.914C21.9394 218.635 22.3577 218.147 22.5669 217.589C22.9155 216.683 22.4275 215.707 21.521 215.358C21.1724 215.219 20.8935 215.288 20.5449 215.428C20.266 215.567 19.9871 215.846 19.9174 216.125C19.7779 216.543 19.4293 216.683 19.0807 216.543C18.732 216.404 18.5926 216.055 18.6623 215.707C19.1504 214.382 20.6146 213.685 21.8697 214.173C23.4036 214.73 24.2403 216.474 23.6825 218.008C23.3339 218.914 22.7064 219.611 21.8697 220.03C21.033 220.448 20.0568 220.518 19.1504 220.169C16.9192 219.332 15.7339 216.892 16.5008 214.661C16.9889 213.336 17.9651 212.29 19.2201 211.663C20.4752 211.035 21.9394 210.965 23.2642 211.453C24.9376 212.011 26.2623 213.266 27.0293 214.87C27.3779 215.776 27.5871 216.683 27.5871 217.519Z" fill="#2E2F3F"/>
<path d="M19.2199 208.943C19.2199 211.105 17.8951 213.127 15.7337 213.894C13.5025 214.73 10.9924 213.545 10.2254 211.244C9.52813 209.362 10.5043 207.34 12.3869 206.642C13.1538 206.363 13.9905 206.433 14.6878 206.782C15.385 207.13 15.9428 207.758 16.2217 208.455C16.7098 209.78 16.0126 211.244 14.6878 211.663C14.3392 211.802 13.9905 211.593 13.8511 211.244C13.7116 210.896 13.9208 210.547 14.2694 210.408C14.897 210.198 15.2456 209.431 15.0364 208.804C14.897 208.386 14.5483 208.037 14.13 207.828C13.7116 207.619 13.2236 207.619 12.8052 207.758C11.6199 208.176 10.9924 209.501 11.4107 210.756C11.9685 212.36 13.7116 213.197 15.3153 212.639C17.4071 211.872 18.4529 209.641 17.7557 207.549C17.2676 206.224 16.2915 205.108 14.9667 204.551C13.7116 203.993 12.3869 203.923 11.2015 204.411C10.8529 204.551 10.5043 204.411 10.3648 204.063C10.2254 203.714 10.3648 203.365 10.7135 203.226C12.2474 202.598 13.9208 202.668 15.5245 203.365C17.1282 204.063 18.3832 205.457 18.941 207.13C19.1502 207.758 19.2199 208.386 19.2199 208.943Z" fill="#2E2F3F"/>
<path d="M32.1888 208.664C32.1888 210.129 31.2823 211.523 29.8181 212.081C29.0511 212.36 28.2144 212.29 27.5172 211.941C26.8199 211.593 26.2621 210.965 25.9832 210.268C25.7741 209.641 25.7741 208.943 26.053 208.316C26.3319 207.688 26.8199 207.27 27.5172 206.991C27.8658 206.852 28.2144 207.061 28.3539 207.409C28.4933 207.758 28.2842 208.107 27.9355 208.246C27.5869 208.385 27.3777 208.595 27.2383 208.874C27.0988 209.152 27.0988 209.501 27.1686 209.85C27.308 210.268 27.6566 210.617 28.075 210.826C28.4236 210.965 28.9117 210.965 29.33 210.826C30.5154 210.407 31.1429 209.083 30.7245 207.828C30.1667 206.224 28.4236 205.387 26.8199 205.945C24.7282 206.712 23.6823 208.943 24.3796 211.035C25.0768 212.987 26.8897 214.452 28.9117 214.521C29.2603 214.521 29.5392 214.87 29.5392 215.219C29.5392 215.567 29.1906 215.846 28.842 215.846C26.3319 215.707 24.0309 213.963 23.1245 211.523C22.1484 208.804 23.6126 205.806 26.3319 204.829C28.5631 203.993 31.0732 205.178 31.8401 207.479C32.119 207.828 32.1888 208.246 32.1888 208.664Z" fill="#2E2F3F"/>
<path d="M25.9135 202.598C25.9135 203.086 25.8438 203.574 25.6346 204.062C24.6585 206.782 21.6603 208.246 18.941 207.27C16.5703 206.433 14.8272 204.202 14.618 201.692C14.618 201.343 14.8272 201.064 15.1758 200.995C15.5245 200.995 15.8034 201.204 15.8731 201.552C16.0125 203.505 17.407 205.318 19.3593 206.015C21.4511 206.782 23.6823 205.666 24.4493 203.574C25.0071 201.971 24.1704 200.228 22.5667 199.67C22.0089 199.461 21.3814 199.461 20.8236 199.74C20.2658 200.018 19.8474 200.507 19.6382 201.064C19.2896 201.971 19.7777 202.947 20.6841 203.296C21.3117 203.505 22.0786 203.156 22.2878 202.529C22.4273 202.18 22.7759 202.04 23.1245 202.11C23.4731 202.25 23.6126 202.598 23.5429 202.947C23.0548 204.272 21.5906 204.969 20.3355 204.481C18.8015 203.923 17.9648 202.18 18.5226 200.646C19.2199 198.763 21.2419 197.787 23.1245 198.484C24.7979 199.112 25.9135 200.785 25.9135 202.598Z" fill="#2E2F3F"/>
<path d="M29.051 214.591L29.051 215.846L68.3062 215.846L68.3062 214.591L29.051 214.591Z" fill="#2E2F3F"/>
<path d="M44.1118 215.219C43.554 216.892 35.7448 219.053 39.3008 215.219C35.7448 211.384 43.554 213.475 44.1118 215.219Z" fill="#2E2F3F"/>
<path d="M34.2108 215.219C34.2108 216.125 34.9778 216.822 35.8145 216.822C36.7209 216.822 37.4182 216.055 37.4182 215.219C37.4182 214.382 36.6512 213.615 35.8145 213.615C34.9778 213.545 34.2108 214.312 34.2108 215.219Z" fill="#2E2F3F"/>
<path d="M62.8679 213.057C67.6789 214.452 75.0001 215.219 75.0001 215.219C75.0001 215.219 68.0276 215.776 62.8679 217.31C61.2642 217.798 61.2642 212.639 62.8679 213.057Z" fill="#2E2F3F"/>
<path d="M14.618 160.694L14.618 201.622L15.8731 201.622L15.8731 160.694L14.618 160.694Z" fill="#2E2F3F"/>
<path d="M15.2457 186.213C13.5723 186.771 11.4108 194.58 15.2457 191.024C19.0806 194.58 16.9888 186.771 15.2457 186.213Z" fill="#2E2F3F"/>
<path d="M15.2456 196.114C14.3392 196.114 13.642 195.347 13.642 194.51C13.642 193.604 14.4089 192.906 15.2456 192.906C16.1521 192.906 16.8493 193.673 16.8493 194.51C16.919 195.347 16.1521 196.114 15.2456 196.114Z" fill="#2E2F3F"/>
<path d="M17.407 166.132C16.0125 161.321 15.2456 154 15.2456 154C15.2456 154 14.6878 160.972 13.1538 166.132C12.6657 167.736 17.8254 167.736 17.407 166.132Z" fill="#2E2F3F"/>
<path d="M11.62 171.152L11.62 203.923C11.62 204.272 11.3411 204.551 10.9925 204.551C10.6439 204.551 10.365 204.272 10.365 203.923L10.365 171.152C10.365 170.804 10.6439 170.525 10.9925 170.525C11.3411 170.455 11.62 170.804 11.62 171.152Z" fill="#2E2F3F"/>
<path d="M59.9393 219.542C59.9393 219.89 59.6604 220.169 59.3118 220.169L26.541 220.169C26.1924 220.169 25.9135 219.89 25.9135 219.542C25.9135 219.193 26.1924 218.914 26.541 218.914L59.3118 218.914C59.6604 218.844 59.9393 219.193 59.9393 219.542Z" fill="#2E2F3F"/>
<path d="M12.8728 28.283C12.1058 28.283 11.3388 28.1435 10.6416 27.8646C10.2929 27.7252 10.1535 27.3766 10.2929 27.0279C10.4324 26.6793 10.781 26.5399 11.1296 26.6793C12.315 27.1674 13.7095 27.0977 14.8948 26.5399C16.1498 25.9821 17.1957 24.8665 17.6838 23.5417C18.0324 22.5655 17.9627 21.4499 17.5444 20.4738C17.0563 19.4976 16.2893 18.8004 15.3131 18.4517C13.7095 17.8939 11.9663 18.7306 11.4085 20.3343C11.1994 20.8921 11.1994 21.5196 11.4783 22.0775C11.7572 22.6353 12.2452 23.0536 12.803 23.2628C13.7095 23.6114 14.6856 23.1233 15.0342 22.2169C15.1737 21.8683 15.104 21.5894 14.9645 21.2407C14.8251 20.9618 14.5462 20.6829 14.2673 20.6132C13.8489 20.4738 13.7095 20.1251 13.8489 19.7765C13.9884 19.4279 14.337 19.2884 14.6856 19.3582C16.0104 19.8462 16.7076 21.3105 16.2196 22.5655C15.6618 24.0995 13.9186 24.9362 12.3847 24.3784C11.4783 24.0298 10.781 23.4022 10.3627 22.5655C9.94432 21.7288 9.87459 20.7527 10.2232 19.8462C11.0599 17.615 13.5003 16.4297 15.7315 17.1967C17.0563 17.6848 18.1022 18.6609 18.7297 19.916C19.3572 21.171 19.4269 22.6353 18.9389 23.96C18.3811 25.6334 17.126 26.9582 15.5223 27.7252C14.6159 28.0738 13.7095 28.283 12.8728 28.283Z" fill="#2E2F3F"/>
<path d="M21.4489 19.916C19.2874 19.916 17.2654 18.5912 16.4984 16.4297C15.6617 14.1985 16.847 11.6884 19.148 10.9214C21.0305 10.2242 23.0526 11.2003 23.7498 13.0829C24.0287 13.8499 23.959 14.6866 23.6104 15.3838C23.2617 16.0811 22.6342 16.6389 21.937 16.9178C20.6122 17.4059 19.148 16.7086 18.7296 15.3838C18.5902 15.0352 18.7993 14.6866 19.148 14.5471C19.4966 14.4077 19.8452 14.6168 19.9847 14.9655C20.1938 15.593 20.9608 15.9416 21.5883 15.7325C22.0067 15.593 22.3553 15.2444 22.5645 14.826C22.7737 14.4077 22.7737 13.9196 22.6342 13.5012C22.2159 12.3159 20.8911 11.6884 19.636 12.1067C18.0324 12.6645 17.1957 14.4077 17.7535 16.0114C18.5204 18.1031 20.7516 19.149 22.8434 18.4517C24.1682 17.9637 25.2838 16.9875 25.8416 15.6627C26.3994 14.4077 26.4691 13.0829 25.981 11.8976C25.8416 11.5489 25.981 11.2003 26.3296 11.0609C26.6783 10.9214 27.0269 11.0609 27.1663 11.4095C27.7939 12.9434 27.7241 14.6168 27.0269 16.2205C26.3296 17.8242 24.9351 19.0793 23.2617 19.6371C22.6342 19.8462 22.0067 19.916 21.4489 19.916Z" fill="#2E2F3F"/>
<path d="M21.7278 32.8848C20.2636 32.8848 18.8691 31.9784 18.3113 30.5142C18.0324 29.7472 18.1021 28.9105 18.4507 28.2132C18.7994 27.516 19.4269 26.9582 20.1241 26.6793C20.7517 26.4701 21.4489 26.4701 22.0765 26.749C22.704 27.0279 23.1223 27.516 23.4012 28.2132C23.5407 28.5619 23.3315 28.9105 22.9829 29.0499C22.6343 29.1894 22.2856 28.9802 22.1462 28.6316C22.0067 28.283 21.7976 28.0738 21.5187 27.9343C21.2398 27.7949 20.8911 27.7949 20.5425 27.8646C20.1241 28.0041 19.7755 28.3527 19.5663 28.771C19.4269 29.1197 19.4269 29.6077 19.5663 30.0261C19.9847 31.2114 21.3095 31.8389 22.5645 31.4206C24.1682 30.8628 25.0049 29.1197 24.4471 27.516C23.6801 25.4242 21.4489 24.3784 19.3572 25.0756C17.4049 25.7729 15.9406 27.5857 15.8709 29.6077C15.8709 29.9564 15.5223 30.2353 15.1737 30.2353C14.825 30.2353 14.5461 29.8866 14.5461 29.538C14.6856 27.0279 16.4287 24.727 18.8691 23.8206C21.5884 22.8444 24.5866 24.3086 25.5627 27.0279C26.3994 29.2591 25.2141 31.7692 22.9132 32.5362C22.5645 32.8151 22.1462 32.8848 21.7278 32.8848Z" fill="#2E2F3F"/>
<path d="M27.7938 26.6096C27.3057 26.6096 26.8176 26.5399 26.3295 26.3307C23.6103 25.3546 22.146 22.3564 23.1222 19.6371C23.9589 17.2665 26.1901 15.5233 28.7002 15.3141C29.0488 15.3141 29.3277 15.5233 29.3974 15.8719C29.3974 16.2206 29.1883 16.4995 28.8396 16.5692C26.8873 16.7086 25.0745 18.1032 24.3772 20.0555C23.6103 22.1472 24.7259 24.3784 26.8176 25.1454C28.4213 25.7032 30.1644 24.8665 30.7222 23.2628C30.9314 22.705 30.9314 22.0775 30.6525 21.5197C30.3736 20.9619 29.8855 20.5435 29.3277 20.3344C28.4213 19.9857 27.4451 20.4738 27.0965 21.3802C26.8873 22.0078 27.236 22.7747 27.8635 22.9839C28.2121 23.1234 28.3516 23.472 28.2818 23.8206C28.1424 24.1692 27.7938 24.3087 27.4451 24.239C26.1204 23.7509 25.4231 22.2867 25.9112 21.0316C26.469 19.4977 28.2121 18.661 29.7461 19.2188C31.6286 19.916 32.6048 21.938 31.9075 23.8206C31.28 25.494 29.6066 26.6096 27.7938 26.6096Z" fill="#2E2F3F"/>
<path d="M15.8012 29.7472H14.5461L14.5461 69.0024H15.8012L15.8012 29.7472Z" fill="#2E2F3F"/>
<path d="M15.1736 44.8078C13.5002 44.25 11.3387 36.4408 15.1736 39.9968C19.0084 36.4408 16.9167 44.25 15.1736 44.8078Z" fill="#2E2F3F"/>
<path d="M15.1736 34.9069C14.2672 34.9069 13.5699 35.6739 13.5699 36.5106C13.5699 37.417 14.3369 38.1143 15.1736 38.1143C16.0103 38.1143 16.7773 37.3473 16.7773 36.5106C16.847 35.6739 16.08 34.9069 15.1736 34.9069Z" fill="#2E2F3F"/>
<path d="M17.335 63.5639C15.9405 68.3749 15.1736 75.6961 15.1736 75.6961C15.1736 75.6961 14.6158 68.7236 13.0818 63.5639C12.5937 61.9602 17.7534 61.9602 17.335 63.5639Z" fill="#2E2F3F"/>
<path d="M69.6986 15.3141L28.77 15.3141V16.5692L69.6986 16.5692V15.3141Z" fill="#2E2F3F"/>
<path d="M44.1794 15.9416C43.6216 14.2682 35.8124 12.1067 39.3684 15.9416C35.8124 19.7765 43.6216 17.6847 44.1794 15.9416Z" fill="#2E2F3F"/>
<path d="M34.2784 15.9416C34.2784 15.0352 35.0454 14.338 35.8821 14.338C36.7885 14.338 37.4858 15.1049 37.4858 15.9416C37.4858 16.8481 36.7188 17.5453 35.8821 17.5453C35.0454 17.615 34.2784 16.8481 34.2784 15.9416Z" fill="#2E2F3F"/>
<path d="M64.2603 18.1032C69.0713 16.7087 76.3924 15.9417 76.3924 15.9417C76.3924 15.9417 69.4199 15.3839 64.2603 13.8499C62.6566 13.3619 62.6566 18.5215 64.2603 18.1032Z" fill="#2E2F3F"/>
<path d="M59.24 12.316L26.4692 12.316C26.1206 12.316 25.8417 12.0371 25.8417 11.6885C25.8417 11.3398 26.1206 11.0609 26.4692 11.0609L59.24 11.0609C59.5886 11.0609 59.8675 11.3398 59.8675 11.6885C59.9372 12.0371 59.5886 12.316 59.24 12.316Z" fill="#2E2F3F"/>
<path d="M10.8507 60.6354C10.502 60.6354 10.2231 60.3565 10.2231 60.0079L10.2231 27.2371C10.2231 26.8885 10.502 26.6096 10.8507 26.6096C11.1993 26.6096 11.4782 26.8885 11.4782 27.2371L11.4782 60.0079C11.5479 60.3565 11.1993 60.6354 10.8507 60.6354Z" fill="#2E2F3F"/>
<path d="M362.519 202.109C363.286 202.109 364.053 202.249 364.751 202.528C365.099 202.667 365.239 203.016 365.099 203.364C364.96 203.713 364.611 203.852 364.263 203.713C363.077 203.225 361.683 203.295 360.497 203.852C359.242 204.41 358.196 205.526 357.708 206.851C357.36 207.827 357.43 208.942 357.848 209.918C358.336 210.895 359.103 211.592 360.079 211.94C361.683 212.498 363.426 211.662 363.984 210.058C364.193 209.5 364.193 208.873 363.914 208.315C363.635 207.757 363.147 207.339 362.589 207.129C361.683 206.781 360.707 207.269 360.358 208.175C360.219 208.524 360.288 208.803 360.428 209.151C360.567 209.43 360.846 209.709 361.125 209.779C361.543 209.918 361.683 210.267 361.543 210.616C361.404 210.964 361.055 211.104 360.707 211.034C359.382 210.546 358.685 209.082 359.173 207.827C359.73 206.293 361.474 205.456 363.008 206.014C363.914 206.362 364.611 206.99 365.03 207.827C365.448 208.663 365.518 209.64 365.169 210.546C364.332 212.777 361.892 213.962 359.661 213.196C358.336 212.707 357.29 211.731 356.663 210.476C356.035 209.221 355.965 207.757 356.453 206.432C357.011 204.759 358.266 203.434 359.87 202.667C360.776 202.318 361.683 202.109 362.519 202.109Z" fill="#2E2F3F"/>
<path d="M353.943 210.476C356.105 210.476 358.127 211.801 358.894 213.963C359.731 216.194 358.545 218.704 356.244 219.471C354.362 220.168 352.34 219.192 351.642 217.309C351.364 216.542 351.433 215.706 351.782 215.008C352.131 214.311 352.758 213.753 353.455 213.474C354.78 212.986 356.244 213.684 356.663 215.008C356.802 215.357 356.593 215.706 356.244 215.845C355.896 215.985 355.547 215.775 355.408 215.427C355.198 214.799 354.431 214.451 353.804 214.66C353.386 214.799 353.037 215.148 352.828 215.566C352.619 215.985 352.619 216.473 352.758 216.891C353.176 218.076 354.501 218.704 355.756 218.285C357.36 217.728 358.197 215.985 357.639 214.381C356.872 212.289 354.641 211.243 352.549 211.94C351.224 212.429 350.109 213.405 349.551 214.729C348.993 215.985 348.923 217.309 349.411 218.495C349.551 218.843 349.411 219.192 349.063 219.331C348.714 219.471 348.365 219.331 348.226 218.983C347.598 217.449 347.668 215.775 348.365 214.172C349.063 212.568 350.457 211.313 352.131 210.755C352.758 210.546 353.386 210.476 353.943 210.476Z" fill="#2E2F3F"/>
<path d="M353.664 197.507C355.129 197.507 356.523 198.414 357.081 199.878C357.36 200.645 357.29 201.482 356.941 202.179C356.593 202.876 355.965 203.434 355.268 203.713C354.641 203.922 353.943 203.922 353.316 203.643C352.688 203.364 352.27 202.876 351.991 202.179C351.852 201.83 352.061 201.482 352.409 201.342C352.758 201.203 353.107 201.412 353.246 201.761C353.385 202.109 353.595 202.318 353.874 202.458C354.152 202.597 354.501 202.597 354.85 202.528C355.268 202.388 355.617 202.04 355.826 201.621C355.965 201.273 355.965 200.784 355.826 200.366C355.408 199.181 354.083 198.553 352.828 198.972C351.224 199.529 350.387 201.273 350.945 202.876C351.712 204.968 353.943 206.014 356.035 205.317C357.987 204.619 359.452 202.806 359.521 200.784C359.521 200.436 359.87 200.157 360.219 200.157C360.567 200.157 360.846 200.506 360.846 200.854C360.707 203.364 358.963 205.665 356.523 206.572C353.804 207.548 350.806 206.084 349.83 203.364C348.993 201.133 350.178 198.623 352.479 197.856C352.828 197.577 353.246 197.507 353.664 197.507Z" fill="#2E2F3F"/>
<path d="M347.598 203.783C348.086 203.783 348.574 203.852 349.062 204.062C351.782 205.038 353.246 208.036 352.27 210.755C351.433 213.126 349.202 214.869 346.692 215.078C346.343 215.078 346.064 214.869 345.995 214.52C345.995 214.172 346.204 213.893 346.552 213.823C348.505 213.684 350.318 212.289 351.015 210.337C351.782 208.245 350.666 206.014 348.574 205.247C346.971 204.689 345.228 205.526 344.67 207.129C344.461 207.687 344.461 208.315 344.74 208.873C345.018 209.43 345.507 209.849 346.064 210.058C346.971 210.406 347.947 209.918 348.296 209.012C348.505 208.384 348.156 207.617 347.529 207.408C347.18 207.269 347.04 206.92 347.11 206.572C347.25 206.223 347.598 206.084 347.947 206.153C349.272 206.641 349.969 208.106 349.481 209.361C348.923 210.895 347.18 211.731 345.646 211.173C343.763 210.476 342.787 208.454 343.484 206.572C344.112 204.898 345.785 203.783 347.598 203.783Z" fill="#2E2F3F"/>
<path d="M359.591 200.645L360.846 200.645L360.846 161.39L359.591 161.39L359.591 200.645Z" fill="#2E2F3F"/>
<path d="M360.219 185.584C361.892 186.142 364.053 193.951 360.219 190.395C356.384 193.951 358.475 186.142 360.219 185.584Z" fill="#2E2F3F"/>
<path d="M360.219 195.485C361.125 195.485 361.822 194.718 361.822 193.882C361.822 192.975 361.055 192.278 360.219 192.278C359.382 192.278 358.615 193.045 358.615 193.882C358.545 194.718 359.312 195.485 360.219 195.485Z" fill="#2E2F3F"/>
<path d="M358.057 166.828C359.452 162.017 360.219 154.696 360.219 154.696C360.219 154.696 360.776 161.669 362.31 166.828C362.798 168.432 357.639 168.432 358.057 166.828Z" fill="#2E2F3F"/>
<path d="M305.694 215.078L346.622 215.078L346.622 213.823L305.694 213.823L305.694 215.078Z" fill="#2E2F3F"/>
<path d="M331.213 214.451C331.771 216.124 339.58 218.285 336.024 214.451C339.58 210.616 331.771 212.707 331.213 214.451Z" fill="#2E2F3F"/>
<path d="M341.114 214.451C341.114 215.357 340.347 216.054 339.51 216.054C338.604 216.054 337.907 215.287 337.907 214.451C337.907 213.544 338.674 212.847 339.51 212.847C340.347 212.777 341.114 213.544 341.114 214.451Z" fill="#2E2F3F"/>
<path d="M311.132 212.289C306.321 213.684 299 214.451 299 214.451C299 214.451 305.973 215.008 311.132 216.542C312.736 217.03 312.736 211.871 311.132 212.289Z" fill="#2E2F3F"/>
<path d="M316.152 218.076L348.923 218.076C349.272 218.076 349.551 218.355 349.551 218.704C349.551 219.052 349.272 219.331 348.923 219.331L316.152 219.331C315.804 219.331 315.525 219.052 315.525 218.704C315.455 218.355 315.804 218.076 316.152 218.076Z" fill="#2E2F3F"/>
<path d="M364.542 169.757C364.89 169.757 365.169 170.036 365.169 170.384L365.169 203.155C365.169 203.504 364.89 203.783 364.542 203.783C364.193 203.783 363.914 203.504 363.914 203.155L363.914 170.384C363.844 170.036 364.193 169.757 364.542 169.757Z" fill="#2E2F3F"/>
</svg>
