<svg width="24" height="24" viewBox="0 0 24 24" fill="none" xmlns="http://www.w3.org/2000/svg">
<g clip-path="url(#clip0_0_1701)">
<path d="M11.2931 14.0099C11.2225 13.9848 11.1534 13.9564 11.0863 13.9243L7.02612 17.9845C8.24029 18.9989 9.71758 19.6108 11.2931 19.752V14.0099Z" fill="white"/>
<path d="M19.74 12.7183H13.9979C13.9729 12.7889 13.9444 12.858 13.9124 12.9251L17.9725 16.9852C18.9869 15.771 19.5988 14.2938 19.74 12.7183Z" fill="white"/>
<path d="M12.9131 13.9243C12.8461 13.9564 12.777 13.9848 12.7063 14.0099V19.7519C14.2818 19.6108 15.759 18.999 16.9733 17.9845L12.9131 13.9243Z" fill="white"/>
<path d="M13.9291 0.154093C12.655 -0.0505289 11.319 -0.0570293 9.97876 0.168696L11.9876 4.04634L13.9291 0.154093Z" fill="white"/>
<path d="M6.02693 16.9853L10.0872 12.9251C10.055 12.858 10.0266 12.7889 10.0016 12.7183H4.25952C4.40065 14.2938 5.01249 15.7709 6.02693 16.9853Z" fill="white"/>
<path d="M10.0872 11.0983L6.02698 7.03809C5.01253 8.25225 4.40065 9.7295 4.25952 11.3051H10.0016C10.0267 11.2344 10.0551 11.1653 10.0872 11.0983Z" fill="white"/>
<path d="M12.7063 5.77203V10.0137C12.777 10.0387 12.8461 10.0672 12.9131 10.0992L16.9728 6.03954C15.9482 5.18737 14.7145 4.60789 13.407 4.36719L12.7063 5.77203Z" fill="white"/>
<path d="M15.3499 0.47168L14.0591 3.05956C15.7271 3.44445 17.275 4.2968 18.4948 5.51643C22.0841 9.10684 22.085 14.9153 18.4949 18.5065C14.9044 22.0958 9.09608 22.097 5.50464 18.5067C1.91537 14.9162 1.91419 9.10787 5.5045 5.51653C6.71231 4.30919 8.2425 3.46126 9.89107 3.07114L8.55805 0.4982C0.084372 2.88348 -3.0096 14.1361 3.50619 20.505C7.97726 25.1649 16.0222 25.1647 20.4932 20.505C27.0365 14.1059 23.8874 2.80533 15.3499 0.47168Z" fill="white"/>
<path d="M17.9725 7.03809L13.9124 11.0983C13.9445 11.1653 13.9729 11.2344 13.9979 11.3051H19.74C19.5989 9.72955 18.987 8.25235 17.9725 7.03809Z" fill="white"/>
<path d="M11.2932 5.77758L10.5651 4.37207C9.26861 4.61565 8.04455 5.19334 7.02686 6.03943L11.0865 10.099C11.1535 10.0669 11.2226 10.0385 11.2933 10.0135V5.77758H11.2932Z" fill="white"/>
<path d="M11.9995 12.7181C12.3891 12.7181 12.7061 12.4011 12.7061 12.0115C12.6706 11.0755 11.3283 11.0757 11.293 12.0115C11.293 12.4011 11.6099 12.7181 11.9995 12.7181Z" fill="white"/>
</g>
<defs>
<clipPath id="clip0_0_1701">
<rect width="24" height="24" fill="white"/>
</clipPath>
</defs>
</svg>
