<svg width="24" height="24" viewBox="0 0 24 24" fill="none" xmlns="http://www.w3.org/2000/svg">
<path d="M17.9999 5.99982C17.8124 5.81235 17.5581 5.70703 17.2929 5.70703C17.0278 5.70703 16.7735 5.81235 16.5859 5.99982L11.9999 10.5858L7.41394 5.99982C7.22641 5.81235 6.9721 5.70703 6.70694 5.70703C6.44178 5.70703 6.18747 5.81235 5.99994 5.99982C5.81247 6.18735 5.70715 6.44165 5.70715 6.70682C5.70715 6.97198 5.81247 7.22629 5.99994 7.41382L10.5859 11.9998L5.99994 16.5858C5.81247 16.7733 5.70715 17.0277 5.70715 17.2928C5.70715 17.558 5.81247 17.8123 5.99994 17.9998C6.18747 18.1873 6.44178 18.2926 6.70694 18.2926C6.9721 18.2926 7.22641 18.1873 7.41394 17.9998L11.9999 13.4138L16.5859 17.9998C16.7735 18.1873 17.0278 18.2926 17.2929 18.2926C17.5581 18.2926 17.8124 18.1873 17.9999 17.9998C18.1874 17.8123 18.2927 17.558 18.2927 17.2928C18.2927 17.0277 18.1874 16.7733 17.9999 16.5858L13.4139 11.9998L17.9999 7.41382C18.1874 7.22629 18.2927 6.97198 18.2927 6.70682C18.2927 6.44165 18.1874 6.18735 17.9999 5.99982Z" fill="white"/>
</svg>
