<svg width="34" height="34" viewBox="0 0 34 34" fill="none" xmlns="http://www.w3.org/2000/svg">
<g clip-path="url(#clip0_0_856)">
<g clip-path="url(#clip1_0_856)">
<path d="M17 1.41663C8.43004 1.41663 1.41663 8.57571 1.41663 17.0608C1.41663 25.6201 8.44069 32.5833 17 32.5833C25.3717 32.5833 32.5833 25.7107 32.5833 17.0608C32.5833 8.67949 25.6688 1.41663 17 1.41663ZM17.913 7.02236L21.7271 4.22278C24.1953 5.13477 26.3262 6.73286 27.8929 8.79186L26.3455 13.2295L21.943 14.5802L17.913 11.5233V7.02236ZM12.2715 4.22321L16.093 7.02334V11.5165L11.9074 14.3494L7.82965 12.9657L6.40171 8.39808C7.93563 6.52492 9.96019 5.07749 12.2715 4.22321ZM5.52375 24.5125C4.17987 22.4497 3.32004 20.0064 3.25899 17.3805L7.20236 14.6818L11.3332 16.0835L12.9164 21.02L10.2865 24.5483L5.52375 24.5125ZM20.5009 30.2866C19.3812 30.5835 18.2117 30.7571 17 30.7571C15.6622 30.7571 14.3722 30.5557 13.1491 30.1965L11.7541 25.6352L14.3697 22.1097H19.4678L22.0421 25.7412L20.5009 30.2866ZM23.576 24.7482L20.9367 21.0128L22.4532 16.3336L26.8817 14.975L30.7203 17.7872C30.5821 20.403 29.6575 22.8268 28.2492 24.8535L23.576 24.7482Z" fill="#24B674"/>
</g>
</g>
<defs>
<clipPath id="clip0_0_856">
<rect width="34" height="34" fill="white"/>
</clipPath>
<clipPath id="clip1_0_856">
<rect width="31.1667" height="31.1667" fill="white" transform="translate(1.41663 1.41663)"/>
</clipPath>
</defs>
</svg>
