<svg width="11" height="13" viewBox="0 0 11 13" fill="none" xmlns="http://www.w3.org/2000/svg">
<path d="M0.00612248 3.43732C0.365755 3.34267 0.709079 3.21977 1.06871 3.12512C1.42834 3.03047 1.77167 2.90758 2.1313 2.81293C2.23235 2.79225 2.24429 2.7477 2.22361 2.64665C2.05936 2.10123 1.91142 1.58406 1.74716 1.03864C1.72649 0.937598 1.73843 0.893044 1.83947 0.872366C2.17086 0.794025 2.45769 0.703746 2.77277 0.597159C2.87382 0.576481 2.89012 0.604727 2.89449 0.677528C3.04244 1.1947 3.20669 1.74012 3.35463 2.25729C3.37094 2.28553 3.38725 2.31378 3.39161 2.38658C3.6502 2.31261 3.93703 2.22233 4.19562 2.14836C4.22386 2.13205 4.21949 2.05925 4.23143 2.0147C4.10417 1.59857 3.99321 1.21069 3.89419 0.778261L3.78324 0.390382C3.75062 0.333889 3.76256 0.289336 3.83536 0.284966C4.16674 0.206625 4.48182 0.100037 4.84146 0.00538803C4.8697 -0.0109199 4.88601 0.0173262 4.91426 0.00101821C5.04152 0.417143 5.15248 0.805022 5.26343 1.1929C5.31673 1.35044 5.37002 1.50798 5.39507 1.68183C5.41575 1.78287 5.4603 1.79481 5.56135 1.77413L6.73809 1.65966C7.1184 1.66606 7.50308 1.74526 7.86389 1.91357C8.36272 2.19049 8.6519 2.62612 8.79984 3.14329C8.89449 3.50292 8.94458 3.85062 8.84908 4.20705C8.77745 4.47438 8.61671 4.71783 8.43966 4.93303C8.41142 4.94934 8.39948 4.99389 8.34298 5.02651C8.50489 5.04601 8.65049 5.03727 8.8124 5.05678C9.29813 5.1153 9.70349 5.29554 10.0448 5.62576C10.2807 5.90385 10.4481 6.25912 10.5428 6.61875C10.6581 7.07943 10.7126 7.49992 10.6377 7.9574C10.539 8.50399 10.2577 8.93003 9.8384 9.24745C9.29416 9.67465 8.69662 9.94432 8.08277 10.1857C7.98172 10.2064 7.94154 10.2673 7.96221 10.3683C8.11016 10.8855 8.27441 11.4309 8.42235 11.9481C8.45934 12.0774 8.47564 12.1056 8.3018 12.1307C8.01496 12.221 7.68358 12.2993 7.39675 12.3896C7.2957 12.4103 7.27939 12.382 7.27502 12.3092C7.11077 11.7638 6.94652 11.2184 6.82683 10.6849C6.79421 10.6284 6.80615 10.5838 6.73335 10.5882C6.47476 10.6622 6.21618 10.7362 5.92934 10.8264C6.01962 11.1133 6.08166 11.4164 6.17194 11.7032C6.26221 11.9901 6.32425 12.2932 6.41453 12.58C6.4189 12.6528 6.4352 12.6811 6.33416 12.7018C6.00277 12.7801 5.68769 12.8867 5.37262 12.9933C5.27157 13.014 5.25526 12.9857 5.25089 12.9129C5.08664 12.3675 4.92239 11.8221 4.80269 11.2886C4.78639 11.2604 4.79832 11.2158 4.76571 11.1593C4.0182 11.3649 3.27069 11.5705 2.49493 11.7924C2.48619 11.6468 2.46551 11.5458 2.45677 11.4002C2.42298 11.0807 2.3892 10.7613 2.34347 10.4864C2.32279 10.3853 2.35104 10.369 2.43578 10.3201C2.66612 10.2625 2.92471 10.1885 3.13874 10.1026C3.39732 10.0286 3.50157 9.81777 3.41566 9.60373C2.95115 7.95117 2.48665 6.29861 1.97759 4.63411C1.90362 4.37553 1.61561 4.20285 1.31247 4.26488C1.00933 4.32692 0.722503 4.4172 0.463917 4.49117C0.407424 4.52378 0.36287 4.51184 0.3585 4.43904C0.263851 4.07941 0.152894 3.69153 0.0582452 3.3319C-0.00581581 3.48187 -0.00581578 3.48187 0.00612248 3.43732ZM5.47475 9.58243C5.503 9.56612 5.54755 9.57806 5.54755 9.57806C6.06472 9.43012 6.62645 9.29411 7.12294 9.04512C7.4782 8.87767 7.78891 8.69829 8.03439 8.40591C8.47322 7.92658 8.29149 7.08996 7.71985 6.81741C7.44816 6.67298 7.14065 6.66222 6.83314 6.65145C6.16163 6.66253 5.50322 6.89201 4.87307 7.10519C4.77202 7.12586 4.78833 7.15411 4.80901 7.25516C4.91559 7.57024 4.97763 7.87338 5.08421 8.18845C5.19954 8.64913 5.34311 9.0935 5.47475 9.58243ZM6.18402 5.33144C6.24051 5.29883 6.36544 5.18904 6.46211 5.09556C6.93356 4.67273 6.85724 3.88823 6.29755 3.57113C6.00954 3.39845 5.65748 3.37574 5.33803 3.40953C4.84474 3.46836 4.40037 3.61194 3.91144 3.74357C3.81039 3.76425 3.79846 3.8088 3.81913 3.90985C4.02037 4.58456 4.2053 5.23103 4.37829 5.92204C4.38266 5.99484 4.42721 6.00678 4.50001 6.00241C4.62931 5.96543 4.73035 5.94475 4.85965 5.90776C5.31595 5.71964 5.73208 5.59237 6.18402 5.33144Z" fill="white"/>
</svg>
