<svg width="24" height="24" viewBox="0 0 24 24" fill="none" xmlns="http://www.w3.org/2000/svg">
<g clip-path="url(#clip0_0_1965)">
<path d="M10.1452 0.684007H10.1449C8.85077 0.43293 7.46007 0.920623 6.38138 1.37016L6.37173 1.37416L6.36181 1.37878C6.30625 1.40493 6.24651 1.43139 6.18364 1.45939C5.7052 1.67108 5.04833 1.96155 4.70529 2.81939C3.36886 6.00185 2.51529 9.43324 2.67677 13.0819L2.70025 13.6188L3.15468 13.6631C5.35903 13.8785 7.59103 13.3077 9.49564 11.9483L9.49955 11.9452L9.50373 11.9425C10.3873 11.2855 11.4889 10.1449 11.5484 8.54155C11.6014 7.22678 10.9487 6.2517 10.3907 5.49601C10.5767 5.16924 10.7799 4.80616 10.9557 4.43447C11.2062 3.90339 11.4313 3.29539 11.4905 2.64801L11.491 2.6437L11.4916 2.63939C11.5776 1.55755 10.9122 0.833238 10.1455 0.684007H10.1452Z" fill="white"/>
<path fill-rule="evenodd" clip-rule="evenodd" d="M10.1865 0.0685494H10.1885L10.2307 0.0767612C11.2018 0.265774 12.1288 1.22024 12.0113 2.69682L12.0101 2.7116L12.0085 2.7249C11.9369 3.48668 11.6754 4.17482 11.4119 4.73352L11.4116 4.73423C11.2945 4.98182 11.167 5.22379 11.0423 5.4504C11.5557 6.1915 12.1239 7.22071 12.0699 8.56952C11.9978 10.4981 10.6891 11.7887 9.78221 12.463L9.77595 12.4676L9.77564 12.4679L9.77115 12.4712L9.76849 12.473L9.76601 12.4747C7.76216 13.905 5.41957 14.5018 3.11196 14.2763C3.11193 14.2763 3.11199 14.2763 3.11196 14.2763L2.20296 14.1877L2.156 13.1139C2.156 13.1138 2.15601 13.1139 2.156 13.1139C2.156 13.1138 2.15599 13.1135 2.15598 13.1135C1.98863 9.33059 2.87452 5.79457 4.23592 2.55118C4.67037 1.47066 5.49987 1.10431 5.97195 0.895826C5.98149 0.891609 5.9909 0.887456 6.00015 0.883363C6.00031 0.883289 6.00048 0.883216 6.00065 0.883142L6.01476 0.876855C6.07298 0.850937 6.12269 0.828806 6.1687 0.807148L6.17051 0.806295L6.18966 0.797383L6.20783 0.789856C7.27549 0.344917 8.76083 -0.191554 10.1865 0.0685494ZM10.0605 1.29116C8.91107 1.06816 7.63436 1.50069 6.55545 1.95032L6.55433 1.95079C6.49901 1.9768 6.44047 2.00286 6.3848 2.02764C6.37924 2.03012 6.3737 2.03258 6.36821 2.03503L6.36715 2.0355C5.87752 2.25214 5.42078 2.47332 5.17744 3.08184L5.1753 3.08717L5.17308 3.09246C3.86285 6.21252 3.04262 9.53744 3.19806 13.0497C5.29535 13.2546 7.41288 12.7122 9.2161 11.4287L9.2268 11.4202L9.2366 11.4137C10.0933 10.774 10.9803 9.78674 11.0274 8.51457L11.0275 8.51227C11.0697 7.46528 10.557 6.6578 9.9975 5.9001L9.73491 5.54446L9.95778 5.15292C10.1434 4.82687 10.3358 4.48236 10.5002 4.135C10.7362 3.6343 10.9237 3.11046 10.972 2.58192L10.973 2.57141L10.9734 2.5684C11.0213 1.89416 10.6263 1.40831 10.0752 1.29402L10.0605 1.29116Z" fill="black"/>
<path d="M7.0072 3.84707C7.39511 3.63784 7.9205 3.74061 8.33711 3.74861C8.1832 4.08399 8.07103 4.57507 7.80677 4.81015C7.46711 5.01938 7.0205 5.02307 6.64746 5.0963C6.75442 4.67969 6.84833 4.23969 7.0072 3.84707Z" fill="black"/>
<path d="M6.64429 8.74215C6.86708 8.57353 7.09325 8.51753 7.36795 8.54215C7.29281 8.68584 7.23021 8.76984 7.17725 8.816C7.02803 8.91292 6.83629 8.98123 6.59734 9.036L6.55664 9.04523C6.58403 8.91538 6.61273 8.81692 6.64403 8.74215H6.64429Z" fill="black"/>
<path fill-rule="evenodd" clip-rule="evenodd" d="M6.53736 8.28063C6.80907 8.10803 7.08999 8.05445 7.3969 8.08196L8.03759 8.13937L7.70031 8.78443C7.61396 8.9496 7.52014 9.09043 7.4091 9.18721L7.38814 9.20548L7.36532 9.2203C7.164 9.35107 6.92625 9.43064 6.67129 9.48908L6.67054 9.48925L6.02832 9.63491L6.17622 8.93381C6.20721 8.78689 6.24405 8.65349 6.29248 8.53781L6.40016 8.28063H6.53736Z" fill="black"/>
<path d="M20.4978 0.684007H20.4975C19.2034 0.43293 17.8127 0.920623 16.734 1.37016L16.7241 1.37416L16.7144 1.37878C16.6588 1.40493 16.5991 1.43139 16.5362 1.45939C16.0578 1.67108 15.4009 1.96155 15.0579 2.81939C13.7214 6.00185 12.8676 9.43324 13.0294 13.0819L13.0528 13.6188L13.5073 13.6631C15.7116 13.8785 17.9436 13.3077 19.8482 11.9483L19.8521 11.9452L19.8563 11.9425C20.7399 11.2855 21.8415 10.1449 21.901 8.54155C21.954 7.22678 21.301 6.2517 20.7433 5.49601C20.9293 5.16924 21.1325 4.80616 21.3081 4.43447C21.559 3.90339 21.7839 3.29539 21.8434 2.64801L21.8436 2.6437L21.8441 2.63939C21.9302 1.55755 21.2645 0.833238 20.4981 0.684007H20.4978Z" fill="white"/>
<path fill-rule="evenodd" clip-rule="evenodd" d="M20.5391 0.0685493H20.5411L20.5833 0.0767667C21.554 0.265773 22.4814 1.22016 22.3639 2.69682L22.3634 2.70301L22.3627 2.7116L22.3622 2.71568C22.2916 3.48098 22.0294 4.17239 21.7641 4.73399C21.764 4.73403 21.7641 4.73396 21.7641 4.73399C21.647 4.98171 21.5195 5.22379 21.3948 5.45045C21.3061 5.32237 21.219 5.2029 21.1371 5.09188L20.7435 5.49593L21.1767 5.83895C21.2465 5.71637 21.3201 5.58617 21.3948 5.45045C21.9081 6.19145 22.4765 7.2207 22.4225 8.56952C22.4225 8.56914 22.4225 8.56876 22.4225 8.56837L21.9013 8.54147L22.4224 8.57068C22.4224 8.57029 22.4225 8.56991 22.4225 8.56952C22.3504 10.4981 21.0417 11.7887 20.1348 12.463L20.1285 12.4676L20.1419 12.4572L19.8524 11.9452L20.1082 12.4815L20.1211 12.473L20.1186 12.4746C18.1147 13.9049 15.7722 14.5018 13.4646 14.2763L12.5555 14.1877L12.5086 13.1139L13.0296 13.0818L12.5086 13.1135C12.341 9.33055 13.2271 5.79452 14.5885 2.55118C14.5878 2.55305 14.587 2.55493 14.5863 2.5568L15.0581 2.81932L14.5906 2.54618C14.5899 2.54785 14.5892 2.54952 14.5885 2.55118C15.023 1.47066 15.8525 1.10431 16.3245 0.895826C16.3341 0.891609 16.3435 0.887456 16.3527 0.883362L16.3522 0.883608L16.5365 1.45932L16.3532 0.883142L16.3673 0.876875C16.425 0.851187 16.4743 0.82922 16.52 0.807747L16.5187 0.808396L16.7147 1.3787L16.5213 0.807148C16.5209 0.807348 16.5204 0.807548 16.52 0.807747L16.5417 0.797361L16.5629 0.788824C16.5621 0.789168 16.5612 0.789512 16.5604 0.789856L16.7342 1.37009L16.5654 0.78783L16.5629 0.788824C17.6304 0.344088 19.1145 -0.191353 20.5391 0.0685493ZM20.1282 12.4679L20.1237 12.4712L20.1211 12.473L20.1282 12.4679ZM20.4131 1.29116C19.2637 1.06816 17.987 1.50069 16.908 1.95032L16.9069 1.95081C16.8516 1.97682 16.793 2.00287 16.7374 2.02764C16.7318 2.03012 16.7263 2.03258 16.7208 2.03503L16.7197 2.0355C16.2301 2.25214 15.7734 2.47332 15.53 3.08184L15.5279 3.08717L15.5257 3.09246C14.2154 6.21256 13.395 9.53746 13.5507 13.0496C15.6479 13.2546 17.7655 12.7122 19.5687 11.4287L19.5794 11.4202L19.5892 11.4137C20.4459 10.774 21.3328 9.78674 21.38 8.51457L21.3801 8.51227C21.4223 7.46531 20.9094 6.6579 20.35 5.89999L20.0876 5.54437L20.3104 5.15292C20.4961 4.8267 20.6885 4.4822 20.8525 4.1349C21.0873 3.63805 21.2738 3.11755 21.3239 2.59226L21.3248 2.57814L21.326 2.5684C21.3739 1.89422 20.9787 1.40828 20.4278 1.294L20.4131 1.29116Z" fill="black"/>
<path d="M17.3595 3.84707C17.7477 3.63784 18.273 3.74061 18.6897 3.74861C18.5357 4.08399 18.4236 4.57507 18.1593 4.81015C17.8197 5.01938 17.373 5.02307 17 5.0963C17.107 4.67969 17.2009 4.23969 17.3595 3.84707Z" fill="black"/>
<path d="M16.9966 8.74215C17.2196 8.57353 17.4458 8.51753 17.7205 8.54215C17.6454 8.68584 17.5827 8.76984 17.5298 8.816C17.3806 8.91292 17.1888 8.98123 16.9499 9.036L16.9092 9.04523C16.9366 8.91538 16.9653 8.81692 16.9966 8.74215Z" fill="black"/>
<path fill-rule="evenodd" clip-rule="evenodd" d="M16.8447 8.65412L16.645 8.53781C16.5966 8.65349 16.5598 8.78689 16.5288 8.93381L16.3809 9.63492L17.0231 9.48925L17.0238 9.48908C17.2788 9.43064 17.5165 9.35107 17.7179 9.2203L17.7407 9.20548L17.7616 9.18721C17.8727 9.09043 17.9665 8.9496 18.0529 8.78443L18.3901 8.13937L17.7494 8.08196C17.4028 8.05089 17.0894 8.12329 16.7847 8.35359L16.9054 8.57572C16.8954 8.57811 16.8852 8.5805 16.8749 8.58287L16.8346 8.59201L16.8447 8.65412Z" fill="black"/>
<g filter="url(#filter0_d_0_1965)">
<path d="M4.81741 15.68C5.39733 15.8585 5.84785 16.2554 6.33463 16.6434C6.28872 16.9437 6.27489 17.2425 6.26394 17.5455C6.52678 16.9083 6.79575 16.2746 7.07081 15.6446H8.91933C9.31924 16.5625 9.62263 17.2329 9.8295 17.6569C9.86785 17.0138 9.89394 16.3726 9.90515 15.7283C10.5098 15.7108 11.1344 15.6329 11.7375 15.7151C11.9248 15.7295 12.1679 15.912 12.4677 16.2612C12.7515 15.8797 13.0032 15.6901 13.2224 15.6929C13.5897 15.6686 15.0654 15.6446 17.9261 15.6446C18.0758 15.6446 18.3239 15.6954 18.6704 15.7969C19.6732 15.5092 20.5356 15.5092 21.2582 15.7969C21.8441 16.0301 22.232 16.3831 22.4222 16.8557L21.8 17.7726C22.1822 18.1418 22.3896 18.5418 22.4222 18.9717C22.5148 20.1901 22.0919 20.6505 21.6667 20.9446C20.912 21.4665 19.4976 21.2474 19.2365 21.224C18.4356 21.1492 17.6347 21.2606 16.8265 21.24C16.0238 21.2246 14.8199 21.2246 13.2151 21.2415L12.4888 20.8372L11.6245 21.2486L8.99263 21.2443L8.05794 20.8372L7.26828 21.2268C6.77124 21.2242 6.27418 21.2256 5.77715 21.2311C5.02715 21.2268 4.27872 21.3381 3.53628 21.2972C3.32941 21.2234 2.73541 21.0348 2.30263 20.5077C1.87481 19.9871 1.60794 19.1301 1.57611 18.6818C1.51089 17.7658 1.74985 17.1237 2.14324 16.5908C2.32039 16.3779 2.51382 16.1848 2.72107 16.0138C3.38159 15.6609 4.10472 15.4661 4.81741 15.6797V15.68Z" fill="black"/>
</g>
<path d="M4.81741 15.68C5.39733 15.8585 5.84785 16.2554 6.33463 16.6434C6.28872 16.9437 6.27489 17.2425 6.26394 17.5455C6.52678 16.9083 6.79575 16.2746 7.07081 15.6446H8.91933C9.31924 16.5625 9.62263 17.2329 9.8295 17.6569C9.86785 17.0138 9.89394 16.3726 9.90515 15.7283C10.5098 15.7108 11.1344 15.6329 11.7375 15.7151C11.9248 15.7295 12.1679 15.912 12.4677 16.2612C12.7515 15.8797 13.0032 15.6901 13.2224 15.6929C13.5897 15.6686 15.0654 15.6446 17.9261 15.6446C18.0758 15.6446 18.3239 15.6954 18.6704 15.7969C19.6732 15.5092 20.5356 15.5092 21.2582 15.7969C21.8441 16.0301 22.232 16.3831 22.4222 16.8557L21.8 17.7726C22.1822 18.1418 22.3896 18.5418 22.4222 18.9717C22.5148 20.1901 22.0919 20.6505 21.6667 20.9446C20.912 21.4665 19.4976 21.2474 19.2365 21.224C18.4356 21.1492 17.6347 21.2606 16.8265 21.24C16.0238 21.2246 14.8199 21.2246 13.2151 21.2415L12.4888 20.8372L11.6245 21.2486L8.99263 21.2443L8.05794 20.8372L7.26828 21.2268C6.77124 21.2242 6.27418 21.2256 5.77715 21.2311C5.02715 21.2268 4.27872 21.3381 3.53628 21.2972C3.32941 21.2234 2.73541 21.0348 2.30263 20.5077C1.87481 19.9871 1.60794 19.1301 1.57611 18.6818C1.51089 17.7658 1.74985 17.1237 2.14324 16.5908C2.32039 16.3779 2.51382 16.1848 2.72107 16.0138C3.38159 15.6609 4.10472 15.4661 4.81741 15.6797V15.68Z" fill="black"/>
<path d="M5.58087 16.8908C5.36366 17.1788 5.15374 17.4743 4.9514 17.7769C4.60261 17.6523 4.13227 17.38 3.77827 17.5954C3.22705 17.9086 3.20592 18.9628 3.7334 19.3188C3.9867 19.496 4.24992 19.4622 4.528 19.4068C4.74035 19.0172 4.19279 18.9729 4.01409 18.7505C3.98044 18.528 3.97548 18.2951 3.96557 18.0699C4.53061 18.0785 5.0954 18.0785 5.66044 18.0742C5.65914 18.708 5.7447 19.4212 5.59574 20.0348C4.7367 20.8419 3.19835 20.808 2.51435 19.7111C1.9034 18.7551 2.11835 17.3052 2.98496 16.6699C3.83409 16.0591 4.78496 16.2745 5.58087 16.8908ZM7.48444 16.3449H8.60879C9.10997 17.7322 9.60824 19.1209 10.1036 20.5111C9.84792 20.5062 9.45322 20.5049 8.91922 20.508L8.60879 19.9825H7.48444L7.222 20.5111H6.01157L7.48418 16.3449H7.48444ZM21.6001 16.8505C21.415 17.1501 21.2317 17.4512 21.0502 17.7539C20.5647 17.5225 20.188 17.2329 19.5927 17.4846C19.9895 17.6969 19.9895 17.6969 20.188 17.8046C20.5976 17.9908 20.967 18.0132 21.317 18.3265C21.8075 18.7336 21.7579 19.7089 21.3184 20.1394C20.8913 20.5831 20.2159 20.6317 19.6783 20.5523C19.1704 20.4877 18.7532 20.22 18.3126 19.9388C18.5187 19.6517 18.7196 19.3603 18.916 19.0631C19.4897 19.3092 19.9725 19.7206 20.5647 19.2843C20.0085 19.012 19.3008 18.9329 18.8192 18.5037C18.2816 17.9314 18.5187 16.8871 19.1333 16.5357C19.9603 16.1065 20.8454 16.3308 21.6001 16.8505ZM10.4936 16.4003C10.9021 16.4096 11.3104 16.4108 11.7189 16.4049C11.9563 16.8779 12.2007 17.3434 12.4577 17.8003C12.7146 17.3317 12.9643 16.8588 13.2137 16.3859C13.6185 16.4049 14.0231 16.4136 14.428 16.4136C14.4168 17.7785 14.4217 19.1446 14.4241 20.5096C14.0354 20.5006 13.6483 20.5006 13.2596 20.5096C13.2596 19.8711 13.257 19.2339 13.2275 18.5969C12.9567 19.0216 12.7057 19.4609 12.4514 19.8988C12.1869 19.4625 11.9276 19.0231 11.6581 18.5911C11.6406 19.2296 11.632 19.8696 11.6184 20.5096C11.248 20.5039 10.8776 20.5034 10.5071 20.508C10.4625 19.1388 10.4761 17.7711 10.4936 16.4003ZM15.0648 16.4099C16.0579 16.3908 17.05 16.3849 18.0431 16.4172C18.0419 16.7808 18.0419 17.1444 18.0431 17.508C17.4384 17.5271 16.8353 17.5345 16.2306 17.524C16.2254 17.6576 16.2194 17.7908 16.2144 17.924C16.7818 17.94 17.3479 17.9431 17.914 17.9474C17.914 18.2711 17.914 18.5945 17.9153 18.9182C17.3492 18.9256 16.7842 18.9283 16.2181 18.9489C16.2194 19.088 16.2194 19.2259 16.2207 19.3634C16.8337 19.3603 17.4473 19.3665 18.0593 19.3911C18.056 19.7631 18.0539 20.1351 18.053 20.5071C17.0599 20.5028 16.0652 20.4997 15.0724 20.5086C15.0463 19.1425 15.0549 17.7776 15.0648 16.4099Z" fill="white"/>
<path d="M8.05791 17.8046L8.43435 18.9723H7.69922L8.05791 17.8046Z" fill="black"/>
</g>
<defs>
<filter id="filter0_d_0_1965" x="-4.43457" y="11.5811" width="32.8701" height="17.7251" filterUnits="userSpaceOnUse" color-interpolation-filters="sRGB">
<feFlood flood-opacity="0" result="BackgroundImageFix"/>
<feColorMatrix in="SourceAlpha" type="matrix" values="0 0 0 0 0 0 0 0 0 0 0 0 0 0 0 0 0 0 127 0" result="hardAlpha"/>
<feOffset dy="2"/>
<feGaussianBlur stdDeviation="3"/>
<feColorMatrix type="matrix" values="0 0 0 0 0 0 0 0 0 0 0 0 0 0 0 0 0 0 0.455556 0"/>
<feBlend mode="normal" in2="BackgroundImageFix" result="effect1_dropShadow_0_1965"/>
<feBlend mode="normal" in="SourceGraphic" in2="effect1_dropShadow_0_1965" result="shape"/>
</filter>
<clipPath id="clip0_0_1965">
<rect width="24" height="24" fill="white"/>
</clipPath>
</defs>
</svg>
