<svg width="24" height="24" viewBox="0 0 24 24" fill="none" xmlns="http://www.w3.org/2000/svg">
<path d="M18.6583 17.0086L15.6967 14.047C16.3086 13.1248 16.6668 12.0205 16.6668 10.8334C16.6668 7.61686 14.0499 5 10.8334 5C7.61686 5 5 7.61686 5 10.8334C5 14.0499 7.61686 16.6668 10.8334 16.6668C12.0205 16.6668 13.1248 16.3086 14.047 15.6967L17.0086 18.6583C17.4636 19.1139 18.2033 19.1139 18.6583 18.6583C19.1139 18.2027 19.1139 17.4642 18.6583 17.0086ZM6.75002 10.8334C6.75002 8.5817 8.5817 6.75002 10.8334 6.75002C13.0851 6.75002 14.9168 8.5817 14.9168 10.8334C14.9168 13.0851 13.0851 14.9168 10.8334 14.9168C8.5817 14.9168 6.75002 13.0851 6.75002 10.8334Z" fill="white"/>
</svg>
