<svg width="34" height="34" viewBox="0 0 34 34" fill="none" xmlns="http://www.w3.org/2000/svg">
<path d="M10.0009 7.99892H6.00144V0H4.00171V9.99865H10.0009V7.99892Z" fill="#24B674"/>
<path d="M12.0006 0H14.0003V9.99865H12.0006V0Z" fill="#24B674"/>
<path d="M20.7538 9.99865L22.9992 2.13978V0H20.9995V1.85968L19.4997 7.10897L17.9999 1.85968V0H16.0001V2.13978L18.2456 9.99865H20.7538Z" fill="#24B674"/>
<path d="M29.9982 1.99973V0H24.9988V9.99865H29.9982V7.99892H26.9986V5.99919H29.9982V3.99946H26.9986V1.99973H29.9982Z" fill="#24B674"/>
<path d="M12.5006 21.9971H10.5008V23.4969H9.00104V25.4966H10.5008V26.9964H12.5006V25.4966H14.0004V23.4969H12.5006V21.9971Z" fill="#24B674"/>
<path d="M18.9997 23.9968H20.9994V25.9965H18.9997V23.9968Z" fill="#24B674"/>
<path d="M22.9991 23.9968H24.9989V25.9965H22.9991V23.9968Z" fill="#24B674"/>
<path d="M20.9994 21.9971H22.9991V23.9968H20.9994V21.9971Z" fill="#24B674"/>
<path d="M20.9994 25.9963H22.9991V27.9961H20.9994V25.9963Z" fill="#24B674"/>
<path d="M25.3004 16.0181C23.7562 15.7028 22.0642 16.4385 20.4978 18.095H17.9998V11.9984H16.0001V18.095H13.5022C11.9357 16.4385 10.2432 15.7028 8.69956 16.0181C7.04198 16.3568 5.71529 17.6974 4.96393 19.793C2.65698 26.2274 7.07438 34.9788 12.3021 33.9107C13.7169 33.6217 14.8967 32.6305 15.6759 31.0932H18.3239C19.1031 32.6305 20.2831 33.6217 21.6978 33.9107C26.9304 34.9796 31.3423 26.2257 29.0359 19.793C28.2846 17.6974 26.958 16.3568 25.3004 16.0181ZM22.0982 31.9514C20.3558 31.5955 19.7871 29.341 19.6448 29.0935H14.3552C14.1975 29.3677 13.6632 31.5916 11.9018 31.9514C8.55011 32.6362 4.98433 25.6616 6.84641 20.4678C7.34554 19.0757 8.1669 18.168 9.09997 17.9773C10.7257 17.6452 12.5002 20.003 12.6042 20.0947H21.3958C21.491 20.0108 23.2921 17.6494 24.9 17.9773C25.8331 18.168 26.6544 19.0757 27.1536 20.4678C29.0225 25.6807 25.4348 32.633 22.0982 31.9514Z" fill="#24B674"/>
</svg>
