<svg width="24" height="24" viewBox="0 0 24 24" fill="none" xmlns="http://www.w3.org/2000/svg">
<path d="M12 24C18.6274 24 24 18.6274 24 12C24 5.37258 18.6274 0 12 0C5.37258 0 0 5.37258 0 12C0 18.6274 5.37258 24 12 24Z" fill="#988430"/>
<path d="M12 23.6156C18.4151 23.6156 23.6156 18.4151 23.6156 12C23.6156 5.58489 18.4151 0.384399 12 0.384399C5.58489 0.384399 0.384399 5.58489 0.384399 12C0.384399 18.4151 5.58489 23.6156 12 23.6156Z" fill="#7A6A2A"/>
<path d="M12 23.3708C18.28 23.3708 23.3709 18.2799 23.3709 12C23.3709 5.72001 18.28 0.629089 12 0.629089C5.72007 0.629089 0.62915 5.72001 0.62915 12C0.62915 18.2799 5.72007 23.3708 12 23.3708Z" fill="#BA9F33"/>
<path fill-rule="evenodd" clip-rule="evenodd" d="M5.24659 10.7185C5.17862 10.6564 5.10681 10.5942 5.04076 10.5321C4.97471 10.47 4.90687 10.4078 4.83891 10.3457L4.63692 10.1537C4.6039 10.1207 4.56895 10.0917 4.53593 10.0585C4.5029 10.0294 4.46412 9.99642 4.4311 9.96724C4.16306 9.7129 3.8935 9.45857 3.62918 9.2041C3.90297 9.4546 4.171 9.7033 4.44479 9.95751L4.5399 10.0527C4.57292 10.0856 4.60787 10.1148 4.64089 10.1478L4.84274 10.3342C4.91071 10.3963 4.97676 10.4585 5.04473 10.5262C5.1127 10.5939 5.17874 10.6563 5.24671 10.7182L5.24659 10.7185ZM1.68934 10.6801C1.68934 10.6801 2.66406 10.7809 3.13983 10.8489C3.58054 10.9111 4.95922 11.1227 4.95922 11.1227L1.68934 10.6801ZM1.68934 10.6801C1.96313 10.7034 2.23692 10.7324 2.51071 10.7616C2.65049 10.7752 2.7845 10.7907 2.91852 10.8042L3.12422 10.8277C3.19218 10.8373 3.25823 10.847 3.3262 10.8567L4.14182 10.9868L4.5495 11.0547C4.68351 11.078 4.81753 11.1034 4.9573 11.1267C4.82329 11.1131 4.68351 11.0936 4.5495 11.0742L4.14182 11.0159L3.3262 10.8956C3.25823 10.8859 3.19218 10.8722 3.12422 10.8626L2.91839 10.8389C2.78438 10.8253 2.6446 10.8059 2.51058 10.7903C2.23679 10.7574 1.963 10.7223 1.68921 10.6797L1.68934 10.6801ZM4.8622 11.3766C4.8622 11.3766 3.82143 11.6408 3.46994 11.7418C3.12434 11.8369 2.07769 12.1554 2.07769 12.1554L4.86207 11.3768L4.8622 11.3766Z" fill="#CFB66C"/>
<path fill-rule="evenodd" clip-rule="evenodd" d="M4.86227 11.3766C4.63123 11.4446 4.40147 11.5107 4.1671 11.5729L3.47193 11.7593C3.24089 11.8272 3.01113 11.8933 2.78073 11.9612L2.43513 12.0564C2.32057 12.0894 2.20409 12.1184 2.08569 12.1516C2.20013 12.1132 2.31673 12.0739 2.43129 12.0409L2.77689 11.9303C3.00793 11.8583 3.23769 11.7904 3.46809 11.7186C3.70297 11.6603 3.93414 11.5981 4.16902 11.5418C4.39225 11.4855 4.62726 11.4293 4.86227 11.3768V11.3766ZM2.22355 12.7962C2.33798 12.7535 3.65843 12.138 3.96525 11.9943C4.11885 11.9223 4.56531 11.7639 4.56531 11.7639L2.22355 12.7962Z" fill="#CFB66C"/>
<path fill-rule="evenodd" clip-rule="evenodd" d="M2.22352 12.7962C2.32438 12.7578 2.41961 12.7108 2.51664 12.6661L2.804 12.5321L3.38076 12.2545C3.57276 12.1632 3.75939 12.0625 3.9574 11.9767C4.0584 11.9341 4.15939 11.8991 4.26025 11.8661L4.41385 11.8176C4.4662 11.804 4.51484 11.7884 4.56745 11.7748C4.37545 11.8661 4.17334 11.9438 3.98108 12.033C3.78908 12.1282 3.59273 12.2059 3.39459 12.2913L2.80822 12.5495C2.61136 12.6292 2.41936 12.7146 2.22339 12.7962H2.22352ZM2.35152 13.3338C2.35152 13.3338 3.54755 12.6328 3.9592 12.4075C4.17475 12.2872 4.87184 11.9415 4.87184 11.9415L2.35152 13.3338Z" fill="#CFB66C"/>
<path fill-rule="evenodd" clip-rule="evenodd" d="M2.35156 13.334C2.55342 13.2097 2.75924 13.0835 2.96506 12.9553L3.27226 12.7688C3.37709 12.7068 3.47808 12.6485 3.58496 12.5864C3.68979 12.5242 3.79079 12.4622 3.89754 12.4039C3.94836 12.3725 4.0016 12.3453 4.05677 12.3224L4.21984 12.2408C4.43539 12.136 4.65094 12.0291 4.87814 11.9379C4.67232 12.068 4.46061 12.1788 4.24902 12.2932C4.14419 12.3514 4.03731 12.4039 3.93248 12.4622C3.82765 12.5204 3.72666 12.5826 3.61978 12.6389C3.51495 12.701 3.41396 12.7592 3.3072 12.8156L2.99066 12.9884L2.35182 13.334H2.35156ZM4.86214 12.095C4.86214 12.095 4.11846 12.6659 3.8777 12.8485C3.63693 13.031 2.9282 13.5436 2.9282 13.5436L4.86214 12.095Z" fill="#CFB66C"/>
<path fill-rule="evenodd" clip-rule="evenodd" d="M9.13006 16.699L8.74951 15.9786L8.97082 15.0776L10.5495 14.468L9.87758 13.0894L10.2096 11.6972L10.833 10.4504L12.7593 10.1476L14.1747 8.7981L17.2311 9.02914L17.831 12.2971L16.6757 16.4117L16.0175 18.5418L13.3495 18.6428L12.1107 17.7846L10.6602 17.1786L9.13006 16.699Z" fill="#E2CC85"/>
<path fill-rule="evenodd" clip-rule="evenodd" d="M13.8097 16.6757C13.8097 16.6757 13.4407 16.8446 12.8113 16.8057C12.6292 16.5611 11.3535 16.4466 11.3535 16.4466C11.3535 16.4466 11.1943 16.398 10.9127 16.5145C10.6293 16.6297 10.3613 16.6155 10.1108 16.6776C9.86029 16.7397 9.61158 16.4135 9.41958 16.3456C9.22759 16.2738 8.973 16.101 8.973 16.101L8.4354 16.0485L7.35585 15.5922L5.64079 13.8835L5.17475 14.6131L5.03101 15.516L5.54953 16.5859L6.94562 17.8578L9.6679 18.549L11.2815 18.0736L13.3028 17.2192L13.8097 16.6755V16.6757Z" fill="#F1D789"/>
<path fill-rule="evenodd" clip-rule="evenodd" d="M4.13792 10.6369L4.48353 9.59039L4.89531 8.91455L6.22141 8.80383L5.82332 9.96505L4.7147 11.9379L5.17486 13.6991L4.35936 14.1067L4.10874 13.7224L3.90688 12.8408L3.89331 11.8505L4.13792 10.6369Z" fill="#F4ECB4"/>
<path fill-rule="evenodd" clip-rule="evenodd" d="M5.62525 16.6039L5.37091 16.2485C5.37091 16.2485 5.30295 16.0796 5.34186 15.932C5.38026 15.7825 5.37475 15.7728 5.35543 15.7164C5.3361 15.6601 5.1729 15.4659 5.18263 15.2989C5.19223 15.1299 5.16906 15.0736 5.29322 14.9397C5.42327 14.8097 5.38448 14.5844 5.38448 14.5844L5.55344 14.6892L5.59184 14.631C5.59184 14.631 5.65392 14.6795 5.65392 14.7553C5.66749 14.6505 5.61117 14.165 5.7393 14.0544C5.86743 13.9438 6.09463 14.5728 6.09463 14.5728L5.95485 13.6601L5.59555 12.7243L4.95671 11.8699L4.91831 10.9281V10.8466C4.91831 10.8466 4.62506 11.2971 4.54352 11.653C4.48528 11.8976 4.62506 12.1947 4.596 12.5461C4.57258 12.8957 4.54352 12.8684 4.6289 13.0069C4.71427 13.1454 4.92215 13.4302 4.84061 13.6361C4.7688 13.8128 4.52407 13.6885 4.52407 13.6885C4.52407 13.6885 4.47555 13.8322 4.40951 13.8846C4.38621 13.7993 4.36099 13.7449 4.3144 13.6926C4.31043 13.7257 4.30083 13.7703 4.30083 13.7703C4.30083 13.7703 4.25808 13.6363 4.21533 13.4674C4.15722 13.2422 4.09501 12.9451 4.03869 12.7859C4.01539 12.8771 3.95715 13.1548 3.95715 13.1548L3.99018 13.582L4.14941 14.1684L4.30301 14.5524L4.45251 15.0223L4.58243 15.3379L4.68727 15.5787L4.77853 16.1205L5.21923 16.5865L5.45424 16.6914L5.62499 16.604L5.62525 16.6039Z" fill="#F3E19D"/>
<path fill-rule="evenodd" clip-rule="evenodd" d="M4.36889 9.78253C4.36889 9.78253 4.05234 10.3201 3.96121 10.8621C3.87007 11.404 3.78841 11.9767 3.84601 12.7145C3.90425 13.4583 4.01497 13.9145 4.10431 14.2408C4.25791 14.7826 4.65574 15.536 4.65574 15.536L4.66931 15.5068C4.60244 15.3801 4.54907 15.2466 4.51007 15.1087C4.45759 14.9029 4.43814 14.6583 4.38963 14.5476C4.34687 14.437 4.27507 14.3418 4.24012 14.2058C4.2071 14.0758 4.20172 13.87 4.10034 13.7166C4.05759 13.6544 4.00511 13.4913 3.98962 13.3283C3.97017 13.0835 3.99935 12.8097 3.97605 12.5846C3.9333 12.2098 3.90425 11.9555 3.94303 11.7592C3.98181 11.563 4.18393 11.006 4.30822 10.5632C4.38975 10.2797 4.34111 10.0408 4.49062 9.79418C4.64012 9.54957 4.73152 9.33402 4.76441 9.18452C4.80281 9.04858 4.36838 9.78253 4.36838 9.78253H4.36889Z" fill="#F2E8B0"/>
<path fill-rule="evenodd" clip-rule="evenodd" d="M5.86998 9.56696C5.86998 9.56696 5.70691 9.6156 5.62921 9.70097C5.55151 9.7825 5.51849 9.85047 5.41365 9.98833C5.30882 10.1262 5.30293 10.2388 5.21743 10.4116C5.13205 10.5806 4.94363 10.8349 4.92033 10.9262C4.89704 11.0174 4.85825 11.4446 4.80974 11.6465C4.76699 11.8485 4.85825 12.0971 4.85825 12.0971L4.96885 12.0737C4.96885 12.0737 4.96885 12.2174 5.07957 12.3146C5.19016 12.4097 5.20962 11.9921 5.20962 11.9921L5.62319 10.5961L6.24643 10.1728L6.3144 9.83102L5.86972 9.56696H5.86998Z" fill="#F5EEC0"/>
<path fill-rule="evenodd" clip-rule="evenodd" d="M6.17288 10.2001C6.17288 10.2001 5.87964 10.2194 5.73602 10.3244C5.67778 10.367 5.65449 10.4019 5.59241 10.4544C5.47785 10.5495 5.36125 10.6369 5.30505 10.7616C5.24285 10.8858 5.17488 11.0742 5.12829 11.4295C5.10883 11.579 5.10883 11.7169 5.09527 11.8373C5.07581 12.0004 5.04675 12.1304 5.06224 12.2213C5.0817 12.4077 5.27395 12.5048 5.29264 12.7164L5.69071 12.5146L6.06549 11.0368L6.86164 10.5376L6.41108 10.0328L6.17237 10.1992L6.17288 10.2001Z" fill="#E6DB9D"/>
<path fill-rule="evenodd" clip-rule="evenodd" d="M4.07264 20.1509C4.0743 20.1363 4.07597 20.1217 4.07763 20.1067C4.13574 19.6075 4.1456 19.2292 4.18822 18.9922C4.2503 18.6564 4.29306 18.5314 4.28333 18.4057C4.26976 18.2039 4.25427 18.0563 4.27373 17.9009C4.30278 17.6951 4.50477 17.4505 4.49901 17.2815C4.49504 17.1475 4.42707 17.0602 4.36883 16.9787C4.31059 16.8971 4.264 16.8292 4.264 16.8292C4.264 16.8292 4.66208 16.5554 4.65824 15.4524C4.66637 15.4547 4.67419 15.458 4.68154 15.4621L4.87764 16.0193L5.01165 16.1824L5.52622 17.1416L6.18837 17.7844L7.16693 18.4426L7.78057 19.1104L7.84265 20.891L7.04073 21.9318L6.9094 22.1696C5.86602 21.6458 4.90925 20.9649 4.07251 20.1508L4.07264 20.1509Z" fill="#E5CB7A"/>
<path fill-rule="evenodd" clip-rule="evenodd" d="M6.52234 21.8544C6.52234 21.8544 6.53591 21.633 6.71843 21.4893C6.74762 21.5378 6.76695 21.5845 6.76119 21.6193C6.79421 21.5612 7.02525 21.1884 7.54762 21.0912C8.06998 20.9961 8.19619 20.6156 8.19619 20.6156L9.3048 19.6078L10.5728 18.4408L12.1145 17.899L12.835 17.7223C12.835 17.7223 12.8486 17.7747 12.8215 17.8912C12.9553 17.8816 13.2524 17.8136 13.5612 17.7048C13.6855 17.6563 13.8021 17.6369 13.8641 17.701C13.9554 17.7864 13.969 17.9884 13.9747 18.1087C14.1242 18.0757 14.297 17.9321 14.4355 17.9456C14.657 17.9689 14.8531 18.2291 15.0784 18.2291C15.3754 18.2291 15.5093 18.0466 15.7172 17.9029C15.8415 17.8175 16.02 17.7109 16.121 17.6388C16.3618 17.462 18.9094 16.6834 18.9094 16.6834L19.8026 16.7416L19.9463 17.7009L19.8695 20.2084C19.86 20.2175 19.8506 20.227 19.841 20.236L15.7798 22.3571L10.1504 23.2201C8.88935 23.0141 7.67245 22.5955 6.55152 21.9822L6.52272 21.8542L6.52234 21.8544Z" fill="#D8C173"/>
<path fill-rule="evenodd" clip-rule="evenodd" d="M4.41418 20.4699C4.49418 20.3026 4.56612 20.1627 4.57879 20.1127C4.58878 20.2135 4.60708 20.4348 4.64394 20.6701C4.56655 20.6043 4.48996 20.5375 4.41418 20.4698V20.4699Z" fill="#F1D789"/>
<path fill-rule="evenodd" clip-rule="evenodd" d="M8.52629 22.8298L9.25436 22.6273L9.31644 22.6467C9.31644 22.6467 9.34946 22.6662 9.34946 22.7321C9.44072 22.6797 9.51842 22.6893 9.57474 22.6545C9.6038 22.7166 9.63285 22.9224 9.76111 22.9476C9.895 22.9768 10.0387 22.8894 10.1844 22.7788C10.328 22.6643 10.4916 22.5205 10.6154 22.4623C10.6608 22.5458 10.701 22.632 10.7358 22.7204C10.8989 22.5904 11.1824 22.0623 11.5863 22.0719C11.703 21.796 11.898 21.5604 12.1472 21.3942C12.522 21.1399 12.7568 21.1204 13.0501 21.1437C13.1666 20.9924 13.3101 20.8641 13.4734 20.7651C13.5219 20.7846 13.6559 20.8661 13.823 20.7884C13.9919 20.7108 14.1821 20.4098 14.4326 20.371C14.5676 20.3524 14.7049 20.3812 14.821 20.4525C14.821 20.4525 15.5506 19.7282 16.054 19.4874C16.0346 19.4292 15.9958 19.2098 16.586 18.7243C16.619 18.7534 16.5957 18.835 16.619 18.8395C16.6286 18.8395 16.7726 18.7774 16.9549 18.6375C17.1802 18.4686 17.45 18.2919 17.6131 18.2434C17.9203 18.1521 18.2462 18.3385 18.2462 18.3385C18.2739 18.319 18.3047 18.3046 18.3374 18.2957C18.415 18.2821 18.4713 18.2724 18.5141 18.2573C18.5102 18.3583 18.5665 18.5311 18.5141 18.6806C18.5749 18.7148 18.6392 18.7421 18.7061 18.7621C18.6732 18.834 18.6012 19.0165 18.4809 19.1039C18.5818 19.1524 18.5953 19.2087 18.7391 19.2575C18.6808 19.339 18.5855 19.479 18.543 19.5647C18.5002 19.656 18.3468 20.0346 18.2788 20.1782C18.207 20.322 18.11 20.586 18.0632 20.639C18.0165 20.692 17.8477 20.9167 17.7176 21.0273C17.8328 20.9845 18.3041 20.8409 18.5041 20.7865C18.4446 20.8738 18.1429 21.3214 17.8528 21.7519C16.4641 22.5842 14.9139 23.1111 13.3055 23.2973C11.6972 23.4835 10.0676 23.3247 8.52539 22.8317L8.52629 22.8298Z" fill="#E0CD81"/>
<path fill-rule="evenodd" clip-rule="evenodd" d="M6.22074 10.1476C6.22074 10.1476 6.05191 10.1476 6.01888 10.1709C5.98586 10.1942 6.18785 10.2428 6.24993 10.2661C6.31201 10.2894 6.44603 10.3962 6.48097 10.4817C6.514 10.5632 7.69457 11.0389 7.69457 11.0389L8.52954 10.9961L8.81742 10.5984L8.26982 10.1188L8.65383 8.98676L8.14515 9.06829L6.92182 9.79789L6.30817 10.0329L6.22074 10.1476Z" fill="#DFC57C"/>
<path fill-rule="evenodd" clip-rule="evenodd" d="M8.05432 10.5224C8.06639 10.5419 8.08339 10.5579 8.10361 10.5688C8.12383 10.5797 8.14656 10.5851 8.16952 10.5844C8.34232 10.5844 8.50142 10.6272 8.56747 10.7145C8.67819 10.8544 8.98501 11.301 8.98501 11.301L9.71896 11.5651L9.76632 10.7008L8.9644 10.1436L8.05176 10.4795V10.5222H8.05381L8.05432 10.5224Z" fill="#E5CC7C"/>
<path fill-rule="evenodd" clip-rule="evenodd" d="M7.91036 10.8427C7.91036 10.8427 8.04425 10.8525 8.21321 10.7903C8.38217 10.728 8.6598 10.5942 8.78025 10.6466C8.94908 10.7184 8.91414 10.9437 9.09679 11.1458C9.20739 11.2701 9.40937 11.2663 9.52393 11.4003C9.63849 11.5343 10.0326 11.4721 10.0326 11.4721L10.1821 12.2785L9.58217 13.0475L9.38595 14.0028H8.57468L7.83356 13.7088L7.46851 12.8256L7.65103 11.9324L7.91036 10.8427Z" fill="#D2C281"/>
<path fill-rule="evenodd" clip-rule="evenodd" d="M9.47974 10.8815C9.49986 10.8877 9.52077 10.891 9.54182 10.8912C9.51853 10.9107 9.46989 10.9533 9.48934 11.064C9.5088 11.1748 9.57088 11.3145 9.51853 11.3999C9.56032 11.4456 9.59149 11.5 9.60979 11.5591C9.64282 11.6544 9.65254 11.7417 9.86797 11.7553C9.83688 11.7745 9.80821 11.7973 9.78259 11.8233C9.78259 11.8233 9.9321 11.9534 10.0079 12.0737C10.0854 12.0703 10.2913 12.0064 10.2913 12.0064L10.334 12.0355L10.4253 11.9971C10.4253 11.9971 10.3399 11.9641 10.402 11.7564C10.4602 11.5738 10.5127 11.5836 10.5172 11.57C10.5217 11.5564 10.5599 11.3642 10.5599 11.2865C10.589 11.1856 10.6123 10.8788 10.6123 10.8788L10.5502 10.2012L10.2008 9.98951L9.91661 9.71521L9.64858 10.22L9.47206 10.396L9.4585 10.8329L9.47974 10.8815Z" fill="#E2C270"/>
<path fill-rule="evenodd" clip-rule="evenodd" d="M10.3204 10.3146C10.3204 10.3146 10.3825 10.4912 10.4059 10.6272C10.4142 10.6008 10.4188 10.5733 10.4195 10.5456C10.4195 10.5456 10.468 10.8137 10.4776 10.9244C10.4971 10.9204 10.516 10.9147 10.5204 10.934C10.5247 10.9533 10.569 11.169 10.5588 11.2893C10.6396 11.1559 10.7515 11.044 10.8849 10.9632C10.9626 10.9145 11.0539 10.8622 11.1491 10.8582C11.2986 10.8544 11.4073 10.9534 11.586 10.9534C12.0169 10.9534 12.4073 10.6369 12.6947 10.5399C12.9063 10.4679 13.0888 10.4156 13.2169 10.299C13.2792 10.2466 13.3899 10.1302 13.4907 9.95722C13.6248 9.72682 13.7645 9.52625 13.9044 9.50103C13.8411 9.51266 13.7767 9.51721 13.7124 9.5146C13.7124 9.5146 13.7552 9.47185 13.8276 9.41361C13.9001 9.35537 13.9869 9.28356 14.111 9.28356C14.3325 9.28356 14.4431 9.31646 14.5673 9.31646C14.6916 9.31262 14.7634 9.28356 14.7634 9.28356C14.7634 9.28356 14.8936 9.37482 15.1867 9.37482C15.48 9.37866 15.6761 9.40388 15.8296 9.41758C15.983 9.43127 16.4975 9.37482 16.645 9.37918C16.7413 9.38288 16.8357 9.406 16.9228 9.44714L16.447 8.06474L14.738 6.57098L13.7205 7.29137L12.1553 8.85642L10.6408 9.41758L10.3243 9.7729V10.3146H10.3204Z" fill="#CCB360"/>
<path fill-rule="evenodd" clip-rule="evenodd" d="M13.7185 9.52231C13.7185 9.52231 13.7613 9.47968 13.833 9.42144C13.9046 9.3632 13.9923 9.29127 14.1165 9.29127C14.3378 9.29127 14.4485 9.32429 14.5728 9.32429C14.6971 9.32045 14.7689 9.29127 14.7689 9.29127C14.7689 9.29127 14.8992 9.3824 15.1922 9.3824C15.4855 9.38624 15.6816 9.41146 15.835 9.42503C15.9885 9.4386 16.5029 9.3824 16.6505 9.38663C16.7467 9.39025 16.8412 9.41337 16.9282 9.4546L16.7126 8.83124L16.4622 8.35559L15.7476 7.573L14.8835 7.06432C14.8796 7.06048 14.5864 6.98279 14.5864 6.98279L13.8097 7.45268L13.1049 9.27604L13.0913 9.66004L13.5475 9.87559C13.6621 9.68359 13.7884 9.52999 13.9068 9.51053C13.7999 9.52218 13.7184 9.52218 13.7184 9.52218L13.7185 9.52231Z" fill="#D5B457"/>
<path fill-rule="evenodd" clip-rule="evenodd" d="M13.7088 9.65252C13.6408 9.65636 13.5846 9.64279 13.569 9.59428C13.5108 9.43121 13.4642 9.40791 13.4154 9.40791C13.3666 9.40791 13.3008 9.51274 13.2618 9.52234C13.2228 9.53194 13.1764 9.40202 13.1764 9.40202L13.1337 9.38257C13.1337 9.38257 12.8832 9.54564 12.7066 9.7379C12.5299 9.93015 12.2405 10.2564 12.1105 10.3145C11.9804 10.3726 11.5337 10.3922 11.3809 10.4253C11.2281 10.4583 11.0586 10.569 11.0353 10.5942C11.012 10.6194 11.1034 10.6466 11.117 10.6718C11.1305 10.6951 10.9673 10.6854 10.9538 10.7102C10.9442 10.7296 10.9922 10.8402 11.016 10.8966C11.0576 10.8758 11.1033 10.8646 11.1499 10.8635C11.2994 10.8597 11.4082 10.9588 11.5867 10.9588C12.0178 10.9588 12.4081 10.6422 12.6954 10.5451C12.9071 10.4733 13.0896 10.4208 13.2178 10.3043C13.2798 10.2519 13.3906 10.1353 13.4916 9.96254C13.5653 9.84414 13.6372 9.73342 13.7091 9.65188L13.7088 9.65252Z" fill="#D2B257"/>
<path fill-rule="evenodd" clip-rule="evenodd" d="M7.5263 19.2623C7.5263 19.2623 7.4879 19.1186 7.13206 18.7477C7.03106 18.6429 6.96898 18.5557 6.90102 18.4934C6.73205 18.334 6.63298 18.2914 6.51266 18.2001C6.2486 18.004 5.96123 18.004 5.73992 17.7633C5.51861 17.5225 5.26068 17.0625 5.08148 16.5923C4.90484 16.1224 4.8562 15.9729 4.8562 15.9593C4.8562 15.9458 4.90484 15.8545 4.96692 15.8681C5.029 15.8816 5.029 16.002 5.04462 16.0311C5.07555 16.0788 5.11063 16.1236 5.14945 16.165C5.24072 16.27 5.37077 16.3954 5.43681 16.5826C5.42325 16.4233 5.36885 16.2467 5.36885 16.2467C5.36885 16.2467 5.71061 16.4623 6.00181 16.6874C6.29506 16.9127 6.41538 16.9904 6.50101 17.134C6.58665 17.2776 6.78838 17.6564 6.88502 17.7671C6.98166 17.8778 8.30583 18.2952 8.30583 18.2952L8.93572 18.7649L9.24842 19.4503L9.00369 19.8343L8.5338 19.9353L7.77065 19.5936L7.5263 19.2622V19.2623Z" fill="#D2B159"/>
<path fill-rule="evenodd" clip-rule="evenodd" d="M5.83093 16.901C5.83093 16.901 5.99016 17.1554 6.37851 17.3961C6.72808 17.6078 7.28142 17.8001 7.77473 17.9147C8.05812 17.9826 8.34163 18.035 8.59597 18.0389C9.2814 18.0485 9.75321 17.8526 10.3378 17.7884C10.6543 17.7554 11.0427 17.7302 11.4465 17.6348C11.9649 17.5106 12.2717 17.3707 12.6893 17.174C12.9921 17.0343 13.2699 16.9294 13.495 16.7954C13.8115 16.6091 14.0426 16.4013 14.3106 16.3392C14.2776 16.4305 14.2426 16.5936 13.9786 16.7625C14.1184 16.7586 14.3106 16.749 14.3106 16.749C14.3106 16.749 14.1242 16.8596 13.7961 17.1081C13.5941 17.2617 13.3262 17.5217 13.0524 17.6945C12.8756 17.8052 12.6834 17.8865 12.5572 17.9528C12.25 18.1218 12.1261 18.2071 11.9242 18.4136C11.996 18.4098 12.0019 18.4136 12.0019 18.4136C12.0019 18.4136 11.7474 18.4466 11.565 18.5436C11.5266 18.5436 11.4601 18.5301 11.3436 18.5631C11.2523 18.5922 11.1319 18.6583 11.0077 18.6932C10.831 18.7456 10.7728 18.7223 10.7728 18.7223L10.8019 18.7806C10.8019 18.7806 10.5715 18.7766 10.4947 18.7844C10.5083 18.7883 10.5044 18.7941 10.5044 18.7941C10.4909 18.7964 10.478 18.801 10.466 18.8077C10.4291 18.8317 10.3884 18.8493 10.3457 18.8601C10.3224 18.8639 10.303 18.8639 10.2738 18.8698C10.2835 18.8931 10.3593 19.0234 10.3942 19.1002C10.3652 19.1196 9.92818 19.4498 9.92818 19.4498C9.94174 19.4711 9.95282 19.4939 9.96121 19.5177C9.97477 19.5604 9.98066 19.6226 9.99423 19.6516C10.0271 19.7099 10.0466 19.7196 10.0466 19.7196C10.0466 19.7196 9.99423 19.7293 9.90284 19.7526C9.82527 19.7721 9.73004 19.805 9.59564 19.8244C9.55441 19.8298 9.51292 19.833 9.47135 19.8341C9.49081 19.8769 9.57619 20.04 9.41887 20.2283C9.26156 20.4165 9.21305 20.4439 9.16454 20.5643C9.14012 20.5458 9.11412 20.5295 9.08685 20.5156C9.03449 20.4923 8.96256 20.4575 8.93734 20.4108C8.92264 20.473 8.90317 20.5341 8.8791 20.5933C8.83059 20.7234 8.75878 20.8516 8.74522 20.9486C8.69274 20.8904 8.59571 20.7758 8.4617 20.7991C8.32768 20.8224 8.22093 21.005 8.19764 21.0574C8.19764 21.0244 8.17434 20.9992 8.16858 21.038C8.16461 21.0807 8.09088 21.5272 7.67924 21.8884C7.6754 21.7972 7.6754 21.5952 7.66567 21.5292C7.62727 21.5676 7.5803 21.6244 7.30062 21.7448C7.02683 21.8651 7.07022 21.9856 7.07022 21.9856C7.07022 21.9856 7.04692 21.7936 7.19451 21.5913C7.34401 21.3895 7.43527 21.2942 7.43527 21.2788C7.43286 21.263 7.42613 21.2482 7.41582 21.236C7.39636 21.2165 7.35758 21.1933 7.35758 21.1778C7.38087 21.1682 7.61191 21.0574 7.59834 20.8282C7.58478 20.6225 7.49748 20.5156 7.43527 20.44C7.42567 20.4302 7.52666 20.3584 7.51297 20.3351C7.50324 20.3216 7.37908 20.2302 7.36347 20.1815C7.36714 20.1525 7.37365 20.1239 7.38292 20.0962C7.39649 20.0534 7.40622 20.0242 7.40238 19.9952C7.39265 19.9467 7.34017 19.8126 7.32468 19.7991C7.33825 19.8029 7.43527 19.7991 7.43527 19.7991C7.43527 19.7991 7.35771 19.6748 7.34401 19.6165C7.33031 19.5583 7.30126 19.4048 7.28577 19.3758C7.31879 19.3796 7.40033 19.3854 7.40033 19.3758C7.4043 19.3466 7.32852 19.2981 7.36193 19.2606C7.38523 19.2644 7.4299 19.2839 7.47252 19.3383C7.44923 19.2761 7.41044 19.1557 7.32878 19.1072C7.36718 19.0937 7.49774 19.0586 7.6123 19.1266C7.72685 19.1945 7.76589 19.2896 7.76589 19.2896C7.76589 19.2896 7.83386 19.3421 7.93882 19.4198C8.05914 19.5149 8.21248 19.6502 8.45722 19.746C8.5097 19.7751 8.64358 19.7751 8.74074 19.7557C8.78304 19.7456 8.82359 19.7293 8.86106 19.7072C8.87458 19.6992 8.88891 19.6927 8.90381 19.6877C8.88293 19.6458 8.85893 19.6056 8.832 19.5673C8.86502 19.5673 8.90381 19.5712 8.90381 19.5712C8.90381 19.5712 8.9271 19.5188 8.82227 19.4176C8.84557 19.3943 8.87475 19.3792 8.87475 19.3399C8.84173 19.3361 8.78349 19.2876 8.76992 19.2681C8.78925 19.2546 8.81843 19.2099 8.85146 19.1963C8.82227 19.173 8.75046 19.0759 8.71744 19.0663C8.74899 19.0546 8.77951 19.0403 8.8087 19.0235C8.8087 19.0235 8.64563 18.9808 8.59315 18.9458C8.54067 18.9074 8.46311 18.841 8.41651 18.8215C8.36787 18.8021 8.2825 18.7925 8.24756 18.7536C8.28045 18.7633 8.33293 18.7536 8.37184 18.7536C8.4009 18.7536 8.41459 18.7574 8.42419 18.7574C8.42035 18.7438 8.42035 18.7147 8.49613 18.7051C8.53258 18.6996 8.56795 18.6884 8.60096 18.672C8.60096 18.672 8.52903 18.6682 8.44736 18.5905C8.3657 18.5128 8.29786 18.4507 8.25127 18.441C8.20276 18.4313 8.11149 18.474 8.05517 18.47C7.97748 18.4604 7.94445 18.4215 7.94445 18.4215C7.94445 18.4215 7.68628 18.4448 7.11348 18.0954C6.61826 17.7924 6.4027 17.5245 6.4027 17.5245C6.35636 17.5077 6.31156 17.4869 6.26882 17.4623C6.08245 17.3653 5.82415 17.1633 5.83196 16.8991L5.83093 16.901Z" fill="#C2A44D"/>
<path fill-rule="evenodd" clip-rule="evenodd" d="M12.9747 5.24653C13.0197 5.26113 13.0596 5.28805 13.0899 5.32423C13.1812 5.42906 13.2394 5.62708 13.0317 5.83879C13.1132 5.86785 13.1469 5.87719 13.2181 5.86785C13.1463 5.95335 12.9832 6.13588 12.9735 6.29511C12.9637 6.42516 13.0453 6.46407 13.0453 6.46407C13.0453 6.46407 12.921 6.60769 12.9152 6.84807C12.9739 6.78188 13.0381 6.72082 13.1072 6.66554C13.251 6.55098 13.449 6.42093 13.583 6.3394C13.5812 6.37357 13.5858 6.40778 13.5966 6.44026C13.5966 6.44026 13.8469 6.23444 14.0574 6.32583C14.1525 6.36858 14.1097 6.50247 14.1097 6.50247C14.1097 6.50247 14.2399 6.45396 14.3312 6.54522C14.4224 6.63649 14.5515 6.87188 14.6176 6.96314C14.6467 7.00589 14.7225 7.08743 14.8 7.21364C14.906 7.39033 14.9945 7.57695 15.0642 7.77082C15.0681 7.66983 15.0933 7.51265 15.3808 7.61159C15.6682 7.71258 15.9943 7.92429 16.2681 8.34119C16.5419 8.75809 16.6097 9.22874 16.7476 9.40794C16.8874 9.58074 17.0311 9.8681 17.0408 9.98855C17.0506 10.109 16.9981 10.4972 17.2855 11.5477C17.367 11.2216 17.4913 10.4972 17.4913 10.4972L17.5592 9.85837L17.6369 7.88167L15.5728 6.16685L13.9592 4.99591L12.9087 5.0969L12.9746 5.24641L12.9747 5.24653Z" fill="#CAA13E"/>
<path fill-rule="evenodd" clip-rule="evenodd" d="M16.8098 8.1883C16.8098 8.1883 16.7806 7.9963 16.2952 7.6699C15.8097 7.34759 15.4311 7.34759 15.0817 7.0738C14.8136 6.85825 14.5341 6.36301 14.3521 6.19994C14.1753 6.03879 14.1462 5.57274 14.1462 5.57274L14.7423 5.07354L15.6289 3.79214L16.3783 2.96692L16.7375 3.46612L17.2367 4.05249L17.5143 5.22919L17.6153 6.95156L16.8089 8.18842L16.8098 8.1883Z" fill="#B59544"/>
<path fill-rule="evenodd" clip-rule="evenodd" d="M17.4098 10.2528C17.4245 9.99163 17.3922 9.72991 17.3146 9.48009C17.1866 9.08201 16.9069 8.3752 16.777 8.11049C16.7245 7.81725 16.7634 7.79395 16.8197 7.76093C16.876 7.7279 17.0877 7.60733 17.2037 7.18429C17.3197 6.76125 17.6795 6.74742 17.6795 6.74742L17.9008 6.58435L18.2368 7.42505L18.5299 8.18435L18.6212 8.76496L18.6892 9.26006L18.5299 10.3067L17.7436 11.0174L17.4097 10.2528H17.4098Z" fill="#C89D3A"/>
<path fill-rule="evenodd" clip-rule="evenodd" d="M6.43701 21.9186V21.8971C6.45335 21.8869 6.46778 21.8739 6.47964 21.8587C6.4932 21.8393 6.50306 21.816 6.51266 21.8102C6.53212 21.8005 6.62338 21.7718 6.67189 21.781C6.7204 21.7902 6.84866 21.8431 6.91663 21.8393C7.0564 21.8354 7.21948 21.7286 7.47778 21.7772C7.86613 21.849 7.9574 22.1131 8.18268 22.2626C8.33628 22.3675 8.49525 22.3208 8.51855 22.3208H8.5709C8.58063 22.3208 8.65244 22.2393 8.69135 22.2432C8.76904 22.2471 8.77672 22.3112 8.82524 22.3151C8.9398 22.3286 9.16124 22.2568 9.27196 22.286C9.30479 22.2963 9.33464 22.3144 9.35898 22.3387C9.38332 22.363 9.40142 22.3928 9.41173 22.4257C9.43503 22.4975 9.41557 22.5887 9.35925 22.6412C9.23893 22.7518 9.12437 22.8568 9.10108 22.9484C9.13071 22.971 9.15916 22.9951 9.18632 23.0206C8.22558 22.7758 7.30121 22.4057 6.43701 21.9198V21.9186Z" fill="#CEB052"/>
<path fill-rule="evenodd" clip-rule="evenodd" d="M16.7766 18.0389C16.7766 18.0389 17.0795 17.6351 17.1844 17.435C17.2892 17.2288 16.8524 14.6176 16.8524 14.6176L17.7301 11.742L17.7067 10.806C17.7067 10.806 17.7494 9.9419 17.8504 9.56712C17.9708 9.78267 18.3456 10.0429 18.4272 10.1807C18.4656 9.91656 18.596 9.35937 18.5767 8.7652C18.6485 8.87579 18.8213 9.98849 18.8213 9.98849L18.9941 10.7379L19.2193 11.5341L19.4698 12.3749L19.6193 12.9555L19.7047 13.0953L19.7767 13.3399L19.8446 13.6041L20.0407 14.2235L20.1559 14.7322L20.2472 15.6545C20.267 15.7252 20.2813 15.7972 20.2899 15.8701C20.2938 15.9711 20.2764 16.0293 20.2764 16.0469C20.2764 16.0644 20.3094 16.2682 20.2958 16.4216C20.2764 16.5752 20.2764 16.6954 20.1559 16.8056C20.0355 16.9159 19.9598 17.5745 19.9598 17.5745L19.7443 17.4309C19.7443 17.4309 19.787 17.2347 19.686 17.0561C19.585 16.8776 19.3889 16.8406 19.2782 16.8698C19.1676 16.8931 18.9463 16.9279 18.8744 16.9901C18.8064 17.0522 18.6395 17.2444 18.486 17.3319C18.294 17.4471 17.9812 17.4561 17.8143 17.4949C17.6453 17.5333 17.459 17.6485 17.2628 17.7823C17.1089 17.8819 16.9465 17.9676 16.7774 18.0383L16.7766 18.0389Z" fill="#CCA847"/>
<path fill-rule="evenodd" clip-rule="evenodd" d="M16.7766 22.2816C16.7766 22.2816 16.7894 22.2899 16.8141 22.3035C18.1936 21.6571 19.4297 20.741 20.4493 19.6091C20.4382 19.2161 20.4237 18.8133 20.4078 18.664C20.3749 18.3475 20.3982 18.0252 20.3885 17.8388C20.3788 17.6524 20.274 16.8932 20.2254 16.6971C20.173 16.501 20.0718 16.4038 20.0565 16.4038C20.0429 16.4078 19.9612 16.7728 19.9612 16.8646C19.9612 16.9564 19.9418 17.1773 19.9418 17.2336C19.9282 17.2297 19.9225 17.1952 19.9225 17.1812C19.903 17.2297 19.8797 17.3152 19.87 17.3249C19.8603 17.3346 19.8836 17.2434 19.87 17.2239C19.8564 17.2044 19.8316 17.2142 19.837 17.1657C19.8393 17.1369 19.8438 17.1084 19.8505 17.0803C19.8505 17.0803 19.7923 17.1657 19.7497 17.3831C19.7069 17.5987 19.7069 17.6046 19.6914 17.6239C19.6779 17.6473 19.6002 17.7249 19.5962 17.7541C19.5924 17.8064 19.6681 17.8589 19.6739 17.888C19.6777 17.9366 19.6059 18.1618 19.5826 18.272C19.5593 18.3822 19.5691 18.5981 19.5442 18.7088C19.5248 18.8098 19.5058 18.8681 19.4394 18.9107C19.4879 18.9204 19.5345 18.934 19.5345 18.934C19.5345 18.934 19.6025 19.2213 19.4297 19.4661C19.3676 19.5515 19.3521 19.5904 19.286 19.6681C19.1559 19.8117 19.0549 19.9753 19.0452 20.0816C19.0384 20.0502 19.0339 20.0184 19.0316 19.9864C19.0316 19.9864 18.8297 20.2214 18.7442 20.3554C18.6336 20.5282 18.4802 20.5185 18.437 20.5612C18.3939 20.604 18.3845 20.6816 18.3986 20.7438C18.3602 20.7534 18.288 20.7671 18.2394 20.9166C18.2161 20.9941 18.1579 21.0702 18.0666 21.1224C17.9753 21.1746 17.8646 21.1904 17.8083 21.2039C17.8568 21.2175 17.8763 21.2175 17.8996 21.233C17.8705 21.2815 17.7365 21.3573 17.587 21.4544C17.4375 21.5457 17.3655 21.6796 17.3287 21.767C17.2903 21.8485 17.2336 21.901 17.1423 21.9108C17.1807 21.934 17.2375 21.9883 17.2666 22.0059C17.2238 22.0156 17.1514 22.0156 17.022 22.1263C16.8861 22.2389 16.8395 22.272 16.7773 22.2817L16.7766 22.2816Z" fill="#C39D3C"/>
<path fill-rule="evenodd" clip-rule="evenodd" d="M14.0749 23.1815C14.1492 23.1294 14.2297 23.0867 14.3146 23.0544C14.6175 22.9341 14.9378 22.9108 15.064 22.872C15.1845 22.8336 15.2796 22.7806 15.4291 22.7515C15.4251 22.7856 15.4218 22.8176 15.4182 22.8478C14.9775 22.9863 14.5286 23.0978 14.0742 23.1815H14.0749Z" fill="#D2BA6B"/>
<path fill-rule="evenodd" clip-rule="evenodd" d="M19.6607 15.2156C19.6607 15.2156 19.5986 15.5515 19.4879 15.7632C19.3771 15.9749 19.2575 16.268 19.2575 16.268C19.2582 16.202 19.266 16.1362 19.2808 16.0718C19.141 16.1533 18.8011 16.3496 18.7048 16.4369C18.6135 16.5184 18.46 16.6621 18.4212 16.7301C18.5125 16.4622 18.6076 16.2214 18.6232 16.1107C18.4834 16.2117 17.8309 16.7496 17.4912 17.1049L16.4329 17.9612C16.3108 18.0271 16.185 18.086 16.0562 18.1376C15.8738 18.2152 15.6582 18.2812 15.499 18.3434C15.5418 18.2289 15.6096 18.1277 15.7048 18.0307C15.8058 17.9356 16.1087 17.6074 16.1553 17.4547C16.198 17.2955 16.2077 17.2004 16.1514 17.0664C16.0989 17.0799 15.9786 17.0858 15.8971 17.1091C15.8155 17.1324 15.7281 17.2197 15.7281 17.2197C15.7281 17.2197 15.7902 16.8644 15.9242 16.5285C15.8232 16.5324 15.6504 16.5614 15.6504 16.5614C15.6504 16.5614 15.8912 16.1576 16.3032 15.8761C16.177 15.903 16.0536 15.9413 15.9343 15.9905C15.6936 16.0915 15.4295 16.241 15.2334 16.3226C15.344 16.169 16.1207 15.0605 16.5829 14.0274C17.0437 12.9964 17.2159 12.7323 17.3169 12.1789C17.3692 11.9052 17.3553 11.5005 17.3692 11.1382C17.3828 10.7789 17.4274 10.4566 17.3984 10.241C17.5187 10.3905 17.9693 10.8119 17.9848 11.7537C17.9983 12.6954 17.5538 13.9674 17.0818 14.6527C17.197 14.6857 17.4955 14.7246 17.8022 14.1919C18.1089 13.6591 18.1052 13.5104 18.2159 13.289C18.2295 13.3997 18.2255 13.4385 18.2255 13.4385C18.2255 13.4385 18.6722 12.8968 18.8838 12.2152C18.9266 12.5084 19.0528 12.7667 18.8546 13.3046C18.678 13.79 18.447 13.9085 18.447 13.9085C18.447 13.9085 18.5615 13.889 18.7304 13.788C18.7595 13.8598 18.7538 13.9416 18.8023 13.9706C18.8508 13.9995 18.9169 14.0483 18.9266 14.0949C18.9789 14.0172 19.0605 13.9181 19.0858 13.8444C19.0664 13.998 19.0528 14.6696 19.1242 15.0113C19.2738 14.9978 19.4272 14.988 19.532 14.7181C19.4602 14.9823 19.4602 15.1414 19.5087 15.3667C19.5883 15.3124 19.6601 15.2152 19.6601 15.2152L19.6607 15.2156Z" fill="#C0993A"/>
<path fill-rule="evenodd" clip-rule="evenodd" d="M14.6155 4.51268C14.6155 4.51268 14.466 4.57476 14.2116 4.57476C13.9903 4.57476 14.0524 4.48938 13.7068 4.48938C13.1748 4.48938 11.3165 4.79658 10.9902 4.79223C10.7785 4.78839 11.7047 4.88349 11.7047 4.88349L14.0718 4.91652L14.5475 4.87812L14.7243 4.51844L14.6155 4.51268Z" fill="#A88F33"/>
<path fill-rule="evenodd" clip-rule="evenodd" d="M8.47782 9.1398C8.47782 9.1398 8.17484 9.37084 8.04672 9.54761C7.91859 9.72438 7.85062 9.84073 7.70496 9.98447C7.73915 9.98578 7.77331 9.98119 7.80595 9.9709C7.80595 9.9709 7.80595 10.0093 7.78265 10.0194C7.80278 10.0172 7.82316 10.0194 7.8423 10.0261C7.86143 10.0327 7.87884 10.0436 7.89324 10.0578C7.85049 10.0811 7.73401 10.1977 7.82528 10.3356C7.89324 10.4404 8.03699 10.45 8.03699 10.45C8.03699 10.45 8.00396 10.5452 8.14182 10.5355C8.43891 10.5219 8.77094 10.3918 8.92428 10.4248C9.07788 10.4632 9.16518 10.4773 9.27385 10.6657C9.38905 10.8521 9.4894 10.8812 9.4894 10.8812C9.4894 10.8812 9.55737 10.7083 9.54188 10.4501C9.59761 10.311 9.6285 10.1631 9.63315 10.0133L9.53216 9.26959L9.09145 8.71228L8.52057 9.02882L8.47782 9.13942V9.1398Z" fill="#E3C571"/>
<path fill-rule="evenodd" clip-rule="evenodd" d="M9.01929 9.02917C9.01929 9.02917 9.06204 9.13016 9.24073 9.13976C9.22127 9.18251 9.22127 9.1884 9.22716 9.22129C9.231 9.25432 9.23676 9.30283 9.23676 9.30283C9.25643 9.29331 9.27421 9.2803 9.28924 9.26443C9.29897 9.30718 9.27951 9.37502 9.28924 9.42366C9.29524 9.45324 9.30501 9.48194 9.3183 9.50904C9.32113 9.5024 9.32438 9.49594 9.32802 9.48971C9.33186 9.47998 9.36642 9.59454 9.46204 9.68171C9.46196 9.66831 9.46526 9.6551 9.47164 9.64331C9.4731 9.66766 9.48116 9.69115 9.49493 9.71128C9.48778 9.70787 9.48125 9.70328 9.47561 9.69771C9.47561 9.69771 9.48521 10.0049 9.53769 10.1638C9.54646 10.1535 9.55426 10.1424 9.56098 10.1307C9.56098 10.1211 9.55714 10.2162 9.54742 10.2843C9.53385 10.3523 9.54357 10.4474 9.54357 10.4474C9.57858 10.4198 9.61706 10.397 9.65801 10.3794C9.71625 10.356 9.81161 10.2842 9.86972 10.125C9.90343 10.0348 9.92942 9.94192 9.94742 9.84734C9.96619 9.88349 9.97915 9.92236 9.98582 9.96254C9.98978 10.0111 10.081 9.98584 10.081 9.98584L10.1005 9.77413L10.2157 9.29451L10.3205 8.99742L10.8254 8.21112L11.7375 7.50865L12.5337 7.69118L13.2054 6.77854L12.0482 6.08337L10.953 6.19793L9.95906 7.57457L9.16303 8.82321L9.01929 9.02904V9.02917Z" fill="#D8B65B"/>
<path fill-rule="evenodd" clip-rule="evenodd" d="M14.7552 7.0369C14.7552 7.0369 14.6872 7.05047 14.4912 7.1521C14.2951 7.25374 14.1591 7.28599 14.0833 7.4355C14.0076 7.585 14.0018 7.70353 14.0018 7.70353C14.0018 7.70353 14.1358 7.64529 14.2135 7.62583C14.2951 7.60651 14.3863 7.61227 14.3766 7.64529C14.3673 7.66793 14.3543 7.6889 14.3382 7.70737C14.3382 7.70737 14.4918 7.70353 14.4877 7.77931C14.4836 7.85508 14.4586 7.93854 14.4296 7.97541C14.4004 8.01381 14.2801 8.07064 14.2665 8.11531C14.2335 8.20657 14.2801 8.21041 14.2625 8.28414C14.249 8.35608 14.185 8.49586 13.9752 8.74047C13.7596 8.9852 13.668 9.15801 13.668 9.15801C13.668 9.15801 13.5631 8.96191 13.5087 8.79295C13.4703 8.81228 13.2641 8.92684 13.2641 8.92684L12.7864 7.26282L12.796 7.1521C12.796 7.1521 12.8388 7.09975 12.8485 7.0026C12.7767 6.9793 12.767 6.95985 12.6717 6.86871C12.5765 6.77757 12.4989 6.66672 12.3398 6.59095C12.3165 6.54819 12.2874 6.49008 12.1709 6.46666C12.0544 6.44323 11.9845 6.42403 11.9845 6.42403C11.9845 6.42403 12.0466 6.40061 12.0758 6.3521C12.0038 6.36182 11.9457 6.38512 11.7884 6.38128C11.6292 6.37731 11.6116 6.37155 11.5243 6.38512C11.4371 6.39869 11.3323 6.4376 11.2933 6.30358C11.2506 6.27056 11.1593 6.29974 11.0816 6.41418C11.0039 6.52861 10.9768 6.62 10.8273 6.66468C10.8167 6.73058 10.7937 6.79385 10.7593 6.85104C10.7165 6.92298 10.6486 6.99479 10.5573 7.10154C10.4136 7.2705 10.4369 7.54814 10.2077 7.75985C9.97669 7.97144 10.2461 7.17335 10.2461 7.17335L10.615 6.29014L11.6655 5.26294L13.2966 5.15234L13.4559 5.99715L14.252 6.27094L14.755 7.03793L14.7552 7.0369Z" fill="#D3AE4D"/>
<path fill-rule="evenodd" clip-rule="evenodd" d="M15.0136 7.22327L14.3281 6.235L13.8485 5.86598C13.8485 5.86598 13.5068 5.23699 13.4835 5.21754C13.464 5.20397 13.1417 5.16902 12.9359 5.15546L12.9743 5.25056C13.0192 5.26515 13.0592 5.29207 13.0895 5.32825C13.1808 5.43309 13.239 5.6311 13.0313 5.84281C13.1128 5.87186 13.1465 5.88121 13.2176 5.87186C13.1458 5.95737 12.9828 6.13989 12.973 6.29912C12.9633 6.42917 13.0448 6.46795 13.0448 6.46795C13.0448 6.46795 12.9206 6.6117 12.9148 6.85195C12.9735 6.78576 13.0377 6.7247 13.1068 6.66942C13.2505 6.55422 13.4485 6.42469 13.5826 6.34315C13.5807 6.37737 13.5853 6.41163 13.5961 6.44415C13.5961 6.44415 13.8465 6.23832 14.0569 6.32959C14.152 6.37234 14.1093 6.50635 14.1093 6.50635C14.1093 6.50635 14.2394 6.45784 14.3307 6.5491C14.422 6.64037 14.552 6.87524 14.618 6.96664C14.6471 7.00939 14.7229 7.09092 14.8004 7.217C14.9064 7.39373 14.9949 7.58038 15.0646 7.77431C15.0685 7.69661 15.0841 7.58794 15.2182 7.58794L15.0143 7.22289L15.0136 7.22327Z" fill="#CAA13E"/>
<path fill-rule="evenodd" clip-rule="evenodd" d="M4.73787 10.0311C4.73787 10.0311 4.68936 9.91067 4.73787 9.67579C4.78638 9.44091 4.86216 9.33019 4.88737 8.98459C4.91259 8.639 5.13787 8.20789 5.13787 8.20789L5.7611 7.9245L6.20193 8.04482L6.33197 8.63516L5.77466 8.94236C5.77466 8.94236 5.74561 9.0724 5.5883 9.17723C5.43099 9.28207 5.21352 9.3636 5.16116 9.47048C5.12987 9.53593 5.10703 9.60509 5.0932 9.67631C5.0932 9.67631 4.93396 9.64328 4.83886 9.74811C4.73787 9.85499 4.74171 9.9501 4.73787 10.0316V10.0311Z" fill="#F4EFC8"/>
<path fill-rule="evenodd" clip-rule="evenodd" d="M5.99612 9.87384C5.99612 9.87384 5.94364 9.90686 5.90485 9.98903C5.86645 9.92695 5.77468 9.55793 5.77084 9.2259C5.767 8.89388 5.74716 8.81157 5.82396 8.69714C5.90076 8.58271 6.20194 8.46213 6.15919 8.25606C6.11644 8.05996 5.93775 7.97843 5.71836 8.03475C5.56476 8.07315 5.45045 8.3998 5.29122 8.56287C5.17077 8.68716 5.02716 8.6677 4.98837 8.73567C4.93589 8.82693 4.98441 8.9182 4.96892 8.97643C4.96495 8.99589 4.91644 9.10072 4.82901 9.22693C4.65237 9.48126 4.35337 9.84055 4.31445 10.1629C4.32802 9.98033 4.31842 9.97649 4.36693 9.77451L4.33775 9.726L4.52975 9.09688L4.65404 8.57849L4.9318 7.7104L5.42101 6.82311L5.89679 6.29102L6.39189 6.32404L6.45013 7.06771L6.73365 8.46393L7.32975 9.19787L6.37436 9.84081L5.99573 9.87384H5.99612Z" fill="#EBCC73"/>
<path fill-rule="evenodd" clip-rule="evenodd" d="M6.29314 10.1377C6.29314 10.1377 6.2116 10.1571 6.18242 10.1416C6.15323 10.1261 6.12431 10.1086 6.13391 10.0891C6.14351 10.0697 6.19599 10.0368 6.19599 10.0212C6.19706 10.0071 6.1926 9.99308 6.18354 9.98221C6.17448 9.97134 6.16155 9.96442 6.14747 9.96293C6.1028 9.95717 6.08923 9.98623 6.08923 9.98623C6.08923 9.98623 6.04648 9.95333 6.01167 9.94783C6.03226 9.9453 6.05299 9.94398 6.07374 9.94386C6.02009 9.91955 5.96317 9.90321 5.90479 9.89534C5.9533 9.86629 6.04853 9.78078 6.11061 9.78078C6.17269 9.78078 6.2116 9.77118 6.20187 9.73816C6.19215 9.70513 6.14363 9.65662 6.09128 9.63716C6.11061 9.61387 6.1243 9.57892 6.07771 9.48356C6.02907 9.38845 6.04853 9.32432 6.06414 9.30115C6.07771 9.27197 6.12623 9.21962 6.14952 9.18659C6.17282 9.15357 6.19227 9.10889 6.23106 9.0856C6.25051 9.07203 6.31259 9.04719 6.3748 9.02351C6.44277 9.00022 6.49909 8.97103 6.53787 9.00022C6.58063 9.02927 6.56117 9.06819 6.56117 9.06819C6.56117 9.06819 6.69518 9.01955 6.8155 9.08176C6.93595 9.13987 7.2292 9.17686 7.2292 9.17686L7.33429 9.38858L6.63912 9.98469L6.35176 10.1284L6.29352 10.138L6.29314 10.1377Z" fill="#E5C66B"/>
<path fill-rule="evenodd" clip-rule="evenodd" d="M7.25818 9.16311C7.25818 9.16311 7.04263 9.30685 6.99412 9.35921C7.02317 9.36317 7.07169 9.38263 7.05223 9.41169C7.02893 9.44074 6.88916 9.54173 6.81146 9.63697C6.72993 9.73207 6.65223 9.85252 6.62509 9.91076C6.59604 9.96311 6.3746 10.1166 6.29895 10.1359C6.45818 10.1359 6.77857 9.93981 6.89889 9.93981C6.89505 9.99805 6.93191 10.0641 6.99988 10.0699C7.06785 10.0756 7.26394 10.1126 7.52801 9.94954C7.79207 9.79031 7.70477 9.67178 7.81537 9.59421C8.02708 9.45431 8.11245 9.33002 8.22893 9.25245C8.34541 9.17489 8.4057 9.15722 8.4057 9.15722C8.4057 9.15722 8.40954 9.09898 8.4441 9.10487C8.45356 9.10596 8.46254 9.1096 8.47008 9.11543C8.47762 9.12125 8.48342 9.12902 8.48685 9.13789C8.48685 9.13789 8.68884 8.99415 8.94765 8.95537C8.94162 8.95267 8.93679 8.94784 8.93409 8.9418C8.93409 8.9418 8.95341 8.93207 8.95738 8.92234C8.95738 8.92234 8.97095 8.90289 8.98068 8.91261C8.99041 8.92234 9.00397 8.99415 9.02343 9.02333C9.06618 9.00388 9.14772 8.82135 9.14772 8.82135L9.34394 8.2602V7.74756L9.19034 7.77674L8.03834 8.26596L7.33921 8.99031L7.25767 9.16311H7.25818Z" fill="#E6BD62"/>
<path fill-rule="evenodd" clip-rule="evenodd" d="M10.5748 6.64862C10.6371 6.6335 10.6968 6.60926 10.7521 6.57668C10.7288 6.63889 10.7288 6.70686 10.6278 6.85444C10.5268 7.00203 10.5229 7.0234 10.4414 7.17675C10.3599 7.33598 10.3501 7.56511 10.2724 7.66597C10.3073 7.64905 10.3446 7.63794 10.383 7.63307C10.383 7.63307 10.3055 7.70104 10.2724 7.77285C10.2394 7.84466 10.1812 7.99417 10.0376 8.08556C9.89394 8.17695 9.71129 8.23507 9.51519 8.45062C9.31897 8.66221 9.11711 8.93024 9.01599 9.02663C9.06847 8.93536 9.14028 8.75283 9.15974 8.63251C9.17919 8.51219 9.15577 8.36831 9.18879 8.20921C9.22182 8.0501 9.22182 7.93541 9.38079 7.65765C9.53977 7.37989 9.8119 6.41489 9.8119 6.41489L10.3983 6.22852L10.575 6.64798L10.5748 6.64862Z" fill="#B6933F"/>
<path fill-rule="evenodd" clip-rule="evenodd" d="M10.1515 6.29321C10.1515 6.29321 9.97482 6.54754 9.92631 6.77282C9.8778 6.9981 9.92234 6.97865 9.89328 7.08937C9.8759 7.15687 9.8759 7.22768 9.89328 7.29519C9.95446 7.19664 10.0382 7.11406 10.1376 7.05429C10.3047 6.95343 10.4406 6.88149 10.5216 6.79612C10.6032 6.70485 10.6711 6.55535 10.8478 6.44079C10.776 6.43106 10.675 6.39804 10.6558 6.40239C10.7277 6.32085 10.9431 6.19657 11.1606 6.04706C11.3762 5.89346 11.3626 5.83151 11.7121 5.67817C11.5976 5.69762 11.5432 5.66844 11.448 5.67817C11.4864 5.59663 11.6208 5.55772 11.7552 5.42383C11.8896 5.28994 11.6698 5.0918 11.6698 5.0918L10.6458 5.71119L10.1507 6.29372L10.1515 6.29321Z" fill="#C49937"/>
<path fill-rule="evenodd" clip-rule="evenodd" d="M7.3728 5.83106L7.3961 5.64469L7.68935 5.17481L7.99616 4.34959V3.2214L7.97287 2.56898L8.02138 2.14172L8.05824 2.00591L8.09715 1.95343L8.34752 2.08348L8.69325 2.55337L8.72627 3.46025L8.39027 4.89129L7.43104 5.93794L7.3728 5.83106Z" fill="#DFC068"/>
<path fill-rule="evenodd" clip-rule="evenodd" d="M8.13594 1.90093C8.13594 1.90093 7.98234 1.9049 7.94957 2.54375C7.9168 3.18259 7.90093 3.51847 7.87763 3.83501C7.85434 4.15155 7.80007 4.34368 7.7728 4.53018C7.74554 4.71667 7.73005 4.97088 7.64276 5.12627C7.60436 5.19808 7.52231 5.42336 7.33005 5.59232C7.1145 5.77869 6.79246 5.90887 6.74369 5.91859C6.65819 5.93792 6.22517 5.98067 6.04853 6.07783C5.98645 6.11085 5.87957 6.14963 5.76117 6.26035C5.52617 6.47194 5.21359 6.85056 4.98831 7.30688C4.64272 7.98848 4.29712 9.91271 4.29712 9.91271L4.37481 9.78266C4.37481 9.78266 4.38454 9.60986 4.55734 9.30688C4.7263 9.00403 4.67779 8.6642 4.91267 8.08359C5.00393 7.86228 5.11849 7.57491 5.25826 7.33018C5.4797 6.9321 5.7476 6.59034 6.01755 6.40397C6.45825 6.10112 6.94375 6.03507 6.94375 6.03507L7.46612 5.68947C7.46612 5.68947 7.55738 5.51283 7.67783 5.31085C7.84666 5.02746 8.06183 4.71091 8.1088 4.25075C8.18074 3.56915 8.00781 3.12256 8.01754 2.71872C8.02727 2.31488 8.03111 2.01779 8.11277 1.94586C8.19443 1.87392 8.13606 1.90119 8.13606 1.90119L8.13594 1.90093Z" fill="#A88F33"/>
<path fill-rule="evenodd" clip-rule="evenodd" d="M8.136 4.94958C8.136 4.94958 8.3664 4.38254 8.47188 3.87963C8.49133 3.77863 8.53012 3.67777 8.53985 3.59623C8.58836 3.12046 8.60193 2.92436 8.53985 2.66414C8.49133 2.47214 8.30496 2.29908 8.20781 2.16494C8.1127 2.02503 8.06803 1.97294 8.08748 1.9435C8.10694 1.91406 8.18259 1.86593 8.25632 1.87169C8.33469 1.87397 8.41178 1.89217 8.48291 1.92517C8.55403 1.95818 8.61769 2.00531 8.67003 2.06369C8.81953 2.23649 8.93794 2.82299 8.93794 2.82299L9.06248 3.59687L9.37903 4.57159L8.13625 4.95035L8.136 4.94958Z" fill="#C99E3D"/>
<path fill-rule="evenodd" clip-rule="evenodd" d="M10.301 4.35923C10.301 4.35923 10.2583 4.37856 10.1807 4.35923C10.184 4.39093 10.1785 4.42293 10.1648 4.4517C10.1511 4.48047 10.1297 4.50491 10.103 4.52231C10.0215 4.48928 9.2582 4.55533 9.2582 4.55533C9.2582 4.55533 8.90287 4.49312 8.79215 4.02323C8.71458 3.71053 8.85039 3.27955 8.80572 2.99603C8.73775 2.5785 8.64265 2.49683 8.63292 2.36691C8.62319 2.23699 8.61346 2.20384 8.61346 2.12231C8.57071 2.11258 8.5455 2.09901 8.50287 2.09901C8.49314 2.06061 8.51247 2.02707 8.46985 1.95911C8.49314 1.96883 8.65238 1.98829 8.83874 2.16493C8.99235 2.30867 8.99234 2.36103 9.01551 2.39021C9.04457 2.41927 9.27958 2.62061 9.38057 2.82131C9.48156 3.02202 9.67766 3.66202 9.72233 3.76685C9.7359 3.8096 9.76508 3.85235 9.83753 3.94938C9.95017 4.08928 10.1152 4.32058 10.3015 4.35898L10.301 4.35923Z" fill="#B58634"/>
<path fill-rule="evenodd" clip-rule="evenodd" d="M9.04272 2.40002C9.16035 2.59004 9.26603 2.7872 9.35914 2.99036C9.4737 3.24854 9.54167 3.46025 9.68541 3.63305C9.60772 3.4079 9.46986 2.96514 9.38832 2.80783C9.29706 2.64143 9.11069 2.46223 9.04272 2.40015V2.40002Z" fill="#A88F33"/>
<path fill-rule="evenodd" clip-rule="evenodd" d="M7.72215 5.59229C7.72215 5.59229 7.52606 5.6408 7.16101 5.83306C7.04056 5.89514 6.92613 5.94749 6.81542 5.99613C6.52781 6.12618 6.21933 6.24637 5.9746 6.31267C5.99406 6.33597 6.00366 6.34557 6.00366 6.34557C6.00366 6.34557 6.00366 6.4408 6.05614 6.49507C6.02708 6.52426 5.63861 6.78832 5.75329 7.67178C5.83086 7.64272 5.92212 7.60381 5.93569 7.60381C5.95911 7.60778 5.96487 7.67178 5.99393 7.67178C6.02299 7.67178 6.11822 7.63338 6.2192 7.50282C6.21537 7.5553 6.15713 8.08343 6.4697 8.43876C6.52793 8.37079 6.67551 8.14551 6.67551 8.14551L6.67936 8.0737C6.67936 8.0737 6.69292 7.8232 6.77459 7.59408C6.85625 7.36496 7.01535 7.196 7.01535 7.196L7.84618 6.00957L7.72189 5.59216L7.72215 5.59229Z" fill="#E6C367"/>
<path fill-rule="evenodd" clip-rule="evenodd" d="M6.94562 7.3344C6.90758 7.36128 6.86567 7.38221 6.82133 7.39648C6.80776 7.34796 6.78831 7.18092 6.90287 7.01785C7.03688 6.82162 7.33 6.56728 7.41154 6.36504C7.46402 6.23486 7.44072 5.90872 7.90677 5.49118C8.37282 5.07364 8.55522 4.93002 8.55522 4.93002L9.30863 4.55139L10.2348 4.91645L9.77467 6.71999L9.41743 7.5648L7.99663 7.29689L6.94549 7.3344H6.94562Z" fill="#DCBA5A"/>
<path fill-rule="evenodd" clip-rule="evenodd" d="M7.48804 6.84476L7.66481 6.62344V6.46613C7.66481 6.46613 7.8609 6.41365 8.07249 6.19809C8.28408 5.98254 8.57733 5.56896 8.83563 5.59418C9.09394 5.62337 9.11915 6.15534 9.12888 6.30497C9.13861 6.45461 9.17163 6.79419 9.22399 6.97685C9.28223 7.15938 8.59486 7.85059 8.59486 7.85059L8.12804 8.20592L7.48804 6.84476Z" fill="#E9CE77"/>
<path fill-rule="evenodd" clip-rule="evenodd" d="M8.03491 8.68735C8.03491 8.68735 8.17865 8.46207 8.07331 8.41355C8.13539 8.27378 8.24995 8.12619 8.24995 8.12619C8.24995 8.12619 8.33148 7.92434 8.59554 7.67576C8.85959 7.42719 9.02279 7.26207 9.06554 7.09515C9.0919 6.98637 9.10623 6.87503 9.10829 6.76312C9.13684 6.78644 9.16737 6.80722 9.19955 6.8252C9.2423 6.84466 9.44415 7.01157 9.4151 7.34757C9.38604 7.68357 9.2615 7.82335 9.2615 7.82335C9.2615 7.82335 9.14119 7.94367 9.05581 8.00588C8.96442 8.06796 8.93153 8.13976 8.77806 8.14565C8.79383 8.13311 8.81156 8.12325 8.83054 8.11647C8.83054 8.11647 8.67131 8.09714 8.58581 8.17471C8.50031 8.25228 8.31855 8.49125 8.22729 8.56319C8.13603 8.62143 8.0353 8.68748 8.0353 8.68748L8.03491 8.68735Z" fill="#CDAE50"/>
<path fill-rule="evenodd" clip-rule="evenodd" d="M14.4914 4.91064C14.2619 4.82703 14.0209 4.77987 13.7769 4.77087C13.3691 4.7573 12.773 4.78059 12.1885 4.78443C11.5594 4.78827 10.9885 4.56888 10.1964 4.5301C10.0663 4.4524 9.73556 4.11256 8.70312 4.83295C8.7652 4.82911 9.45269 4.67371 9.6914 4.97285C9.93217 5.26994 9.8642 5.77478 9.83131 5.8951C9.7691 6.16313 9.56712 6.55341 9.48571 6.8272C9.4043 7.101 9.4235 7.24487 9.36526 7.43687C9.30702 7.62887 9.1789 7.72423 9.25454 7.94555C9.35553 7.88347 9.40814 7.88347 9.57684 7.50484C9.74555 7.12621 9.71086 6.85626 9.99054 6.53587C10.2643 6.21357 10.7201 5.77273 10.8934 5.66201C11.0667 5.55129 12.4429 4.83679 13.8837 5.51839C14.2313 5.48153 14.4915 4.91052 14.4915 4.91052L14.4914 4.91064Z" fill="#D2A83E"/>
<path fill-rule="evenodd" clip-rule="evenodd" d="M9.28344 4.64636C9.28201 4.63177 9.27879 4.61741 9.27384 4.60361C9.26036 4.57521 9.24267 4.54902 9.22136 4.52591C9.22136 4.52591 8.8796 4.46383 8.7068 4.48316C8.40383 4.51619 8.13004 4.89097 8.00191 5.08323C7.87378 5.27549 7.71455 5.57245 7.54175 5.72593C7.54365 5.71098 7.5402 5.69584 7.53203 5.68317C7.53203 5.68317 7.54175 5.69674 7.52243 5.7162C7.5031 5.73566 7.50297 5.74526 7.5127 5.7546L7.54188 5.78366C7.55148 5.78366 7.81951 5.66321 8.18457 5.32285C8.57291 4.96752 8.87 4.78524 9.02539 4.72278C9.10826 4.68756 9.19488 4.66192 9.28356 4.64636H9.28344Z" fill="#C29637"/>
<path fill-rule="evenodd" clip-rule="evenodd" d="M15.9127 3.18646C15.9127 3.18646 15.8505 3.26403 15.7728 3.34954C15.6 3.53206 15.3747 3.73776 15.1824 3.94947C15 4.15146 14.7942 4.30877 14.563 4.57284C14.3319 4.8369 14.0638 5.13002 13.996 5.21553C13.9339 5.30103 13.8854 5.44081 13.8854 5.51262C13.8524 5.48932 13.8136 5.46411 13.8136 5.46411C13.8299 5.49459 13.8494 5.52325 13.8718 5.54961C13.9204 5.61758 13.996 5.70321 14.0349 5.75544C14.0827 5.82192 14.1169 5.8971 14.1358 5.97675C14.1591 5.98059 14.3086 6.00977 14.4951 5.70296C14.6816 5.39614 14.926 5.06026 14.926 5.06026L15.3144 4.48349L15.5591 3.99427L15.8663 3.44669L15.9131 3.18646H15.9127Z" fill="#AC8132"/>
<path fill-rule="evenodd" clip-rule="evenodd" d="M16.3108 2.79419C16.3108 2.79419 16.0758 2.98619 15.9846 3.1014C15.8933 3.2166 15.6774 3.51894 15.6774 3.51894L15.7551 3.50921L16.1493 3.15977L16.3029 2.88597L16.3107 2.7947L16.3108 2.79419Z" fill="#A88F33"/>
<path fill-rule="evenodd" clip-rule="evenodd" d="M16.2387 18.2253C16.2387 18.2253 16.2349 18.066 16.3242 17.9709C16.4155 17.8757 16.6465 17.7359 16.8718 17.2116C17.0971 16.6873 17.1222 16.5689 17.1222 16.5689C17.1222 16.5689 16.7183 16.9145 16.4694 16.9961C16.5276 16.8756 16.5606 16.7903 16.5898 16.728C16.5568 16.699 16.417 16.666 16.4034 16.6505C16.481 16.5728 16.5238 16.3824 16.6811 16.2562C16.883 16.1026 17.2519 15.8387 17.5387 15.6034C17.8254 15.3682 18.3891 14.821 18.461 14.6617C18.5038 14.7238 18.5134 14.7626 18.5134 14.7626C18.5134 14.7626 18.23 15.1316 18.0824 15.3665C17.9522 15.5685 17.962 15.6831 17.962 15.6831L18.23 15.5679C18.23 15.5679 18.3076 15.8552 17.9562 16.2922C18.1098 16.234 18.1718 16.2689 18.259 16.2203C18.1153 16.3117 17.9173 16.436 17.7309 16.7776C17.5484 17.1193 17.2998 17.5174 16.8805 17.7659C16.4727 18.028 16.2377 18.2241 16.2377 18.2241L16.2387 18.2253Z" fill="#A67A2E"/>
<path fill-rule="evenodd" clip-rule="evenodd" d="M15.1864 5.11271C15.1864 5.11271 15.0272 5.44461 15.0039 5.70291C15 5.76512 14.9844 5.81363 14.9844 5.88543C14.9806 6.11647 14.998 6.37477 14.946 6.49509C14.9266 6.44658 14.9168 6.41356 14.8974 6.39423C14.8683 6.47576 14.8159 6.7301 14.7731 6.8252C14.7538 6.76312 14.711 6.54757 14.715 6.29324C14.719 6.0389 14.7246 5.99027 14.7246 5.93791C14.715 6.01548 14.6625 6.12044 14.6431 6.18252C14.614 6.13017 14.581 6.0622 14.5421 6.00588C14.5188 6.04428 14.4897 6.10098 14.4645 6.13017C14.4605 6.10687 14.4509 6.04467 14.4451 5.95737C14.4412 5.85638 14.4353 5.72633 14.4412 5.69907C14.4508 5.64672 14.5325 5.4409 14.7053 5.25248C14.9111 5.0272 15.1228 4.59431 15.1849 4.4603C15.2469 4.32628 15.511 3.7691 15.511 3.7691H15.713L15.4197 4.437C15.4197 4.437 15.2431 4.80205 15.1518 4.9362C15.0606 5.07034 14.8683 5.45472 14.7828 5.60422C14.8449 5.52269 14.8974 5.47993 14.9596 5.40224C15.0198 5.34784 15.1867 5.11296 15.1867 5.11296L15.1864 5.11271Z" fill="#8C6228"/>
<path fill-rule="evenodd" clip-rule="evenodd" d="M16.3147 2.76886C16.2817 2.87041 16.2296 2.96469 16.1611 3.04662C16.0406 3.19036 15.7824 3.38249 15.6563 3.53584C15.5411 3.68534 15.3107 4.09315 15.4154 4.5766C15.4538 4.47177 15.5261 4.26403 15.7184 4.02902C15.9106 3.79401 16.1164 3.52419 16.2175 3.31452C16.3184 3.10281 16.332 2.9359 16.332 2.9359L16.3704 2.88739L16.3471 2.77667L16.314 2.76886H16.3147Z" fill="#CBA94C"/>
<path fill-rule="evenodd" clip-rule="evenodd" d="M20.2468 15.6485C20.2468 15.6485 20.1691 15.437 20.1458 15.2447C20.1225 15.0524 20.1842 15.0143 20.1127 14.7943C20.07 14.6603 19.9924 14.6791 19.973 14.6603C19.9535 14.6414 19.9399 14.4389 19.9438 14.3282C19.9476 14.2175 19.9399 14.0739 19.9205 14.0117C19.8914 13.9884 19.872 13.9689 19.8292 13.8253C19.7807 13.6816 19.7574 13.6098 19.7341 13.5671C19.7108 13.5245 19.6427 13.4856 19.6427 13.4428C19.6427 13.3573 19.7204 13.3128 19.7204 13.2892C19.7166 13.2407 19.6583 13.2796 19.6427 13.2659C19.6234 13.2427 19.6914 13.1029 19.6661 13.0834C19.6564 13.0738 19.5885 13.1554 19.5709 13.1321C19.5515 13.1086 19.5282 12.8776 19.4932 12.7243C19.4603 12.5747 19.4253 12.4661 19.4214 12.4214C19.4176 12.3787 19.1534 11.6252 19.0894 11.4427C19.0378 11.2885 18.9944 11.1316 18.9593 10.9728C18.9399 10.8816 18.9263 10.6951 18.9166 10.7145C18.9068 10.734 18.9127 10.8291 18.8971 10.8252C18.8836 10.8213 18.835 10.4894 18.8196 10.4369C18.806 10.3844 18.7243 10.2065 18.7044 10.0777C18.6849 9.94755 18.6423 9.60771 18.6131 9.37667C18.5839 9.14563 18.5703 9.05052 18.5703 8.99267C18.5751 8.85116 18.5673 8.7095 18.547 8.56937C18.5086 8.32464 18.4318 8.02755 18.3645 7.85488C18.2345 7.5286 17.8887 6.69366 17.8269 6.48592C17.8269 6.43344 17.8949 6.46262 17.8949 6.46262C17.8949 6.46262 18.0637 6.88592 18.188 7.21206C18.3084 7.53833 18.423 7.82569 18.4522 7.85488C18.4755 7.88393 18.658 8.20432 18.7396 8.7286C18.8211 9.25289 18.8501 9.73635 18.8988 10.0587C18.9221 10.2123 18.9415 10.3752 18.99 10.5383C19.0424 10.715 19.1239 10.8976 19.2308 11.1771C19.3221 11.4121 19.3901 11.6082 19.4269 11.7772C19.4697 11.9927 19.4697 12.1558 19.4949 12.2627C19.5183 12.3539 19.5531 12.5363 19.6348 12.8003C19.7165 13.0642 19.8366 13.4042 19.9182 13.6158C20.0775 14.0391 20.1486 14.3925 20.1726 14.5809C20.1939 14.7751 20.2658 15.4469 20.2464 15.6488L20.2468 15.6485Z" fill="#A88F33"/>
<path fill-rule="evenodd" clip-rule="evenodd" d="M16.3243 2.74558L16.3146 2.76888C16.3146 2.76888 16.3437 2.7786 16.3379 2.81752C16.3383 2.87075 16.3351 2.92396 16.3282 2.97675C16.3186 3.04472 16.2991 3.09707 16.2953 3.13982C16.2953 3.23109 16.3088 3.33592 16.1801 3.59614C16.1417 3.66795 16.118 3.73003 16.0985 3.77279C16.05 3.87762 16.0403 3.89323 15.9976 3.94175C16.0655 3.90335 16.3102 3.74975 16.4344 3.77279C16.349 3.8213 16.2189 3.91653 16.1373 4.04082C16.1568 4.04466 16.2383 4.06028 16.3677 4.04082C16.5833 4.0078 16.824 3.9301 17.0356 3.94559C17.2668 3.95915 17.1755 3.66795 17.1755 3.66795L16.9088 3.08158L16.4039 2.72638L16.3243 2.74571V2.74558Z" fill="#BE9C44"/>
<path fill-rule="evenodd" clip-rule="evenodd" d="M17.6409 7.13787C17.6409 7.13787 17.4156 6.91259 17.3243 6.13947C17.233 5.36276 17.2525 4.21947 17.2525 4.21947L17.07 3.77287C17.07 3.77287 17.0316 3.47579 16.936 3.36519C16.8403 3.2546 16.6526 3.06811 16.5671 2.97684C16.4816 2.88558 16.3845 2.76129 16.3263 2.74183C16.3553 2.69332 16.4855 2.41953 16.9845 2.41569C17.4834 2.41185 17.6373 2.68948 17.6894 2.79047C17.7415 2.89146 17.9767 3.32807 18.064 4.16007C18.1456 4.99105 18.1495 5.05326 18.136 5.34062C18.1262 5.49985 18.0738 5.86875 17.9824 6.26286C17.8989 6.59694 17.8076 6.9698 17.6406 7.13863L17.6409 7.13787Z" fill="#A17C34"/>
<path fill-rule="evenodd" clip-rule="evenodd" d="M16.9344 7.8001C17.0095 7.80551 17.0845 7.78859 17.15 7.75146C17.2218 7.74762 17.482 7.78064 17.682 7.52631C17.6956 7.58442 17.7306 7.74186 17.6392 7.88163C17.6879 7.83299 17.7597 7.81366 17.7694 7.8001C17.7733 7.8719 17.8412 8.09321 17.5539 8.63106C17.6314 8.54569 17.7227 8.54953 17.8042 8.5398C17.8082 8.64079 17.8625 8.9805 17.7189 9.16316C17.6237 9.28744 17.4683 9.24853 17.4683 9.24853C17.4706 9.2214 17.4706 9.19413 17.4683 9.167C17.4645 9.11452 17.445 9.06216 17.4587 9.02722C17.3837 8.99292 17.3153 8.94555 17.2567 8.88732C17.0878 8.72809 16.8684 8.45635 16.8529 8.25436C16.8334 8.02909 17.0354 7.98057 17.0354 7.98057C17.0185 7.96544 17.0041 7.94773 16.9927 7.92809C16.9829 7.8952 16.9732 7.84272 16.9344 7.8001Z" fill="#8C6228"/>
<path fill-rule="evenodd" clip-rule="evenodd" d="M15.437 5.35726C15.437 5.35726 15.4272 5.34369 15.3749 5.40577C15.3846 5.34369 15.3943 5.28533 15.3982 5.22901C15.423 5.17686 15.455 5.12851 15.4934 5.08539C15.4642 5.1435 15.4448 5.19598 15.4448 5.19598C15.4448 5.19598 15.5167 5.06197 15.6215 4.98043C15.6933 4.92219 15.7846 4.89505 15.8234 4.84065C15.8661 4.78241 15.8564 4.77269 15.8661 4.76296C15.8661 4.76296 15.9614 4.70088 16.107 4.51822C16.1263 4.49493 16.1555 4.46971 16.175 4.44641C16.2079 4.43285 16.2856 4.3979 16.3768 4.35118C16.4721 4.29883 16.5788 4.22702 16.6449 4.19758C16.7749 4.13934 16.9129 4.14523 16.9769 4.05384C17.0254 4.04027 17.0777 3.89461 17.0681 3.77045C17.14 3.7995 17.5088 4.02862 17.6352 4.52961C17.7264 4.88494 17.5632 5.43253 17.4953 5.69672C17.4273 5.96091 17.4177 6.15688 17.3225 6.2772C17.202 6.43656 16.8138 6.6612 16.7186 6.77243C16.6371 6.86369 16.3925 7.09473 16.4021 7.26165C16.4118 7.38594 16.5651 7.45365 16.5983 7.4772C16.6314 7.50075 16.6312 7.52968 16.6934 7.5156C16.7556 7.50152 16.7787 7.47285 16.8041 7.47285C16.8331 7.47669 16.8331 7.48258 16.8467 7.48258C16.8566 7.48228 16.8663 7.48095 16.8759 7.47861C16.8759 7.47861 16.8662 7.65538 16.4526 7.70901C16.4234 7.71298 16.3944 7.72257 16.3574 7.72846C16.406 7.70517 16.4351 7.70517 16.4876 7.63336C16.4293 7.62363 16.2623 7.6139 16.2195 7.60034C16.2331 7.57704 16.2778 7.51483 16.3146 7.48577C16.3477 7.45672 16.3108 7.44738 16.2817 7.46248C16.2317 7.49651 16.1837 7.53344 16.138 7.57307C16.0895 7.61582 16.0467 7.67406 15.969 7.72667C15.9457 7.64898 15.9496 7.50139 16.041 7.39464C16.0175 7.39848 15.9729 7.46645 15.9303 7.45288C15.9225 7.38205 15.9271 7.31043 15.9438 7.24117C15.9671 7.15374 16.0933 7.0004 16.0933 7.0004L16.703 5.91099L16.833 5.08577L15.437 5.35701V5.35726Z" fill="#92723A"/>
<path fill-rule="evenodd" clip-rule="evenodd" d="M15.4039 5.40385C15.4039 5.40385 15.3708 5.42714 15.4369 5.47181C15.4272 5.48538 15.4039 5.53389 15.3747 5.56692C15.3418 5.60532 15.3067 5.62913 15.2931 5.66215C15.2641 5.73012 15.2408 5.77671 15.2408 5.80589C15.2408 5.83508 15.231 6.02145 15.1495 6.14177C15.1203 6.18452 15.0873 6.25633 15.064 6.30484C15.0155 6.39021 14.9727 6.45844 14.963 6.49684C14.9437 6.56481 14.9301 6.75117 14.9301 6.75117C14.9301 6.75117 14.9729 6.69869 14.9883 6.67937C14.9649 6.72788 14.9397 6.78023 14.9028 6.81914C14.9261 6.79969 14.9941 6.75117 15.1087 6.65018C15.2679 6.51629 15.5165 6.29101 15.8195 6.11258C15.7281 6.14561 15.6505 6.14561 15.5884 6.15533C15.637 6.10682 16.0738 5.59418 16.303 5.54567C16.3169 5.52803 16.3238 5.50588 16.3224 5.48346L16.1262 5.46413L15.7281 5.54951L15.67 5.24231L15.4039 5.40346V5.40385Z" fill="#B18E3E"/>
<path fill-rule="evenodd" clip-rule="evenodd" d="M16.0371 7.15142C16.0371 7.15142 15.9846 7.20377 15.9361 7.33395C15.8987 7.29495 15.8667 7.25118 15.8408 7.20377C15.769 7.08345 15.6584 6.92998 15.4001 7.01741C15.3963 6.93587 15.3904 6.89312 15.4001 6.83488C15.4429 6.82528 15.5729 6.72045 15.703 6.56697C15.7944 6.46214 15.8798 6.34169 15.938 6.18835C15.9764 6.15917 16.0428 6.11065 16.13 6.05433C16.2543 5.96896 16.4038 5.85235 16.4271 5.7223C16.3688 5.7456 16.2446 5.80384 16.0581 5.79424C16.13 5.76121 16.2406 5.72627 16.227 5.58253C16.2562 5.56307 16.2795 5.5495 16.2795 5.5495C16.2576 5.5422 16.2346 5.53891 16.2115 5.53977C16.2076 5.52621 16.2018 5.50688 16.1688 5.51648C16.1358 5.52608 16.1304 5.52621 16.126 5.53977C16.1125 5.54374 16.0678 5.53978 16.0348 5.5632C16.0017 5.58662 15.9105 5.66406 15.8755 5.67763C15.8891 5.65434 15.9084 5.61952 15.9084 5.61952C15.9084 5.61952 15.8133 5.62912 15.7454 5.65792C15.6211 5.70067 15.4775 5.77837 15.3318 5.85401C15.3454 5.83072 15.3512 5.81562 15.3608 5.81126C15.3704 5.80691 15.3939 5.80166 15.3939 5.7977C15.3939 5.79373 15.3843 5.75929 15.39 5.74534C15.4336 5.65309 15.485 5.56474 15.5436 5.48128C15.6116 5.38989 15.6252 5.25984 15.6252 5.25984L15.9223 5.11033L16.7572 4.91833L17.299 4.95136L17.2311 5.32614L16.9111 5.98048L16.6373 6.57657L16.3246 6.94176L16.0372 7.15142H16.0371Z" fill="#543E26"/>
<path fill-rule="evenodd" clip-rule="evenodd" d="M17.3905 5.52953C17.3905 5.52953 17.0642 5.93337 16.973 5.99558C17.0312 5.87129 17.3905 5.13145 17.5206 4.92563C17.4915 4.90233 17.4526 4.90233 17.5438 4.54163C17.4663 4.72403 17.439 4.81926 17.375 4.86777C17.311 4.91628 17.3031 4.90079 17.2598 4.90079C17.268 4.88602 17.2713 4.86906 17.2694 4.85228C17.2694 4.85228 16.9956 4.81926 16.8086 4.81926C16.6216 4.81926 16.2514 4.92025 16.0454 5.00179C15.8824 5.06975 15.7911 5.06975 15.7329 5.11238C15.6746 5.16089 15.6416 5.21337 15.6124 5.22694C15.5891 5.24051 15.4785 5.27545 15.4532 5.31231C15.4299 5.35071 15.3911 5.39385 15.3911 5.40358C15.3911 5.41331 15.3814 5.427 15.4105 5.41715C15.4201 5.41331 15.4921 5.37439 15.5736 5.32588C15.6842 5.2638 15.8182 5.19199 15.9154 5.14924C16.193 5.03852 16.2805 5.05798 16.4046 5.03468C16.5347 5.01139 16.7212 4.95699 16.8453 4.95699C16.9696 4.95315 17.2046 4.95699 17.259 4.96671C17.2357 4.98617 17.2163 5.00947 17.226 5.091C17.226 5.1143 17.2066 5.13951 17.1876 5.19583C17.1295 5.35507 17.0188 5.61913 16.9572 5.75315C16.8718 5.93555 16.7748 6.08902 16.7268 6.18412C16.6788 6.27923 16.5732 6.52972 16.4686 6.66374C16.364 6.79775 16.3094 6.87929 16.2766 6.90847C16.2438 6.93766 16.0086 7.11033 16.0261 7.17254C16.0689 7.15897 16.3388 7.05734 16.5348 6.83667C16.7308 6.61599 16.7698 6.48134 16.9232 6.36089C17.0765 6.24044 17.197 6.03859 17.2688 5.87167C17.3289 5.71628 17.3154 5.66777 17.391 5.52991L17.3905 5.52953Z" fill="#806031"/>
<path fill-rule="evenodd" clip-rule="evenodd" d="M10.3592 8.54374C10.3592 8.54374 10.3165 8.72038 10.2193 8.8078C10.1242 8.89331 9.95525 8.96704 9.93592 9.11078C9.91262 9.2544 10.1049 9.32633 10.1049 9.32633C10.1049 9.32633 9.99992 9.49913 9.99992 9.62918C9.99992 9.7632 9.99608 9.78841 10.0096 9.91654C9.99425 9.92644 9.98115 9.93954 9.97125 9.95494C9.97125 9.95494 9.98085 10.0792 10.0761 10.1568C10.1713 10.2344 10.2527 10.2811 10.3012 10.2616C10.3086 10.2775 10.3151 10.2937 10.3207 10.3103C10.3207 10.3103 10.3926 10.1277 10.4411 9.96851C10.4897 9.80543 10.5324 9.8286 10.5517 9.60921C10.5711 9.38982 10.7822 9.01312 10.7822 9.01312L10.9262 8.6912L10.6913 8.50867L10.3592 8.54361V8.54374Z" fill="#B6903C"/>
<path fill-rule="evenodd" clip-rule="evenodd" d="M10.796 8.86017C10.7476 8.90989 10.7029 8.96311 10.6623 9.0194C10.6002 9.1049 10.5517 9.18247 10.4604 9.21562C10.3692 9.24878 10.3109 9.24852 10.3167 9.33991C10.3224 9.4313 10.4079 9.46996 10.4565 9.51655C10.5089 9.56506 10.5517 9.6466 10.5284 9.73799C10.5574 9.72442 10.6099 9.70881 10.6584 9.60398C10.707 9.49914 11.0463 8.8603 11.0463 8.8603H10.796V8.86017Z" fill="#685026"/>
<path fill-rule="evenodd" clip-rule="evenodd" d="M12.1345 7.38638C12.1345 7.38638 12.1635 7.30882 12.1345 7.2525C12.1053 7.19426 11.9287 7.1748 11.8412 7.10875C11.75 7.04079 11.6393 6.99355 11.548 7.02338C11.5616 6.99035 11.616 6.91842 11.5713 6.90293C11.5285 6.88936 11.3694 6.96117 11.3267 6.99419C11.2839 7.02722 11.1868 7.066 11.1675 7.08943C11.1481 7.11285 11.115 7.15739 11.0955 7.13794C11.0761 7.12437 11.0665 7.08943 11.0334 7.10875C11.0004 7.12808 10.8414 7.25826 10.8121 7.33403C10.7828 7.40981 10.7169 7.57877 10.5189 7.77089C10.3209 7.96302 10.2354 8.08743 10.2936 8.15924C10.3518 8.23105 10.3791 8.1787 10.3888 8.24078C10.3963 8.30172 10.393 8.3635 10.3791 8.4233C10.3558 8.5243 10.317 8.6194 10.3694 8.63885C10.5034 8.68161 10.6336 8.60045 10.6626 8.62529C10.7209 8.67764 10.6296 8.86605 10.7675 8.90292C10.9074 8.94132 11.0452 8.86989 11.0452 8.86989L11.5539 8.5961L12.0432 8.33793L12.2936 7.8427L12.1593 7.42914L12.1337 7.38638H12.1345Z" fill="#D4B968"/>
<path fill-rule="evenodd" clip-rule="evenodd" d="M11.6543 8.5689C11.6543 8.5689 11.5688 8.43885 11.6737 8.32416C11.7787 8.20948 11.9281 8.16109 11.9863 8.08928C11.9752 8.07561 11.9604 8.0655 11.9436 8.06023C11.9822 7.99105 12.0412 7.93542 12.1125 7.90087C12.0835 7.87181 12.0446 7.84852 12.0019 7.84852C11.9067 7.84852 11.8483 7.90676 11.761 7.90676C11.6757 7.90676 11.6659 7.86401 11.6659 7.86401C11.6659 7.86401 11.8097 7.85044 11.796 7.78631C11.7824 7.71834 11.7576 7.71834 11.7576 7.71834C11.7576 7.71834 12.0352 7.60314 12.0837 7.5417C12.1322 7.48026 12.1265 7.40769 12.1362 7.37863C12.1691 7.37863 12.3613 7.27764 12.439 7.32039C12.5167 7.36314 12.4623 7.47962 12.4623 7.47962C12.4623 7.47962 12.6975 7.30286 12.8173 7.12955C12.9221 7.13927 12.9709 7.05774 13.0477 7.05774C13.1429 7.05774 13.2924 7.18779 13.3215 7.46542C13.3409 7.62465 13.37 7.71591 13.3409 7.99751C13.3273 8.15674 13.3312 8.4967 13.3793 8.66541C13.4122 8.79942 13.4899 8.78586 13.4899 8.78586C13.478 8.82669 13.4543 8.86314 13.4219 8.89069C13.3694 8.9392 13.3637 9.06745 13.3695 9.11596C13.3772 9.15143 13.3869 9.18643 13.3986 9.2208C13.3986 9.2208 13.3366 9.2926 13.3209 9.34124C13.3074 9.38975 13.2434 9.42278 13.1967 9.42278C13.1499 9.42278 13.1734 9.41881 13.1113 9.42278C13.0492 9.42675 13.0297 9.43635 12.9908 9.42278C12.9519 9.40921 12.9229 9.39359 12.9385 9.26918C12.9521 9.14489 12.4589 8.85561 12.4589 8.85561L11.6525 8.56826L11.6543 8.5689Z" fill="#CCA849"/>
<path fill-rule="evenodd" clip-rule="evenodd" d="M10.7282 9.79612C10.7282 9.79612 10.9048 10.0311 11.6311 10.0311C11.9767 10.0311 12.0971 9.99811 12.1687 9.97865C12.2464 9.9592 12.5376 9.84476 12.8308 9.49903C13.0949 9.18646 13.0367 9.05833 13.0367 9.05833L12.8831 9.03503L12.3839 9.103L10.9067 9.73212L10.7275 9.79612H10.7282Z" fill="#585136"/>
<path fill-rule="evenodd" clip-rule="evenodd" d="M11.2697 9.85428C11.2697 9.85428 10.6406 9.99418 10.6406 9.59612C10.6406 9.20778 11.029 8.79998 11.1261 8.72818C11.2271 8.65625 11.4679 8.57458 11.4679 8.57458H12.0485L12.1591 8.86782L12.1106 9.50076L11.2697 9.85416V9.85428Z" fill="#252211"/>
<path fill-rule="evenodd" clip-rule="evenodd" d="M11.8504 8.69323C11.8504 8.69323 11.7301 8.5825 11.4563 8.73163C11.1825 8.88075 10.9611 9.19244 10.9475 9.47545C10.9339 9.72582 11.1533 9.91232 11.4951 9.92205C11.7494 9.93165 11.9029 9.90259 11.9806 9.88365C11.9611 9.86035 11.8601 9.73414 11.8601 9.73414L11.8505 8.69335L11.8504 8.69323Z" fill="#C3B378"/>
<path fill-rule="evenodd" clip-rule="evenodd" d="M11.732 8.75521C11.732 8.75521 11.703 8.73192 11.6168 8.77851C11.545 8.81691 11.4402 8.91841 11.3586 8.99021C11.3062 9.03296 11.2731 9.05229 11.2434 9.08531C11.123 9.22905 11.022 9.46405 11.0804 9.58053C11.1387 9.697 11.3309 9.83101 11.8202 9.73975L11.7306 8.75534L11.732 8.75521Z" fill="#E6D89C"/>
<path fill-rule="evenodd" clip-rule="evenodd" d="M11.5728 8.99606C11.5728 8.99606 11.4951 9.11651 11.4951 9.30877C11.4951 9.50487 11.6058 9.81745 12.0136 9.84075C12.3262 9.8602 12.5359 9.39031 12.7631 9.20778C12.9359 9.068 13.0407 9.06403 13.0407 9.06403C13.0407 9.06403 12.8641 8.87203 12.3923 8.62332C11.9262 8.37282 11.4039 8.33979 11.1204 8.72431C11.2544 8.71458 11.6874 8.60386 11.6874 8.60386L11.8991 8.67183L11.5728 8.99619V8.99606Z" fill="#252211"/>
<path fill-rule="evenodd" clip-rule="evenodd" d="M12.1826 9.25045C12.169 9.2214 12.1593 9.18248 12.2156 9.17288C12.2719 9.16328 12.2971 9.16892 12.3165 9.21128C12.336 9.25365 12.3549 9.28898 12.3261 9.30651C12.2971 9.322 12.2213 9.30651 12.1824 9.2502L12.1826 9.25045ZM12.0913 8.97666C12.0913 8.97666 12.0719 8.99023 12.0816 8.9631C12.0854 8.9302 12.1108 8.87183 12.1728 8.88553C12.2349 8.89922 12.2215 8.96706 12.2112 8.98652C12.201 9.00598 12.1492 9.03887 12.1102 9.02492C12.1053 9.02366 12.1008 9.02125 12.0969 9.01789C12.0931 9.01454 12.0901 9.01032 12.0882 9.0056C12.0863 9.00087 12.0856 8.99577 12.086 8.99069C12.0865 8.98562 12.0881 8.98073 12.0908 8.97641L12.0913 8.97666Z" fill="#6F674D"/>
<path fill-rule="evenodd" clip-rule="evenodd" d="M6.83521 9.10083C6.83521 9.10083 6.98881 9.21603 7.16724 9.21155C7.34388 9.20759 7.57108 9.02519 7.67591 8.90858C7.73799 8.84061 7.79111 8.7688 7.84871 8.71248C7.89735 8.66397 7.93024 8.64067 7.95354 8.60765C7.98656 8.56925 8.02151 8.49706 8.03904 8.47363C7.99629 8.50666 7.93421 8.56502 7.87008 8.60381C7.808 8.64221 7.67399 8.7144 7.61959 8.73386C7.56724 8.75331 7.02349 9.04106 7.02349 9.04106L6.83521 9.10083Z" fill="#AC924C"/>
<path fill-rule="evenodd" clip-rule="evenodd" d="M7.06995 7.66607C7.06995 7.66607 7.15532 7.60783 7.32044 7.57084C7.47967 7.53244 7.80006 7.50287 7.80006 7.50287L8.06412 7.61807L8.16895 8.01615L7.97695 8.42985L7.73235 8.58345L7.45459 8.13685L7.07059 7.66684L7.06995 7.66607Z" fill="#9F8E57"/>
<path fill-rule="evenodd" clip-rule="evenodd" d="M6.72433 8.0214L6.63293 8.08963C6.63293 8.08963 6.65636 8.04688 6.67569 7.91682C6.69501 7.78677 6.79614 7.47022 6.94372 7.28769C7.0913 7.10516 7.08747 7.11489 7.08747 7.11489C7.07388 7.11241 7.05993 7.11284 7.04653 7.11618C7.03314 7.11951 7.0206 7.12566 7.00977 7.13422C7.02922 7.09121 7.15351 6.93761 7.2778 6.86081C7.40209 6.784 7.4506 6.75981 7.58065 6.8224C7.7107 6.885 7.74372 6.91751 7.83896 6.91367C7.93419 6.90983 8.0156 6.80884 8.0156 6.80884C8.0156 6.80884 8.03505 6.87092 7.96325 7.01466C7.89144 7.15841 7.60792 7.45154 7.60792 7.45154L7.01758 7.85538L6.72433 8.02179V8.0214Z" fill="#EAC970"/>
<path fill-rule="evenodd" clip-rule="evenodd" d="M7.16116 7.61749C7.16116 7.61749 7.58842 7.67573 7.71847 7.55541C7.72231 7.56898 7.73792 7.56898 7.73792 7.5787C7.73688 7.58604 7.73346 7.59282 7.7282 7.59803C7.74234 7.59577 7.75663 7.59449 7.77095 7.59419C7.78805 7.59928 7.80564 7.60254 7.82343 7.60392C7.83776 7.60361 7.85204 7.60228 7.86618 7.59995C7.86483 7.6096 7.86155 7.61888 7.85654 7.62724C7.85152 7.6356 7.84488 7.64286 7.837 7.64859C7.85645 7.64859 7.8754 7.65243 7.8754 7.66792C7.8754 7.68341 7.87924 7.73013 7.85594 7.73986C7.83664 7.74519 7.8161 7.74379 7.7977 7.73589C7.79924 7.77265 7.80923 7.80857 7.82688 7.84085C7.86528 7.91266 7.9472 7.99445 8.05728 7.9709C8.05728 7.9709 8.1154 8.11067 7.87079 8.42133C7.83789 8.46408 7.80282 8.52232 7.7602 8.57083C7.74335 8.60754 7.73048 8.64595 7.7218 8.68539C7.7218 8.68539 8.13549 8.52616 8.25389 8.16302C8.37434 7.79797 8.39764 7.4388 8.37434 7.10293C8.37037 7.0077 8.35488 6.93986 8.33159 6.89122C8.27335 6.77077 8.11015 6.79022 8.04423 6.85819C7.949 6.95342 7.78976 7.19022 7.56845 7.3533C7.34317 7.51637 7.33357 7.5453 7.16064 7.61749H7.16116Z" fill="#D7BC6B"/>
<path fill-rule="evenodd" clip-rule="evenodd" d="M6.64855 8.1418C6.64855 8.1418 6.56701 8.19031 6.52426 8.3722C6.4815 8.55857 6.56266 8.78577 6.60963 8.85758C6.65661 8.92938 6.76324 9.12561 6.98442 9.13534C7.03917 9.13505 7.09331 9.12382 7.14366 9.10231C7.22087 9.06691 7.2933 9.02188 7.35921 8.9683C7.45445 8.89649 7.53202 8.83441 7.52229 8.82852C7.49899 8.81879 6.93591 8.35274 6.93591 8.35274L6.7242 8.11646L6.64842 8.14206L6.64855 8.1418Z" fill="#585136"/>
<path fill-rule="evenodd" clip-rule="evenodd" d="M7.18089 8.91455C7.18089 8.91455 7.29546 8.90494 7.36343 8.86219C7.4314 8.81944 6.96533 8.35736 6.96533 8.35736L6.99836 8.85656L7.18089 8.91455Z" fill="#453A25"/>
<path fill-rule="evenodd" clip-rule="evenodd" d="M6.68541 8.10673C6.68541 8.10673 6.62717 8.21745 6.62717 8.24663C6.61744 8.34174 6.64662 8.64074 6.66992 8.73585C6.69321 8.83684 6.81942 8.99018 6.98262 8.99018C7.08348 8.99018 7.22338 8.9281 7.22338 8.91261C7.22338 8.89316 7.07964 8.87422 7.04086 8.8019C7.01756 8.7635 7.00783 8.66801 7.00246 8.5715C6.99862 8.50942 6.99862 8.44145 7.02192 8.4179C7.07439 8.35966 7.08399 8.19261 7.08399 8.19261L7.27036 7.84637H7.02524L6.732 8.0289L6.68541 8.10673Z" fill="#84754B"/>
<path fill-rule="evenodd" clip-rule="evenodd" d="M6.61377 8.21367C6.61377 8.21367 6.80577 7.95934 6.97882 7.90097C7.15187 7.8426 7.22931 7.87767 7.22931 7.87767L7.12832 8.13598L6.98458 8.29521L6.9943 8.37674C6.9943 8.37674 6.97088 8.59229 7.11462 8.74179C7.25836 8.8913 7.36511 8.88553 7.42732 8.88553C7.48952 8.88553 7.66808 8.83306 7.75934 8.61751C7.84088 8.41565 7.90884 8.15671 7.74577 7.89713C7.58642 7.63883 7.30495 7.62885 7.25055 7.62885C7.19616 7.62885 6.76903 7.65022 6.61377 8.21329V8.21367Z" fill="#252211"/>
<path fill-rule="evenodd" clip-rule="evenodd" d="M11.5436 9.07757C11.4718 9.04455 11.5398 8.8427 11.6116 8.78049C11.6834 8.71828 11.7747 8.64661 11.934 8.63675C11.9921 8.63291 12.0485 8.66977 12.0389 8.70869C12.0253 8.78049 11.9243 8.88148 11.833 8.95329C11.7068 9.05236 11.6252 9.11444 11.5436 9.07757Z" fill="#F7F7E7"/>
<path fill-rule="evenodd" clip-rule="evenodd" d="M7.66018 7.97668C7.71267 7.97284 7.78064 8.01508 7.79421 8.07192C7.80778 8.134 7.76118 8.25829 7.66018 8.25829C7.57864 8.25829 7.53589 8.1573 7.53589 8.12824C7.53681 8.10435 7.54348 8.08103 7.55535 8.06027C7.55919 8.05438 7.56891 7.98641 7.66018 7.97668Z" fill="#F8F6DE"/>
<path fill-rule="evenodd" clip-rule="evenodd" d="M6.90292 8.02142C6.90292 8.02142 6.76891 8.0835 6.70683 8.21341C6.66247 8.30935 6.64905 8.4167 6.66843 8.5206C6.67815 8.56911 6.72667 8.68943 6.75969 8.73218C6.79271 8.77493 6.83739 8.80411 6.87041 8.80014C6.90343 8.79617 6.97127 8.70888 6.97127 8.65653C6.97127 8.60418 6.97524 8.38275 7.03924 8.26231C7.09556 8.14199 6.90331 8.02155 6.90331 8.02155L6.90292 8.02142Z" fill="#D4C38B"/>
<path fill-rule="evenodd" clip-rule="evenodd" d="M6.92239 8.01162C6.89909 8.02519 6.86031 8.04464 6.86991 8.06986C6.87963 8.09315 6.96117 8.10825 6.99035 8.16508C7.02338 8.22332 7.02338 8.2854 7.01365 8.31458C7.03901 8.30253 7.06203 8.28606 7.08162 8.26594C7.12437 8.21743 7.17672 8.15152 7.2214 8.15152C7.25058 8.15152 7.27964 8.16508 7.3069 8.16508C7.34965 8.16508 7.39228 8.15152 7.39817 8.10685C7.40777 8.04861 7.31663 7.99613 7.26415 8.00586C7.27388 7.96746 7.28745 7.91076 7.24469 7.87185C7.20194 7.83294 7.06805 7.90103 7.03887 7.92049C7.00968 7.93994 6.92239 8.01175 6.92239 8.01175V8.01162Z" fill="#E2D59D"/>
<path fill-rule="evenodd" clip-rule="evenodd" d="M10.0078 12.0912L10.2952 12.0063L10.3767 12.0646C10.3767 12.0646 10.4348 12.1889 10.5262 12.2044C10.497 12.2664 10.4212 12.3196 10.4252 12.3636C10.4292 12.4076 10.468 12.4413 10.468 12.4413C10.468 12.4413 10.2097 12.8684 10.7185 13.2989C10.598 13.3474 10.4447 13.4141 10.3631 13.4525C10.4212 13.4661 10.5455 13.4909 10.598 13.538C10.6505 13.5851 10.6505 13.6001 10.699 13.6293C10.7475 13.6584 10.7766 13.6972 10.767 13.7146C10.7339 13.6952 10.6232 13.6371 10.6039 13.6913C10.5846 13.7456 10.1243 13.7244 10.1243 13.7244L9.34758 13.8739C9.34758 13.8739 9.37663 13.7962 9.2951 13.7244C9.19999 13.639 9.08351 13.7282 8.95923 13.6331C8.79615 13.5088 8.79027 13.3651 8.73792 13.3108C8.79027 13.2778 8.89715 13.2293 9.15148 13.1956C9.14176 13.1761 9.10873 13.1179 9.12819 13.0655C9.15148 12.9976 9.24851 12.9548 9.21945 12.8735C9.2622 12.8638 9.28153 12.8638 9.38841 12.7298C9.4894 12.5958 9.55148 12.5667 9.62918 12.557C9.70688 12.5473 9.75347 12.557 9.89721 12.423C9.99807 12.3279 9.96518 12.2463 9.96518 12.2463C9.96518 12.2463 10.0311 12.225 10.0079 12.091L10.0078 12.0912Z" fill="#CBAC5A"/>
<path fill-rule="evenodd" clip-rule="evenodd" d="M9.15939 12.1344C9.16323 12.115 9.17884 12.1052 9.28367 12.115C9.38851 12.1247 10.0526 12.0529 10.2332 12.0432C10.4157 12.0296 11.0584 12.0392 11.3711 12.1052C11.6838 12.1713 12.0002 12.249 12.1536 12.2877C12.3072 12.3305 12.3556 12.3458 12.3497 12.3653C12.3458 12.3848 12.3113 12.4037 12.2914 12.3983C12.2721 12.3945 11.7633 12.2391 11.6061 12.2063C11.4489 12.1736 10.9051 12.0859 10.6077 12.0911C10.3301 12.0951 10.2194 12.0873 9.98448 12.1144C9.74947 12.1436 9.36111 12.1824 9.24463 12.1669C9.12943 12.1534 9.15324 12.1534 9.15913 12.1339L9.15939 12.1344Z" fill="#D6BC6F"/>
<path fill-rule="evenodd" clip-rule="evenodd" d="M10.7223 13.6563C10.7223 13.6563 11.1204 13.8719 11.2641 14.1359C11.3689 14.332 11.202 14.4292 11.202 14.4292C11.202 14.4292 11.4273 14.4292 11.3981 14.5534C11.3846 14.631 11.0098 14.8407 10.7593 14.9514C10.505 15.0621 10.5147 15.0564 10.3904 15.0757C10.2699 15.0951 9.93984 15.0373 9.87187 15.1339C9.8039 15.2306 9.83347 15.3301 9.85241 15.3456C9.87187 15.3592 10.0292 15.3787 10.0292 15.3787C10.0292 15.3787 9.99616 15.4699 9.67001 15.4796C9.34387 15.4894 9.26221 15.5125 9.24275 15.5476C9.2233 15.5805 9.30483 15.5612 9.45446 15.586C9.60397 15.6093 9.81363 15.6244 9.81363 15.6244C9.81363 15.6244 9.74566 15.6826 9.56902 15.7292C9.36704 15.7816 9.0505 15.8302 8.95539 15.8885C9.00391 15.9215 9.07584 15.97 9.10899 15.9738C9.02746 15.9933 8.91277 16.036 8.89344 16.0515C8.9225 16.071 8.96141 16.0943 8.96141 16.0943C8.96141 16.0943 8.79821 16.2904 8.70311 16.339C8.608 16.3877 8.06042 16.6419 7.87201 16.5934C7.40212 16.4691 7.34388 15.9545 7.22932 15.9157C7.05652 15.8575 6.97499 15.9738 6.82152 15.8923C6.88949 15.8438 6.92648 15.8147 6.99829 15.7817C6.92059 15.7433 6.51867 15.4885 6.51867 15.4885C6.47664 15.3969 6.42999 15.3075 6.3789 15.2206C6.3012 15.0866 6.1869 14.9079 6.10114 14.7506C5.91477 14.405 5.90504 14.2457 5.73608 14.0496C5.76527 14.0112 5.86613 14.0166 5.86613 14.0166L7.2818 14.4827L9.792 14.5554L10.4448 13.6234L10.7224 13.6564L10.7223 13.6563Z" fill="#DFC677"/>
<path fill-rule="evenodd" clip-rule="evenodd" d="M7.00403 15.0776C7.01918 15.0945 7.03683 15.1089 7.05638 15.1204C7.10502 15.1534 7.17683 15.1923 7.22534 15.2504C7.2448 15.2213 7.29331 15.1689 7.37894 15.2504C7.46457 15.3319 7.57094 15.2738 7.63712 15.2932C7.70508 15.3166 7.70892 15.3262 7.70892 15.3262C7.70892 15.3262 7.74732 15.2932 7.83321 15.2582C7.88569 15.2388 7.94777 15.2252 8.01574 15.2059C8.07782 15.1923 8.14579 15.1728 8.19251 15.1728C8.23526 15.2019 8.3886 15.3648 9.00416 15.1243C9.58476 14.899 9.71865 14.8738 9.8158 14.9086C9.82553 14.8853 9.83526 14.8407 9.98476 14.8466C9.98476 14.7845 9.86048 14.5728 9.86048 14.5728L9.17504 14.3379H8.80012L7.6759 14.5437L7.05292 14.8992L7.00441 15.0784L7.00403 15.0776Z" fill="#C4A859"/>
<path fill-rule="evenodd" clip-rule="evenodd" d="M6.62915 14.6835C6.62915 14.6835 6.64272 14.7883 6.79811 14.8991C6.95171 15.0097 6.99997 15.0757 6.99997 15.0757C6.99997 15.0757 7.02915 15.0373 7.05245 14.9981C7.07574 14.9554 7.0952 14.9069 7.13398 14.8933C7.21168 14.8603 7.38832 14.9224 7.42723 14.9126C7.46025 14.903 7.45053 14.8351 7.48547 14.8351C7.56701 14.8311 7.61936 14.8874 7.64854 14.8874C7.67773 14.8874 7.74941 14.8836 7.75913 14.8681C7.76886 14.8526 7.7727 14.6913 7.88342 14.6136C8.00387 14.5282 8.15145 14.5651 8.19062 14.5846C8.19062 14.6136 8.19446 14.6856 8.27216 14.6894C8.34985 14.6932 8.35753 14.6797 8.42576 14.703C8.49398 14.7263 8.57526 14.6991 8.61213 14.8136C8.64515 14.804 8.72285 14.7942 8.70339 14.6835C8.74179 14.6545 8.77533 14.635 8.85699 14.5204C8.87645 14.4914 8.90934 14.4584 8.93469 14.4156C9.00265 14.4156 9.08419 14.402 9.19286 14.4971C9.15984 14.5204 9.14038 14.5355 9.13078 14.5592C9.1592 14.5874 9.18515 14.6179 9.20835 14.6505C9.23753 14.6889 9.25699 14.736 9.29385 14.7457C9.37539 14.769 9.5094 14.736 9.65891 14.7457C9.80265 14.7554 9.92297 14.8078 9.97545 14.8408C9.99491 14.8312 9.99491 14.8273 10.0434 14.837C10.0919 14.8467 10.1288 14.8505 10.0764 14.7885C10.1055 14.802 10.1385 14.8312 10.1677 14.802C10.1969 14.7729 10.2201 14.7302 10.3016 14.7205C10.3831 14.7108 10.4123 14.7243 10.4453 14.639C10.4881 14.5341 10.3405 14.5341 10.3405 14.5341C10.3405 14.5341 10.4085 14.4719 10.4843 14.3904C10.5755 14.305 10.6803 14.1943 10.7056 14.0584C10.7483 13.8079 10.5037 13.775 10.5037 13.775L9.31728 14.14L7.86678 14.0681L6.62992 14.6836L6.62915 14.6835Z" fill="#927D49"/>
<path fill-rule="evenodd" clip-rule="evenodd" d="M5.56313 11.2564C5.56313 11.2564 5.52473 11.3049 5.50105 11.4194C5.47738 11.534 5.48749 11.5204 5.46803 11.602C5.44858 11.6835 5.2096 12.4952 5.2992 12.769C5.3888 13.0428 5.54394 13.1438 5.64096 13.3651C5.66041 13.4136 5.67936 13.4428 5.68947 13.4855C5.72249 13.6291 5.69344 13.7399 5.73222 13.8836C5.74579 13.9321 5.78086 13.9884 5.83321 14.0467C5.94841 14.167 6.13619 14.2816 6.21721 14.3631C6.33164 14.4836 6.49484 14.7283 6.70258 14.7515C6.8133 14.765 6.97061 14.7184 7.10066 14.6409C7.21586 14.5689 7.28703 14.4681 7.40786 14.4105C7.49324 14.3677 7.5845 14.3522 7.66603 14.3328C7.83499 14.2997 7.98847 14.2944 8.07973 14.3133C8.2195 14.3425 8.54961 14.4435 8.73253 14.4435C8.87545 14.4412 9.01758 14.4216 9.15582 14.3853C9.43345 14.3037 9.76932 14.1638 9.99076 14.1017C10.1208 14.0633 10.2256 14.0532 10.3325 14.0299C10.515 13.9872 10.6684 13.9289 10.7558 13.8182C10.6976 13.7502 10.6258 13.6454 10.2373 13.6492C9.79658 13.659 9.28779 13.9036 9.03729 13.9425C8.7868 13.9814 8.67813 14.0143 8.39845 13.9133C8.12427 13.8113 8.11518 13.7438 8.11518 13.7438C8.11518 13.7438 7.82731 13.5425 7.70687 13.0292C7.58642 12.5159 7.70687 12.1419 8.01957 11.7864C8.10111 11.6951 8.08165 11.6136 8.08165 11.6136C8.08165 11.6136 8.28747 11.336 8.23115 11.076C8.16907 10.8177 7.77099 10.8702 7.77099 10.8702L5.56326 11.2564H5.56313Z" fill="#6E6342"/>
<path fill-rule="evenodd" clip-rule="evenodd" d="M5.89514 12.1204C5.87803 12.1526 5.86997 12.1888 5.87185 12.2253C5.87569 12.2776 5.8913 12.3456 6.04849 12.499C6.1825 12.6329 6.15332 12.7824 6.15332 12.7824C6.15332 12.7824 6.22077 12.796 6.40381 12.7104C6.54756 12.6424 6.59581 12.7628 6.59581 12.7628C6.63766 12.7409 6.68301 12.7264 6.72983 12.7201C6.77225 12.7162 6.81331 12.7031 6.85015 12.6817C6.85015 12.6817 7.01911 12.8545 7.16669 12.936C7.30071 13.0079 7.3784 13.0565 7.44445 13.0079C7.50653 12.9652 7.50653 12.8778 7.50256 12.839C7.48716 12.8032 7.46766 12.7693 7.44445 12.738C7.4017 12.6759 7.33373 12.604 7.32925 12.546C7.31952 12.4121 7.43024 12.2528 7.40682 12.214C7.38339 12.1752 7.29623 12.1655 7.08067 12.2432C6.85744 12.3169 5.89425 12.1208 5.89425 12.1208L5.89514 12.1204Z" fill="#39331F"/>
<path fill-rule="evenodd" clip-rule="evenodd" d="M6.40376 12.9884C6.40376 12.9884 6.2932 12.8836 6.33198 12.3748C6.37891 12.3741 6.42577 12.3787 6.4717 12.3884C6.4717 12.3884 6.53197 12.7826 6.40376 12.9884Z" fill="#292311"/>
<path fill-rule="evenodd" clip-rule="evenodd" d="M5.61553 10.868C5.63096 10.8565 5.64527 10.8437 5.65828 10.8296C5.61988 10.9014 5.4426 11.1887 5.58634 11.6412C5.73009 12.0916 6.09117 12.4275 6.53585 12.4431C6.98052 12.4587 7.21425 12.2411 7.48151 11.915C7.58634 11.7849 7.70679 11.6217 7.81354 11.5111C7.97277 11.3382 8.09706 11.2897 8.09706 11.1228C8.09706 10.781 7.74749 10.6276 7.23293 10.4742C6.71837 10.3209 6.25425 10.3398 6.01348 10.4448C5.7786 10.5592 5.67761 10.6797 5.6154 10.8681L5.61553 10.868Z" fill="#252211"/>
<path fill-rule="evenodd" clip-rule="evenodd" d="M7.26796 13.1418L7.30636 13.1223C7.30636 13.1223 7.31596 12.9687 7.37816 12.9728C7.44023 12.9825 7.46941 13.0642 7.46352 13.0933C7.45968 13.1223 7.4442 13.171 7.382 13.1651C7.30047 13.167 7.26758 13.1418 7.26758 13.1418H7.26796Z" fill="#3F3824"/>
<path fill-rule="evenodd" clip-rule="evenodd" d="M7.09509 12.4893C7.09509 12.4893 7.13349 12.4758 7.18047 12.5223C7.21887 12.5223 7.38629 12.5029 7.43877 12.5359C7.49125 12.5689 7.50674 12.598 7.50674 12.598C7.50674 12.598 7.31064 12.6407 7.20376 12.598C7.09509 12.5611 7.09509 12.4893 7.09509 12.4893Z" fill="#2D2815"/>
<path fill-rule="evenodd" clip-rule="evenodd" d="M7.95924 12.5184C7.95924 12.5086 7.85442 12.4368 7.74371 12.4134C7.72426 12.4096 7.72029 12.4232 7.70531 12.4232C7.69559 12.4193 7.69175 12.3901 7.69175 12.3901L7.62878 12.4233C7.62878 12.4233 7.61905 12.4368 7.65207 12.4617C7.68112 12.485 7.72976 12.5044 7.74333 12.5432C7.75689 12.582 7.75689 12.5955 7.76278 12.6014C7.76662 12.6052 7.83458 12.6014 7.8676 12.582C7.90062 12.5625 7.96282 12.5308 7.95885 12.518L7.95924 12.5184Z" fill="#82764F"/>
<path fill-rule="evenodd" clip-rule="evenodd" d="M6.97876 12.9126C6.97876 12.9126 6.99809 12.7787 7.12826 12.7729C7.26215 12.7631 7.2875 12.8932 7.2875 12.8932L7.2098 12.9709C7.2098 12.969 7.15156 12.8874 6.9794 12.9126H6.97876Z" fill="#2D2816"/>
<path fill-rule="evenodd" clip-rule="evenodd" d="M7.82349 12.3359C7.82349 12.3359 7.75156 12.4136 7.59246 12.4369C7.57889 12.4174 7.54971 12.3786 7.59246 12.3165C7.63521 12.2544 7.68372 12.235 7.73223 12.2543C7.75363 12.2578 7.7736 12.2673 7.78977 12.2817C7.80594 12.2962 7.81764 12.315 7.82349 12.3359Z" fill="#574F35"/>
<path fill-rule="evenodd" clip-rule="evenodd" d="M8.11651 12.4311C8.12048 12.4116 8.10691 12.4078 8.11651 12.3981C8.12611 12.3883 8.17872 12.369 8.18845 12.3786C8.19229 12.3826 8.18845 12.3981 8.18845 12.417C8.18845 12.4359 8.18845 12.4554 8.17872 12.4693C8.16515 12.4888 8.12637 12.4985 8.10691 12.4928C8.08746 12.487 8.08362 12.4598 8.08362 12.4544C8.09322 12.4505 8.11651 12.4408 8.11651 12.4311ZM8.44803 12.2214C8.44803 12.2117 8.48106 12.1923 8.50051 12.1923C8.52957 12.1923 8.52957 12.2156 8.53354 12.2214C8.54314 12.2253 8.54314 12.2175 8.55287 12.235C8.56259 12.2525 8.57629 12.2835 8.56643 12.303C8.55658 12.3224 8.51792 12.3359 8.50832 12.332C8.49475 12.3223 8.452 12.235 8.44803 12.2214Z" fill="#82764F"/>
<path fill-rule="evenodd" clip-rule="evenodd" d="M7.78052 12.4758C7.78052 12.4758 7.82327 12.4854 7.88151 12.534C7.86205 12.5476 7.83287 12.5631 7.83287 12.5631C7.83287 12.5631 7.82903 12.5184 7.78052 12.4756V12.4758Z" fill="#6E6342"/>
<path fill-rule="evenodd" clip-rule="evenodd" d="M7.68549 12.0486C7.67577 12.039 7.71455 12.0157 7.73785 12.0195C7.76115 12.0233 7.77087 12.039 7.79609 12.0428C7.82131 12.0466 7.82528 12.0331 7.83449 12.0233C7.84371 12.0136 7.87725 12.0195 7.88301 12.0233C7.88659 12.0276 7.88985 12.0321 7.89273 12.0369C7.89314 12.0295 7.89507 12.0223 7.89839 12.0157C7.90172 12.0091 7.90637 12.0032 7.91206 11.9985C7.91951 11.993 7.9281 11.9893 7.93719 11.9876C7.94628 11.9859 7.95563 11.9863 7.96454 11.9888C7.96838 12.0023 7.98784 12.0509 7.984 12.0606C7.98016 12.0703 7.92192 12.084 7.91206 12.0742C7.92179 12.0976 7.96454 12.1461 7.9703 12.1557C7.97606 12.1653 7.92755 12.1887 7.90822 12.1849C7.88109 12.183 7.71404 12.0858 7.68498 12.0489L7.68549 12.0486ZM7.93984 11.7262C7.93624 11.7164 7.92937 11.7082 7.92038 11.7029C7.90681 11.6991 7.86214 11.7029 7.86214 11.7262C7.86214 11.7495 7.90054 11.8798 7.94368 11.9477C7.99232 12.0157 8.02522 12.0719 8.05824 12.0875C8.06861 12.0922 8.08039 12.0928 8.09119 12.0892C8.102 12.0856 8.11104 12.078 8.11649 12.068C8.12033 12.0583 8.13005 11.9865 8.12621 11.8175C8.12237 11.6485 8.11649 11.4854 8.10676 11.4757C8.09703 11.466 8.05824 11.4661 8.04468 11.4854C8.03111 11.5048 7.94368 11.6972 7.93971 11.7262H7.93984Z" fill="#585136"/>
<path fill-rule="evenodd" clip-rule="evenodd" d="M7.76704 12.7204C7.76704 12.7204 7.69906 12.6777 7.633 12.7068C7.57091 12.736 7.57475 12.8505 7.57475 12.8505C7.58872 12.856 7.60382 12.858 7.61872 12.8563C7.63363 12.8546 7.64789 12.8493 7.66027 12.8408C7.70303 12.8118 7.75731 12.7633 7.76704 12.7205V12.7204Z" fill="#574F35"/>
<path fill-rule="evenodd" clip-rule="evenodd" d="M7.89509 12.8738C7.89125 12.8354 7.85669 12.8354 7.85669 12.8156C7.85907 12.8061 7.86456 12.7977 7.87229 12.7917C7.88002 12.7857 7.88954 12.7825 7.89931 12.7825C7.91877 12.7825 7.93771 12.8058 7.96152 12.8209C7.98482 12.8345 8.01976 12.8593 8.0236 12.8889C8.02744 12.9185 7.9852 12.9995 7.93823 12.9995C7.89125 12.9995 7.9052 12.9121 7.89547 12.8733L7.89509 12.8738ZM8.26987 12.8213C8.26987 12.8213 8.19218 12.8446 8.19794 12.8213C8.2037 12.798 8.22136 12.7923 8.24658 12.7923C8.25939 12.7789 8.27662 12.7705 8.29509 12.7688C8.30565 12.7683 8.31603 12.7718 8.32415 12.7786C8.32415 12.7786 8.37663 12.7553 8.39211 12.7688C8.4076 12.7824 8.39608 12.7824 8.40568 12.798C8.41791 12.8154 8.42593 12.8353 8.42911 12.8563C8.42911 12.8718 8.37087 12.9048 8.32415 12.899C8.26987 12.8874 8.27947 12.8311 8.26987 12.8213ZM8.72223 12.7339C8.72223 12.7339 8.74552 12.7475 8.72619 12.7631C8.71263 12.7766 8.64466 12.8015 8.58629 12.8058C8.52805 12.8058 8.4757 12.8154 8.4757 12.7961C8.4757 12.7768 8.52421 12.7379 8.55327 12.7281C8.55909 12.7208 8.56649 12.715 8.57492 12.7109C8.58334 12.7069 8.59257 12.7048 8.60191 12.7048C8.6252 12.7048 8.71634 12.6951 8.74168 12.6913C8.76498 12.6873 8.78443 12.7009 8.77074 12.7203C8.76498 12.7339 8.72223 12.7339 8.72223 12.7339ZM8.85624 12.1343C8.85624 12.1343 8.82706 12.1964 8.79416 12.1964C8.76114 12.1926 8.76114 12.1828 8.76114 12.1731C8.76114 12.1595 8.79416 12.1246 8.79019 12.1149C8.78059 12.1149 8.75717 12.1149 8.76114 12.0916C8.76114 12.0721 8.79416 12.0488 8.82322 12.0532C8.84517 12.0351 8.87251 12.0249 8.90091 12.0241C8.93394 12.0241 8.96299 12.0337 8.96299 12.0532C8.96299 12.0726 8.92459 12.1152 8.91051 12.1251C8.89503 12.1406 8.87557 12.1507 8.85624 12.1347V12.1343ZM8.41349 13.2819C8.41349 13.2819 8.37509 13.2859 8.37509 13.3052C8.37509 13.3149 8.38469 13.3149 8.39839 13.3091C8.40627 13.3087 8.41409 13.3074 8.42168 13.3052C8.42552 13.3091 8.42552 13.3285 8.45471 13.3285C8.47867 13.3252 8.50176 13.3173 8.52267 13.3052C8.54597 13.2956 8.56543 13.2857 8.56543 13.2668C8.5557 13.2338 8.53624 13.2181 8.50719 13.2181C8.4923 13.2172 8.47745 13.2206 8.46443 13.2279C8.46443 13.2279 8.45471 13.2084 8.42168 13.2279C8.38866 13.2473 8.3925 13.2473 8.40223 13.2571C8.41963 13.2725 8.41387 13.2827 8.41387 13.2827L8.41349 13.2819ZM8.1941 13.4839C8.1941 13.4741 8.24261 13.4547 8.25618 13.4606C8.26975 13.4644 8.30853 13.5382 8.30853 13.546C8.30853 13.5557 8.26002 13.579 8.24056 13.579C8.22111 13.579 8.18821 13.546 8.18821 13.5406C8.18821 13.5367 8.21151 13.531 8.21151 13.527C8.21727 13.5174 8.1941 13.494 8.1941 13.4843V13.4839ZM8.0405 13.2003C8.05023 13.1965 8.05023 13.1868 8.06379 13.177C8.06804 13.1742 8.07288 13.1724 8.07794 13.1717C8.083 13.1711 8.08814 13.1716 8.09298 13.1732C8.0964 13.1671 8.10114 13.1618 8.10685 13.1578C8.11256 13.1537 8.1191 13.151 8.126 13.1498C8.1493 13.1459 8.16875 13.1498 8.1644 13.1595C8.1644 13.1887 8.18386 13.208 8.18386 13.2313C8.18386 13.2546 8.17029 13.2838 8.12178 13.3033C8.07327 13.3168 8.00722 13.3168 7.99749 13.313C7.98776 13.3091 7.97803 13.2702 7.98776 13.2508C7.99749 13.2313 8.02463 13.2101 8.04024 13.2003H8.0405Z" fill="#82764F"/>
<path fill-rule="evenodd" clip-rule="evenodd" d="M8.1025 13.2136C8.1025 13.2136 8.06946 13.233 8.06946 13.2427C8.06653 13.2521 8.06523 13.262 8.06562 13.2718C8.06562 13.2775 8.1084 13.2679 8.11416 13.2621C8.11608 13.2582 8.1025 13.2237 8.1025 13.2136Z" fill="#6E6342"/>
<path fill-rule="evenodd" clip-rule="evenodd" d="M7.81348 13.1223C7.83281 13.1263 7.86583 13.1223 7.89105 13.1321C7.9105 13.1418 7.92407 13.1612 7.90461 13.1845C7.88516 13.2078 7.86622 13.2427 7.82308 13.2369C7.77458 13.233 7.72799 13.2078 7.72799 13.1884C7.72717 13.1761 7.72881 13.1637 7.73281 13.152C7.73681 13.1404 7.74309 13.1296 7.75128 13.1204C7.77074 13.1049 7.78033 13.1147 7.81336 13.1223H7.81348Z" fill="#585136"/>
<path fill-rule="evenodd" clip-rule="evenodd" d="M7.79016 13.1418C7.79016 13.1418 7.72808 13.1903 7.71246 13.2137C7.693 13.237 7.59789 13.3573 7.56884 13.3826C7.57849 13.3655 7.58949 13.3493 7.60173 13.334C7.56333 13.3586 7.53454 13.3956 7.5202 13.4389C7.4969 13.5108 7.65038 13.5496 7.75124 13.5788C7.85211 13.608 7.89115 13.6172 7.89115 13.6172C7.85402 13.5614 7.82214 13.5022 7.79592 13.4405C7.75752 13.3493 7.73768 13.3395 7.76289 13.2968C7.78235 13.254 7.81154 13.225 7.81154 13.192C7.79989 13.1612 7.79016 13.1418 7.79016 13.1418Z" fill="#574F35"/>
<path fill-rule="evenodd" clip-rule="evenodd" d="M5.57667 13.2952C5.5908 13.2978 5.60529 13.2978 5.61942 13.2952C5.64848 13.2912 5.95145 13.18 6.268 13.2C6.50496 13.2143 6.73984 13.2529 6.96892 13.3152C7.367 13.42 7.8621 13.6278 8.18248 13.7463C8.26786 13.7792 8.35144 13.8376 8.41288 13.8607C8.65761 13.956 8.66721 13.956 8.81096 13.9812C8.97992 14.0045 9.15271 13.9482 9.33332 13.9094C9.55463 13.8607 9.93325 13.8374 10.2653 13.7889C10.3726 13.774 10.4785 13.75 10.5818 13.7171C10.5818 13.7171 10.3178 13.9812 9.68468 14.0763C9.42878 14.1152 9.16874 14.1184 8.91195 14.086C8.70997 14.0666 8.57608 14.0374 8.47509 14.0083C8.36053 13.9753 8.12552 13.8879 7.83624 13.8163C7.63426 13.7638 7.40898 13.725 7.15081 13.6765C6.51388 13.5599 5.82269 13.426 5.57642 13.296L5.57667 13.2952Z" fill="#252211"/>
<path fill-rule="evenodd" clip-rule="evenodd" d="M4.86207 12.0952C4.70847 12.2253 4.54553 12.3496 4.38643 12.4699L3.90682 12.8384C3.74375 12.9587 3.58451 13.083 3.42132 13.2034C3.25812 13.3239 3.09517 13.4383 2.92212 13.549C3.07572 13.419 3.23866 13.2985 3.40173 13.1801C3.5648 13.0617 3.73389 12.9456 3.8912 12.8256L4.37081 12.4566C4.5358 12.3362 4.69503 12.212 4.86207 12.0955V12.0952ZM4.01357 13.4544C4.01357 13.4544 4.18637 13.3107 4.40192 13.1088C4.66982 12.8585 4.99801 12.538 5.10284 12.4799L4.01344 13.4546L4.01357 13.4544Z" fill="#CFB66C"/>
<path fill-rule="evenodd" clip-rule="evenodd" d="M4.01355 13.4543C4.09905 13.369 4.19032 13.2855 4.28158 13.2038L4.42136 13.0835C4.46411 13.0451 4.51275 13.002 4.55537 12.9592C4.64075 12.8739 4.72433 12.7825 4.80971 12.6952C4.85203 12.6513 4.89677 12.6098 4.94373 12.5709C4.9672 12.5501 4.99328 12.5325 5.02129 12.5184C5.04472 12.5048 5.06993 12.48 5.10283 12.4756C5.0835 12.5048 5.06021 12.5184 5.04075 12.5436C5.01745 12.5631 4.998 12.5864 4.97867 12.6057C4.93592 12.6484 4.88741 12.6872 4.84465 12.7261C4.75339 12.8038 4.65829 12.8797 4.56702 12.961C4.47576 13.0423 4.39038 13.13 4.29899 13.2115C4.20005 13.2951 4.10878 13.3766 4.01355 13.4547V13.4543ZM5.17477 12.6776C5.17477 12.6776 4.54181 13.2971 4.41163 13.398L5.17477 12.6776Z" fill="#CFB66C"/>
<path fill-rule="evenodd" clip-rule="evenodd" d="M5.17476 12.6776C5.11782 12.7435 5.05677 12.8058 4.99197 12.864L4.79997 13.0465C4.73789 13.1086 4.67953 13.1708 4.61361 13.2329C4.54564 13.2911 4.48356 13.3481 4.41162 13.4018L4.59799 13.2193C4.6602 13.1572 4.72817 13.1049 4.79421 13.0427L4.98058 12.8601C5.04458 12.7961 5.10679 12.7339 5.17476 12.6776ZM5.20381 13.0135C5.14547 13.1763 5.07672 13.3352 4.99799 13.4893C4.83492 13.8155 4.59031 14.2232 4.48343 14.4311L5.20381 13.0135Z" fill="#CFB66C"/>
<path fill-rule="evenodd" clip-rule="evenodd" d="M5.20382 13.0136C5.20382 13.0854 5.18436 13.1476 5.16106 13.2097C5.13835 13.2718 5.11246 13.3328 5.0835 13.3922C5.05431 13.4505 5.02129 13.5127 4.98826 13.569C4.95524 13.6253 4.91646 13.6834 4.88727 13.7418L4.69118 14.0874C4.62321 14.2026 4.55716 14.3184 4.48535 14.4292C4.53386 14.3049 4.59991 14.1884 4.66212 14.0738C4.73009 13.9586 4.79217 13.8434 4.85412 13.7243C4.88437 13.6649 4.91158 13.604 4.93566 13.5419C4.96471 13.4797 4.99377 13.4214 5.01719 13.3651C5.04625 13.303 5.06954 13.2447 5.09873 13.1885C5.13162 13.1282 5.15889 13.0699 5.20356 13.0136H5.20382Z" fill="#CFB66C"/>
<path fill-rule="evenodd" clip-rule="evenodd" d="M5.89509 14.6058C5.89509 14.6058 5.7031 14.8602 5.7223 15.1825C5.77465 15.0136 5.8407 14.7553 5.89509 14.6058ZM6.07762 14.8608C6.07762 14.8608 6.00965 15.552 5.95333 15.8919C6.03295 15.499 6.04844 15.532 6.07762 14.8608ZM7.34941 15.9327C7.34941 15.9327 7.06205 16.7775 7.05617 17.0122C7.11837 16.7708 7.23869 16.2776 7.34941 15.932V15.9327Z" fill="#DEC270"/>
<path fill-rule="evenodd" clip-rule="evenodd" d="M8.02148 14.5536C8.02148 14.5536 8.48753 15.3225 8.8371 15.9787C8.74251 15.6485 8.52491 15.0428 8.02148 14.5536Z" fill="#CBAF59"/>
<path fill-rule="evenodd" clip-rule="evenodd" d="M9.27393 15.6855C9.52981 16.1378 9.76056 16.6039 9.96512 17.0816C9.92634 16.7515 9.82138 16.1865 9.27393 15.6855Z" fill="#E3C677"/>
<path fill-rule="evenodd" clip-rule="evenodd" d="M12.9552 16.8191C13.0328 16.7706 13.1863 16.5064 13.3203 16.4405C13.4542 16.3725 13.5552 16.3589 13.6756 16.2249C13.7959 16.085 13.8292 15.9997 14.093 15.8891C14.462 15.7297 14.2082 15.5239 14.2082 15.5239C14.2489 15.484 14.2923 15.447 14.3383 15.4133C14.4335 15.3415 14.5441 15.2541 14.5345 15.1006C14.5209 14.8424 14.4724 14.4676 14.2607 14.2501C14.4665 14.2074 14.8606 14.1783 15.1055 14.1163C15.3889 14.0443 15.5191 13.9433 15.5191 13.9433C15.5191 13.9433 15.356 13.6657 15.62 13.3861C15.8841 13.1066 16.0997 12.9396 16.2589 12.6269C16.0764 12.6036 15.7981 12.5065 15.088 12.7764C15.1263 12.7944 15.1633 12.8151 15.1987 12.8384C15.1987 12.8384 14.7618 12.9589 14.6026 13.0929C14.3248 13.3278 14.2899 13.52 13.989 13.6638C13.688 13.8075 13.3851 13.7686 13.1347 13.8851C12.8843 14.0016 12.8473 14.1006 12.7559 14.1434C12.7754 14.1667 12.7521 14.2055 12.789 14.2385C12.7657 14.2715 12.6297 14.4928 12.4919 14.4928C12.5054 14.5453 12.6219 14.5841 12.6219 14.5841C12.6219 14.5841 12.5365 14.6463 12.3191 14.6618C12.4297 14.777 12.5346 14.9026 12.8239 15.0851C12.8006 15.1336 12.7035 15.2055 12.7424 15.2968C12.7851 15.3881 12.896 15.5124 13.3385 15.6133C13.1132 15.6229 12.8492 15.6754 12.4937 15.6269C12.1383 15.5842 12.0801 15.5589 11.8607 15.6133C11.884 15.6366 11.9461 15.6366 12.0005 15.6987C11.9422 15.7026 11.5772 15.656 11.4529 15.8192C11.3229 15.988 11.2665 16.2658 11.2763 16.4521C11.2083 16.4852 11.1423 16.5434 11.1753 16.6638C11.2083 16.7843 11.3811 16.8231 11.4918 16.8987C11.6024 16.9803 11.6121 17.0093 11.7171 16.99C11.8277 16.9667 11.9908 16.8561 12.086 16.8561C12.1812 16.8561 12.2491 16.9279 12.2491 16.9279C12.2491 16.9279 12.5074 16.8036 12.5326 16.8269C12.5559 16.8502 12.5364 16.9997 12.5616 17.023C12.5872 17.0405 12.8782 16.8677 12.9559 16.8191H12.9552Z" fill="#ECD592"/>
<path fill-rule="evenodd" clip-rule="evenodd" d="M18.6001 9.04867C17.3866 5.91471 14.3865 5.33411 14.3865 5.33411H5.82728L5.8603 8.5263H7.56488V15.6545H5.82715V18.8409H14.1496C16.1553 18.8409 17.7631 16.8253 17.7631 16.8253C20.3379 13.171 18.6 9.04867 18.6 9.04867H18.6001ZM14.1943 14.6777C14.1943 14.6777 13.5415 15.6195 12.8312 15.6195H11.4104L11.3767 8.53411H13.2001C13.2001 8.53411 14.0449 8.71075 14.6351 10.3826C14.6351 10.3826 15.4175 12.7762 14.1943 14.6777Z" fill="white" fill-opacity="0.8"/>
</svg>
