<svg width="304" height="304" viewBox="0 0 304 304" fill="none" xmlns="http://www.w3.org/2000/svg">
<rect width="304" height="304" rx="5" fill="#282936"/>
<path d="M38.1203 287.102C38.1203 288.162 37.9276 289.222 37.5422 290.185C37.3495 290.667 36.8678 290.86 36.386 290.667C35.9043 290.474 35.7116 289.993 35.9043 289.511C36.5787 287.873 36.4824 285.946 35.7116 284.308C34.9408 282.574 33.3993 281.129 31.5687 280.454C30.2198 279.973 28.6782 280.069 27.3294 280.647C25.9805 281.321 25.017 282.381 24.5353 283.73C23.7645 285.946 24.9207 288.355 27.1367 289.126C27.9075 289.415 28.7746 289.415 29.5454 289.029C30.3162 288.644 30.8942 287.969 31.1833 287.199C31.665 285.946 30.9906 284.597 29.7381 284.116C29.2563 283.923 28.8709 284.019 28.3892 284.212C28.0038 284.405 27.6184 284.79 27.5221 285.175C27.3294 285.753 26.8476 285.946 26.3659 285.753C25.8842 285.561 25.6915 285.079 25.7878 284.597C26.4623 282.767 28.4856 281.803 30.2198 282.478C32.3394 283.248 33.4956 285.657 32.7248 287.777C32.2431 289.029 31.376 289.993 30.2198 290.571C29.0636 291.149 27.7148 291.245 26.4623 290.764C23.3791 289.607 21.7412 286.235 22.8011 283.152C23.4755 281.321 24.8244 279.876 26.5586 279.009C28.2929 278.142 30.3162 278.046 32.1468 278.72C34.4591 279.491 36.2897 281.225 37.3495 283.441C37.8312 284.694 38.1203 285.946 38.1203 287.102Z" fill="#2E2F3F"/>
<path d="M26.5585 275.252C26.5585 278.238 24.7279 281.032 21.7411 282.092C18.658 283.248 15.1895 281.611 14.1297 278.431C13.1662 275.83 14.5151 273.036 17.1164 272.072C18.1763 271.687 19.3324 271.783 20.2959 272.265C21.2594 272.747 22.0302 273.614 22.4155 274.577C23.09 276.408 22.1265 278.431 20.2959 279.009C19.8142 279.202 19.3324 278.913 19.1397 278.431C18.947 277.949 19.2361 277.468 19.7178 277.275C20.5849 276.986 21.0667 275.926 20.7776 275.059C20.5849 274.481 20.1032 273.999 19.5251 273.71C18.947 273.421 18.2726 273.421 17.6945 273.614C16.0566 274.192 15.1895 276.022 15.7676 277.757C16.5384 279.973 18.947 281.129 21.163 280.358C24.0534 279.298 25.4987 276.215 24.5352 273.325C23.8608 271.494 22.5119 269.953 20.6813 269.182C18.947 268.411 17.1164 268.315 15.4785 268.989C14.9968 269.182 14.5151 268.989 14.3224 268.507C14.1297 268.026 14.3224 267.544 14.8041 267.351C16.9237 266.484 19.2361 266.58 21.4521 267.544C23.6681 268.507 25.4023 270.434 26.1731 272.747C26.4621 273.614 26.5585 274.481 26.5585 275.252Z" fill="#2E2F3F"/>
<path d="M44.4791 274.866C44.4791 276.89 43.2266 278.816 41.2033 279.587C40.1434 279.973 38.9873 279.876 38.0238 279.395C37.0603 278.913 36.2896 278.046 35.9042 277.082C35.6151 276.215 35.6151 275.252 36.0005 274.384C36.3859 273.517 37.0603 272.939 38.0238 272.554C38.5055 272.361 38.9873 272.65 39.18 273.132C39.3727 273.614 39.0836 274.095 38.6019 274.288C38.1202 274.481 37.8311 274.77 37.6384 275.155C37.4457 275.541 37.4457 276.022 37.5421 276.504C37.7348 277.082 38.2165 277.564 38.7946 277.853C39.2763 278.046 39.9508 278.046 40.5288 277.853C42.1667 277.275 43.0339 275.444 42.4558 273.71C41.685 271.494 39.2763 270.338 37.0603 271.109C34.1699 272.168 32.7247 275.252 33.6882 278.142C34.6516 280.84 37.1567 282.863 39.9508 282.959C40.4325 282.959 40.8179 283.441 40.8179 283.923C40.8179 284.405 40.3361 284.79 39.8544 284.79C36.3859 284.597 33.2064 282.189 31.9539 278.816C30.6051 275.059 32.6284 270.916 36.3859 269.567C39.469 268.411 42.9375 270.049 43.9973 273.228C44.3827 273.71 44.4791 274.288 44.4791 274.866Z" fill="#2E2F3F"/>
<path d="M35.8078 266.484C35.8078 267.158 35.7115 267.833 35.4224 268.507C34.0735 272.265 29.9306 274.288 26.1731 272.939C22.8973 271.783 20.4886 268.7 20.1995 265.231C20.1995 264.75 20.4886 264.364 20.9703 264.268C21.452 264.268 21.8374 264.557 21.9338 265.039C22.1265 267.736 24.0534 270.241 26.7511 271.205C29.6416 272.265 32.7247 270.723 33.7845 267.833C34.5553 265.617 33.3991 263.208 31.1831 262.437C30.4123 262.148 29.5452 262.148 28.7744 262.534C28.0037 262.919 27.4256 263.594 27.1365 264.364C26.6548 265.617 27.3292 266.966 28.5817 267.447C29.4489 267.736 30.5087 267.255 30.7977 266.388C30.9904 265.906 31.4722 265.713 31.9539 265.81C32.4356 266.002 32.6283 266.484 32.532 266.966C31.8576 268.796 29.8343 269.76 28.1 269.085C25.9804 268.315 24.8242 265.906 25.595 263.786C26.5585 261.185 29.3525 259.836 31.9539 260.799C34.2662 261.667 35.8078 263.979 35.8078 266.484Z" fill="#2E2F3F"/>
<path d="M40.1434 283.056L40.1434 284.79L94.387 284.79L94.387 283.056L40.1434 283.056Z" fill="#2E2F3F"/>
<path d="M60.9545 283.923C60.1837 286.235 49.3928 289.222 54.3065 283.923C49.3928 278.624 60.1837 281.514 60.9545 283.923Z" fill="#2E2F3F"/>
<path d="M47.2732 283.923C47.2732 285.175 48.333 286.139 49.4892 286.139C50.7417 286.139 51.7052 285.079 51.7052 283.923C51.7052 282.767 50.6453 281.707 49.4892 281.707C48.333 281.611 47.2732 282.67 47.2732 283.923Z" fill="#2E2F3F"/>
<path d="M86.8721 280.936C93.52 282.863 103.637 283.923 103.637 283.923C103.637 283.923 94.0018 284.694 86.8721 286.813C84.6561 287.488 84.6561 280.358 86.8721 280.936Z" fill="#2E2F3F"/>
<path d="M20.1995 208.579L20.1995 265.135L21.9338 265.135L21.9338 208.579L20.1995 208.579Z" fill="#2E2F3F"/>
<path d="M21.0666 243.842C18.7543 244.613 15.7675 255.404 21.0666 250.49C26.3658 255.404 23.4753 244.613 21.0666 243.842Z" fill="#2E2F3F"/>
<path d="M21.0668 257.524C19.8142 257.524 18.8508 256.464 18.8508 255.308C18.8508 254.055 19.9106 253.092 21.0668 253.092C22.3193 253.092 23.2828 254.151 23.2827 255.308C23.3791 256.464 22.3193 257.524 21.0668 257.524Z" fill="#2E2F3F"/>
<path d="M24.0536 216.094C22.1266 209.446 21.0668 199.33 21.0668 199.33C21.0668 199.33 20.296 208.965 18.1764 216.094C17.502 218.31 24.6317 218.31 24.0536 216.094Z" fill="#2E2F3F"/>
<path d="M16.0567 223.031L16.0567 268.315C16.0567 268.796 15.6713 269.182 15.1896 269.182C14.7078 269.182 14.3224 268.796 14.3224 268.315L14.3225 223.031C14.3225 222.55 14.7078 222.164 15.1896 222.164C15.6713 222.068 16.0567 222.55 16.0567 223.031Z" fill="#2E2F3F"/>
<path d="M82.8253 289.896C82.8253 290.378 82.4399 290.763 81.9581 290.763L36.6749 290.763C36.1931 290.763 35.8077 290.378 35.8077 289.896C35.8077 289.415 36.1931 289.029 36.6749 289.029L81.9581 289.029C82.4399 288.933 82.8253 289.415 82.8253 289.896Z" fill="#2E2F3F"/>
<path d="M17.7879 38.1201C16.7281 38.1201 15.6682 37.9274 14.7048 37.542C14.223 37.3493 14.0303 36.8676 14.223 36.3859C14.4157 35.9041 14.8975 35.7114 15.3792 35.9041C17.0171 36.5785 18.9441 36.4822 20.582 35.7114C22.3162 34.9406 23.7614 33.3991 24.4359 31.5685C24.9176 30.2196 24.8212 28.6781 24.2432 27.3292C23.5687 25.9803 22.5089 25.0169 21.16 24.5351C18.9441 23.7643 16.5354 24.9205 15.7646 27.1365C15.4755 27.9073 15.4755 28.7744 15.8609 29.5452C16.2463 30.316 16.9208 30.894 17.6915 31.1831C18.9441 31.6648 20.2929 30.9904 20.7747 29.7379C20.9673 29.2561 20.871 28.8708 20.6783 28.389C20.4856 28.0036 20.1002 27.6182 19.7148 27.5219C19.1367 27.3292 18.9441 26.8475 19.1367 26.3657C19.3294 25.884 19.8112 25.6913 20.2929 25.7876C22.1235 26.4621 23.087 28.4854 22.4126 30.2196C21.6418 32.3393 19.2331 33.4954 17.1135 32.7247C15.8609 32.2429 14.8975 31.3758 14.3194 30.2196C13.7413 29.0634 13.6449 27.7146 14.1267 26.4621C15.2829 23.379 18.655 21.741 21.7381 22.8009C23.5687 23.4753 25.0139 24.8242 25.8811 26.5584C26.7482 28.2927 26.8445 30.316 26.1701 32.1466C25.3993 34.4589 23.6651 36.2895 21.4491 37.3493C20.1966 37.8311 18.9441 38.1201 17.7879 38.1201Z" fill="#2E2F3F"/>
<path d="M29.6385 26.5584C26.6518 26.5584 23.8577 24.7278 22.7979 21.741C21.6417 18.6579 23.2796 15.1894 26.4591 14.1296C29.0605 13.1661 31.8545 14.515 32.818 17.1164C33.2034 18.1762 33.107 19.3324 32.6253 20.2958C32.1436 21.2593 31.2765 22.0301 30.313 22.4155C28.4824 23.0899 26.4591 22.1264 25.881 20.2958C25.6883 19.8141 25.9773 19.3324 26.4591 19.1397C26.9408 18.947 27.4226 19.236 27.6152 19.7178C27.9043 20.5849 28.9641 21.0666 29.8312 20.7776C30.4093 20.5849 30.8911 20.1031 31.1801 19.5251C31.4691 18.947 31.4691 18.2725 31.2765 17.6945C30.6984 16.0566 28.8678 15.1894 27.1335 15.7675C24.9175 16.5383 23.7614 18.947 24.5321 21.163C25.592 24.0534 28.6751 25.4986 31.5655 24.5351C33.3961 23.8607 34.9377 22.5118 35.7084 20.6812C36.4792 18.947 36.5756 17.1164 35.9011 15.4785C35.7084 14.9967 35.9011 14.515 36.3829 14.3223C36.8646 14.1296 37.3463 14.3223 37.539 14.804C38.4062 16.9237 38.3098 19.236 37.3463 21.452C36.3829 23.668 34.4559 25.4022 32.1436 26.173C31.2764 26.4621 30.4093 26.5584 29.6385 26.5584Z" fill="#2E2F3F"/>
<path d="M30.0239 44.479C28.0006 44.479 26.0737 43.2265 25.3029 41.2032C24.9175 40.1434 25.0139 38.9872 25.4956 38.0237C25.9773 37.0603 26.8445 36.2895 27.8079 35.9041C28.6751 35.6151 29.6385 35.6151 30.5057 36.0004C31.3728 36.3858 31.9509 37.0603 32.3363 38.0237C32.529 38.5055 32.2399 38.9872 31.7582 39.1799C31.2765 39.3726 30.7947 39.0836 30.602 38.6018C30.4093 38.1201 30.1203 37.831 29.7349 37.6384C29.3495 37.4457 28.8678 37.4457 28.386 37.542C27.8079 37.7347 27.3262 38.2164 27.0372 38.7945C26.8445 39.2763 26.8445 39.9507 27.0372 40.5288C27.6153 42.1667 29.4459 43.0338 31.1801 42.4557C33.3961 41.6849 34.5523 39.2763 33.7815 37.0603C32.7217 34.1698 29.6385 32.7246 26.7481 33.6881C24.0504 34.6516 22.0271 37.1566 21.9308 39.9507C21.9308 40.4324 21.449 40.8178 20.9673 40.8178C20.4855 40.8178 20.1002 40.3361 20.1002 39.8543C20.2929 36.3858 22.7015 33.2064 26.0737 31.9539C29.8312 30.605 33.9742 32.6283 35.323 36.3858C36.4792 39.469 34.8413 42.9375 31.6618 43.9973C31.1801 44.3827 30.602 44.479 30.0239 44.479Z" fill="#2E2F3F"/>
<path d="M38.4061 35.8078C37.7317 35.8078 37.0573 35.7115 36.3828 35.4224C32.6253 34.0736 30.602 29.9306 31.9509 26.1731C33.107 22.8973 36.1902 20.4886 39.6587 20.1996C40.1404 20.1996 40.5258 20.4886 40.6221 20.9703C40.6221 21.4521 40.3331 21.8375 39.8514 21.9338C37.1536 22.1265 34.6486 24.0535 33.6851 26.7512C32.6253 29.6416 34.1669 32.7247 37.0573 33.7845C39.2733 34.5553 41.682 33.3991 42.4527 31.1832C42.7418 30.4124 42.7418 29.5453 42.3564 28.7745C41.971 28.0037 41.2966 27.4256 40.5258 27.1366C39.2733 26.6548 37.9244 27.3293 37.4427 28.5818C37.1536 29.4489 37.6354 30.5087 38.5025 30.7978C38.9842 30.9905 39.1769 31.4722 39.0806 31.9539C38.8879 32.4357 38.4061 32.6284 37.9244 32.532C36.0938 31.8576 35.1303 29.8343 35.8048 28.1C36.5755 25.9804 38.9842 24.8242 41.1039 25.595C43.7052 26.5585 45.0541 29.3526 44.0906 31.9539C43.2235 34.2663 40.9112 35.8078 38.4061 35.8078Z" fill="#2E2F3F"/>
<path d="M21.8344 40.1434H20.1002L20.1002 94.3869H21.8344L21.8344 40.1434Z" fill="#2E2F3F"/>
<path d="M20.9673 60.9544C18.655 60.1837 15.6682 49.3928 20.9673 54.3065C26.2665 49.3928 23.376 60.1837 20.9673 60.9544Z" fill="#2E2F3F"/>
<path d="M20.9673 47.2732C19.7148 47.2732 18.7513 48.333 18.7513 49.4892C18.7513 50.7417 19.8111 51.7051 20.9673 51.7051C22.1234 51.7051 23.1833 50.6453 23.1833 49.4892C23.2796 48.333 22.2198 47.2732 20.9673 47.2732Z" fill="#2E2F3F"/>
<path d="M23.9541 86.872C22.0272 93.5199 20.9673 103.636 20.9673 103.636C20.9673 103.636 20.1966 94.0017 18.0769 86.872C17.4025 84.656 24.5322 84.656 23.9541 86.872Z" fill="#2E2F3F"/>
<path d="M96.3111 20.1996L39.7552 20.1996V21.9338L96.3111 21.9338V20.1996Z" fill="#2E2F3F"/>
<path d="M61.0478 21.0666C60.277 18.7542 49.4861 15.7675 54.3999 21.0666C49.4861 26.3657 60.277 23.4752 61.0478 21.0666Z" fill="#2E2F3F"/>
<path d="M47.3665 21.0666C47.3665 19.8141 48.4263 18.8506 49.5824 18.8506C50.835 18.8506 51.7984 19.9104 51.7984 21.0666C51.7984 22.3191 50.7386 23.2826 49.5824 23.2826C48.4263 23.3789 47.3665 22.3191 47.3665 21.0666Z" fill="#2E2F3F"/>
<path d="M88.7959 24.0535C95.4439 22.1265 105.56 21.0667 105.56 21.0667C105.56 21.0667 95.9256 20.2959 88.7959 18.1763C86.5799 17.5018 86.5799 24.6316 88.7959 24.0535Z" fill="#2E2F3F"/>
<path d="M81.859 16.0566L36.5757 16.0566C36.0939 16.0566 35.7086 15.6713 35.7086 15.1895C35.7086 14.7078 36.0939 14.3224 36.5757 14.3224L81.859 14.3224C82.3407 14.3224 82.7261 14.7078 82.7261 15.1895C82.8224 15.6713 82.3407 16.0566 81.859 16.0566Z" fill="#2E2F3F"/>
<path d="M14.9937 82.8253C14.512 82.8253 14.1266 82.4399 14.1266 81.9582L14.1266 36.6749C14.1266 36.1932 14.512 35.8078 14.9937 35.8078C15.4755 35.8078 15.8608 36.1932 15.8608 36.6749L15.8608 81.9582C15.9572 82.4399 15.4755 82.8253 14.9937 82.8253Z" fill="#2E2F3F"/>
<path d="M266.422 17.7878C266.422 16.728 266.615 15.6682 267 14.7047C267.193 14.223 267.674 14.0303 268.156 14.223C268.638 14.4157 268.831 14.8974 268.638 15.3791C267.963 17.017 268.06 18.944 268.831 20.5819C269.601 22.3162 271.143 23.7614 272.974 24.4358C274.322 24.9175 275.864 24.8212 277.213 24.2431C278.562 23.5687 279.525 22.5088 280.007 21.16C280.778 18.944 279.622 16.5353 277.406 15.7645C276.635 15.4755 275.768 15.4755 274.997 15.8609C274.226 16.2463 273.648 16.9207 273.359 17.6915C272.877 18.944 273.552 20.2929 274.804 20.7746C275.286 20.9673 275.671 20.8709 276.153 20.6782C276.538 20.4856 276.924 20.1002 277.02 19.7148C277.213 19.1367 277.695 18.944 278.176 19.1367C278.658 19.3294 278.851 19.8111 278.754 20.2929C278.08 22.1235 276.057 23.0869 274.322 22.4125C272.203 21.6417 271.047 19.233 271.817 17.1134C272.299 15.8609 273.166 14.8974 274.322 14.3193C275.479 13.7412 276.827 13.6449 278.08 14.1266C281.163 15.2828 282.801 18.6549 281.741 21.7381C281.067 23.5687 279.718 25.0139 277.984 25.881C276.249 26.7481 274.226 26.8445 272.395 26.17C270.083 25.3993 268.253 23.665 267.193 21.449C266.711 20.1965 266.422 18.944 266.422 17.7878Z" fill="#2E2F3F"/>
<path d="M277.984 29.6385C277.984 26.6517 279.814 23.8577 282.801 22.7978C285.884 21.6417 289.353 23.2796 290.413 26.459C291.376 29.0604 290.027 31.8545 287.426 32.818C286.366 33.2034 285.21 33.107 284.246 32.6253C283.283 32.1435 282.512 31.2764 282.127 30.3129C281.452 28.4823 282.416 26.459 284.246 25.881C284.728 25.6883 285.21 25.9773 285.402 26.459C285.595 26.9408 285.306 27.4225 284.824 27.6152C283.957 27.9043 283.476 28.9641 283.765 29.8312C283.957 30.4093 284.439 30.891 285.017 31.1801C285.595 31.4691 286.27 31.4691 286.848 31.2764C288.486 30.6983 289.353 28.8677 288.775 27.1335C288.004 24.9175 285.595 23.7613 283.379 24.5321C280.489 25.5919 279.044 28.675 280.007 31.5655C280.681 33.3961 282.03 34.9376 283.861 35.7084C285.595 36.4792 287.426 36.5755 289.064 35.9011C289.545 35.7084 290.027 35.9011 290.22 36.3828C290.413 36.8646 290.22 37.3463 289.738 37.539C287.618 38.4061 285.306 38.3098 283.09 37.3463C280.874 36.3828 279.14 34.4559 278.369 32.1435C278.08 31.2764 277.984 30.4093 277.984 29.6385Z" fill="#2E2F3F"/>
<path d="M260.063 30.0239C260.063 28.0006 261.316 26.0737 263.339 25.3029C264.399 24.9175 265.555 25.0139 266.518 25.4956C267.482 25.9773 268.253 26.8445 268.638 27.8079C268.927 28.6751 268.927 29.6385 268.542 30.5057C268.156 31.3728 267.482 31.9509 266.518 32.3363C266.037 32.529 265.555 32.2399 265.362 31.7582C265.17 31.2765 265.459 30.7947 265.94 30.602C266.422 30.4093 266.711 30.1203 266.904 29.7349C267.096 29.3495 267.096 28.8678 267 28.386C266.807 27.8079 266.326 27.3262 265.748 27.0372C265.266 26.8445 264.591 26.8445 264.013 27.0372C262.375 27.6153 261.508 29.4459 262.086 31.1801C262.857 33.3961 265.266 34.5523 267.482 33.7815C270.372 32.7217 271.817 29.6385 270.854 26.7481C269.891 24.0504 267.386 22.0271 264.591 21.9308C264.11 21.9308 263.724 21.449 263.724 20.9673C263.724 20.4855 264.206 20.1002 264.688 20.1002C268.156 20.2929 271.336 22.7015 272.588 26.0737C273.937 29.8312 271.914 33.9742 268.156 35.323C265.073 36.4792 261.605 34.8413 260.545 31.6618C260.159 31.1801 260.063 30.602 260.063 30.0239Z" fill="#2E2F3F"/>
<path d="M268.734 38.4062C268.734 37.7317 268.831 37.0573 269.12 36.3829C270.469 32.6253 274.612 30.602 278.369 31.9509C281.645 33.1071 284.054 36.1902 284.343 39.6587C284.343 40.1404 284.054 40.5258 283.572 40.6222C283.09 40.6222 282.705 40.3331 282.608 39.8514C282.416 37.1537 280.489 34.6486 277.791 33.6851C274.901 32.6253 271.817 34.1669 270.758 37.0573C269.987 39.2733 271.143 41.682 273.359 42.4528C274.13 42.7418 274.997 42.7418 275.768 42.3564C276.539 41.971 277.117 41.2966 277.406 40.5258C277.887 39.2733 277.213 37.9244 275.96 37.4427C275.093 37.1537 274.033 37.6354 273.744 38.5025C273.552 38.9843 273.07 39.1769 272.588 39.0806C272.107 38.8879 271.914 38.4062 272.01 37.9244C272.685 36.0938 274.708 35.1304 276.442 35.8048C278.562 36.5756 279.718 38.9843 278.947 41.1039C277.984 43.7053 275.19 45.0541 272.588 44.0907C270.276 43.2235 268.734 40.9112 268.734 38.4062Z" fill="#2E2F3F"/>
<path d="M264.399 21.8344L264.399 20.1002L210.155 20.1002L210.155 21.8344L264.399 21.8344Z" fill="#2E2F3F"/>
<path d="M243.588 20.9673C244.358 18.6549 255.149 15.6681 250.236 20.9673C255.149 26.2664 244.358 23.3759 243.588 20.9673Z" fill="#2E2F3F"/>
<path d="M257.269 20.9672C257.269 19.7147 256.209 18.7512 255.053 18.7512C253.8 18.7512 252.837 19.811 252.837 20.9672C252.837 22.1234 253.897 23.1832 255.053 23.1832C256.209 23.2795 257.269 22.2197 257.269 20.9672Z" fill="#2E2F3F"/>
<path d="M217.67 23.9541C211.022 22.0271 200.906 20.9673 200.906 20.9673C200.906 20.9673 210.54 20.1965 217.67 18.0769C219.886 17.4025 219.886 24.5322 217.67 23.9541Z" fill="#2E2F3F"/>
<path d="M284.343 96.3109L284.343 39.755L282.608 39.755L282.608 96.3109L284.343 96.3109Z" fill="#2E2F3F"/>
<path d="M283.476 61.0478C285.788 60.277 288.775 49.4861 283.476 54.3998C278.176 49.4861 281.067 60.277 283.476 61.0478Z" fill="#2E2F3F"/>
<path d="M283.475 47.3664C284.728 47.3664 285.691 48.4262 285.691 49.5824C285.691 50.8349 284.632 51.7984 283.475 51.7984C282.223 51.7984 281.259 50.7386 281.259 49.5824C281.163 48.4262 282.223 47.3664 283.475 47.3664Z" fill="#2E2F3F"/>
<path d="M280.489 88.7957C282.416 95.4437 283.475 105.56 283.475 105.56C283.475 105.56 284.246 95.9254 286.366 88.7957C287.04 86.5797 279.911 86.5797 280.489 88.7957Z" fill="#2E2F3F"/>
<path d="M288.486 81.8588L288.486 36.5756C288.486 36.0938 288.871 35.7084 289.353 35.7084C289.834 35.7084 290.22 36.0938 290.22 36.5756L290.22 81.8588C290.22 82.3406 289.834 82.726 289.353 82.726C288.871 82.8223 288.486 82.3406 288.486 81.8588Z" fill="#2E2F3F"/>
<path d="M221.717 14.9937C221.717 14.5119 222.102 14.1266 222.584 14.1266L267.867 14.1266C268.349 14.1266 268.734 14.5119 268.734 14.9937C268.734 15.4754 268.349 15.8608 267.867 15.8608L222.584 15.8608C222.102 15.9572 221.717 15.4754 221.717 14.9937Z" fill="#2E2F3F"/>
<path d="M286.212 265.88C287.272 265.88 288.332 266.073 289.295 266.458C289.777 266.651 289.97 267.132 289.777 267.614C289.584 268.096 289.103 268.289 288.621 268.096C286.983 267.421 285.056 267.518 283.418 268.289C281.684 269.059 280.239 270.601 279.564 272.431C279.083 273.78 279.179 275.322 279.757 276.671C280.431 278.02 281.491 278.983 282.84 279.465C285.056 280.236 287.465 279.079 288.236 276.863C288.525 276.093 288.525 275.226 288.139 274.455C287.754 273.684 287.079 273.106 286.309 272.817C285.056 272.335 283.707 273.01 283.225 274.262C283.033 274.744 283.129 275.129 283.322 275.611C283.515 275.996 283.9 276.382 284.285 276.478C284.863 276.671 285.056 277.153 284.863 277.634C284.671 278.116 284.189 278.309 283.707 278.212C281.877 277.538 280.913 275.515 281.588 273.78C282.358 271.661 284.767 270.505 286.887 271.275C288.139 271.757 289.103 272.624 289.681 273.78C290.259 274.937 290.355 276.285 289.873 277.538C288.717 280.621 285.345 282.259 282.262 281.199C280.431 280.525 278.986 279.176 278.119 277.442C277.252 275.707 277.156 273.684 277.83 271.853C278.601 269.541 280.335 267.71 282.551 266.651C283.804 266.169 285.056 265.88 286.212 265.88Z" fill="#2E2F3F"/>
<path d="M274.362 277.442C277.348 277.442 280.142 279.272 281.202 282.259C282.358 285.342 280.721 288.811 277.541 289.87C274.94 290.834 272.146 289.485 271.182 286.884C270.797 285.824 270.893 284.668 271.375 283.704C271.857 282.741 272.724 281.97 273.687 281.585C275.518 280.91 277.541 281.874 278.119 283.704C278.312 284.186 278.023 284.668 277.541 284.86C277.059 285.053 276.578 284.764 276.385 284.282C276.096 283.415 275.036 282.933 274.169 283.222C273.591 283.415 273.109 283.897 272.82 284.475C272.531 285.053 272.531 285.727 272.724 286.306C273.302 287.943 275.132 288.811 276.867 288.232C279.083 287.462 280.239 285.053 279.468 282.837C278.408 279.947 275.325 278.501 272.435 279.465C270.604 280.139 269.063 281.488 268.292 283.319C267.521 285.053 267.425 286.884 268.099 288.522C268.292 289.003 268.099 289.485 267.617 289.678C267.136 289.87 266.654 289.678 266.461 289.196C265.594 287.076 265.69 284.764 266.654 282.548C267.617 280.332 269.544 278.598 271.857 277.827C272.724 277.538 273.591 277.442 274.362 277.442Z" fill="#2E2F3F"/>
<path d="M273.976 259.521C276 259.521 277.926 260.773 278.697 262.797C279.083 263.857 278.986 265.013 278.505 265.976C278.023 266.94 277.156 267.711 276.192 268.096C275.325 268.385 274.362 268.385 273.494 268C272.627 267.614 272.049 266.94 271.664 265.976C271.471 265.495 271.76 265.013 272.242 264.82C272.724 264.627 273.205 264.916 273.398 265.398C273.591 265.88 273.88 266.169 274.265 266.362C274.651 266.554 275.132 266.554 275.614 266.458C276.192 266.265 276.674 265.784 276.963 265.205C277.156 264.724 277.156 264.049 276.963 263.471C276.385 261.833 274.554 260.966 272.82 261.544C270.604 262.315 269.448 264.724 270.219 266.94C271.278 269.83 274.362 271.275 277.252 270.312C279.95 269.348 281.973 266.843 282.069 264.049C282.069 263.568 282.551 263.182 283.033 263.182C283.515 263.182 283.9 263.664 283.9 264.146C283.707 267.614 281.299 270.794 277.926 272.046C274.169 273.395 270.026 271.372 268.677 267.614C267.521 264.531 269.159 261.063 272.338 260.003C272.82 259.617 273.398 259.521 273.976 259.521Z" fill="#2E2F3F"/>
<path d="M265.594 268.192C266.268 268.192 266.943 268.288 267.617 268.578C271.375 269.926 273.398 274.069 272.049 277.827C270.893 281.103 267.81 283.511 264.341 283.8C263.86 283.8 263.474 283.511 263.378 283.03C263.378 282.548 263.667 282.163 264.149 282.066C266.846 281.873 269.352 279.947 270.315 277.249C271.375 274.358 269.833 271.275 266.943 270.215C264.727 269.445 262.318 270.601 261.547 272.817C261.258 273.588 261.258 274.455 261.644 275.225C262.029 275.996 262.704 276.574 263.474 276.863C264.727 277.345 266.076 276.671 266.557 275.418C266.846 274.551 266.365 273.491 265.498 273.202C265.016 273.01 264.823 272.528 264.92 272.046C265.112 271.564 265.594 271.372 266.076 271.468C267.906 272.142 268.87 274.166 268.195 275.9C267.425 278.02 265.016 279.176 262.896 278.405C260.295 277.441 258.946 274.647 259.909 272.046C260.777 269.734 263.089 268.192 265.594 268.192Z" fill="#2E2F3F"/>
<path d="M282.166 263.857L283.9 263.857L283.9 209.613L282.166 209.613L282.166 263.857Z" fill="#2E2F3F"/>
<path d="M283.033 243.046C285.345 243.816 288.332 254.607 283.033 249.694C277.734 254.607 280.624 243.816 283.033 243.046Z" fill="#2E2F3F"/>
<path d="M283.033 256.727C284.285 256.727 285.249 255.667 285.249 254.511C285.249 253.258 284.189 252.295 283.033 252.295C281.877 252.295 280.817 253.355 280.817 254.511C280.721 255.667 281.78 256.727 283.033 256.727Z" fill="#2E2F3F"/>
<path d="M280.046 217.128C281.973 210.48 283.033 200.364 283.033 200.364C283.033 200.364 283.804 209.998 285.923 217.128C286.598 219.344 279.468 219.344 280.046 217.128Z" fill="#2E2F3F"/>
<path d="M207.689 283.8L264.245 283.8L264.245 282.066L207.689 282.066L207.689 283.8Z" fill="#2E2F3F"/>
<path d="M242.952 282.933C243.723 285.246 254.514 288.232 249.6 282.933C254.514 277.634 243.723 280.525 242.952 282.933Z" fill="#2E2F3F"/>
<path d="M256.634 282.933C256.634 284.186 255.574 285.149 254.418 285.149C253.165 285.149 252.202 284.09 252.202 282.933C252.202 281.681 253.262 280.717 254.418 280.717C255.574 280.621 256.634 281.681 256.634 282.933Z" fill="#2E2F3F"/>
<path d="M215.204 279.947C208.556 281.873 198.44 282.933 198.44 282.933C198.44 282.933 208.075 283.704 215.204 285.824C217.42 286.498 217.42 279.368 215.204 279.947Z" fill="#2E2F3F"/>
<path d="M222.141 287.943L267.424 287.943C267.906 287.943 268.292 288.329 268.292 288.81C268.292 289.292 267.906 289.678 267.424 289.678L222.141 289.678C221.659 289.678 221.274 289.292 221.274 288.81C221.178 288.329 221.659 287.943 222.141 287.943Z" fill="#2E2F3F"/>
<path d="M289.006 221.175C289.488 221.175 289.874 221.56 289.874 222.042L289.874 267.325C289.874 267.807 289.488 268.192 289.006 268.192C288.525 268.192 288.139 267.807 288.139 267.325L288.139 222.042C288.043 221.56 288.525 221.175 289.006 221.175Z" fill="#2E2F3F"/>
</svg>
