<svg width="16" height="13" viewBox="0 0 16 13" fill="none" xmlns="http://www.w3.org/2000/svg">
<path d="M-3.02151e-05 4.03342C-3.01681e-05 2.95657 0.195762 1.87972 0.587343 0.900771C0.783135 0.411295 1.27261 0.215505 1.76209 0.411295C2.25156 0.607086 2.44735 1.09656 2.25156 1.58604C1.5663 3.25025 1.66419 5.20816 2.44736 6.87238C3.23052 8.63449 4.79684 10.1029 6.65686 10.7882C8.02739 11.2777 9.59372 11.1798 10.9643 10.5924C12.3348 9.90713 13.3137 8.83028 13.8032 7.45975C14.5864 5.20816 13.4116 2.76078 11.16 1.97762C10.3769 1.68393 9.49582 1.68393 8.71266 2.07551C7.9295 2.46709 7.34213 3.15236 7.04844 3.93552C6.55896 5.20816 7.24423 6.57869 8.51687 7.06817C9.00635 7.26396 9.39793 7.16606 9.88741 6.97027C10.279 6.77448 10.6706 6.3829 10.7685 5.99132C10.9643 5.40395 11.4537 5.20816 11.9432 5.40395C12.4327 5.59974 12.6285 6.08921 12.5306 6.57869C11.8453 8.4387 9.78951 9.41765 8.02739 8.73238C5.8737 7.94922 4.69895 5.50184 5.48211 3.34815C5.97159 2.07551 6.85265 1.09656 8.0274 0.509191C9.20214 -0.0781803 10.5727 -0.176075 11.8453 0.3134C14.978 1.48814 16.6422 4.91447 15.5653 8.04712C14.8801 9.90713 13.5095 11.3756 11.7474 12.2566C9.9853 13.1377 7.9295 13.2356 6.06949 12.5503C3.72 11.7671 1.85998 10.005 0.783132 7.75343C0.293655 6.48079 -3.02665e-05 5.20816 -3.02151e-05 4.03342Z" fill="#2E2F3F"/>
</svg>
