<svg width="16" height="13" viewBox="0 0 16 13" fill="none" xmlns="http://www.w3.org/2000/svg">
<path d="M-0.000154246 4.03341C-0.000154199 2.95656 0.195638 1.87972 0.587218 0.900769C0.783009 0.411294 1.27248 0.215504 1.76196 0.411294C2.25144 0.607084 2.44722 1.09656 2.25144 1.58603C1.56617 3.25025 1.66406 5.20815 2.44723 6.87236C3.23039 8.63447 4.79671 10.1029 6.65672 10.7882C8.02725 11.2776 9.59357 11.1797 10.9641 10.5924C12.3346 9.9071 13.3136 8.83026 13.8031 7.45973C14.5862 5.20815 13.4115 2.76077 11.1599 1.97761C10.3767 1.68393 9.49568 1.68393 8.71252 2.07551C7.92936 2.46709 7.34199 3.15235 7.0483 3.93551C6.55882 5.20815 7.24409 6.57867 8.51673 7.06815C9.0062 7.26394 9.39778 7.16604 9.88726 6.97026C10.2788 6.77447 10.6704 6.38289 10.7683 5.99131C10.9641 5.40394 11.4536 5.20815 11.9431 5.40394C12.4325 5.59973 12.6283 6.0892 12.5304 6.57867C11.8452 8.43868 9.78936 9.41763 8.02725 8.73236C5.87356 7.9492 4.69882 5.50183 5.48198 3.34814C5.97145 2.07551 6.85251 1.09656 8.02725 0.509189C9.20199 -0.0781801 10.5725 -0.176075 11.8452 0.3134C14.9778 1.48814 16.642 4.91446 15.5652 8.0471C14.8799 9.9071 13.5094 11.3755 11.7473 12.2566C9.98515 13.1376 7.92936 13.2355 6.06935 12.5503C3.71986 11.7671 1.85985 10.005 0.783006 7.75341C0.293531 6.48078 -0.000154297 5.20815 -0.000154246 4.03341Z" fill="#575869"/>
</svg>
