<svg width="24" height="24" viewBox="0 0 24 24" fill="none" xmlns="http://www.w3.org/2000/svg">
<path fill-rule="evenodd" clip-rule="evenodd" d="M6.75012 13.625V11C6.75012 8.50911 8.83437 6.24049 11.1251 5.75V4.875C11.1251 4.28782 11.4263 4 12.0001 4C12.5737 4 12.8751 4.28782 12.8751 4.875V5.75C15.1659 6.24039 17.2501 8.50882 17.2501 11V13.625C18.2166 13.625 19.0001 14.4085 19.0001 15.375C19.0001 16.3415 18.2166 17.125 17.2501 17.125H6.75012C5.78362 17.125 5.00012 16.3415 5.00012 15.375C5.00012 14.4085 5.78362 13.625 6.75012 13.625ZM12.0005 19.75C10.9997 19.75 10.2503 19.0253 10.2503 18H13.7503C13.7505 19.0253 13.0013 19.75 12.0005 19.75Z" fill="white"/>
</svg>
