<svg width="40" height="16" viewBox="0 0 40 16" fill="none" xmlns="http://www.w3.org/2000/svg">
<path d="M18.9242 2.33737V6.34415H21.3934C21.977 6.34415 22.4708 6.14212 22.8524 5.7493C23.2452 5.35648 23.4473 4.88509 23.4473 4.33515C23.4473 3.79642 23.2452 3.33626 22.8524 2.94344C22.4708 2.53939 21.977 2.33737 21.3934 2.33737H18.9242ZM18.9242 7.7583V12.4048H17.4427V0.923213H21.3597C22.3586 0.923213 23.2003 1.25992 23.8962 1.9221C24.6033 2.58429 24.9624 3.39237 24.9624 4.34637C24.9624 5.32281 24.6145 6.1309 23.8962 6.78186C23.2116 7.43282 22.3698 7.7583 21.3597 7.7583H18.9242Z" fill="white"/>
<path d="M26.4548 10.003C26.4548 10.3846 26.6232 10.7101 26.9487 10.9682C27.2742 11.2263 27.6558 11.3498 28.0935 11.3498C28.7108 11.3498 29.2719 11.1141 29.7545 10.6652C30.2372 10.205 30.4841 9.66628 30.4841 9.04899C30.0239 8.68984 29.3842 8.49904 28.5536 8.49904C27.9588 8.49904 27.4537 8.64495 27.0497 8.93676C26.6569 9.21734 26.4548 9.57649 26.4548 10.003ZM28.3628 4.29024C29.4515 4.29024 30.3157 4.58205 30.9442 5.16567C31.5727 5.74929 31.887 6.54616 31.887 7.56749V12.416H30.4728V11.3274H30.4167C29.8107 12.2252 28.9914 12.6742 27.9812 12.6742C27.117 12.6742 26.3875 12.416 25.8039 11.8997C25.2203 11.3835 24.9285 10.7437 24.9285 9.96931C24.9285 9.16122 25.2315 8.51026 25.8488 8.02765C26.4661 7.54505 27.2854 7.30935 28.3179 7.30935C29.1934 7.30935 29.9229 7.46648 30.4841 7.79196V7.45526C30.4841 6.93898 30.2821 6.50126 29.878 6.15334C29.474 5.79419 28.9914 5.61461 28.4526 5.61461C27.6333 5.61461 26.9711 5.96254 26.4885 6.65839L25.1866 5.83908C25.9049 4.80652 26.9599 4.29024 28.3628 4.29024Z" fill="white"/>
<path d="M39.9999 4.54391L35.0728 15.8684H33.5464L35.3758 11.9065L32.1322 4.54391H33.7372L36.0829 10.1893H36.1165L38.3949 4.54391H39.9999Z" fill="white"/>
<path d="M12.9521 6.75656C12.9521 6.2964 12.9072 5.84746 12.8399 5.40974H6.61084V7.94625H10.1799C10.0228 8.77678 9.56261 9.48386 8.85553 9.95525V11.6051H10.988C12.2338 10.4603 12.9521 8.76556 12.9521 6.75656Z" fill="#4285F4"/>
<path d="M6.61072 13.1988C8.39525 13.1988 9.8992 12.6152 10.9879 11.6051L8.85542 9.95523C8.26057 10.3593 7.49738 10.5837 6.61072 10.5837C4.88231 10.5837 3.42326 9.42773 2.90698 7.85644H0.707183V9.55118C1.79586 11.7173 4.02933 13.1988 6.61072 13.1988Z" fill="#34A853"/>
<path d="M2.89565 7.86776C2.76097 7.46371 2.69363 7.04845 2.69363 6.59951C2.69363 6.16179 2.7722 5.7353 2.89565 5.33126V3.63651H0.707078C0.25814 4.52317 0 5.53328 0 6.59951C0 7.66574 0.25814 8.67585 0.707078 9.5625L2.89565 7.86776Z" fill="#FABB05"/>
<path d="M6.61072 2.61507C7.58716 2.61507 8.46259 2.95177 9.14723 3.60273L11.0328 1.71719C9.87675 0.650961 8.38403 0 6.61072 0C4.02933 0 1.79586 1.4815 0.707183 3.6364L2.89576 5.33114C3.42326 3.77108 4.88231 2.61507 6.61072 2.61507Z" fill="#E94235"/>
</svg>
