<svg width="34" height="34" viewBox="0 0 34 34" fill="none" xmlns="http://www.w3.org/2000/svg">
<g clip-path="url(#clip0_0_840)">
<path d="M5.3125 28.1562H22.1708V22.5781H5.3125V28.1562ZM7.17188 24.4375H20.3115V26.2969H7.17188V24.4375Z" fill="#24B674"/>
<path d="M30.538 11.4219C29.0001 11.4219 27.749 12.673 27.749 14.2109C27.749 15.4229 28.5262 16.4563 29.6083 16.8401V22.5781H25.8896V5.84375H22.015C21.676 4.85543 20.7921 3.977 19.4438 3.31048C17.8972 2.54602 15.8722 2.125 13.7417 2.125C11.6111 2.125 9.58609 2.54602 8.03958 3.31048C6.69123 3.977 5.80734 4.85543 5.46838 5.84375H1.59375V31.875H25.8896V28.1562H31.4677V16.8401C32.5498 16.4563 33.3271 15.4229 33.3271 14.2109C33.3271 12.673 32.0759 11.4219 30.538 11.4219ZM3.45312 18.8594V11.4219H9.09323V18.8594H3.45312ZM10.9526 11.4219H16.5307V18.8594H10.9526V11.4219ZM18.3901 11.4219H24.0302V18.8594H18.3901V11.4219ZM7.17188 7.70312V6.77344C7.17188 6.17236 7.80425 5.50094 8.86353 4.97734C10.1401 4.34627 11.9181 3.98438 13.7417 3.98438C15.5652 3.98438 17.3432 4.34627 18.6198 4.97734C19.6791 5.50094 20.3115 6.17236 20.3115 6.77344V7.70312H24.0302V9.5625H3.45312V7.70312H7.17188ZM3.45312 30.0156V20.7188H24.0302V30.0156H3.45312ZM25.8896 26.2969V24.4375H29.6083V26.2969H25.8896ZM30.538 15.1406C30.0254 15.1406 29.6083 14.7236 29.6083 14.2109C29.6083 13.6983 30.0254 13.2812 30.538 13.2812C31.0507 13.2812 31.4677 13.6983 31.4677 14.2109C31.4677 14.7236 31.0507 15.1406 30.538 15.1406Z" fill="#24B674"/>
</g>
<defs>
<clipPath id="clip0_0_840">
<rect width="34" height="34" fill="white"/>
</clipPath>
</defs>
</svg>
