<svg width="14" height="13" viewBox="0 0 14 13" fill="none" xmlns="http://www.w3.org/2000/svg">
<path fill-rule="evenodd" clip-rule="evenodd" d="M1.96629 1.41573C1.66223 1.41573 1.41573 1.66223 1.41573 1.96629V8.25843C1.41573 8.56249 1.66223 8.80899 1.96629 8.80899H12.0337C12.3378 8.80899 12.5843 8.56249 12.5843 8.25843V1.96629C12.5843 1.66223 12.3378 1.41573 12.0337 1.41573H1.96629ZM0 1.96629C0 0.880339 0.880339 0 1.96629 0H12.0337C13.1197 0 14 0.880339 14 1.96629V8.25843C14 9.34438 13.1197 10.2247 12.0337 10.2247H1.96629C0.880339 10.2247 0 9.34438 0 8.25843V1.96629Z" fill="white"/>
<path fill-rule="evenodd" clip-rule="evenodd" d="M3.77436 12.0337C3.77436 11.6428 4.09128 11.3258 4.48222 11.3258H9.51593C9.90687 11.3258 10.2238 11.6428 10.2238 12.0337C10.2238 12.4247 9.90687 12.7416 9.51593 12.7416H4.48222C4.09128 12.7416 3.77436 12.4247 3.77436 12.0337Z" fill="white"/>
<path fill-rule="evenodd" clip-rule="evenodd" d="M7.00123 8.80891C7.39217 8.80891 7.70909 9.12583 7.70909 9.51678V12.0336C7.70909 12.4246 7.39217 12.7415 7.00123 12.7415C6.61029 12.7415 6.29336 12.4246 6.29336 12.0336V9.51678C6.29336 9.12583 6.61029 8.80891 7.00123 8.80891Z" fill="white"/>
</svg>
