<svg width="21" height="21" viewBox="0 0 21 21" fill="none" xmlns="http://www.w3.org/2000/svg">
<path fill-rule="evenodd" clip-rule="evenodd" d="M7.46263 4.79471L9.87573 5.44094L10.415 3.43066L11.6216 3.75807L11.1033 5.6853L12.0874 5.94971L12.6067 4.00148L13.8342 4.32985L13.3054 6.28857C13.3054 6.28857 15.31 6.73244 15.7815 8.3628C16.253 9.99316 14.7449 10.8494 14.279 10.8818C14.279 10.8818 16.0354 11.845 15.4321 13.7398C14.8289 15.6345 12.977 15.9734 11.0288 15.5391L10.5 17.5703L9.27245 17.242L9.81177 15.2422L8.83813 14.9768L8.29882 16.9909L7.08082 16.6635L7.62109 14.659L5.14404 13.9908L5.76832 12.6048C5.76832 12.6048 6.46704 12.7957 6.73145 12.8587C6.99586 12.9217 7.16577 12.6468 7.24022 12.3719C7.31468 12.097 8.43627 7.54094 8.54223 7.1658C8.64818 6.79066 8.60523 6.49762 8.16041 6.38212C7.71559 6.26662 7.11041 6.08621 7.11041 6.08621L7.46263 4.79471ZM9.89673 10.8284L9.22854 13.4849C9.22854 13.4849 12.5418 14.6809 12.9656 12.9981C13.3894 11.3152 9.89673 10.8284 9.89673 10.8284ZM10.2041 9.56839L10.8599 7.1343C10.8599 7.1343 13.6968 7.64212 13.3474 8.99662C12.998 10.3511 11.3257 9.83185 10.2041 9.56839Z" fill="white"/>
</svg>
