<svg width="536" height="445" viewBox="0 0 536 445" fill="none" xmlns="http://www.w3.org/2000/svg">
<g style="mix-blend-mode:soft-light">
<path d="M287.142 379.393C287.563 378.598 287.984 378.2 288.826 378.2C289.668 378.2 290.089 378.598 290.51 379.393L290.51 379.79C302.301 408.021 321.671 423.926 343.567 423.926C353.673 423.926 364.2 420.348 373.043 413.588C394.94 397.683 425.679 370.248 445.049 316.171C454.313 290.326 452.628 257.721 450.944 216.369C450.523 203.645 449.681 190.126 449.26 175.812C449.26 170.643 450.523 144.002 471.998 128.893C472.419 128.495 472.419 128.495 472.84 128.495C473.262 128.495 473.683 128.495 473.683 128.893C474.104 129.29 474.525 130.086 474.104 130.881C471.156 136.05 469.893 141.617 470.314 147.183C471.577 164.281 486.315 178.595 502.738 178.595C503.58 178.595 504.001 178.595 504.843 178.595C522.108 177.402 536.424 160.305 535.582 142.014C535.161 129.29 525.897 118.157 512.844 114.579C512.844 114.579 512.844 114.579 512.423 114.579L511.159 114.181C501.053 112.193 490.947 111 480.841 111C454.313 111 430.311 118.555 415.152 131.676C415.152 131.676 414.731 132.074 414.31 132.471C391.992 150.762 380.623 177.402 383.57 208.417C383.991 213.983 384.834 220.345 385.255 227.105C390.729 281.976 397.887 357.126 371.78 361.898C370.938 361.898 370.517 361.898 369.674 361.898C359.568 361.898 349.883 348.379 347.778 330.088C343.146 274.819 337.672 232.274 330.935 195.295C328.829 184.957 325.039 174.221 310.722 174.221C308.196 174.221 305.669 174.619 302.722 175.017C282.51 179.39 267.351 201.657 264.403 206.031C263.982 206.826 263.982 207.621 263.982 208.417C264.403 211.598 265.245 216.767 266.508 223.924C270.719 248.576 279.141 294.302 285.457 354.74L285.457 355.138C284.194 368.26 276.193 376.212 268.614 378.2C267.351 378.598 266.508 378.598 265.245 378.598C255.139 378.598 245.033 366.669 240.822 349.969C240.822 349.969 240.822 349.969 240.822 349.571C240.401 348.776 239.98 346.788 239.138 342.812L234.506 324.919C227.347 297.483 216.399 253.745 211.767 234.262C194.503 250.962 167.132 285.952 162.921 320.148C163.342 323.329 164.185 326.51 164.606 329.293C167.974 345.993 170.922 361.898 174.712 376.212C179.765 394.502 186.923 410.805 194.924 422.733C205.451 437.445 216.82 445 229.453 445C232.822 445 236.19 444.602 239.559 443.41C267.351 436.65 280.404 399.671 287.142 379.393Z" fill="#2A2A2A"/>
<path d="M207.851 169.064C260.655 143.844 310.08 132.811 329.09 141.086C333.737 133.599 335.849 126.9 335.004 121.383L335.427 120.989L334.159 118.624C333.737 117.836 333.737 117.442 333.314 116.654C319.374 87.8873 320.641 72.9128 313.038 42.964C319.796 39.0233 324.443 31.9302 324.443 24.0489C324.866 11.0448 313.882 0.405065 300.364 0.0110009C286.424 -0.383063 275.018 9.8626 274.596 22.4726C274.173 33.1124 281.777 42.1758 291.916 45.3283C294.028 84.7347 290.226 99.7092 284.312 100.891C278.398 101.679 276.708 100.497 256.853 72.1247C251.362 64.2434 245.87 55.574 241.223 47.6927C245.448 43.7521 247.982 38.2352 247.982 32.3242C248.405 19.3201 237.421 8.68041 223.903 8.28634C209.963 7.89228 198.557 18.1379 198.135 30.748C197.712 42.5699 207.006 52.4215 219.257 54.3918C224.748 89.4635 226.438 115.866 217.567 119.806C209.54 123.747 195.178 112.713 168.142 79.2178C166.452 76.8535 164.34 74.8831 162.65 72.5188C164.34 69.3662 165.607 65.8197 165.607 61.879C166.029 48.8749 155.046 38.2352 141.528 37.8411C127.588 37.4471 116.182 47.6927 115.759 60.3028C115.337 72.9128 125.898 83.5525 139.838 84.3407C141.106 87.0991 141.951 89.8576 143.218 92.2219C160.115 130.84 162.65 148.179 155.046 152.514C146.597 157.242 123.363 142.662 93.7928 120.2C95.0601 117.836 95.4825 115.078 95.4825 111.925C95.9049 98.921 84.9216 88.2813 71.4036 87.8872C57.4632 87.4932 46.0574 97.7388 45.635 110.349C45.2125 123.353 56.1959 133.993 69.7139 134.387C71.8261 134.387 73.5158 134.387 75.628 133.993C80.6972 141.874 85.7665 150.543 90.4133 159.213C106.466 189.95 106.888 191.92 103.086 195.861C98.862 200.195 83.2318 195.467 49.0145 174.187C49.8593 173.399 49.8593 171.823 49.8593 170.247C50.2818 157.242 39.2984 146.603 25.7804 146.209C11.84 145.815 0.434227 156.06 0.0117904 168.67C-0.410646 181.674 10.5727 192.314 24.0907 192.708C28.3151 192.708 32.117 191.92 35.4965 190.344C58.7305 211.623 72.6709 218.322 92.103 243.937C92.5255 244.331 92.9479 245.119 93.3703 245.513L95.0601 247.877L95.4825 247.877C99.7069 251.03 105.621 253 113.225 253C103.931 236.055 146.175 198.225 207.851 169.064Z" fill="#2A2A2A"/>
</g>
</svg>
