<svg width="24" height="24" viewBox="0 0 24 24" fill="none" xmlns="http://www.w3.org/2000/svg">
<path d="M12 24C18.6274 24 24 18.6274 24 12C24 5.37258 18.6274 0 12 0C5.37258 0 0 5.37258 0 12C0 18.6274 5.37258 24 12 24Z" fill="#988430"/>
<path d="M11.9999 23.6156C18.415 23.6156 23.6155 18.4151 23.6155 12C23.6155 5.58489 18.415 0.384399 11.9999 0.384399C5.58477 0.384399 0.384277 5.58489 0.384277 12C0.384277 18.4151 5.58477 23.6156 11.9999 23.6156Z" fill="#7A6A2A"/>
<path d="M12.0003 23.3708C18.2802 23.3708 23.3712 18.2799 23.3712 12C23.3712 5.72001 18.2802 0.629089 12.0003 0.629089C5.72031 0.629089 0.629395 5.72001 0.629395 12C0.629395 18.2799 5.72031 23.3708 12.0003 23.3708Z" fill="#BA9F33"/>
<path fill-rule="evenodd" clip-rule="evenodd" d="M5.24683 10.7185C5.17886 10.6564 5.10705 10.5942 5.041 10.5321C4.97496 10.47 4.90712 10.4078 4.83915 10.3457L4.63717 10.1537C4.60414 10.1207 4.5692 10.0917 4.53617 10.0585C4.50315 10.0294 4.46437 9.99642 4.43134 9.96724C4.16331 9.7129 3.89374 9.45857 3.62942 9.2041C3.90321 9.4546 4.17125 9.7033 4.44504 9.95751L4.54014 10.0527C4.57316 10.0856 4.60811 10.1148 4.64113 10.1478L4.84299 10.3342C4.91096 10.3963 4.97701 10.4585 5.04497 10.5262C5.11294 10.5939 5.17899 10.6563 5.24696 10.7182L5.24683 10.7185ZM1.68958 10.6801C1.68958 10.6801 2.6643 10.7809 3.14008 10.8489C3.58078 10.9111 4.95947 11.1227 4.95947 11.1227L1.68958 10.6801ZM1.68958 10.6801C1.96337 10.7034 2.23717 10.7324 2.51096 10.7616C2.65073 10.7752 2.78475 10.7907 2.91876 10.8042L3.12446 10.8277C3.19243 10.8373 3.25848 10.847 3.32644 10.8567L4.14206 10.9868L4.54974 11.0547C4.68376 11.078 4.81777 11.1034 4.95755 11.1267C4.82353 11.1131 4.68376 11.0936 4.54974 11.0742L4.14206 11.0159L3.32644 10.8956C3.25848 10.8859 3.19243 10.8722 3.12446 10.8626L2.91864 10.8389C2.78462 10.8253 2.64485 10.8059 2.51083 10.7903C2.23704 10.7574 1.96325 10.7223 1.68945 10.6797L1.68958 10.6801ZM4.86244 11.3766C4.86244 11.3766 3.82168 11.6408 3.47019 11.7418C3.12459 11.8369 2.07793 12.1554 2.07793 12.1554L4.86232 11.3768L4.86244 11.3766Z" fill="#CFB66C"/>
<path fill-rule="evenodd" clip-rule="evenodd" d="M4.86203 11.3766C4.63099 11.4446 4.40123 11.5107 4.16686 11.5729L3.47169 11.7593C3.24065 11.8272 3.01089 11.8933 2.78049 11.9612L2.43489 12.0564C2.32033 12.0894 2.20385 12.1184 2.08545 12.1516C2.19988 12.1132 2.31649 12.0739 2.43105 12.0409L2.77665 11.9303C3.00769 11.8583 3.23745 11.7904 3.46785 11.7186C3.70273 11.6603 3.9339 11.5981 4.16878 11.5418C4.39201 11.4855 4.62702 11.4293 4.86203 11.3768V11.3766ZM2.22331 12.7962C2.33774 12.7535 3.65819 12.138 3.965 11.9943C4.1186 11.9223 4.56506 11.7639 4.56506 11.7639L2.22331 12.7962Z" fill="#CFB66C"/>
<path fill-rule="evenodd" clip-rule="evenodd" d="M2.22327 12.7962C2.32414 12.7578 2.41937 12.7108 2.51639 12.6661L2.80375 12.5321L3.38052 12.2545C3.57252 12.1632 3.75914 12.0625 3.95716 11.9767C4.05815 11.9341 4.15914 11.8991 4.26001 11.8661L4.41361 11.8176C4.46596 11.804 4.5146 11.7884 4.56721 11.7748C4.37521 11.8661 4.1731 11.9438 3.98084 12.033C3.78884 12.1282 3.59249 12.2059 3.39434 12.2913L2.80798 12.5495C2.61111 12.6292 2.41911 12.7146 2.22314 12.7962H2.22327ZM2.35127 13.3338C2.35127 13.3338 3.5473 12.6328 3.95895 12.4075C4.1745 12.2872 4.87159 11.9415 4.87159 11.9415L2.35127 13.3338Z" fill="#CFB66C"/>
<path fill-rule="evenodd" clip-rule="evenodd" d="M2.35156 13.334C2.55342 13.2097 2.75924 13.0835 2.96506 12.9553L3.27226 12.7688C3.37709 12.7068 3.47808 12.6485 3.58496 12.5864C3.68979 12.5242 3.79079 12.4622 3.89754 12.4039C3.94836 12.3725 4.0016 12.3453 4.05677 12.3224L4.21984 12.2408C4.43539 12.136 4.65094 12.0291 4.87814 11.9379C4.67232 12.068 4.46061 12.1788 4.24902 12.2932C4.14419 12.3514 4.03731 12.4039 3.93248 12.4622C3.82765 12.5204 3.72666 12.5826 3.61978 12.6389C3.51495 12.701 3.41396 12.7592 3.3072 12.8156L2.99066 12.9884L2.35182 13.334H2.35156ZM4.86214 12.095C4.86214 12.095 4.11846 12.6659 3.8777 12.8485C3.63693 13.031 2.9282 13.5436 2.9282 13.5436L4.86214 12.095Z" fill="#CFB66C"/>
<path fill-rule="evenodd" clip-rule="evenodd" d="M9.13006 16.699L8.74951 15.9786L8.97082 15.0776L10.5495 14.468L9.87758 13.0894L10.2096 11.6972L10.833 10.4504L12.7593 10.1476L14.1747 8.7981L17.2311 9.02914L17.831 12.2971L16.6757 16.4117L16.0175 18.5418L13.3495 18.6428L12.1107 17.7846L10.6602 17.1786L9.13006 16.699Z" fill="#E2CC85"/>
<path fill-rule="evenodd" clip-rule="evenodd" d="M13.8095 16.6757C13.8095 16.6757 13.4404 16.8446 12.8111 16.8057C12.6289 16.5611 11.3533 16.4466 11.3533 16.4466C11.3533 16.4466 11.194 16.398 10.9125 16.5145C10.6291 16.6297 10.361 16.6155 10.1105 16.6776C9.86004 16.7397 9.61134 16.4135 9.41934 16.3456C9.22734 16.2738 8.97275 16.101 8.97275 16.101L8.43516 16.0485L7.35561 15.5922L5.64055 13.8835L5.1745 14.6131L5.03076 15.516L5.54929 16.5859L6.94537 17.8578L9.66766 18.549L11.2812 18.0736L13.3026 17.2192L13.8095 16.6755V16.6757Z" fill="#F1D789"/>
<path fill-rule="evenodd" clip-rule="evenodd" d="M4.13768 10.6369L4.48328 9.59039L4.89506 8.91455L6.22116 8.80383L5.82308 9.96505L4.71445 11.9379L5.17462 13.6991L4.35912 14.1067L4.10849 13.7224L3.90663 12.8408L3.89307 11.8505L4.13768 10.6369Z" fill="#F4ECB4"/>
<path fill-rule="evenodd" clip-rule="evenodd" d="M5.62513 16.6039L5.37079 16.2485C5.37079 16.2485 5.30282 16.0796 5.34174 15.932C5.38014 15.7825 5.37463 15.7728 5.3553 15.7164C5.33598 15.6601 5.17278 15.4659 5.1825 15.2989C5.1921 15.1299 5.16894 15.0736 5.2931 14.9397C5.42314 14.8097 5.38436 14.5844 5.38436 14.5844L5.55332 14.6892L5.59172 14.631C5.59172 14.631 5.6538 14.6795 5.6538 14.7553C5.66737 14.6505 5.61105 14.165 5.73918 14.0544C5.8673 13.9438 6.0945 14.5728 6.0945 14.5728L5.95473 13.6601L5.59543 12.7243L4.95658 11.8699L4.91818 10.9281V10.8466C4.91818 10.8466 4.62494 11.2971 4.5434 11.653C4.48516 11.8976 4.62494 12.1947 4.59588 12.5461C4.57246 12.8957 4.5434 12.8684 4.62878 13.0069C4.71415 13.1454 4.92202 13.4302 4.84049 13.6361C4.76868 13.8128 4.52394 13.6885 4.52394 13.6885C4.52394 13.6885 4.47543 13.8322 4.40938 13.8846C4.38609 13.7993 4.36087 13.7449 4.31428 13.6926C4.31031 13.7257 4.30071 13.7703 4.30071 13.7703C4.30071 13.7703 4.25796 13.6363 4.21521 13.4674C4.1571 13.2422 4.09489 12.9451 4.03857 12.7859C4.01527 12.8771 3.95703 13.1548 3.95703 13.1548L3.99006 13.582L4.14929 14.1684L4.30289 14.5524L4.45239 15.0223L4.58231 15.3379L4.68714 15.5787L4.77841 16.1205L5.21911 16.5865L5.45412 16.6914L5.62487 16.604L5.62513 16.6039Z" fill="#F3E19D"/>
<path fill-rule="evenodd" clip-rule="evenodd" d="M4.36877 9.78253C4.36877 9.78253 4.05222 10.3201 3.96108 10.8621C3.86995 11.404 3.78828 11.9767 3.84588 12.7145C3.90412 13.4583 4.01484 13.9145 4.10419 14.2408C4.25779 14.7826 4.65562 15.536 4.65562 15.536L4.66919 15.5068C4.60232 15.3801 4.54895 15.2466 4.50995 15.1087C4.45747 14.9029 4.43802 14.6583 4.3895 14.5476C4.34675 14.437 4.27494 14.3418 4.24 14.2058C4.20697 14.0758 4.2016 13.87 4.10022 13.7166C4.05747 13.6544 4.00499 13.4913 3.9895 13.3283C3.97004 13.0835 3.99923 12.8097 3.97593 12.5846C3.93318 12.2098 3.90412 11.9555 3.94291 11.7592C3.98169 11.563 4.18381 11.006 4.30809 10.5632C4.38963 10.2797 4.34099 10.0408 4.4905 9.79418C4.64 9.54957 4.73139 9.33402 4.76429 9.18452C4.80269 9.04858 4.36826 9.78253 4.36826 9.78253H4.36877Z" fill="#F2E8B0"/>
<path fill-rule="evenodd" clip-rule="evenodd" d="M5.86998 9.56696C5.86998 9.56696 5.70691 9.6156 5.62921 9.70097C5.55151 9.7825 5.51849 9.85047 5.41365 9.98833C5.30882 10.1262 5.30293 10.2388 5.21743 10.4116C5.13205 10.5806 4.94363 10.8349 4.92033 10.9262C4.89704 11.0174 4.85825 11.4446 4.80974 11.6465C4.76699 11.8485 4.85825 12.0971 4.85825 12.0971L4.96885 12.0737C4.96885 12.0737 4.96885 12.2174 5.07957 12.3146C5.19016 12.4097 5.20962 11.9921 5.20962 11.9921L5.62319 10.5961L6.24643 10.1728L6.3144 9.83102L5.86972 9.56696H5.86998Z" fill="#F5EEC0"/>
<path fill-rule="evenodd" clip-rule="evenodd" d="M6.17264 10.2001C6.17264 10.2001 5.87939 10.2194 5.73578 10.3244C5.67754 10.367 5.65424 10.4019 5.59217 10.4544C5.47761 10.5495 5.361 10.6369 5.30481 10.7616C5.2426 10.8858 5.17464 11.0742 5.12805 11.4295C5.10859 11.579 5.10859 11.7169 5.09502 11.8373C5.07557 12.0004 5.04651 12.1304 5.062 12.2213C5.08145 12.4077 5.27371 12.5048 5.29239 12.7164L5.69047 12.5146L6.06524 11.0368L6.86139 10.5376L6.41084 10.0328L6.17212 10.1992L6.17264 10.2001Z" fill="#E6DB9D"/>
<path fill-rule="evenodd" clip-rule="evenodd" d="M4.07288 20.1509C4.07455 20.1363 4.07621 20.1217 4.07787 20.1067C4.13599 19.6075 4.14584 19.2292 4.18847 18.9922C4.25055 18.6564 4.2933 18.5314 4.28357 18.4057C4.27 18.2039 4.25452 18.0563 4.27397 17.9009C4.30303 17.6951 4.50501 17.4505 4.49925 17.2815C4.49528 17.1475 4.42732 17.0602 4.36908 16.9787C4.31084 16.8971 4.26424 16.8292 4.26424 16.8292C4.26424 16.8292 4.66233 16.5554 4.65849 15.4524C4.66662 15.4547 4.67444 15.458 4.68178 15.4621L4.87788 16.0193L5.0119 16.1824L5.52646 17.1416L6.18861 17.7844L7.16718 18.4426L7.78082 19.1104L7.8429 20.891L7.04097 21.9318L6.90964 22.1696C5.86627 21.6458 4.90949 20.9649 4.07275 20.1508L4.07288 20.1509Z" fill="#E5CB7A"/>
<path fill-rule="evenodd" clip-rule="evenodd" d="M6.52246 21.8544C6.52246 21.8544 6.53603 21.633 6.71856 21.4893C6.74774 21.5378 6.76707 21.5845 6.76131 21.6193C6.79433 21.5612 7.02537 21.1884 7.54774 21.0912C8.07011 20.9961 8.19631 20.6156 8.19631 20.6156L9.30492 19.6078L10.5729 18.4408L12.1146 17.899L12.8352 17.7223C12.8352 17.7223 12.8487 17.7747 12.8216 17.8912C12.9555 17.8816 13.2526 17.8136 13.5613 17.7048C13.6856 17.6563 13.8022 17.6369 13.8643 17.701C13.9555 17.7864 13.9691 17.9884 13.9749 18.1087C14.1244 18.0757 14.2972 17.9321 14.4357 17.9456C14.6571 17.9689 14.8532 18.2291 15.0785 18.2291C15.3756 18.2291 15.5094 18.0466 15.7173 17.9029C15.8416 17.8175 16.0202 17.7109 16.1212 17.6388C16.3619 17.462 18.9095 16.6834 18.9095 16.6834L19.8027 16.7416L19.9464 17.7009L19.8696 20.2084C19.8602 20.2175 19.8507 20.227 19.8411 20.236L15.7799 22.3571L10.1505 23.2201C8.88947 23.0141 7.67257 22.5955 6.55164 21.9822L6.52284 21.8542L6.52246 21.8544Z" fill="#D8C173"/>
<path fill-rule="evenodd" clip-rule="evenodd" d="M4.41406 20.4699C4.49406 20.3026 4.566 20.1627 4.57867 20.1127C4.58865 20.2135 4.60696 20.4348 4.64382 20.6701C4.56642 20.6043 4.48984 20.5375 4.41406 20.4698V20.4699Z" fill="#F1D789"/>
<path fill-rule="evenodd" clip-rule="evenodd" d="M8.52629 22.8298L9.25436 22.6273L9.31644 22.6467C9.31644 22.6467 9.34946 22.6662 9.34946 22.7321C9.44072 22.6797 9.51842 22.6893 9.57474 22.6545C9.6038 22.7166 9.63285 22.9224 9.76111 22.9476C9.895 22.9768 10.0387 22.8894 10.1844 22.7788C10.328 22.6643 10.4916 22.5205 10.6154 22.4623C10.6608 22.5458 10.701 22.632 10.7358 22.7204C10.8989 22.5904 11.1824 22.0623 11.5863 22.0719C11.703 21.796 11.898 21.5604 12.1472 21.3942C12.522 21.1399 12.7568 21.1204 13.0501 21.1437C13.1666 20.9924 13.3101 20.8641 13.4734 20.7651C13.5219 20.7846 13.6559 20.8661 13.823 20.7884C13.9919 20.7108 14.1821 20.4098 14.4326 20.371C14.5676 20.3524 14.7049 20.3812 14.821 20.4525C14.821 20.4525 15.5506 19.7282 16.054 19.4874C16.0346 19.4292 15.9958 19.2098 16.586 18.7243C16.619 18.7534 16.5957 18.835 16.619 18.8395C16.6286 18.8395 16.7726 18.7774 16.9549 18.6375C17.1802 18.4686 17.45 18.2919 17.6131 18.2434C17.9203 18.1521 18.2462 18.3385 18.2462 18.3385C18.2739 18.319 18.3047 18.3046 18.3374 18.2957C18.415 18.2821 18.4713 18.2724 18.5141 18.2573C18.5102 18.3583 18.5665 18.5311 18.5141 18.6806C18.5749 18.7148 18.6392 18.7421 18.7061 18.7621C18.6732 18.834 18.6012 19.0165 18.4809 19.1039C18.5818 19.1524 18.5953 19.2087 18.7391 19.2575C18.6808 19.339 18.5855 19.479 18.543 19.5647C18.5002 19.656 18.3468 20.0346 18.2788 20.1782C18.207 20.322 18.11 20.586 18.0632 20.639C18.0165 20.692 17.8477 20.9167 17.7176 21.0273C17.8328 20.9845 18.3041 20.8409 18.5041 20.7865C18.4446 20.8738 18.1429 21.3214 17.8528 21.7519C16.4641 22.5842 14.9139 23.1111 13.3055 23.2973C11.6972 23.4835 10.0676 23.3247 8.52539 22.8317L8.52629 22.8298Z" fill="#E0CD81"/>
<path fill-rule="evenodd" clip-rule="evenodd" d="M6.22062 10.1476C6.22062 10.1476 6.05178 10.1476 6.01876 10.1709C5.98573 10.1942 6.18772 10.2428 6.24981 10.2661C6.31189 10.2894 6.44591 10.3962 6.48085 10.4817C6.51388 10.5632 7.69445 11.0389 7.69445 11.0389L8.52942 10.9961L8.8173 10.5984L8.2697 10.1188L8.65371 8.98676L8.14502 9.06829L6.9217 9.79789L6.30805 10.0329L6.22062 10.1476Z" fill="#DFC57C"/>
<path fill-rule="evenodd" clip-rule="evenodd" d="M8.05432 10.5224C8.06639 10.5419 8.08339 10.5579 8.10361 10.5688C8.12383 10.5797 8.14656 10.5851 8.16952 10.5844C8.34232 10.5844 8.50142 10.6272 8.56747 10.7145C8.67819 10.8544 8.98501 11.301 8.98501 11.301L9.71896 11.5651L9.76632 10.7008L8.9644 10.1436L8.05176 10.4795V10.5222H8.05381L8.05432 10.5224Z" fill="#E5CC7C"/>
<path fill-rule="evenodd" clip-rule="evenodd" d="M7.91012 10.8427C7.91012 10.8427 8.04401 10.8525 8.21297 10.7903C8.38193 10.728 8.65956 10.5942 8.78001 10.6466C8.94884 10.7184 8.91389 10.9437 9.09655 11.1458C9.20714 11.2701 9.40913 11.2663 9.52369 11.4003C9.63825 11.5343 10.0324 11.4721 10.0324 11.4721L10.1819 12.2785L9.58193 13.0475L9.3857 14.0028H8.57444L7.83332 13.7088L7.46826 12.8256L7.65079 11.9324L7.91012 10.8427Z" fill="#D2C281"/>
<path fill-rule="evenodd" clip-rule="evenodd" d="M9.47974 10.8815C9.49986 10.8877 9.52077 10.891 9.54182 10.8912C9.51853 10.9107 9.46989 10.9533 9.48934 11.064C9.5088 11.1748 9.57088 11.3145 9.51853 11.3999C9.56032 11.4456 9.59149 11.5 9.60979 11.5591C9.64282 11.6544 9.65254 11.7417 9.86797 11.7553C9.83688 11.7745 9.80821 11.7973 9.78259 11.8233C9.78259 11.8233 9.9321 11.9534 10.0079 12.0737C10.0854 12.0703 10.2913 12.0064 10.2913 12.0064L10.334 12.0355L10.4253 11.9971C10.4253 11.9971 10.3399 11.9641 10.402 11.7564C10.4602 11.5738 10.5127 11.5836 10.5172 11.57C10.5217 11.5564 10.5599 11.3642 10.5599 11.2865C10.589 11.1856 10.6123 10.8788 10.6123 10.8788L10.5502 10.2012L10.2008 9.98951L9.91661 9.71521L9.64858 10.22L9.47206 10.396L9.4585 10.8329L9.47974 10.8815Z" fill="#E2C270"/>
<path fill-rule="evenodd" clip-rule="evenodd" d="M10.3203 10.3146C10.3203 10.3146 10.3824 10.4912 10.4058 10.6272C10.4141 10.6008 10.4186 10.5733 10.4194 10.5456C10.4194 10.5456 10.4679 10.8137 10.4775 10.9244C10.497 10.9204 10.5159 10.9147 10.5202 10.934C10.5246 10.9533 10.5689 11.169 10.5586 11.2893C10.6395 11.1559 10.7514 11.044 10.8848 10.9632C10.9625 10.9145 11.0538 10.8622 11.149 10.8582C11.2985 10.8544 11.4072 10.9534 11.5858 10.9534C12.0168 10.9534 12.4072 10.6369 12.6946 10.5399C12.9062 10.4679 13.0887 10.4156 13.2168 10.299C13.279 10.2466 13.3898 10.1302 13.4906 9.95722C13.6246 9.72682 13.7644 9.52625 13.9043 9.50103C13.841 9.51266 13.7766 9.51721 13.7123 9.5146C13.7123 9.5146 13.7551 9.47185 13.8275 9.41361C13.9 9.35537 13.9867 9.28356 14.1109 9.28356C14.3323 9.28356 14.4429 9.31646 14.5672 9.31646C14.6915 9.31262 14.7633 9.28356 14.7633 9.28356C14.7633 9.28356 14.8935 9.37482 15.1866 9.37482C15.4799 9.37866 15.676 9.40388 15.8294 9.41758C15.9829 9.43127 16.4973 9.37482 16.6449 9.37918C16.7411 9.38288 16.8356 9.406 16.9227 9.44714L16.4469 8.06474L14.7378 6.57098L13.7204 7.29137L12.1552 8.85642L10.6407 9.41758L10.3242 9.7729V10.3146H10.3203Z" fill="#CCB360"/>
<path fill-rule="evenodd" clip-rule="evenodd" d="M13.7185 9.52231C13.7185 9.52231 13.7613 9.47968 13.833 9.42144C13.9046 9.3632 13.9923 9.29127 14.1165 9.29127C14.3378 9.29127 14.4485 9.32429 14.5728 9.32429C14.6971 9.32045 14.7689 9.29127 14.7689 9.29127C14.7689 9.29127 14.8992 9.3824 15.1922 9.3824C15.4855 9.38624 15.6816 9.41146 15.835 9.42503C15.9885 9.4386 16.5029 9.3824 16.6505 9.38663C16.7467 9.39025 16.8412 9.41337 16.9282 9.4546L16.7126 8.83124L16.4622 8.35559L15.7476 7.573L14.8835 7.06432C14.8796 7.06048 14.5864 6.98279 14.5864 6.98279L13.8097 7.45268L13.1049 9.27604L13.0913 9.66004L13.5475 9.87559C13.6621 9.68359 13.7884 9.52999 13.9068 9.51053C13.7999 9.52218 13.7184 9.52218 13.7184 9.52218L13.7185 9.52231Z" fill="#D5B457"/>
<path fill-rule="evenodd" clip-rule="evenodd" d="M13.7089 9.65252C13.6409 9.65636 13.5847 9.64279 13.5691 9.59428C13.5109 9.43121 13.4643 9.40791 13.4155 9.40791C13.3668 9.40791 13.301 9.51274 13.2619 9.52234C13.2229 9.53194 13.1765 9.40202 13.1765 9.40202L13.1338 9.38257C13.1338 9.38257 12.8833 9.54564 12.7067 9.7379C12.53 9.93015 12.2406 10.2564 12.1106 10.3145C11.9805 10.3726 11.5338 10.3922 11.381 10.4253C11.2282 10.4583 11.0587 10.569 11.0354 10.5942C11.0121 10.6194 11.1035 10.6466 11.1171 10.6718C11.1307 10.6951 10.9675 10.6854 10.9539 10.7102C10.9443 10.7296 10.9923 10.8402 11.0161 10.8966C11.0578 10.8758 11.1035 10.8646 11.15 10.8635C11.2995 10.8597 11.4083 10.9588 11.5868 10.9588C12.0179 10.9588 12.4082 10.6422 12.6955 10.5451C12.9072 10.4733 13.0898 10.4208 13.2179 10.3043C13.28 10.2519 13.3907 10.1353 13.4917 9.96254C13.5654 9.84414 13.6373 9.73342 13.7093 9.65188L13.7089 9.65252Z" fill="#D2B257"/>
<path fill-rule="evenodd" clip-rule="evenodd" d="M7.52654 19.2623C7.52654 19.2623 7.48814 19.1186 7.1323 18.7477C7.03131 18.6429 6.96923 18.5557 6.90126 18.4934C6.7323 18.334 6.63323 18.2914 6.51291 18.2001C6.24884 18.004 5.96148 18.004 5.74016 17.7633C5.51885 17.5225 5.26093 17.0625 5.08173 16.5923C4.90509 16.1224 4.85645 15.9729 4.85645 15.9593C4.85645 15.9458 4.90509 15.8545 4.96717 15.8681C5.02925 15.8816 5.02925 16.002 5.04486 16.0311C5.07579 16.0788 5.11087 16.1236 5.1497 16.165C5.24096 16.27 5.37101 16.3954 5.43706 16.5826C5.42349 16.4233 5.36909 16.2467 5.36909 16.2467C5.36909 16.2467 5.71085 16.4623 6.00205 16.6874C6.2953 16.9127 6.41562 16.9904 6.50126 17.134C6.58689 17.2776 6.78862 17.6564 6.88526 17.7671C6.9819 17.8778 8.30607 18.2952 8.30607 18.2952L8.93596 18.7649L9.24867 19.4503L9.00393 19.8343L8.53404 19.9353L7.7709 19.5936L7.52654 19.2622V19.2623Z" fill="#D2B159"/>
<path fill-rule="evenodd" clip-rule="evenodd" d="M5.83105 16.901C5.83105 16.901 5.99029 17.1554 6.37863 17.3961C6.7282 17.6078 7.28154 17.8001 7.77485 17.9147C8.05824 17.9826 8.34176 18.035 8.59609 18.0389C9.28153 18.0485 9.75333 17.8526 10.3379 17.7884C10.6544 17.7554 11.0428 17.7302 11.4466 17.6348C11.965 17.5106 12.2718 17.3707 12.6894 17.174C12.9922 17.0343 13.27 16.9294 13.4951 16.7954C13.8117 16.6091 14.0427 16.4013 14.3107 16.3392C14.2777 16.4305 14.2428 16.5936 13.9787 16.7625C14.1185 16.7586 14.3107 16.749 14.3107 16.749C14.3107 16.749 14.1244 16.8596 13.7962 17.1081C13.5942 17.2617 13.3263 17.5217 13.0525 17.6945C12.8757 17.8052 12.6835 17.8865 12.5573 17.9528C12.2501 18.1218 12.1262 18.2071 11.9243 18.4136C11.9961 18.4098 12.002 18.4136 12.002 18.4136C12.002 18.4136 11.7476 18.4466 11.5652 18.5436C11.5268 18.5436 11.4602 18.5301 11.3437 18.5631C11.2525 18.5922 11.132 18.6583 11.0078 18.6932C10.8311 18.7456 10.773 18.7223 10.773 18.7223L10.802 18.7806C10.802 18.7806 10.5716 18.7766 10.4948 18.7844C10.5084 18.7883 10.5046 18.7941 10.5046 18.7941C10.4911 18.7964 10.4781 18.801 10.4662 18.8077C10.4292 18.8317 10.3885 18.8493 10.3458 18.8601C10.3225 18.8639 10.3031 18.8639 10.2739 18.8698C10.2836 18.8931 10.3594 19.0234 10.3944 19.1002C10.3653 19.1196 9.92831 19.4498 9.92831 19.4498C9.94186 19.4711 9.95294 19.4939 9.96133 19.5177C9.9749 19.5604 9.98078 19.6226 9.99435 19.6516C10.0272 19.7099 10.0467 19.7196 10.0467 19.7196C10.0467 19.7196 9.99435 19.7293 9.90296 19.7526C9.82539 19.7721 9.73016 19.805 9.59576 19.8244C9.55453 19.8298 9.51305 19.833 9.47148 19.8341C9.49093 19.8769 9.57631 20.04 9.419 20.2283C9.26169 20.4165 9.21317 20.4439 9.16466 20.5643C9.14024 20.5458 9.11424 20.5295 9.08697 20.5156C9.03462 20.4923 8.96268 20.4575 8.93746 20.4108C8.92277 20.473 8.90329 20.5341 8.87923 20.5933C8.83071 20.7234 8.75891 20.8516 8.74534 20.9486C8.69286 20.8904 8.59584 20.7758 8.46182 20.7991C8.32781 20.8224 8.22105 21.005 8.19776 21.0574C8.19776 21.0244 8.17446 20.9992 8.1687 21.038C8.16473 21.0807 8.09101 21.5272 7.67936 21.8884C7.67552 21.7972 7.67552 21.5952 7.66579 21.5292C7.62739 21.5676 7.58042 21.6244 7.30074 21.7448C7.02695 21.8651 7.07034 21.9856 7.07034 21.9856C7.07034 21.9856 7.04705 21.7936 7.19463 21.5913C7.34413 21.3895 7.4354 21.2942 7.4354 21.2788C7.43298 21.263 7.42625 21.2482 7.41594 21.236C7.39648 21.2165 7.3577 21.1933 7.3577 21.1778C7.381 21.1682 7.61203 21.0574 7.59847 20.8282C7.5849 20.6225 7.4976 20.5156 7.4354 20.44C7.4258 20.4302 7.52679 20.3584 7.51309 20.3351C7.50336 20.3216 7.3792 20.2302 7.36359 20.1815C7.36726 20.1525 7.37377 20.1239 7.38304 20.0962C7.39661 20.0534 7.40634 20.0242 7.4025 19.9952C7.39277 19.9467 7.34029 19.8126 7.3248 19.7991C7.33837 19.8029 7.4354 19.7991 7.4354 19.7991C7.4354 19.7991 7.35783 19.6748 7.34413 19.6165C7.33044 19.5583 7.30138 19.4048 7.28589 19.3758C7.31892 19.3796 7.40045 19.3854 7.40045 19.3758C7.40442 19.3466 7.32864 19.2981 7.36205 19.2606C7.38535 19.2644 7.43002 19.2839 7.47264 19.3383C7.44935 19.2761 7.41056 19.1557 7.3289 19.1072C7.3673 19.0937 7.49786 19.0586 7.61242 19.1266C7.72698 19.1945 7.76602 19.2896 7.76602 19.2896C7.76602 19.2896 7.83398 19.3421 7.93894 19.4198C8.05926 19.5149 8.21261 19.6502 8.45734 19.746C8.50982 19.7751 8.64371 19.7751 8.74086 19.7557C8.78316 19.7456 8.82371 19.7293 8.86118 19.7072C8.8747 19.6992 8.88903 19.6927 8.90393 19.6877C8.88306 19.6458 8.85905 19.6056 8.83212 19.5673C8.86515 19.5673 8.90393 19.5712 8.90393 19.5712C8.90393 19.5712 8.92722 19.5188 8.82239 19.4176C8.84569 19.3943 8.87487 19.3792 8.87487 19.3399C8.84185 19.3361 8.78361 19.2876 8.77004 19.2681C8.78937 19.2546 8.81855 19.2099 8.85158 19.1963C8.82239 19.173 8.75059 19.0759 8.71756 19.0663C8.74911 19.0546 8.77963 19.0403 8.80883 19.0235C8.80883 19.0235 8.64575 18.9808 8.59327 18.9458C8.5408 18.9074 8.46323 18.841 8.41664 18.8215C8.368 18.8021 8.28262 18.7925 8.24768 18.7536C8.28057 18.7633 8.33305 18.7536 8.37196 18.7536C8.40102 18.7536 8.41472 18.7574 8.42432 18.7574C8.42048 18.7438 8.42048 18.7147 8.49625 18.7051C8.5327 18.6996 8.56807 18.6884 8.60108 18.672C8.60108 18.672 8.52915 18.6682 8.44748 18.5905C8.36582 18.5128 8.29798 18.4507 8.25139 18.441C8.20288 18.4313 8.11161 18.474 8.05529 18.47C7.9776 18.4604 7.94458 18.4215 7.94458 18.4215C7.94458 18.4215 7.6864 18.4448 7.11361 18.0954C6.61838 17.7924 6.40283 17.5245 6.40283 17.5245C6.35648 17.5077 6.31168 17.4869 6.26894 17.4623C6.08257 17.3653 5.82427 17.1633 5.83208 16.8991L5.83105 16.901Z" fill="#C2A44D"/>
<path fill-rule="evenodd" clip-rule="evenodd" d="M12.9747 5.24653C13.0197 5.26113 13.0596 5.28805 13.0899 5.32423C13.1812 5.42906 13.2394 5.62708 13.0317 5.83879C13.1132 5.86785 13.1469 5.87719 13.2181 5.86785C13.1463 5.95335 12.9832 6.13588 12.9735 6.29511C12.9637 6.42516 13.0453 6.46407 13.0453 6.46407C13.0453 6.46407 12.921 6.60769 12.9152 6.84807C12.9739 6.78188 13.0381 6.72082 13.1072 6.66554C13.251 6.55098 13.449 6.42093 13.583 6.3394C13.5812 6.37357 13.5858 6.40778 13.5966 6.44026C13.5966 6.44026 13.8469 6.23444 14.0574 6.32583C14.1525 6.36858 14.1097 6.50247 14.1097 6.50247C14.1097 6.50247 14.2399 6.45396 14.3312 6.54522C14.4224 6.63649 14.5515 6.87188 14.6176 6.96314C14.6467 7.00589 14.7225 7.08743 14.8 7.21364C14.906 7.39033 14.9945 7.57695 15.0642 7.77082C15.0681 7.66983 15.0933 7.51265 15.3808 7.61159C15.6682 7.71258 15.9943 7.92429 16.2681 8.34119C16.5419 8.75809 16.6097 9.22874 16.7476 9.40794C16.8874 9.58074 17.0311 9.8681 17.0408 9.98855C17.0506 10.109 16.9981 10.4972 17.2855 11.5477C17.367 11.2216 17.4913 10.4972 17.4913 10.4972L17.5592 9.85837L17.6369 7.88167L15.5728 6.16685L13.9592 4.99591L12.9087 5.0969L12.9746 5.24641L12.9747 5.24653Z" fill="#CAA13E"/>
<path fill-rule="evenodd" clip-rule="evenodd" d="M16.81 8.1883C16.81 8.1883 16.7809 7.9963 16.2955 7.6699C15.81 7.34759 15.4313 7.34759 15.0819 7.0738C14.8139 6.85825 14.5343 6.36301 14.3523 6.19994C14.1755 6.03879 14.1465 5.57274 14.1465 5.57274L14.7426 5.07354L15.6291 3.79214L16.3785 2.96692L16.7377 3.46612L17.2369 4.05249L17.5145 5.22919L17.6155 6.95156L16.8091 8.18842L16.81 8.1883Z" fill="#B59544"/>
<path fill-rule="evenodd" clip-rule="evenodd" d="M17.41 10.2528C17.4247 9.99163 17.3925 9.72991 17.3148 9.48009C17.1868 9.08201 16.9071 8.3752 16.7772 8.11049C16.7247 7.81725 16.7636 7.79395 16.82 7.76093C16.8763 7.7279 17.088 7.60733 17.204 7.18429C17.3199 6.76125 17.6797 6.74742 17.6797 6.74742L17.901 6.58435L18.2371 7.42505L18.5302 8.18435L18.6214 8.76496L18.6894 9.26006L18.5302 10.3067L17.7439 11.0174L17.4099 10.2528H17.41Z" fill="#C89D3A"/>
<path fill-rule="evenodd" clip-rule="evenodd" d="M6.43701 21.9186V21.8971C6.45335 21.8869 6.46778 21.8739 6.47964 21.8587C6.4932 21.8393 6.50306 21.816 6.51266 21.8102C6.53212 21.8005 6.62338 21.7718 6.67189 21.781C6.7204 21.7902 6.84866 21.8431 6.91663 21.8393C7.0564 21.8354 7.21948 21.7286 7.47778 21.7772C7.86613 21.849 7.9574 22.1131 8.18268 22.2626C8.33628 22.3675 8.49525 22.3208 8.51855 22.3208H8.5709C8.58063 22.3208 8.65244 22.2393 8.69135 22.2432C8.76904 22.2471 8.77672 22.3112 8.82524 22.3151C8.9398 22.3286 9.16124 22.2568 9.27196 22.286C9.30479 22.2963 9.33464 22.3144 9.35898 22.3387C9.38332 22.363 9.40142 22.3928 9.41173 22.4257C9.43503 22.4975 9.41557 22.5887 9.35925 22.6412C9.23893 22.7518 9.12437 22.8568 9.10108 22.9484C9.13071 22.971 9.15916 22.9951 9.18632 23.0206C8.22558 22.7758 7.30121 22.4057 6.43701 21.9198V21.9186Z" fill="#CEB052"/>
<path fill-rule="evenodd" clip-rule="evenodd" d="M16.7764 18.0389C16.7764 18.0389 17.0792 17.6351 17.1842 17.435C17.289 17.2288 16.8521 14.6176 16.8521 14.6176L17.7298 11.742L17.7064 10.806C17.7064 10.806 17.7492 9.9419 17.8501 9.56712C17.9706 9.78267 18.3454 10.0429 18.4269 10.1807C18.4653 9.91656 18.5957 9.35937 18.5764 8.7652C18.6482 8.87579 18.821 9.98849 18.821 9.98849L18.9938 10.7379L19.2191 11.5341L19.4696 12.3749L19.6191 12.9555L19.7045 13.0953L19.7764 13.3399L19.8444 13.6041L20.0405 14.2235L20.1557 14.7322L20.2469 15.6545C20.2668 15.7252 20.2811 15.7972 20.2897 15.8701C20.2935 15.9711 20.2761 16.0293 20.2761 16.0469C20.2761 16.0644 20.3091 16.2682 20.2956 16.4216C20.2761 16.5752 20.2761 16.6954 20.1557 16.8056C20.0352 16.9159 19.9596 17.5745 19.9596 17.5745L19.744 17.4309C19.744 17.4309 19.7868 17.2347 19.6858 17.0561C19.5848 16.8776 19.3887 16.8406 19.278 16.8698C19.1674 16.8931 18.9461 16.9279 18.8741 16.9901C18.8062 17.0522 18.6393 17.2444 18.4858 17.3319C18.2938 17.4471 17.981 17.4561 17.8141 17.4949C17.6451 17.5333 17.4587 17.6485 17.2625 17.7823C17.1087 17.8819 16.9462 17.9676 16.7771 18.0383L16.7764 18.0389Z" fill="#CCA847"/>
<path fill-rule="evenodd" clip-rule="evenodd" d="M16.7764 22.2816C16.7764 22.2816 16.7892 22.2899 16.8139 22.3035C18.1934 21.6571 19.4295 20.741 20.4491 19.6091C20.4379 19.2161 20.4235 18.8133 20.4076 18.664C20.3747 18.3475 20.398 18.0252 20.3883 17.8388C20.3785 17.6524 20.2737 16.8932 20.2252 16.6971C20.1727 16.501 20.0716 16.4038 20.0562 16.4038C20.0427 16.4078 19.961 16.7728 19.961 16.8646C19.961 16.9564 19.9415 17.1773 19.9415 17.2336C19.928 17.2297 19.9222 17.1952 19.9222 17.1812C19.9028 17.2297 19.8795 17.3152 19.8697 17.3249C19.86 17.3346 19.8833 17.2434 19.8697 17.2239C19.8562 17.2044 19.8313 17.2142 19.8367 17.1657C19.839 17.1369 19.8436 17.1084 19.8503 17.0803C19.8503 17.0803 19.792 17.1657 19.7494 17.3831C19.7067 17.5987 19.7067 17.6046 19.6912 17.6239C19.6776 17.6473 19.5999 17.7249 19.5959 17.7541C19.5921 17.8064 19.6679 17.8589 19.6736 17.888C19.6775 17.9366 19.6057 18.1618 19.5824 18.272C19.5591 18.3822 19.5688 18.5981 19.544 18.7088C19.5245 18.8098 19.5056 18.8681 19.4391 18.9107C19.4877 18.9204 19.5343 18.934 19.5343 18.934C19.5343 18.934 19.6022 19.2213 19.4294 19.4661C19.3673 19.5515 19.3519 19.5904 19.2858 19.6681C19.1556 19.8117 19.0546 19.9753 19.0449 20.0816C19.0382 20.0502 19.0337 20.0184 19.0313 19.9864C19.0313 19.9864 18.8295 20.2214 18.744 20.3554C18.6334 20.5282 18.4799 20.5185 18.4368 20.5612C18.3936 20.604 18.3843 20.6816 18.3984 20.7438C18.36 20.7534 18.2878 20.7671 18.2391 20.9166C18.2159 20.9941 18.1576 21.0702 18.0663 21.1224C17.9751 21.1746 17.8644 21.1904 17.808 21.2039C17.8566 21.2175 17.876 21.2175 17.8993 21.233C17.8703 21.2815 17.7362 21.3573 17.5867 21.4544C17.4372 21.5457 17.3653 21.6796 17.3284 21.767C17.29 21.8485 17.2333 21.901 17.1421 21.9108C17.1805 21.934 17.2373 21.9883 17.2663 22.0059C17.2236 22.0156 17.1512 22.0156 17.0217 22.1263C16.8858 22.2389 16.8392 22.272 16.777 22.2817L16.7764 22.2816Z" fill="#C39D3C"/>
<path fill-rule="evenodd" clip-rule="evenodd" d="M14.0749 23.1815C14.1492 23.1294 14.2297 23.0867 14.3146 23.0544C14.6175 22.9341 14.9378 22.9108 15.064 22.872C15.1845 22.8336 15.2796 22.7806 15.4291 22.7515C15.4251 22.7856 15.4218 22.8176 15.4182 22.8478C14.9775 22.9863 14.5286 23.0978 14.0742 23.1815H14.0749Z" fill="#D2BA6B"/>
<path fill-rule="evenodd" clip-rule="evenodd" d="M19.6607 15.2156C19.6607 15.2156 19.5986 15.5515 19.4879 15.7632C19.3771 15.9749 19.2575 16.268 19.2575 16.268C19.2582 16.202 19.266 16.1362 19.2808 16.0718C19.141 16.1533 18.8011 16.3496 18.7048 16.4369C18.6135 16.5184 18.46 16.6621 18.4212 16.7301C18.5125 16.4622 18.6076 16.2214 18.6232 16.1107C18.4834 16.2117 17.8309 16.7496 17.4912 17.1049L16.4329 17.9612C16.3108 18.0271 16.185 18.086 16.0562 18.1376C15.8738 18.2152 15.6582 18.2812 15.499 18.3434C15.5418 18.2289 15.6096 18.1277 15.7048 18.0307C15.8058 17.9356 16.1087 17.6074 16.1553 17.4547C16.198 17.2955 16.2077 17.2004 16.1514 17.0664C16.0989 17.0799 15.9786 17.0858 15.8971 17.1091C15.8155 17.1324 15.7281 17.2197 15.7281 17.2197C15.7281 17.2197 15.7902 16.8644 15.9242 16.5285C15.8232 16.5324 15.6504 16.5614 15.6504 16.5614C15.6504 16.5614 15.8912 16.1576 16.3032 15.8761C16.177 15.903 16.0536 15.9413 15.9343 15.9905C15.6936 16.0915 15.4295 16.241 15.2334 16.3226C15.344 16.169 16.1207 15.0605 16.5829 14.0274C17.0437 12.9964 17.2159 12.7323 17.3169 12.1789C17.3692 11.9052 17.3553 11.5005 17.3692 11.1382C17.3828 10.7789 17.4274 10.4566 17.3984 10.241C17.5187 10.3905 17.9693 10.8119 17.9848 11.7537C17.9983 12.6954 17.5538 13.9674 17.0818 14.6527C17.197 14.6857 17.4955 14.7246 17.8022 14.1919C18.1089 13.6591 18.1052 13.5104 18.2159 13.289C18.2295 13.3997 18.2255 13.4385 18.2255 13.4385C18.2255 13.4385 18.6722 12.8968 18.8838 12.2152C18.9266 12.5084 19.0528 12.7667 18.8546 13.3046C18.678 13.79 18.447 13.9085 18.447 13.9085C18.447 13.9085 18.5615 13.889 18.7304 13.788C18.7595 13.8598 18.7538 13.9416 18.8023 13.9706C18.8508 13.9995 18.9169 14.0483 18.9266 14.0949C18.9789 14.0172 19.0605 13.9181 19.0858 13.8444C19.0664 13.998 19.0528 14.6696 19.1242 15.0113C19.2738 14.9978 19.4272 14.988 19.532 14.7181C19.4602 14.9823 19.4602 15.1414 19.5087 15.3667C19.5883 15.3124 19.6601 15.2152 19.6601 15.2152L19.6607 15.2156Z" fill="#C0993A"/>
<path fill-rule="evenodd" clip-rule="evenodd" d="M14.6157 4.51268C14.6157 4.51268 14.4662 4.57476 14.2119 4.57476C13.9906 4.57476 14.0526 4.48938 13.707 4.48938C13.1751 4.48938 11.3167 4.79658 10.9904 4.79223C10.7787 4.78839 11.705 4.88349 11.705 4.88349L14.0721 4.91652L14.5477 4.87812L14.7245 4.51844L14.6157 4.51268Z" fill="#A88F33"/>
<path fill-rule="evenodd" clip-rule="evenodd" d="M8.47794 9.1398C8.47794 9.1398 8.17497 9.37084 8.04684 9.54761C7.91871 9.72438 7.85074 9.84073 7.70508 9.98447C7.73927 9.98578 7.77343 9.98119 7.80607 9.9709C7.80607 9.9709 7.80607 10.0093 7.78277 10.0194C7.80291 10.0172 7.82328 10.0194 7.84242 10.0261C7.86156 10.0327 7.87896 10.0436 7.89337 10.0578C7.85061 10.0811 7.73413 10.1977 7.8254 10.3356C7.89337 10.4404 8.03711 10.45 8.03711 10.45C8.03711 10.45 8.00409 10.5452 8.14194 10.5355C8.43903 10.5219 8.77106 10.3918 8.92441 10.4248C9.07801 10.4632 9.1653 10.4773 9.27397 10.6657C9.38917 10.8521 9.48953 10.8812 9.48953 10.8812C9.48953 10.8812 9.55749 10.7083 9.54201 10.4501C9.59773 10.311 9.62862 10.1631 9.63327 10.0133L9.53228 9.26959L9.09157 8.71228L8.52069 9.02882L8.47794 9.13942V9.1398Z" fill="#E3C571"/>
<path fill-rule="evenodd" clip-rule="evenodd" d="M9.01953 9.02917C9.01953 9.02917 9.06228 9.13016 9.24097 9.13976C9.22152 9.18251 9.22152 9.1884 9.2274 9.22129C9.23124 9.25432 9.237 9.30283 9.237 9.30283C9.25668 9.29331 9.27446 9.2803 9.28948 9.26443C9.29921 9.30718 9.27975 9.37502 9.28948 9.42366C9.29549 9.45324 9.30525 9.48194 9.31854 9.50904C9.32137 9.5024 9.32462 9.49594 9.32827 9.48971C9.33211 9.47998 9.36667 9.59454 9.46228 9.68171C9.4622 9.66831 9.4655 9.6551 9.47188 9.64331C9.47335 9.66766 9.4814 9.69115 9.49518 9.71128C9.48802 9.70787 9.48149 9.70328 9.47585 9.69771C9.47585 9.69771 9.48545 10.0049 9.53793 10.1638C9.5467 10.1535 9.5545 10.1424 9.56123 10.1307C9.56123 10.1211 9.55739 10.2162 9.54766 10.2843C9.53409 10.3523 9.54382 10.4474 9.54382 10.4474C9.57883 10.4198 9.6173 10.397 9.65825 10.3794C9.71649 10.356 9.81185 10.2842 9.86996 10.125C9.90368 10.0348 9.92967 9.94192 9.94766 9.84734C9.96643 9.88349 9.97939 9.92236 9.98606 9.96254C9.99003 10.0111 10.0813 9.98584 10.0813 9.98584L10.1007 9.77413L10.2159 9.29451L10.3208 8.99742L10.8256 8.21112L11.7377 7.50865L12.5339 7.69118L13.2056 6.77854L12.0484 6.08337L10.9532 6.19793L9.95931 7.57457L9.16328 8.82321L9.01953 9.02904V9.02917Z" fill="#D8B65B"/>
<path fill-rule="evenodd" clip-rule="evenodd" d="M14.7553 7.0369C14.7553 7.0369 14.6874 7.05047 14.4913 7.1521C14.2952 7.25374 14.1592 7.28599 14.0835 7.4355C14.0077 7.585 14.0019 7.70353 14.0019 7.70353C14.0019 7.70353 14.1359 7.64529 14.2136 7.62583C14.2952 7.60651 14.3864 7.61227 14.3767 7.64529C14.3674 7.66793 14.3544 7.6889 14.3383 7.70737C14.3383 7.70737 14.4919 7.70353 14.4878 7.77931C14.4837 7.85508 14.4588 7.93854 14.4297 7.97541C14.4005 8.01381 14.2802 8.07064 14.2666 8.11531C14.2336 8.20657 14.2802 8.21041 14.2627 8.28414C14.2491 8.35608 14.1851 8.49586 13.9753 8.74047C13.7597 8.9852 13.6681 9.15801 13.6681 9.15801C13.6681 9.15801 13.5633 8.96191 13.5089 8.79295C13.4705 8.81228 13.2643 8.92684 13.2643 8.92684L12.7866 7.26282L12.7962 7.1521C12.7962 7.1521 12.8389 7.09975 12.8486 7.0026C12.7768 6.9793 12.7671 6.95985 12.6719 6.86871C12.5766 6.77757 12.4991 6.66672 12.34 6.59095C12.3167 6.54819 12.2875 6.49008 12.171 6.46666C12.0545 6.44323 11.9846 6.42403 11.9846 6.42403C11.9846 6.42403 12.0467 6.40061 12.0759 6.3521C12.004 6.36182 11.9458 6.38512 11.7885 6.38128C11.6293 6.37731 11.6118 6.37155 11.5245 6.38512C11.4372 6.39869 11.3325 6.4376 11.2934 6.30358C11.2507 6.27056 11.1594 6.29974 11.0817 6.41418C11.004 6.52861 10.9769 6.62 10.8274 6.66468C10.8169 6.73058 10.7938 6.79385 10.7594 6.85104C10.7167 6.92298 10.6487 6.99479 10.5574 7.10154C10.4137 7.2705 10.437 7.54814 10.2079 7.75985C9.97681 7.97144 10.2463 7.17335 10.2463 7.17335L10.6152 6.29014L11.6657 5.26294L13.2968 5.15234L13.456 5.99715L14.2522 6.27094L14.7551 7.03793L14.7553 7.0369Z" fill="#D3AE4D"/>
<path fill-rule="evenodd" clip-rule="evenodd" d="M15.0133 7.22327L14.3279 6.235L13.8483 5.86598C13.8483 5.86598 13.5065 5.23699 13.4832 5.21754C13.4638 5.20397 13.1415 5.16902 12.9357 5.15546L12.9741 5.25056C13.019 5.26515 13.0589 5.29207 13.0893 5.32825C13.1805 5.43309 13.2388 5.6311 13.031 5.84281C13.1126 5.87186 13.1462 5.88121 13.2174 5.87186C13.1456 5.95737 12.9825 6.13989 12.9728 6.29912C12.9631 6.42917 13.0446 6.46795 13.0446 6.46795C13.0446 6.46795 12.9203 6.6117 12.9146 6.85195C12.9732 6.78576 13.0375 6.7247 13.1065 6.66942C13.2503 6.55422 13.4483 6.42469 13.5823 6.34315C13.5805 6.37737 13.5851 6.41163 13.5959 6.44415C13.5959 6.44415 13.8462 6.23832 14.0567 6.32959C14.1518 6.37234 14.109 6.50635 14.109 6.50635C14.109 6.50635 14.2392 6.45784 14.3304 6.5491C14.4217 6.64037 14.5518 6.87524 14.6178 6.96664C14.6469 7.00939 14.7226 7.09092 14.8002 7.217C14.9062 7.39373 14.9947 7.58038 15.0644 7.77431C15.0682 7.69661 15.0838 7.58794 15.218 7.58794L15.0141 7.22289L15.0133 7.22327Z" fill="#CAA13E"/>
<path fill-rule="evenodd" clip-rule="evenodd" d="M4.73787 10.0311C4.73787 10.0311 4.68936 9.91067 4.73787 9.67579C4.78638 9.44091 4.86216 9.33019 4.88737 8.98459C4.91259 8.639 5.13787 8.20789 5.13787 8.20789L5.7611 7.9245L6.20193 8.04482L6.33197 8.63516L5.77466 8.94236C5.77466 8.94236 5.74561 9.0724 5.5883 9.17723C5.43099 9.28207 5.21352 9.3636 5.16116 9.47048C5.12987 9.53593 5.10703 9.60509 5.0932 9.67631C5.0932 9.67631 4.93396 9.64328 4.83886 9.74811C4.73787 9.85499 4.74171 9.9501 4.73787 10.0316V10.0311Z" fill="#F4EFC8"/>
<path fill-rule="evenodd" clip-rule="evenodd" d="M5.99612 9.87384C5.99612 9.87384 5.94364 9.90686 5.90485 9.98903C5.86645 9.92695 5.77468 9.55793 5.77084 9.2259C5.767 8.89388 5.74716 8.81157 5.82396 8.69714C5.90076 8.58271 6.20194 8.46213 6.15919 8.25606C6.11644 8.05996 5.93775 7.97843 5.71836 8.03475C5.56476 8.07315 5.45045 8.3998 5.29122 8.56287C5.17077 8.68716 5.02716 8.6677 4.98837 8.73567C4.93589 8.82693 4.98441 8.9182 4.96892 8.97643C4.96495 8.99589 4.91644 9.10072 4.82901 9.22693C4.65237 9.48126 4.35337 9.84055 4.31445 10.1629C4.32802 9.98033 4.31842 9.97649 4.36693 9.77451L4.33775 9.726L4.52975 9.09688L4.65404 8.57849L4.9318 7.7104L5.42101 6.82311L5.89679 6.29102L6.39189 6.32404L6.45013 7.06771L6.73365 8.46393L7.32975 9.19787L6.37436 9.84081L5.99573 9.87384H5.99612Z" fill="#EBCC73"/>
<path fill-rule="evenodd" clip-rule="evenodd" d="M6.29314 10.1377C6.29314 10.1377 6.2116 10.1571 6.18242 10.1416C6.15323 10.1261 6.12431 10.1086 6.13391 10.0891C6.14351 10.0697 6.19599 10.0368 6.19599 10.0212C6.19706 10.0071 6.1926 9.99308 6.18354 9.98221C6.17448 9.97134 6.16155 9.96442 6.14747 9.96293C6.1028 9.95717 6.08923 9.98623 6.08923 9.98623C6.08923 9.98623 6.04648 9.95333 6.01167 9.94783C6.03226 9.9453 6.05299 9.94398 6.07374 9.94386C6.02009 9.91955 5.96317 9.90321 5.90479 9.89534C5.9533 9.86629 6.04853 9.78078 6.11061 9.78078C6.17269 9.78078 6.2116 9.77118 6.20187 9.73816C6.19215 9.70513 6.14363 9.65662 6.09128 9.63716C6.11061 9.61387 6.1243 9.57892 6.07771 9.48356C6.02907 9.38845 6.04853 9.32432 6.06414 9.30115C6.07771 9.27197 6.12623 9.21962 6.14952 9.18659C6.17282 9.15357 6.19227 9.10889 6.23106 9.0856C6.25051 9.07203 6.31259 9.04719 6.3748 9.02351C6.44277 9.00022 6.49909 8.97103 6.53787 9.00022C6.58063 9.02927 6.56117 9.06819 6.56117 9.06819C6.56117 9.06819 6.69518 9.01955 6.8155 9.08176C6.93595 9.13987 7.2292 9.17686 7.2292 9.17686L7.33429 9.38858L6.63912 9.98469L6.35176 10.1284L6.29352 10.138L6.29314 10.1377Z" fill="#E5C66B"/>
<path fill-rule="evenodd" clip-rule="evenodd" d="M7.25806 9.16311C7.25806 9.16311 7.04251 9.30685 6.994 9.35921C7.02305 9.36317 7.07156 9.38263 7.05211 9.41169C7.02881 9.44074 6.88904 9.54173 6.81134 9.63697C6.7298 9.73207 6.65211 9.85252 6.62497 9.91076C6.59592 9.96311 6.37448 10.1166 6.29883 10.1359C6.45806 10.1359 6.77844 9.93981 6.89876 9.93981C6.89492 9.99805 6.93179 10.0641 6.99976 10.0699C7.06772 10.0756 7.26382 10.1126 7.52788 9.94954C7.79195 9.79031 7.70465 9.67178 7.81524 9.59421C8.02696 9.45431 8.11233 9.33002 8.22881 9.25245C8.34529 9.17489 8.40558 9.15722 8.40558 9.15722C8.40558 9.15722 8.40942 9.09898 8.44398 9.10487C8.45344 9.10596 8.46242 9.1096 8.46996 9.11543C8.47749 9.12125 8.48329 9.12902 8.48673 9.13789C8.48673 9.13789 8.68872 8.99415 8.94753 8.95537C8.94149 8.95267 8.93666 8.94784 8.93396 8.9418C8.93396 8.9418 8.95329 8.93207 8.95726 8.92234C8.95726 8.92234 8.97083 8.90289 8.98056 8.91261C8.99028 8.92234 9.00385 8.99415 9.02331 9.02333C9.06606 9.00388 9.1476 8.82135 9.1476 8.82135L9.34382 8.2602V7.74756L9.19022 7.77674L8.03822 8.26596L7.33908 8.99031L7.25755 9.16311H7.25806Z" fill="#E6BD62"/>
<path fill-rule="evenodd" clip-rule="evenodd" d="M10.5749 6.64862C10.6372 6.6335 10.6969 6.60926 10.7522 6.57668C10.7289 6.63889 10.7289 6.70686 10.6279 6.85444C10.5269 7.00203 10.5231 7.0234 10.4415 7.17675C10.36 7.33598 10.3503 7.56511 10.2726 7.66597C10.3074 7.64905 10.3447 7.63794 10.3832 7.63307C10.3832 7.63307 10.3056 7.70104 10.2726 7.77285C10.2395 7.84466 10.1813 7.99417 10.0377 8.08556C9.89407 8.17695 9.71141 8.23507 9.51531 8.45062C9.31909 8.66221 9.11723 8.93024 9.01611 9.02663C9.06859 8.93536 9.1404 8.75283 9.15986 8.63251C9.17931 8.51219 9.15589 8.36831 9.18891 8.20921C9.22194 8.0501 9.22194 7.93541 9.38091 7.65765C9.53989 7.37989 9.81202 6.41489 9.81202 6.41489L10.3984 6.22852L10.5752 6.64798L10.5749 6.64862Z" fill="#B6933F"/>
<path fill-rule="evenodd" clip-rule="evenodd" d="M10.1516 6.29321C10.1516 6.29321 9.97494 6.54754 9.92643 6.77282C9.87792 6.9981 9.92246 6.97865 9.8934 7.08937C9.87603 7.15687 9.87603 7.22768 9.8934 7.29519C9.95458 7.19664 10.0383 7.11406 10.1378 7.05429C10.3048 6.95343 10.4407 6.88149 10.5218 6.79612C10.6033 6.70485 10.6713 6.55535 10.8479 6.44079C10.7761 6.43106 10.6751 6.39804 10.6559 6.40239C10.7278 6.32085 10.9433 6.19657 11.1607 6.04706C11.3763 5.89346 11.3627 5.83151 11.7123 5.67817C11.5977 5.69762 11.5433 5.66844 11.4481 5.67817C11.4865 5.59663 11.6209 5.55772 11.7553 5.42383C11.8897 5.28994 11.6699 5.0918 11.6699 5.0918L10.6459 5.71119L10.1508 6.29372L10.1516 6.29321Z" fill="#C49937"/>
<path fill-rule="evenodd" clip-rule="evenodd" d="M7.37305 5.83106L7.39634 5.64469L7.68959 5.17481L7.99641 4.34959V3.2214L7.97311 2.56898L8.02162 2.14172L8.05849 2.00591L8.0974 1.95343L8.34777 2.08348L8.69349 2.55337L8.72652 3.46025L8.39052 4.89129L7.43129 5.93794L7.37305 5.83106Z" fill="#DFC068"/>
<path fill-rule="evenodd" clip-rule="evenodd" d="M8.13618 1.90093C8.13618 1.90093 7.98258 1.9049 7.94981 2.54375C7.91705 3.18259 7.90117 3.51847 7.87788 3.83501C7.85458 4.15155 7.80031 4.34368 7.77305 4.53018C7.74578 4.71667 7.7303 4.97088 7.643 5.12627C7.6046 5.19808 7.52255 5.42336 7.3303 5.59232C7.11475 5.77869 6.7927 5.90887 6.74394 5.91859C6.65843 5.93792 6.22541 5.98067 6.04877 6.07783C5.98669 6.11085 5.87981 6.14963 5.76142 6.26035C5.52641 6.47194 5.21384 6.85056 4.98856 7.30688C4.64296 7.98848 4.29736 9.91271 4.29736 9.91271L4.37506 9.78266C4.37506 9.78266 4.38479 9.60986 4.55759 9.30688C4.72654 9.00403 4.67803 8.6642 4.91291 8.08359C5.00417 7.86228 5.11873 7.57491 5.25851 7.33018C5.47995 6.9321 5.74785 6.59034 6.0178 6.40397C6.4585 6.10112 6.944 6.03507 6.944 6.03507L7.46636 5.68947C7.46636 5.68947 7.55763 5.51283 7.67807 5.31085C7.8469 5.02746 8.06207 4.71091 8.10905 4.25075C8.18098 3.56915 8.00805 3.12256 8.01778 2.71872C8.02751 2.31488 8.03135 2.01779 8.11301 1.94586C8.19468 1.87392 8.13631 1.90119 8.13631 1.90119L8.13618 1.90093Z" fill="#A88F33"/>
<path fill-rule="evenodd" clip-rule="evenodd" d="M8.136 4.94958C8.136 4.94958 8.3664 4.38254 8.47188 3.87963C8.49133 3.77863 8.53012 3.67777 8.53985 3.59623C8.58836 3.12046 8.60193 2.92436 8.53985 2.66414C8.49133 2.47214 8.30496 2.29908 8.20781 2.16494C8.1127 2.02503 8.06803 1.97294 8.08748 1.9435C8.10694 1.91406 8.18259 1.86593 8.25632 1.87169C8.33469 1.87397 8.41178 1.89217 8.48291 1.92517C8.55403 1.95818 8.61769 2.00531 8.67003 2.06369C8.81953 2.23649 8.93794 2.82299 8.93794 2.82299L9.06248 3.59687L9.37903 4.57159L8.13625 4.95035L8.136 4.94958Z" fill="#C99E3D"/>
<path fill-rule="evenodd" clip-rule="evenodd" d="M10.3009 4.35923C10.3009 4.35923 10.2581 4.37856 10.1806 4.35923C10.1839 4.39093 10.1784 4.42293 10.1647 4.4517C10.151 4.48047 10.1296 4.50491 10.1029 4.52231C10.0213 4.48928 9.25808 4.55533 9.25808 4.55533C9.25808 4.55533 8.90275 4.49312 8.79203 4.02323C8.71446 3.71053 8.85027 3.27955 8.8056 2.99603C8.73763 2.5785 8.64253 2.49683 8.6328 2.36691C8.62307 2.23699 8.61334 2.20384 8.61334 2.12231C8.57059 2.11258 8.54537 2.09901 8.50275 2.09901C8.49302 2.06061 8.51235 2.02707 8.46973 1.95911C8.49302 1.96883 8.65225 1.98829 8.83862 2.16493C8.99222 2.30867 8.99222 2.36103 9.01539 2.39021C9.04445 2.41927 9.27945 2.62061 9.38045 2.82131C9.48144 3.02202 9.67753 3.66202 9.72221 3.76685C9.73577 3.8096 9.76496 3.85235 9.83741 3.94938C9.95005 4.08928 10.115 4.32058 10.3014 4.35898L10.3009 4.35923Z" fill="#B58634"/>
<path fill-rule="evenodd" clip-rule="evenodd" d="M9.04297 2.40002C9.1606 2.59004 9.26627 2.7872 9.35938 2.99036C9.47394 3.24854 9.54191 3.46025 9.68566 3.63305C9.60796 3.4079 9.4701 2.96514 9.38857 2.80783C9.2973 2.64143 9.11094 2.46223 9.04297 2.40015V2.40002Z" fill="#A88F33"/>
<path fill-rule="evenodd" clip-rule="evenodd" d="M7.72239 5.59229C7.72239 5.59229 7.5263 5.6408 7.16125 5.83306C7.04081 5.89514 6.92638 5.94749 6.81566 5.99613C6.52805 6.12618 6.21958 6.24637 5.97485 6.31267C5.9943 6.33597 6.0039 6.34557 6.0039 6.34557C6.0039 6.34557 6.0039 6.4408 6.05638 6.49507C6.02732 6.52426 5.63885 6.78832 5.75354 7.67178C5.83111 7.64272 5.92237 7.60381 5.93593 7.60381C5.95936 7.60778 5.96512 7.67178 5.99417 7.67178C6.02323 7.67178 6.11846 7.63338 6.21945 7.50282C6.21561 7.5553 6.15737 8.08343 6.46994 8.43876C6.52818 8.37079 6.67576 8.14551 6.67576 8.14551L6.6796 8.0737C6.6796 8.0737 6.69317 7.8232 6.77483 7.59408C6.85649 7.36496 7.01559 7.196 7.01559 7.196L7.84642 6.00957L7.72214 5.59216L7.72239 5.59229Z" fill="#E6C367"/>
<path fill-rule="evenodd" clip-rule="evenodd" d="M6.94574 7.3344C6.9077 7.36128 6.86579 7.38221 6.82145 7.39648C6.80788 7.34796 6.78843 7.18092 6.90299 7.01785C7.037 6.82162 7.33012 6.56728 7.41166 6.36504C7.46414 6.23486 7.44084 5.90872 7.90689 5.49118C8.37294 5.07364 8.55534 4.93002 8.55534 4.93002L9.30875 4.55139L10.235 4.91645L9.7748 6.71999L9.41755 7.5648L7.99675 7.29689L6.94561 7.3344H6.94574Z" fill="#DCBA5A"/>
<path fill-rule="evenodd" clip-rule="evenodd" d="M7.48779 6.84476L7.66456 6.62344V6.46613C7.66456 6.46613 7.86066 6.41365 8.07225 6.19809C8.28383 5.98254 8.57708 5.56896 8.83539 5.59418C9.09369 5.62337 9.11891 6.15534 9.12864 6.30497C9.13837 6.45461 9.17139 6.79419 9.22374 6.97685C9.28198 7.15938 8.59462 7.85059 8.59462 7.85059L8.1278 8.20592L7.48779 6.84476Z" fill="#E9CE77"/>
<path fill-rule="evenodd" clip-rule="evenodd" d="M8.03516 8.68735C8.03516 8.68735 8.1789 8.46207 8.07356 8.41355C8.13563 8.27378 8.25019 8.12619 8.25019 8.12619C8.25019 8.12619 8.33172 7.92434 8.59578 7.67576C8.85984 7.42719 9.02303 7.26207 9.06578 7.09515C9.09214 6.98637 9.10648 6.87503 9.10854 6.76312C9.13708 6.78644 9.16762 6.80722 9.1998 6.8252C9.24255 6.84466 9.4444 7.01157 9.41534 7.34757C9.38629 7.68357 9.26175 7.82335 9.26175 7.82335C9.26175 7.82335 9.14143 7.94367 9.05606 8.00588C8.96467 8.06796 8.93177 8.13976 8.7783 8.14565C8.79408 8.13311 8.81181 8.12325 8.83078 8.11647C8.83078 8.11647 8.67156 8.09714 8.58605 8.17471C8.50055 8.25228 8.3188 8.49125 8.22754 8.56319C8.13627 8.62143 8.03554 8.68748 8.03554 8.68748L8.03516 8.68735Z" fill="#CDAE50"/>
<path fill-rule="evenodd" clip-rule="evenodd" d="M14.4914 4.91064C14.2619 4.82703 14.0209 4.77987 13.7769 4.77087C13.3691 4.7573 12.773 4.78059 12.1885 4.78443C11.5594 4.78827 10.9885 4.56888 10.1964 4.5301C10.0663 4.4524 9.73556 4.11256 8.70312 4.83295C8.7652 4.82911 9.45269 4.67371 9.6914 4.97285C9.93217 5.26994 9.8642 5.77478 9.83131 5.8951C9.7691 6.16313 9.56712 6.55341 9.48571 6.8272C9.4043 7.101 9.4235 7.24487 9.36526 7.43687C9.30702 7.62887 9.1789 7.72423 9.25454 7.94555C9.35553 7.88347 9.40814 7.88347 9.57684 7.50484C9.74555 7.12621 9.71086 6.85626 9.99054 6.53587C10.2643 6.21357 10.7201 5.77273 10.8934 5.66201C11.0667 5.55129 12.4429 4.83679 13.8837 5.51839C14.2313 5.48153 14.4915 4.91052 14.4915 4.91052L14.4914 4.91064Z" fill="#D2A83E"/>
<path fill-rule="evenodd" clip-rule="evenodd" d="M9.28344 4.64636C9.28201 4.63177 9.27879 4.61741 9.27384 4.60361C9.26036 4.57521 9.24267 4.54902 9.22136 4.52591C9.22136 4.52591 8.8796 4.46383 8.7068 4.48316C8.40383 4.51619 8.13004 4.89097 8.00191 5.08323C7.87378 5.27549 7.71455 5.57245 7.54175 5.72593C7.54365 5.71098 7.5402 5.69584 7.53203 5.68317C7.53203 5.68317 7.54175 5.69674 7.52243 5.7162C7.5031 5.73566 7.50297 5.74526 7.5127 5.7546L7.54188 5.78366C7.55148 5.78366 7.81951 5.66321 8.18457 5.32285C8.57291 4.96752 8.87 4.78524 9.02539 4.72278C9.10826 4.68756 9.19488 4.66192 9.28356 4.64636H9.28344Z" fill="#C29637"/>
<path fill-rule="evenodd" clip-rule="evenodd" d="M15.9126 3.18646C15.9126 3.18646 15.8503 3.26403 15.7726 3.34954C15.5998 3.53206 15.3746 3.73776 15.1823 3.94947C14.9999 4.15146 14.7941 4.30877 14.5629 4.57284C14.3317 4.8369 14.0637 5.13002 13.9959 5.21553C13.9338 5.30103 13.8853 5.44081 13.8853 5.51262C13.8523 5.48932 13.8135 5.46411 13.8135 5.46411C13.8298 5.49459 13.8493 5.52325 13.8717 5.54961C13.9202 5.61758 13.9959 5.70321 14.0348 5.75544C14.0825 5.82192 14.1168 5.8971 14.1357 5.97675C14.1589 5.98059 14.3085 6.00977 14.495 5.70296C14.6814 5.39614 14.9259 5.06026 14.9259 5.06026L15.3143 4.48349L15.559 3.99427L15.8662 3.44669L15.9129 3.18646H15.9126Z" fill="#AC8132"/>
<path fill-rule="evenodd" clip-rule="evenodd" d="M16.3107 2.79419C16.3107 2.79419 16.0757 2.98619 15.9844 3.1014C15.8932 3.2166 15.6772 3.51894 15.6772 3.51894L15.7549 3.50921L16.1492 3.15977L16.3028 2.88597L16.3106 2.7947L16.3107 2.79419Z" fill="#A88F33"/>
<path fill-rule="evenodd" clip-rule="evenodd" d="M16.2388 18.2253C16.2388 18.2253 16.235 18.066 16.3243 17.9709C16.4156 17.8757 16.6466 17.7359 16.8719 17.2116C17.0972 16.6873 17.1223 16.5689 17.1223 16.5689C17.1223 16.5689 16.7184 16.9145 16.4695 16.9961C16.5277 16.8756 16.5607 16.7903 16.5899 16.728C16.5569 16.699 16.4171 16.666 16.4036 16.6505C16.4811 16.5728 16.5239 16.3824 16.6812 16.2562C16.8832 16.1026 17.2521 15.8387 17.5388 15.6034C17.8255 15.3682 18.3892 14.821 18.4612 14.6617C18.5039 14.7238 18.5135 14.7626 18.5135 14.7626C18.5135 14.7626 18.2301 15.1316 18.0825 15.3665C17.9524 15.5685 17.9621 15.6831 17.9621 15.6831L18.2301 15.5679C18.2301 15.5679 18.3077 15.8552 17.9563 16.2922C18.1099 16.234 18.1719 16.2689 18.2592 16.2203C18.1154 16.3117 17.9174 16.436 17.731 16.7776C17.5485 17.1193 17.2999 17.5174 16.8806 17.7659C16.4728 18.028 16.2378 18.2241 16.2378 18.2241L16.2388 18.2253Z" fill="#A67A2E"/>
<path fill-rule="evenodd" clip-rule="evenodd" d="M15.1862 5.11271C15.1862 5.11271 15.0269 5.44461 15.0036 5.70291C14.9998 5.76512 14.9842 5.81363 14.9842 5.88543C14.9803 6.11647 14.9978 6.37477 14.9458 6.49509C14.9263 6.44658 14.9166 6.41356 14.8971 6.39423C14.8681 6.47576 14.8156 6.7301 14.7729 6.8252C14.7535 6.76312 14.7108 6.54757 14.7148 6.29324C14.7187 6.0389 14.7244 5.99027 14.7244 5.93791C14.7148 6.01548 14.6623 6.12044 14.6428 6.18252C14.6138 6.13017 14.5807 6.0622 14.5418 6.00588C14.5185 6.04428 14.4895 6.10098 14.4643 6.13017C14.4603 6.10687 14.4507 6.04467 14.4448 5.95737C14.441 5.85638 14.4351 5.72633 14.441 5.69907C14.4506 5.64672 14.5322 5.4409 14.705 5.25248C14.9108 5.0272 15.1225 4.59431 15.1846 4.4603C15.2467 4.32628 15.5108 3.7691 15.5108 3.7691H15.7127L15.4195 4.437C15.4195 4.437 15.2429 4.80205 15.1516 4.9362C15.0603 5.07034 14.8681 5.45472 14.7826 5.60422C14.8447 5.52269 14.8971 5.47993 14.9594 5.40224C15.0195 5.34784 15.1864 5.11296 15.1864 5.11296L15.1862 5.11271Z" fill="#8C6228"/>
<path fill-rule="evenodd" clip-rule="evenodd" d="M16.3146 2.76886C16.2816 2.87041 16.2294 2.96469 16.161 3.04662C16.0405 3.19036 15.7822 3.38249 15.6562 3.53584C15.541 3.68534 15.3106 4.09315 15.4153 4.5766C15.4537 4.47177 15.526 4.26403 15.7182 4.02902C15.9105 3.79401 16.1163 3.52419 16.2174 3.31452C16.3183 3.10281 16.3318 2.9359 16.3318 2.9359L16.3702 2.88739L16.3469 2.77667L16.3139 2.76886H16.3146Z" fill="#CBA94C"/>
<path fill-rule="evenodd" clip-rule="evenodd" d="M20.2465 15.6485C20.2465 15.6485 20.1688 15.437 20.1455 15.2447C20.1222 15.0524 20.1839 15.0143 20.1125 14.7943C20.0697 14.6603 19.9922 14.6791 19.9727 14.6603C19.9533 14.6414 19.9397 14.4389 19.9435 14.3282C19.9474 14.2175 19.9397 14.0739 19.9202 14.0117C19.8912 13.9884 19.8717 13.9689 19.829 13.8253C19.7805 13.6816 19.7572 13.6098 19.7339 13.5671C19.7106 13.5245 19.6425 13.4856 19.6425 13.4428C19.6425 13.3573 19.7202 13.3128 19.7202 13.2892C19.7163 13.2407 19.6581 13.2796 19.6425 13.2659C19.6232 13.2427 19.6911 13.1029 19.6659 13.0834C19.6562 13.0738 19.5882 13.1554 19.5707 13.1321C19.5512 13.1086 19.5279 12.8776 19.493 12.7243C19.4601 12.5747 19.425 12.4661 19.4212 12.4214C19.4173 12.3787 19.1531 11.6252 19.0891 11.4427C19.0376 11.2885 18.9941 11.1316 18.9591 10.9728C18.9396 10.8816 18.9261 10.6951 18.9163 10.7145C18.9066 10.734 18.9125 10.8291 18.8969 10.8252C18.8833 10.8213 18.8348 10.4894 18.8193 10.4369C18.8057 10.3844 18.7241 10.2065 18.7041 10.0777C18.6847 9.94755 18.642 9.60771 18.6128 9.37667C18.5837 9.14563 18.5701 9.05052 18.5701 8.99267C18.5749 8.85116 18.5671 8.7095 18.5468 8.56937C18.5084 8.32464 18.4316 8.02755 18.3643 7.85488C18.2342 7.5286 17.8885 6.69366 17.8267 6.48592C17.8267 6.43344 17.8946 6.46262 17.8946 6.46262C17.8946 6.46262 18.0635 6.88592 18.1878 7.21206C18.3082 7.53833 18.4228 7.82569 18.4519 7.85488C18.4752 7.88393 18.6578 8.20432 18.7393 8.7286C18.8208 9.25289 18.8499 9.73635 18.8985 10.0587C18.9218 10.2123 18.9413 10.3752 18.9898 10.5383C19.0422 10.715 19.1237 10.8976 19.2306 11.1771C19.3218 11.4121 19.3898 11.6082 19.4267 11.7772C19.4694 11.9927 19.4694 12.1558 19.4946 12.2627C19.5181 12.3539 19.5529 12.5363 19.6345 12.8003C19.7162 13.0642 19.8364 13.4042 19.9179 13.6158C20.0773 14.0391 20.1483 14.3925 20.1724 14.5809C20.1937 14.7751 20.2656 15.4469 20.2461 15.6488L20.2465 15.6485Z" fill="#A88F33"/>
<path fill-rule="evenodd" clip-rule="evenodd" d="M16.3243 2.74558L16.3146 2.76888C16.3146 2.76888 16.3437 2.7786 16.3379 2.81752C16.3383 2.87075 16.3351 2.92396 16.3282 2.97675C16.3186 3.04472 16.2991 3.09707 16.2953 3.13982C16.2953 3.23109 16.3088 3.33592 16.1801 3.59614C16.1417 3.66795 16.118 3.73003 16.0985 3.77279C16.05 3.87762 16.0403 3.89323 15.9976 3.94175C16.0655 3.90335 16.3102 3.74975 16.4344 3.77279C16.349 3.8213 16.2189 3.91653 16.1373 4.04082C16.1568 4.04466 16.2383 4.06028 16.3677 4.04082C16.5833 4.0078 16.824 3.9301 17.0356 3.94559C17.2668 3.95915 17.1755 3.66795 17.1755 3.66795L16.9088 3.08158L16.4039 2.72638L16.3243 2.74571V2.74558Z" fill="#BE9C44"/>
<path fill-rule="evenodd" clip-rule="evenodd" d="M17.6407 7.13787C17.6407 7.13787 17.4155 6.91259 17.3242 6.13947C17.2329 5.36276 17.2524 4.21947 17.2524 4.21947L17.0699 3.77287C17.0699 3.77287 17.0315 3.47579 16.9358 3.36519C16.8402 3.2546 16.6524 3.06811 16.5669 2.97684C16.4814 2.88558 16.3844 2.76129 16.3262 2.74183C16.3552 2.69332 16.4854 2.41953 16.9843 2.41569C17.4833 2.41185 17.6371 2.68948 17.6892 2.79047C17.7413 2.89146 17.9766 3.32807 18.0639 4.16007C18.1454 4.99105 18.1494 5.05326 18.1358 5.34062C18.1261 5.49985 18.0736 5.86875 17.9822 6.26286C17.8988 6.59694 17.8075 6.9698 17.6405 7.13863L17.6407 7.13787Z" fill="#A17C34"/>
<path fill-rule="evenodd" clip-rule="evenodd" d="M16.9344 7.8001C17.0095 7.80551 17.0845 7.78859 17.15 7.75146C17.2218 7.74762 17.482 7.78064 17.682 7.52631C17.6956 7.58442 17.7306 7.74186 17.6392 7.88163C17.6879 7.83299 17.7597 7.81366 17.7694 7.8001C17.7733 7.8719 17.8412 8.09321 17.5539 8.63106C17.6314 8.54569 17.7227 8.54953 17.8042 8.5398C17.8082 8.64079 17.8625 8.9805 17.7189 9.16316C17.6237 9.28744 17.4683 9.24853 17.4683 9.24853C17.4706 9.2214 17.4706 9.19413 17.4683 9.167C17.4645 9.11452 17.445 9.06216 17.4587 9.02722C17.3837 8.99292 17.3153 8.94555 17.2567 8.88732C17.0878 8.72809 16.8684 8.45635 16.8529 8.25436C16.8334 8.02909 17.0354 7.98057 17.0354 7.98057C17.0185 7.96544 17.0041 7.94773 16.9927 7.92809C16.9829 7.8952 16.9732 7.84272 16.9344 7.8001Z" fill="#8C6228"/>
<path fill-rule="evenodd" clip-rule="evenodd" d="M15.4371 5.35726C15.4371 5.35726 15.4274 5.34369 15.375 5.40577C15.3847 5.34369 15.3945 5.28533 15.3983 5.22901C15.4231 5.17686 15.4551 5.12851 15.4935 5.08539C15.4643 5.1435 15.4449 5.19598 15.4449 5.19598C15.4449 5.19598 15.5168 5.06197 15.6216 4.98043C15.6935 4.92219 15.7847 4.89505 15.8235 4.84065C15.8662 4.78241 15.8565 4.77269 15.8663 4.76296C15.8663 4.76296 15.9615 4.70088 16.1071 4.51822C16.1265 4.49493 16.1557 4.46971 16.1751 4.44641C16.208 4.43285 16.2857 4.3979 16.377 4.35118C16.4722 4.29883 16.5789 4.22702 16.645 4.19758C16.775 4.13934 16.913 4.14523 16.977 4.05384C17.0255 4.04027 17.0779 3.89461 17.0683 3.77045C17.1401 3.7995 17.509 4.02862 17.6353 4.52961C17.7266 4.88494 17.5634 5.43253 17.4954 5.69672C17.4274 5.96091 17.4178 6.15688 17.3226 6.2772C17.2022 6.43656 16.8139 6.6612 16.7187 6.77243C16.6372 6.86369 16.3926 7.09473 16.4022 7.26165C16.4119 7.38594 16.5652 7.45365 16.5984 7.4772C16.6315 7.50075 16.6313 7.52968 16.6935 7.5156C16.7557 7.50152 16.7789 7.47285 16.8042 7.47285C16.8333 7.47669 16.8333 7.48258 16.8468 7.48258C16.8567 7.48228 16.8665 7.48095 16.876 7.47861C16.876 7.47861 16.8663 7.65538 16.4527 7.70901C16.4235 7.71298 16.3945 7.72257 16.3575 7.72846C16.4061 7.70517 16.4352 7.70517 16.4877 7.63336C16.4294 7.62363 16.2624 7.6139 16.2196 7.60034C16.2332 7.57704 16.2779 7.51483 16.3148 7.48577C16.3478 7.45672 16.3109 7.44738 16.2819 7.46248C16.2318 7.49651 16.1838 7.53344 16.1381 7.57307C16.0896 7.61582 16.0469 7.67406 15.9692 7.72667C15.9459 7.64898 15.9497 7.50139 16.0411 7.39464C16.0177 7.39848 15.973 7.46645 15.9304 7.45288C15.9227 7.38205 15.9273 7.31043 15.9439 7.24117C15.9672 7.15374 16.0934 7.0004 16.0934 7.0004L16.7031 5.91099L16.8331 5.08577L15.4371 5.35701V5.35726Z" fill="#92723A"/>
<path fill-rule="evenodd" clip-rule="evenodd" d="M15.4039 5.40385C15.4039 5.40385 15.3708 5.42714 15.4369 5.47181C15.4272 5.48538 15.4039 5.53389 15.3747 5.56692C15.3418 5.60532 15.3067 5.62913 15.2931 5.66215C15.2641 5.73012 15.2408 5.77671 15.2408 5.80589C15.2408 5.83508 15.231 6.02145 15.1495 6.14177C15.1203 6.18452 15.0873 6.25633 15.064 6.30484C15.0155 6.39021 14.9727 6.45844 14.963 6.49684C14.9437 6.56481 14.9301 6.75117 14.9301 6.75117C14.9301 6.75117 14.9729 6.69869 14.9883 6.67937C14.9649 6.72788 14.9397 6.78023 14.9028 6.81914C14.9261 6.79969 14.9941 6.75117 15.1087 6.65018C15.2679 6.51629 15.5165 6.29101 15.8195 6.11258C15.7281 6.14561 15.6505 6.14561 15.5884 6.15533C15.637 6.10682 16.0738 5.59418 16.303 5.54567C16.3169 5.52803 16.3238 5.50588 16.3224 5.48346L16.1262 5.46413L15.7281 5.54951L15.67 5.24231L15.4039 5.40346V5.40385Z" fill="#B18E3E"/>
<path fill-rule="evenodd" clip-rule="evenodd" d="M16.0368 7.15142C16.0368 7.15142 15.9843 7.20377 15.9358 7.33395C15.8985 7.29495 15.8665 7.25118 15.8406 7.20377C15.7688 7.08345 15.6582 6.92998 15.3999 7.01741C15.3961 6.93587 15.3902 6.89312 15.3999 6.83488C15.4426 6.82528 15.5727 6.72045 15.7027 6.56697C15.7941 6.46214 15.8795 6.34169 15.9378 6.18835C15.9762 6.15917 16.0426 6.11065 16.1298 6.05433C16.254 5.96896 16.4035 5.85235 16.4268 5.7223C16.3686 5.7456 16.2443 5.80384 16.0578 5.79424C16.1298 5.76121 16.2403 5.72627 16.2268 5.58253C16.256 5.56307 16.2793 5.5495 16.2793 5.5495C16.2574 5.5422 16.2343 5.53891 16.2113 5.53977C16.2073 5.52621 16.2016 5.50688 16.1685 5.51648C16.1355 5.52608 16.1301 5.52621 16.1258 5.53977C16.1122 5.54374 16.0675 5.53978 16.0345 5.5632C16.0015 5.58662 15.9102 5.66406 15.8753 5.67763C15.8889 5.65434 15.9082 5.61952 15.9082 5.61952C15.9082 5.61952 15.8131 5.62912 15.7451 5.65792C15.6208 5.70067 15.4772 5.77837 15.3315 5.85401C15.3451 5.83072 15.351 5.81562 15.3606 5.81126C15.3702 5.80691 15.3936 5.80166 15.3936 5.7977C15.3936 5.79373 15.384 5.75929 15.3898 5.74534C15.4333 5.65309 15.4847 5.56474 15.5434 5.48128C15.6113 5.38989 15.6249 5.25984 15.6249 5.25984L15.922 5.11033L16.757 4.91833L17.2988 4.95136L17.2308 5.32614L16.9108 5.98048L16.637 6.57657L16.3243 6.94176L16.037 7.15142H16.0368Z" fill="#543E26"/>
<path fill-rule="evenodd" clip-rule="evenodd" d="M17.3906 5.52953C17.3906 5.52953 17.0643 5.93337 16.9731 5.99558C17.0313 5.87129 17.3906 5.13145 17.5207 4.92563C17.4916 4.90233 17.4527 4.90233 17.544 4.54163C17.4664 4.72403 17.4391 4.81926 17.3751 4.86777C17.3111 4.91628 17.3032 4.90079 17.2599 4.90079C17.2681 4.88602 17.2715 4.86906 17.2695 4.85228C17.2695 4.85228 16.9957 4.81926 16.8087 4.81926C16.6217 4.81926 16.2515 4.92025 16.0456 5.00179C15.8825 5.06975 15.7912 5.06975 15.733 5.11238C15.6747 5.16089 15.6417 5.21337 15.6125 5.22694C15.5892 5.24051 15.4786 5.27545 15.4533 5.31231C15.43 5.35071 15.3912 5.39385 15.3912 5.40358C15.3912 5.41331 15.3815 5.427 15.4107 5.41715C15.4203 5.41331 15.4922 5.37439 15.5737 5.32588C15.6843 5.2638 15.8184 5.19199 15.9155 5.14924C16.1931 5.03852 16.2806 5.05798 16.4047 5.03468C16.5348 5.01139 16.7213 4.95699 16.8455 4.95699C16.9697 4.95315 17.2048 4.95699 17.2592 4.96671C17.2359 4.98617 17.2164 5.00947 17.2261 5.091C17.2261 5.1143 17.2067 5.13951 17.1877 5.19583C17.1296 5.35507 17.0189 5.61913 16.9573 5.75315C16.872 5.93555 16.7749 6.08902 16.7269 6.18412C16.6789 6.27923 16.5733 6.52972 16.4687 6.66374C16.3642 6.79775 16.3095 6.87929 16.2767 6.90847C16.244 6.93766 16.0087 7.11033 16.0262 7.17254C16.069 7.15897 16.3389 7.05734 16.5349 6.83667C16.7309 6.61599 16.7699 6.48134 16.9233 6.36089C17.0766 6.24044 17.1971 6.03859 17.2689 5.87167C17.3291 5.71628 17.3155 5.66777 17.3911 5.52991L17.3906 5.52953Z" fill="#806031"/>
<path fill-rule="evenodd" clip-rule="evenodd" d="M10.3593 8.54374C10.3593 8.54374 10.3166 8.72038 10.2194 8.8078C10.1243 8.89331 9.95537 8.96704 9.93604 9.11078C9.91274 9.2544 10.105 9.32633 10.105 9.32633C10.105 9.32633 10 9.49913 10 9.62918C10 9.7632 9.9962 9.78841 10.0098 9.91654C9.99437 9.92644 9.98128 9.93954 9.97137 9.95494C9.97137 9.95494 9.98097 10.0792 10.0762 10.1568C10.1714 10.2344 10.2528 10.2811 10.3014 10.2616C10.3088 10.2775 10.3153 10.2937 10.3208 10.3103C10.3208 10.3103 10.3928 10.1277 10.4413 9.96851C10.4898 9.80543 10.5325 9.8286 10.5519 9.60921C10.5712 9.38982 10.7823 9.01312 10.7823 9.01312L10.9263 8.6912L10.6914 8.50867L10.3593 8.54361V8.54374Z" fill="#B6903C"/>
<path fill-rule="evenodd" clip-rule="evenodd" d="M10.7962 8.86017C10.7477 8.90989 10.703 8.96311 10.6624 9.0194C10.6003 9.1049 10.5518 9.18247 10.4605 9.21562C10.3693 9.24878 10.311 9.24852 10.3168 9.33991C10.3226 9.4313 10.4081 9.46996 10.4566 9.51655C10.5091 9.56506 10.5518 9.6466 10.5285 9.73799C10.5576 9.72442 10.6101 9.70881 10.6586 9.60398C10.7071 9.49914 11.0464 8.8603 11.0464 8.8603H10.7962V8.86017Z" fill="#685026"/>
<path fill-rule="evenodd" clip-rule="evenodd" d="M12.1342 7.38638C12.1342 7.38638 12.1633 7.30882 12.1342 7.2525C12.1051 7.19426 11.9284 7.1748 11.841 7.10875C11.7497 7.04079 11.639 6.99355 11.5477 7.02338C11.5613 6.99035 11.6157 6.91842 11.571 6.90293C11.5283 6.88936 11.3692 6.96117 11.3264 6.99419C11.2837 7.02722 11.1865 7.066 11.1672 7.08943C11.1479 7.11285 11.1147 7.15739 11.0953 7.13794C11.0758 7.12437 11.0662 7.08943 11.0332 7.10875C11.0002 7.12808 10.8412 7.25826 10.8119 7.33403C10.7826 7.40981 10.7167 7.57877 10.5186 7.77089C10.3206 7.96302 10.2351 8.08743 10.2934 8.15924C10.3516 8.23105 10.3789 8.1787 10.3886 8.24078C10.3961 8.30172 10.3928 8.3635 10.3789 8.4233C10.3556 8.5243 10.3168 8.6194 10.3691 8.63885C10.5031 8.68161 10.6333 8.60045 10.6624 8.62529C10.7206 8.67764 10.6294 8.86605 10.7672 8.90292C10.9071 8.94132 11.045 8.86989 11.045 8.86989L11.5536 8.5961L12.043 8.33793L12.2933 7.8427L12.1591 7.42914L12.1335 7.38638H12.1342Z" fill="#D4B968"/>
<path fill-rule="evenodd" clip-rule="evenodd" d="M11.6544 8.5689C11.6544 8.5689 11.5689 8.43885 11.6739 8.32416C11.7788 8.20948 11.9282 8.16109 11.9864 8.08928C11.9754 8.07561 11.9605 8.0655 11.9437 8.06023C11.9823 7.99105 12.0413 7.93542 12.1126 7.90087C12.0836 7.87181 12.0447 7.84852 12.0021 7.84852C11.9068 7.84852 11.8485 7.90676 11.7612 7.90676C11.6758 7.90676 11.6661 7.86401 11.6661 7.86401C11.6661 7.86401 11.8098 7.85044 11.7961 7.78631C11.7825 7.71834 11.7577 7.71834 11.7577 7.71834C11.7577 7.71834 12.0353 7.60314 12.0838 7.5417C12.1324 7.48026 12.1266 7.40769 12.1363 7.37863C12.1692 7.37863 12.3615 7.27764 12.4392 7.32039C12.5169 7.36314 12.4625 7.47962 12.4625 7.47962C12.4625 7.47962 12.6976 7.30286 12.8174 7.12955C12.9222 7.13927 12.971 7.05774 13.0478 7.05774C13.143 7.05774 13.2925 7.18779 13.3216 7.46542C13.341 7.62465 13.3701 7.71591 13.341 7.99751C13.3275 8.15674 13.3313 8.4967 13.3794 8.66541C13.4123 8.79942 13.49 8.78586 13.49 8.78586C13.4781 8.82669 13.4545 8.86314 13.4221 8.89069C13.3696 8.9392 13.3638 9.06745 13.3696 9.11596C13.3773 9.15143 13.3871 9.18643 13.3988 9.2208C13.3988 9.2208 13.3367 9.2926 13.3211 9.34124C13.3075 9.38975 13.2435 9.42278 13.1968 9.42278C13.1501 9.42278 13.1735 9.41881 13.1114 9.42278C13.0493 9.42675 13.0299 9.43635 12.991 9.42278C12.952 9.40921 12.923 9.39359 12.9386 9.26918C12.9522 9.14489 12.459 8.85561 12.459 8.85561L11.6526 8.56826L11.6544 8.5689Z" fill="#CCA849"/>
<path fill-rule="evenodd" clip-rule="evenodd" d="M10.7282 9.79612C10.7282 9.79612 10.9048 10.0311 11.6311 10.0311C11.9767 10.0311 12.0971 9.99811 12.1687 9.97865C12.2464 9.9592 12.5376 9.84476 12.8308 9.49903C13.0949 9.18646 13.0367 9.05833 13.0367 9.05833L12.8831 9.03503L12.3839 9.103L10.9067 9.73212L10.7275 9.79612H10.7282Z" fill="#585136"/>
<path fill-rule="evenodd" clip-rule="evenodd" d="M11.2697 9.85428C11.2697 9.85428 10.6406 9.99418 10.6406 9.59612C10.6406 9.20778 11.029 8.79998 11.1261 8.72818C11.2271 8.65625 11.4679 8.57458 11.4679 8.57458H12.0485L12.1591 8.86782L12.1106 9.50076L11.2697 9.85416V9.85428Z" fill="#252211"/>
<path fill-rule="evenodd" clip-rule="evenodd" d="M11.8503 8.69323C11.8503 8.69323 11.73 8.5825 11.4562 8.73163C11.1824 8.88075 10.9609 9.19244 10.9474 9.47545C10.9338 9.72582 11.1532 9.91232 11.495 9.92205C11.7493 9.93165 11.9028 9.90259 11.9805 9.88365C11.961 9.86035 11.86 9.73414 11.86 9.73414L11.8504 8.69335L11.8503 8.69323Z" fill="#C3B378"/>
<path fill-rule="evenodd" clip-rule="evenodd" d="M11.7321 8.75521C11.7321 8.75521 11.7031 8.73192 11.6169 8.77851C11.5451 8.81691 11.4403 8.91841 11.3588 8.99021C11.3063 9.03296 11.2733 9.05229 11.2436 9.08531C11.1231 9.22905 11.0221 9.46405 11.0805 9.58053C11.1389 9.697 11.331 9.83101 11.8203 9.73975L11.7307 8.75534L11.7321 8.75521Z" fill="#E6D89C"/>
<path fill-rule="evenodd" clip-rule="evenodd" d="M11.5731 8.99606C11.5731 8.99606 11.4954 9.11651 11.4954 9.30877C11.4954 9.50487 11.6061 9.81745 12.0139 9.84075C12.3265 9.8602 12.5361 9.39031 12.7633 9.20778C12.9361 9.068 13.0409 9.06403 13.0409 9.06403C13.0409 9.06403 12.8643 8.87203 12.3925 8.62332C11.9265 8.37282 11.4041 8.33979 11.1206 8.72431C11.2546 8.71458 11.6876 8.60386 11.6876 8.60386L11.8993 8.67183L11.5731 8.99619V8.99606Z" fill="#252211"/>
<path fill-rule="evenodd" clip-rule="evenodd" d="M12.1823 9.25045C12.1687 9.2214 12.159 9.18248 12.2153 9.17288C12.2716 9.16328 12.2968 9.16892 12.3163 9.21128C12.3358 9.25365 12.3547 9.28898 12.3259 9.30651C12.2968 9.322 12.2211 9.30651 12.1822 9.2502L12.1823 9.25045ZM12.0911 8.97666C12.0911 8.97666 12.0716 8.99023 12.0813 8.9631C12.0852 8.9302 12.1105 8.87183 12.1726 8.88553C12.2347 8.89922 12.2212 8.96706 12.211 8.98652C12.2007 9.00598 12.1489 9.03887 12.11 9.02492C12.1051 9.02366 12.1005 9.02125 12.0967 9.01789C12.0929 9.01454 12.0899 9.01032 12.088 9.0056C12.0861 9.00087 12.0853 8.99577 12.0858 8.99069C12.0862 8.98562 12.0879 8.98073 12.0906 8.97641L12.0911 8.97666Z" fill="#6F674D"/>
<path fill-rule="evenodd" clip-rule="evenodd" d="M6.83545 9.10083C6.83545 9.10083 6.98905 9.21603 7.16748 9.21155C7.34412 9.20759 7.57132 9.02519 7.67615 8.90858C7.73823 8.84061 7.79135 8.7688 7.84895 8.71248C7.89759 8.66397 7.93049 8.64067 7.95378 8.60765C7.98681 8.56925 8.02175 8.49706 8.03929 8.47363C7.99654 8.50666 7.93446 8.56502 7.87033 8.60381C7.80825 8.64221 7.67423 8.7144 7.61983 8.73386C7.56748 8.75331 7.02374 9.04106 7.02374 9.04106L6.83545 9.10083Z" fill="#AC924C"/>
<path fill-rule="evenodd" clip-rule="evenodd" d="M7.06982 7.66607C7.06982 7.66607 7.1552 7.60783 7.32032 7.57084C7.47955 7.53244 7.79994 7.50287 7.79994 7.50287L8.064 7.61807L8.16883 8.01615L7.97683 8.42985L7.73222 8.58345L7.45446 8.13685L7.07046 7.66684L7.06982 7.66607Z" fill="#9F8E57"/>
<path fill-rule="evenodd" clip-rule="evenodd" d="M6.72421 8.0214L6.63281 8.08963C6.63281 8.08963 6.65624 8.04688 6.67556 7.91682C6.69489 7.78677 6.79601 7.47022 6.9436 7.28769C7.09118 7.10516 7.08734 7.11489 7.08734 7.11489C7.07376 7.11241 7.05981 7.11284 7.04641 7.11618C7.03301 7.11951 7.02048 7.12566 7.00965 7.13422C7.0291 7.09121 7.15339 6.93761 7.27768 6.86081C7.40197 6.784 7.45048 6.75981 7.58053 6.8224C7.71058 6.885 7.7436 6.91751 7.83884 6.91367C7.93407 6.90983 8.01548 6.80884 8.01548 6.80884C8.01548 6.80884 8.03493 6.87092 7.96312 7.01466C7.89132 7.15841 7.60779 7.45154 7.60779 7.45154L7.01745 7.85538L6.72421 8.02179V8.0214Z" fill="#EAC970"/>
<path fill-rule="evenodd" clip-rule="evenodd" d="M7.16116 7.61749C7.16116 7.61749 7.58842 7.67573 7.71847 7.55541C7.72231 7.56898 7.73792 7.56898 7.73792 7.5787C7.73688 7.58604 7.73346 7.59282 7.7282 7.59803C7.74234 7.59577 7.75663 7.59449 7.77095 7.59419C7.78805 7.59928 7.80564 7.60254 7.82343 7.60392C7.83776 7.60361 7.85204 7.60228 7.86618 7.59995C7.86483 7.6096 7.86155 7.61888 7.85654 7.62724C7.85152 7.6356 7.84488 7.64286 7.837 7.64859C7.85645 7.64859 7.8754 7.65243 7.8754 7.66792C7.8754 7.68341 7.87924 7.73013 7.85594 7.73986C7.83664 7.74519 7.8161 7.74379 7.7977 7.73589C7.79924 7.77265 7.80923 7.80857 7.82688 7.84085C7.86528 7.91266 7.9472 7.99445 8.05728 7.9709C8.05728 7.9709 8.1154 8.11067 7.87079 8.42133C7.83789 8.46408 7.80282 8.52232 7.7602 8.57083C7.74335 8.60754 7.73048 8.64595 7.7218 8.68539C7.7218 8.68539 8.13549 8.52616 8.25389 8.16302C8.37434 7.79797 8.39764 7.4388 8.37434 7.10293C8.37037 7.0077 8.35488 6.93986 8.33159 6.89122C8.27335 6.77077 8.11015 6.79022 8.04423 6.85819C7.949 6.95342 7.78976 7.19022 7.56845 7.3533C7.34317 7.51637 7.33357 7.5453 7.16064 7.61749H7.16116Z" fill="#D7BC6B"/>
<path fill-rule="evenodd" clip-rule="evenodd" d="M6.64855 8.1418C6.64855 8.1418 6.56701 8.19031 6.52426 8.3722C6.4815 8.55857 6.56266 8.78577 6.60963 8.85758C6.65661 8.92938 6.76324 9.12561 6.98442 9.13534C7.03917 9.13505 7.09331 9.12382 7.14366 9.10231C7.22087 9.06691 7.2933 9.02188 7.35921 8.9683C7.45445 8.89649 7.53202 8.83441 7.52229 8.82852C7.49899 8.81879 6.93591 8.35274 6.93591 8.35274L6.7242 8.11646L6.64842 8.14206L6.64855 8.1418Z" fill="#585136"/>
<path fill-rule="evenodd" clip-rule="evenodd" d="M7.18089 8.91455C7.18089 8.91455 7.29546 8.90494 7.36343 8.86219C7.4314 8.81944 6.96533 8.35736 6.96533 8.35736L6.99836 8.85656L7.18089 8.91455Z" fill="#453A25"/>
<path fill-rule="evenodd" clip-rule="evenodd" d="M6.68516 8.10673C6.68516 8.10673 6.62692 8.21745 6.62692 8.24663C6.61719 8.34174 6.64638 8.64074 6.66967 8.73585C6.69297 8.83684 6.81918 8.99018 6.98238 8.99018C7.08324 8.99018 7.22314 8.9281 7.22314 8.91261C7.22314 8.89316 7.0794 8.87422 7.04061 8.8019C7.01732 8.7635 7.00759 8.66801 7.00221 8.5715C6.99837 8.50942 6.99838 8.44145 7.02167 8.4179C7.07415 8.35966 7.08375 8.19261 7.08375 8.19261L7.27012 7.84637H7.025L6.73175 8.0289L6.68516 8.10673Z" fill="#84754B"/>
<path fill-rule="evenodd" clip-rule="evenodd" d="M6.61377 8.21367C6.61377 8.21367 6.80577 7.95934 6.97882 7.90097C7.15187 7.8426 7.22931 7.87767 7.22931 7.87767L7.12832 8.13598L6.98458 8.29521L6.9943 8.37674C6.9943 8.37674 6.97088 8.59229 7.11462 8.74179C7.25836 8.8913 7.36511 8.88553 7.42732 8.88553C7.48952 8.88553 7.66808 8.83306 7.75934 8.61751C7.84088 8.41565 7.90884 8.15671 7.74577 7.89713C7.58642 7.63883 7.30495 7.62885 7.25055 7.62885C7.19616 7.62885 6.76903 7.65022 6.61377 8.21329V8.21367Z" fill="#252211"/>
<path fill-rule="evenodd" clip-rule="evenodd" d="M11.5437 9.07757C11.4719 9.04455 11.5399 8.8427 11.6117 8.78049C11.6835 8.71828 11.7748 8.64661 11.9341 8.63675C11.9923 8.63291 12.0486 8.66977 12.039 8.70869C12.0254 8.78049 11.9244 8.88148 11.8332 8.95329C11.7069 9.05236 11.6253 9.11444 11.5437 9.07757Z" fill="#F7F7E7"/>
<path fill-rule="evenodd" clip-rule="evenodd" d="M7.65994 7.97668C7.71242 7.97284 7.7804 8.01508 7.79396 8.07192C7.80753 8.134 7.76094 8.25829 7.65994 8.25829C7.5784 8.25829 7.53564 8.1573 7.53564 8.12824C7.53656 8.10435 7.54324 8.08103 7.5551 8.06027C7.55894 8.05438 7.56867 7.98641 7.65994 7.97668Z" fill="#F8F6DE"/>
<path fill-rule="evenodd" clip-rule="evenodd" d="M6.9028 8.02142C6.9028 8.02142 6.76878 8.0835 6.7067 8.21341C6.66235 8.30935 6.64893 8.4167 6.6683 8.5206C6.67803 8.56911 6.72654 8.68943 6.75957 8.73218C6.79259 8.77493 6.83726 8.80411 6.87029 8.80014C6.90331 8.79617 6.97115 8.70888 6.97115 8.65653C6.97115 8.60418 6.97512 8.38275 7.03912 8.26231C7.09544 8.14199 6.90318 8.02155 6.90318 8.02155L6.9028 8.02142Z" fill="#D4C38B"/>
<path fill-rule="evenodd" clip-rule="evenodd" d="M6.92214 8.01162C6.89885 8.02519 6.86006 8.04464 6.86966 8.06986C6.87939 8.09315 6.96093 8.10825 6.99011 8.16508C7.02314 8.22332 7.02314 8.2854 7.01341 8.31458C7.03877 8.30253 7.06179 8.28606 7.08138 8.26594C7.12413 8.21743 7.17648 8.15152 7.22115 8.15152C7.25034 8.15152 7.27939 8.16508 7.30666 8.16508C7.34941 8.16508 7.39203 8.15152 7.39792 8.10685C7.40752 8.04861 7.31639 7.99613 7.26391 8.00586C7.27363 7.96746 7.2872 7.91076 7.24445 7.87185C7.2017 7.83294 7.06781 7.90103 7.03862 7.92049C7.00944 7.93994 6.92214 8.01175 6.92214 8.01175V8.01162Z" fill="#E2D59D"/>
<path fill-rule="evenodd" clip-rule="evenodd" d="M10.0077 12.0912L10.295 12.0063L10.3766 12.0646C10.3766 12.0646 10.4347 12.1889 10.5261 12.2044C10.4969 12.2664 10.4211 12.3196 10.4251 12.3636C10.4291 12.4076 10.4678 12.4413 10.4678 12.4413C10.4678 12.4413 10.2095 12.8684 10.7183 13.2989C10.5979 13.3474 10.4445 13.4141 10.363 13.4525C10.4211 13.4661 10.5454 13.4909 10.5979 13.538C10.6504 13.5851 10.6504 13.6001 10.6989 13.6293C10.7474 13.6584 10.7764 13.6972 10.7668 13.7146C10.7338 13.6952 10.6231 13.6371 10.6038 13.6913C10.5844 13.7456 10.1242 13.7244 10.1242 13.7244L9.34746 13.8739C9.34746 13.8739 9.37651 13.7962 9.29498 13.7244C9.19987 13.639 9.08339 13.7282 8.9591 13.6331C8.79603 13.5088 8.79014 13.3651 8.73779 13.3108C8.79014 13.2778 8.89702 13.2293 9.15136 13.1956C9.14163 13.1761 9.10861 13.1179 9.12806 13.0655C9.15136 12.9976 9.24839 12.9548 9.21933 12.8735C9.26208 12.8638 9.28141 12.8638 9.38829 12.7298C9.48928 12.5958 9.55136 12.5667 9.62906 12.557C9.70675 12.5473 9.75334 12.557 9.89709 12.423C9.99795 12.3279 9.96506 12.2463 9.96506 12.2463C9.96506 12.2463 10.031 12.225 10.0078 12.091L10.0077 12.0912Z" fill="#CBAC5A"/>
<path fill-rule="evenodd" clip-rule="evenodd" d="M9.15914 12.1344C9.16298 12.115 9.1786 12.1052 9.28343 12.115C9.38826 12.1247 10.0523 12.0529 10.2329 12.0432C10.4155 12.0296 11.0582 12.0392 11.3709 12.1052C11.6836 12.1713 12 12.249 12.1533 12.2877C12.3069 12.3305 12.3553 12.3458 12.3494 12.3653C12.3456 12.3848 12.311 12.4037 12.2912 12.3983C12.2719 12.3945 11.7631 12.2391 11.6059 12.2063C11.4487 12.1736 10.9048 12.0859 10.6075 12.0911C10.3298 12.0951 10.2191 12.0873 9.98424 12.1144C9.74923 12.1436 9.36087 12.1824 9.24439 12.1669C9.12919 12.1534 9.153 12.1534 9.15888 12.1339L9.15914 12.1344Z" fill="#D6BC6F"/>
<path fill-rule="evenodd" clip-rule="evenodd" d="M10.7221 13.6563C10.7221 13.6563 11.1201 13.8719 11.2639 14.1359C11.3687 14.332 11.2018 14.4292 11.2018 14.4292C11.2018 14.4292 11.4271 14.4292 11.3979 14.5534C11.3843 14.631 11.0095 14.8407 10.759 14.9514C10.5047 15.0621 10.5144 15.0564 10.3902 15.0757C10.2697 15.0951 9.93959 15.0373 9.87163 15.1339C9.80366 15.2306 9.83323 15.3301 9.85217 15.3456C9.87163 15.3592 10.0289 15.3787 10.0289 15.3787C10.0289 15.3787 9.99591 15.4699 9.66977 15.4796C9.34363 15.4894 9.26197 15.5125 9.24251 15.5476C9.22305 15.5805 9.30459 15.5612 9.45422 15.586C9.60372 15.6093 9.81339 15.6244 9.81339 15.6244C9.81339 15.6244 9.74542 15.6826 9.56878 15.7292C9.3668 15.7816 9.05025 15.8302 8.95515 15.8885C9.00366 15.9215 9.0756 15.97 9.10875 15.9738C9.02721 15.9933 8.91253 16.036 8.8932 16.0515C8.92225 16.071 8.96117 16.0943 8.96117 16.0943C8.96117 16.0943 8.79797 16.2904 8.70286 16.339C8.60776 16.3877 8.06018 16.6419 7.87176 16.5934C7.40188 16.4691 7.34364 15.9545 7.22908 15.9157C7.05628 15.8575 6.97475 15.9738 6.82127 15.8923C6.88924 15.8438 6.92623 15.8147 6.99804 15.7817C6.92035 15.7433 6.51843 15.4885 6.51843 15.4885C6.4764 15.3969 6.42975 15.3075 6.37865 15.2206C6.30096 15.0866 6.18665 14.9079 6.10089 14.7506C5.91453 14.405 5.9048 14.2457 5.73584 14.0496C5.76502 14.0112 5.86589 14.0166 5.86589 14.0166L7.28156 14.4827L9.79175 14.5554L10.4446 13.6234L10.7222 13.6564L10.7221 13.6563Z" fill="#DFC677"/>
<path fill-rule="evenodd" clip-rule="evenodd" d="M7.00391 15.0776C7.01905 15.0945 7.03671 15.1089 7.05626 15.1204C7.1049 15.1534 7.17671 15.1923 7.22522 15.2504C7.24467 15.2213 7.29319 15.1689 7.37882 15.2504C7.46445 15.3319 7.57082 15.2738 7.63699 15.2932C7.70496 15.3166 7.7088 15.3262 7.7088 15.3262C7.7088 15.3262 7.7472 15.2932 7.83309 15.2582C7.88557 15.2388 7.94765 15.2252 8.01562 15.2059C8.0777 15.1923 8.14567 15.1728 8.19239 15.1728C8.23514 15.2019 8.38848 15.3648 9.00403 15.1243C9.58464 14.899 9.71853 14.8738 9.81568 14.9086C9.82541 14.8853 9.83514 14.8407 9.98464 14.8466C9.98464 14.7845 9.86036 14.5728 9.86036 14.5728L9.17491 14.3379H8.8L7.67578 14.5437L7.0528 14.8992L7.00429 15.0784L7.00391 15.0776Z" fill="#C4A859"/>
<path fill-rule="evenodd" clip-rule="evenodd" d="M6.62939 14.6835C6.62939 14.6835 6.64296 14.7883 6.79835 14.8991C6.95195 15.0097 7.00021 15.0757 7.00021 15.0757C7.00021 15.0757 7.02939 15.0373 7.05269 14.9981C7.07599 14.9554 7.09544 14.9069 7.13423 14.8933C7.21192 14.8603 7.38856 14.9224 7.42747 14.9126C7.4605 14.903 7.45077 14.8351 7.48571 14.8351C7.56725 14.8311 7.6196 14.8874 7.64879 14.8874C7.67797 14.8874 7.74965 14.8836 7.75938 14.8681C7.76911 14.8526 7.77295 14.6913 7.88367 14.6136C8.00411 14.5282 8.1517 14.5651 8.19087 14.5846C8.19087 14.6136 8.19471 14.6856 8.2724 14.6894C8.3501 14.6932 8.35778 14.6797 8.426 14.703C8.49423 14.7263 8.57551 14.6991 8.61237 14.8136C8.64539 14.804 8.72309 14.7942 8.70363 14.6835C8.74203 14.6545 8.77557 14.635 8.85723 14.5204C8.87669 14.4914 8.90959 14.4584 8.93493 14.4156C9.0029 14.4156 9.08443 14.402 9.19311 14.4971C9.16008 14.5204 9.14063 14.5355 9.13103 14.5592C9.15945 14.5874 9.1854 14.6179 9.20859 14.6505C9.23778 14.6889 9.25723 14.736 9.2941 14.7457C9.37563 14.769 9.50965 14.736 9.65915 14.7457C9.8029 14.7554 9.92322 14.8078 9.9757 14.8408C9.99515 14.8312 9.99515 14.8273 10.0437 14.837C10.0922 14.8467 10.129 14.8505 10.0767 14.7885C10.1057 14.802 10.1388 14.8312 10.168 14.802C10.1971 14.7729 10.2203 14.7302 10.3018 14.7205C10.3834 14.7108 10.4126 14.7243 10.4456 14.639C10.4883 14.5341 10.3408 14.5341 10.3408 14.5341C10.3408 14.5341 10.4087 14.4719 10.4845 14.3904C10.5758 14.305 10.6806 14.1943 10.7058 14.0584C10.7486 13.8079 10.504 13.775 10.504 13.775L9.31752 14.14L7.86703 14.0681L6.63016 14.6836L6.62939 14.6835Z" fill="#927D49"/>
<path fill-rule="evenodd" clip-rule="evenodd" d="M5.56326 11.2564C5.56326 11.2564 5.52486 11.3049 5.50118 11.4194C5.4775 11.534 5.48761 11.5204 5.46815 11.602C5.4487 11.6835 5.20972 12.4952 5.29932 12.769C5.38892 13.0428 5.54406 13.1438 5.64108 13.3651C5.66054 13.4136 5.67948 13.4428 5.68959 13.4855C5.72262 13.6291 5.69356 13.7399 5.73234 13.8836C5.74591 13.9321 5.78098 13.9884 5.83334 14.0467C5.94853 14.167 6.13631 14.2816 6.21733 14.3631C6.33176 14.4836 6.49496 14.7283 6.70271 14.7515C6.81343 14.765 6.97074 14.7184 7.10078 14.6409C7.21598 14.5689 7.28715 14.4681 7.40798 14.4105C7.49336 14.3677 7.58462 14.3522 7.66616 14.3328C7.83512 14.2997 7.98859 14.2944 8.07985 14.3133C8.21963 14.3425 8.54974 14.4435 8.73265 14.4435C8.87558 14.4412 9.0177 14.4216 9.15594 14.3853C9.43357 14.3037 9.76944 14.1638 9.99088 14.1017C10.1209 14.0633 10.2258 14.0532 10.3326 14.0299C10.5152 13.9872 10.6685 13.9289 10.7559 13.8182C10.6977 13.7502 10.6259 13.6454 10.2374 13.6492C9.79671 13.659 9.28791 13.9036 9.03741 13.9425C8.78692 13.9814 8.67825 14.0143 8.39857 13.9133C8.12439 13.8113 8.11531 13.7438 8.11531 13.7438C8.11531 13.7438 7.82744 13.5425 7.70699 13.0292C7.58654 12.5159 7.70699 12.1419 8.01969 11.7864C8.10123 11.6951 8.08177 11.6136 8.08177 11.6136C8.08177 11.6136 8.28759 11.336 8.23127 11.076C8.16919 10.8177 7.77112 10.8702 7.77112 10.8702L5.56338 11.2564H5.56326Z" fill="#6E6342"/>
<path fill-rule="evenodd" clip-rule="evenodd" d="M5.89514 12.1204C5.87803 12.1526 5.86997 12.1888 5.87185 12.2253C5.87569 12.2776 5.8913 12.3456 6.04849 12.499C6.1825 12.6329 6.15332 12.7824 6.15332 12.7824C6.15332 12.7824 6.22077 12.796 6.40381 12.7104C6.54756 12.6424 6.59581 12.7628 6.59581 12.7628C6.63766 12.7409 6.68301 12.7264 6.72983 12.7201C6.77225 12.7162 6.81331 12.7031 6.85015 12.6817C6.85015 12.6817 7.01911 12.8545 7.16669 12.936C7.30071 13.0079 7.3784 13.0565 7.44445 13.0079C7.50653 12.9652 7.50653 12.8778 7.50256 12.839C7.48716 12.8032 7.46766 12.7693 7.44445 12.738C7.4017 12.6759 7.33373 12.604 7.32925 12.546C7.31952 12.4121 7.43024 12.2528 7.40682 12.214C7.38339 12.1752 7.29623 12.1655 7.08067 12.2432C6.85744 12.3169 5.89425 12.1208 5.89425 12.1208L5.89514 12.1204Z" fill="#39331F"/>
<path fill-rule="evenodd" clip-rule="evenodd" d="M6.40376 12.9884C6.40376 12.9884 6.2932 12.8836 6.33198 12.3748C6.37891 12.3741 6.42577 12.3787 6.4717 12.3884C6.4717 12.3884 6.53197 12.7826 6.40376 12.9884Z" fill="#292311"/>
<path fill-rule="evenodd" clip-rule="evenodd" d="M5.61528 10.868C5.63071 10.8565 5.64503 10.8437 5.65803 10.8296C5.61963 10.9014 5.44235 11.1887 5.5861 11.6412C5.72984 12.0916 6.09093 12.4275 6.5356 12.4431C6.98027 12.4587 7.214 12.2411 7.48127 11.915C7.5861 11.7849 7.70655 11.6217 7.8133 11.5111C7.97253 11.3382 8.09682 11.2897 8.09682 11.1228C8.09682 10.781 7.74725 10.6276 7.23269 10.4742C6.71813 10.3209 6.254 10.3398 6.01323 10.4448C5.77835 10.5592 5.67736 10.6797 5.61515 10.8681L5.61528 10.868Z" fill="#252211"/>
<path fill-rule="evenodd" clip-rule="evenodd" d="M7.26796 13.1418L7.30636 13.1223C7.30636 13.1223 7.31596 12.9687 7.37816 12.9728C7.44023 12.9825 7.46941 13.0642 7.46352 13.0933C7.45968 13.1223 7.4442 13.171 7.382 13.1651C7.30047 13.167 7.26758 13.1418 7.26758 13.1418H7.26796Z" fill="#3F3824"/>
<path fill-rule="evenodd" clip-rule="evenodd" d="M7.09521 12.4893C7.09521 12.4893 7.13361 12.4758 7.18059 12.5223C7.21899 12.5223 7.38641 12.5029 7.43889 12.5359C7.49137 12.5689 7.50686 12.598 7.50686 12.598C7.50686 12.598 7.31077 12.6407 7.20389 12.598C7.09521 12.5611 7.09521 12.4893 7.09521 12.4893Z" fill="#2D2815"/>
<path fill-rule="evenodd" clip-rule="evenodd" d="M7.95924 12.5184C7.95924 12.5086 7.85442 12.4368 7.74371 12.4134C7.72426 12.4096 7.72029 12.4232 7.70531 12.4232C7.69559 12.4193 7.69175 12.3901 7.69175 12.3901L7.62878 12.4233C7.62878 12.4233 7.61905 12.4368 7.65207 12.4617C7.68112 12.485 7.72976 12.5044 7.74333 12.5432C7.75689 12.582 7.75689 12.5955 7.76278 12.6014C7.76662 12.6052 7.83458 12.6014 7.8676 12.582C7.90062 12.5625 7.96282 12.5308 7.95885 12.518L7.95924 12.5184Z" fill="#82764F"/>
<path fill-rule="evenodd" clip-rule="evenodd" d="M6.979 12.9126C6.979 12.9126 6.99833 12.7787 7.12851 12.7729C7.2624 12.7631 7.28774 12.8932 7.28774 12.8932L7.21004 12.9709C7.21004 12.969 7.1518 12.8874 6.97964 12.9126H6.979Z" fill="#2D2816"/>
<path fill-rule="evenodd" clip-rule="evenodd" d="M7.82325 12.3359C7.82325 12.3359 7.75131 12.4136 7.59221 12.4369C7.57864 12.4174 7.54946 12.3786 7.59221 12.3165C7.63496 12.2544 7.68347 12.235 7.73198 12.2543C7.75339 12.2578 7.77335 12.2673 7.78952 12.2817C7.8057 12.2962 7.8174 12.315 7.82325 12.3359Z" fill="#574F35"/>
<path fill-rule="evenodd" clip-rule="evenodd" d="M8.11639 12.4311C8.12036 12.4116 8.10679 12.4078 8.11639 12.3981C8.12599 12.3883 8.1786 12.369 8.18833 12.3786C8.19217 12.3826 8.18833 12.3981 8.18833 12.417C8.18833 12.4359 8.18833 12.4554 8.1786 12.4693C8.16503 12.4888 8.12625 12.4985 8.10679 12.4928C8.08734 12.487 8.0835 12.4598 8.0835 12.4544C8.0931 12.4505 8.11639 12.4408 8.11639 12.4311ZM8.44791 12.2214C8.44791 12.2117 8.48094 12.1923 8.50039 12.1923C8.52945 12.1923 8.52945 12.2156 8.53342 12.2214C8.54302 12.2253 8.54302 12.2175 8.55274 12.235C8.56247 12.2525 8.57617 12.2835 8.56631 12.303C8.55646 12.3224 8.5178 12.3359 8.5082 12.332C8.49463 12.3223 8.45188 12.235 8.44791 12.2214Z" fill="#82764F"/>
<path fill-rule="evenodd" clip-rule="evenodd" d="M7.78076 12.4758C7.78076 12.4758 7.82351 12.4854 7.88175 12.534C7.8623 12.5476 7.83311 12.5631 7.83311 12.5631C7.83311 12.5631 7.82927 12.5184 7.78076 12.4756V12.4758Z" fill="#6E6342"/>
<path fill-rule="evenodd" clip-rule="evenodd" d="M7.68562 12.0486C7.67589 12.039 7.71467 12.0157 7.73797 12.0195C7.76127 12.0233 7.771 12.039 7.79621 12.0428C7.82143 12.0466 7.8254 12.0331 7.83461 12.0233C7.84383 12.0136 7.87737 12.0195 7.88313 12.0233C7.88672 12.0276 7.88997 12.0321 7.89286 12.0369C7.89326 12.0295 7.89519 12.0223 7.89851 12.0157C7.90184 12.0091 7.90649 12.0032 7.91218 11.9985C7.91963 11.993 7.92822 11.9893 7.93731 11.9876C7.9464 11.9859 7.95575 11.9863 7.96467 11.9888C7.96851 12.0023 7.98796 12.0509 7.98412 12.0606C7.98028 12.0703 7.92204 12.084 7.91218 12.0742C7.92191 12.0976 7.96467 12.1461 7.97043 12.1557C7.97619 12.1653 7.92767 12.1887 7.90834 12.1849C7.88121 12.183 7.71416 12.0858 7.68511 12.0489L7.68562 12.0486ZM7.93996 11.7262C7.93637 11.7164 7.92949 11.7082 7.92051 11.7029C7.90694 11.6991 7.86226 11.7029 7.86226 11.7262C7.86226 11.7495 7.90066 11.8798 7.9438 11.9477C7.99244 12.0157 8.02534 12.0719 8.05837 12.0875C8.06873 12.0922 8.08051 12.0928 8.09131 12.0892C8.10212 12.0856 8.11116 12.078 8.11661 12.068C8.12045 12.0583 8.13018 11.9865 8.12634 11.8175C8.1225 11.6485 8.11661 11.4854 8.10688 11.4757C8.09715 11.466 8.05837 11.4661 8.0448 11.4854C8.03123 11.5048 7.9438 11.6972 7.93983 11.7262H7.93996Z" fill="#585136"/>
<path fill-rule="evenodd" clip-rule="evenodd" d="M7.76704 12.7204C7.76704 12.7204 7.69906 12.6777 7.633 12.7068C7.57091 12.736 7.57475 12.8505 7.57475 12.8505C7.58872 12.856 7.60382 12.858 7.61872 12.8563C7.63363 12.8546 7.64789 12.8493 7.66027 12.8408C7.70303 12.8118 7.75731 12.7633 7.76704 12.7205V12.7204Z" fill="#574F35"/>
<path fill-rule="evenodd" clip-rule="evenodd" d="M7.89533 12.8738C7.89149 12.8354 7.85693 12.8354 7.85693 12.8156C7.85931 12.8061 7.86481 12.7977 7.87254 12.7917C7.88027 12.7857 7.88978 12.7825 7.89956 12.7825C7.91901 12.7825 7.93796 12.8058 7.96177 12.8209C7.98506 12.8345 8.02001 12.8593 8.02385 12.8889C8.02769 12.9185 7.98545 12.9995 7.93847 12.9995C7.89149 12.9995 7.90545 12.9121 7.89572 12.8733L7.89533 12.8738ZM8.27012 12.8213C8.27012 12.8213 8.19242 12.8446 8.19818 12.8213C8.20394 12.798 8.22161 12.7923 8.24682 12.7923C8.25963 12.7789 8.27687 12.7705 8.29533 12.7688C8.3059 12.7683 8.31627 12.7718 8.32439 12.7786C8.32439 12.7786 8.37687 12.7553 8.39236 12.7688C8.40785 12.7824 8.39633 12.7824 8.40593 12.798C8.41815 12.8154 8.42617 12.8353 8.42935 12.8563C8.42935 12.8718 8.37111 12.9048 8.32439 12.899C8.27012 12.8874 8.27972 12.8311 8.27012 12.8213ZM8.72247 12.7339C8.72247 12.7339 8.74577 12.7475 8.72644 12.7631C8.71287 12.7766 8.6449 12.8015 8.58653 12.8058C8.52829 12.8058 8.47594 12.8154 8.47594 12.7961C8.47594 12.7768 8.52445 12.7379 8.55351 12.7281C8.55934 12.7208 8.56674 12.715 8.57516 12.7109C8.58358 12.7069 8.59281 12.7048 8.60215 12.7048C8.62545 12.7048 8.71658 12.6951 8.74193 12.6913C8.76522 12.6873 8.78468 12.7009 8.77098 12.7203C8.76522 12.7339 8.72247 12.7339 8.72247 12.7339ZM8.85649 12.1343C8.85649 12.1343 8.8273 12.1964 8.79441 12.1964C8.76138 12.1926 8.76138 12.1828 8.76138 12.1731C8.76138 12.1595 8.79441 12.1246 8.79044 12.1149C8.78084 12.1149 8.75741 12.1149 8.76138 12.0916C8.76138 12.0721 8.79441 12.0488 8.82346 12.0532C8.84542 12.0351 8.87275 12.0249 8.90116 12.0241C8.93418 12.0241 8.96324 12.0337 8.96324 12.0532C8.96324 12.0726 8.92484 12.1152 8.91076 12.1251C8.89527 12.1406 8.87581 12.1507 8.85649 12.1347V12.1343ZM8.41373 13.2819C8.41373 13.2819 8.37533 13.2859 8.37533 13.3052C8.37533 13.3149 8.38493 13.3149 8.39863 13.3091C8.40652 13.3087 8.41433 13.3074 8.42193 13.3052C8.42577 13.3091 8.42577 13.3285 8.45495 13.3285C8.47891 13.3252 8.50201 13.3173 8.52292 13.3052C8.54621 13.2956 8.56567 13.2857 8.56567 13.2668C8.55594 13.2338 8.53649 13.2181 8.50743 13.2181C8.49254 13.2172 8.47769 13.2206 8.46468 13.2279C8.46468 13.2279 8.45495 13.2084 8.42193 13.2279C8.3889 13.2473 8.39274 13.2473 8.40247 13.2571C8.41988 13.2725 8.41412 13.2827 8.41412 13.2827L8.41373 13.2819ZM8.19434 13.4839C8.19434 13.4741 8.24285 13.4547 8.25642 13.4606C8.26999 13.4644 8.30877 13.5382 8.30877 13.546C8.30877 13.5557 8.26026 13.579 8.24081 13.579C8.22135 13.579 8.18845 13.546 8.18845 13.5406C8.18845 13.5367 8.21175 13.531 8.21175 13.527C8.21751 13.5174 8.19434 13.494 8.19434 13.4843V13.4839ZM8.04074 13.2003C8.05047 13.1965 8.05047 13.1868 8.06404 13.177C8.06829 13.1742 8.07312 13.1724 8.07818 13.1717C8.08324 13.1711 8.08839 13.1716 8.09322 13.1732C8.09665 13.1671 8.10138 13.1618 8.1071 13.1578C8.11281 13.1537 8.11935 13.151 8.12625 13.1498C8.14954 13.1459 8.169 13.1498 8.16465 13.1595C8.16465 13.1887 8.1841 13.208 8.1841 13.2313C8.1841 13.2546 8.17053 13.2838 8.12202 13.3033C8.07351 13.3168 8.00746 13.3168 7.99773 13.313C7.98801 13.3091 7.97828 13.2702 7.98801 13.2508C7.99773 13.2313 8.02487 13.2101 8.04049 13.2003H8.04074Z" fill="#82764F"/>
<path fill-rule="evenodd" clip-rule="evenodd" d="M8.10238 13.2136C8.10238 13.2136 8.06934 13.233 8.06934 13.2427C8.06641 13.2521 8.06511 13.262 8.0655 13.2718C8.0655 13.2775 8.10827 13.2679 8.11404 13.2621C8.11596 13.2582 8.10238 13.2237 8.10238 13.2136Z" fill="#6E6342"/>
<path fill-rule="evenodd" clip-rule="evenodd" d="M7.81373 13.1223C7.83306 13.1263 7.86608 13.1223 7.89129 13.1321C7.91075 13.1418 7.92431 13.1612 7.90486 13.1845C7.8854 13.2078 7.86646 13.2427 7.82333 13.2369C7.77482 13.233 7.72823 13.2078 7.72823 13.1884C7.72742 13.1761 7.72905 13.1637 7.73305 13.152C7.73705 13.1404 7.74333 13.1296 7.75153 13.1204C7.77098 13.1049 7.78058 13.1147 7.8136 13.1223H7.81373Z" fill="#585136"/>
<path fill-rule="evenodd" clip-rule="evenodd" d="M7.7904 13.1418C7.7904 13.1418 7.72832 13.1903 7.7127 13.2137C7.69325 13.237 7.59814 13.3573 7.56908 13.3826C7.57873 13.3655 7.58973 13.3493 7.60198 13.334C7.56358 13.3586 7.53479 13.3956 7.52044 13.4389C7.49714 13.5108 7.65062 13.5496 7.75149 13.5788C7.85236 13.608 7.8914 13.6172 7.8914 13.6172C7.85426 13.5614 7.82238 13.5022 7.79616 13.4405C7.75776 13.3493 7.73792 13.3395 7.76314 13.2968C7.78259 13.254 7.81178 13.225 7.81178 13.192C7.80013 13.1612 7.7904 13.1418 7.7904 13.1418Z" fill="#574F35"/>
<path fill-rule="evenodd" clip-rule="evenodd" d="M5.57643 13.2952C5.59056 13.2978 5.60505 13.2978 5.61918 13.2952C5.64824 13.2912 5.95121 13.18 6.26775 13.2C6.50472 13.2143 6.73959 13.2529 6.96868 13.3152C7.36675 13.42 7.86185 13.6278 8.18224 13.7463C8.26761 13.7792 8.3512 13.8376 8.41263 13.8607C8.65737 13.956 8.66697 13.956 8.81071 13.9812C8.97967 14.0045 9.15247 13.9482 9.33308 13.9094C9.55439 13.8607 9.93301 13.8374 10.265 13.7889C10.3724 13.774 10.4783 13.75 10.5816 13.7171C10.5816 13.7171 10.3175 13.9812 9.68444 14.0763C9.42854 14.1152 9.1685 14.1184 8.9117 14.086C8.70972 14.0666 8.57583 14.0374 8.47484 14.0083C8.36028 13.9753 8.12528 13.8879 7.836 13.8163C7.63402 13.7638 7.40874 13.725 7.15056 13.6765C6.51364 13.5599 5.82244 13.426 5.57617 13.296L5.57643 13.2952Z" fill="#252211"/>
<path fill-rule="evenodd" clip-rule="evenodd" d="M4.86183 12.0952C4.70823 12.2253 4.54529 12.3496 4.38618 12.4699L3.90657 12.8384C3.7435 12.9587 3.58427 13.083 3.42107 13.2034C3.25787 13.3239 3.09493 13.4383 2.92188 13.549C3.07547 13.419 3.23842 13.2985 3.40149 13.1801C3.56456 13.0617 3.73365 12.9456 3.89096 12.8256L4.37057 12.4566C4.53556 12.3362 4.69479 12.212 4.86183 12.0955V12.0952ZM4.01332 13.4544C4.01332 13.4544 4.18612 13.3107 4.40167 13.1088C4.66957 12.8585 4.99776 12.538 5.1026 12.4799L4.0132 13.4546L4.01332 13.4544Z" fill="#CFB66C"/>
<path fill-rule="evenodd" clip-rule="evenodd" d="M4.01367 13.4543C4.09918 13.369 4.19044 13.2855 4.2817 13.2038L4.42148 13.0835C4.46423 13.0451 4.51287 13.002 4.5555 12.9592C4.64087 12.8739 4.72446 12.7825 4.80983 12.6952C4.85215 12.6513 4.89689 12.6098 4.94385 12.5709C4.96732 12.5501 4.9934 12.5325 5.02142 12.5184C5.04484 12.5048 5.07006 12.48 5.10295 12.4756C5.08362 12.5048 5.06033 12.5184 5.04087 12.5436C5.01758 12.5631 4.99812 12.5864 4.97879 12.6057C4.93604 12.6484 4.88753 12.6872 4.84478 12.7261C4.75351 12.8038 4.65841 12.8797 4.56714 12.961C4.47588 13.0423 4.3905 13.13 4.29911 13.2115C4.20017 13.2951 4.1089 13.3766 4.01367 13.4547V13.4543ZM5.17489 12.6776C5.17489 12.6776 4.54193 13.2971 4.41175 13.398L5.17489 12.6776Z" fill="#CFB66C"/>
<path fill-rule="evenodd" clip-rule="evenodd" d="M5.17476 12.6776C5.11782 12.7435 5.05677 12.8058 4.99197 12.864L4.79997 13.0465C4.73789 13.1086 4.67953 13.1708 4.61361 13.2329C4.54564 13.2911 4.48356 13.3481 4.41162 13.4018L4.59799 13.2193C4.6602 13.1572 4.72817 13.1049 4.79421 13.0427L4.98058 12.8601C5.04458 12.7961 5.10679 12.7339 5.17476 12.6776ZM5.20381 13.0135C5.14547 13.1763 5.07672 13.3352 4.99799 13.4893C4.83492 13.8155 4.59031 14.2232 4.48343 14.4311L5.20381 13.0135Z" fill="#CFB66C"/>
<path fill-rule="evenodd" clip-rule="evenodd" d="M5.20382 13.0136C5.20382 13.0854 5.18436 13.1476 5.16106 13.2097C5.13835 13.2718 5.11246 13.3328 5.0835 13.3922C5.05431 13.4505 5.02129 13.5127 4.98826 13.569C4.95524 13.6253 4.91646 13.6834 4.88727 13.7418L4.69118 14.0874C4.62321 14.2026 4.55716 14.3184 4.48535 14.4292C4.53386 14.3049 4.59991 14.1884 4.66212 14.0738C4.73009 13.9586 4.79217 13.8434 4.85412 13.7243C4.88437 13.6649 4.91158 13.604 4.93566 13.5419C4.96471 13.4797 4.99377 13.4214 5.01719 13.3651C5.04625 13.303 5.06954 13.2447 5.09873 13.1885C5.13162 13.1282 5.15889 13.0699 5.20356 13.0136H5.20382Z" fill="#CFB66C"/>
<path fill-rule="evenodd" clip-rule="evenodd" d="M5.89534 14.6058C5.89534 14.6058 5.70334 14.8602 5.72254 15.1825C5.77489 15.0136 5.84094 14.7553 5.89534 14.6058ZM6.07786 14.8608C6.07786 14.8608 6.0099 15.552 5.95358 15.8919C6.03319 15.499 6.04868 15.532 6.07786 14.8608ZM7.34965 15.9327C7.34965 15.9327 7.0623 16.7775 7.05641 17.0122C7.11862 16.7708 7.23894 16.2776 7.34965 15.932V15.9327Z" fill="#DEC270"/>
<path fill-rule="evenodd" clip-rule="evenodd" d="M8.02148 14.5536C8.02148 14.5536 8.48753 15.3225 8.8371 15.9787C8.74251 15.6485 8.52491 15.0428 8.02148 14.5536Z" fill="#CBAF59"/>
<path fill-rule="evenodd" clip-rule="evenodd" d="M9.27393 15.6855C9.52981 16.1378 9.76056 16.6039 9.96512 17.0816C9.92634 16.7515 9.82138 16.1865 9.27393 15.6855Z" fill="#E3C677"/>
<path fill-rule="evenodd" clip-rule="evenodd" d="M12.9552 16.8191C13.0328 16.7706 13.1863 16.5064 13.3203 16.4405C13.4542 16.3725 13.5552 16.3589 13.6756 16.2249C13.7959 16.085 13.8292 15.9997 14.093 15.8891C14.462 15.7297 14.2082 15.5239 14.2082 15.5239C14.2489 15.484 14.2923 15.447 14.3383 15.4133C14.4335 15.3415 14.5441 15.2541 14.5345 15.1006C14.5209 14.8424 14.4724 14.4676 14.2607 14.2501C14.4665 14.2074 14.8606 14.1783 15.1055 14.1163C15.3889 14.0443 15.5191 13.9433 15.5191 13.9433C15.5191 13.9433 15.356 13.6657 15.62 13.3861C15.8841 13.1066 16.0997 12.9396 16.2589 12.6269C16.0764 12.6036 15.7981 12.5065 15.088 12.7764C15.1263 12.7944 15.1633 12.8151 15.1987 12.8384C15.1987 12.8384 14.7618 12.9589 14.6026 13.0929C14.3248 13.3278 14.2899 13.52 13.989 13.6638C13.688 13.8075 13.3851 13.7686 13.1347 13.8851C12.8843 14.0016 12.8473 14.1006 12.7559 14.1434C12.7754 14.1667 12.7521 14.2055 12.789 14.2385C12.7657 14.2715 12.6297 14.4928 12.4919 14.4928C12.5054 14.5453 12.6219 14.5841 12.6219 14.5841C12.6219 14.5841 12.5365 14.6463 12.3191 14.6618C12.4297 14.777 12.5346 14.9026 12.8239 15.0851C12.8006 15.1336 12.7035 15.2055 12.7424 15.2968C12.7851 15.3881 12.896 15.5124 13.3385 15.6133C13.1132 15.6229 12.8492 15.6754 12.4937 15.6269C12.1383 15.5842 12.0801 15.5589 11.8607 15.6133C11.884 15.6366 11.9461 15.6366 12.0005 15.6987C11.9422 15.7026 11.5772 15.656 11.4529 15.8192C11.3229 15.988 11.2665 16.2658 11.2763 16.4521C11.2083 16.4852 11.1423 16.5434 11.1753 16.6638C11.2083 16.7843 11.3811 16.8231 11.4918 16.8987C11.6024 16.9803 11.6121 17.0093 11.7171 16.99C11.8277 16.9667 11.9908 16.8561 12.086 16.8561C12.1812 16.8561 12.2491 16.9279 12.2491 16.9279C12.2491 16.9279 12.5074 16.8036 12.5326 16.8269C12.5559 16.8502 12.5364 16.9997 12.5616 17.023C12.5872 17.0405 12.8782 16.8677 12.9559 16.8191H12.9552Z" fill="#ECD592"/>
<path fill-rule="evenodd" clip-rule="evenodd" d="M18.6001 9.04867C17.3866 5.91471 14.3865 5.33411 14.3865 5.33411H5.82728L5.8603 8.5263H7.56488V15.6545H5.82715V18.8409H14.1496C16.1553 18.8409 17.7631 16.8253 17.7631 16.8253C20.3379 13.171 18.6 9.04867 18.6 9.04867H18.6001ZM14.1943 14.6777C14.1943 14.6777 13.5415 15.6195 12.8312 15.6195H11.4104L11.3767 8.53411H13.2001C13.2001 8.53411 14.0449 8.71075 14.6351 10.3826C14.6351 10.3826 15.4175 12.7762 14.1943 14.6777Z" fill="white" fill-opacity="0.8"/>
</svg>
