<svg width="24" height="24" viewBox="0 0 24 24" fill="none" xmlns="http://www.w3.org/2000/svg">
<path d="M5.33333 14H11.3333V20H8.66667C7.78261 20 6.93477 19.6488 6.30964 19.0237C5.68452 18.3986 5.33333 17.5507 5.33333 16.6667V14ZM20 11.3333C20 11.687 19.8595 12.0261 19.6095 12.2761C19.3594 12.5262 19.0203 12.6667 18.6667 12.6667H12.6667V9.97133C12.4427 9.98867 12.2193 10 12 10C11.7807 10 11.5573 9.98867 11.3333 9.97133V12.6667H5.33333C4.97971 12.6667 4.64057 12.5262 4.39052 12.2761C4.14048 12.0261 4 11.687 4 11.3333C4 10.6261 4.28095 9.94781 4.78105 9.44772C5.28115 8.94762 5.95942 8.66667 6.66667 8.66667H7.82533C7.4484 8.3344 7.1492 7.92325 6.94896 7.4624C6.74872 7.00154 6.65234 6.50227 6.66667 6C6.66667 5.82319 6.7369 5.65362 6.86193 5.5286C6.98695 5.40357 7.15652 5.33333 7.33333 5.33333C7.51014 5.33333 7.67971 5.40357 7.80474 5.5286C7.92976 5.65362 8 5.82319 8 6C8 7.748 9.58067 8.35333 10.7827 8.56067C10.339 7.77404 10.0719 6.90025 10 6C10 5.46957 10.2107 4.96086 10.5858 4.58579C10.9609 4.21071 11.4696 4 12 4C12.5304 4 13.0391 4.21071 13.4142 4.58579C13.7893 4.96086 14 5.46957 14 6C13.9281 6.90025 13.661 7.77404 13.2173 8.56067C14.4193 8.35333 16 7.748 16 6C16 5.82319 16.0702 5.65362 16.1953 5.5286C16.3203 5.40357 16.4899 5.33333 16.6667 5.33333C16.8435 5.33333 17.013 5.40357 17.1381 5.5286C17.2631 5.65362 17.3333 5.82319 17.3333 6C17.3477 6.50227 17.2513 7.00154 17.051 7.4624C16.8508 7.92325 16.5516 8.3344 16.1747 8.66667H17.3333C18.0406 8.66667 18.7189 8.94762 19.219 9.44772C19.719 9.94781 20 10.6261 20 11.3333ZM11.3333 6C11.4138 6.70855 11.6408 7.39261 12 8.00867C12.3592 7.39261 12.5862 6.70855 12.6667 6C12.6667 5.82319 12.5964 5.65362 12.4714 5.5286C12.3464 5.40357 12.1768 5.33333 12 5.33333C11.8232 5.33333 11.6536 5.40357 11.5286 5.5286C11.4036 5.65362 11.3333 5.82319 11.3333 6ZM12.6667 20H15.3333C15.7711 20 16.2045 19.9138 16.6089 19.7463C17.0134 19.5788 17.3808 19.3332 17.6904 19.0237C17.9999 18.7142 18.2454 18.3467 18.4129 17.9423C18.5804 17.5379 18.6667 17.1044 18.6667 16.6667V14H12.6667V20Z" fill="white"/>
</svg>
