<svg width="155" height="20" viewBox="0 0 155 20" fill="none" xmlns="http://www.w3.org/2000/svg">
<path d="M0 6.48528H4.45467C6.43957 6.48528 7.15172 6.54589 7.74264 6.77317C8.84873 7.30349 9.50026 8.34897 9.50026 9.59143C9.50026 10.7581 9.15177 11.3491 7.96992 11.94C9.19723 12.3491 10.0154 13.5158 9.90937 14.8037C9.90937 16.7431 8.37902 18.0311 6.16684 18.0311H0.0151517V16.1522H0.893965V8.36412H0.0151517L0 6.48528ZM3.28797 8.36412V11.1824H5.57591C6.39412 11.243 7.15172 10.6521 7.21232 9.83386C7.21232 9.77325 7.21232 9.71265 7.21232 9.71265C7.21232 8.95505 6.45473 8.36412 5.39409 8.36412H3.28797ZM3.28797 13.0006V16.1674H5.74258C6.682 16.228 7.50021 15.5764 7.56082 14.637C7.56082 14.637 7.56082 14.637 7.56082 14.5764C7.56082 13.5764 6.74261 12.94 5.5153 12.94L3.28797 13.0006Z" fill="#A1A1A1"/>
<path d="M19.6217 15.1672C19.2126 17.1066 17.6368 18.2733 15.5155 18.2733C13.0609 18.2733 11.2427 16.3339 11.2427 13.652C11.2427 10.9549 13.0609 9.03065 15.5155 9.03065C16.864 9.03065 18.1519 9.68218 18.9095 10.8489C19.5005 11.8489 19.849 12.955 19.7883 14.1368H13.4548C13.6821 16.4248 15.1519 16.546 15.561 16.546C16.3792 16.6066 17.1368 16.0157 17.3792 15.2581L19.6217 15.1672ZM17.3943 12.5914C17.3943 11.5913 16.5761 10.8337 15.6367 10.8337H15.5761C14.5761 10.8337 13.7579 11.5913 13.5912 12.5307L17.3943 12.5914Z" fill="#A1A1A1"/>
<path d="M26.9552 12.2885H31.0008V18.0311H29.7129V16.2128C29.4856 16.6219 29.1825 16.9704 28.834 17.3189C28.0764 17.9705 27.137 18.319 26.1976 18.319C23.5006 18.319 21.3944 15.6825 21.3944 12.2885C21.3944 8.89446 23.5006 6.19741 26.137 6.19741C27.6067 6.1368 28.8946 6.95501 29.5916 8.18231V6.36408H30.8189V10.0612H29.531C29.4098 9.53084 29.1825 9.06113 28.8795 8.65203C28.2886 7.89443 27.3491 7.42472 26.4249 7.36411C25.0157 7.36411 22.9096 8.59141 22.9096 12.1673C22.9096 14.9855 24.44 17.031 26.4249 17.031C28.0007 16.9704 29.2886 15.8037 29.5916 14.2734C29.6522 13.9855 29.6522 13.6219 29.6522 13.334H26.8946L26.9552 12.2885Z" fill="#A1A1A1"/>
<path d="M40.8344 18.0912H38.3192V16.5154C37.7283 17.6215 36.5616 18.273 35.3343 18.273C33.8646 18.3943 32.5766 17.2124 32.4706 15.7578C32.4706 15.6972 32.4706 15.6366 32.4706 15.576C32.4706 13.879 33.9403 13.0608 37.4556 12.7123L38.2738 12.6517V11.7729C38.2738 10.7728 37.5162 10.1365 36.2889 10.1365C35.0616 10.1365 34.41 10.5456 34.1827 11.7123H32.8039C32.9251 11.0153 33.2736 10.3637 33.8039 9.89402C34.4555 9.3637 35.3343 9.13642 36.1525 9.13642C37.9707 9.13642 39.4859 9.95463 39.4859 12.182V17.0306H40.7132L40.8344 18.0912ZM38.3192 13.5153L37.501 13.6366C34.804 13.985 33.9252 14.4548 33.9252 15.576C33.9858 16.576 34.804 17.273 35.7434 17.273C37.0313 17.2124 38.1526 16.273 38.3192 14.9851V13.5153Z" fill="#A1A1A1"/>
<path d="M44.5317 10.879C44.9408 10.2881 45.6984 9.06081 47.35 9.06081C48.5167 9.06081 49.1682 9.65174 49.3955 10.879C49.6228 10.4699 49.8652 10.1214 50.2137 9.77295C50.744 9.30324 51.3804 9.01536 52.0925 9.01536C53.4411 9.01536 54.1987 9.89417 54.1987 11.4245V16.9853H55.426V18.0459H52.9713V11.8791C52.9713 10.6518 52.5622 10.0608 51.6834 10.0608C50.1531 10.0608 49.3349 11.8791 49.3349 12.5155V16.9701H50.6228V18.0308H48.047V11.6972C48.047 10.5912 47.6379 10.1214 46.7591 10.1214C45.4105 10.1214 44.4105 11.8185 44.4105 12.6367V17.0307H45.6984V18.0914H41.8953V17.0307H43.1832V10.2275H41.8953V9.16687H44.4711L44.5317 10.879Z" fill="#A1A1A1"/>
<path d="M56.7744 5.96997H59.229V11.061C59.5775 10.4095 60.5775 9.12157 62.0927 9.12157C64.0776 9.12157 65.608 11.1671 65.608 13.7429C65.608 16.1521 63.9715 18.1976 62.0927 18.1976C60.5169 18.1976 59.7442 17.137 59.229 16.44V18.0915H56.7138V17.0309H57.9411V7.01546H56.7744V5.96997ZM59.229 14.349C59.229 15.8187 60.3351 16.9854 61.7442 17.1066C63.2746 17.1066 64.1988 15.7581 64.1988 13.5914C64.1988 11.4247 63.1988 10.1368 61.7442 10.1368C60.4563 10.1368 59.1684 11.5459 59.1684 12.8338L59.229 14.349Z" fill="#A1A1A1"/>
<path d="M66.3656 5.96997H68.8808V17.0309H70.0475V18.0915H66.305V17.0309H67.5929V6.95485H66.3656V5.96997Z" fill="#A1A1A1"/>
<path d="M78.6688 15.6368C78.5476 16.1671 78.3203 16.5762 77.9718 16.9853C77.2748 17.8035 76.2748 18.2732 75.1535 18.2732C72.7444 18.2732 71.0474 16.3944 71.0474 13.6974C71.0474 11.1215 72.7444 9.12147 74.9111 9.12147C77.0778 9.12147 78.8355 10.8185 78.8355 13.9246H72.4565C72.5777 15.2126 72.8656 15.9701 73.4565 16.5611C73.9262 16.9702 74.5171 17.2126 75.0929 17.2126C76.0929 17.2126 76.7293 16.7429 77.199 15.6823L78.6688 15.6368ZM77.3809 12.9398C77.3809 12.1216 77.093 11.364 76.5021 10.7124C76.093 10.3639 75.5626 10.1215 75.0323 10.1821C73.9262 10.2427 72.9868 11.0003 72.6838 12.0609C72.6232 12.3488 72.5019 12.6519 72.5019 12.9398H77.3809Z" fill="#A1A1A1"/>
<path d="M84.2447 6.48531H87.0478L90.2751 16.2129H91.154V18.0917H88.5175L87.7599 15.5765H83.6537L82.8961 18.0917H80.1991V16.2129H81.0779L84.2447 6.48531ZM85.6387 8.65204L84.1083 13.8037H87.1538L85.6387 8.65204Z" fill="#A1A1A1"/>
<path d="M91.0331 9.24257H94.5483V10.9396H93.6695L94.8968 16.1519L96.3665 9.24257H98.6545L100.124 16.0458L101.291 10.9547H100.412V9.25772H103.927V10.9547H103.17L101.291 18.0307H98.9424L97.4726 11.9396L96.0635 18.0307H93.715L91.7755 10.9396H91.0179L91.0331 9.24257Z" fill="#A1A1A1"/>
<path d="M112.246 16.3944H113.003V18.0914H110.245V17.0308C109.594 17.849 108.609 18.2581 107.548 18.2581C105.791 18.2581 104.442 17.0914 104.442 15.5004C104.442 12.9246 107.367 12.6367 110.185 12.3943C110.185 11.0458 109.715 10.6367 108.609 10.6367C107.503 10.6367 107.079 11.167 107.033 11.9852V12.0458L104.927 11.9852C105.048 10.2276 106.458 9.12147 108.564 9.12147C111.018 9.12147 112.306 10.2276 112.306 12.2276L112.246 16.3944ZM110.139 13.9246C108.094 14.1065 106.745 14.2731 106.745 15.5004C106.745 16.1974 107.336 16.6671 108.215 16.6671C109.276 16.6671 110.155 15.8489 110.2 14.7883V14.758V13.9398H110.139V13.9246Z" fill="#A1A1A1"/>
<path d="M117.155 10.6517C117.746 9.54561 118.382 9.0759 119.382 9.0759C119.731 9.0759 120.034 9.13651 120.382 9.19712V11.2426C120.034 11.182 119.685 11.1214 119.321 11.1214C118.215 11.0608 117.276 11.879 117.215 12.9396V16.3337H118.276V18.0307H114.17V16.3337H115.049V10.9396H114.17V9.24258H117.155V10.6517Z" fill="#A1A1A1"/>
<path d="M129.231 15.1672C128.822 17.1066 127.246 18.2733 125.125 18.2733C122.67 18.2733 120.852 16.3339 120.852 13.652C120.852 10.9549 122.67 9.03065 125.125 9.03065C126.474 9.03065 127.761 9.68218 128.519 10.8489C129.11 11.8489 129.458 12.955 129.398 14.1368H123.064C123.292 16.4248 124.761 16.546 125.17 16.546C125.989 16.6066 126.746 16.0157 126.989 15.2581L129.231 15.1672ZM126.943 12.5914C126.943 11.5913 126.125 10.8337 125.186 10.8337H125.125C124.125 10.8337 123.307 11.5913 123.14 12.5307L126.943 12.5914Z" fill="#A1A1A1"/>
<path d="M151.716 1.27251C152.004 1.27251 152.216 1.34827 152.382 1.48464C152.534 1.62101 152.625 1.81798 152.625 2.04526C152.625 2.22709 152.579 2.37861 152.504 2.51497C152.428 2.65134 152.291 2.74225 152.11 2.78771V2.80286C152.2 2.81801 152.261 2.84832 152.322 2.87862C152.382 2.92408 152.413 2.96953 152.443 3.01499C152.473 3.07559 152.504 3.1362 152.519 3.19681C152.534 3.25742 152.549 3.33318 152.549 3.40894C152.549 3.4847 152.564 3.56046 152.564 3.63622C152.564 3.71198 152.579 3.78774 152.579 3.8635C152.594 3.93926 152.61 3.99986 152.625 4.07562C152.64 4.13623 152.67 4.19684 152.716 4.24229H152.276C152.246 4.21199 152.231 4.16653 152.216 4.12108C152.2 4.07562 152.2 4.01502 152.2 3.93926C152.2 3.87865 152.2 3.80289 152.185 3.72713C152.185 3.65137 152.17 3.57561 152.155 3.49985C152.14 3.42409 152.125 3.36348 152.11 3.28772C152.094 3.22711 152.064 3.16651 152.034 3.12105C152.004 3.0756 151.958 3.03014 151.897 2.99983C151.837 2.96953 151.761 2.95438 151.67 2.95438H150.7V4.21199H150.306V1.27251H151.716ZM151.807 2.62103C151.882 2.60588 151.958 2.57558 152.019 2.54528C152.079 2.49982 152.125 2.45436 152.17 2.3786C152.2 2.318 152.231 2.22709 152.231 2.12102C152.231 1.9695 152.185 1.84829 152.11 1.75738C152.034 1.66647 151.897 1.62101 151.7 1.62101H150.716V2.65134H151.534C151.64 2.63619 151.716 2.63619 151.807 2.62103Z" fill="#A1A1A1"/>
<path d="M151.428 5.72743C149.852 5.72743 148.564 4.43952 148.564 2.86372C148.564 1.28791 149.852 0 151.428 0C153.004 0 154.292 1.28791 154.292 2.86372C154.307 4.43952 153.019 5.72743 151.428 5.72743ZM151.428 0.454558C150.11 0.454558 149.019 1.53034 149.019 2.86372C149.019 4.19709 150.095 5.27287 151.428 5.27287C152.746 5.27287 153.837 4.19709 153.837 2.86372C153.837 1.53034 152.761 0.454558 151.428 0.454558Z" fill="#A1A1A1"/>
<path d="M130.458 16.9245H131.549V18.0003H130.458V16.9245Z" fill="#A1A1A1"/>
<path d="M132.534 14.818C132.534 12.8937 133.716 11.5604 135.443 11.5604C137.125 11.5604 138.352 12.9392 138.352 14.818C138.352 16.7878 137.155 18.1363 135.428 18.1363C133.7 18.1363 132.534 16.8029 132.534 14.818ZM135.397 17.3484C136.594 17.3484 137.322 16.3787 137.322 14.7877C137.322 13.2877 136.564 12.3331 135.397 12.3331C134.261 12.3331 133.549 13.2877 133.549 14.8332C133.549 16.4241 134.246 17.3484 135.397 17.3484Z" fill="#A1A1A1"/>
<path d="M140.822 13.1212C141.125 12.4545 141.292 12.2575 141.58 11.9848C141.913 11.6969 142.322 11.5454 142.731 11.5454C142.883 11.5454 143.095 11.5757 143.413 11.6212V12.5454C143.095 12.4848 142.913 12.4697 142.746 12.4697C141.034 12.4697 140.822 14.2424 140.822 14.3485V17.2728H141.898V18.0153H139.004V17.2728H139.913V12.4242H138.973V11.6666H140.822V13.1212Z" fill="#A1A1A1"/>
<path d="M148.368 16.4545C147.792 17.2727 147.156 17.5302 146.459 17.5302C144.944 17.5302 143.898 16.2878 143.898 14.4847C143.898 12.7725 144.928 11.5604 146.353 11.5604C147.519 11.5604 148.034 12.3028 148.368 12.7877V11.6513H150.156V12.4089H149.277V17.606C149.277 19.1363 148.307 20 146.58 20C145.534 20 144.64 19.5455 144.216 18.803C144.14 18.6515 144.065 18.5 143.959 18.1818H144.989C145.368 18.9394 145.807 19.2273 146.656 19.2273C147.731 19.2273 148.368 18.6666 148.368 17.7575V16.4545ZM148.368 13.9998C148.368 13.3029 147.519 12.318 146.55 12.318C145.519 12.318 144.883 13.1665 144.883 14.5453C144.883 15.9393 145.534 16.7878 146.61 16.7878C147.534 16.7878 148.368 15.8787 148.368 15.1362V13.9998Z" fill="#A1A1A1"/>
</svg>
