<svg width="48" height="55" viewBox="0 0 48 55" fill="none" xmlns="http://www.w3.org/2000/svg">
<g filter="url(#filter0_df_1762_27976)">
<path d="M26.0948 5.55725C26.8845 5.24772 27.7793 5.38298 28.4422 5.91209L44.8546 19.012C45.5175 19.5411 45.8477 20.3837 45.721 21.2223L42.5823 41.9858C42.4556 42.8244 41.891 43.5317 41.1013 43.8413L21.5503 51.5049C20.7606 51.8144 19.8658 51.6791 19.2029 51.15L2.79053 38.0501C2.12763 37.521 1.79736 36.6785 1.92413 35.8398L5.06278 15.0763C5.18955 14.2377 5.7541 13.5304 6.54378 13.2208L26.0948 5.55725Z" fill="#1F212F"/>
<path d="M25.7399 7.90475C26.5296 7.59522 27.4244 7.73048 28.0873 8.25959L40.7887 18.3975C41.4516 18.9266 41.7819 19.7692 41.6551 20.6078L39.2261 36.6765C39.0994 37.5151 38.5348 38.2224 37.7451 38.532L22.6148 44.4627C21.8251 44.7723 20.9303 44.637 20.2674 44.1079L7.56598 33.97C6.90308 33.4409 6.57281 32.5983 6.69958 31.7597L9.12855 15.691C9.25532 14.8524 9.81987 14.1451 10.6095 13.8355L25.7399 7.90475Z" fill="#BDD9E1"/>
<path fill-rule="evenodd" clip-rule="evenodd" d="M28.0873 8.25959C27.4244 7.73048 26.5296 7.59522 25.7399 7.90475L10.6095 13.8355C9.81987 14.1451 9.25532 14.8524 9.12855 15.691L6.78962 31.1641C11.5813 27.6323 17.7201 25.928 24.0709 26.888C30.4217 27.848 35.7824 31.2906 39.3162 36.0809L41.6551 20.6078C41.7819 19.7692 41.4516 18.9266 40.7887 18.3975L28.0873 8.25959Z" fill="#98C3CF"/>
<path d="M25.7348 7.91001C26.5272 7.59745 27.4263 7.73336 28.0909 8.26616L43.5332 20.646C43.8188 20.8749 43.9609 21.2386 43.9062 21.6005C43.7879 22.383 42.8662 22.7431 42.2488 22.2481L27.736 10.6136C27.0714 10.0808 26.1723 9.94485 25.3799 10.2574L8.07678 17.0826C7.34062 17.373 6.56656 16.7565 6.68483 15.9741C6.73954 15.6121 6.98279 15.3067 7.32329 15.1724L25.7348 7.91001Z" fill="#1F202F" fill-opacity="0.3"/>
<path fill-rule="evenodd" clip-rule="evenodd" d="M28.7971 3.5649C28.1342 3.03579 27.2393 2.90052 26.4497 3.21006L6.89864 10.8736C6.10897 11.1832 5.54442 11.8905 5.41764 12.7291L2.279 33.4926C2.15223 34.3313 2.4825 35.1738 3.1454 35.7029L19.5578 48.8028C20.2207 49.3319 21.1155 49.4672 21.9052 49.1577L41.4562 41.4941C42.2459 41.1845 42.8104 40.4772 42.9372 39.6386L46.0758 18.8751C46.2026 18.0365 45.8723 17.1939 45.2094 16.6648L28.7971 3.5649ZM28.0874 8.2597C27.4245 7.73059 26.5297 7.59533 25.74 7.90486L10.6096 13.8356C9.81995 14.1452 9.2554 14.8525 9.12863 15.6911L6.69965 31.7598C6.57288 32.5985 6.90315 33.441 7.56606 33.9701L20.2674 44.108C20.9304 44.6371 21.8252 44.7724 22.6148 44.4629L37.7452 38.5321C38.5349 38.2225 39.0994 37.5152 39.2262 36.6766L41.6552 20.6079C41.782 19.7693 41.4517 18.9267 40.7888 18.3976L28.0874 8.2597Z" fill="#5D6081"/>
<path fill-rule="evenodd" clip-rule="evenodd" d="M26.4497 3.21006C27.2393 2.90052 28.1342 3.03579 28.7971 3.5649L45.2094 16.6648C45.8723 17.1939 46.2026 18.0365 46.0758 18.8751L45.571 22.2146L41.5052 21.6L41.6552 20.6079C41.782 19.7693 41.4517 18.9267 40.7888 18.3976L28.0874 8.2597C27.4245 7.73059 26.5297 7.59533 25.74 7.90486L10.6096 13.8356C9.81995 14.1452 9.2554 14.8525 9.12863 15.6911L8.97865 16.6833L4.91283 16.0687L5.41765 12.7291C5.54442 11.8905 6.10897 11.1832 6.89864 10.8736L26.4497 3.21006Z" fill="#7275A0"/>
<path fill-rule="evenodd" clip-rule="evenodd" d="M31.2418 33.8469C31.0168 33.9744 30.9871 33.9991 30.9871 33.9991C30.9871 33.9991 31.266 34.6101 32.1922 34.6007C32.7402 34.5954 33.6266 34.117 33.6266 34.117C33.6266 34.117 32.4036 33.1688 31.2418 33.8469Z" fill="#556C75"/>
<path fill-rule="evenodd" clip-rule="evenodd" d="M31.5159 33.1762C31.5368 33.43 31.5388 33.4685 31.5388 33.4685C31.5388 33.4685 32.2033 33.3259 32.6105 32.3935C32.8452 31.8562 32.816 30.8461 32.816 30.8461C32.816 30.8461 31.4095 31.8689 31.5159 33.1762Z" fill="#556C75"/>
<path fill-rule="evenodd" clip-rule="evenodd" d="M33.1824 32.8504C32.991 33.0302 32.9772 33.0618 32.9772 33.0618C32.9772 33.0618 33.4109 33.5335 34.3389 33.2614C34.879 33.1021 35.6448 32.3828 35.6448 32.3828C35.6448 32.3828 34.1515 31.8811 33.1824 32.8504Z" fill="#556C75"/>
<path fill-rule="evenodd" clip-rule="evenodd" d="M33.3758 32.4081C33.3758 32.4081 34.0076 32.0819 34.1571 31.0934C34.2358 30.5256 33.941 29.6065 33.941 29.6065C33.941 29.6065 32.8378 30.9688 33.2779 32.1584C33.3669 32.3854 33.3758 32.4081 33.3758 32.4081Z" fill="#556C75"/>
<path fill-rule="evenodd" clip-rule="evenodd" d="M34.8504 31.3585C34.7153 31.5817 34.7014 31.6133 34.7014 31.6133C34.7014 31.6133 35.2585 31.932 36.0956 31.3943C36.5891 31.083 37.1455 30.1969 37.1455 30.1969C37.1455 30.1969 35.5448 30.1564 34.8504 31.3585Z" fill="#556C75"/>
<path fill-rule="evenodd" clip-rule="evenodd" d="M34.9261 30.8834C34.9261 30.8834 35.4639 30.3844 35.337 29.4257C35.2774 28.8728 34.721 28.1216 34.721 28.1216C34.721 28.1216 33.9854 29.7197 34.7531 30.6761C34.9014 30.8537 34.9103 30.8765 34.9261 30.8834Z" fill="#556C75"/>
<path fill-rule="evenodd" clip-rule="evenodd" d="M36.0954 29.456C36.0235 29.7068 36.0097 29.7385 36.0097 29.7385C36.0097 29.7385 36.6496 29.8674 37.3364 29.1136C37.7311 28.6839 38.0574 27.6785 38.0574 27.6785C38.0574 27.6785 36.4669 28.1316 36.0954 29.456Z" fill="#556C75"/>
<path fill-rule="evenodd" clip-rule="evenodd" d="M36.0311 27.6213C35.8422 27.106 35.1398 26.5169 35.1398 26.5169C35.1398 26.5169 34.7251 28.1987 35.7051 28.9278C35.8898 29.065 35.9145 29.0946 35.9145 29.0946C35.9145 29.0946 36.3466 28.493 36.0311 27.6213Z" fill="#556C75"/>
<path fill-rule="evenodd" clip-rule="evenodd" d="M36.8191 27.6267C36.8191 27.6267 37.4944 27.5453 37.9807 26.6475C38.2628 26.1309 38.3106 25.1168 38.3106 25.1168C38.3106 25.1168 36.8507 26.0033 36.8189 27.3255C36.8171 27.5882 36.8191 27.6267 36.8191 27.6267Z" fill="#556C75"/>
<path fill-rule="evenodd" clip-rule="evenodd" d="M36.3271 27.0732C36.5394 27.1471 36.571 27.1609 36.571 27.1609C36.571 27.1609 36.8609 26.4972 36.3431 25.7441C36.0427 25.3118 35.1893 24.9391 35.1893 24.9391C35.1893 24.9391 35.1775 26.6463 36.3271 27.0732Z" fill="#556C75"/>
<path fill-rule="evenodd" clip-rule="evenodd" d="M37.0449 25.4296C37.0449 25.4296 37.6945 25.1488 37.9299 24.179C38.0629 23.6161 37.8431 22.6545 37.8431 22.6545C37.8431 22.6545 36.6185 23.9073 36.9608 25.1482C37.0271 25.3842 37.0449 25.4296 37.0449 25.4296Z" fill="#556C75"/>
<path fill-rule="evenodd" clip-rule="evenodd" d="M34.8675 23.3496C34.8675 23.3496 35.1755 24.9708 36.4198 25.1379C36.6528 25.1644 36.6844 25.1782 36.6844 25.1782C36.6844 25.1782 36.841 24.4751 36.184 23.8682C35.7879 23.5258 34.8675 23.3496 34.8675 23.3496Z" fill="#556C75"/>
<path fill-rule="evenodd" clip-rule="evenodd" d="M36.5223 23.0937C36.6409 23.2961 36.6656 23.3257 36.6656 23.3257C36.6656 23.3257 37.2371 22.879 37.2098 21.9074C37.1957 21.3367 36.7212 20.5273 36.7212 20.5273C36.7212 20.5273 35.8502 22.0474 36.5223 23.0937Z" fill="#556C75"/>
<path fill-rule="evenodd" clip-rule="evenodd" d="M36.2873 23.3299C36.2873 23.3299 36.3896 22.6218 35.6823 22.0871C35.2723 21.7763 34.3105 21.6949 34.3105 21.6949C34.3105 21.6949 34.7548 23.2626 36.0088 23.3212C36.2557 23.3161 36.2715 23.323 36.2873 23.3299Z" fill="#556C75"/>
<path fill-rule="evenodd" clip-rule="evenodd" d="M35.6377 21.6723C35.8431 21.7621 35.8747 21.7759 35.8747 21.7759C35.8747 21.7759 36.2031 21.1102 35.708 20.3482C35.4303 19.9069 34.5976 19.4868 34.5976 19.4868C34.5976 19.4868 34.5157 21.1822 35.6377 21.6723Z" fill="#556C75"/>
<path fill-rule="evenodd" clip-rule="evenodd" d="M14.927 31.3805C15.1043 31.5688 15.1253 31.6012 15.1253 31.6012C15.1253 31.6012 14.6783 32.1025 13.7963 31.8198C13.2743 31.6528 12.5689 30.9337 12.5689 30.9337C12.5689 30.9337 14.0175 30.3894 14.927 31.3805Z" fill="#556C75"/>
<path fill-rule="evenodd" clip-rule="evenodd" d="M14.8634 30.6588C14.7685 30.8951 14.7552 30.9313 14.7552 30.9313C14.7552 30.9313 14.1625 30.5987 14.0491 29.5876C13.9837 29.0049 14.3101 28.0486 14.3101 28.0486C14.3101 28.0486 15.3515 29.4414 14.8634 30.6588Z" fill="#556C75"/>
<path fill-rule="evenodd" clip-rule="evenodd" d="M13.3676 29.8549C13.4973 30.0832 13.5012 30.1175 13.5012 30.1175C13.5012 30.1175 12.9474 30.44 12.1412 29.9058C11.6724 29.594 11.1534 28.6805 11.1534 28.6805C11.1534 28.6805 12.7283 28.6425 13.3676 29.8549Z" fill="#556C75"/>
<path fill-rule="evenodd" clip-rule="evenodd" d="M13.3137 29.3751C13.3137 29.3751 12.8066 28.8767 12.9559 27.8882C13.0486 27.3225 13.6019 26.5316 13.6019 26.5316C13.6019 26.5316 14.2531 28.1591 13.481 29.1655C13.3289 29.3561 13.3137 29.3751 13.3137 29.3751Z" fill="#556C75"/>
<path fill-rule="evenodd" clip-rule="evenodd" d="M12.2152 27.9367C12.2783 28.1899 12.2821 28.2242 12.2821 28.2242C12.2821 28.2242 11.6558 28.3639 11.0151 27.6029C10.6356 27.1596 10.366 26.1487 10.366 26.1487C10.366 26.1487 11.9071 26.5831 12.2152 27.9367Z" fill="#556C75"/>
<path fill-rule="evenodd" clip-rule="evenodd" d="M12.2832 27.4606C12.2832 27.4606 11.9168 26.8249 12.3215 25.9466C12.5418 25.436 13.2953 24.8829 13.2953 24.8829C13.2953 24.8829 13.5258 26.627 12.5096 27.3137C12.3155 27.4396 12.3003 27.4587 12.2832 27.4606Z" fill="#556C75"/>
<path fill-rule="evenodd" clip-rule="evenodd" d="M11.5881 25.7511C11.5827 26.012 11.5866 26.0462 11.5866 26.0462C11.5866 26.0462 10.9371 25.9803 10.5038 25.0572C10.2537 24.53 10.2392 23.4731 10.2392 23.4731C10.2392 23.4731 11.6247 24.3761 11.5881 25.7511Z" fill="#556C75"/>
<path fill-rule="evenodd" clip-rule="evenodd" d="M12.1917 24.0174C12.5245 23.581 13.3696 23.2258 13.3696 23.2258C13.3696 23.2258 13.2687 24.9551 12.117 25.362C11.9 25.4384 11.8677 25.4594 11.8677 25.4594C11.8677 25.4594 11.6327 24.757 12.1917 24.0174Z" fill="#556C75"/>
<path fill-rule="evenodd" clip-rule="evenodd" d="M11.4374 23.7899C11.4374 23.7899 10.8163 23.5125 10.6171 22.5111C10.5003 21.9342 10.7544 20.9512 10.7544 20.9512C10.7544 20.9512 11.887 22.2297 11.5266 23.5022C11.4507 23.7537 11.4374 23.7899 11.4374 23.7899Z" fill="#556C75"/>
<path fill-rule="evenodd" clip-rule="evenodd" d="M12.0712 23.4062C11.8465 23.4141 11.8122 23.4179 11.8122 23.4179C11.8122 23.4179 11.7314 22.6982 12.4487 22.1318C12.8635 21.8076 13.7889 21.7037 13.7889 21.7037C13.7889 21.7037 13.2956 23.3382 12.0712 23.4062Z" fill="#556C75"/>
<path fill-rule="evenodd" clip-rule="evenodd" d="M11.871 21.624C11.871 21.624 11.3335 21.1637 11.3952 20.1677C11.4346 19.5906 11.9288 18.7369 11.9288 18.7369C11.9288 18.7369 12.7284 20.2957 12.0345 21.38C11.9015 21.5859 11.871 21.624 11.871 21.624Z" fill="#556C75"/>
<path fill-rule="evenodd" clip-rule="evenodd" d="M14.5662 20.2804C14.5662 20.2804 13.7927 21.7381 12.5547 21.53C12.3242 21.4864 12.2899 21.4903 12.2899 21.4903C12.2899 21.4903 12.3482 20.7723 13.1552 20.3867C13.6348 20.1767 14.5662 20.2804 14.5662 20.2804Z" fill="#556C75"/>
<path fill-rule="evenodd" clip-rule="evenodd" d="M13.0609 19.5471C12.8878 19.7053 12.8554 19.7263 12.8554 19.7263C12.8554 19.7263 12.4415 19.1307 12.7547 18.2106C12.9369 17.6695 13.6294 17.0365 13.6294 17.0365C13.6294 17.0365 14.0122 18.7462 13.0609 19.5471Z" fill="#556C75"/>
<path fill-rule="evenodd" clip-rule="evenodd" d="M13.2154 19.8419C13.2154 19.8419 13.327 19.1353 14.1607 18.8334C14.6442 18.6577 15.5871 18.8642 15.5871 18.8642C15.5871 18.8642 14.6993 20.2306 13.484 19.9159C13.2497 19.8381 13.2325 19.84 13.2154 19.8419Z" fill="#556C75"/>
<path fill-rule="evenodd" clip-rule="evenodd" d="M14.3261 18.4506C14.1033 18.4756 14.069 18.4795 14.069 18.4795C14.069 18.4795 13.952 17.7464 14.6503 17.1648C15.046 16.8254 15.9656 16.6701 15.9656 16.6701C15.9656 16.6701 15.5428 18.314 14.3261 18.4506Z" fill="#556C75"/>
<path d="M21.6817 25.5329C20.3699 24.898 19.8582 23.6267 20.1466 21.7189L20.4428 19.759C20.7773 17.5464 22.4777 16.6718 25.544 17.1353C26.7722 17.321 27.8035 17.7486 28.6379 18.4183C29.4722 19.0879 29.8025 19.9976 29.6287 21.1475L29.3324 23.1075C29.044 25.0152 28.1794 26.0785 26.7385 26.2973C28.1319 26.8643 28.7094 27.9362 28.4711 29.5129L27.8884 33.3675C27.5302 35.7369 25.7788 36.6839 22.6341 36.2086C19.5155 35.7372 18.1353 34.3168 18.4935 31.9474L19.0762 28.0927C19.3158 26.5073 20.1844 25.654 21.6817 25.5329ZM25.1588 24.2809L25.7494 20.374C25.806 19.9994 25.6078 19.7779 25.1549 19.7094C24.6932 19.6396 24.434 19.792 24.3774 20.1666L23.7868 24.0735C23.7302 24.4481 23.9327 24.6703 24.3944 24.7401C24.8474 24.8085 25.1022 24.6555 25.1588 24.2809ZM23.8197 33.1401L24.6453 27.6782C24.7019 27.3036 24.5037 27.0821 24.0507 27.0137C23.5891 26.9439 23.3299 27.0963 23.2733 27.4708L22.4477 32.9327C22.391 33.3072 22.5936 33.5294 23.0553 33.5992C23.5082 33.6677 23.763 33.5146 23.8197 33.1401Z" fill="#282936"/>
<path d="M14.6218 36.0242L20.952 40.8824C21.4979 41.3014 22.2207 41.4106 22.866 41.1718L30.3494 38.4016L29.8695 41.5761C29.7606 42.2968 29.2685 42.9014 28.5849 43.1544L22.2096 45.5145C21.5643 45.7533 20.8415 45.6441 20.2956 45.2251L14.9026 41.0862C14.3244 40.6424 14.033 39.9194 14.1419 39.1987L14.6218 36.0242Z" fill="#5D6081"/>
<path d="M11.6739 37.2594L20.4694 44.0452C21.0171 44.4678 21.7441 44.5777 22.3922 44.3359L32.8005 40.4529L32.0895 45.1566C31.9808 45.8755 31.4909 46.479 30.8097 46.7332L21.5051 50.2044C20.857 50.4462 20.13 50.3363 19.5823 49.9137L11.7195 43.8475C11.1438 43.4033 10.8542 42.682 10.9629 41.9631L11.6739 37.2594Z" fill="#3A3D53"/>
<path d="M22.1095 42.3818L22.5881 43.9519C22.6052 44.0443 22.6877 44.1167 22.7745 44.1598L24.3215 44.6333C24.5953 44.6747 24.6424 44.9813 24.4332 45.1294L23.1042 46.0967C23.0345 46.1461 22.9864 46.2586 22.9731 46.3465L23.0079 47.9693C23.0029 48.2081 22.7285 48.3763 22.5332 48.227L21.2181 47.2494C21.1357 47.177 21.0444 47.1632 20.9442 47.208L19.3989 47.7532C19.1682 47.8382 18.9209 47.621 19.0216 47.3667L19.5345 45.8267C19.5782 45.7434 19.5351 45.6171 19.4831 45.5493L18.4994 44.2324C18.3738 44.0337 18.5093 43.7547 18.7572 43.7622L20.375 43.7671C20.4663 43.7809 20.5708 43.7069 20.6145 43.6236L21.5358 42.2652C21.7189 42.0832 22.0232 42.1292 22.1095 42.3818Z" fill="#BDD9E1"/>
<path fill-rule="evenodd" clip-rule="evenodd" d="M22.7872 42.1629L23.2095 43.5482L24.493 43.941C24.88 44.0242 25.1802 44.3144 25.2571 44.7032C25.3335 45.0899 25.1692 45.4782 24.8496 45.7073L23.6898 46.5514L23.7202 47.9691L23.7199 47.9842C23.7117 48.3786 23.4837 48.6982 23.1939 48.8629C22.8936 49.0337 22.4641 49.0676 22.1054 48.7965L20.9715 47.9537L19.6389 48.4238C18.9021 48.6897 18.023 48.0033 18.3507 47.1268L18.7891 45.8106L17.912 44.6365L17.8972 44.613C17.5069 43.9955 17.8862 43.032 18.7668 43.0501L20.1401 43.0542L20.9848 41.8085L21.0336 41.76C21.5301 41.2667 22.5005 41.3234 22.7834 42.1517L22.7872 42.1629ZM18.7571 43.7623C18.5092 43.7547 18.3737 44.0338 18.4993 44.2325L19.483 45.5494C19.535 45.6172 19.5781 45.7435 19.5344 45.8268L19.0215 47.3668C18.9208 47.6211 19.1681 47.8382 19.3988 47.7533L20.9441 47.2081C21.0443 47.1633 21.1356 47.1771 21.218 47.2495L22.5331 48.2271C22.7284 48.3764 23.0029 48.2082 23.0078 47.9693L22.973 46.3466C22.9863 46.2587 23.0344 46.1462 23.1041 46.0968L24.4331 45.1295C24.6423 44.9814 24.5952 44.6747 24.3214 44.6333L22.7744 44.1598C22.6876 44.1168 22.6051 44.0444 22.588 43.9519L22.1094 42.3819C22.0231 42.1292 21.7188 42.0832 21.5357 42.2652L20.6144 43.6237C20.5707 43.7069 20.4662 43.781 20.3749 43.7672L18.7571 43.7623Z" fill="#3A3C53"/>
<path d="M27.7069 4.1349L27.9573 4.95616C27.9662 5.00452 28.0093 5.04237 28.0548 5.06491L28.864 5.31257C29.0072 5.33422 29.0318 5.49462 28.9224 5.5721L28.2272 6.07808C28.1908 6.1039 28.1656 6.16277 28.1587 6.20872L28.1769 7.05756C28.1743 7.18251 28.0307 7.27049 27.9286 7.19238L27.2407 6.68102C27.1975 6.64316 27.1498 6.63594 27.0974 6.65936L26.2891 6.94455C26.1684 6.98898 26.039 6.87541 26.0917 6.74236L26.36 5.93683C26.3829 5.89329 26.3603 5.8272 26.3331 5.79175L25.8185 5.10291C25.7528 4.99897 25.8238 4.85301 25.9534 4.85694L26.7996 4.85951C26.8474 4.86673 26.9021 4.82799 26.9249 4.78444L27.4068 4.07387C27.5026 3.97867 27.6618 4.00273 27.7069 4.1349Z" fill="#BDD9E1"/>
</g>
<defs>
<filter id="filter0_df_1762_27976" x="-2.10685" y="-0.958038" width="52.2136" height="60.635" filterUnits="userSpaceOnUse" color-interpolation-filters="sRGB">
<feFlood flood-opacity="0" result="BackgroundImageFix"/>
<feColorMatrix in="SourceAlpha" type="matrix" values="0 0 0 0 0 0 0 0 0 0 0 0 0 0 0 0 0 0 127 0" result="hardAlpha"/>
<feOffset dy="4"/>
<feGaussianBlur stdDeviation="2"/>
<feComposite in2="hardAlpha" operator="out"/>
<feColorMatrix type="matrix" values="0 0 0 0 0 0 0 0 0 0 0 0 0 0 0 0 0 0 0.25 0"/>
<feBlend mode="normal" in2="BackgroundImageFix" result="effect1_dropShadow_1762_27976"/>
<feBlend mode="normal" in="SourceGraphic" in2="effect1_dropShadow_1762_27976" result="shape"/>
<feGaussianBlur stdDeviation="2" result="effect2_foregroundBlur_1762_27976"/>
</filter>
</defs>
</svg>
