<svg width="13" height="16" viewBox="0 0 13 16" fill="none" xmlns="http://www.w3.org/2000/svg">
<path d="M4.03343 15.893C2.95658 15.893 1.87973 15.6972 0.900774 15.3057C0.411297 15.1099 0.215506 14.6204 0.411297 14.1309C0.607088 13.6414 1.09656 13.4456 1.58604 13.6414C3.25026 14.3267 5.20817 14.2288 6.87239 13.4456C8.63451 12.6625 10.1029 11.0962 10.7882 9.23614C11.2777 7.8656 11.1798 6.29928 10.5924 4.92874C9.90715 3.55821 8.8303 2.57925 7.45977 2.08977C5.20817 1.30661 2.76079 2.48136 1.97762 4.73295C1.68394 5.51611 1.68394 6.39717 2.07552 7.18034C2.4671 7.9635 3.15237 8.55087 3.93553 8.84456C5.20817 9.33403 6.57871 8.64877 7.06818 7.37613C7.26397 6.88665 7.16608 6.49507 6.97029 6.00559C6.7745 5.61401 6.38292 5.22243 5.99133 5.12453C5.40396 4.92874 5.20817 4.43926 5.40396 3.94979C5.59975 3.46031 6.08923 3.26452 6.57871 3.36242C8.43872 4.04768 9.41767 6.10349 8.7324 7.8656C7.94924 10.0193 5.50186 11.194 3.34816 10.4109C2.07552 9.9214 1.09656 9.04035 0.509192 7.8656C-0.0781802 6.69086 -0.176076 5.32032 0.313401 4.04768C1.48815 0.91503 4.91448 -0.749191 8.04714 0.327659C9.90715 1.01293 11.3756 2.38346 12.2566 4.14558C13.1377 5.9077 13.2356 7.9635 12.5503 9.82351C11.7672 12.173 10.005 14.033 7.75345 15.1099C6.48081 15.5993 5.20817 15.893 4.03343 15.893Z" fill="#575869"/>
</svg>
