<svg width="48" height="16" viewBox="0 0 48 16" fill="none" xmlns="http://www.w3.org/2000/svg">
<path d="M18.2244 0.280961L11.9403 15.6715H7.84016L4.74743 3.38852C4.56017 2.63373 4.39712 2.35592 3.82645 2.03689C2.89382 1.51681 1.35374 1.0304 0 0.727729L0.0913321 0.280961H6.69207C7.53214 0.280961 8.28854 0.855153 8.48071 1.84937L10.1149 10.7561L14.1491 0.280961H18.2244ZM23.7672 0.280961L20.5601 15.6715H16.6813L19.8883 0.280961H23.7672ZM34.2888 10.6466C34.305 6.58543 28.8186 6.36016 28.8545 4.5454C28.8677 3.99386 29.3795 3.40645 30.5 3.25638C31.0551 3.18275 32.5884 3.12392 34.3252 3.94541L35.0047 0.679906C34.0715 0.333503 32.8707 0 31.3769 0C27.5425 0 24.8451 2.09069 24.8236 5.08687C24.7985 7.30309 26.7502 8.53831 28.2179 9.27643C29.7298 10.0303 30.2367 10.5148 30.2297 11.1884C30.219 12.221 29.0225 12.6782 27.9099 12.6951C25.9592 12.7269 24.8282 12.154 23.9263 11.7226L23.2223 15.0964C24.1298 15.5233 25.8022 15.8943 27.5345 15.9131C31.6107 15.9131 34.2768 13.8464 34.2888 10.6466ZM44.4141 15.6715H48.0002L44.8671 0.280961H41.5582C40.812 0.280961 40.1849 0.725527 39.9066 1.40921L34.0865 15.6715H38.1597L38.9675 13.3725H43.9439L44.4141 15.6715ZM40.0844 10.2187L42.1268 4.43905L43.3 10.2187H40.0844Z" fill="white"/>
</svg>
