<svg width="33" height="29" viewBox="0 0 33 29" fill="none" xmlns="http://www.w3.org/2000/svg">
<path fill-rule="evenodd" clip-rule="evenodd" d="M10.0327 0C10.3483 1.73606 8.54464 4.19359 6.67331 4.84743C7.05659 2.48008 8.40936 1.12731 10.0327 0Z" fill="white"/>
<path fill-rule="evenodd" clip-rule="evenodd" d="M22.9291 0C24.9131 0.901847 26.1306 2.59281 26.6041 5.0278C24.6426 4.1034 23.4476 2.38989 22.9291 0Z" fill="white"/>
<path fill-rule="evenodd" clip-rule="evenodd" d="M6.2004 0.338706C6.98952 2.18749 6.44841 5.29886 5.36619 6.35853C4.19379 4.71266 5.3211 1.57875 6.2004 0.338706Z" fill="white"/>
<path fill-rule="evenodd" clip-rule="evenodd" d="M26.9421 0.518873C28.2273 1.66873 28.6556 4.55464 28.1145 6.5387C26.7167 5.63685 26.5363 2.66076 26.9421 0.518873Z" fill="white"/>
<path fill-rule="evenodd" clip-rule="evenodd" d="M3.8561 3.35928C5.09614 4.64441 4.71286 7.98125 3.8561 9.37911C2.6837 8.20671 3.13462 4.64441 3.8561 3.35928Z" fill="white"/>
<path fill-rule="evenodd" clip-rule="evenodd" d="M29.1299 3.35928C30.4601 4.37386 30.3474 7.93615 29.6259 9.55948C28.3182 8.36453 28.5211 5.16297 29.1299 3.35928Z" fill="white"/>
<path fill-rule="evenodd" clip-rule="evenodd" d="M5.02743 8.38737C5.65872 6.17784 7.21441 4.87016 9.22102 4.03595C8.58973 6.26803 7.23696 7.75607 5.02743 8.38737Z" fill="white"/>
<path fill-rule="evenodd" clip-rule="evenodd" d="M27.2799 8.20624C28.2494 9.71683 29.6923 11.5882 29.2865 13.8879C27.7759 12.8733 26.6937 10.5736 27.0995 8.20624C25.7016 7.14657 24.4842 5.90653 23.7401 4.19302C25.6791 4.41848 27.4828 6.26727 28.0915 8.38661C27.7308 8.4317 27.4828 8.36406 27.2799 8.20624Z" fill="white"/>
<path fill-rule="evenodd" clip-rule="evenodd" d="M0.992305 6.38035C2.59308 7.46256 3.40475 9.3339 3.49493 11.9042C1.73633 11.0023 1.10504 8.95061 0.992305 6.38035Z" fill="white"/>
<path fill-rule="evenodd" clip-rule="evenodd" d="M31.971 6.38035C32.7601 8.4546 31.2946 11.1601 29.784 12.062C29.6938 9.35644 30.8888 7.91349 31.971 6.38035Z" fill="white"/>
<path fill-rule="evenodd" clip-rule="evenodd" d="M6.19958 8.04905C6.53777 10.3939 5.63592 12.9416 3.85477 13.7307C3.87732 11.0928 4.93699 9.46946 6.19958 8.04905Z" fill="white"/>
<path fill-rule="evenodd" clip-rule="evenodd" d="M0.834812 10.3932C2.75124 11.3176 3.67563 13.2566 4.01382 15.7366C2.11994 14.7897 1.28574 12.7831 0.834812 10.3932Z" fill="white"/>
<path fill-rule="evenodd" clip-rule="evenodd" d="M32.1511 10.3932C32.4442 12.738 31.0689 14.9024 29.3103 15.7592C29.4456 13.1664 30.7984 11.7685 32.1511 10.3932Z" fill="white"/>
<path fill-rule="evenodd" clip-rule="evenodd" d="M5.02715 13.0765C6.42501 13.9784 6.58284 16.9545 6.19955 19.0964C4.62132 18.3073 4.7115 15.1733 5.02715 13.0765Z" fill="white"/>
<path fill-rule="evenodd" clip-rule="evenodd" d="M27.9572 13.2346C28.9944 14.7452 28.4533 18.4878 27.123 19.2544C26.4692 17.2027 27.0329 14.7001 27.9572 13.2346Z" fill="white"/>
<path fill-rule="evenodd" clip-rule="evenodd" d="M0 14.249C2.16443 14.993 4.03576 16.0076 4.6896 18.2622C2.52517 17.4956 0.698931 16.436 0 14.249Z" fill="white"/>
<path fill-rule="evenodd" clip-rule="evenodd" d="M32.9839 14.4065C33.2319 15.8946 30.5714 17.9688 28.4746 18.2619C29.2637 16.2779 30.9547 15.1731 32.9839 14.4065Z" fill="white"/>
<path fill-rule="evenodd" clip-rule="evenodd" d="M6.69616 17.5866C8.70277 18.8041 10.1457 20.6078 10.3712 23.6065C8.36458 22.389 7.102 20.4275 6.69616 17.5866Z" fill="white"/>
<path fill-rule="evenodd" clip-rule="evenodd" d="M26.627 17.7658C26.0633 20.3812 25.0713 22.5682 22.9519 23.6278C23.1549 20.6517 24.5753 18.9157 26.627 17.7658Z" fill="white"/>
<path fill-rule="evenodd" clip-rule="evenodd" d="M2.34614 18.0819C4.9615 18.6456 6.7652 20.0209 8.02778 21.9373C8.05033 22.298 7.44158 22.0049 7.19357 22.0951C7.86996 22.6588 9.20018 22.5461 9.38055 23.6057C6.87793 23.9665 3.76655 23.6959 2.68434 22.0951C3.90183 21.7795 5.61534 21.9373 6.87793 22.0951C5.11932 21.0129 3.04508 20.2463 2.34614 18.0819Z" fill="white"/>
<path fill-rule="evenodd" clip-rule="evenodd" d="M26.1095 22.1175C27.2369 22.3204 29.3562 21.5989 30.6413 22.2753C29.4013 23.6732 26.2223 24.2819 23.9451 23.6055C24.2157 22.8164 25.0499 22.5909 25.9517 22.4331C25.9066 22.2077 25.5233 22.2978 25.2753 22.2753C26.2448 20.0207 28.2965 18.8257 30.957 18.2621C30.0777 20.2687 28.274 21.3735 26.1095 22.1175Z" fill="white"/>
<path fill-rule="evenodd" clip-rule="evenodd" d="M10.5508 21.5988C12.0388 21.1704 16.1422 24.1014 16.0746 25.4542C15.9619 27.4383 11.4526 27.6863 9.19802 27.1226C10.2126 25.7022 12.9407 25.4091 15.06 25.612C13.2789 24.5749 11.5654 23.4251 10.5508 21.5988Z" fill="white"/>
<path fill-rule="evenodd" clip-rule="evenodd" d="M22.4345 21.4414C22.2767 23.3353 20.1574 24.7332 18.241 25.4547C20.3828 25.883 23.2011 25.635 24.103 27.3034C21.4425 27.7769 17.7449 27.326 17.2489 25.635C18.1282 23.3804 20.1799 22.3207 22.4345 21.4414Z" fill="white"/>
<path fill-rule="evenodd" clip-rule="evenodd" d="M12.8966 24.7777C11.7242 26.0854 7.80117 26.0629 6.04256 25.2737C7.30515 23.8984 11.1155 23.8308 12.8966 24.7777Z" fill="white"/>
<path fill-rule="evenodd" clip-rule="evenodd" d="M27.2813 25.4544C25.2972 26.2209 22.0731 26.0857 20.4272 25.1162C21.6898 23.7183 26.2892 24.0791 27.2813 25.4544Z" fill="white"/>
<path fill-rule="evenodd" clip-rule="evenodd" d="M16.0756 26.2885C16.4138 26.8747 14.7904 28.3177 13.8886 28.7911C13.5955 27.5962 15.6021 27.3031 16.0756 26.2885Z" fill="white"/>
<path fill-rule="evenodd" clip-rule="evenodd" d="M16.729 26.4689C17.4505 26.6042 19.2091 27.9795 19.2317 28.8137C18.0818 28.9941 17.6985 27.0326 16.729 26.4689Z" fill="white"/>
</svg>
