<svg width="24" height="21" viewBox="0 0 24 21" fill="none" xmlns="http://www.w3.org/2000/svg">
<path fill-rule="evenodd" clip-rule="evenodd" d="M7.2965 0C7.52605 1.26257 6.21429 3.04985 4.85333 3.52537C5.13208 1.80368 6.11591 0.819853 7.2965 0Z" fill="#C4C4C4"/>
<path fill-rule="evenodd" clip-rule="evenodd" d="M16.6758 0C18.1187 0.655883 19.0042 1.88566 19.3485 3.65655C17.922 2.98427 17.0529 1.73809 16.6758 0Z" fill="#C4C4C4"/>
<path fill-rule="evenodd" clip-rule="evenodd" d="M4.50917 0.246094C5.08306 1.59065 4.68953 3.85345 3.90247 4.62411C3.04983 3.42712 3.86968 1.14793 4.50917 0.246094Z" fill="#C4C4C4"/>
<path fill-rule="evenodd" clip-rule="evenodd" d="M19.5941 0.377197C20.5287 1.21345 20.8403 3.31227 20.4467 4.75521C19.4301 4.09933 19.2989 1.93492 19.5941 0.377197Z" fill="#C4C4C4"/>
<path fill-rule="evenodd" clip-rule="evenodd" d="M2.8043 2.44312C3.70614 3.37775 3.42739 5.80451 2.8043 6.82113C1.95166 5.96848 2.2796 3.37775 2.8043 2.44312Z" fill="#C4C4C4"/>
<path fill-rule="evenodd" clip-rule="evenodd" d="M21.1852 2.44312C22.1526 3.18098 22.0706 5.77172 21.5459 6.95231C20.5949 6.08326 20.7425 3.75488 21.1852 2.44312Z" fill="#C4C4C4"/>
<path fill-rule="evenodd" clip-rule="evenodd" d="M3.6564 6.09981C4.11552 4.4929 5.24692 3.54187 6.70626 2.93518C6.24714 4.55849 5.26332 5.6407 3.6564 6.09981Z" fill="#C4C4C4"/>
<path fill-rule="evenodd" clip-rule="evenodd" d="M19.8397 5.96848C20.5448 7.06709 21.5942 8.42804 21.299 10.1005C20.2004 9.36268 19.4134 7.69018 19.7085 5.96848C18.6919 5.19782 17.8065 4.29598 17.2654 3.0498C18.6755 3.21378 19.9873 4.55834 20.43 6.09966C20.1676 6.13245 19.9873 6.08326 19.8397 5.96848Z" fill="#C4C4C4"/>
<path fill-rule="evenodd" clip-rule="evenodd" d="M0.721893 4.6405C1.88609 5.42756 2.47638 6.78852 2.54197 8.65778C1.263 8.0019 0.803879 6.50977 0.721893 4.6405Z" fill="#C4C4C4"/>
<path fill-rule="evenodd" clip-rule="evenodd" d="M23.2513 4.6405C23.8252 6.14903 22.7594 8.11668 21.6608 8.77256C21.5952 6.80491 22.4642 5.7555 23.2513 4.6405Z" fill="#C4C4C4"/>
<path fill-rule="evenodd" clip-rule="evenodd" d="M4.50876 5.85364C4.75472 7.55893 4.09884 9.4118 2.80347 9.9857C2.81986 8.06724 3.59053 6.88665 4.50876 5.85364Z" fill="#C4C4C4"/>
<path fill-rule="evenodd" clip-rule="evenodd" d="M0.607239 7.5592C2.00099 8.23148 2.67327 9.64163 2.91923 11.4453C1.54187 10.7566 0.93518 9.29729 0.607239 7.5592Z" fill="#C4C4C4"/>
<path fill-rule="evenodd" clip-rule="evenodd" d="M23.3822 7.5592C23.5954 9.2645 22.5952 10.8386 21.3162 11.4617C21.4146 9.57604 22.3984 8.55943 23.3822 7.5592Z" fill="#C4C4C4"/>
<path fill-rule="evenodd" clip-rule="evenodd" d="M3.6561 9.51025C4.67272 10.1661 4.7875 12.3306 4.50875 13.8883C3.36096 13.3144 3.42655 11.0352 3.6561 9.51025Z" fill="#C4C4C4"/>
<path fill-rule="evenodd" clip-rule="evenodd" d="M20.3324 9.62537C21.0867 10.724 20.6931 13.4459 19.7257 14.0034C19.2502 12.5112 19.6601 10.6912 20.3324 9.62537Z" fill="#C4C4C4"/>
<path fill-rule="evenodd" clip-rule="evenodd" d="M3.05176e-05 10.3629C1.57415 10.904 2.93511 11.6419 3.41062 13.2816C1.8365 12.7241 0.50834 11.9534 3.05176e-05 10.3629Z" fill="#C4C4C4"/>
<path fill-rule="evenodd" clip-rule="evenodd" d="M23.9882 10.4775C24.1686 11.5597 22.2338 13.0683 20.7088 13.2814C21.2827 11.8385 22.5125 11.035 23.9882 10.4775Z" fill="#C4C4C4"/>
<path fill-rule="evenodd" clip-rule="evenodd" d="M4.86972 12.7899C6.32906 13.6754 7.37847 14.9871 7.54244 17.1679C6.0831 16.2825 5.16487 14.8559 4.86972 12.7899Z" fill="#C4C4C4"/>
<path fill-rule="evenodd" clip-rule="evenodd" d="M19.3649 12.9209C18.955 14.823 18.2335 16.4135 16.6922 17.1841C16.8397 15.0197 17.8728 13.7571 19.3649 12.9209Z" fill="#C4C4C4"/>
<path fill-rule="evenodd" clip-rule="evenodd" d="M1.70621 13.1504C3.60827 13.5603 4.92003 14.5605 5.83827 15.9543C5.85467 16.2166 5.41194 16.0035 5.23158 16.0691C5.72349 16.479 6.69092 16.397 6.82209 17.1677C5.00202 17.43 2.73922 17.2333 1.95216 16.0691C2.83761 15.8395 4.08378 15.9543 5.00202 16.0691C3.72305 15.282 2.21452 14.7245 1.70621 13.1504Z" fill="#C4C4C4"/>
<path fill-rule="evenodd" clip-rule="evenodd" d="M18.9883 16.0855C19.8081 16.2331 21.3495 15.7084 22.2841 16.2003C21.3822 17.2169 19.0703 17.6596 17.4142 17.1677C17.6109 16.5938 18.2176 16.4299 18.8735 16.3151C18.8407 16.1511 18.5619 16.2167 18.3816 16.2003C19.0867 14.5606 20.5788 13.6915 22.5136 13.2816C21.8742 14.741 20.5624 15.5444 18.9883 16.0855Z" fill="#C4C4C4"/>
<path fill-rule="evenodd" clip-rule="evenodd" d="M7.67303 15.7083C8.75524 15.3967 11.7395 17.5284 11.6903 18.5122C11.6083 19.9551 8.32892 20.1355 6.68921 19.7256C7.42708 18.6926 9.41112 18.4794 10.9524 18.627C9.65708 17.8727 8.4109 17.0365 7.67303 15.7083Z" fill="#C4C4C4"/>
<path fill-rule="evenodd" clip-rule="evenodd" d="M16.3157 15.5936C16.2009 16.971 14.6596 17.9876 13.2659 18.5123C14.8236 18.8238 16.8732 18.6435 17.5291 19.8569C15.5943 20.2012 12.9051 19.8733 12.5444 18.6435C13.1839 17.0038 14.676 16.2331 16.3157 15.5936Z" fill="#C4C4C4"/>
<path fill-rule="evenodd" clip-rule="evenodd" d="M9.37951 18.0203C8.52687 18.9714 5.67378 18.955 4.39481 18.3811C5.31304 17.3808 8.08415 17.3317 9.37951 18.0203Z" fill="#C4C4C4"/>
<path fill-rule="evenodd" clip-rule="evenodd" d="M19.841 18.5124C18.3981 19.0699 16.0533 18.9715 14.8563 18.2664C15.7745 17.2498 19.1195 17.5122 19.841 18.5124Z" fill="#C4C4C4"/>
<path fill-rule="evenodd" clip-rule="evenodd" d="M11.6912 19.119C11.9371 19.5453 10.7565 20.5948 10.1007 20.9391C9.8875 20.07 11.3468 19.8569 11.6912 19.119Z" fill="#C4C4C4"/>
<path fill-rule="evenodd" clip-rule="evenodd" d="M12.1662 19.2501C12.6909 19.3485 13.9699 20.3487 13.9863 20.9554C13.15 21.0866 12.8713 19.66 12.1662 19.2501Z" fill="#C4C4C4"/>
</svg>
