<svg width="113" height="134" viewBox="0 0 113 134" fill="none" xmlns="http://www.w3.org/2000/svg">
<path d="M53.1062 7.34405C55.11 6.18716 57.5788 6.18716 59.5826 7.34405L109.193 35.9868C111.197 37.1437 112.431 39.2817 112.431 41.5955V98.8809C112.431 101.195 111.197 103.333 109.193 104.49L59.5826 133.132C57.5788 134.289 55.11 134.289 53.1062 133.132L3.49557 104.49C1.49177 103.333 0.257385 101.195 0.257385 98.8809V41.5955C0.257385 39.2817 1.49177 37.1437 3.49557 35.9868L53.1062 7.34405Z" fill="#1F212F"/>
<path d="M53.1062 13.8204C55.11 12.6635 57.5788 12.6635 59.5826 13.8204L97.9759 35.9868C99.9797 37.1437 101.214 39.2817 101.214 41.5955V85.9282C101.214 88.242 99.9797 90.38 97.9759 91.5369L59.5826 113.703C57.5788 114.86 55.11 114.86 53.1062 113.703L14.713 91.5369C12.7092 90.38 11.4748 88.242 11.4748 85.9282V41.5955C11.4748 39.2817 12.7092 37.1437 14.713 35.9868L53.1062 13.8204Z" fill="#22AA80"/>
<path fill-rule="evenodd" clip-rule="evenodd" d="M59.5827 13.8204C57.5789 12.6635 55.1101 12.6635 53.1063 13.8204L14.713 35.9867C12.7092 37.1436 11.4749 39.2817 11.4749 41.5954V84.2848C22.9596 72.8048 38.8229 65.7047 56.3444 65.7047C73.866 65.7047 89.7293 72.8048 101.214 84.2849V41.5954C101.214 39.2817 99.9797 37.1436 97.9759 35.9867L59.5827 13.8204Z" fill="#178F6A"/>
<path d="M53.0943 13.8366C55.1042 12.6705 57.5848 12.6705 59.5946 13.8366L106.295 40.9326C107.159 41.4337 107.69 42.3567 107.69 43.3552C107.69 45.514 105.351 46.8613 103.484 45.7779L59.5946 20.313C57.5848 19.1468 55.1042 19.1468 53.0943 20.313L9.20498 45.7779C7.33774 46.8613 4.99847 45.514 4.99847 43.3552C4.99847 42.3567 5.53006 41.4337 6.39373 40.9326L53.0943 13.8366Z" fill="#1F202F" fill-opacity="0.3"/>
<path fill-rule="evenodd" clip-rule="evenodd" d="M59.5826 0.86767C57.5788 -0.289222 55.11 -0.289224 53.1062 0.867668L3.49557 29.5104C1.49177 30.6673 0.257385 32.8053 0.257385 35.1191V92.4045C0.257385 94.7183 1.49177 96.8563 3.49557 98.0132L53.1062 126.656C55.11 127.813 57.5788 127.813 59.5826 126.656L109.193 98.0132C111.197 96.8563 112.431 94.7183 112.431 92.4045V35.1191C112.431 32.8053 111.197 30.6673 109.193 29.5104L59.5826 0.86767ZM59.5826 13.8204C57.5788 12.6635 55.11 12.6635 53.1062 13.8204L14.713 35.9868C12.7092 37.1437 11.4748 39.2817 11.4748 41.5955V85.9282C11.4748 88.242 12.7092 90.38 14.713 91.5369L53.1062 113.703C55.11 114.86 57.5788 114.86 59.5826 113.703L97.9758 91.5369C99.9796 90.38 101.214 88.242 101.214 85.9282V41.5955C101.214 39.2817 99.9796 37.1437 97.9758 35.9868L59.5826 13.8204Z" fill="#5D6081"/>
<path fill-rule="evenodd" clip-rule="evenodd" d="M52.8488 0.867668C54.8526 -0.289224 57.3214 -0.289222 59.3252 0.86767L108.936 29.5104C110.94 30.6673 112.174 32.8053 112.174 35.1191V44.3327H100.957V41.5955C100.957 39.2817 99.7222 37.1437 97.7185 35.9868L59.3252 13.8204C57.3214 12.6635 54.8526 12.6635 52.8488 13.8204L14.4556 35.9868C12.4518 37.1437 11.2174 39.2817 11.2174 41.5955V44.3327H0V35.1191C0 32.8053 1.23439 30.6673 3.23819 29.5104L52.8488 0.867668Z" fill="#7275A0"/>
<path d="M61.7001 90.9626H50.3443V53.0739H45.9822V45.5394C47.6405 45.5394 49.0345 44.8305 50.1641 43.4125C51.3177 41.9945 51.8945 40.6126 51.8945 39.2667H61.7001V90.9626Z" fill="#282936"/>
</svg>
