<svg width="24" height="24" viewBox="0 0 24 24" fill="none" xmlns="http://www.w3.org/2000/svg">
<g clip-path="url(#clip0_0_1094)">
<path fill-rule="evenodd" clip-rule="evenodd" d="M7.35634 16.845L7.23724 16.8309L8.03074 15.7251C8.83504 14.6037 9.62224 13.5066 10.4184 12.4161C10.5738 12.2031 10.5834 12.0708 10.4271 11.8503C9.44044 10.4583 8.46814 9.05546 7.49614 7.65326C7.44034 7.57226 7.38454 7.49156 7.32844 7.41116C7.30871 7.38368 7.28769 7.35715 7.26544 7.33166C7.19734 7.25066 7.12684 7.16726 7.13284 7.03526C7.32484 7.03526 7.51684 7.03676 7.70824 7.03826C8.17924 7.04126 8.64754 7.04456 9.11524 7.02776C9.39844 7.01756 9.55354 7.12136 9.70864 7.34816C10.2177 8.09216 10.7376 8.82836 11.2659 9.57716C11.457 9.84776 11.6493 10.1202 11.8425 10.395C12.0426 10.1184 12.2418 9.84416 12.4395 9.57206C12.9818 8.82992 13.5186 8.0838 14.0499 7.33376C14.2098 7.10666 14.3754 6.97856 14.6511 7.03226C14.8626 7.07366 14.9742 6.95666 15.09 6.79736C16.1829 5.29676 17.2794 3.79826 18.3855 2.30756C18.5355 2.10566 18.5337 2.01356 18.3135 1.86866C17.4513 1.30166 16.5159 0.906563 15.5379 0.600863C13.5123 -0.0327371 11.4555 -0.198037 9.37804 0.262763C6.80164 0.833963 4.61914 2.11016 2.89744 4.13396C0.642043 6.78446 -0.318557 9.86936 0.0927432 13.3275C0.469843 16.5 1.99984 19.0851 4.35454 21.198C4.57864 21.399 4.66234 21.336 4.80694 21.123C5.46274 20.1543 6.12544 19.191 6.78814 18.2271C7.03774 17.8644 7.28734 17.5017 7.53634 17.1387C7.56904 17.0913 7.59934 17.0421 7.63414 16.9851L7.69534 16.8861L7.35634 16.8453V16.845ZM6.39154 13.2228C6.39184 12.9105 6.39244 12.5982 6.39244 12.2856H6.36724C6.36724 11.9277 6.36874 11.5695 6.37024 11.2116C6.37384 10.3725 6.37744 9.53366 6.36124 8.69516C6.34534 7.84826 5.82994 7.30826 4.99474 7.16576C4.52194 7.08506 4.04704 7.09496 3.57274 7.10486C3.41494 7.10816 3.25714 7.11146 3.09964 7.11146C2.75164 7.11146 2.59564 7.07246 2.52514 7.13246C2.45314 7.19486 2.47114 7.36226 2.46304 7.78586C2.45854 8.01776 2.54914 8.06066 2.75764 8.06396C3.69964 8.07986 3.87004 8.26466 3.87004 9.22466L3.87064 10.7964C3.87154 12.4713 3.87274 14.1462 3.86404 15.8211C3.86254 16.1127 3.94114 16.2033 4.23394 16.1922C4.85314 16.1694 5.47384 16.1763 6.09394 16.1871C6.32584 16.1913 6.40114 16.122 6.39844 15.8766C6.39043 14.992 6.38813 14.1074 6.39154 13.2228Z" fill="#009344"/>
<path fill-rule="evenodd" clip-rule="evenodd" d="M12.7374 14.433C12.5418 14.1564 12.3444 13.8771 12.1455 13.5945C11.9463 13.8705 11.7486 14.1432 11.553 14.4135C11.0157 15.1533 10.4819 15.8956 9.95158 16.6404C9.79768 16.8573 9.64168 17.0142 9.35548 16.959C9.12928 16.9152 9.00988 17.0445 8.89078 17.2218C7.87768 18.7308 6.86308 20.2389 5.82928 21.7335C5.63938 22.0077 5.66848 22.1301 5.94508 22.2951C8.64838 23.9064 11.5611 24.3636 14.6025 23.7174C17.9223 23.0121 20.4975 21.1494 22.272 18.2226C23.9094 15.5226 24.3744 12.5943 23.7033 9.51873C23.1162 6.82773 21.6717 4.62393 19.6419 2.79573C19.4487 2.62173 19.3473 2.62773 19.1958 2.85123C18.5484 3.80823 17.8938 4.76013 17.2389 5.71203C16.9596 6.11853 16.68 6.52503 16.401 6.93183C16.395 6.94083 16.3875 6.94983 16.3803 6.95883C16.3491 6.99783 16.3161 7.03923 16.3509 7.09833C16.3968 7.12743 16.4499 7.12683 16.5054 7.12623C16.5783 7.12533 16.6548 7.12443 16.7229 7.19193C16.6929 7.23543 16.6641 7.27833 16.6356 7.32093C16.575 7.41003 16.5165 7.49643 16.4556 7.58133L15.813 8.47623C15.066 9.51723 14.319 10.5579 13.5615 11.5908C13.4085 11.7996 13.4175 11.9349 13.5585 12.1338C14.205 13.0446 14.8437 13.9611 15.4827 14.8776L15.8598 15.4188C16.0963 15.7584 16.3319 16.0986 16.5666 16.4394L16.9227 16.9554C16.7061 16.9554 16.4967 16.9545 16.2918 16.9536C15.8177 16.9489 15.3435 16.9513 14.8695 16.9608C14.6097 16.9671 14.4495 16.8873 14.2977 16.6656C13.7833 15.9174 13.2632 15.1732 12.7374 14.433ZM17.2167 10.3395C17.2182 10.5435 17.2197 10.7541 17.2197 10.9743C17.3661 10.8687 17.5047 10.7664 17.6385 10.6674C17.9283 10.4532 18.1965 10.2552 18.4755 10.074C18.9267 9.78093 19.3065 9.46893 19.1676 8.84613C19.1595 8.81043 19.1694 8.77053 19.1787 8.73123L19.1877 8.69223C19.2546 8.34663 19.4631 8.18643 19.8132 8.18643C20.1732 8.18613 20.5338 8.23863 20.5956 8.65503C20.7213 9.50043 20.706 10.3194 19.9134 10.902C19.5681 11.1561 19.2336 11.4249 18.8994 11.694C18.7194 11.8386 18.5394 11.9832 18.3579 12.1257C17.6199 12.7041 17.0955 13.3779 17.2089 14.4051C17.2599 14.8662 17.2359 15.339 17.2119 15.8046L17.2113 15.8097C17.1963 16.1031 17.2866 16.1832 17.5779 16.1802C18.6273 16.1691 19.6767 16.1706 20.7264 16.1724L21.8424 16.1733C22.554 16.1733 22.554 16.1733 22.5612 15.465L22.5615 15.423C22.5648 15.108 22.4817 14.9913 22.1499 14.9994C21.6453 15.0114 21.1404 15.0093 20.6355 15.0072C20.2485 15.0057 19.8615 15.0042 19.4748 15.009C19.2405 15.012 19.1673 14.9412 19.1613 14.7012C19.1451 14.0682 19.3374 13.5309 19.7823 13.0812C20.1276 12.7329 20.5185 12.4425 20.9094 12.1524C21.1323 11.9899 21.3512 11.8218 21.5658 11.6484C22.0881 11.2194 22.5405 10.7472 22.5588 10.0113C22.5678 9.66033 22.5717 9.30813 22.5579 8.95713C22.5246 8.09463 22.2384 7.66293 21.4521 7.41693C20.4597 7.10613 19.4508 7.06683 18.4521 7.41273C17.7051 7.67163 17.2479 8.28663 17.2233 9.08373C17.211 9.49173 17.2137 9.90063 17.2167 10.3395Z" fill="#929497"/>
</g>
<defs>
<clipPath id="clip0_0_1094">
<rect width="24" height="24" fill="white"/>
</clipPath>
</defs>
</svg>
