<svg width="598" height="12" viewBox="0 0 598 12" fill="none" xmlns="http://www.w3.org/2000/svg">
<path d="M590.1 4.85193H302.1V5.85193H590.1V4.85193Z" fill="#A1A1A1"/>
<path d="M295.1 4.85193H6.09998V5.85193H295.1V4.85193Z" fill="#A1A1A1"/>
<path d="M295.5 6.05198C295 6.05198 294.6 5.95198 294.1 5.85198C293.2 5.45198 292.4 4.75198 292 3.85198C291.9 3.65198 292 3.45198 292.2 3.35198C292.4 3.25198 292.6 3.35198 292.7 3.55198C293 4.25198 293.6 4.75198 294.3 5.05198C295.1 5.35198 296 5.35198 296.7 4.95198C297.3 4.65198 297.7 4.25198 297.9 3.65198C298.1 3.05198 298.1 2.45198 297.8 1.85198C297.6 1.45198 297.2 1.05198 296.8 0.95198C296.3 0.75198 295.9 0.851981 295.4 1.05198C295.1 1.25198 294.8 1.45198 294.7 1.85198C294.6 2.15198 294.6 2.55198 294.8 2.85198C294.9 3.05198 295.1 3.25198 295.4 3.35198C295.7 3.45198 295.9 3.45198 296.2 3.35198C296.4 3.25198 296.5 3.15198 296.6 2.95198C296.7 2.75198 296.7 2.55198 296.6 2.35198C296.5 2.15198 296.6 1.95198 296.8 1.85198C297 1.75198 297.2 1.85198 297.3 2.05198C297.5 2.45198 297.5 2.85198 297.4 3.25198C297.3 3.65198 297 3.95198 296.6 4.15198C295.7 4.55198 294.6 4.15198 294.2 3.25198C294 2.75198 293.9 2.15198 294.1 1.65198C294.3 1.15198 294.7 0.651981 295.2 0.451981C296.5 -0.148019 298 0.351981 298.7 1.65198C299 2.15198 299.1 3.05198 298.8 3.85198C298.5 4.65198 297.9 5.25198 297.2 5.65198C296.7 5.85198 296.1 6.05198 295.5 6.05198Z" fill="#A1A1A1"/>
<path d="M302.5 6.05191C301.9 6.05191 301.4 5.95191 300.8 5.65191C300 5.25191 299.5 4.65191 299.2 3.85191C298.9 3.05191 299 2.25191 299.3 1.45191C299.9 0.151907 301.5 -0.348093 302.8 0.251907C303.3 0.451907 303.7 0.951907 303.9 1.45191C304.1 1.95191 304.1 2.55191 303.8 3.05191C303.4 3.95191 302.3 4.35191 301.4 3.95191C301 3.75191 300.8 3.45191 300.6 3.05191C300.5 2.65191 300.5 2.25191 300.7 1.85191C300.8 1.65191 301 1.55191 301.2 1.65191C301.4 1.75191 301.5 1.95191 301.4 2.15191C301.3 2.35191 301.3 2.55191 301.4 2.75191C301.5 2.95191 301.6 3.05191 301.8 3.15191C302 3.25191 302.3 3.25191 302.6 3.15191C302.9 3.05191 303.1 2.85191 303.2 2.65191C303.4 2.35191 303.4 1.95191 303.3 1.65191C303.2 1.35191 302.9 1.05191 302.6 0.851907C302.2 0.651907 301.7 0.651907 301.2 0.751907C300.7 0.951907 300.4 1.25191 300.2 1.65191C299.9 2.25191 299.9 2.85191 300.1 3.45191C300.1 4.15191 300.6 4.65191 301.1 4.95191C301.9 5.35191 302.7 5.35191 303.5 5.05191C304.2 4.75191 304.8 4.25191 305.1 3.55191C305.2 3.35191 305.4 3.25191 305.6 3.35191C305.8 3.45191 305.9 3.65191 305.8 3.85191C305.4 4.75191 304.7 5.45191 303.7 5.85191C303.4 5.95191 302.9 6.05191 302.5 6.05191Z" fill="#A1A1A1"/>
<path d="M296.3 11.2519C295.9 11.2519 295.6 11.1519 295.2 11.0519C294.7 10.8519 294.3 10.3519 294.1 9.85191C293.9 9.35191 293.9 8.75191 294.2 8.25191C294.6 7.35191 295.7 6.95191 296.6 7.35191C297 7.55191 297.2 7.85191 297.4 8.25191C297.5 8.65191 297.5 9.05191 297.3 9.45191C297.2 9.65191 297 9.75191 296.8 9.65191C296.6 9.55191 296.5 9.35191 296.6 9.15191C296.7 8.95191 296.7 8.75191 296.6 8.55191C296.5 8.35191 296.4 8.25191 296.2 8.15191C296 8.05191 295.7 8.05191 295.4 8.15191C295.1 8.25191 294.9 8.45191 294.8 8.65191C294.6 8.95191 294.6 9.35191 294.7 9.65191C294.8 9.95191 295.1 10.2519 295.4 10.4519C295.8 10.6519 296.3 10.6519 296.8 10.5519C297.3 10.3519 297.6 10.0519 297.8 9.65191C298.1 9.05191 298.1 8.45191 297.9 7.85191C297.7 7.25191 297.3 6.75191 296.7 6.55191C295.9 6.15191 295.1 6.15191 294.3 6.45191C293.6 6.75191 293 7.25191 292.7 7.95191C292.6 8.15191 292.4 8.25191 292.2 8.15191C292.1 7.85191 292 7.65191 292.1 7.45191C292.5 6.55191 293.2 5.85191 294.2 5.45191C295.2 5.05191 296.3 5.15191 297.2 5.55191C298 5.95191 298.5 6.55191 298.8 7.35191C299.1 8.15191 299 8.95191 298.7 9.7519C298.2 10.7519 297.3 11.2519 296.3 11.2519Z" fill="#A1A1A1"/>
<path d="M301.6 11.2519C300.6 11.2519 299.7 10.7519 299.3 9.7519C298.9 8.95191 298.9 8.15191 299.2 7.35191C299.5 6.55191 300.1 5.95191 300.8 5.55191C301.7 5.15191 302.9 5.05191 303.8 5.45191C304.7 5.85191 305.5 6.55191 305.9 7.45191C306 7.65191 305.9 7.85191 305.7 7.95191C305.5 8.05191 305.3 7.95191 305.2 7.75191C304.9 7.05191 304.3 6.55191 303.6 6.25191C302.8 5.95191 301.9 5.95191 301.2 6.35191C300.6 6.65191 300.2 7.05191 300 7.65191C299.8 8.25191 299.8 8.85191 300.1 9.45191C300.3 9.85191 300.7 10.2519 301.1 10.3519C301.6 10.5519 302 10.4519 302.5 10.2519C302.8 10.0519 303.1 9.85191 303.2 9.45191C303.3 9.15191 303.3 8.75191 303.1 8.45191C303 8.25191 302.8 8.05191 302.5 7.95191C302.2 7.85191 302 7.85191 301.7 7.95191C301.5 8.05191 301.4 8.15191 301.3 8.35191C301.2 8.55191 301.2 8.75191 301.3 8.95191C301.4 9.15191 301.3 9.35191 301.1 9.45191C300.9 9.55191 300.7 9.4519 300.6 9.2519C300.4 8.8519 300.4 8.45191 300.5 8.05191C300.6 7.65191 300.9 7.35191 301.3 7.15191C302.2 6.75191 303.3 7.15191 303.7 8.05191C303.9 8.55191 304 9.15191 303.8 9.65191C303.6 10.1519 303.2 10.6519 302.7 10.8519C302.4 11.1519 302 11.2519 301.6 11.2519Z" fill="#A1A1A1"/>
<path d="M286.6 5.65195C286.9 4.65195 291.6 3.35195 289.5 5.65195C291.5 7.85195 286.9 6.65195 286.6 5.65195Z" fill="#A1A1A1"/>
<path d="M292.4 5.65198C292.4 5.15198 292 4.65198 291.4 4.65198C290.9 4.65198 290.4 5.05198 290.4 5.65198C290.4 6.15198 290.8 6.65198 291.4 6.65198C292 6.55198 292.4 6.15198 292.4 5.65198Z" fill="#A1A1A1"/>
<path d="M311.4 5.65195C311.1 4.65195 306.4 3.35195 308.5 5.65195C306.4 7.85195 311.1 6.65195 311.4 5.65195Z" fill="#A1A1A1"/>
<path d="M305.5 5.65198C305.5 5.15198 305.9 4.65198 306.5 4.65198C307 4.65198 307.5 5.05198 307.5 5.65198C307.5 6.15198 307.1 6.65198 306.5 6.65198C306 6.55198 305.5 6.15198 305.5 5.65198Z" fill="#A1A1A1"/>
<path d="M7.2 6.8519C4.3 6.0519 0 5.6519 0 5.6519C0 5.6519 4.1 5.2519 7.2 4.3519C8.1 4.0519 8.1 7.1519 7.2 6.8519Z" fill="#A1A1A1"/>
<path d="M590.8 6.8519C593.6 6.0519 598 5.5519 598 5.5519C598 5.5519 593.9 5.2519 590.8 4.3519C589.8 4.0519 589.9 7.1519 590.8 6.8519Z" fill="#A1A1A1"/>
</svg>
