<svg width="24" height="24" viewBox="0 0 24 24" fill="none" xmlns="http://www.w3.org/2000/svg">
<path d="M12 4C10.4178 4 8.87103 4.46919 7.55544 5.34824C6.23985 6.22729 5.21447 7.47672 4.60897 8.93853C4.00347 10.4003 3.84504 12.0089 4.15372 13.5607C4.4624 15.1126 5.22433 16.538 6.34315 17.6569C7.46197 18.7757 8.88743 19.5376 10.4393 19.8463C11.9911 20.155 13.5997 19.9965 15.0615 19.391C16.5233 18.7855 17.7727 17.7602 18.6518 16.4446C19.5308 15.129 20 13.5822 20 12C19.9977 9.87897 19.1541 7.84547 17.6543 6.34568C16.1545 4.84589 14.121 4.00229 12 4V4ZM12 18C10.8133 18 9.65328 17.6481 8.66658 16.9888C7.67989 16.3295 6.91085 15.3925 6.45673 14.2961C6.0026 13.1997 5.88378 11.9933 6.11529 10.8295C6.3468 9.66557 6.91825 8.59647 7.75736 7.75736C8.59648 6.91824 9.66557 6.3468 10.8295 6.11529C11.9933 5.88378 13.1997 6.0026 14.2961 6.45672C15.3925 6.91085 16.3295 7.67988 16.9888 8.66658C17.6481 9.65327 18 10.8133 18 12C17.9981 13.5907 17.3653 15.1157 16.2405 16.2405C15.1157 17.3653 13.5907 17.9981 12 18Z" fill="white"/>
<path d="M11.7995 10.4002H11.5794C11.2912 10.3935 11.0107 10.4898 10.793 10.6703C10.5752 10.8508 10.4359 11.1024 10.4024 11.3759C10.3832 11.6495 10.4768 11.9194 10.6631 12.128C10.8495 12.3366 11.1138 12.4674 11.3998 12.4924V15.7493C11.3998 16.0279 11.5157 16.2952 11.722 16.4922C11.9283 16.6892 12.2081 16.7999 12.4998 16.7999C12.7916 16.7999 13.0714 16.6892 13.2777 16.4922C13.484 16.2952 13.5999 16.0279 13.5999 15.7493V12.1197C13.5999 11.6637 13.4102 11.2263 13.0726 10.9039C12.7349 10.5814 12.277 10.4002 11.7995 10.4002Z" fill="white"/>
<path d="M11.5999 9.60019C11.8372 9.60019 12.0692 9.52982 12.2666 9.39796C12.4639 9.2661 12.6177 9.07869 12.7086 8.85942C12.7994 8.64014 12.8231 8.39886 12.7768 8.16609C12.7305 7.93331 12.6163 7.71949 12.4484 7.55167C12.2806 7.38384 12.0668 7.26956 11.834 7.22325C11.6012 7.17695 11.36 7.20072 11.1407 7.29154C10.9214 7.38237 10.734 7.53617 10.6021 7.73351C10.4703 7.93085 10.3999 8.16286 10.3999 8.4002C10.3998 8.55781 10.4308 8.71389 10.4911 8.85952C10.5513 9.00516 10.6397 9.13748 10.7512 9.24893C10.8626 9.36038 10.9949 9.44876 11.1406 9.50904C11.2862 9.56931 11.4423 9.60029 11.5999 9.60019Z" fill="white"/>
</svg>
