<svg width="24" height="24" viewBox="0 0 24 24" fill="none" xmlns="http://www.w3.org/2000/svg">
<path d="M12.0001 13.4C13.93 13.4 15.4945 11.5196 15.4945 9.2C15.4945 6.8804 13.93 5 12.0001 5C10.0701 5 8.50562 6.8804 8.50562 9.2C8.50562 11.5196 10.0701 13.4 12.0001 13.4Z" fill="white"/>
<path d="M18.8491 16.9702C18.2201 15.7102 17.032 14.6602 15.4945 14.0302C15.0751 13.8902 14.5859 13.8902 14.2365 14.1002C13.5376 14.5202 12.8387 14.7302 12 14.7302C11.1613 14.7302 10.4624 14.5202 9.76354 14.1002C9.4141 13.9602 8.92487 13.8902 8.50554 14.1002C6.96797 14.7302 5.77985 15.7802 5.15085 17.0402C4.66163 17.9502 5.43041 19.0002 6.47875 19.0002H17.5213C18.5696 19.0002 19.3384 17.9502 18.8491 16.9702Z" fill="white"/>
</svg>
