<svg width="13" height="16" viewBox="0 0 13 16" fill="none" xmlns="http://www.w3.org/2000/svg">
<path d="M6.94347 15.7658C6.26223 15.7658 5.58099 15.6685 4.89975 15.3765C1.10429 14.014 -0.939427 9.82929 0.423048 6.03382C1.59088 2.72495 4.70512 0.291959 8.20862 0C8.69522 0 9.0845 0.291959 9.18182 0.778558C9.18182 1.26516 8.88986 1.65444 8.40327 1.75176C5.67831 1.94639 3.148 3.89279 2.1748 6.61774C1.10429 9.53733 2.6614 12.6516 5.58099 13.7221C7.81935 14.5006 10.2523 13.3328 11.0309 11.0944C11.3229 10.3159 11.3229 9.44001 10.9336 8.66145C10.5443 7.8829 9.86306 7.29898 9.0845 7.00702C7.81935 6.52042 6.45687 7.20166 5.97027 8.46682C5.67831 9.34269 6.16491 10.4132 7.04079 10.7052C7.52739 10.8998 7.72203 11.3864 7.62471 11.873C7.43007 12.3596 6.94347 12.5542 6.45687 12.4569C4.6078 11.7757 3.6346 9.73197 4.31584 7.98022C5.09439 5.83918 7.52739 4.67135 9.66842 5.4499C12.2961 6.4231 13.6585 9.24537 12.6853 11.873C11.8095 14.2087 9.47378 15.7658 6.94347 15.7658Z" fill="#575869"/>
</svg>
