<svg width="63" height="67" viewBox="0 0 63 67" fill="none" xmlns="http://www.w3.org/2000/svg">
<path d="M23.3481 4.08901C24.2191 3.29329 25.4484 3.02267 26.573 3.37907L54.4159 12.2031C55.5405 12.5595 56.3896 13.4888 56.6432 14.641L62.9228 43.1657C63.1764 44.3178 62.7962 45.5177 61.9252 46.3135L40.3619 66.0141C39.4909 66.8098 38.2616 67.0805 37.137 66.7241L9.29409 57.9C8.1695 57.5436 7.32048 56.6143 7.06685 55.4622L0.787222 26.9375C0.533585 25.7853 0.913868 24.5854 1.78482 23.7897L23.3481 4.08901Z" fill="#1F212F"/>
<path d="M24.0582 7.31392C24.9291 6.5182 26.1584 6.24758 27.283 6.60398L48.8304 13.4328C49.955 13.7892 50.804 14.7185 51.0577 15.8707L55.9174 37.9457C56.171 39.0978 55.7908 40.2978 54.9198 41.0935L38.2321 56.3397C37.3612 57.1354 36.1319 57.406 35.0073 57.0496L13.4599 50.2207C12.3353 49.8643 11.4863 48.935 11.2326 47.7829L6.37288 25.7079C6.11925 24.5557 6.49953 23.3558 7.37048 22.5601L24.0582 7.31392Z" fill="#229AAA"/>
<path fill-rule="evenodd" clip-rule="evenodd" d="M27.283 6.60398C26.1584 6.24758 24.9291 6.5182 24.0582 7.31392L7.37048 22.5601C6.49953 23.3558 6.11925 24.5557 6.37289 25.7079L11.0525 46.9646C15.5128 39.9893 22.6334 34.715 31.3581 32.7942C40.0828 30.8735 48.7601 32.67 55.7373 37.1275L51.0577 15.8707C50.804 14.7185 49.955 13.7892 48.8304 13.4328L27.283 6.60398Z" fill="#17818F"/>
<path d="M24.054 7.3232C24.927 6.5222 26.1622 6.25028 27.2908 6.61063L53.5151 14.9835C54.0001 15.1384 54.366 15.5397 54.4755 16.0369C54.7121 17.1118 53.695 18.0391 52.6464 17.7043L28.0007 9.83547C26.8721 9.47513 25.6369 9.74705 24.7639 10.548L5.70115 28.0392C4.89013 28.7833 3.57763 28.3689 3.34099 27.294C3.23153 26.7968 3.39505 26.2789 3.77017 25.9347L24.054 7.3232Z" fill="#1F202F" fill-opacity="0.3"/>
<path fill-rule="evenodd" clip-rule="evenodd" d="M25.8629 0.154305C24.7384 -0.202103 23.5091 0.0685234 22.6381 0.864242L1.07478 20.5649C0.203823 21.3606 -0.17646 22.5606 0.077177 23.7127L6.3568 52.2374C6.61044 53.3895 7.45946 54.3188 8.58404 54.6752L36.427 63.4993C37.5516 63.8557 38.7809 63.5851 39.6518 62.7894L61.2152 43.0887C62.0861 42.293 62.4664 41.093 62.2128 39.9409L55.9331 11.4162C55.6795 10.2641 54.8305 9.33477 53.7059 8.97836L25.8629 0.154305ZM27.2828 6.604C26.1582 6.24759 24.9289 6.51821 24.058 7.31393L7.37031 22.5601C6.49936 23.3558 6.11907 24.5558 6.37271 25.7079L11.2325 47.7829C11.4861 48.935 12.3351 49.8643 13.4597 50.2207L35.0071 57.0496C36.1317 57.406 37.361 57.1354 38.232 56.3397L54.9196 41.0935C55.7906 40.2978 56.1709 39.0978 55.9172 37.9457L51.0575 15.8707C50.8039 14.7186 49.9548 13.7893 48.8302 13.4329L27.2828 6.604Z" fill="#5D6081"/>
<path fill-rule="evenodd" clip-rule="evenodd" d="M22.6381 0.864242C23.5091 0.0685234 24.7384 -0.202103 25.8629 0.154305L53.7059 8.97836C54.8305 9.33477 55.6795 10.2641 55.9331 11.4162L56.9431 16.004L51.3575 17.2337L51.0575 15.8707C50.8039 14.7186 49.9548 13.7893 48.8302 13.4329L27.2828 6.604C26.1582 6.24759 24.9289 6.51821 24.058 7.31393L7.37031 22.5601C6.49936 23.3558 6.11907 24.5558 6.37271 25.7079L6.67277 27.0709L1.08717 28.3005L0.077177 23.7127C-0.17646 22.5606 0.203823 21.3606 1.07478 20.5649L22.6381 0.864242Z" fill="#7275A0"/>
<path d="M40.4056 43.9889L27.499 46.8302L26.7482 43.4196L30.5341 30.3526C30.9489 28.9313 30.9139 27.1197 30.4292 24.9177C30.1763 23.7688 29.6669 23.2787 28.901 23.4473C28.1111 23.6212 27.7953 24.0672 27.9533 24.7852L28.9255 29.2011L23.8633 30.3155L22.8754 25.8278C22.1456 22.5129 23.9109 20.3865 28.1712 19.4486C30.804 18.869 32.6796 19.096 33.798 20.1296C34.9257 21.1486 35.7952 23.0463 36.4064 25.8227C36.6461 26.9117 36.6582 27.8501 36.4427 28.6378L32.7674 42.2074L39.6785 40.6859L40.4056 43.9889Z" fill="#282936"/>
</svg>
