<svg width="53" height="50" viewBox="0 0 53 50" fill="none" xmlns="http://www.w3.org/2000/svg">
<path d="M28.435 50H2.1665V20.4818H4.38714V47.8335H28.435V50Z" fill="#EBC152"/>
<path d="M43.7086 20.4817H25.1311V18.3153H41.5421V12.8449H2.16647V18.3153H18.5775V20.4817H0V10.6784H43.7086V20.4817Z" fill="#EBC152"/>
<path d="M21.8813 12.8449C21.8271 12.8449 21.8271 12.8449 21.773 12.8449C21.6105 12.8449 17.3858 12.4117 14.0278 11.2201C12.1321 10.516 10.7781 9.10778 10.2365 7.32044C9.74903 5.64142 10.0198 3.85408 11.0489 2.50004C12.2946 0.82102 14.2445 -0.0997319 16.3026 0.00859177C18.0358 0.0627536 19.5523 0.983505 20.3647 2.39171C21.8271 4.99148 22.9104 11.2743 22.9104 11.5451C22.9645 11.87 22.8562 12.195 22.6395 12.4658C22.4771 12.7366 22.1521 12.8449 21.8813 12.8449ZM15.8693 2.17507C14.6236 2.17507 13.4862 2.77085 12.7279 3.74576C12.1321 4.55819 11.9155 5.64142 12.2405 6.6705C12.5654 7.8079 13.4862 8.67449 14.7319 9.16194C16.6817 9.86605 19.0107 10.2993 20.5272 10.516C20.0939 8.34951 19.3357 4.99148 18.4691 3.52911C18.0358 2.77085 17.1692 2.28339 16.086 2.22923C16.0318 2.17507 15.9776 2.17507 15.8693 2.17507Z" fill="#EBC152"/>
<path d="M21.8816 12.8449C21.6108 12.8449 21.2858 12.7366 21.0691 12.52C20.7983 12.2492 20.69 11.87 20.7983 11.5451C20.8525 11.3284 21.8274 6.83297 23.1273 4.6665C23.9939 3.25829 25.4563 2.28338 26.9728 2.12089C28.2727 2.01257 29.4642 2.44586 30.3308 3.42078C31.1974 4.39569 31.5765 5.58725 31.3599 6.88713C31.1432 8.3495 30.2767 9.70355 28.9768 10.516C26.5937 12.0325 22.2607 12.7908 22.0441 12.8449C21.9899 12.8449 21.9357 12.8449 21.8816 12.8449ZM27.4061 4.2332C27.3519 4.2332 27.2436 4.2332 27.1894 4.2332C26.3228 4.34153 25.5104 4.88315 24.9688 5.74974C24.3189 6.88713 23.6689 8.89112 23.2898 10.2993C24.6438 9.97436 26.5937 9.37858 27.7852 8.62031C28.5435 8.13286 29.0309 7.37459 29.1393 6.508C29.1934 6.07471 29.1393 5.3706 28.6518 4.77482C28.2727 4.34153 27.7852 4.2332 27.4061 4.2332Z" fill="#EBC152"/>
<path d="M26.2142 50H17.4941V10.6785H26.2683V50H26.2142ZM19.6606 47.8335H24.0477V12.8449H19.6606V47.8335Z" fill="#EBC152"/>
<path d="M51.3994 49.9999H29.518V37.976H31.6845V47.8335H49.1788V37.976H51.3994V49.9999Z" fill="#EBC152"/>
<path d="M52.4829 39.1134H43.7087V36.8928H50.3164V32.5057H30.6015V36.8928H38.2925V39.1134H28.435V30.3392H52.4829V39.1134Z" fill="#EBC152"/>
<path d="M44.7919 31.4225H42.6255V48.9167H44.7919V31.4225Z" fill="#EBC152"/>
<path d="M39.3217 31.4225H37.1553V48.9167H39.3217V31.4225Z" fill="#EBC152"/>
<path d="M41.5419 19.3985H39.3755V23.7857H41.5419V19.3985Z" fill="#EBC152"/>
<path d="M40.2965 32.5057C39.3757 32.5057 35.8552 32.3974 33.8512 30.5559C32.118 28.9852 31.9555 26.7104 33.4721 25.0314C34.1762 24.2189 35.0969 23.7856 36.0718 23.6773C37.1009 23.6232 38.13 23.9481 38.9966 24.7606C41.3255 26.8187 41.5964 31.1517 41.5964 31.3141L41.6505 32.4515L40.5131 32.5057C40.459 32.5057 40.4048 32.5057 40.2965 32.5057ZM36.2885 25.898C36.2343 25.898 36.2343 25.898 36.1802 25.898C35.7469 25.9521 35.3677 26.1146 35.0428 26.4937C34.3387 27.3062 34.3928 28.1727 35.2594 28.931C36.2343 29.7976 37.9675 30.1767 39.2132 30.2851C38.9966 29.0393 38.5091 27.3062 37.4801 26.4396C37.1009 26.0604 36.6676 25.898 36.2885 25.898Z" fill="#EBC152"/>
<path d="M40.7299 32.5057C40.5674 32.5057 40.5133 32.5057 40.4591 32.5057L39.2676 32.4515L39.43 31.2599C39.43 31.0975 40.0258 26.8187 42.3006 24.7605C43.1672 24.0023 44.1963 23.6231 45.2254 23.6773C46.2003 23.7314 47.121 24.2189 47.8251 25.0313C49.3417 26.7104 49.1792 28.9851 47.446 30.5558C45.3878 32.3973 41.8132 32.5057 40.7299 32.5057ZM44.9004 25.8979C44.5213 25.8979 44.088 26.0604 43.6547 26.4395C42.6797 27.3061 42.084 29.0393 41.759 30.285C43.113 30.1767 44.9545 29.7976 45.9295 28.931C46.7419 28.1727 46.8502 27.3061 46.1461 26.4937C45.8211 26.1146 45.442 25.8979 45.0087 25.8979C45.0087 25.8979 44.9545 25.8979 44.9004 25.8979Z" fill="#EBC152"/>
</svg>
