<svg width="10" height="10" viewBox="0 0 10 10" fill="none" xmlns="http://www.w3.org/2000/svg">
<path d="M9.76733 0.232636C9.61833 0.0836793 9.41627 0 9.20558 0C8.99489 0 8.79283 0.0836793 8.64383 0.232636L4.99999 3.87648L1.35614 0.232636C1.20714 0.0836793 1.00508 0 0.794388 0C0.5837 0 0.381638 0.0836793 0.232636 0.232636C0.0836793 0.381638 0 0.5837 0 0.794388C0 1.00508 0.0836793 1.20714 0.232636 1.35614L3.87648 4.99999L0.232636 8.64383C0.0836793 8.79283 0 8.99489 0 9.20558C0 9.41627 0.0836793 9.61833 0.232636 9.76733C0.381638 9.91629 0.5837 9.99997 0.794388 9.99997C1.00508 9.99997 1.20714 9.91629 1.35614 9.76733L4.99999 6.12349L8.64383 9.76733C8.79283 9.91629 8.99489 9.99997 9.20558 9.99997C9.41627 9.99997 9.61833 9.91629 9.76733 9.76733C9.91629 9.61833 9.99997 9.41627 9.99997 9.20558C9.99997 8.99489 9.91629 8.79283 9.76733 8.64383L6.12349 4.99999L9.76733 1.35614C9.91629 1.20714 9.99997 1.00508 9.99997 0.794388C9.99997 0.5837 9.91629 0.381638 9.76733 0.232636Z" fill="white"/>
</svg>
