<svg width="32" height="20" viewBox="0 0 32 20" fill="none" xmlns="http://www.w3.org/2000/svg">
<path d="M6.3042 8.36614C3.81983 12.9703 1.78578 16.7535 1.77966 16.775C1.77047 16.8117 2.9376 16.8179 9.12246 16.8179H16.4775V13.05V9.28207H13.7297L10.9788 9.28514L10.4213 10.3481L9.86685 11.4111L11.9775 11.4203L14.0881 11.4264V12.8355V14.2447H10.1364H6.18473L6.29194 14.0517C6.35015 13.9475 7.83586 11.2487 9.59422 8.05674L12.7954 2.25173H13.4326H14.0728L14.082 4.72383L14.0881 7.19901H15.2828H16.4775V3.59959V0.000177383H13.6501H10.8226L6.3042 8.36614Z" fill="#A1A1A1"/>
<path d="M17.1819 8.40902V16.8179H18.4379H19.6939V14.1221V11.4264L22.1476 11.4325L24.6013 11.4417L26.0442 14.0915C26.8406 15.5497 27.5023 16.7597 27.5146 16.7811C27.5329 16.8087 27.8485 16.8179 28.8869 16.8179C29.6252 16.8179 30.2317 16.8087 30.2317 16.7995C30.2317 16.7872 28.1946 13.004 25.7072 8.39064L21.1796 0.000177383H19.1823H17.1819V8.40902ZM21.5656 5.92772C22.5734 7.7596 23.4005 9.26369 23.4005 9.26982C23.4005 9.27595 22.5673 9.28207 21.5472 9.28207H19.6939V5.9216C19.6939 4.07441 19.7031 2.57031 19.7123 2.5795C19.7214 2.59176 20.5547 4.09585 21.5656 5.92772Z" fill="#A1A1A1"/>
<path d="M1.35399 17.498C1.34174 17.5195 1.03234 18.0892 0.664743 18.7632L0 19.9885L7.99223 19.9977C12.3881 20.0008 19.5869 20.0008 23.989 19.9977L31.9965 19.9885L31.3164 18.7325L30.6364 17.4766L16.0059 17.4674C4.32542 17.4613 1.37544 17.4674 1.35399 17.498Z" fill="#A1A1A1"/>
</svg>
