<svg width="32" height="32" viewBox="0 0 32 32" fill="none" xmlns="http://www.w3.org/2000/svg">
<g clip-path="url(#clip0_738_15863)">
<path d="M29.8581 9.81522H26.5039V3.57272C26.5039 2.22947 25.4111 1.13666 24.0679 1.13666H2.43606C1.09281 1.13666 0 2.22947 0 3.57272V19.9075C0 21.2507 1.09281 22.3435 2.43606 22.3435H3.87469V26.0893C3.87469 26.4703 4.09119 26.8182 4.433 26.9864C4.57306 27.0554 4.72419 27.0893 4.87456 27.0893C5.09119 27.0893 5.30625 27.019 5.4845 26.8818L10.5136 23.0126V24.9473C10.5136 26.1284 11.4746 27.0893 12.6556 27.0893H22.6733L27.309 30.6559C27.4873 30.793 27.7023 30.8633 27.9189 30.8633C28.0693 30.8633 28.2204 30.8295 28.3605 30.7605C28.7023 30.5922 28.9188 30.2443 28.9188 29.8633V27.0893H29.8581C31.0391 27.0893 32 26.1284 32 24.9473V11.9573C32 10.7762 31.0391 9.81522 29.8581 9.81522ZM5.87463 24.0582V21.3435C5.87463 20.7912 5.42694 20.3435 4.87463 20.3435H2.43606C2.19969 20.3435 2 20.1438 2 19.9074V3.57272C2 3.33635 2.19963 3.13666 2.43606 3.13666H24.0679C24.3043 3.13666 24.5039 3.33635 24.5039 3.57272V19.9075C24.5039 20.1438 24.3043 20.3435 24.0679 20.3435H11.043C10.8224 20.3435 10.6081 20.4165 10.4332 20.551L5.87463 24.0582ZM30 24.9473C30 25.0229 29.9336 25.0893 29.8581 25.0893H27.9188C27.3664 25.0893 26.9188 25.537 26.9188 26.0893V27.8322L23.6232 25.2967C23.4484 25.1622 23.234 25.0893 23.0134 25.0893H12.6556C12.5799 25.0893 12.5136 25.0229 12.5136 24.9473V22.3435H24.0679C25.4111 22.3435 26.5039 21.2507 26.5039 19.9075V11.8152H29.8581C29.9337 11.8152 30 11.8816 30 11.9572V24.9473ZM11.0414 9.82816C11.0393 9.82816 11.0372 9.82816 11.035 9.82816C10.4827 9.82472 10.0378 9.37422 10.0413 8.82197C10.0494 7.52703 10.6207 6.47722 11.6088 5.94184C12.633 5.38685 13.9657 5.4596 15.0039 6.12728C16.0021 6.7691 16.5303 7.81797 16.4557 9.00772C16.4159 10.2603 15.5947 10.9938 14.934 11.5839C14.1761 12.2608 13.712 12.7255 13.721 13.7041C13.7261 14.2563 13.2825 14.7082 12.7302 14.7132C12.7271 14.7132 12.7239 14.7133 12.7209 14.7133C12.1728 14.7133 11.7261 14.2717 11.7211 13.7225C11.7034 11.7878 12.8006 10.8078 13.6018 10.0923C14.2026 9.55566 14.4482 9.30085 14.457 8.93672C14.4574 8.92191 14.4581 8.90703 14.4591 8.89222C14.4993 8.30847 14.1893 7.98122 13.9222 7.80947C13.5016 7.53897 12.9421 7.4941 12.5616 7.70028C12.2198 7.88547 12.0447 8.26703 12.0413 8.83441C12.0378 9.38453 11.5907 9.82816 11.0414 9.82816ZM13.7724 17.2765C13.7724 17.8287 13.3247 18.2765 12.7724 18.2765H12.6696C12.1173 18.2765 11.6696 17.8287 11.6696 17.2765C11.6696 16.7242 12.1173 16.2765 12.6696 16.2765H12.7724C13.3247 16.2765 13.7724 16.7242 13.7724 17.2765Z" fill="#24B674"/>
</g>
<defs>
<clipPath id="clip0_738_15863">
<rect width="32" height="32" fill="white"/>
</clipPath>
</defs>
</svg>
