<svg width="12" height="12" viewBox="0 0 12 12" fill="none" xmlns="http://www.w3.org/2000/svg">
<path d="M6 11.25L5.56715 10.9452C4.99736 10.5437 0.00212879 6.92721 0.00212879 3.62349C-0.0301896 2.69781 0.306555 1.79704 0.938755 1.11805C1.57095 0.439061 2.44719 0.0370896 3.37593 0C3.88858 0.0050204 4.39293 0.129581 4.84859 0.36371C5.30426 0.597838 5.69859 0.935029 6 1.34829C6.30141 0.935029 6.69574 0.597838 7.15141 0.36371C7.60707 0.129581 8.11142 0.0050204 8.62407 0C9.55281 0.0370896 10.429 0.439061 11.0612 1.11805C11.6934 1.79704 12.0302 2.69781 11.9979 3.62349C11.9979 6.92721 7.00264 10.5437 6.43285 10.9452L6 11.25ZM3.37593 1.49422C2.8451 1.5317 2.35054 1.77633 1.99961 2.17498C1.64869 2.57364 1.46973 3.09414 1.5016 3.62349C1.5016 5.57395 4.43206 8.21075 6 9.40663C7.56794 8.21125 10.4984 5.57395 10.4984 3.62349C10.5303 3.09414 10.3513 2.57364 10.0004 2.17498C9.64946 1.77633 9.1549 1.5317 8.62407 1.49422C8.09324 1.5317 7.59867 1.77633 7.24775 2.17498C6.89682 2.57364 6.71787 3.09414 6.74973 3.62349H5.25027C5.28213 3.09414 5.10318 2.57364 4.75225 2.17498C4.40133 1.77633 3.90676 1.5317 3.37593 1.49422Z" fill="white"/>
</svg>
