<svg width="70" height="20" viewBox="0 0 70 20" fill="none" xmlns="http://www.w3.org/2000/svg">
<path d="M26.17 7.61419C26.2162 7.7875 26.1584 7.89149 26.0198 7.9377L24.691 8.33054C24.5293 8.37676 24.4484 8.33054 24.3906 8.16879C24.1826 7.48709 23.7436 7.12891 22.9232 7.12891C21.6754 7.12891 21.2479 7.86838 21.2479 8.86203V11.1498C21.2479 12.1434 21.6638 12.8829 22.9232 12.8829C23.9516 12.8829 24.4946 12.4092 24.4946 11.3577V11.0573H23.1428C23.0272 11.0573 22.9579 10.9996 22.9579 10.8609V9.58995C22.9463 9.49751 23.0157 9.40508 23.1197 9.39353C23.1312 9.39353 23.1428 9.39353 23.1428 9.39353H26.1468C26.2739 9.39353 26.3433 9.4513 26.3433 9.57839V11.4733C26.3433 13.2757 25.0145 14.6391 22.9463 14.6391C20.4969 14.6391 19.353 13.1833 19.353 11.196V8.78116C19.353 6.79384 20.4969 5.33802 22.9463 5.33802C24.9221 5.34958 25.8118 6.48188 26.17 7.61419ZM32.906 9.86725V14.304C32.9176 14.3965 32.8367 14.4773 32.7443 14.4889C32.7327 14.4889 32.7327 14.4889 32.7212 14.4889H31.3693C31.2769 14.5005 31.1845 14.4311 31.1729 14.3271C31.1729 14.3156 31.1729 14.304 31.1729 14.304V13.5761C30.7801 14.2347 30.0753 14.6391 29.3011 14.6275C28.0186 14.6275 27.1983 13.8072 27.1983 12.5363C27.1983 11.3 27.9724 10.572 29.8673 10.4334C30.2717 10.3987 30.6876 10.3987 31.1036 10.4218V9.92502C31.1036 9.26643 30.7569 9.00069 30.1677 9.00069C29.5669 9.00069 29.3936 9.24332 29.2318 9.62461C29.174 9.77481 29.1163 9.79792 28.9892 9.76326L27.6373 9.41663C27.4987 9.38197 27.4871 9.30109 27.5102 9.20866C27.6951 8.23811 28.6194 7.52175 30.237 7.52175C31.947 7.53331 32.906 8.35365 32.906 9.86725ZM31.1036 12.2012V11.5542C30.7454 11.5426 30.3757 11.5541 30.0175 11.5888C29.3242 11.6697 28.9661 11.8892 28.9661 12.4092C28.9661 12.8829 29.2896 13.1486 29.8095 13.1486C30.4103 13.1486 30.884 12.8251 31.1036 12.2012ZM37.7819 7.53331C38.6369 7.53331 39.203 8.04169 39.4688 8.7696C39.9772 8.03014 40.5895 7.53331 41.4445 7.53331C42.6346 7.53331 43.3163 8.48075 43.3163 9.89035V14.304C43.3163 14.4196 43.2123 14.4889 43.0968 14.4889H41.6872C41.5601 14.4889 41.4676 14.4196 41.4676 14.304V10.2139C41.4676 9.6015 41.2019 9.23177 40.7166 9.23177C40.2082 9.23177 39.8385 9.64772 39.6652 10.2832V14.304C39.6767 14.3965 39.5959 14.4773 39.5034 14.4889H39.4919H37.9667C37.8512 14.4889 37.805 14.4196 37.805 14.304V10.2139C37.805 9.6015 37.5277 9.23177 37.054 9.23177C36.534 9.23177 36.1643 9.67082 36.0025 10.3063V14.3156C36.0141 14.408 35.9448 14.4889 35.8523 14.5005C35.8408 14.5005 35.8292 14.5005 35.8177 14.5005H34.3272C34.2347 14.512 34.1539 14.4427 34.1423 14.3503C34.1423 14.3387 34.1423 14.3271 34.1423 14.3156V7.86838C34.1423 7.77594 34.2232 7.69507 34.3156 7.69507H34.3272H35.7599C35.8523 7.68351 35.9332 7.75284 35.9448 7.85683V7.86838V8.64251C36.3376 8.0648 36.9269 7.53331 37.7819 7.53331ZM51.046 7.68351C51.0807 7.84527 51.0345 7.96081 50.8843 8.00703L49.5786 8.38831C49.4169 8.43453 49.336 8.37676 49.2782 8.22656C49.0934 7.61419 48.7699 7.11736 47.8686 7.11736C46.7479 7.11736 46.3897 7.85682 46.3897 8.85048V11.1382C46.3897 12.1319 46.7941 12.8713 47.8686 12.8713C48.8276 12.8713 49.1974 12.3283 49.3476 11.6581C49.3822 11.5079 49.4862 11.4386 49.648 11.4964L50.9536 11.9123C51.1038 11.9585 51.15 12.0741 51.1153 12.2358C50.8034 13.5646 49.8444 14.6507 47.8571 14.6507C45.6156 14.6507 44.4948 13.1948 44.4948 11.2075V8.79271C44.4948 6.8054 45.6502 5.34958 47.8571 5.34958C49.7982 5.34958 50.711 6.37789 51.046 7.68351ZM57.5972 9.86725V14.304C57.6088 14.3965 57.5279 14.4773 57.4355 14.4889C57.4239 14.4889 57.4239 14.4889 57.4124 14.4889H56.0605C55.9681 14.5005 55.8757 14.4311 55.8641 14.3271C55.8641 14.3156 55.8641 14.304 55.8641 14.304V13.5761C55.4713 14.2347 54.7665 14.6391 53.9923 14.6275C52.7098 14.6275 51.8895 13.8072 51.8895 12.5363C51.8895 11.3 52.6636 10.572 54.5585 10.4334C54.9629 10.3987 55.3788 10.3987 55.7948 10.4218V9.92502C55.7948 9.26643 55.4482 9.00069 54.8589 9.00069C54.2581 9.00069 54.0848 9.24332 53.923 9.62461C53.8652 9.77481 53.8075 9.79792 53.6804 9.76326L52.3285 9.41663C52.1899 9.38197 52.1783 9.30109 52.2014 9.20866C52.3863 8.23811 53.3106 7.52175 54.9282 7.52175C56.6382 7.53331 57.5972 8.35365 57.5972 9.86725ZM55.7832 12.2012V11.5542C55.425 11.5426 55.0553 11.5541 54.6971 11.5888C54.0039 11.6697 53.6457 11.8892 53.6457 12.4092C53.6457 12.8829 53.9692 13.1486 54.4892 13.1486C55.1015 13.1486 55.5637 12.8251 55.7832 12.2012ZM62.8544 7.81061V9.12778C62.8544 9.28954 62.7966 9.34731 62.6348 9.34731H62.4384C61.4563 9.34731 60.8786 9.78636 60.6822 10.5258V14.3156C60.6937 14.408 60.6244 14.4889 60.532 14.5005H60.5204H58.9722C58.8797 14.5005 58.8104 14.4196 58.8104 14.3271C58.8104 14.3271 58.8104 14.3271 58.8104 14.3156V7.85683C58.8104 7.76439 58.8797 7.68351 58.9606 7.68351C58.9722 7.68351 58.9837 7.68351 58.9837 7.68351H60.3818C60.532 7.68351 60.5666 7.77594 60.5666 7.87993V8.79271C60.8902 8.19189 61.491 7.60263 62.5424 7.60263C62.8081 7.60263 62.8544 7.63729 62.8544 7.81061ZM65.2692 11.6581V11.9123C65.2692 12.6287 65.6389 13.1255 66.5055 13.1255C67.3489 13.1255 67.5916 12.802 67.8111 12.3976C67.9266 12.2127 67.9728 12.1896 68.1693 12.2705L69.1398 12.7673C69.3362 12.8713 69.3478 12.9638 69.2669 13.1486C68.851 14.0961 67.7995 14.6391 66.5055 14.6391C64.5413 14.6391 63.5014 13.4721 63.5014 11.8777V10.3063C63.5014 8.75805 64.4719 7.54486 66.4824 7.54486C68.4003 7.54486 69.3362 8.75805 69.3362 10.2716V11.3577C69.3362 11.5426 69.2785 11.6697 69.0127 11.6697L65.2692 11.6581ZM65.2692 10.2139V10.445H67.6378V10.2139C67.6378 9.55528 67.268 9.03535 66.4592 9.03535C65.6505 9.03535 65.2692 9.55528 65.2692 10.2139Z" fill="#A1A1A1"/>
<path d="M8.50385 0H0.254193C0.115543 0 0 0.115541 0 0.254191V12.2474C0 16.5224 3.46624 20.0002 7.75283 20.0002H8.50385C12.7789 20.0002 16.2451 16.534 16.2451 12.2474V7.75283C16.2567 3.46624 12.7904 0 8.50385 0ZM13.7725 12.3745C13.7725 15.2861 11.6235 17.493 8.29587 17.493C4.34436 17.493 2.4957 15.1475 2.4957 11.9354V8.04168C2.4957 4.82963 4.34436 2.48414 8.29587 2.48414C11.4964 2.48414 12.9406 4.3097 13.5183 6.13525C13.5992 6.41255 13.4952 6.57431 13.2757 6.65519L11.1266 7.29066C10.8724 7.37154 10.7338 7.29066 10.6529 7.03647C10.3179 5.93883 9.60149 5.34957 8.29587 5.34957C6.2739 5.34957 5.59221 6.53965 5.59221 8.14567V11.843C5.59221 13.449 6.26235 14.6391 8.29587 14.6391C9.95967 14.6391 10.8378 13.865 10.8378 12.1781V11.7043H8.61939C8.44608 11.7043 8.31898 11.6004 8.31898 11.3924V9.3473C8.31898 9.15088 8.43452 9.02378 8.61939 9.02378H13.4606C13.657 9.02378 13.7725 9.12777 13.7725 9.32419V12.3745Z" fill="#A1A1A1"/>
</svg>
