<svg width="24" height="24" viewBox="0 0 24 24" fill="none" xmlns="http://www.w3.org/2000/svg">
<path d="M19.8657 9.66743L19.8657 9.66743C19.9195 10.1842 19.3812 10.5566 18.9166 10.3238L19.8657 9.66743ZM19.8657 9.66743L19.5401 6.54434C19.4883 6.0471 18.9228 5.78718 18.5116 6.07153L17.9684 6.44723C16.4492 4.81032 14.3054 3.85 11.9999 3.85C7.50593 3.85 3.85 7.50593 3.85 12C3.85 16.4941 7.50593 20.15 11.9999 20.15C15.7575 20.15 19.0114 17.6053 19.9121 13.9617C20.0169 13.5376 19.7581 13.1089 19.3341 13.0041C18.9101 12.8992 18.4815 13.1581 18.3767 13.5821C17.6509 16.5179 15.029 18.5683 11.9999 18.5683C8.37826 18.5683 5.43164 15.6216 5.43164 11.9999C5.43164 8.37817 8.37826 5.43164 11.9999 5.43164C13.7791 5.43164 15.4385 6.14064 16.651 7.35838L16.0299 7.78793C15.6188 8.07226 15.6624 8.69317 16.1094 8.9171C16.1094 8.9171 16.1094 8.9171 16.1094 8.91711L18.9166 10.3238L19.8657 9.66743Z" fill="white" stroke="white" stroke-width="0.3"/>
<path d="M11.4802 8.91299C11.0434 8.91299 10.6894 9.26705 10.6894 9.70381V12.7322C10.6894 13.169 11.0434 13.5231 11.4802 13.5231H16.1374C16.5742 13.5231 16.9282 13.169 16.9282 12.7322C16.9282 12.2955 16.5742 11.9414 16.1374 11.9414H12.271V9.70381C12.271 9.26694 11.9169 8.91299 11.4802 8.91299Z" fill="white" stroke="white" stroke-width="0.3"/>
</svg>
