<svg width="16" height="13" viewBox="0 0 16 13" fill="none" xmlns="http://www.w3.org/2000/svg">
<path d="M7.34616 12.9783C4.30358 12.9783 1.45731 11.1135 0.377683 8.0709C-0.800087 4.93018 0.868421 1.39687 4.10729 0.317248C6.75727 -0.664228 9.60355 0.709837 10.585 3.35982C10.9776 4.43944 10.8795 5.61721 10.3887 6.59869C9.89799 7.58016 9.01466 8.36534 8.03319 8.75793C6.16839 9.44496 4.10729 8.46349 3.5184 6.59869C3.32211 6.10795 3.61655 5.61721 4.10729 5.42092C4.59803 5.22462 5.08876 5.51907 5.28506 6.0098C5.5795 6.89313 6.65912 7.38387 7.54245 7.08943C8.13134 6.89313 8.62207 6.40239 8.91652 5.81351C9.21096 5.22462 9.21096 4.53759 9.01466 3.94871C8.42578 2.2802 6.56098 1.39687 4.79432 1.98576C2.53693 2.77094 1.35916 5.22462 2.14434 7.48202C3.22396 10.4264 6.36468 11.8987 9.30911 10.9172C11.1739 10.2301 12.7443 8.85608 13.5295 6.99128C14.3146 5.22462 14.4128 3.35982 13.7257 1.69131C13.5294 1.20058 13.7257 0.709838 14.2165 0.513543C14.7072 0.317248 15.198 0.513543 15.3943 1.00428C16.2776 3.16353 16.1794 5.51907 15.198 7.77646C14.2165 10.0339 12.2535 11.8005 9.89799 12.5857C9.01466 12.8801 8.13134 12.9783 7.34616 12.9783Z" fill="#575869"/>
</svg>
