<svg width="24" height="24" viewBox="0 0 24 24" fill="none" xmlns="http://www.w3.org/2000/svg">
<path d="M14.125 5.1875C14.5661 5.33874 14.9675 5.58739 15.2994 5.915L16.3344 6.95125C16.6624 7.28268 16.9113 7.68391 17.0625 8.125H14.125V5.1875ZM17.25 9.375V16.875C17.249 17.7035 16.9194 18.4978 16.3336 19.0836C15.7478 19.6694 14.9535 19.999 14.125 20H9.125C8.2965 19.999 7.50222 19.6694 6.91639 19.0836C6.33055 18.4978 6.00099 17.7035 6 16.875V8.125C6.00099 7.2965 6.33055 6.50222 6.91639 5.91639C7.50222 5.33055 8.2965 5.00099 9.125 5H12.875V8.125C12.875 8.45652 13.0067 8.77446 13.2411 9.00888C13.4755 9.2433 13.7935 9.375 14.125 9.375H17.25ZM14.63 15.8831C14.5818 15.8164 14.5209 15.7599 14.4507 15.7168C14.3806 15.6737 14.3026 15.6448 14.2213 15.6319C14.14 15.619 14.057 15.6223 13.9769 15.6416C13.8969 15.6609 13.8215 15.6958 13.755 15.7444C13.3351 16.0367 12.8446 16.2113 12.3344 16.25C12.1345 16.2445 11.9431 16.1681 11.7944 16.0344C11.4682 15.7756 11.0657 15.6316 10.6494 15.625C9.95605 15.6902 9.29566 15.9516 8.74563 16.3787C8.67736 16.4274 8.61959 16.4893 8.57574 16.5608C8.53189 16.6322 8.50286 16.7118 8.49038 16.7947C8.4779 16.8776 8.48223 16.9621 8.50311 17.0433C8.52398 17.1245 8.56098 17.2007 8.61189 17.2673C8.66281 17.3339 8.7266 17.3895 8.79948 17.431C8.87235 17.4724 8.95282 17.4988 9.03609 17.5085C9.11936 17.5182 9.20373 17.511 9.28418 17.4875C9.36463 17.4639 9.43951 17.4244 9.50438 17.3713C9.83726 17.1105 10.2315 16.9397 10.6494 16.875C10.8031 16.875 10.8812 16.9237 11.0869 17.0625C11.443 17.3438 11.883 17.4978 12.3369 17.5C13.1136 17.4645 13.8636 17.2056 14.4969 16.7544C14.6297 16.6562 14.7182 16.5095 14.7432 16.3462C14.7681 16.183 14.7274 16.0165 14.63 15.8831ZM14.75 13.75C14.75 13.5842 14.6842 13.4253 14.5669 13.3081C14.4497 13.1908 14.2908 13.125 14.125 13.125H9.125C8.95924 13.125 8.80027 13.1908 8.68306 13.3081C8.56585 13.4253 8.5 13.5842 8.5 13.75C8.5 13.9158 8.56585 14.0747 8.68306 14.1919C8.80027 14.3092 8.95924 14.375 9.125 14.375H14.125C14.2908 14.375 14.4497 14.3092 14.5669 14.1919C14.6842 14.0747 14.75 13.9158 14.75 13.75ZM14.75 11.25C14.75 11.0842 14.6842 10.9253 14.5669 10.8081C14.4497 10.6908 14.2908 10.625 14.125 10.625H9.125C8.95924 10.625 8.80027 10.6908 8.68306 10.8081C8.56585 10.9253 8.5 11.0842 8.5 11.25C8.5 11.4158 8.56585 11.5747 8.68306 11.6919C8.80027 11.8092 8.95924 11.875 9.125 11.875H14.125C14.2908 11.875 14.4497 11.8092 14.5669 11.6919C14.6842 11.5747 14.75 11.4158 14.75 11.25Z" fill="white"/>
</svg>
