<svg width="56" height="41" viewBox="0 0 56 41" fill="none" xmlns="http://www.w3.org/2000/svg">
<path d="M25.6246 39.3698C25.7955 39.5407 25.9664 39.5977 26.1943 39.5977C26.4222 39.5977 26.5931 39.4838 26.7641 39.3698L31.2081 34.8118C31.493 34.5269 31.493 34.0142 31.2081 33.6723C30.9233 33.3874 30.4105 33.3874 30.0686 33.6723L27.9036 35.9513L28.8721 33.5014C29.0431 33.1025 28.8152 32.6467 28.4163 32.4758C28.0175 32.3049 27.5617 32.5328 27.3908 32.9316L26.1943 35.8943L17.1922 13.4461H35.2534L34.3987 15.4972C34.2278 15.8961 34.4557 16.3519 34.8545 16.5228C34.9685 16.5798 35.0255 16.5798 35.1394 16.5798C35.4243 16.5798 35.7661 16.4088 35.8801 16.067L37.1335 12.9334C37.1905 12.7624 37.1905 12.5345 37.1335 12.3066L32.9744 3.13363C32.8034 2.73481 32.3476 2.56388 31.9488 2.73481C31.55 2.90573 31.3791 3.36153 31.55 3.76036L35.1394 11.7939H17.2492L20.8387 3.76036C21.0096 3.36153 20.8387 2.90573 20.4398 2.73481C20.041 2.56388 19.5852 2.73481 19.4143 3.13363L15.3121 12.3066C15.1981 12.4776 15.1981 12.7055 15.3121 12.9334L24.542 35.9513L2.66359 13.4461H12.8052C13.261 13.4461 13.6028 13.1043 13.6028 12.6485C13.6028 12.1927 13.261 11.8508 12.8052 11.8508H2.72056L13.0331 1.5953H39.4125L49.725 11.8508H39.5835C39.1277 11.8508 38.7858 12.1927 38.7858 12.6485C38.7858 13.1043 39.1277 13.4461 39.5835 13.4461H49.782L47.8449 15.4403C47.56 15.7251 47.56 16.2379 47.8449 16.5798C48.1297 16.8646 48.6425 16.8646 48.9844 16.5798L52.232 13.2182C52.5168 12.9334 52.5168 12.4206 52.232 12.1357L40.2672 0.2279C40.0962 0.0569751 39.9253 0 39.6974 0H12.6912C12.4633 0 12.2924 0.0569751 12.1215 0.2279L0.213657 12.0787C-0.0712189 12.3636 -0.0712189 12.8764 0.213657 13.1613L25.6246 39.3698Z" fill="#EBC152"/>
<path d="M55.7644 25.0691L49.2693 18.6309C49.0983 18.46 48.9274 18.403 48.6995 18.403H33.886C33.6581 18.403 33.4872 18.46 33.3162 18.6309L26.8211 25.0691C26.5362 25.354 26.5362 25.8667 26.8211 26.1516L40.723 40.5093C40.8939 40.6803 41.0648 40.7372 41.2927 40.7372C41.5206 40.7372 41.6916 40.6233 41.8625 40.5093L55.7644 26.1516C56.1063 25.8667 56.0493 25.4109 55.7644 25.0691ZM43.2299 36.9199L47.3891 26.4365H51.3204C51.7762 26.4365 52.118 26.0946 52.118 25.6388C52.118 25.183 51.7762 24.8412 51.3204 24.8412H47.3891L45.7368 21.1378C45.5659 20.739 45.1101 20.568 44.7113 20.739C44.3124 20.9099 44.1415 21.3657 44.3124 21.7645L46.0217 25.6388L41.2927 37.4327L36.8487 26.4365H43.5148C43.9706 26.4365 44.3124 26.0946 44.3124 25.6388C44.3124 25.183 43.9706 24.8412 43.5148 24.8412H36.9057L38.2731 21.8215C38.444 21.4227 38.2731 20.9669 37.8742 20.7959C37.4754 20.625 37.0196 20.7959 36.8487 21.1948L34.9685 25.354C34.8546 25.5249 34.8546 25.7528 34.9685 25.9807L39.3556 36.9199L29.214 26.4365H32.7465C33.2023 26.4365 33.5441 26.0946 33.5441 25.6388C33.5441 25.183 33.2023 24.8412 32.7465 24.8412H29.271L34.2278 19.9413H48.3577L54.1122 25.6388L43.2299 36.9199Z" fill="#EBC152"/>
</svg>
