<svg width="26" height="16" viewBox="0 0 26 16" fill="none" xmlns="http://www.w3.org/2000/svg">
<path d="M16.4448 1.71125H9.44482V14.289H16.4448V1.71125Z" fill="#FF5F00"/>
<path d="M9.88889 8C9.88889 5.44445 11.0889 3.17778 12.9333 1.71111C11.5778 0.644445 9.86667 0 8 0C3.57778 0 0 3.57778 0 8C0 12.4222 3.57778 16 8 16C9.86667 16 11.5778 15.3556 12.9333 14.2889C11.0889 12.8445 9.88889 10.5556 9.88889 8Z" fill="#EB001B"/>
<path d="M25.8881 8C25.8881 12.4222 22.3103 16 17.8881 16C16.0214 16 14.3103 15.3556 12.9547 14.2889C14.8214 12.8222 15.9992 10.5556 15.9992 8C15.9992 5.44445 14.7992 3.17778 12.9547 1.71111C14.3103 0.644445 16.0214 0 17.8881 0C22.3103 0 25.8881 3.6 25.8881 8Z" fill="#F79E1B"/>
</svg>
