<svg width="582" height="586" viewBox="0 0 582 586" fill="none" xmlns="http://www.w3.org/2000/svg">
<path d="M290.864 0L300.788 211.267L360.983 8.51404L320.059 216.017L427.028 33.5614L337.634 225.241L485.159 73.6864L352.491 238.403L531.998 126.557L363.766 254.738L564.823 189.101L370.804 273.296L581.727 257.683L373.197 293L581.727 328.317L370.804 312.704L564.823 396.899L363.766 331.262L531.998 459.443L352.491 347.597L485.159 512.314L337.634 360.759L427.028 552.439L320.059 369.983L360.983 577.486L300.788 374.733L290.864 586L280.94 374.733L220.744 577.486L261.668 369.983L154.7 552.439L244.093 360.759L96.5688 512.314L229.237 347.597L49.7295 459.443L217.962 331.262L16.904 396.899L210.923 312.704L6.10352e-05 328.317L208.531 293L6.10352e-05 257.683L210.923 273.296L16.904 189.101L217.962 254.738L49.7295 126.557L229.237 238.403L96.5688 73.6864L244.093 225.241L154.7 33.5614L261.668 216.017L220.744 8.51404L280.94 211.267L290.864 0Z" fill="white" fill-opacity="0.1"/>
</svg>
