<svg width="24" height="24" viewBox="0 0 24 24" fill="none" xmlns="http://www.w3.org/2000/svg">
<path d="M17.25 12.1606V11.25C17.25 9.85761 16.6969 8.52226 15.7123 7.53769C14.7277 6.55312 13.3924 6 12 6C10.6076 6 9.27225 6.55312 8.28769 7.53769C7.30312 8.52226 6.75 9.85761 6.75 11.25V12.1606C6.2271 12.413 5.78572 12.8074 5.47628 13.2987C5.16683 13.79 5.00179 14.3584 5 14.939V15.1513C5.00093 15.9738 5.32806 16.7623 5.90963 17.3439C6.4912 17.9254 7.27971 18.2526 8.10217 18.2535H8.20833C8.59511 18.2535 8.96604 18.0999 9.23953 17.8264C9.51302 17.5529 9.66667 17.1819 9.66667 16.7952V13.2952C9.6666 12.9591 9.55045 12.6333 9.33786 12.373C9.12528 12.1127 8.8293 11.9338 8.5 11.8666V11.25C8.5 10.3217 8.86875 9.4315 9.52513 8.77513C10.1815 8.11875 11.0717 7.75 12 7.75C12.9283 7.75 13.8185 8.11875 14.4749 8.77513C15.1313 9.4315 15.5 10.3217 15.5 11.25V11.8666C15.1707 11.9338 14.8747 12.1127 14.6621 12.373C14.4495 12.6333 14.3334 12.9591 14.3333 13.2952V16.5035H13.4583C13.2263 16.5035 13.0037 16.5957 12.8396 16.7598C12.6755 16.9239 12.5833 17.1464 12.5833 17.3785C12.5833 17.6106 12.6755 17.8331 12.8396 17.9972C13.0037 18.1613 13.2263 18.2535 13.4583 18.2535H15.8978C16.7203 18.2526 17.5088 17.9254 18.0904 17.3439C18.6719 16.7623 18.9991 15.9738 19 15.1513V14.939C18.9982 14.3584 18.8332 13.79 18.5237 13.2987C18.2143 12.8074 17.7729 12.413 17.25 12.1606ZM7.91667 16.4907C7.59303 16.4455 7.29667 16.2848 7.08224 16.0382C6.86782 15.7916 6.74982 15.4758 6.75 15.149V14.9367C6.74982 14.6099 6.86782 14.2941 7.08224 14.0475C7.29667 13.8009 7.59303 13.6402 7.91667 13.595V16.4907ZM17.25 15.149C17.2502 15.4758 17.1322 15.7916 16.9178 16.0382C16.7033 16.2848 16.407 16.4455 16.0833 16.4907V13.5997C16.407 13.6449 16.7033 13.8056 16.9178 14.0522C17.1322 14.2987 17.2502 14.6146 17.25 14.9413V15.149Z" fill="white"/>
</svg>
