<svg width="24" height="24" viewBox="0 0 24 24" fill="none" xmlns="http://www.w3.org/2000/svg">
<path fill-rule="evenodd" clip-rule="evenodd" d="M19 18.1765V14.4706C19 14.0588 18.6912 13.6471 18.1765 13.6471C17.7647 13.6471 17.3529 13.9559 17.3529 14.4706V16.2206L13.1324 12L17.3529 7.67647V9.42647C17.3529 9.83824 17.6618 10.25 18.1765 10.25C18.5882 10.25 19 9.94118 19 9.42647V5.82353C19 5.72059 19 5.61765 18.8971 5.51471C18.8971 5.41176 18.7941 5.41176 18.7941 5.30882C18.6912 5.20588 18.6912 5.20588 18.5882 5.10294H18.4853C18.3824 5.10294 18.3824 5.10294 18.2794 5.10294H14.4706C14.0588 5 13.6471 5.30882 13.6471 5.82353C13.6471 6.33824 13.9559 6.64706 14.4706 6.64706H16.2206L12 10.8676L7.67647 6.54412H9.42647C9.83824 6.54412 10.25 6.23529 10.25 5.72059C10.25 5.20588 9.94118 5 9.52941 5H5.82353C5.72059 5 5.61765 5 5.51471 5.10294C5.41176 5.10294 5.41176 5.20588 5.30882 5.20588C5.20588 5.30882 5.10294 5.41176 5.10294 5.51471V5.61765C5.10294 5.72059 5.10294 5.72059 5.10294 5.82353V9.52941C5.10294 9.94118 5.41176 10.3529 5.92647 10.3529C6.44118 10.3529 6.75 10.0441 6.75 9.52941V7.67647L10.9706 11.8971L6.75 16.1176V14.4706C6.75 14.0588 6.44118 13.6471 5.92647 13.6471C5.41176 13.6471 5 14.0588 5 14.4706V18.1765C5 18.2794 5 18.2794 5 18.3824V18.4853C5 18.5882 5.10294 18.6912 5.20588 18.7941C5.30882 18.8971 5.30882 18.8971 5.41176 18.8971C5.51471 18.8971 5.61765 19 5.72059 19H9.42647C9.83824 19 10.25 18.6912 10.25 18.1765C10.25 17.7647 9.94118 17.3529 9.42647 17.3529H7.67647L11.8971 13.1324L16.1176 17.3529H14.4706C14.0588 17.3529 13.6471 17.6618 13.6471 18.1765C13.6471 18.6912 13.9559 19 14.4706 19H18.1765C18.2794 19 18.2794 19 18.3824 19H18.4853C18.5882 19 18.6912 18.8971 18.6912 18.7941C18.7941 18.6912 18.7941 18.6912 18.7941 18.5882C18.8971 18.3824 19 18.2794 19 18.1765Z" fill="white"/>
</svg>
