<svg width="26" height="20" viewBox="0 0 26 20" fill="none" xmlns="http://www.w3.org/2000/svg">
<path d="M12.2002 10.5089C11.4942 10.5089 11.1492 10.8759 11.1492 11.4189C11.1492 12.0179 11.6132 12.3619 12.2252 12.3619C12.8142 12.3619 13.2582 12.0839 13.2582 11.4359C13.2582 10.8199 12.8562 10.5089 12.2002 10.5089Z" fill="#A1A1A1"/>
<path d="M12.2209 9.14613C12.8029 9.14613 13.0909 8.90413 13.0909 8.41013C13.0909 7.90113 12.7499 7.62413 12.2029 7.62413C11.6669 7.62413 11.3289 7.87313 11.3289 8.40813C11.3289 8.85113 11.6249 9.14613 12.2209 9.14613Z" fill="#A1A1A1"/>
<path d="M20 4C19.994 4 19.987 4 19.981 4C18.837 4.004 17.738 3.564 16.912 2.774C15.117 1.055 12.681 0 10 0C4.477 0 0 4.477 0 10C0 15.523 4.477 20 10 20C12.682 20 15.117 18.945 16.912 17.226C17.739 16.435 18.837 15.996 19.981 16C19.987 16 19.994 16 20 16C23.314 16 26 13.314 26 10C26 6.686 23.314 4 20 4ZM8.034 13.559H6.159V8.48201C5.836 8.59801 5.269 8.67301 4.952 8.68301V7.377C5.708 7.251 6.351 6.852 6.715 6.44H8.035V13.559H8.034ZM12.127 13.696C10.553 13.696 9.292 12.923 9.292 11.503C9.292 10.628 9.88201 10.092 10.44 9.83101C9.89201 9.48701 9.57401 9.04601 9.57401 8.34801C9.57401 7.133 10.511 6.304 12.231 6.304C13.783 6.304 14.848 7.057 14.848 8.33501C14.848 9.13501 14.428 9.53501 13.951 9.75101C14.472 9.95301 15.11 10.524 15.11 11.461C15.11 12.936 13.86 13.696 12.127 13.696ZM23.119 10.723H20.772V13.154H19.493H19.259V10.723H16.883V9.23901H19.259V6.846H19.493H20.772V9.23901H23.119V10.723Z" fill="#A1A1A1"/>
</svg>
