<svg width="63" height="16" viewBox="0 0 63 16" fill="none" xmlns="http://www.w3.org/2000/svg">
<path d="M17.9267 7.58723V12.6181H18.9083H19.89V10.573V8.51977L20.6425 8.54431L21.3951 8.56886L22.5485 10.5894L23.6938 12.6099L24.8226 12.6181C25.4362 12.6181 25.9433 12.6017 25.9433 12.5772C25.9433 12.5526 25.4198 11.6201 24.7899 10.5076C24.1519 9.39506 23.6202 8.46251 23.6038 8.43797C23.5874 8.40525 23.7838 8.28255 24.0455 8.15166C24.6427 7.85718 25.248 7.29274 25.5098 6.78556C25.8697 6.0657 25.8861 4.79777 25.5425 4.12699C25.1826 3.43167 24.3482 2.84269 23.4238 2.64636C23.1621 2.5891 22.0086 2.55638 20.4626 2.55638H17.9267V7.58723ZM23.1375 4.43784C23.5874 4.64234 23.8165 5.01045 23.8165 5.54217C23.8165 6.03298 23.612 6.40927 23.2275 6.62196C22.9985 6.74466 22.7121 6.77738 21.4278 6.79374L19.89 6.82647V5.55035V4.27423H21.346C22.5976 4.27423 22.843 4.29877 23.1375 4.43784Z" fill="white"/>
<path d="M49.1751 7.66903V12.6181H50.1159H51.0566V7.66903V2.71999H50.1159H49.1751V7.66903Z" fill="white"/>
<path d="M59.5804 7.35808C59.605 11.1701 59.605 11.1864 59.7931 11.5709C60.0058 12.0045 60.513 12.4953 60.922 12.6671C61.1019 12.7407 61.511 12.7816 62.0999 12.7816H62.9998V11.9636V11.1455H62.4762C62.0754 11.1455 61.9118 11.1046 61.74 10.9737L61.5273 10.8101V8.88778V6.97361H62.2635H62.9998V6.19649V5.41936H62.2635H61.5273V4.47864V3.53791H60.5375H59.5559L59.5804 7.35808Z" fill="white"/>
<path d="M28.4632 5.41122C27.8006 5.63209 27.3507 5.91022 26.8681 6.41739C26.3773 6.94911 26.1482 7.35812 25.9846 8.05344C25.5429 9.91853 26.3527 11.71 27.9888 12.4871C28.4959 12.7325 28.5614 12.7407 29.5839 12.7407C30.5001 12.7407 30.7128 12.7162 31.1218 12.5444C31.6944 12.3153 32.4552 11.6446 32.7578 11.0883L32.9705 10.6875L32.3161 10.303C31.9562 10.0903 31.629 9.91853 31.5962 9.91853C31.5635 9.91853 31.4245 10.0821 31.2772 10.2785C30.95 10.7529 30.5083 11.0392 29.9684 11.1456C29.4857 11.2356 29.1422 11.1865 28.725 10.9738C28.2342 10.7284 27.7434 10.0821 27.7434 9.67313C27.7434 9.50952 27.7761 9.50952 30.4428 9.50952H33.1423V8.82238C33.1423 7.25178 32.4143 6.09018 31.0563 5.49303C30.4755 5.23126 29.1258 5.19036 28.4632 5.41122ZM30.6719 7.00637C30.8846 7.15361 31.0891 7.39084 31.22 7.66079L31.4326 8.07798L29.6166 8.10252C28.6186 8.1107 27.7843 8.10252 27.7597 8.07798C27.6452 7.96346 28.2342 7.23542 28.6432 6.99001C29.0604 6.73642 29.134 6.72006 29.7148 6.7446C30.2383 6.76914 30.3856 6.80186 30.6719 7.00637Z" fill="white"/>
<path d="M43.2937 5.37846C42.2385 5.67295 41.265 6.45007 40.8642 7.32536C40.5779 7.96342 40.4552 8.94505 40.5779 9.68945C40.8969 11.6282 42.3285 12.7816 44.4226 12.7816C45.6496 12.7816 46.4677 12.4871 47.2611 11.7754C47.7192 11.3582 48.0301 10.8347 48.2346 10.1312C48.4064 9.53402 48.3655 8.19246 48.161 7.62803C47.8256 6.70366 46.9339 5.84474 45.9278 5.48481C45.3061 5.25576 43.9318 5.20668 43.2937 5.37846ZM45.2897 7.21084C46.4349 7.71801 46.8112 9.24771 46.0423 10.2621C45.4942 10.9819 44.3408 11.2519 43.5637 10.8429C43.1383 10.6138 42.6802 10.1066 42.5493 9.71399C42.3857 9.22317 42.4839 8.34789 42.7375 7.96342C43.3183 7.08813 44.3244 6.79364 45.2897 7.21084Z" fill="white"/>
<path d="M33.0849 5.53402C33.1095 5.59128 33.7639 7.21097 34.541 9.13332L35.9562 12.6263L36.8478 12.6017L37.7395 12.5772L39.1219 9.1824C39.8827 7.31731 40.5289 5.7058 40.5535 5.59946L40.6026 5.41131L39.6046 5.43585L38.5984 5.46039L37.7313 7.76722C37.2569 9.03516 36.8397 10.0495 36.8151 10.0168C36.7824 9.98407 36.3816 8.937 35.9153 7.68542L35.0646 5.41949H34.0502C33.2322 5.41949 33.0522 5.44403 33.0849 5.53402Z" fill="white"/>
<path d="M52.0381 7.65261C52.0381 8.91237 52.079 10.0985 52.1281 10.3684C52.308 11.3664 52.8397 12.0536 53.7477 12.4871C54.2713 12.7325 54.3285 12.7407 55.392 12.7407C56.4309 12.7407 56.529 12.7244 56.9871 12.5117C57.8951 12.0863 58.4759 11.3419 58.6559 10.3684C58.705 10.0985 58.7459 8.91237 58.7459 7.65261V5.4194H57.8133H56.8726L56.848 7.64443C56.8235 9.77947 56.8153 9.89399 56.6354 10.2212C56.3736 10.712 55.9319 10.9247 55.2693 10.8838C54.6803 10.8511 54.3449 10.6466 54.1158 10.1885C53.9768 9.91035 53.9604 9.63223 53.9359 7.64443L53.9113 5.4194H52.9706H52.0381V7.65261Z" fill="white"/>
<path fill-rule="evenodd" clip-rule="evenodd" d="M6.21485 3.37939C6.01757 4.76799 5.85988 5.93709 5.57577 7.75776C6.34336 7.74109 8.08554 8.04674 8.46899 5.5585C8.78644 3.48845 7.37144 3.29672 6.21485 3.37939Z" fill="white"/>
<path fill-rule="evenodd" clip-rule="evenodd" d="M12.8622 13.3901C13.1609 14.0549 12.8601 14.8954 12.237 15.2337C11.8793 15.4282 11.4708 15.6088 11.0631 15.7102C10.3899 15.871 9.70161 15.9604 9.00968 15.977C7.9031 15.977 6.79375 15.3434 6.31583 14.5724C6.19218 14.8384 5.74622 15.3733 4.96474 15.6248C4.47084 15.7845 3.87553 15.977 2.6328 15.9756C1.51927 15.9749 0.884365 15.4699 0.548849 15.0461C0.0139689 14.3723 -0.0645265 13.5165 0.039671 12.94L0.0452282 12.9122C0.465491 10.8039 1.03997 6.97083 1.30463 5.05012L1.30741 5.03137C1.37965 4.49857 1.45328 3.96578 1.49705 3.42951C1.51858 3.15929 1.53317 2.88768 1.53595 2.61677C1.53872 2.36044 1.51511 2.10481 1.51719 1.84848C1.51997 1.60675 1.55887 1.36223 1.6721 1.14828C1.85618 0.803037 2.19308 0.530734 2.54944 0.411949C2.94053 0.281355 3.34898 0.229257 3.75535 0.18202C4.17083 0.132233 4.58723 0.0905463 5.00433 0.0569834C5.51289 0.0196098 6.02263 0.000610376 6.53256 2.21866e-05C7.40504 -0.000672463 8.28308 0.0139152 9.14305 0.191051C10.019 0.37166 10.904 0.7169 11.5952 1.32194C12.0689 1.73665 12.4447 2.25972 12.7274 2.83211C12.9747 3.33642 13.0755 3.86714 13.1352 4.27281C13.2415 5.00089 13.2135 5.74228 13.0525 6.46026C12.9254 6.98375 12.711 7.48207 12.4183 7.93431C12.0891 8.44557 11.6667 8.9096 11.1284 9.35139C11.4562 10.3031 12.3107 12.1619 12.8622 13.3901ZM3.06348 1.94504C3.08432 2.29792 3.0871 2.65358 3.07182 3.00785C3.05653 3.36977 3.02527 3.73029 2.98499 4.09012C2.94539 4.44856 2.89746 4.80561 2.84883 5.16266L2.83286 5.27936C2.68003 6.39566 2.51888 7.51057 2.35008 8.6234C2.17225 9.79319 1.97288 10.9567 1.77352 12.1217C1.68113 12.6649 1.47343 13.3609 1.75754 13.8791C2.01039 14.3418 2.65919 14.398 3.11141 14.3515C4.75843 14.1834 5.02031 13.8173 5.02031 13.8173C4.69174 13.4533 4.97724 11.7945 5.30789 9.56465H6.47838L7.70374 13.2706C7.70374 13.2706 8.06496 14.4189 9.06873 14.3633C10.3545 14.2924 11.3006 13.9986 11.4368 13.8354C11.0408 13.6145 9.90856 10.7831 9.29171 8.70398C9.59041 8.52198 9.88008 8.32401 10.1531 8.10241C10.5261 7.79816 10.872 7.44736 11.1367 7.03543C11.327 6.73951 11.4722 6.41372 11.5556 6.06778C11.5993 5.88509 11.6236 5.69406 11.6389 5.5072C11.6667 5.17794 11.6563 4.84451 11.6084 4.51802C11.5625 4.20404 11.4937 3.85463 11.3534 3.57122C11.0929 3.0412 10.7241 2.57856 10.2211 2.28264C9.37229 1.78388 8.39422 1.68871 7.44047 1.63662C6.40609 1.5791 5.36865 1.61304 4.34025 1.73804C4.22493 1.75193 3.05862 1.85474 3.06348 1.94504Z" fill="white"/>
</svg>
