<svg width="304" height="304" viewBox="0 0 304 304" fill="none" xmlns="http://www.w3.org/2000/svg">
<rect width="304" height="304" rx="5" fill="#28362C"/>
<path d="M38.1202 287.102C38.1202 288.162 37.9275 289.222 37.5421 290.185C37.3494 290.667 36.8677 290.86 36.386 290.667C35.9042 290.474 35.7115 289.993 35.9042 289.511C36.5787 287.873 36.4823 285.946 35.7115 284.308C34.9408 282.574 33.3992 281.129 31.5686 280.454C30.2197 279.973 28.6782 280.069 27.3293 280.647C25.9805 281.321 25.017 282.381 24.5352 283.73C23.7645 285.946 24.9206 288.355 27.1366 289.126C27.9074 289.415 28.7745 289.415 29.5453 289.029C30.3161 288.644 30.8942 287.969 31.1832 287.199C31.665 285.946 30.9905 284.597 29.738 284.116C29.2563 283.923 28.8709 284.019 28.3891 284.212C28.0038 284.405 27.6184 284.79 27.522 285.175C27.3293 285.753 26.8476 285.946 26.3658 285.753C25.8841 285.561 25.6914 285.079 25.7878 284.597C26.4622 282.767 28.4855 281.803 30.2197 282.478C32.3394 283.248 33.4956 285.657 32.7248 287.777C32.243 289.029 31.3759 289.993 30.2197 290.571C29.0636 291.149 27.7147 291.245 26.4622 290.764C23.3791 289.607 21.7412 286.235 22.801 283.152C23.4754 281.321 24.8243 279.876 26.5585 279.009C28.2928 278.142 30.3161 278.046 32.1467 278.72C34.459 279.491 36.2896 281.225 37.3495 283.441C37.8312 284.694 38.1202 285.946 38.1202 287.102Z" fill="#575869"/>
<path d="M26.5586 275.252C26.5586 278.238 24.728 281.032 21.7412 282.092C18.6581 283.248 15.1896 281.611 14.1298 278.431C13.1663 275.83 14.5152 273.036 17.1166 272.072C18.1764 271.687 19.3325 271.783 20.296 272.265C21.2595 272.747 22.0303 273.614 22.4157 274.577C23.0901 276.408 22.1266 278.431 20.296 279.009C19.8143 279.202 19.3325 278.913 19.1399 278.431C18.9472 277.949 19.2362 277.468 19.7179 277.275C20.5851 276.986 21.0668 275.926 20.7778 275.059C20.5851 274.481 20.1033 273.999 19.5252 273.71C18.9472 273.421 18.2727 273.421 17.6946 273.614C16.0567 274.192 15.1896 276.022 15.7677 277.757C16.5385 279.973 18.9472 281.129 21.1631 280.358C24.0536 279.298 25.4988 276.215 24.5353 273.325C23.8609 271.494 22.512 269.953 20.6814 269.182C18.9472 268.411 17.1166 268.315 15.4787 268.989C14.9969 269.182 14.5152 268.989 14.3225 268.507C14.1298 268.026 14.3225 267.544 14.8042 267.351C16.9239 266.484 19.2362 266.58 21.4522 267.544C23.6682 268.507 25.4024 270.434 26.1732 272.747C26.4623 273.614 26.5586 274.481 26.5586 275.252Z" fill="#575869"/>
<path d="M44.4791 274.866C44.4791 276.89 43.2266 278.816 41.2033 279.587C40.1435 279.973 38.9873 279.876 38.0239 279.395C37.0604 278.913 36.2896 278.046 35.9042 277.082C35.6152 276.215 35.6152 275.252 36.0006 274.384C36.386 273.517 37.0604 272.939 38.0239 272.554C38.5056 272.361 38.9873 272.65 39.18 273.132C39.3727 273.614 39.0837 274.095 38.6019 274.288C38.1202 274.481 37.8312 274.77 37.6385 275.155C37.4458 275.541 37.4458 276.022 37.5421 276.504C37.7348 277.082 38.2166 277.564 38.7946 277.853C39.2764 278.046 39.9508 278.046 40.5289 277.853C42.1668 277.275 43.0339 275.444 42.4558 273.71C41.6851 271.494 39.2764 270.338 37.0604 271.109C34.17 272.168 32.7248 275.252 33.6882 278.142C34.6517 280.84 37.1567 282.863 39.9508 282.959C40.4325 282.959 40.8179 283.441 40.8179 283.923C40.8179 284.405 40.3362 284.79 39.8545 284.79C36.386 284.597 33.2065 282.189 31.954 278.816C30.6051 275.059 32.6284 270.916 36.386 269.567C39.4691 268.411 42.9376 270.049 43.9974 273.228C44.3828 273.71 44.4791 274.288 44.4791 274.866Z" fill="#575869"/>
<path d="M35.808 266.484C35.808 267.158 35.7116 267.833 35.4226 268.507C34.0737 272.265 29.9308 274.288 26.1732 272.939C22.8974 271.783 20.4887 268.7 20.1997 265.231C20.1997 264.75 20.4888 264.364 20.9705 264.268C21.4522 264.268 21.8376 264.557 21.934 265.039C22.1267 267.736 24.0536 270.241 26.7513 271.205C29.6418 272.265 32.7249 270.723 33.7847 267.833C34.5555 265.617 33.3993 263.208 31.1833 262.437C30.4125 262.148 29.5454 262.148 28.7746 262.534C28.0038 262.919 27.4258 263.594 27.1367 264.364C26.655 265.617 27.3294 266.966 28.5819 267.447C29.4491 267.736 30.5089 267.255 30.7979 266.388C30.9906 265.906 31.4724 265.713 31.9541 265.81C32.4358 266.002 32.6285 266.484 32.5322 266.966C31.8577 268.796 29.8344 269.76 28.1002 269.085C25.9806 268.315 24.8244 265.906 25.5952 263.786C26.5586 261.185 29.3527 259.836 31.9541 260.799C34.2664 261.667 35.808 263.979 35.808 266.484Z" fill="#575869"/>
<path d="M40.1436 283.056L40.1436 284.79L94.3871 284.79L94.3871 283.056L40.1436 283.056Z" fill="#575869"/>
<path d="M60.9548 283.923C60.184 286.235 49.3931 289.222 54.3068 283.923C49.3931 278.624 60.184 281.514 60.9548 283.923Z" fill="#575869"/>
<path d="M47.2734 283.923C47.2734 285.175 48.3333 286.139 49.4894 286.139C50.7419 286.139 51.7054 285.079 51.7054 283.923C51.7054 282.767 50.6456 281.707 49.4894 281.707C48.3333 281.611 47.2734 282.67 47.2734 283.923Z" fill="#575869"/>
<path d="M86.8724 280.936C93.5204 282.863 103.637 283.923 103.637 283.923C103.637 283.923 94.0021 284.694 86.8724 286.813C84.6565 287.488 84.6565 280.358 86.8724 280.936Z" fill="#575869"/>
<path d="M20.1997 208.579L20.1997 265.135L21.934 265.135L21.934 208.579L20.1997 208.579Z" fill="#575869"/>
<path d="M21.0668 243.842C18.7544 244.613 15.7677 255.404 21.0668 250.49C26.3659 255.404 23.4755 244.613 21.0668 243.842Z" fill="#575869"/>
<path d="M21.0671 257.524C19.8145 257.524 18.8511 256.464 18.8511 255.308C18.8511 254.055 19.9109 253.092 21.0671 253.092C22.3196 253.092 23.2831 254.151 23.2831 255.308C23.3794 256.464 22.3196 257.524 21.0671 257.524Z" fill="#575869"/>
<path d="M24.0536 216.094C22.1266 209.446 21.0668 199.33 21.0668 199.33C21.0668 199.33 20.296 208.965 18.1764 216.094C17.502 218.31 24.6317 218.31 24.0536 216.094Z" fill="#575869"/>
<path d="M16.057 223.031L16.057 268.315C16.057 268.796 15.6716 269.182 15.1899 269.182C14.7081 269.182 14.3228 268.796 14.3228 268.315L14.3228 223.031C14.3228 222.55 14.7081 222.164 15.1899 222.164C15.6716 222.068 16.057 222.55 16.057 223.031Z" fill="#575869"/>
<path d="M82.8251 289.896C82.8251 290.378 82.4398 290.763 81.958 290.763L36.6747 290.763C36.193 290.763 35.8076 290.378 35.8076 289.896C35.8076 289.415 36.193 289.029 36.6747 289.029L81.958 289.029C82.4398 288.933 82.8251 289.415 82.8251 289.896Z" fill="#575869"/>
<path d="M17.788 38.1201C16.7282 38.1201 15.6684 37.9274 14.7049 37.542C14.2232 37.3493 14.0305 36.8676 14.2232 36.3859C14.4158 35.9041 14.8976 35.7114 15.3793 35.9041C17.0172 36.5785 18.9442 36.4822 20.5821 35.7114C22.3163 34.9406 23.7615 33.3991 24.436 31.5685C24.9177 30.2196 24.8214 28.6781 24.2433 27.3292C23.5688 25.9803 22.509 25.0169 21.1602 24.5351C18.9442 23.7643 16.5355 24.9205 15.7647 27.1365C15.4757 27.9073 15.4757 28.7744 15.8611 29.5452C16.2464 30.316 16.9209 30.894 17.6917 31.1831C18.9442 31.6648 20.293 30.9904 20.7748 29.7379C20.9675 29.2561 20.8711 28.8708 20.6784 28.389C20.4857 28.0036 20.1003 27.6182 19.715 27.5219C19.1369 27.3292 18.9442 26.8475 19.1369 26.3657C19.3296 25.884 19.8113 25.6913 20.293 25.7876C22.1236 26.4621 23.0871 28.4854 22.4127 30.2196C21.6419 32.3393 19.2332 33.4954 17.1136 32.7247C15.8611 32.2429 14.8976 31.3758 14.3195 30.2196C13.7414 29.0634 13.6451 27.7146 14.1268 26.4621C15.283 23.379 18.6551 21.741 21.7382 22.8009C23.5688 23.4753 25.0141 24.8242 25.8812 26.5584C26.7483 28.2927 26.8447 30.316 26.1702 32.1466C25.3994 34.4589 23.6652 36.2895 21.4492 37.3493C20.1967 37.8311 18.9442 38.1201 17.788 38.1201Z" fill="#575869"/>
<path d="M29.6387 26.5584C26.6519 26.5584 23.8578 24.7278 22.798 21.741C21.6418 18.6579 23.2797 15.1894 26.4592 14.1296C29.0606 13.1661 31.8547 14.515 32.8181 17.1164C33.2035 18.1762 33.1072 19.3324 32.6254 20.2958C32.1437 21.2593 31.2766 22.0301 30.3131 22.4155C28.4825 23.0899 26.4592 22.1264 25.8811 20.2958C25.6884 19.8141 25.9775 19.3324 26.4592 19.1397C26.9409 18.947 27.4227 19.236 27.6154 19.7178C27.9044 20.5849 28.9642 21.0666 29.8314 20.7776C30.4094 20.5849 30.8912 20.1031 31.1802 19.5251C31.4693 18.947 31.4693 18.2725 31.2766 17.6945C30.6985 16.0566 28.8679 15.1894 27.1336 15.7675C24.9176 16.5383 23.7615 18.947 24.5323 21.163C25.5921 24.0534 28.6752 25.4986 31.5656 24.5351C33.3962 23.8607 34.9378 22.5118 35.7086 20.6812C36.4793 18.947 36.5757 17.1164 35.9012 15.4785C35.7086 14.9967 35.9012 14.515 36.383 14.3223C36.8647 14.1296 37.3465 14.3223 37.5392 14.804C38.4063 16.9237 38.3099 19.236 37.3465 21.452C36.383 23.668 34.456 25.4022 32.1437 26.173C31.2766 26.4621 30.4094 26.5584 29.6387 26.5584Z" fill="#575869"/>
<path d="M30.0239 44.479C28.0006 44.479 26.0736 43.2265 25.3029 41.2032C24.9175 40.1434 25.0138 38.9872 25.4956 38.0237C25.9773 37.0603 26.8444 36.2895 27.8079 35.9041C28.675 35.6151 29.6385 35.6151 30.5056 36.0004C31.3727 36.3858 31.9508 37.0603 32.3362 38.0237C32.5289 38.5055 32.2399 38.9872 31.7581 39.1799C31.2764 39.3726 30.7947 39.0836 30.602 38.6018C30.4093 38.1201 30.1202 37.831 29.7348 37.6384C29.3494 37.4457 28.8677 37.4457 28.386 37.542C27.8079 37.7347 27.3262 38.2164 27.0371 38.7945C26.8444 39.2763 26.8444 39.9507 27.0371 40.5288C27.6152 42.1667 29.4458 43.0338 31.18 42.4557C33.396 41.6849 34.5522 39.2763 33.7814 37.0603C32.7216 34.1698 29.6385 32.7246 26.7481 33.6881C24.0503 34.6516 22.027 37.1566 21.9307 39.9507C21.9307 40.4324 21.449 40.8178 20.9672 40.8178C20.4855 40.8178 20.1001 40.3361 20.1001 39.8543C20.2928 36.3858 22.7015 33.2064 26.0736 31.9539C29.8312 30.605 33.9741 32.6283 35.323 36.3858C36.4792 39.469 34.8412 42.9375 31.6618 43.9973C31.18 44.3827 30.602 44.479 30.0239 44.479Z" fill="#575869"/>
<path d="M38.4063 35.8079C37.7319 35.8079 37.0575 35.7115 36.383 35.4225C32.6255 34.0736 30.6022 29.9307 31.951 26.1731C33.1072 22.8973 36.1903 20.4886 39.6588 20.1996C40.1406 20.1996 40.526 20.4886 40.6223 20.9704C40.6223 21.4521 40.3333 21.8375 39.8515 21.9338C37.1538 22.1265 34.6488 24.0535 33.6853 26.7512C32.6255 29.6416 34.167 32.7247 37.0575 33.7846C39.2734 34.5553 41.6821 33.3992 42.4529 31.1832C42.742 30.4124 42.742 29.5453 42.3566 28.7745C41.9712 28.0037 41.2967 27.4256 40.526 27.1366C39.2735 26.6549 37.9246 27.3293 37.4428 28.5818C37.1538 29.4489 37.6355 30.5088 38.5027 30.7978C38.9844 30.9905 39.1771 31.4722 39.0808 31.954C38.8881 32.4357 38.4063 32.6284 37.9246 32.5321C36.094 31.8576 35.1305 29.8343 35.8049 28.1001C36.5757 25.9804 38.9844 24.8243 41.104 25.595C43.7054 26.5585 45.0543 29.3526 44.0908 31.954C43.2237 34.2663 40.9114 35.8079 38.4063 35.8079Z" fill="#575869"/>
<path d="M21.8344 40.1434H20.1001L20.1001 94.3869H21.8344L21.8344 40.1434Z" fill="#575869"/>
<path d="M20.9676 60.9544C18.6553 60.1837 15.6685 49.3928 20.9676 54.3065C26.2668 49.3928 23.3763 60.1837 20.9676 60.9544Z" fill="#575869"/>
<path d="M20.9675 47.2732C19.7149 47.2732 18.7515 48.333 18.7515 49.4892C18.7515 50.7417 19.8113 51.7052 20.9675 51.7052C22.1236 51.7052 23.1834 50.6454 23.1834 49.4892C23.2798 48.333 22.22 47.2732 20.9675 47.2732Z" fill="#575869"/>
<path d="M23.954 86.872C22.027 93.5199 20.9672 103.636 20.9672 103.636C20.9672 103.636 20.1964 94.0017 18.0768 86.872C17.4024 84.656 24.5321 84.656 23.954 86.872Z" fill="#575869"/>
<path d="M96.3113 20.1996L39.7554 20.1996V21.9338L96.3113 21.9338V20.1996Z" fill="#575869"/>
<path d="M61.0481 21.0666C60.2773 18.7542 49.4864 15.7675 54.4001 21.0666C49.4864 26.3657 60.2773 23.4753 61.0481 21.0666Z" fill="#575869"/>
<path d="M47.3667 21.0666C47.3667 19.8141 48.4265 18.8506 49.5827 18.8506C50.8352 18.8506 51.7987 19.9105 51.7987 21.0666C51.7987 22.3192 50.7388 23.2826 49.5827 23.2826C48.4265 23.379 47.3667 22.3192 47.3667 21.0666Z" fill="#575869"/>
<path d="M88.7958 24.0535C95.4438 22.1265 105.56 21.0667 105.56 21.0667C105.56 21.0667 95.9255 20.2959 88.7958 18.1763C86.5798 17.5018 86.5798 24.6316 88.7958 24.0535Z" fill="#575869"/>
<path d="M81.8589 16.0566L36.5756 16.0566C36.0939 16.0566 35.7085 15.6713 35.7085 15.1895C35.7085 14.7078 36.0939 14.3224 36.5756 14.3224L81.8589 14.3224C82.3406 14.3224 82.726 14.7078 82.726 15.1895C82.8224 15.6713 82.3406 16.0566 81.8589 16.0566Z" fill="#575869"/>
<path d="M14.9936 82.8253C14.5119 82.8253 14.1265 82.4399 14.1265 81.9581L14.1265 36.6749C14.1265 36.1931 14.5119 35.8077 14.9936 35.8077C15.4753 35.8077 15.8607 36.1931 15.8607 36.6749L15.8607 81.9581C15.9571 82.4399 15.4753 82.8253 14.9936 82.8253Z" fill="#575869"/>
<path d="M266.422 17.7878C266.422 16.728 266.615 15.6682 267 14.7047C267.193 14.223 267.675 14.0303 268.156 14.223C268.638 14.4157 268.831 14.8974 268.638 15.3791C267.964 17.017 268.06 18.944 268.831 20.5819C269.602 22.3162 271.143 23.7614 272.974 24.4358C274.323 24.9175 275.864 24.8212 277.213 24.2431C278.562 23.5687 279.525 22.5088 280.007 21.16C280.778 18.944 279.622 16.5353 277.406 15.7645C276.635 15.4755 275.768 15.4755 274.997 15.8609C274.226 16.2463 273.648 16.9207 273.359 17.6915C272.878 18.944 273.552 20.2929 274.804 20.7746C275.286 20.9673 275.672 20.8709 276.153 20.6782C276.539 20.4856 276.924 20.1002 277.02 19.7148C277.213 19.1367 277.695 18.944 278.177 19.1367C278.658 19.3294 278.851 19.8111 278.755 20.2929C278.08 22.1235 276.057 23.0869 274.323 22.4125C272.203 21.6417 271.047 19.233 271.818 17.1134C272.299 15.8609 273.167 14.8974 274.323 14.3193C275.479 13.7412 276.828 13.6449 278.08 14.1266C281.163 15.2828 282.801 18.6549 281.741 21.7381C281.067 23.5687 279.718 25.0139 277.984 25.881C276.25 26.7481 274.226 26.8445 272.396 26.17C270.083 25.3993 268.253 23.665 267.193 21.449C266.711 20.1965 266.422 18.944 266.422 17.7878Z" fill="#575869"/>
<path d="M277.984 29.6385C277.984 26.6517 279.814 23.8576 282.801 22.7978C285.884 21.6416 289.353 23.2796 290.413 26.459C291.376 29.0604 290.027 31.8545 287.426 32.8179C286.366 33.2033 285.21 33.107 284.246 32.6253C283.283 32.1435 282.512 31.2764 282.127 30.3129C281.452 28.4823 282.416 26.459 284.246 25.8809C284.728 25.6882 285.21 25.9773 285.403 26.459C285.595 26.9408 285.306 27.4225 284.825 27.6152C283.957 27.9042 283.476 28.9641 283.765 29.8312C283.957 30.4093 284.439 30.891 285.017 31.18C285.595 31.4691 286.27 31.4691 286.848 31.2764C288.486 30.6983 289.353 28.8677 288.775 27.1334C288.004 24.9175 285.595 23.7613 283.379 24.5321C280.489 25.5919 279.044 28.675 280.007 31.5654C280.682 33.396 282.03 34.9376 283.861 35.7084C285.595 36.4791 287.426 36.5755 289.064 35.9011C289.546 35.7084 290.027 35.9011 290.22 36.3828C290.413 36.8645 290.22 37.3463 289.738 37.539C287.619 38.4061 285.306 38.3097 283.09 37.3463C280.874 36.3828 279.14 34.4559 278.369 32.1435C278.08 31.2764 277.984 30.4093 277.984 29.6385Z" fill="#575869"/>
<path d="M260.063 30.0239C260.063 28.0006 261.316 26.0737 263.339 25.3029C264.399 24.9175 265.555 25.0139 266.519 25.4956C267.482 25.9773 268.253 26.8445 268.638 27.8079C268.927 28.6751 268.927 29.6385 268.542 30.5057C268.157 31.3728 267.482 31.9509 266.519 32.3363C266.037 32.529 265.555 32.2399 265.362 31.7582C265.17 31.2765 265.459 30.7947 265.941 30.602C266.422 30.4093 266.711 30.1203 266.904 29.7349C267.097 29.3495 267.097 28.8678 267 28.386C266.808 27.8079 266.326 27.3262 265.748 27.0372C265.266 26.8445 264.592 26.8445 264.014 27.0372C262.376 27.6153 261.509 29.4459 262.087 31.1801C262.857 33.3961 265.266 34.5523 267.482 33.7815C270.373 32.7217 271.818 29.6385 270.854 26.7481C269.891 24.0504 267.386 22.0271 264.592 21.9308C264.11 21.9308 263.725 21.449 263.725 20.9673C263.725 20.4855 264.206 20.1002 264.688 20.1002C268.157 20.2929 271.336 22.7015 272.589 26.0737C273.937 29.8312 271.914 33.9742 268.157 35.323C265.073 36.4792 261.605 34.8413 260.545 31.6618C260.16 31.1801 260.063 30.602 260.063 30.0239Z" fill="#575869"/>
<path d="M268.734 38.4062C268.734 37.7318 268.831 37.0573 269.12 36.3829C270.469 32.6254 274.612 30.6021 278.369 31.9509C281.645 33.1071 284.054 36.1902 284.343 39.6587C284.343 40.1405 284.054 40.5258 283.572 40.6222C283.09 40.6222 282.705 40.3331 282.609 39.8514C282.416 37.1537 280.489 34.6487 277.791 33.6852C274.901 32.6254 271.818 34.1669 270.758 37.0573C269.987 39.2733 271.143 41.682 273.359 42.4528C274.13 42.7418 274.997 42.7418 275.768 42.3564C276.539 41.971 277.117 41.2966 277.406 40.5258C277.887 39.2733 277.213 37.9245 275.961 37.4427C275.093 37.1537 274.034 37.6354 273.745 38.5025C273.552 38.9843 273.07 39.177 272.588 39.0806C272.107 38.8879 271.914 38.4062 272.01 37.9245C272.685 36.0939 274.708 35.1304 276.442 35.8048C278.562 36.5756 279.718 38.9843 278.947 41.1039C277.984 43.7053 275.19 45.0542 272.588 44.0907C270.276 43.2236 268.734 40.9112 268.734 38.4062Z" fill="#575869"/>
<path d="M264.399 21.8344L264.399 20.1002L210.155 20.1002L210.155 21.8344L264.399 21.8344Z" fill="#575869"/>
<path d="M243.588 20.9673C244.358 18.6549 255.149 15.6682 250.236 20.9673C255.149 26.2664 244.358 23.376 243.588 20.9673Z" fill="#575869"/>
<path d="M257.269 20.9672C257.269 19.7147 256.209 18.7512 255.053 18.7512C253.801 18.7512 252.837 19.811 252.837 20.9672C252.837 22.1234 253.897 23.1832 255.053 23.1832C256.209 23.2795 257.269 22.2197 257.269 20.9672Z" fill="#575869"/>
<path d="M217.67 23.954C211.022 22.0271 200.906 20.9673 200.906 20.9673C200.906 20.9673 210.54 20.1965 217.67 18.0769C219.886 17.4024 219.886 24.5321 217.67 23.954Z" fill="#575869"/>
<path d="M284.343 96.3109L284.343 39.755L282.609 39.755L282.609 96.3109L284.343 96.3109Z" fill="#575869"/>
<path d="M283.476 61.0478C285.788 60.277 288.775 49.4861 283.476 54.3998C278.177 49.4861 281.067 60.277 283.476 61.0478Z" fill="#575869"/>
<path d="M283.475 47.3665C284.728 47.3665 285.691 48.4263 285.691 49.5824C285.691 50.835 284.632 51.7984 283.475 51.7984C282.223 51.7984 281.259 50.7386 281.259 49.5824C281.163 48.4263 282.223 47.3665 283.475 47.3665Z" fill="#575869"/>
<path d="M280.489 88.7957C282.416 95.4437 283.476 105.56 283.476 105.56C283.476 105.56 284.246 95.9254 286.366 88.7957C287.041 86.5797 279.911 86.5797 280.489 88.7957Z" fill="#575869"/>
<path d="M288.485 81.8588L288.485 36.5756C288.485 36.0938 288.871 35.7084 289.353 35.7084C289.834 35.7084 290.22 36.0938 290.22 36.5756L290.22 81.8588C290.22 82.3406 289.834 82.726 289.353 82.726C288.871 82.8223 288.485 82.3406 288.485 81.8588Z" fill="#575869"/>
<path d="M221.717 14.9937C221.717 14.512 222.102 14.1266 222.584 14.1266L267.867 14.1266C268.349 14.1266 268.734 14.512 268.734 14.9937C268.734 15.4755 268.349 15.8608 267.867 15.8608L222.584 15.8608C222.102 15.9572 221.717 15.4754 221.717 14.9937Z" fill="#575869"/>
<path d="M286.212 265.88C287.272 265.88 288.332 266.073 289.296 266.458C289.777 266.651 289.97 267.132 289.777 267.614C289.585 268.096 289.103 268.289 288.621 268.096C286.983 267.421 285.056 267.518 283.418 268.289C281.684 269.059 280.239 270.601 279.564 272.431C279.083 273.78 279.179 275.322 279.757 276.671C280.432 278.02 281.491 278.983 282.84 279.465C285.056 280.236 287.465 279.079 288.236 276.863C288.525 276.093 288.525 275.226 288.139 274.455C287.754 273.684 287.08 273.106 286.309 272.817C285.056 272.335 283.707 273.01 283.226 274.262C283.033 274.744 283.129 275.129 283.322 275.611C283.515 275.996 283.9 276.382 284.286 276.478C284.864 276.671 285.056 277.153 284.864 277.634C284.671 278.116 284.189 278.309 283.707 278.212C281.877 277.538 280.913 275.515 281.588 273.78C282.359 271.661 284.767 270.505 286.887 271.275C288.139 271.757 289.103 272.624 289.681 273.78C290.259 274.937 290.355 276.285 289.874 277.538C288.718 280.621 285.345 282.259 282.262 281.199C280.432 280.525 278.986 279.176 278.119 277.442C277.252 275.707 277.156 273.684 277.83 271.853C278.601 269.541 280.335 267.71 282.551 266.651C283.804 266.169 285.056 265.88 286.212 265.88Z" fill="#575869"/>
<path d="M274.362 277.442C277.349 277.442 280.143 279.272 281.202 282.259C282.359 285.342 280.721 288.811 277.541 289.87C274.94 290.834 272.146 289.485 271.182 286.884C270.797 285.824 270.893 284.668 271.375 283.704C271.857 282.741 272.724 281.97 273.687 281.585C275.518 280.91 277.541 281.874 278.119 283.704C278.312 284.186 278.023 284.668 277.541 284.86C277.06 285.053 276.578 284.764 276.385 284.282C276.096 283.415 275.036 282.933 274.169 283.222C273.591 283.415 273.109 283.897 272.82 284.475C272.531 285.053 272.531 285.727 272.724 286.306C273.302 287.943 275.133 288.811 276.867 288.232C279.083 287.462 280.239 285.053 279.468 282.837C278.408 279.947 275.325 278.501 272.435 279.465C270.604 280.139 269.063 281.488 268.292 283.319C267.521 285.053 267.425 286.884 268.099 288.522C268.292 289.003 268.099 289.485 267.618 289.678C267.136 289.87 266.654 289.678 266.461 289.196C265.594 287.076 265.691 284.764 266.654 282.548C267.618 280.332 269.544 278.598 271.857 277.827C272.724 277.538 273.591 277.442 274.362 277.442Z" fill="#575869"/>
<path d="M273.977 259.521C276 259.521 277.927 260.773 278.698 262.797C279.083 263.857 278.987 265.013 278.505 265.976C278.023 266.94 277.156 267.711 276.193 268.096C275.325 268.385 274.362 268.385 273.495 268C272.628 267.614 272.05 266.94 271.664 265.976C271.472 265.495 271.761 265.013 272.242 264.82C272.724 264.627 273.206 264.916 273.399 265.398C273.591 265.88 273.88 266.169 274.266 266.362C274.651 266.554 275.133 266.554 275.615 266.458C276.193 266.265 276.674 265.784 276.963 265.205C277.156 264.724 277.156 264.049 276.963 263.471C276.385 261.833 274.555 260.966 272.82 261.544C270.604 262.315 269.448 264.724 270.219 266.94C271.279 269.83 274.362 271.275 277.252 270.312C279.95 269.348 281.973 266.843 282.07 264.049C282.07 263.568 282.552 263.182 283.033 263.182C283.515 263.182 283.9 263.664 283.9 264.146C283.708 267.614 281.299 270.794 277.927 272.046C274.169 273.395 270.026 271.372 268.678 267.614C267.521 264.531 269.159 261.063 272.339 260.003C272.82 259.617 273.399 259.521 273.977 259.521Z" fill="#575869"/>
<path d="M265.594 268.192C266.269 268.192 266.943 268.288 267.617 268.578C271.375 269.926 273.398 274.069 272.049 277.827C270.893 281.103 267.81 283.511 264.342 283.8C263.86 283.8 263.475 283.511 263.378 283.03C263.378 282.548 263.667 282.163 264.149 282.066C266.847 281.873 269.352 279.947 270.315 277.249C271.375 274.358 269.833 271.275 266.943 270.215C264.727 269.445 262.318 270.601 261.548 272.817C261.259 273.588 261.259 274.455 261.644 275.225C262.029 275.996 262.704 276.574 263.475 276.863C264.727 277.345 266.076 276.671 266.558 275.418C266.847 274.551 266.365 273.491 265.498 273.202C265.016 273.01 264.823 272.528 264.92 272.046C265.112 271.564 265.594 271.372 266.076 271.468C267.907 272.142 268.87 274.166 268.196 275.9C267.425 278.02 265.016 279.176 262.896 278.405C260.295 277.441 258.946 274.647 259.91 272.046C260.777 269.734 263.089 268.192 265.594 268.192Z" fill="#575869"/>
<path d="M282.166 263.857L283.9 263.857L283.9 209.613L282.166 209.613L282.166 263.857Z" fill="#575869"/>
<path d="M283.033 243.046C285.345 243.816 288.332 254.607 283.033 249.694C277.734 254.607 280.624 243.816 283.033 243.046Z" fill="#575869"/>
<path d="M283.033 256.727C284.286 256.727 285.249 255.667 285.249 254.511C285.249 253.258 284.189 252.295 283.033 252.295C281.877 252.295 280.817 253.355 280.817 254.511C280.721 255.667 281.781 256.727 283.033 256.727Z" fill="#575869"/>
<path d="M280.046 217.128C281.973 210.48 283.033 200.364 283.033 200.364C283.033 200.364 283.804 209.998 285.924 217.128C286.598 219.344 279.468 219.344 280.046 217.128Z" fill="#575869"/>
<path d="M207.689 283.8L264.245 283.8L264.245 282.066L207.689 282.066L207.689 283.8Z" fill="#575869"/>
<path d="M242.952 282.933C243.723 285.246 254.514 288.232 249.6 282.933C254.514 277.634 243.723 280.525 242.952 282.933Z" fill="#575869"/>
<path d="M256.634 282.933C256.634 284.186 255.574 285.149 254.418 285.149C253.165 285.149 252.202 284.09 252.202 282.933C252.202 281.681 253.262 280.717 254.418 280.717C255.574 280.621 256.634 281.681 256.634 282.933Z" fill="#575869"/>
<path d="M215.205 279.947C208.557 281.873 198.44 282.933 198.44 282.933C198.44 282.933 208.075 283.704 215.205 285.824C217.421 286.498 217.421 279.368 215.205 279.947Z" fill="#575869"/>
<path d="M222.142 287.943L267.425 287.943C267.907 287.943 268.292 288.329 268.292 288.81C268.292 289.292 267.907 289.678 267.425 289.678L222.142 289.678C221.66 289.678 221.274 289.292 221.274 288.81C221.178 288.329 221.66 287.943 222.142 287.943Z" fill="#575869"/>
<path d="M289.006 221.175C289.488 221.175 289.874 221.56 289.874 222.042L289.874 267.325C289.874 267.807 289.488 268.192 289.006 268.192C288.525 268.192 288.139 267.807 288.139 267.325L288.139 222.042C288.043 221.56 288.525 221.175 289.006 221.175Z" fill="#575869"/>
</svg>
