<svg width="16" height="13" viewBox="0 0 16 13" fill="none" xmlns="http://www.w3.org/2000/svg">
<path d="M8.65363 3.29282e-07C11.6963 5.9528e-07 14.5427 1.86486 15.6223 4.90753C16.8001 8.04834 15.1316 11.5818 11.8926 12.6614C9.24254 13.6429 6.39618 12.2688 5.41467 9.61875C5.02207 8.53909 5.12022 7.36129 5.61097 6.37978C6.10173 5.39828 6.98508 4.61307 7.96658 4.22047C9.83144 3.53342 11.8926 4.51492 12.4815 6.37978C12.6778 6.87054 12.3833 7.36129 11.8926 7.55759C11.4018 7.75389 10.9111 7.45944 10.7148 6.96869C10.4203 6.08533 9.34069 5.59458 8.45733 5.88903C7.86843 6.08533 7.37768 6.57608 7.08323 7.16499C6.78878 7.75389 6.78878 8.44094 6.98508 9.02985C7.57398 10.6984 9.43884 11.5818 11.2055 10.9929C13.463 10.2077 14.6408 7.75389 13.8556 5.49643C12.7759 2.55191 9.63514 1.07966 6.69063 2.06116C4.82577 2.74821 3.25537 4.12232 2.47016 5.98718C1.68496 7.75389 1.58681 9.61875 2.27386 11.2873C2.47016 11.7781 2.27386 12.2688 1.78311 12.4651C1.29236 12.6614 0.801607 12.4651 0.605306 11.9744C-0.278046 9.81505 -0.179894 7.45944 0.801609 5.20198C1.78311 2.94452 3.74612 1.17781 6.10173 0.392602C6.98508 0.0981502 7.86843 2.60637e-07 8.65363 3.29282e-07Z" fill="#575869"/>
</svg>
