<svg width="16" height="13" viewBox="0 0 16 13" fill="none" xmlns="http://www.w3.org/2000/svg">
<path d="M15.7659 6.05647C15.7659 6.73771 15.6686 7.41896 15.3767 8.1002C14.0142 11.8957 9.82938 13.9394 6.03388 12.5769C2.72498 11.4091 0.291962 8.29484 1.07644e-06 4.7913C1.14025e-06 4.30469 0.291963 3.91541 0.778566 3.81809C1.26517 3.81809 1.65445 4.11005 1.75177 4.59665C1.94641 7.32163 3.89283 9.85197 6.6178 10.8252C9.53742 11.8957 12.6517 10.3386 13.7222 7.41895C14.5008 5.18058 13.3329 2.74756 11.0946 1.969C10.316 1.67704 9.4401 1.67704 8.66154 2.06632C7.88297 2.4556 7.29905 3.13685 7.00709 3.91541C6.52048 5.18058 7.20173 6.54307 8.4669 7.02967C9.34278 7.32163 10.4133 6.83503 10.7053 5.95914C10.8999 5.47254 11.3865 5.2779 11.8731 5.37522C12.3597 5.56986 12.5544 6.05647 12.457 6.54307C11.7758 8.39216 9.73206 9.36537 7.98029 8.68412C5.83924 7.90556 4.67139 5.47254 5.44996 3.33149C6.42316 0.703831 9.24546 -0.65866 11.8731 0.314547C14.2088 1.19043 15.7659 3.52613 15.7659 6.05647Z" fill="#575869"/>
</svg>
