<svg width="34" height="16" viewBox="0 0 34 16" fill="none" xmlns="http://www.w3.org/2000/svg">
<path d="M10.1262 4.12486C9.99579 4.24442 9.86535 4.35855 9.74035 4.48355C9.28927 4.9129 8.94688 5.40746 8.82731 6.02702C8.66427 6.88572 8.83818 7.67376 9.35992 8.38027C9.62079 8.73353 9.93057 9.02701 10.3436 9.19549C10.3925 9.21723 10.4414 9.23353 10.5012 9.25527C10.4469 9.40201 10.398 9.54331 10.3436 9.68462C10.0067 10.4998 9.57187 11.2553 8.97405 11.9074C8.86535 12.027 8.73492 12.1411 8.60992 12.2444C8.17514 12.5977 7.68601 12.7335 7.13167 12.5705C6.85449 12.489 6.58275 12.402 6.31102 12.315C6.02841 12.2281 5.7458 12.1574 5.44689 12.152C5.07732 12.1411 4.74037 12.2553 4.39798 12.3803C4.13711 12.4781 3.88168 12.5759 3.61537 12.6357C3.1969 12.7335 2.81646 12.6085 2.46864 12.3694C2.11538 12.1303 1.83821 11.8205 1.59908 11.4781C0.995818 10.614 0.533863 9.68462 0.251256 8.66832C0.00125669 7.76615 -0.0693952 6.84767 0.0719086 5.91833C0.196908 5.09768 0.501255 4.35855 1.07734 3.74986C1.67516 3.11942 2.40886 2.85856 3.27298 2.94008C3.70233 2.98356 4.10994 3.10856 4.52298 3.22812C4.69689 3.27703 4.8708 3.31508 5.04472 3.35855C5.29472 3.42377 5.53928 3.39116 5.77841 3.32051C6.11536 3.22269 6.45232 3.10856 6.78927 3.01073C7.28927 2.86399 7.80014 2.82051 8.31644 2.91834C8.98492 3.04877 9.51753 3.40747 9.95774 3.9129C10.0121 3.97812 10.0664 4.0379 10.1208 4.10312C10.1208 4.10312 10.1208 4.11399 10.1262 4.12486Z" fill="white"/>
<path d="M7.6096 0C7.61504 0.146739 7.63678 0.288042 7.62591 0.423911C7.57156 1.16847 7.28352 1.80978 6.76721 2.34782C6.53352 2.59238 6.27808 2.80434 5.96287 2.92934C5.69113 3.03803 5.40852 3.05977 5.12048 3.08151C5.11505 3.08151 5.10961 3.07608 5.10418 3.07608C5.14765 1.4076 5.98461 0.33152 7.6096 0Z" fill="white"/>
<path d="M13.7025 1.97292C14.3655 1.86422 15.2351 1.7664 16.3437 1.7664C17.7024 1.7664 18.697 2.08161 19.3329 2.65226C19.9198 3.1577 20.2676 3.93487 20.2676 4.88052C20.2676 5.84247 19.985 6.60334 19.447 7.15768C18.7187 7.93485 17.534 8.32616 16.1916 8.32616C15.7785 8.32616 15.4035 8.30985 15.0829 8.23376V12.5001H13.7079V1.97292H13.7025ZM15.0774 7.1142C15.3764 7.19573 15.7568 7.2229 16.2133 7.2229C17.8709 7.2229 18.8872 6.41855 18.8872 4.94573C18.8872 3.53813 17.8927 2.85878 16.3709 2.85878C15.7677 2.85878 15.3111 2.9077 15.072 2.96748V7.1142H15.0774Z" fill="white"/>
<path d="M25.2245 12.5056L25.1158 11.5436H25.0669C24.6375 12.1469 23.8169 12.6795 22.7245 12.6795C21.1756 12.6795 20.3821 11.5871 20.3821 10.4839C20.3821 8.63604 22.0288 7.61973 24.9799 7.63604V7.47843C24.9799 6.848 24.806 5.7067 23.2408 5.7067C22.5288 5.7067 21.7843 5.92952 21.2462 6.27735L20.931 5.35887C21.5614 4.94583 22.4799 4.67953 23.4473 4.67953C25.7897 4.67953 26.3549 6.27735 26.3549 7.80995V10.6686C26.3549 11.3317 26.3875 11.9784 26.4799 12.5002H25.2245V12.5056ZM25.0234 8.59799C23.5071 8.56538 21.7843 8.83712 21.7843 10.3208C21.7843 11.223 22.3875 11.6469 23.094 11.6469C24.0886 11.6469 24.7245 11.0165 24.9419 10.3643C24.9908 10.223 25.0234 10.0654 25.0234 9.92407V8.59799Z" fill="white"/>
<path d="M28.2136 4.85328L29.8875 9.375C30.0614 9.88044 30.2516 10.4837 30.3766 10.9402H30.4092C30.5505 10.4837 30.7081 9.89674 30.8984 9.3424L32.4147 4.85328H33.8875L31.8005 10.3098C30.806 12.9348 30.1266 14.2772 29.1755 15.0978C28.4962 15.7011 27.8168 15.9348 27.469 16L27.1212 14.8315C27.469 14.7228 27.9255 14.5 28.3386 14.1522C28.719 13.8532 29.1918 13.3152 29.5071 12.6033C29.5723 12.4619 29.6158 12.3478 29.6158 12.2717C29.6158 12.1902 29.5831 12.0815 29.5234 11.9076L26.6973 4.85328H28.2136Z" fill="white"/>
</svg>
