<svg width="21" height="21" viewBox="0 0 21 21" fill="none" xmlns="http://www.w3.org/2000/svg">
<path d="M1.91602 9.4502C1.91602 13.1328 4.9043 16.1299 8.58691 16.1299C10.0107 16.1299 11.3203 15.6816 12.4014 14.917L16.4092 18.9248C16.6113 19.127 16.8838 19.2236 17.165 19.2236C17.7803 19.2236 18.2109 18.7666 18.2109 18.1689C18.2109 17.8789 18.1055 17.6152 17.9209 17.4219L13.9395 13.4229C14.7744 12.3154 15.2666 10.9443 15.2666 9.4502C15.2666 5.76758 12.2783 2.77051 8.58691 2.77051C4.9043 2.77051 1.91602 5.76758 1.91602 9.4502ZM3.44531 9.4502C3.44531 6.61133 5.74805 4.30859 8.58691 4.30859C11.4346 4.30859 13.7285 6.61133 13.7285 9.4502C13.7285 12.2891 11.4346 14.5918 8.58691 14.5918C5.74805 14.5918 3.44531 12.2891 3.44531 9.4502Z" fill="white"/>
</svg>
