<svg width="9" height="12" viewBox="0 0 9 12" fill="none" xmlns="http://www.w3.org/2000/svg">
<path d="M8.97649 4.82411C9.16371 3.56319 8.21066 2.8854 6.90743 2.43324L7.33021 0.725217L6.29798 0.466141L5.88642 2.1292C5.61505 2.06103 5.33637 1.99679 5.0594 1.93311L5.47394 0.259075L4.44236 0L4.01935 1.70747C3.79479 1.65597 3.57423 1.60507 3.36024 1.55144L3.36144 1.54607L1.93797 1.18802L1.66338 2.29852C1.66338 2.29852 2.42921 2.47534 2.41307 2.48623C2.83107 2.59131 2.90666 2.87002 2.8941 3.09094L2.41252 5.03678C2.4413 5.04414 2.47864 5.0548 2.51983 5.07147C2.4854 5.06285 2.44875 5.05345 2.41073 5.04428L1.73571 7.77013C1.68463 7.89805 1.55496 8.09002 1.26272 8.01712C1.27307 8.03222 0.512483 7.82853 0.512483 7.82853L0 9.01869L1.34328 9.35599C1.59317 9.41911 1.83806 9.48515 2.07922 9.54726L1.65207 11.2749L2.68311 11.534L3.10611 9.82467C3.38778 9.90169 3.66113 9.97274 3.92872 10.0397L3.50714 11.7409L4.53942 12L4.96652 10.2756C6.72669 10.6112 8.05019 10.4759 8.60728 8.87225C9.05617 7.58113 8.58493 6.83641 7.65891 6.35078C8.33338 6.1941 8.8414 5.74727 8.97686 4.82425L8.97653 4.82402L8.97649 4.82411ZM6.61808 8.15523C6.29908 9.44634 4.14092 8.7484 3.44121 8.57339L4.00804 6.28459C4.7077 6.46054 6.95148 6.80872 6.61813 8.15523H6.61808ZM6.93732 4.8054C6.64632 5.97981 4.85005 5.38316 4.26736 5.23685L4.78127 3.16105C5.36396 3.30736 7.24046 3.58042 6.93741 4.8054H6.93732Z" fill="white"/>
</svg>
