<svg width="24" height="24" viewBox="0 0 24 24" fill="none" xmlns="http://www.w3.org/2000/svg">
<g clip-path="url(#clip0_0_1722)">
<path d="M2.9682 23.8098C3.626 23.8098 4.29122 23.5922 4.84022 23.1421L11.9648 17.3381L19.1585 23.199C19.71 23.6466 20.3728 23.8667 21.0306 23.8667C21.8911 23.8667 22.7468 23.4933 23.3329 22.7737C24.369 21.5026 24.1762 19.633 22.9076 18.5993L13.8393 11.2102C12.7487 10.3199 11.1808 10.3199 10.0903 11.2102L1.09371 18.5425C-0.177386 19.5761 -0.367802 21.4457 0.665888 22.7168C1.25445 23.4364 2.10761 23.8098 2.9682 23.8098Z" fill="white"/>
<path d="M2.9682 13.4011C3.626 13.4011 4.29122 13.1835 4.84022 12.7334L11.9648 6.92944L19.1585 12.7903C19.71 13.2379 20.3728 13.458 21.0306 13.458C21.8911 13.458 22.7468 13.0846 23.3329 12.365C24.369 11.0939 24.1762 9.22433 22.9076 8.19064L13.8393 0.801484C12.7487 -0.0887759 11.1808 -0.0887759 10.0903 0.801484L1.09371 8.13129C-0.177386 9.16746 -0.367802 11.037 0.665888 12.3081C1.25445 13.0277 2.10761 13.4011 2.9682 13.4011Z" fill="white"/>
</g>
<defs>
<clipPath id="clip0_0_1722">
<rect width="24" height="24" fill="white"/>
</clipPath>
</defs>
</svg>
