<svg width="113" height="134" viewBox="0 0 113 134" fill="none" xmlns="http://www.w3.org/2000/svg">
<path d="M52.9701 7.34405C54.9785 6.18716 57.4529 6.18716 59.4613 7.34405L109.186 35.9868C111.194 37.1437 112.431 39.2817 112.431 41.5955V98.8809C112.431 101.195 111.194 103.333 109.186 104.49L59.4613 133.132C57.4529 134.289 54.9785 134.289 52.9701 133.132L3.24561 104.49C1.23722 103.333 0 101.195 0 98.8809V41.5955C0 39.2817 1.23722 37.1437 3.24562 35.9868L52.9701 7.34405Z" fill="#1F212F"/>
<path d="M52.9701 13.8204C54.9785 12.6635 57.4529 12.6635 59.4613 13.8204L97.9427 35.9868C99.9511 37.1437 101.188 39.2817 101.188 41.5955V85.9282C101.188 88.242 99.9511 90.38 97.9427 91.5369L59.4613 113.703C57.4529 114.86 54.9785 114.86 52.9701 113.703L14.4888 91.5369C12.4804 90.38 11.2431 88.242 11.2431 85.9282V41.5955C11.2431 39.2817 12.4804 37.1437 14.4888 35.9868L52.9701 13.8204Z" fill="#BDD9E1"/>
<path fill-rule="evenodd" clip-rule="evenodd" d="M59.4614 13.8204C57.453 12.6635 54.9785 12.6635 52.9701 13.8204L14.4888 35.9868C12.4804 37.1437 11.2432 39.2817 11.2432 41.5955V84.2848C22.7543 72.8048 38.654 65.7047 56.2157 65.7047C73.7775 65.7047 89.6772 72.8049 101.188 84.2849V41.5955C101.188 39.2817 99.9511 37.1437 97.9427 35.9868L59.4614 13.8204Z" fill="#98C3CF"/>
<path d="M52.9581 13.8366C54.9726 12.6705 57.4589 12.6705 59.4734 13.8366L106.281 40.9326C107.147 41.4338 107.68 42.3568 107.68 43.3553C107.68 45.5141 105.335 46.8613 103.463 45.7779L59.4734 20.313C57.4589 19.1469 54.9726 19.1469 52.9581 20.313L8.96811 45.7779C7.09658 46.8613 4.75195 45.5141 4.75195 43.3553C4.75195 42.3568 5.28475 41.4338 6.1504 40.9326L52.9581 13.8366Z" fill="#1F202F" fill-opacity="0.3"/>
<path fill-rule="evenodd" clip-rule="evenodd" d="M59.4613 0.86767C57.4529 -0.289222 54.9785 -0.289224 52.9701 0.867668L3.24562 29.5104C1.23722 30.6673 0 32.8053 0 35.1191V92.4045C0 94.7183 1.23722 96.8563 3.24561 98.0132L52.9701 126.656C54.9785 127.813 57.4529 127.813 59.4613 126.656L109.186 98.0132C111.194 96.8563 112.431 94.7183 112.431 92.4045V35.1191C112.431 32.8053 111.194 30.6673 109.186 29.5104L59.4613 0.86767ZM59.4613 13.8204C57.4529 12.6635 54.9785 12.6635 52.9701 13.8204L14.4888 35.9868C12.4804 37.1437 11.2431 39.2817 11.2431 41.5955V85.9282C11.2431 88.242 12.4804 90.38 14.4888 91.5369L52.9701 113.703C54.9785 114.86 57.4529 114.86 59.4613 113.703L97.9427 91.5369C99.9511 90.38 101.188 88.242 101.188 85.9282V41.5955C101.188 39.2817 99.9511 37.1437 97.9427 35.9868L59.4613 13.8204Z" fill="#5D6081"/>
<path fill-rule="evenodd" clip-rule="evenodd" d="M52.9701 0.867668C54.9785 -0.289224 57.4529 -0.289222 59.4613 0.86767L109.186 29.5104C111.194 30.6673 112.431 32.8053 112.431 35.1191V44.3327H101.188V41.5955C101.188 39.2817 99.9511 37.1437 97.9427 35.9868L59.4613 13.8204C57.4529 12.6635 54.9785 12.6635 52.9701 13.8204L14.4888 35.9868C12.4804 37.1437 11.2431 39.2817 11.2431 41.5955V44.3327H0V35.1191C0 32.8053 1.23722 30.6673 3.24562 29.5104L52.9701 0.867668Z" fill="#7275A0"/>
<path fill-rule="evenodd" clip-rule="evenodd" d="M78.4466 81.5521C77.8901 81.9883 77.8201 82.0671 77.8201 82.0671C77.8201 82.0671 78.8228 83.602 81.3228 83.1975C82.8022 82.959 85.0038 81.305 85.0038 81.305C85.0038 81.305 81.3113 79.2468 78.4466 81.5521Z" fill="#556C75"/>
<path fill-rule="evenodd" clip-rule="evenodd" d="M78.9128 79.6309C79.0725 80.3068 79.0936 80.4099 79.0936 80.4099C79.0936 80.4099 80.8306 79.7535 81.5514 77.0721C81.9668 75.527 81.4767 72.8144 81.4767 72.8144C81.4767 72.8144 78.0932 76.1485 78.9128 79.6309Z" fill="#556C75"/>
<path fill-rule="evenodd" clip-rule="evenodd" d="M83.2859 78.0735C82.8416 78.637 82.8171 78.7279 82.8171 78.7279C82.8171 78.7279 84.1817 79.8232 86.5795 78.7094C87.9744 78.0586 89.7516 75.8045 89.7516 75.8045C89.7516 75.8045 85.5107 75.0619 83.2859 78.0735Z" fill="#556C75"/>
<path fill-rule="evenodd" clip-rule="evenodd" d="M83.6257 76.7998C83.6257 76.7998 85.1998 75.6615 85.2014 72.9341C85.1828 71.3704 84.0122 69.0119 84.0122 69.0119C84.0122 69.0119 81.5863 73.1376 83.2595 76.1662C83.5924 76.7422 83.6257 76.7998 83.6257 76.7998Z" fill="#556C75"/>
<path fill-rule="evenodd" clip-rule="evenodd" d="M87.1853 73.369C86.9109 74.0265 86.8865 74.1174 86.8865 74.1174C86.8865 74.1174 88.5218 74.749 90.5651 72.9562C91.7722 71.9144 92.9151 69.2965 92.9151 69.2965C92.9151 69.2965 88.5726 69.8421 87.1853 73.369Z" fill="#556C75"/>
<path fill-rule="evenodd" clip-rule="evenodd" d="M87.1935 72.0554C87.1935 72.0554 88.4438 70.4894 87.7104 67.9552C87.3243 66.4881 85.5151 64.6897 85.5151 64.6897C85.5151 64.6897 84.1776 69.3014 86.6418 71.5671C87.1147 71.9856 87.148 72.0432 87.1935 72.0554Z" fill="#556C75"/>
<path fill-rule="evenodd" clip-rule="evenodd" d="M89.7736 67.7293C89.6814 68.4353 89.6569 68.5262 89.6569 68.5262C89.6569 68.5262 91.4385 68.6123 92.9874 66.2981C93.879 64.9775 94.3512 62.1322 94.3512 62.1322C94.3512 62.1322 90.2383 64.0051 89.7736 67.7293Z" fill="#556C75"/>
<path fill-rule="evenodd" clip-rule="evenodd" d="M88.8498 62.805C88.1295 61.492 85.9911 60.1902 85.9911 60.1902C85.9911 60.1902 85.555 64.8971 88.5005 66.4632C89.0557 66.7576 89.1345 66.8273 89.1345 66.8273C89.1345 66.8273 90.0575 65.0276 88.8498 62.805Z" fill="#556C75"/>
<path fill-rule="evenodd" clip-rule="evenodd" d="M90.9818 62.5001C90.9818 62.5001 92.7732 62.0043 93.7216 59.3837C94.2734 57.875 93.9898 55.1202 93.9898 55.1202C93.9898 55.1202 90.4065 58.1087 90.8587 61.6878C90.9607 62.397 90.9818 62.5001 90.9818 62.5001Z" fill="#556C75"/>
<path fill-rule="evenodd" clip-rule="evenodd" d="M89.4243 61.2067C90.0284 61.3193 90.1195 61.3436 90.1195 61.3436C90.1195 61.3436 90.6329 59.4341 88.9263 57.614C87.9381 56.5704 85.4795 55.9139 85.4795 55.9139C85.4795 55.9139 86.1428 60.5253 89.4243 61.2067Z" fill="#556C75"/>
<path fill-rule="evenodd" clip-rule="evenodd" d="M90.6936 56.4812C90.6936 56.4812 92.3342 55.4581 92.5756 52.746C92.7057 51.1734 91.7206 48.6696 91.7206 48.6696C91.7206 48.6696 88.9218 52.5495 90.3519 55.7567C90.6271 56.366 90.6936 56.4812 90.6936 56.4812Z" fill="#556C75"/>
<path fill-rule="evenodd" clip-rule="evenodd" d="M83.9594 51.7577C83.9594 51.7577 85.4524 56.0066 88.8843 55.9484C89.5251 55.9246 89.6162 55.9489 89.6162 55.9489C89.6162 55.9489 89.7531 53.9873 87.7298 52.6184C86.5194 51.8565 83.9594 51.7577 83.9594 51.7577Z" fill="#556C75"/>
<path fill-rule="evenodd" clip-rule="evenodd" d="M88.3258 50.3934C88.7286 50.8907 88.8074 50.9605 88.8074 50.9605C88.8074 50.9605 90.1698 49.5219 89.7007 46.9123C89.4301 45.3786 87.8186 43.3894 87.8186 43.3894C87.8186 43.3894 86.0838 47.8462 88.3258 50.3934Z" fill="#556C75"/>
<path fill-rule="evenodd" clip-rule="evenodd" d="M87.7876 51.1253C87.7876 51.1253 87.7757 49.1727 85.6457 48.019C84.4108 47.348 81.7774 47.522 81.7774 47.522C81.7774 47.522 83.617 51.5712 87.0312 51.2158C87.6965 51.101 87.742 51.1132 87.7876 51.1253Z" fill="#556C75"/>
<path fill-rule="evenodd" clip-rule="evenodd" d="M85.3533 46.9201C85.9451 47.0782 86.0362 47.1025 86.0362 47.1025C86.0362 47.1025 86.6529 45.1719 85.0041 43.3185C84.0737 42.2417 81.6518 41.4488 81.6518 41.4488C81.6518 41.4488 82.1207 46.0569 85.3533 46.9201Z" fill="#556C75"/>
<path fill-rule="evenodd" clip-rule="evenodd" d="M33.3305 81.5521C33.887 81.9883 33.9569 82.0671 33.9569 82.0671C33.9569 82.0671 32.9543 83.602 30.4542 83.1975C28.9748 82.959 26.7733 81.305 26.7733 81.305C26.7733 81.305 30.4658 79.2468 33.3305 81.5521Z" fill="#556C75"/>
<path fill-rule="evenodd" clip-rule="evenodd" d="M32.8643 79.6309C32.7046 80.3068 32.6835 80.4099 32.6835 80.4099C32.6835 80.4099 30.9464 79.7535 30.2257 77.0721C29.8103 75.527 30.3004 72.8144 30.3004 72.8144C30.3004 72.8144 33.6838 76.1485 32.8643 79.6309Z" fill="#556C75"/>
<path fill-rule="evenodd" clip-rule="evenodd" d="M28.4912 78.0735C28.9355 78.637 28.96 78.7279 28.96 78.7279C28.96 78.7279 27.5954 79.8232 25.1976 78.7094C23.8027 78.0586 22.0255 75.8045 22.0255 75.8045C22.0255 75.8045 26.2664 75.0619 28.4912 78.0735Z" fill="#556C75"/>
<path fill-rule="evenodd" clip-rule="evenodd" d="M28.1514 76.7998C28.1514 76.7998 26.5773 75.6615 26.5757 72.9341C26.5943 71.3704 27.7649 69.0119 27.7649 69.0119C27.7649 69.0119 30.1908 73.1376 28.5176 76.1662C28.1847 76.7422 28.1514 76.7998 28.1514 76.7998Z" fill="#556C75"/>
<path fill-rule="evenodd" clip-rule="evenodd" d="M24.5918 73.369C24.8662 74.0265 24.8906 74.1174 24.8906 74.1174C24.8906 74.1174 23.2553 74.749 21.212 72.9562C20.0049 71.9144 18.862 69.2965 18.862 69.2965C18.862 69.2965 23.2044 69.8421 24.5918 73.369Z" fill="#556C75"/>
<path fill-rule="evenodd" clip-rule="evenodd" d="M24.5836 72.0554C24.5836 72.0554 23.3333 70.4894 24.0667 67.9552C24.4527 66.4881 26.262 64.6897 26.262 64.6897C26.262 64.6897 27.5995 69.3014 25.1353 71.5671C24.6624 71.9856 24.6291 72.0432 24.5836 72.0554Z" fill="#556C75"/>
<path fill-rule="evenodd" clip-rule="evenodd" d="M22.0034 67.7293C22.0957 68.4353 22.1201 68.5262 22.1201 68.5262C22.1201 68.5262 20.3386 68.6123 18.7897 66.2981C17.8981 64.9775 17.4258 62.1322 17.4258 62.1322C17.4258 62.1322 21.5388 64.0051 22.0034 67.7293Z" fill="#556C75"/>
<path fill-rule="evenodd" clip-rule="evenodd" d="M22.9272 62.805C23.6476 61.492 25.7859 60.1902 25.7859 60.1902C25.7859 60.1902 26.222 64.8971 23.2765 66.4632C22.7214 66.7576 22.6426 66.8273 22.6426 66.8273C22.6426 66.8273 21.7196 65.0276 22.9272 62.805Z" fill="#556C75"/>
<path fill-rule="evenodd" clip-rule="evenodd" d="M20.7953 62.5001C20.7953 62.5001 19.0038 62.0043 18.0555 59.3837C17.5036 57.875 17.7873 55.1202 17.7873 55.1202C17.7873 55.1202 21.3705 58.1087 20.9183 61.6878C20.8163 62.397 20.7953 62.5001 20.7953 62.5001Z" fill="#556C75"/>
<path fill-rule="evenodd" clip-rule="evenodd" d="M22.3528 61.2067C21.7487 61.3193 21.6576 61.3436 21.6576 61.3436C21.6576 61.3436 21.1442 59.4341 22.8508 57.614C23.839 56.5704 26.2976 55.9139 26.2976 55.9139C26.2976 55.9139 25.6343 60.5253 22.3528 61.2067Z" fill="#556C75"/>
<path fill-rule="evenodd" clip-rule="evenodd" d="M21.0835 56.4812C21.0835 56.4812 19.4428 55.4581 19.2015 52.746C19.0714 51.1734 20.0565 48.6696 20.0565 48.6696C20.0565 48.6696 22.8553 52.5495 21.4252 55.7567C21.15 56.366 21.0835 56.4812 21.0835 56.4812Z" fill="#556C75"/>
<path fill-rule="evenodd" clip-rule="evenodd" d="M27.8177 51.7577C27.8177 51.7577 26.3247 56.0066 22.8928 55.9484C22.252 55.9246 22.1609 55.9489 22.1609 55.9489C22.1609 55.9489 22.024 53.9873 24.0473 52.6184C25.2577 51.8565 27.8177 51.7577 27.8177 51.7577Z" fill="#556C75"/>
<path fill-rule="evenodd" clip-rule="evenodd" d="M23.4513 50.3934C23.0485 50.8907 22.9696 50.9605 22.9696 50.9605C22.9696 50.9605 21.6073 49.5219 22.0764 46.9123C22.347 45.3786 23.9585 43.3894 23.9585 43.3894C23.9585 43.3894 25.6932 47.8462 23.4513 50.3934Z" fill="#556C75"/>
<path fill-rule="evenodd" clip-rule="evenodd" d="M23.9895 51.1253C23.9895 51.1253 24.0014 49.1727 26.1314 48.019C27.3663 47.348 29.9997 47.522 29.9997 47.522C29.9997 47.522 28.16 51.5712 24.7459 51.2158C24.0806 51.101 24.035 51.1132 23.9895 51.1253Z" fill="#556C75"/>
<path fill-rule="evenodd" clip-rule="evenodd" d="M26.4238 46.9201C25.8319 47.0782 25.7409 47.1025 25.7409 47.1025C25.7409 47.1025 25.1242 45.1719 26.773 43.3185C27.7034 42.2417 30.1253 41.4488 30.1253 41.4488C30.1253 41.4488 29.6564 46.0569 26.4238 46.9201Z" fill="#556C75"/>
<path d="M49.2028 63.0238C45.3968 61.8461 43.4938 58.6257 43.4938 53.3623V47.9548C43.4938 41.8503 47.7334 38.7981 56.2126 38.7981C59.609 38.7981 62.5719 39.5311 65.1012 40.9972C67.6305 42.4632 68.8952 44.7824 68.8952 47.9548V53.3623C68.8952 58.6257 66.9922 61.8461 63.1862 63.0238C67.1849 63.9851 69.1842 66.6408 69.1842 70.9908V81.6256C69.1842 88.1627 64.8363 91.4313 56.1403 91.4313C47.5166 91.4313 43.2047 88.1627 43.2047 81.6256V70.9908C43.2047 66.6168 45.2041 63.9611 49.2028 63.0238ZM58.0915 58.2291V47.4501C58.0915 46.4167 57.4652 45.9 56.2126 45.9C54.9359 45.9 54.2975 46.4167 54.2975 47.4501V58.2291C54.2975 59.2625 54.9359 59.7793 56.2126 59.7793C57.4652 59.7793 58.0915 59.2625 58.0915 58.2291ZM58.0915 82.6711V67.6021C58.0915 66.5687 57.4652 66.052 56.2126 66.052C54.9359 66.052 54.2975 66.5687 54.2975 67.6021V82.6711C54.2975 83.7045 54.9359 84.2212 56.2126 84.2212C57.4652 84.2212 58.0915 83.7045 58.0915 82.6711Z" fill="#282936"/>
<path d="M34.4035 94.2007L55.184 105.65C55.7849 105.981 56.5135 105.981 57.1143 105.65L77.8948 94.2007V105.001C77.8948 105.729 77.4983 106.4 76.8599 106.752L57.1143 117.632C56.5135 117.963 55.7849 117.963 55.184 117.632L35.4384 106.752C34.8 106.4 34.4035 105.729 34.4035 105.001V94.2007Z" fill="#5D6081"/>
<path d="M26.9386 98.7342L55.1796 114.388C55.7827 114.722 56.5156 114.722 57.1187 114.388L85.3597 98.7342V113.747C85.3597 114.474 84.9652 115.144 84.3293 115.496L57.1187 130.579C56.5156 130.913 55.7827 130.913 55.1796 130.579L27.969 115.496C27.3331 115.144 26.9386 114.474 26.9386 113.747V98.7342Z" fill="#3A3D53"/>
<path d="M57.2446 108.297L59.18 112.336C59.2642 112.579 59.5166 112.74 59.7691 112.821L64.1448 113.467C64.9021 113.467 65.1545 114.275 64.6497 114.76L61.452 117.911C61.2837 118.073 61.1996 118.396 61.1996 118.638L61.9569 123.001C62.0411 123.648 61.3679 124.213 60.7788 123.89L56.8239 121.789C56.5715 121.628 56.319 121.628 56.0666 121.789L52.1116 123.89C51.5226 124.213 50.7653 123.728 50.9335 123.001L51.6909 118.638C51.775 118.396 51.6067 118.073 51.4384 117.911L48.2408 114.76C47.8201 114.275 48.0725 113.467 48.7457 113.387L53.1214 112.74C53.3738 112.74 53.6263 112.498 53.7104 112.255L55.6458 108.216C56.0666 107.65 56.908 107.65 57.2446 108.297Z" fill="#BDD9E1"/>
<path fill-rule="evenodd" clip-rule="evenodd" d="M58.9877 107.429L60.6953 110.994L64.3258 111.53C65.4062 111.597 66.3362 112.257 66.703 113.274C67.0678 114.286 66.7822 115.401 66.0116 116.149L63.2212 118.899L63.8828 122.71L63.8881 122.751C64.027 123.818 63.5412 124.773 62.8251 125.336C62.083 125.919 60.9356 126.185 59.8552 125.601L56.4453 123.789L53.0348 125.601C51.1514 126.618 48.4942 125.125 49.0221 122.628L49.6693 118.899L46.8184 116.089L46.7687 116.032C45.4611 114.525 46.0929 111.772 48.481 111.462L52.1952 110.913L53.97 107.208L54.0821 107.058C55.2227 105.525 57.8694 105.282 58.9727 107.401L58.9877 107.429ZM48.7457 113.387C48.0725 113.467 47.8201 114.275 48.2408 114.76L51.4385 117.911C51.6067 118.073 51.775 118.396 51.6909 118.638L50.9336 123.001C50.7653 123.728 51.5226 124.213 52.1116 123.89L56.0666 121.789C56.319 121.628 56.5715 121.628 56.8239 121.789L60.7789 123.89C61.3679 124.213 62.0411 123.648 61.9569 123.001L61.1996 118.638C61.1996 118.396 61.2838 118.073 61.452 117.911L64.6497 114.76C65.1546 114.275 64.9021 113.467 64.1448 113.467L59.7691 112.821C59.5166 112.74 59.2642 112.579 59.1801 112.336L57.2447 108.297C56.9081 107.65 56.0666 107.65 55.6458 108.216L53.7104 112.256C53.6263 112.498 53.3739 112.74 53.1214 112.74L48.7457 113.387Z" fill="#3A3C53"/>
<path d="M56.7471 2.8497L57.7595 4.96281C57.8035 5.08959 57.9356 5.17412 58.0676 5.21638L60.3564 5.55448C60.7526 5.55448 60.8846 5.9771 60.6205 6.23067L58.9479 7.8789C58.8599 7.96342 58.8159 8.13247 58.8159 8.25926L59.212 10.5414C59.256 10.8795 58.9039 11.1754 58.5958 11.0063L56.5271 9.90749C56.395 9.82296 56.263 9.82296 56.1309 9.90749L54.0622 11.0063C53.7541 11.1754 53.3579 10.9218 53.446 10.5414L53.8421 8.25926C53.8861 8.13247 53.7981 7.96342 53.7101 7.8789L52.0375 6.23067C51.8174 5.9771 51.9494 5.55448 52.3016 5.51222L54.5904 5.17412C54.7224 5.17412 54.8545 5.04733 54.8985 4.92054L55.9108 2.80743C56.1309 2.5116 56.5711 2.5116 56.7471 2.8497Z" fill="#BDD9E1"/>
</svg>
