<svg width="24" height="21" viewBox="0 0 24 21" fill="none" xmlns="http://www.w3.org/2000/svg">
<path fill-rule="evenodd" clip-rule="evenodd" d="M7.29656 0C7.52612 1.26257 6.21435 3.04985 4.85339 3.52537C5.13214 1.80368 6.11597 0.819853 7.29656 0Z" fill="#AF7811"/>
<path fill-rule="evenodd" clip-rule="evenodd" d="M16.6758 0C18.1187 0.655883 19.0042 1.88566 19.3485 3.65655C17.922 2.98427 17.0529 1.73809 16.6758 0Z" fill="#AF7811"/>
<path fill-rule="evenodd" clip-rule="evenodd" d="M4.5092 0.246094C5.08309 1.59065 4.68956 3.85345 3.9025 4.62411C3.04986 3.42712 3.86971 1.14793 4.5092 0.246094Z" fill="#AF7811"/>
<path fill-rule="evenodd" clip-rule="evenodd" d="M19.5941 0.377197C20.5287 1.21345 20.8402 3.31227 20.4467 4.75521C19.4301 4.09933 19.2989 1.93492 19.5941 0.377197Z" fill="#AF7811"/>
<path fill-rule="evenodd" clip-rule="evenodd" d="M2.80427 2.44312C3.70611 3.37775 3.42736 5.80451 2.80427 6.82113C1.95162 5.96848 2.27957 3.37775 2.80427 2.44312Z" fill="#AF7811"/>
<path fill-rule="evenodd" clip-rule="evenodd" d="M21.1852 2.44312C22.1527 3.18098 22.0707 5.77172 21.546 6.95231C20.5949 6.08326 20.7425 3.75488 21.1852 2.44312Z" fill="#AF7811"/>
<path fill-rule="evenodd" clip-rule="evenodd" d="M3.65637 6.09981C4.11549 4.4929 5.24689 3.54187 6.70623 2.93518C6.24711 4.55849 5.26328 5.6407 3.65637 6.09981Z" fill="#AF7811"/>
<path fill-rule="evenodd" clip-rule="evenodd" d="M19.8397 5.96848C20.5448 7.06709 21.5942 8.42804 21.2991 10.1005C20.2005 9.36268 19.4134 7.69018 19.7085 5.96848C18.6919 5.19782 17.8065 4.29598 17.2654 3.0498C18.6755 3.21378 19.9873 4.55834 20.43 6.09966C20.1677 6.13245 19.9873 6.08326 19.8397 5.96848Z" fill="#AF7811"/>
<path fill-rule="evenodd" clip-rule="evenodd" d="M0.721924 4.6405C1.88612 5.42756 2.47641 6.78852 2.542 8.65778C1.26303 8.0019 0.803909 6.50977 0.721924 4.6405Z" fill="#AF7811"/>
<path fill-rule="evenodd" clip-rule="evenodd" d="M23.2512 4.6405C23.8251 6.14903 22.7593 8.11668 21.6607 8.77256C21.5951 6.80491 22.4642 5.7555 23.2512 4.6405Z" fill="#AF7811"/>
<path fill-rule="evenodd" clip-rule="evenodd" d="M4.50876 5.85364C4.75472 7.55893 4.09884 9.4118 2.80347 9.9857C2.81986 8.06724 3.59053 6.88665 4.50876 5.85364Z" fill="#AF7811"/>
<path fill-rule="evenodd" clip-rule="evenodd" d="M0.6073 7.5592C2.00105 8.23148 2.67333 9.64163 2.91929 11.4453C1.54193 10.7566 0.935241 9.29729 0.6073 7.5592Z" fill="#AF7811"/>
<path fill-rule="evenodd" clip-rule="evenodd" d="M23.3822 7.5592C23.5954 9.2645 22.5951 10.8386 21.3162 11.4617C21.4145 9.57604 22.3984 8.55943 23.3822 7.5592Z" fill="#AF7811"/>
<path fill-rule="evenodd" clip-rule="evenodd" d="M3.65607 9.51025C4.67269 10.1661 4.78747 12.3306 4.50872 13.8883C3.36093 13.3144 3.42651 11.0352 3.65607 9.51025Z" fill="#AF7811"/>
<path fill-rule="evenodd" clip-rule="evenodd" d="M20.3324 9.62537C21.0867 10.724 20.6932 13.4459 19.7257 14.0034C19.2502 12.5112 19.6601 10.6912 20.3324 9.62537Z" fill="#AF7811"/>
<path fill-rule="evenodd" clip-rule="evenodd" d="M0 10.3629C1.57412 10.904 2.93507 11.6419 3.41059 13.2816C1.83647 12.7241 0.508309 11.9534 0 10.3629Z" fill="#AF7811"/>
<path fill-rule="evenodd" clip-rule="evenodd" d="M23.9883 10.4775C24.1686 11.5597 22.2338 13.0683 20.7089 13.2814C21.2828 11.8385 22.5125 11.035 23.9883 10.4775Z" fill="#AF7811"/>
<path fill-rule="evenodd" clip-rule="evenodd" d="M4.86975 12.7899C6.32909 13.6754 7.3785 14.9871 7.54247 17.1679C6.08313 16.2825 5.1649 14.8559 4.86975 12.7899Z" fill="#AF7811"/>
<path fill-rule="evenodd" clip-rule="evenodd" d="M19.3649 12.9209C18.9549 14.823 18.2335 16.4135 16.6921 17.1841C16.8397 15.0197 17.8727 13.7571 19.3649 12.9209Z" fill="#AF7811"/>
<path fill-rule="evenodd" clip-rule="evenodd" d="M1.70618 13.1504C3.60824 13.5603 4.92 14.5605 5.83824 15.9543C5.85464 16.2166 5.41191 16.0035 5.23155 16.0691C5.72346 16.479 6.69089 16.397 6.82206 17.1677C5.00199 17.43 2.73919 17.2333 1.95213 16.0691C2.83757 15.8395 4.08375 15.9543 5.00199 16.0691C3.72302 15.282 2.21449 14.7245 1.70618 13.1504Z" fill="#AF7811"/>
<path fill-rule="evenodd" clip-rule="evenodd" d="M18.9883 16.0855C19.8082 16.2331 21.3495 15.7084 22.2841 16.2003C21.3823 17.2169 19.0703 17.6596 17.4142 17.1677C17.6109 16.5938 18.2176 16.4299 18.8735 16.3151C18.8407 16.1511 18.562 16.2167 18.3816 16.2003C19.0867 14.5606 20.5788 13.6915 22.5137 13.2816C21.8742 14.741 20.5624 15.5444 18.9883 16.0855Z" fill="#AF7811"/>
<path fill-rule="evenodd" clip-rule="evenodd" d="M7.67303 15.7083C8.75524 15.3967 11.7395 17.5284 11.6903 18.5122C11.6083 19.9551 8.32892 20.1355 6.68921 19.7256C7.42708 18.6926 9.41112 18.4794 10.9524 18.627C9.65708 17.8727 8.4109 17.0365 7.67303 15.7083Z" fill="#AF7811"/>
<path fill-rule="evenodd" clip-rule="evenodd" d="M16.3158 15.5936C16.201 16.971 14.6597 17.9876 13.2659 18.5123C14.8236 18.8238 16.8733 18.6435 17.5291 19.8569C15.5943 20.2012 12.9052 19.8733 12.5444 18.6435C13.1839 17.0038 14.6761 16.2331 16.3158 15.5936Z" fill="#AF7811"/>
<path fill-rule="evenodd" clip-rule="evenodd" d="M9.37948 18.0203C8.52684 18.9714 5.67375 18.955 4.39478 18.3811C5.31301 17.3808 8.08412 17.3317 9.37948 18.0203Z" fill="#AF7811"/>
<path fill-rule="evenodd" clip-rule="evenodd" d="M19.841 18.5124C18.3981 19.0699 16.0533 18.9715 14.8563 18.2664C15.7746 17.2498 19.1196 17.5122 19.841 18.5124Z" fill="#AF7811"/>
<path fill-rule="evenodd" clip-rule="evenodd" d="M11.6911 19.119C11.9371 19.5453 10.7565 20.5948 10.1006 20.9391C9.88747 20.07 11.3468 19.8569 11.6911 19.119Z" fill="#AF7811"/>
<path fill-rule="evenodd" clip-rule="evenodd" d="M12.1663 19.2501C12.691 19.3485 13.9699 20.3487 13.9863 20.9554C13.1501 21.0866 12.8713 19.66 12.1663 19.2501Z" fill="#AF7811"/>
</svg>
