<svg width="24" height="24" viewBox="0 0 24 24" fill="none" xmlns="http://www.w3.org/2000/svg">
<g clip-path="url(#clip0_0_1143)">
<path d="M22.4704 7.56879C22.7812 8.36137 23.0812 9.17269 23.3884 9.97113C23.4937 10.248 23.6032 10.5214 23.6986 10.8111C23.563 10.7526 23.4445 10.6531 23.3356 10.4851C23.0866 10.1075 22.8805 9.60293 22.7092 9.08957C22.5688 8.65581 22.4347 8.17757 22.3672 7.67884C22.4012 7.64073 22.4356 7.60404 22.4704 7.56879Z" fill="black"/>
<path fill-rule="evenodd" clip-rule="evenodd" d="M14.6805 0.0314959C14.991 -0.0405041 15.306 0.0063252 15.5949 0.249837C15.9444 0.546618 16.2885 0.897252 16.6314 1.2473C16.8918 1.51247 17.1516 1.77764 17.4132 2.01764C17.472 2.07325 17.5317 2.13472 17.5923 2.19676C17.7507 2.36067 17.9139 2.52867 18.0822 2.60476C18.2367 2.67735 18.3717 2.58135 18.5142 2.47598C18.7602 2.28457 18.9843 2.01472 19.2084 1.74428C19.3518 1.57218 19.4952 1.3995 19.6443 1.24672L19.7118 1.17764C19.8909 0.993837 20.0709 0.808862 20.2509 0.629155C20.3136 0.557154 20.3637 0.60574 20.418 0.659008C20.4369 0.67774 20.4564 0.696472 20.4771 0.711106C20.3169 1.14486 20.154 1.57511 19.9911 2.00476C19.8183 2.45878 19.6471 2.91519 19.4775 3.37394C19.455 3.43715 19.4313 3.49979 19.4073 3.56242C19.3518 3.70818 19.296 3.85511 19.2537 4.01491C19.2102 4.20691 19.2378 4.3954 19.2903 4.56633C19.3863 4.8795 19.4952 5.17745 19.6038 5.47481V5.4754C19.6416 5.57842 19.6791 5.68086 19.7163 5.78447C20.0481 5.49354 20.3805 5.20496 20.7129 4.9152C21.0897 4.5874 21.4665 4.25959 21.8427 3.92945L21.9519 4.24554C21.7243 4.68746 21.4941 5.12417 21.2613 5.55559C21.0165 6.01335 20.7714 6.47052 20.5326 6.93998C20.637 6.9792 20.7423 7.01374 20.8473 7.04476C20.8485 7.09745 20.8488 7.14955 20.8491 7.20223C20.8509 7.40828 20.8521 7.61608 20.8968 7.80574C20.97 8.13589 21.1005 8.37472 21.2313 8.61355C21.261 8.66857 21.2907 8.72301 21.3198 8.77862C21.7149 9.50681 22.0362 10.4042 22.3518 11.2852C22.4427 11.5386 22.533 11.7903 22.6242 12.0368C22.7235 12.3072 22.8396 12.546 22.9875 12.7164L23.0022 12.7334C23.1552 12.9078 23.3034 13.0775 23.4264 13.3322C23.7714 13.9936 23.9283 14.9905 24 15.9002C23.9031 15.9927 23.8083 16.0887 23.7135 16.1841C23.5158 16.3837 23.3193 16.5821 23.1087 16.7472C23.0007 16.8292 22.8999 16.9211 22.8219 17.0926C22.704 17.3373 22.6446 17.6323 22.5843 17.9302C22.5249 18.2258 22.4646 18.5244 22.3461 18.7796C22.1379 19.228 21.9579 19.7162 21.7803 20.2102L21.7653 20.2489C21.7014 20.4134 21.6234 20.6147 21.5112 20.6235C21.402 20.6024 21.3204 20.4245 21.2523 20.2717C21.1975 20.1414 21.1432 20.0103 21.0894 19.8783C20.9643 19.5722 20.8395 19.2678 20.6979 18.9833C20.5542 18.693 20.3856 18.4377 20.22 18.1878L20.1054 18.0139C19.6803 17.3659 19.2498 16.732 18.8193 16.0969C18.4065 15.4915 17.996 14.8801 17.5878 14.2629C17.2938 13.8315 17.0265 13.3468 16.7685 12.837C16.7101 12.7353 16.6538 12.6288 16.5999 12.5179C16.5225 12.3628 16.4448 12.2077 16.3569 12.083C16.1652 12.1503 15.975 12.2434 15.7854 12.3365L15.6297 12.4114L15.6576 12.4623C15.7884 12.7 15.9186 12.9382 16.0365 13.2011C16.1934 13.5447 16.35 13.8894 16.5066 14.2336C16.8941 15.0895 17.2845 15.9402 17.6778 16.7858C17.8053 17.0574 17.982 17.2647 18.1482 17.4596L18.2397 17.5679L18.3228 17.6633C18.486 17.8483 18.6579 18.0426 18.7464 18.3751C18.78 18.4957 18.7911 18.6303 18.8022 18.7632C18.8115 18.8774 18.8208 18.9903 18.8442 19.0928C18.897 19.2233 18.9678 19.3293 19.0368 19.4329C19.0599 19.468 19.083 19.5025 19.1052 19.5376C19.0872 19.6137 19.0692 19.6898 19.0506 19.7648C18.9216 19.6694 18.7932 19.571 18.6648 19.4727C18.4486 19.3047 18.2311 19.1433 18.0123 18.9886C18.0294 19.2344 18.0555 19.4779 18.0816 19.7214C18.1167 20.0481 18.1515 20.3741 18.1656 20.7054C18.1563 20.6958 18.1469 20.6864 18.1374 20.6774C18.0942 20.6358 18.0555 20.5983 18.0315 20.5047C17.9559 20.26 17.8821 20.013 17.8086 19.7671C17.7193 19.4642 17.628 19.1635 17.5347 18.8651C17.5632 19.3468 17.5965 19.828 17.6295 20.3092C17.6544 20.6697 17.6793 21.0303 17.7021 21.3915C17.6494 21.4243 17.5966 21.4567 17.5437 21.4887C17.4851 21.2329 17.4254 20.978 17.3646 20.7242C17.2664 20.3192 17.1727 19.9101 17.0835 19.4973C16.9716 18.981 16.8768 18.4377 16.7817 17.8945C16.6647 17.2254 16.5471 16.5552 16.398 15.9294C16.3062 15.5352 16.1678 15.189 15.9942 14.9191C15.8016 14.6141 15.5784 14.3847 15.3564 14.1575C15.2238 14.0212 15.0915 13.8854 14.9667 13.7343C14.9609 13.7277 14.9551 13.7211 14.9493 13.7144L14.9379 13.701C14.8947 13.6506 14.8509 13.5991 14.8041 13.5663C14.7279 13.5845 14.6529 13.6307 14.5791 13.6775L14.5071 13.7209C14.7906 14.8307 15.0795 15.9353 15.3684 17.0399L15.3687 17.0411C15.5605 17.7729 15.7515 18.5056 15.9417 19.2391C15.879 19.2701 15.8163 19.3023 15.7539 19.3357C15.8286 19.4914 15.9264 19.581 16.0239 19.6694C16.1274 19.7642 16.2309 19.8584 16.3065 20.0311C16.3878 20.2272 16.3359 20.517 16.2966 20.7353L16.2891 20.7763C16.2093 21.1486 16.1355 21.5133 16.0869 21.906C16.026 21.7479 15.9668 21.5873 15.9093 21.4243C15.8424 21.237 15.7752 21.0496 15.7032 20.8705C15.6837 21.0034 15.6654 21.1363 15.6468 21.2692C15.6282 21.402 15.6096 21.5355 15.5904 21.6672C15.5274 21.4852 15.4686 21.2978 15.4095 21.1105C15.3573 20.9426 15.3037 20.7764 15.2487 20.6118C15.2247 20.8173 15.2082 21.0245 15.1917 21.2323C15.1818 21.3523 15.1722 21.4723 15.1611 21.5917C15.1297 21.477 15.0989 21.3617 15.0687 21.2457C15.0213 21.0601 14.9713 20.877 14.9187 20.6967L14.8965 20.6206C14.7597 20.1453 14.6226 19.6688 14.5881 19.1174C14.5791 18.9927 14.5791 18.8645 14.5791 18.7363C14.5785 18.5349 14.5782 18.3347 14.5452 18.1533C14.4942 17.8559 14.4027 17.5714 14.3157 17.3015V17.301L14.2821 17.1974C13.9725 16.2338 13.6583 15.2759 13.3395 14.3238L13.095 13.588C12.9849 13.7109 12.8766 13.8391 12.768 13.9673C12.618 14.1453 12.468 14.3232 12.3132 14.4854C12.306 14.4124 12.3002 14.339 12.2958 14.2653C12.2826 14.0703 12.2685 13.8619 12.2142 13.7162C12.1068 13.5505 11.9247 13.6705 11.8107 13.7566C11.4105 14.0785 10.9878 14.2699 10.5657 14.4614C10.0569 14.692 9.54933 14.922 9.08373 15.3804C9.03873 15.4214 8.99673 15.4699 8.95563 15.5185C8.86173 15.6297 8.77203 15.7351 8.65503 15.7211C8.35353 15.7193 8.07093 15.9371 7.83273 16.2889C7.62273 16.5974 7.43913 16.9895 7.25613 17.3806C7.14243 17.6229 7.02903 17.8653 6.90993 18.0859C6.26343 19.317 5.66703 20.5784 5.29323 22.2087C5.20743 22.619 5.03913 22.8409 4.85433 23.0662C4.70793 23.2377 4.56393 23.4145 4.41993 23.5913L4.32603 23.706C4.36503 23.5035 4.41243 23.3074 4.45983 23.1113C4.50573 22.9211 4.55163 22.7308 4.59003 22.5341C4.59603 22.4463 4.59903 22.3574 4.59903 22.2684C4.46223 22.3761 4.33293 22.53 4.20393 22.6828C4.10553 22.7999 4.00743 22.9164 3.90693 23.0112C3.86838 23.0138 3.82982 23.0061 3.79233 22.9884C3.84903 22.8186 3.91113 22.6565 3.97293 22.4949C4.02213 22.3661 4.07103 22.2385 4.11753 22.1068C4.07913 22.0893 4.04043 22.0699 4.00083 22.0506C3.85383 21.9774 3.69963 21.9008 3.55233 21.9189C3.39063 21.9909 3.31233 22.2093 3.22833 22.444C3.20943 22.4967 3.18993 22.5505 3.16953 22.6038C3.16653 22.4932 3.16233 22.3819 3.15813 22.2701C3.14613 21.9517 3.13413 21.6292 3.14463 21.3136C3.14922 21.1653 3.1729 21.0216 3.21349 20.8959C3.25407 20.7701 3.31025 20.6664 3.37683 20.5942C3.60813 20.3337 3.84843 20.0996 4.08843 19.8649C4.26629 19.6935 4.44272 19.5165 4.61763 19.3339C4.76523 19.1759 4.88043 18.9634 5.00103 18.7415L5.01333 18.7181L5.48103 17.8565C5.81718 17.2402 6.15128 16.6197 6.48333 15.995C6.05138 15.6646 5.61599 15.3515 5.17743 15.0561C5.05413 14.9759 4.93563 14.8986 4.80153 14.9478C4.69323 14.9788 4.59993 15.1281 4.51383 15.2656L4.46043 15.3494C4.15636 15.8278 3.85376 16.3097 3.55263 16.7952C3.13353 17.4678 2.71473 18.1404 2.28753 18.7948C2.08293 19.1092 1.85703 19.3088 1.62453 19.5142C1.55523 19.5757 1.48503 19.6372 1.41513 19.7027L1.39563 19.65C1.32603 19.4639 1.26303 19.2947 1.14063 19.2221C0.86883 19.0477 0.54153 19.2409 0.26643 19.4036L0.18783 19.4493C0.27273 19.1823 0.35973 18.9183 0.44673 18.6543C0.562552 18.306 0.676061 17.9547 0.78723 17.6007C0.65823 17.6276 0.53013 17.661 0.40173 17.6943C0.29973 17.7213 0.19773 17.7476 0.0957301 17.771C0.0893182 17.7411 0.0828181 17.7112 0.0762301 17.6814C0.0228301 17.4356 -0.0299699 17.1915 0.0201301 16.9193C0.0870301 16.5845 0.26643 16.4241 0.42903 16.3123C0.72123 16.1191 1.01763 15.9476 1.31373 15.7755L1.51863 15.6567C1.62183 15.5975 1.70553 15.4723 1.79013 15.3464C1.81113 15.3148 1.83273 15.2832 1.85463 15.2522L1.91913 15.1585C2.58483 14.1903 3.25173 13.221 3.90723 12.227C4.07793 11.9759 4.21113 11.6762 4.34793 11.3683C4.37853 11.2992 4.40943 11.2295 4.44093 11.1605C4.09351 10.7985 3.74571 10.4379 3.39753 10.0787C2.99673 9.66428 2.59593 9.24984 2.19633 8.83189C2.18882 8.75373 2.18102 8.67568 2.17293 8.59774V8.59715C2.26293 8.5913 2.35293 8.58545 2.44293 8.57667C2.40393 8.27228 2.31153 8.03755 2.22093 7.8075C2.12403 7.56047 2.02893 7.3193 2.00403 7.0032C1.98393 6.61511 2.09523 6.35813 2.21283 6.08594L2.23323 6.03911L2.20293 5.80847C2.15681 5.47063 2.1141 5.13106 2.07483 4.78994C2.04423 4.60262 2.10333 4.38486 2.19543 4.31052C2.34963 4.15364 2.49573 3.99208 2.61063 3.72925C2.70723 3.5232 2.76183 3.2914 2.81733 3.05667C2.86263 2.86467 2.90853 2.67033 2.97843 2.48652C3.22743 1.78525 3.56943 1.34213 3.92523 0.880277L3.96963 0.822911C4.10883 0.637935 4.26033 0.51852 4.41513 0.396764L4.44933 0.369837L4.47813 0.475789L4.50693 0.582325C4.47333 0.642618 4.43853 0.70174 4.40403 0.761447C4.29693 0.944667 4.18803 1.13023 4.09953 1.34272C4.26963 1.21511 4.43073 1.04535 4.59183 0.875594C4.73343 0.726325 4.87473 0.577057 5.02263 0.456472C5.0423 0.5477 5.0621 0.638822 5.08203 0.729837C4.95483 0.967496 4.83303 1.21569 4.71153 1.4633C4.65753 1.57335 4.60353 1.68281 4.54953 1.79111C4.50873 1.86545 4.50393 1.94915 4.49853 2.04106C4.49703 2.07033 4.49553 2.10018 4.49253 2.1312C4.59123 2.02291 4.68183 1.89589 4.77303 1.76828C4.81683 1.7074 4.86063 1.64652 4.90533 1.58681L4.94943 1.73374L4.94973 1.73491L4.99353 1.88067C4.84263 2.02994 4.70103 2.18681 4.59153 2.44554C4.43193 2.80496 4.33413 3.29667 4.24113 3.76437C4.21113 3.91481 4.18173 4.06291 4.15113 4.20281C3.90123 5.41452 4.03143 6.74564 4.30653 7.89179C4.41033 8.21725 4.55553 8.31091 4.70553 8.40867C4.83453 8.49237 4.96803 8.57842 5.08293 8.81608C5.28153 8.56028 5.48193 8.31384 5.68293 8.06681C6.01233 7.66233 6.34203 7.25725 6.66153 6.81237C6.76413 6.67072 6.86283 6.51969 6.96183 6.36984C7.08333 6.18486 7.20483 6.00106 7.33263 5.8313C7.91703 5.04691 8.58663 4.46506 9.25983 4.03598C9.29013 4.0155 9.31983 3.99794 9.34893 3.98096C9.46233 3.91364 9.56673 3.85218 9.65403 3.66076C9.69783 3.58233 9.73923 3.4834 9.78183 3.38154C9.87243 3.16496 9.96723 2.93784 10.0956 2.88281C10.575 2.63696 11.07 2.4754 11.5596 2.31501L11.6706 2.27872C11.8161 2.22779 11.9631 2.22954 12.1125 2.23189C12.1935 2.23306 12.2745 2.23423 12.3564 2.2272C12.3647 2.13439 12.3556 2.03887 12.3309 1.95794C12.2098 1.91685 12.0883 1.88055 11.9664 1.84906C11.8713 1.8233 11.7762 1.79754 11.6814 1.76711C11.679 1.69423 11.6759 1.62144 11.6721 1.54876C12.3603 1.41706 13.0491 1.29354 13.7385 1.17003L14.4276 1.04594L14.4096 0.952277C14.3724 0.763789 14.3337 0.568276 14.3748 0.368667C14.4237 0.146228 14.5698 0.0689594 14.6808 0.0314959H14.6805ZM18.381 5.33198C18.6498 5.89042 18.9186 6.44945 19.179 7.02311C18.9255 7.28359 18.675 7.48496 18.3816 7.37901C18.1701 7.29237 18.0297 6.96164 17.9703 6.57003C17.8731 5.93081 17.9271 5.17394 17.9979 4.53179C18.1251 4.7993 18.2529 5.06564 18.381 5.33198ZM19.3899 10.7454C19.2147 10.4159 18.9006 10.1975 18.6603 10.2467C18.5649 10.2573 18.51 10.3708 18.4509 10.4932C18.4414 10.513 18.4318 10.5327 18.4221 10.5523C18.2691 10.8842 18.1134 11.2126 17.9559 11.5392C18.0543 11.7101 18.1539 11.8799 18.2529 12.0491C18.393 12.2891 18.5334 12.5285 18.6714 12.7726C18.8223 12.6215 18.974 12.4736 19.1265 12.3289C19.1131 12.4226 19.0985 12.5157 19.0827 12.6081C19.0533 12.7878 19.0233 12.9687 19.0116 13.1525C18.9969 13.3298 19.0992 13.2403 19.1385 13.187C19.2198 13.0939 19.2972 12.9868 19.3743 12.8791C19.4709 12.7451 19.5675 12.611 19.6719 12.5056C19.7028 12.5086 19.7268 12.556 19.7433 12.6479C19.6617 12.8528 19.5678 13.0395 19.4739 13.2256C19.4283 13.3164 19.3827 13.4071 19.3389 13.499L19.3683 13.581C19.4364 13.7724 19.5183 14.0024 19.6509 13.9298C19.7418 13.8614 19.8138 13.7554 19.8843 13.6512C19.9887 13.4973 20.0904 13.3468 20.2485 13.3275C20.2155 13.564 20.172 13.7934 20.1288 14.0241C20.1021 14.1663 20.0754 14.3086 20.0508 14.4532L20.0529 14.4578C20.1558 14.7095 20.2704 14.9905 20.4564 14.9378C20.5821 14.8816 20.6913 14.747 20.8014 14.6112C20.8944 14.4971 20.9886 14.3812 21.0936 14.3115C21.0566 14.634 21.0156 14.9547 20.9706 15.2733C20.9481 15.4377 20.9256 15.6022 20.9043 15.7673C21.0555 15.7977 21.2073 15.8241 21.3588 15.8504L21.6066 15.8937L21.546 16.0623C21.4851 16.2297 21.4242 16.3977 21.3684 16.5722C21.672 16.821 22.0434 16.7548 22.3332 16.4662C22.4649 16.3398 22.5048 16.0857 22.5447 15.8329C22.5538 15.7738 22.5636 15.7153 22.5741 15.6573L22.5366 15.6514C22.4874 15.6432 22.4415 15.6356 22.3938 15.6842C22.3068 15.7579 22.2204 15.8375 22.1346 15.9177C22.0239 16.0196 21.9135 16.1226 21.8004 16.2128C21.8346 16.0254 21.8778 15.844 21.921 15.6637C21.9708 15.4553 22.0203 15.2481 22.056 15.0309C22.0305 14.9086 21.9168 14.8278 21.834 14.7693L21.7848 14.7335C21.6705 14.6358 21.5619 14.8044 21.4617 14.9595C21.4197 15.0251 21.3789 15.0883 21.3399 15.1281L21.2832 15.0274C21.312 14.85 21.3516 14.6785 21.3906 14.5082C21.4071 14.4356 21.4236 14.363 21.4395 14.2904C21.4293 14.2685 21.4191 14.2464 21.4089 14.2243C21.3207 14.0334 21.2388 13.8561 21.0927 13.8409C20.9646 13.8584 20.8635 14.013 20.7657 14.1616L20.7237 14.226C20.628 14.3747 20.5209 14.4678 20.4102 14.5638C20.372 14.5968 20.334 14.6307 20.2962 14.6656L20.2377 14.5732L20.2056 14.5222C20.2386 14.3759 20.2734 14.2307 20.3085 14.0844C20.3862 13.7607 20.4645 13.4352 20.5227 13.0992C20.5746 12.8475 20.5386 12.5466 20.448 12.3464C20.2179 12.2299 20.043 12.4629 19.866 12.6976L19.8225 12.755C19.8372 12.6877 19.8543 12.6157 19.8723 12.5414C19.9368 12.2738 20.0097 11.9712 19.9884 11.7008C19.9503 11.394 19.8201 11.3226 19.686 11.2494C19.6705 11.2411 19.655 11.2325 19.6395 11.2237C19.566 11.2032 19.5174 11.0686 19.47 10.9369C19.447 10.8675 19.4202 10.8033 19.3899 10.7454Z" fill="black"/>
<path d="M19.2047 20.5013C19.3472 20.4954 19.4135 20.952 19.4705 21.151C19.7546 21.0643 20.0391 20.9837 20.324 20.9093L20.3585 21.1791C19.5191 21.8558 18.6812 22.5407 17.8391 23.2045L17.7695 22.9382C18.1949 22.3856 18.6431 21.9278 19.0979 21.4783C18.9464 21.3302 18.7919 21.1949 18.6398 21.0509C18.8078 20.8443 19.0034 20.5399 19.2047 20.5013Z" fill="black"/>
</g>
<defs>
<clipPath id="clip0_0_1143">
<rect width="24" height="24" fill="white"/>
</clipPath>
</defs>
</svg>
