<svg width="16" height="13" viewBox="0 0 16 13" fill="none" xmlns="http://www.w3.org/2000/svg">
<path d="M15.893 8.96658C15.893 10.0434 15.6972 11.1203 15.3057 12.0992C15.1099 12.5887 14.6204 12.7845 14.1309 12.5887C13.6414 12.3929 13.4456 11.9034 13.6414 11.414C14.3267 9.74974 14.2288 7.79183 13.4456 6.12761C12.6625 4.36549 11.0962 2.89706 9.23614 2.2118C7.86561 1.72232 6.29928 1.82021 4.92874 2.40759C3.55821 3.09285 2.57925 4.1697 2.08978 5.54024C1.30661 7.79183 2.48136 10.2392 4.73295 11.0224C5.51612 11.3161 6.39717 11.3161 7.18034 10.9245C7.9635 10.5329 8.55087 9.84763 8.84456 9.06447C9.33403 7.79183 8.64877 6.4213 7.37613 5.93182C6.88665 5.73603 6.49507 5.83392 6.00559 6.02971C5.61401 6.2255 5.22243 6.61709 5.12453 7.00867C4.92874 7.59604 4.43927 7.79183 3.94979 7.59604C3.46031 7.40025 3.26452 6.91077 3.36242 6.4213C4.04768 4.56128 6.10349 3.58233 7.8656 4.2676C10.0193 5.05076 11.194 7.49815 10.4109 9.65184C9.92141 10.9245 9.04035 11.9034 7.8656 12.4908C6.69086 13.0782 5.32032 13.1761 4.04768 12.6866C0.915031 11.5119 -0.74919 8.08552 0.32766 4.95287C1.01293 3.09285 2.38346 1.62442 4.14558 0.743365C5.9077 -0.137694 7.9635 -0.235588 9.82351 0.449679C12.173 1.23284 14.033 2.99496 15.1099 5.24655C15.5993 6.51919 15.893 7.79183 15.893 8.96658Z" fill="#575869"/>
</svg>
