<svg width="36" height="36" viewBox="0 0 36 36" fill="none" xmlns="http://www.w3.org/2000/svg">
<path d="M0 10.2206C0 6.71979 0 4.96937 0.659634 3.62289C1.29121 2.33369 2.33369 1.29121 3.62289 0.659634C4.96937 0 6.71979 0 10.2206 0H25.7794C29.2802 0 31.0306 0 32.3771 0.659634C33.6663 1.29121 34.7088 2.33369 35.3404 3.62289C36 4.96937 36 6.71979 36 10.2206V25.7794C36 29.2802 36 31.0306 35.3404 32.3771C34.7088 33.6663 33.6663 34.7088 32.3771 35.3404C31.0306 36 29.2802 36 25.7794 36H10.2206C6.71979 36 4.96937 36 3.62289 35.3404C2.33369 34.7088 1.29121 33.6663 0.659634 32.3771C0 31.0306 0 29.2802 0 25.7794V10.2206Z" fill="#2E2F3F"/>
</svg>
