<svg width="13" height="16" viewBox="0 0 13 16" fill="none" xmlns="http://www.w3.org/2000/svg">
<path d="M8.96672 -3.03904e-05C10.0435 -3.02962e-05 11.1203 0.195755 12.0993 0.587322C12.5887 0.783107 12.7845 1.27257 12.5887 1.76202C12.3929 2.25148 11.9035 2.44727 11.414 2.25148C9.74986 1.56624 7.79202 1.66413 6.12786 2.44727C4.3658 3.2304 2.89742 4.79667 2.21218 6.65662C1.72272 8.02711 1.82061 9.59338 2.40796 10.9639C3.09321 12.3344 4.17002 13.3133 5.5405 13.8027C7.79202 14.5859 10.2393 13.4112 11.0224 11.1596C11.3161 10.3765 11.3161 9.49548 10.9246 8.71235C10.533 7.92921 9.84775 7.34186 9.06461 7.04819C7.79202 6.55873 6.42153 7.24397 5.93207 8.51657C5.73629 9.00603 5.83418 9.39759 6.02996 9.88705C6.22575 10.2786 6.61731 10.6702 7.00888 10.7681C7.59623 10.9639 7.79202 11.4533 7.59623 11.9428C7.40045 12.4322 6.91099 12.628 6.42153 12.5301C4.56159 11.8449 3.58267 9.78916 4.26791 8.02711C5.05105 5.87349 7.49834 4.69878 9.65196 5.48192C10.9246 5.97138 11.9035 6.8524 12.4908 8.02711C13.0782 9.20181 13.1761 10.5723 12.6866 11.8449C11.5119 14.9774 8.08569 16.6416 4.95315 15.5648C3.09321 14.8795 1.62483 13.5091 0.743803 11.747C-0.137224 9.98494 -0.235115 7.92921 0.450127 6.06927C1.23326 3.71986 2.99532 1.85991 5.24683 0.783104C6.51942 0.293645 7.79202 -3.04931e-05 8.96672 -3.03904e-05Z" fill="#575869"/>
</svg>
