<svg width="24" height="24" viewBox="0 0 24 24" fill="none" xmlns="http://www.w3.org/2000/svg">
<path d="M20 6.53917C19.4118 6.80062 18.7788 6.97698 18.1146 7.0559C18.7928 6.64992 19.3127 6.00684 19.558 5.23969C18.9237 5.61612 18.2215 5.88927 17.4735 6.03672C16.8749 5.39884 16.0217 5 15.0775 5C13.2649 5 11.7952 6.46966 11.7952 8.28263C11.7952 8.53953 11.8241 8.78994 11.8803 9.03061C9.1521 8.89355 6.73309 7.58693 5.11402 5.60086C4.83146 6.08544 4.66971 6.64927 4.66971 7.25143C4.66971 8.39013 5.24913 9.39502 6.12996 9.98354C5.59211 9.96632 5.08576 9.81855 4.64308 9.57268C4.64275 9.58632 4.64275 9.60029 4.64275 9.61425C4.64275 11.2044 5.77431 12.5308 7.27613 12.8329C7.00071 12.9076 6.71068 12.9479 6.41122 12.9479C6.19946 12.9479 5.99387 12.9274 5.79348 12.8888C6.21148 14.1928 7.42358 15.1421 8.85979 15.1684C7.73635 16.0489 6.32126 16.5738 4.78306 16.5738C4.51836 16.5738 4.25691 16.5582 4 16.5277C5.4531 17.4595 7.17837 18.0025 9.03193 18.0025C15.0701 18.0025 18.3715 13.0008 18.3715 8.66295C18.3715 8.5207 18.3686 8.37876 18.3624 8.23781C19.0036 7.77596 19.5602 7.19751 20 6.53917Z" fill="white"/>
</svg>
