<svg width="113" height="134" viewBox="0 0 113 134" fill="none" xmlns="http://www.w3.org/2000/svg">
<path d="M52.9701 7.34405C54.9785 6.18716 57.4529 6.18716 59.4613 7.34405L109.186 35.9868C111.194 37.1437 112.431 39.2817 112.431 41.5955V98.8809C112.431 101.195 111.194 103.333 109.186 104.49L59.4613 133.132C57.4529 134.289 54.9785 134.289 52.9701 133.132L3.24561 104.49C1.23722 103.333 0 101.195 0 98.8809V41.5955C0 39.2817 1.23722 37.1437 3.24562 35.9868L52.9701 7.34405Z" fill="#1F212F"/>
<path d="M52.9701 13.8204C54.9785 12.6635 57.453 12.6635 59.4614 13.8204L97.9427 35.9868C99.9511 37.1437 101.188 39.2817 101.188 41.5955V85.9282C101.188 88.242 99.9511 90.38 97.9427 91.5369L59.4614 113.703C57.453 114.86 54.9785 114.86 52.9701 113.703L14.4888 91.5369C12.4804 90.38 11.2432 88.242 11.2432 85.9282V41.5955C11.2432 39.2817 12.4804 37.1437 14.4888 35.9868L52.9701 13.8204Z" fill="#229AAA"/>
<path fill-rule="evenodd" clip-rule="evenodd" d="M59.4614 13.8204C57.453 12.6635 54.9785 12.6635 52.9701 13.8204L14.4888 35.9867C12.4804 37.1436 11.2432 39.2817 11.2432 41.5954V84.2848C22.7543 72.8048 38.6539 65.7047 56.2157 65.7047C73.7775 65.7047 89.6772 72.8048 101.188 84.2849V41.5954C101.188 39.2817 99.9511 37.1436 97.9427 35.9867L59.4614 13.8204Z" fill="#17818F"/>
<path d="M52.9581 13.8366C54.9726 12.6705 57.4589 12.6705 59.4734 13.8366L106.281 40.9326C107.147 41.4337 107.68 42.3567 107.68 43.3552C107.68 45.514 105.335 46.8613 103.463 45.7779L59.4734 20.313C57.4589 19.1468 54.9726 19.1468 52.9581 20.313L8.96812 45.7779C7.09658 46.8613 4.75195 45.514 4.75195 43.3552C4.75195 42.3567 5.28475 41.4337 6.15041 40.9326L52.9581 13.8366Z" fill="#1F202F" fill-opacity="0.3"/>
<path fill-rule="evenodd" clip-rule="evenodd" d="M59.4613 0.86767C57.4529 -0.289222 54.9785 -0.289224 52.9701 0.867668L3.24562 29.5104C1.23722 30.6673 0 32.8053 0 35.1191V92.4045C0 94.7183 1.23722 96.8563 3.24561 98.0132L52.9701 126.656C54.9785 127.813 57.4529 127.813 59.4613 126.656L109.186 98.0132C111.194 96.8563 112.431 94.7183 112.431 92.4045V35.1191C112.431 32.8053 111.194 30.6673 109.186 29.5104L59.4613 0.86767ZM59.4613 13.8204C57.4529 12.6635 54.9785 12.6635 52.9701 13.8204L14.4888 35.9868C12.4804 37.1437 11.2431 39.2817 11.2431 41.5955V85.9282C11.2431 88.242 12.4804 90.38 14.4888 91.5369L52.9701 113.703C54.9785 114.86 57.4529 114.86 59.4613 113.703L97.9427 91.5369C99.9511 90.38 101.188 88.242 101.188 85.9282V41.5955C101.188 39.2817 99.9511 37.1437 97.9427 35.9868L59.4613 13.8204Z" fill="#5D6081"/>
<path fill-rule="evenodd" clip-rule="evenodd" d="M52.9701 0.867668C54.9785 -0.289224 57.4529 -0.289222 59.4613 0.86767L109.186 29.5104C111.194 30.6673 112.431 32.8053 112.431 35.1191V44.3327H101.188V41.5955C101.188 39.2817 99.9511 37.1437 97.9427 35.9868L59.4613 13.8204C57.4529 12.6635 54.9785 12.6635 52.9701 13.8204L14.4888 35.9868C12.4804 37.1437 11.2431 39.2817 11.2431 41.5955V44.3327H0V35.1191C0 32.8053 1.23722 30.6673 3.24562 29.5104L52.9701 0.867668Z" fill="#7275A0"/>
<path d="M68.854 90.9626H42.8745V84.1131L55.6655 60.6805C57.0626 58.133 57.7612 54.6481 57.7612 50.226C57.7612 47.9188 56.9903 46.7652 55.4487 46.7652C53.8588 46.7652 53.0639 47.4862 53.0639 48.9282V57.7965H42.8745V48.784C42.8745 42.1267 47.1622 38.7981 55.7377 38.7981C61.0372 38.7981 64.5421 40.0238 66.2524 42.4752C67.9868 44.9026 68.854 48.9041 68.854 54.4799C68.854 56.6669 68.4806 58.4694 67.7338 59.8874L54.9428 84.3294H68.854V90.9626Z" fill="#282936"/>
</svg>
