<svg width="24" height="24" viewBox="0 0 24 24" fill="none" xmlns="http://www.w3.org/2000/svg">
<g clip-path="url(#clip0_0_1657)">
<path d="M4.08569 9.83386L12 12.4573L19.9143 9.83386L12 7.21045L4.08569 9.83386Z" fill="white"/>
<path d="M21.8474 10.6748L13.0732 13.5833L15.2223 16.9969L23.9965 14.0884L21.8474 10.6748Z" fill="white"/>
<path d="M11.2967 15.6348L9.38069 18.6782L2.55396 16.4153V21.102L11.2967 24.0001V15.6348Z" fill="white"/>
<path d="M14.6191 18.6782L12.7031 15.6348V24.0001L21.4459 21.102V16.4153L14.6191 18.6782Z" fill="white"/>
<path d="M8.77762 16.9969L10.9267 13.5833L2.1525 10.6748L0.00341797 14.0884L8.77762 16.9969Z" fill="white"/>
<path d="M11.2969 0H12.7031V4.69566H11.2969V0Z" fill="white"/>
<path d="M4.68359 2.14893L5.90141 1.4458L8.24923 5.51224L7.03142 6.21536L4.68359 2.14893Z" fill="white"/>
<path d="M15.7502 5.5127L18.0981 1.44626L19.3159 2.14938L16.9681 6.21582L15.7502 5.5127Z" fill="white"/>
</g>
<defs>
<clipPath id="clip0_0_1657">
<rect width="24" height="24" fill="white"/>
</clipPath>
</defs>
</svg>
