<svg width="24" height="24" viewBox="0 0 24 24" fill="none" xmlns="http://www.w3.org/2000/svg">
<path d="M13.7559 12.5C13.7559 13.7439 12.7439 14.7559 11.5 14.7559C10.2561 14.7559 9.24411 13.7439 9.24411 12.5C9.24411 11.2561 10.2561 10.2441 11.5 10.2441C12.7439 10.2441 13.7559 11.2561 13.7559 12.5ZM11.5 5C7.36429 5 4 8.36429 4 12.5C4 16.6357 7.36429 20 11.5 20C13.015 20 14.4759 19.5489 15.7246 18.6955L15.7461 18.6805L14.7357 17.5062L14.7186 17.517C13.7575 18.1357 12.6443 18.4625 11.5 18.4625C8.21232 18.4625 5.5375 15.7877 5.5375 12.5C5.5375 9.21232 8.21232 6.5375 11.5 6.5375C14.7877 6.5375 17.4625 9.21232 17.4625 12.5C17.4625 12.9259 17.4148 13.3571 17.3221 13.7814C17.1336 14.5555 16.5914 14.7923 16.1848 14.7613C15.7755 14.728 15.2966 14.4366 15.2934 13.723V13.1793V12.5C15.2934 10.408 13.592 8.70661 11.5 8.70661C9.40804 8.70661 7.70661 10.408 7.70661 12.5C7.70661 14.592 9.40804 16.2934 11.5 16.2934C12.5162 16.2934 13.4693 15.8964 14.1877 15.1737C14.6055 15.8241 15.2864 16.2318 16.0616 16.2939C16.128 16.2993 16.1961 16.302 16.263 16.302C16.8089 16.302 17.3495 16.1193 17.7855 15.7887C18.235 15.447 18.5709 14.9536 18.7562 14.3605C18.7857 14.2646 18.8404 14.0455 18.8404 14.0439L18.842 14.0359C18.9513 13.5602 19 13.0861 19 12.5C19 8.36429 15.6357 5 11.5 5Z" fill="white"/>
</svg>
