<svg width="24" height="24" viewBox="0 0 24 24" fill="none" xmlns="http://www.w3.org/2000/svg">
<g clip-path="url(#clip0_0_1124)">
<path d="M14.5395 23.7479C12.5258 24.1564 10.443 24.0675 8.4714 23.489C8.3556 23.4668 8.3454 23.3975 8.3763 23.2979C8.5257 22.8143 8.6688 22.3289 8.8173 21.8453C8.9739 21.3359 9.1251 20.825 9.285 20.3165C9.3246 20.1902 9.2931 20.1371 9.1662 20.0972C8.03224 19.7416 6.98211 19.1599 6.0792 18.3872C5.9241 18.2552 5.7681 18.1214 5.6259 17.9744C5.5461 17.8922 5.4879 17.8772 5.4018 17.9681C5.0463 18.3431 4.6572 18.6851 4.2936 19.0511C3.9405 19.4069 3.561 19.7351 3.2124 20.0933C3.1581 20.1491 3.102 20.2223 3.0051 20.1659C2.21172 19.3287 1.53739 18.3863 1.0011 17.3651C0.562884 16.5311 0.226761 15.6474 0 14.7329C0.0462 14.6429 0.138 14.6369 0.2193 14.6159C1.1535 14.3825 2.0874 14.1455 3.0201 13.9139C3.0672 13.9025 3.1137 13.8881 3.1611 13.8788C3.2766 13.8554 3.3045 13.787 3.2799 13.6778C3.2053 13.3526 3.15714 13.0218 3.1359 12.6887C3.10739 12.2217 3.10839 11.7534 3.1389 11.2865C3.1818 10.7447 3.2805 10.2086 3.4335 9.68694C3.4845 9.50424 3.4656 9.48534 3.261 9.42384C2.2977 9.13463 1.3359 8.83884 0.3741 8.54424C0.1251 8.46804 0.1263 8.46534 0.2091 8.21214C0.2241 8.16654 0.2409 8.12154 0.2571 8.07594C0.544855 7.24802 0.919442 6.45289 1.3746 5.70384C1.92803 4.80528 2.59929 3.98489 3.3705 3.26454C3.4137 3.22434 3.4566 3.18174 3.4965 3.14004C3.5916 3.07884 3.6342 3.16794 3.6765 3.21534C3.9789 3.55224 4.2804 3.88314 4.5822 4.22154C4.9626 4.64634 5.3418 5.07204 5.7312 5.48934C5.9526 5.72664 5.9577 5.72394 6.2106 5.52144C7.21822 4.70421 8.39798 4.12602 9.6612 3.83034C9.7932 3.79974 9.8061 3.73584 9.78 3.62304C9.6021 2.84094 9.4428 2.05494 9.2664 1.27254C9.2148 1.04154 9.1773 0.806936 9.1188 0.577436C9.0423 0.280136 9.0507 0.268436 9.3393 0.222836C11.3146 -0.153199 13.3511 -0.0524071 15.2796 0.516836C15.3726 0.556736 15.3456 0.629636 15.3228 0.695336C15.1263 1.32084 14.9475 1.95234 14.7513 2.57904C14.6223 2.99004 14.5065 3.40464 14.3757 3.81444C14.3235 3.97794 14.3325 3.99264 14.4957 4.04694C15.5195 4.38769 16.4711 4.91576 17.3019 5.60424C17.5132 5.77184 17.712 5.95463 17.8968 6.15114C17.9802 6.24294 18.0525 6.24714 18.1386 6.15414C18.4131 5.85804 18.7266 5.60214 19.0083 5.31294C19.4922 4.81524 20.0139 4.35684 20.4993 3.86034C20.5422 3.81474 20.5854 3.72384 20.6805 3.78504C21.7011 4.8464 22.5241 6.08136 23.1108 7.43184C23.3573 7.99766 23.559 8.58196 23.7141 9.17934C23.7711 9.25823 23.6931 9.26934 23.6529 9.28854C23.5479 9.33084 23.4393 9.36294 23.328 9.38364C22.3857 9.60773 21.45 9.85764 20.5095 10.0913C20.0976 10.1924 20.1888 10.1876 20.2431 10.5041C20.3133 10.9112 20.3607 11.2799 20.3607 11.7362V12.4853C20.3607 12.9599 20.3067 13.3853 20.2152 13.8278C20.1858 13.97 20.1504 14.1119 20.1084 14.2508C20.0724 14.3684 20.1024 14.4281 20.2248 14.4632C20.7267 14.6063 21.2247 14.7647 21.7248 14.9138C22.2981 15.0863 22.8714 15.2537 23.4414 15.4328C23.5113 15.455 23.5917 15.47 23.5917 15.5705C23.3247 16.4221 22.9663 17.2423 22.5228 18.0167C21.916 19.0652 21.1518 20.0143 20.2569 20.8307C20.1813 20.9006 20.1309 20.8355 20.0808 20.7935C19.9359 20.6711 19.8243 20.5172 19.6986 20.3777C19.2414 19.8701 18.7794 19.3673 18.3246 18.8573C18.1566 18.6686 17.9892 18.4793 17.8152 18.2972C17.7396 18.2174 17.6883 18.2297 17.6139 18.2951C17.1109 18.7429 16.5577 19.1309 15.9654 19.4513C15.393 19.7629 14.7864 20.0073 14.1579 20.1797C13.9155 20.2448 13.9116 20.2436 13.965 20.4965C14.1741 21.4811 14.3904 22.4639 14.5998 23.4485C14.6109 23.5013 14.6178 23.5547 14.6295 23.6072C14.6472 23.6846 14.6175 23.7302 14.5395 23.7476V23.7479Z" fill="#243171"/>
<path d="M10.0093 8.27461C9.5689 8.36761 9.16181 8.53651 8.86211 8.88181C8.46191 9.34231 8.38181 9.88231 8.62961 10.4304C8.87741 10.9785 9.38051 11.1435 9.94601 11.1573C10.27 11.1492 10.5922 11.1573 10.9171 11.154C10.9666 11.1039 10.942 11.0415 10.9426 10.9854C10.9459 9.62851 10.9504 8.27071 10.9474 6.91441C10.9474 6.76861 10.9819 6.72481 11.1331 6.72601C12.1672 6.73471 13.2013 6.72031 14.2354 6.74011C14.7478 6.75001 15.2032 6.97861 15.6376 7.23271C16.5067 7.74121 16.9612 8.51161 17.0596 9.50581C17.1613 10.5219 16.8274 11.3556 16.0375 12.0048C15.9805 12.0519 15.9175 12.0864 16.0246 12.1548C16.9726 12.7581 17.2984 13.9452 16.9549 15.042C16.528 16.4028 15.5608 17.1141 14.1859 17.3256C14.0374 17.3484 13.8844 17.3526 13.7365 17.3745C13.6453 17.3883 13.6255 17.3535 13.6261 17.2704C13.6297 16.8021 13.6306 16.3335 13.6288 15.8649C13.6288 15.7788 13.6528 15.7479 13.7428 15.7359C14.2828 15.6528 14.737 15.4194 15.0358 14.9451C15.3148 14.5017 15.4258 14.0376 15.094 13.5726C14.7793 13.1325 14.344 12.8832 13.7977 12.8655C13.4698 12.8538 13.1407 12.8745 12.8128 12.8655C12.667 12.8616 12.6208 12.9009 12.6202 13.0515C12.6142 14.2038 12.5992 15.3561 12.5863 16.5078C12.5833 16.7556 12.5734 17.0028 12.5731 17.2503C12.5731 17.3442 12.5503 17.3835 12.4459 17.3793C11.6496 17.3565 10.8532 17.3362 10.0567 17.3184C9.70691 17.3094 9.35741 17.301 9.00731 17.2908C8.95931 17.2917 8.91131 17.2836 8.86631 17.2671C8.01161 16.8888 7.26731 16.3743 6.79031 15.5436C6.50981 15.0546 6.43121 14.526 6.50861 13.968C6.56771 13.5441 6.64451 13.1301 6.89291 12.7662C7.0599 12.5142 7.27526 12.2978 7.52651 12.1296C7.63721 12.0567 7.62581 12.0153 7.53191 11.9313C7.03031 11.4831 6.65591 10.9503 6.52631 10.2789C6.39401 9.59491 6.58631 8.96161 6.90191 8.36731C7.44401 7.35181 8.32091 6.84361 9.45491 6.75451C9.6274 6.73051 9.7999 6.74551 9.9721 6.74641C9.99128 6.76102 10.0062 6.78049 10.0153 6.8028C10.0244 6.82511 10.0274 6.84945 10.024 6.87331C10.0273 7.27831 10.0273 7.68331 10.024 8.08831C10.025 8.12562 10.0151 8.16241 9.99551 8.19421C10.0027 8.20801 10.0096 8.22151 10.018 8.23471C10.0214 8.24135 10.0224 8.249 10.0208 8.2563C10.0191 8.26359 10.015 8.27008 10.009 8.27461H10.0093Z" fill="#EE412C"/>
<path d="M9.9791 6.75719L9.4541 6.75299C9.6473 6.70319 9.842 6.72329 10.0394 6.72899C10.0826 6.77189 10.0754 6.82769 10.0754 6.88019V8.09999C10.0754 8.15129 10.1051 8.22449 10.0172 8.24429H10.0076C9.9851 7.80689 10.004 7.36919 9.9968 6.93179C9.9941 6.87359 10.0106 6.81389 9.9791 6.75719Z" fill="#EE412C"/>
<path d="M10.0153 8.24579C10.045 8.22299 10.0429 8.18999 10.0429 8.15969C10.0429 7.68389 10.0417 7.20809 10.0393 6.73229L10.0747 6.72839C10.1122 6.85979 10.0885 6.99359 10.0903 7.12649C10.0945 7.45859 10.0924 7.79129 10.0903 8.12369C10.0903 8.17529 10.108 8.23079 10.0717 8.27909L10.0078 8.27699C10.0087 8.26628 10.0113 8.25576 10.0153 8.24579Z" fill="#EE412C"/>
<path d="M10.0723 8.27701L10.075 6.72601C10.1182 6.75661 10.108 6.80191 10.108 6.84361V8.16061C10.108 8.20321 10.117 8.24881 10.0723 8.27731V8.27701Z" fill="#EE412C"/>
<path d="M10.9337 14.3103C10.9337 14.7303 10.9307 15.1494 10.9358 15.5691C10.9358 15.678 10.9088 15.72 10.7924 15.7176C10.3784 15.7107 9.96377 15.7176 9.54977 15.7116C9.07217 15.7032 8.53097 15.1896 8.43977 14.6841C8.39147 14.4186 8.41877 14.1549 8.45987 13.8981C8.52017 13.5213 8.79587 13.2975 9.11477 13.128C9.39797 12.9777 9.69377 12.8808 10.025 12.9057C10.283 12.9207 10.5422 12.9216 10.8005 12.9087C10.9268 12.9048 10.9571 12.9519 10.9526 13.068C10.9448 13.278 10.9505 13.488 10.9505 13.6977V14.31H10.9337V14.3103ZM12.6551 9.69959C12.6551 9.27989 12.6581 8.86019 12.6551 8.44049C12.6551 8.33249 12.6806 8.28809 12.7982 8.29049C13.1477 8.29799 13.4993 8.27039 13.8467 8.30159C14.2961 8.34119 15.0455 8.71049 15.1289 9.27479C15.2006 9.75929 15.2363 10.2474 14.8643 10.6473C14.5844 10.9488 14.2475 11.1369 13.8023 11.0979C13.5012 11.0697 13.1982 11.0697 12.8972 11.0979C12.6752 11.1204 12.6341 11.0655 12.6389 10.8921C12.6491 10.4946 12.6422 10.0965 12.6422 9.699L12.6551 9.69959Z" fill="#243171"/>
</g>
<defs>
<clipPath id="clip0_0_1124">
<rect width="24" height="24" fill="white"/>
</clipPath>
</defs>
</svg>
