<svg width="113" height="134" viewBox="0 0 113 134" fill="none" xmlns="http://www.w3.org/2000/svg">
<path d="M52.9701 7.34405C54.9785 6.18716 57.4529 6.18716 59.4613 7.34405L109.186 35.9868C111.194 37.1437 112.431 39.2817 112.431 41.5955V98.8809C112.431 101.195 111.194 103.333 109.186 104.49L59.4613 133.132C57.4529 134.289 54.9785 134.289 52.9701 133.132L3.24561 104.49C1.23722 103.333 0 101.195 0 98.8809V41.5955C0 39.2817 1.23722 37.1437 3.24562 35.9868L52.9701 7.34405Z" fill="#1F212F"/>
<path d="M52.9701 13.8204C54.9785 12.6635 57.453 12.6635 59.4614 13.8204L97.9427 35.9868C99.9511 37.1437 101.188 39.2817 101.188 41.5955V85.9282C101.188 88.242 99.9511 90.38 97.9427 91.5369L59.4614 113.703C57.453 114.86 54.9785 114.86 52.9701 113.703L14.4888 91.5369C12.4804 90.38 11.2432 88.242 11.2432 85.9282V41.5955C11.2432 39.2817 12.4804 37.1437 14.4888 35.9868L52.9701 13.8204Z" fill="#CB9D65"/>
<path fill-rule="evenodd" clip-rule="evenodd" d="M59.4614 13.8204C57.453 12.6635 54.9785 12.6635 52.9701 13.8204L14.4888 35.9868C12.4804 37.1437 11.2432 39.2817 11.2432 41.5955V84.2848C22.7543 72.8048 38.6539 65.7047 56.2157 65.7047C73.7775 65.7047 89.6772 72.8049 101.188 84.2849V41.5955C101.188 39.2817 99.9511 37.1437 97.9427 35.9868L59.4614 13.8204Z" fill="#B47E3E"/>
<path d="M52.9581 13.8366C54.9726 12.6705 57.4589 12.6705 59.4734 13.8366L106.281 40.9326C107.147 41.4338 107.68 42.3568 107.68 43.3553C107.68 45.5141 105.335 46.8613 103.463 45.7779L59.4734 20.313C57.4589 19.1469 54.9726 19.1469 52.9581 20.313L8.96812 45.7779C7.09658 46.8613 4.75195 45.5141 4.75195 43.3553C4.75195 42.3568 5.28475 41.4338 6.15041 40.9326L52.9581 13.8366Z" fill="#1F202F" fill-opacity="0.3"/>
<path fill-rule="evenodd" clip-rule="evenodd" d="M59.4613 0.86767C57.4529 -0.289222 54.9785 -0.289224 52.9701 0.867668L3.24562 29.5104C1.23722 30.6673 0 32.8053 0 35.1191V92.4045C0 94.7183 1.23722 96.8563 3.24561 98.0132L52.9701 126.656C54.9785 127.813 57.4529 127.813 59.4613 126.656L109.186 98.0132C111.194 96.8563 112.431 94.7183 112.431 92.4045V35.1191C112.431 32.8053 111.194 30.6673 109.186 29.5104L59.4613 0.86767ZM59.4613 13.8204C57.4529 12.6635 54.9785 12.6635 52.9701 13.8204L14.4888 35.9868C12.4804 37.1437 11.2431 39.2817 11.2431 41.5955V85.9282C11.2431 88.242 12.4804 90.38 14.4888 91.5369L52.9701 113.703C54.9785 114.86 57.4529 114.86 59.4613 113.703L97.9427 91.5369C99.9511 90.38 101.188 88.242 101.188 85.9282V41.5955C101.188 39.2817 99.9511 37.1437 97.9427 35.9868L59.4613 13.8204Z" fill="#5D6081"/>
<path d="M87.5003 57.4082L89.126 60.8016C89.1967 61.0052 89.4087 61.1409 89.6208 61.2088L93.2964 61.7517C93.9325 61.7517 94.1446 62.4304 93.7205 62.8376L91.0345 65.4845C90.8931 65.6202 90.8224 65.8917 90.8224 66.0953L91.4586 69.7602C91.5293 70.3031 90.9638 70.7782 90.469 70.5067L87.1469 68.7422C86.9348 68.6064 86.7227 68.6064 86.5107 68.7422L83.1885 70.5067C82.6937 70.7782 82.0576 70.371 82.199 69.7602L82.8351 66.0953C82.9058 65.8917 82.7644 65.6202 82.6231 65.4845L79.9371 62.8376C79.5836 62.4304 79.7957 61.7517 80.3612 61.6839L84.0367 61.1409C84.2488 61.1409 84.4609 60.9373 84.5315 60.7337L86.1573 57.3403C86.5107 56.8652 87.2175 56.8652 87.5003 57.4082Z" fill="#87623A"/>
<path d="M27.8588 57.4082L29.4845 60.8016C29.5552 61.0052 29.7673 61.1409 29.9793 61.2088L33.6549 61.7517C34.2911 61.7517 34.5031 62.4304 34.079 62.8376L31.393 65.4845C31.2516 65.6202 31.181 65.8917 31.181 66.0953L31.8171 69.7602C31.8878 70.3031 31.3223 70.7782 30.8275 70.5067L27.5054 68.7422C27.2933 68.6064 27.0813 68.6064 26.8692 68.7422L23.5471 70.5067C23.0523 70.7782 22.4161 70.371 22.5575 69.7602L23.1936 66.0953C23.2643 65.8917 23.123 65.6202 22.9816 65.4845L20.2956 62.8376C19.9422 62.4304 20.1542 61.7517 20.7197 61.6839L24.3953 61.1409C24.6073 61.1409 24.8194 60.9373 24.8901 60.7337L26.5158 57.3403C26.8692 56.8652 27.5761 56.8652 27.8588 57.4082Z" fill="#87623A"/>
<path fill-rule="evenodd" clip-rule="evenodd" d="M52.9701 0.867668C54.9785 -0.289224 57.4529 -0.289222 59.4613 0.86767L109.186 29.5104C111.194 30.6673 112.431 32.8053 112.431 35.1191V44.3327H101.188V41.5955C101.188 39.2817 99.9511 37.1437 97.9427 35.9868L59.4613 13.8204C57.4529 12.6635 54.9785 12.6635 52.9701 13.8204L14.4888 35.9868C12.4804 37.1437 11.2431 39.2817 11.2431 41.5955V44.3327H0V35.1191C0 32.8053 1.23722 30.6673 3.24562 29.5104L52.9701 0.867668Z" fill="#7275A0"/>
<path d="M69.725 54.0112H58.6322L58.849 49.8294C58.849 47.1617 58.1504 45.8279 56.7533 45.8279C55.4766 45.8279 54.8383 46.3927 54.8383 47.5222V57.6163C55.6814 56.4867 57.488 55.9219 60.2582 55.9219C63.0043 55.9219 65.2686 56.6068 67.0512 57.9768C68.8337 59.3467 69.725 61.2213 69.725 63.6006V82.0582C69.725 85.0624 68.5206 87.3816 66.1117 89.0159C63.7269 90.6261 60.6075 91.4313 56.7533 91.4313C48.0814 91.4313 43.7455 88.3309 43.7455 82.1303V48.8561C43.7455 42.1508 48.1055 38.7981 56.8256 38.7981C65.4252 38.7981 69.725 42.1267 69.725 48.784V54.0112ZM58.6322 82.5269V65.6194C58.6322 64.4658 58.0059 63.889 56.7533 63.889C55.4766 63.889 54.8383 64.4658 54.8383 65.6194V82.5269C54.8383 83.6564 55.4766 84.2212 56.7533 84.2212C58.0059 84.2212 58.6322 83.6564 58.6322 82.5269Z" fill="#282936"/>
<path d="M34.4035 94.2007L55.184 105.65C55.7848 105.981 56.5134 105.981 57.1143 105.65L77.8948 94.2007V105.001C77.8948 105.729 77.4983 106.4 76.8599 106.752L57.1143 117.632C56.5134 117.963 55.7848 117.963 55.184 117.632L35.4384 106.752C34.8 106.4 34.4035 105.729 34.4035 105.001V94.2007Z" fill="#5D6081"/>
<path d="M26.9386 98.7342L55.1796 114.388C55.7827 114.722 56.5156 114.722 57.1187 114.388L85.3597 98.7342V113.747C85.3597 114.474 84.9652 115.144 84.3293 115.496L57.1187 130.579C56.5156 130.913 55.7827 130.913 55.1796 130.579L27.969 115.496C27.3331 115.144 26.9386 114.474 26.9386 113.747V98.7342Z" fill="#3A3D53"/>
<path d="M57.2446 108.297L59.18 112.336C59.2642 112.579 59.5166 112.74 59.769 112.821L64.1447 113.467C64.9021 113.467 65.1545 114.275 64.6496 114.76L61.452 117.911C61.2837 118.073 61.1996 118.396 61.1996 118.638L61.9569 123.001C62.041 123.648 61.3679 124.213 60.7788 123.89L56.8239 121.789C56.5714 121.628 56.319 121.628 56.0665 121.789L52.1116 123.89C51.5226 124.213 50.7652 123.728 50.9335 123.001L51.6909 118.638C51.775 118.396 51.6067 118.073 51.4384 117.911L48.2408 114.76C47.8201 114.275 48.0725 113.467 48.7457 113.387L53.1214 112.74C53.3738 112.74 53.6263 112.498 53.7104 112.255L55.6458 108.216C56.0665 107.65 56.908 107.65 57.2446 108.297Z" fill="#CB9D65"/>
<path fill-rule="evenodd" clip-rule="evenodd" d="M58.9876 107.429L60.6953 110.994L64.3257 111.53C65.4062 111.597 66.3362 112.257 66.703 113.274C67.0677 114.286 66.7822 115.401 66.0116 116.149L63.2211 118.899L63.8828 122.71L63.8881 122.751C64.027 123.818 63.5412 124.773 62.825 125.336C62.083 125.919 60.9356 126.185 59.8551 125.601L56.4452 123.789L53.0348 125.601C51.1514 126.618 48.4941 125.125 49.022 122.628L49.6693 118.899L46.8183 116.089L46.7687 116.032C45.4611 114.525 46.0929 111.772 48.481 111.462L52.1952 110.913L53.97 107.208L54.0821 107.058C55.2227 105.525 57.8694 105.282 58.9727 107.401L58.9876 107.429ZM48.7457 113.387C48.0725 113.467 47.8201 114.275 48.2408 114.76L51.4384 117.911C51.6067 118.073 51.775 118.396 51.6909 118.638L50.9335 123.001C50.7652 123.728 51.5226 124.213 52.1116 123.89L56.0666 121.789C56.319 121.628 56.5714 121.628 56.8239 121.789L60.7788 123.89C61.3679 124.213 62.0411 123.648 61.9569 123.001L61.1996 118.638C61.1996 118.396 61.2837 118.073 61.452 117.911L64.6496 114.76C65.1545 114.275 64.9021 113.467 64.1448 113.467L59.7691 112.821C59.5166 112.74 59.2642 112.579 59.18 112.336L57.2446 108.297C56.908 107.65 56.0666 107.65 55.6458 108.216L53.7104 112.256C53.6263 112.498 53.3738 112.74 53.1214 112.74L48.7457 113.387Z" fill="#3A3C53"/>
</svg>
