<svg width="28" height="28" viewBox="0 0 28 28" fill="none" xmlns="http://www.w3.org/2000/svg">
<path d="M26.3621 22.1328L23.2181 15.3566C22.9956 14.991 23.0554 14.4954 23.2191 14.0856L27.0268 7.78376C27.8297 6.81193 27.0582 5.62944 25.8994 5.7622L18.4566 6.51716C18.0703 6.56141 17.5655 6.32597 17.2537 6.06841L12.4451 0.460453C11.703 -0.334361 10.2619 -0.0714966 10.0531 1.02778L8.56194 8.33509C8.50214 8.83074 8.2345 9.15468 7.75903 9.30691L0.864241 12.1498C-0.175909 12.5622 -0.355314 14.0492 0.75836 14.6059L7.17277 18.2702C7.57373 18.4198 7.81097 18.9792 7.84038 19.3669L8.50308 26.8184C8.68052 27.8735 9.98732 28.4081 10.8049 27.6301L16.2753 22.7019C16.5429 22.378 17.1223 22.3116 17.5233 22.4612L24.771 24.2703C25.9444 24.3314 26.8366 23.2516 26.3621 22.1328Z" fill="#1F202D"/>
</svg>
