<svg width="90" height="92" viewBox="0 0 90 92" fill="none" xmlns="http://www.w3.org/2000/svg">
<path d="M24.3512 87.95C24.3512 89.0119 24.1581 90.0739 23.7719 91.0393C23.5788 91.522 23.0961 91.7151 22.6134 91.522C22.1307 91.329 21.9376 90.8463 22.1307 90.3635C22.8065 88.7223 22.71 86.7915 21.9376 85.1503C21.1653 83.4125 19.6206 81.9644 17.7863 81.2886C16.4347 80.8058 14.89 80.9024 13.5384 81.4816C12.1868 82.1574 11.2214 83.2194 10.7387 84.571C9.96636 86.7915 11.1249 89.205 13.3453 89.9774C14.1177 90.267 14.9866 90.267 15.7589 89.8808C16.5312 89.4947 17.1105 88.8189 17.4001 88.0465C17.8828 86.7915 17.207 85.4399 15.952 84.9572C15.4693 84.7641 15.0831 84.8606 14.6004 85.0537C14.2142 85.2468 13.8281 85.633 13.7315 86.0191C13.5384 86.5984 13.0557 86.7915 12.573 86.5984C12.0903 86.4053 11.8972 85.9226 11.9937 85.4399C12.6695 83.6056 14.6969 82.6402 16.4347 83.316C18.5586 84.0883 19.7171 86.5018 18.9448 88.6258C18.4621 89.8808 17.5932 90.8463 16.4347 91.4255C15.2762 92.0048 13.9246 92.1013 12.6695 91.6186C9.58019 90.4601 7.93897 87.0811 9.00093 83.9917C9.67673 82.1574 11.0283 80.7093 12.7661 79.8404C14.5039 78.9715 16.5312 78.875 18.3655 79.5508C20.6826 80.3231 22.5169 82.0609 23.5788 84.2814C24.0615 85.5364 24.3512 86.7915 24.3512 87.95Z" fill="#2E2F3F"/>
<path d="M12.766 76.0753C12.766 79.0681 10.9317 81.8679 7.9389 82.9298C4.84955 84.0884 1.37402 82.4471 0.31206 79.2612C-0.653363 76.6546 0.69823 73.8549 3.30487 72.8894C4.36684 72.5033 5.52535 72.5998 6.49077 73.0825C7.45619 73.5652 8.22853 74.4341 8.6147 75.3995C9.2905 77.2338 8.32507 79.2612 6.49077 79.8405C6.00806 80.0336 5.52535 79.7439 5.33226 79.2612C5.13918 78.7785 5.4288 78.2958 5.91152 78.1027C6.7804 77.8131 7.26311 76.7511 6.97348 75.8822C6.7804 75.303 6.29769 74.8203 5.71843 74.5306C5.13918 74.241 4.46338 74.241 3.88413 74.4341C2.24291 75.0134 1.37403 76.8477 1.95328 78.5854C2.72562 80.8059 5.13918 81.9644 7.35965 81.1921C10.2559 80.1301 11.7041 77.0408 10.7386 74.1445C10.0628 72.3102 8.71124 70.7655 6.87694 69.9932C5.13918 69.2208 3.30487 69.1243 1.66365 69.8001C1.18094 69.9932 0.69823 69.8001 0.505146 69.3174C0.312061 68.8346 0.505146 68.3519 0.987858 68.1588C3.11179 67.29 5.42881 67.3865 7.64928 68.3519C9.86975 69.3174 11.6075 71.2482 12.3799 73.5652C12.6695 74.4341 12.766 75.303 12.766 76.0753Z" fill="#2E2F3F"/>
<path d="M30.7229 75.6891C30.7229 77.7165 29.4679 79.6473 27.4405 80.4197C26.3785 80.8059 25.22 80.7093 24.2546 80.2266C23.2892 79.7439 22.5168 78.875 22.1307 77.9096C21.8411 77.0407 21.8411 76.0753 22.2272 75.2064C22.6134 74.3375 23.2892 73.7583 24.2546 73.3721C24.7373 73.179 25.22 73.4686 25.4131 73.9514C25.6062 74.4341 25.3166 74.9168 24.8339 75.1099C24.3512 75.3029 24.0615 75.5926 23.8684 75.9787C23.6754 76.3649 23.6754 76.8476 23.7719 77.3303C23.965 77.9096 24.4477 78.3923 25.027 78.6819C25.5097 78.875 26.1855 78.875 26.7647 78.6819C28.4059 78.1027 29.2748 76.2684 28.6956 74.5306C27.9232 72.3101 25.5097 71.1516 23.2892 71.924C20.3929 72.9859 18.9448 76.0753 19.9102 78.9715C20.8756 81.6747 23.3857 83.7021 26.1855 83.7987C26.6682 83.7987 27.0543 84.2814 27.0543 84.7641C27.0543 85.2468 26.5716 85.633 26.0889 85.633C22.6134 85.4399 19.4275 83.0263 18.1724 79.6473C16.8208 75.8822 18.8482 71.7309 22.6134 70.3793C25.7027 69.2208 29.1783 70.862 30.2402 74.0479C30.6264 74.5306 30.7229 75.1099 30.7229 75.6891Z" fill="#2E2F3F"/>
<path d="M22.0341 67.2899C22.0341 67.9657 21.9376 68.6415 21.648 69.3173C20.2964 73.0824 16.145 75.1098 12.3799 73.7582C9.09745 72.5997 6.68389 69.5104 6.39426 66.0348C6.39426 65.5521 6.68389 65.1659 7.1666 65.0694C7.64931 65.0694 8.03548 65.359 8.13203 65.8417C8.32511 68.5449 10.256 71.055 12.9591 72.0205C15.8554 73.0824 18.9448 71.5377 20.0067 68.6415C20.7791 66.421 19.6206 64.0074 17.4001 63.2351C16.6278 62.9455 15.7589 62.9455 14.9865 63.3316C14.2142 63.7178 13.6349 64.3936 13.3453 65.1659C12.8626 66.421 13.5384 67.7726 14.7934 68.2553C15.6623 68.5449 16.7243 68.0622 17.0139 67.1933C17.207 66.7106 17.6897 66.5175 18.1724 66.6141C18.6551 66.8072 18.8482 67.2899 18.7517 67.7726C18.0759 69.6069 16.0485 70.5723 14.3107 69.8965C12.1868 69.1242 11.0283 66.7106 11.8006 64.5867C12.7661 61.98 15.5658 60.6285 18.1724 61.5939C20.4894 62.4628 22.0341 64.7798 22.0341 67.2899Z" fill="#2E2F3F"/>
<path d="M26.3785 83.8952L26.3785 85.633L80.7318 85.633L80.7318 83.8952L26.3785 83.8952Z" fill="#2E2F3F"/>
<path d="M47.2317 84.7641C46.4594 87.0811 35.6466 90.0739 40.5703 84.7641C35.6466 79.4542 46.4594 82.3505 47.2317 84.7641Z" fill="#2E2F3F"/>
<path d="M33.5227 84.7642C33.5227 86.0192 34.5846 86.9846 35.7431 86.9846C36.9982 86.9846 37.9636 85.9227 37.9636 84.7642C37.9636 83.6057 36.9016 82.5437 35.7431 82.5437C34.5846 82.4472 33.5227 83.5091 33.5227 84.7642Z" fill="#2E2F3F"/>
<path d="M73.2017 81.7713C79.8631 83.7021 90 84.7641 90 84.7641C90 84.7641 80.3458 85.5364 73.2017 87.6604C70.9812 88.3362 70.9812 81.192 73.2017 81.7713Z" fill="#2E2F3F"/>
<path d="M6.39427 9.26799L6.39426 65.9383L8.13202 65.9383L8.13203 9.26799L6.39427 9.26799Z" fill="#2E2F3F"/>
<path d="M7.26308 44.6024C4.94606 45.3747 1.95325 56.1875 7.26308 51.2638C12.5729 56.1875 9.67664 45.3747 7.26308 44.6024Z" fill="#2E2F3F"/>
<path d="M7.26325 58.3114C6.0082 58.3114 5.04278 57.2495 5.04278 56.091C5.04278 54.8359 6.10474 53.8705 7.26325 53.8705C8.5183 53.8705 9.48373 54.9325 9.48373 56.091C9.58027 57.2495 8.5183 58.3114 7.26325 58.3114Z" fill="#2E2F3F"/>
<path d="M10.2561 16.7984C8.32522 10.1369 7.26326 -1.49039e-05 7.26326 -1.49039e-05C7.26326 -1.49039e-05 6.49092 9.65422 4.36698 16.7984C3.69119 19.0188 10.8353 19.0188 10.2561 16.7984Z" fill="#2E2F3F"/>
<path d="M2.24294 23.7493L2.24293 69.1242C2.24293 69.6069 1.85676 69.9931 1.37405 69.9931C0.89134 69.9931 0.505171 69.6069 0.505171 69.1242L0.505177 23.7493C0.505177 23.2666 0.891346 22.8804 1.37406 22.8804C1.85677 22.7839 2.24294 23.2666 2.24294 23.7493Z" fill="#2E2F3F"/>
<path d="M69.1467 90.7497C69.1467 91.2324 68.7605 91.6186 68.2778 91.6186L22.9029 91.6186C22.4202 91.6186 22.034 91.2324 22.034 90.7497C22.034 90.267 22.4202 89.8808 22.9029 89.8808L68.2778 89.8808C68.7605 89.7843 69.1467 90.267 69.1467 90.7497Z" fill="#2E2F3F"/>
</svg>
