<svg width="31" height="31" viewBox="0 0 31 31" fill="none" xmlns="http://www.w3.org/2000/svg">
<circle cx="15.5" cy="15.5" r="15" fill="#434451" stroke="#1F202D"/>
<path fill-rule="evenodd" clip-rule="evenodd" d="M21.9004 7.5C22.1771 7.5 22.4538 7.63835 22.6844 7.82282L26.5121 12.0655C26.6043 12.2039 26.6504 12.2961 26.6504 12.4806V14.5097C26.6504 14.6481 26.6043 14.7864 26.466 14.9248L15.8592 26.3155C15.7208 26.4539 15.5825 26.5 15.398 26.5C15.2135 26.5 15.0752 26.4539 14.9368 26.3155L4.42226 14.9709C4.33003 14.8325 4.23779 14.6942 4.23779 14.5558V12.5267C4.23779 12.3883 4.28391 12.25 4.37614 12.1117L8.20381 7.86893C8.38828 7.63835 8.66498 7.54612 8.98779 7.54612C13.2766 7.5 17.6577 7.5 21.9004 7.5Z" fill="#1D1D1B"/>
<path fill-rule="evenodd" clip-rule="evenodd" d="M12.0776 8.46845L9.81791 12.8956C9.7718 12.9418 9.7718 13.034 9.81791 13.0801C9.86403 13.1262 9.91015 13.1723 9.95626 13.1723H20.8859C20.932 13.1723 21.0242 13.1262 21.0242 13.0801C21.0703 13.034 21.0703 12.9418 21.0242 12.8956L18.8567 8.46845C18.8106 8.42234 18.7645 8.37622 18.6723 8.37622H12.2621C12.1699 8.37622 12.1237 8.42234 12.0776 8.46845Z" fill="url(#paint0_linear_3392_28206)"/>
<path fill-rule="evenodd" clip-rule="evenodd" d="M12.5849 8.83735L10.648 12.6189C10.6019 12.665 10.648 12.7111 10.648 12.7573C10.6941 12.8034 10.7402 12.8495 10.7863 12.8495H20.1019C20.148 12.8495 20.1941 12.8034 20.2402 12.7573C20.2863 12.7111 20.2863 12.665 20.2402 12.6189L18.3033 8.83735C18.2572 8.79123 18.2111 8.74512 18.165 8.74512H12.7232C12.6771 8.74512 12.631 8.74512 12.5849 8.83735Z" fill="url(#paint1_linear_3392_28206)"/>
<path fill-rule="evenodd" clip-rule="evenodd" d="M12.5849 8.83735L10.6941 12.5728C10.648 12.6189 10.6941 12.665 10.6941 12.7111C10.7402 12.7573 10.7863 12.8034 10.8324 12.8034H12.1698C12.262 12.8034 12.3543 12.7573 12.4004 12.665L13.8761 9.57521C13.9222 9.5291 13.9684 9.48298 14.0145 9.48298H18.2572C18.3494 9.48298 18.4417 9.43686 18.4878 9.34463C18.5339 9.2524 18.5339 9.20628 18.4878 9.11405L18.3494 8.83735C18.3033 8.79123 18.2572 8.74512 18.2111 8.74512H12.7232C12.6771 8.74512 12.631 8.79123 12.5849 8.83735Z" fill="white"/>
<path fill-rule="evenodd" clip-rule="evenodd" d="M15.3058 24.932L9.81791 14.1869C9.7718 14.1407 9.7718 14.0485 9.81791 14.0024C9.86403 13.9563 9.91015 13.9102 9.95626 13.9102H20.8859C20.932 13.9102 21.0242 13.9563 21.0242 14.0024C21.0703 14.0485 21.0703 14.1407 21.0242 14.1869L15.6286 24.932C15.5825 24.9781 15.5364 25.0242 15.4441 25.0242C15.398 25.0242 15.3519 25.0242 15.3058 24.932Z" fill="url(#paint2_linear_3392_28206)"/>
<path fill-rule="evenodd" clip-rule="evenodd" d="M14.614 22.3495L10.6941 14.6942C10.648 14.6481 10.6941 14.602 10.6941 14.5559C10.7402 14.5097 10.7863 14.4636 10.8324 14.4636H20.0096C20.0557 14.4636 20.1018 14.5097 20.148 14.5559C20.1941 14.602 20.1941 14.6481 20.148 14.6942L19.8252 15.386H12.5387C12.4926 15.386 12.4465 15.4321 12.4465 15.4782C12.4004 15.5243 12.4004 15.5704 12.4465 15.6627L14.8446 22.2573C14.8446 22.3034 14.8446 22.3957 14.7984 22.3957C14.7062 22.4418 14.6601 22.3957 14.614 22.3495Z" fill="url(#paint3_linear_3392_28206)"/>
<path fill-rule="evenodd" clip-rule="evenodd" d="M16.8737 23.8252L22.4077 14.0024C22.4538 13.9563 22.4999 13.9102 22.546 13.9102H25.8664C25.9586 13.9102 26.0048 13.9563 26.0509 14.0024C26.097 14.0485 26.0509 14.1407 26.0048 14.1869L17.1965 24.0558C17.1504 24.148 17.012 24.148 16.9659 24.1019C16.8737 24.0097 16.8276 23.9174 16.8737 23.8252Z" fill="#447EB1"/>
<path fill-rule="evenodd" clip-rule="evenodd" d="M14.0606 23.8252L8.52663 14.0024C8.48051 13.9563 8.43439 13.9102 8.38828 13.9102H5.02177C4.97565 13.9102 4.88342 13.9563 4.88342 14.0024C4.8373 14.0485 4.88342 14.1407 4.92954 14.1869L13.7839 24.0097C13.83 24.1019 13.9684 24.1019 14.0145 24.0558C14.0606 24.0097 14.1067 23.9174 14.0606 23.8252Z" fill="#A0D9F7"/>
<path fill-rule="evenodd" clip-rule="evenodd" d="M19.9174 8.65295L22.4077 13.0801C22.4538 13.1262 22.4999 13.1724 22.546 13.1724H25.8664C25.9587 13.1724 26.0048 13.1262 26.0509 13.0801C26.097 13.034 26.0509 12.9418 26.0048 12.8957L21.9926 8.46848C21.9465 8.42236 21.9004 8.42236 21.8543 8.42236H20.0096C19.9635 8.42236 19.8713 8.46848 19.8713 8.5146C19.8713 8.5146 19.8713 8.60683 19.9174 8.65295Z" fill="url(#paint4_linear_3392_28206)"/>
<path fill-rule="evenodd" clip-rule="evenodd" d="M20.3785 8.92958L22.2693 12.3422C22.3154 12.3883 22.3616 12.4344 22.4077 12.4344H24.9441C24.9902 12.4344 25.0363 12.3883 25.0824 12.3422C25.1285 12.2961 25.0824 12.25 25.0363 12.2039L21.9926 8.79123C21.9465 8.74512 21.9465 8.74512 21.9004 8.74512H20.5169C20.4708 8.74512 20.4247 8.79123 20.3785 8.79123C20.3785 8.83735 20.3785 8.88347 20.3785 8.92958Z" fill="url(#paint5_linear_3392_28206)"/>
<path fill-rule="evenodd" clip-rule="evenodd" d="M11.0169 8.65295L8.52662 13.0801C8.48051 13.1262 8.43439 13.1724 8.38828 13.1724H5.02177C4.97565 13.1724 4.88342 13.1262 4.88342 13.0801C4.8373 13.034 4.88342 12.9418 4.92954 12.8957L8.94167 8.46848C8.98779 8.42236 9.03391 8.42236 9.08002 8.42236H10.9247C10.9708 8.42236 11.063 8.46848 11.063 8.5146C11.063 8.5146 11.063 8.60683 11.0169 8.65295Z" fill="url(#paint6_linear_3392_28206)"/>
<path fill-rule="evenodd" clip-rule="evenodd" d="M18.3956 21.7961L22.4538 14.5097C22.4999 14.4636 22.4999 14.4636 22.5922 14.4636H25.0825C25.1286 14.4636 25.1747 14.5097 25.2208 14.5559C25.2208 14.602 25.2208 14.6481 25.2208 14.6942L18.6261 21.9345C18.58 21.9806 18.4878 21.9806 18.4417 21.9345C18.3956 21.8884 18.3495 21.8423 18.3956 21.7961Z" fill="url(#paint7_linear_3392_28206)"/>
<path fill-rule="evenodd" clip-rule="evenodd" d="M12.4927 21.7961L8.38829 14.5097C8.34218 14.4636 8.34218 14.4636 8.24994 14.4636H5.80577C5.75965 14.4636 5.71354 14.5097 5.66742 14.5559C5.66742 14.602 5.66742 14.6481 5.66742 14.6942L12.2621 21.9345C12.3082 21.9806 12.4004 21.9806 12.4465 21.9345C12.4927 21.8884 12.5388 21.8423 12.4927 21.7961Z" fill="url(#paint8_linear_3392_28206)"/>
<path fill-rule="evenodd" clip-rule="evenodd" d="M10.5097 8.92956L8.61889 12.3422C8.57278 12.3883 8.52666 12.4344 8.48054 12.4344H5.94414C5.89802 12.4344 5.8519 12.3883 5.80579 12.3422C5.80579 12.2961 5.80579 12.2038 5.8519 12.1577L8.89559 8.74509C8.94171 8.69897 8.94171 8.69897 8.98782 8.69897H10.3713C10.4174 8.69897 10.4636 8.74509 10.5097 8.74509C10.5558 8.83732 10.5558 8.88344 10.5097 8.92956Z" fill="white"/>
<defs>
<linearGradient id="paint0_linear_3392_28206" x1="7.90477" y1="10.6596" x2="42.997" y2="11.2722" gradientUnits="userSpaceOnUse">
<stop stop-color="#A0D9F7"/>
<stop offset="1" stop-color="#2D4192"/>
</linearGradient>
<linearGradient id="paint1_linear_3392_28206" x1="16.0956" y1="13.523" x2="10.8958" y2="4.51665" gradientUnits="userSpaceOnUse">
<stop stop-color="#A0D9F7"/>
<stop offset="1" stop-color="white"/>
</linearGradient>
<linearGradient id="paint2_linear_3392_28206" x1="7.68475" y1="18.7422" x2="42.8528" y2="21.2014" gradientUnits="userSpaceOnUse">
<stop stop-color="#A0D9F7"/>
<stop offset="1" stop-color="#2D4192"/>
</linearGradient>
<linearGradient id="paint3_linear_3392_28206" x1="18.006" y1="24.7837" x2="12.9126" y2="4.35507" gradientUnits="userSpaceOnUse">
<stop stop-color="#A0D9F7"/>
<stop offset="1" stop-color="white"/>
</linearGradient>
<linearGradient id="paint4_linear_3392_28206" x1="18.6629" y1="10.585" x2="38.1266" y2="11.6051" gradientUnits="userSpaceOnUse">
<stop stop-color="#A0D9F7"/>
<stop offset="1" stop-color="#2D4192"/>
</linearGradient>
<linearGradient id="paint5_linear_3392_28206" x1="23.4449" y1="12.8806" x2="20.9782" y2="4.81231" gradientUnits="userSpaceOnUse">
<stop stop-color="#A0D9F7"/>
<stop offset="1" stop-color="white"/>
</linearGradient>
<linearGradient id="paint6_linear_3392_28206" x1="8.8695" y1="13.7877" x2="5.64471" y2="3.23979" gradientUnits="userSpaceOnUse">
<stop stop-color="#A0D9F7"/>
<stop offset="1" stop-color="white"/>
</linearGradient>
<linearGradient id="paint7_linear_3392_28206" x1="16.9974" y1="17.872" x2="38.3807" y2="19.3672" gradientUnits="userSpaceOnUse">
<stop stop-color="#A0D9F7"/>
<stop offset="1" stop-color="#2D4192"/>
</linearGradient>
<linearGradient id="paint8_linear_3392_28206" x1="13.9219" y1="17.785" x2="-7.43211" y2="19.6532" gradientUnits="userSpaceOnUse">
<stop stop-color="#A0D9F7"/>
<stop offset="1" stop-color="#2D4192"/>
</linearGradient>
</defs>
</svg>
