<svg width="35" height="35" viewBox="0 0 35 35" fill="none" xmlns="http://www.w3.org/2000/svg">
<path fill-rule="evenodd" clip-rule="evenodd" d="M10.6407 0C10.9754 2.10429 9.06245 5.0831 7.07772 5.87562C7.48423 3.00613 8.91897 1.36642 10.6407 0Z" fill="white"/>
<path fill-rule="evenodd" clip-rule="evenodd" d="M24.3188 0C26.4231 1.09314 27.7144 3.14277 28.2166 6.09425C26.1362 4.97378 24.8688 2.89682 24.3188 0Z" fill="white"/>
<path fill-rule="evenodd" clip-rule="evenodd" d="M6.57582 0.410019C7.41276 2.65095 6.83886 6.42228 5.69107 7.70672C4.44762 5.71174 5.64324 1.91309 6.57582 0.410019Z" fill="white"/>
<path fill-rule="evenodd" clip-rule="evenodd" d="M28.5747 0.628464C29.9377 2.02222 30.3921 5.52026 29.8182 7.92517C28.3356 6.83203 28.1443 3.22467 28.5747 0.628464Z" fill="white"/>
<path fill-rule="evenodd" clip-rule="evenodd" d="M4.08957 4.07183C5.40475 5.62955 4.99824 9.67417 4.08957 11.3685C2.84612 9.94745 3.32437 5.62955 4.08957 4.07183Z" fill="white"/>
<path fill-rule="evenodd" clip-rule="evenodd" d="M30.8951 4.07183C32.3059 5.30161 32.1864 9.61951 31.4212 11.5872C30.0342 10.1387 30.2494 6.25811 30.8951 4.07183Z" fill="white"/>
<path fill-rule="evenodd" clip-rule="evenodd" d="M5.33227 10.1663C6.00182 7.48807 7.65178 5.90302 9.77998 4.89187C9.11043 7.59739 7.67569 9.40107 5.33227 10.1663Z" fill="white"/>
<path fill-rule="evenodd" clip-rule="evenodd" d="M28.9329 9.94742C29.9611 11.7784 31.4915 14.0467 31.0611 16.8342C29.459 15.6044 28.3112 12.8169 28.7416 9.94742C27.259 8.66298 25.9677 7.15991 25.1786 5.08295C27.2351 5.35623 29.1481 7.59717 29.7937 10.166C29.4111 10.2207 29.1481 10.1387 28.9329 9.94742Z" fill="white"/>
<path fill-rule="evenodd" clip-rule="evenodd" d="M1.05276 7.73414C2.75054 9.04591 3.61139 11.3142 3.70704 14.4296C1.84187 13.3365 1.17232 10.8496 1.05276 7.73414Z" fill="white"/>
<path fill-rule="evenodd" clip-rule="evenodd" d="M33.9081 7.73414C34.7451 10.2484 33.1908 13.5278 31.5886 14.6209C31.493 11.3415 32.7603 9.59248 33.9081 7.73414Z" fill="white"/>
<path fill-rule="evenodd" clip-rule="evenodd" d="M6.5753 9.75637C6.93398 12.5985 5.97749 15.6866 4.08841 16.6431C4.11232 13.4457 5.2362 11.4781 6.5753 9.75637Z" fill="white"/>
<path fill-rule="evenodd" clip-rule="evenodd" d="M0.885566 12.5986C2.91812 13.7191 3.89853 16.0694 4.25722 19.0755C2.24857 17.9277 1.36381 15.4955 0.885566 12.5986Z" fill="white"/>
<path fill-rule="evenodd" clip-rule="evenodd" d="M34.099 12.5986C34.4099 15.4408 32.9512 18.0643 31.0861 19.1028C31.2295 15.96 32.6643 14.2657 34.099 12.5986Z" fill="white"/>
<path fill-rule="evenodd" clip-rule="evenodd" d="M5.33184 15.8499C6.8144 16.9431 6.98179 20.5504 6.57528 23.1466C4.90141 22.1901 4.99706 18.3915 5.33184 15.8499Z" fill="white"/>
<path fill-rule="evenodd" clip-rule="evenodd" d="M29.6514 16.042C30.7513 17.873 30.1774 22.4095 28.7666 23.3387C28.0731 20.8518 28.6709 17.8184 29.6514 16.042Z" fill="white"/>
<path fill-rule="evenodd" clip-rule="evenodd" d="M0 17.2711C2.29559 18.1729 4.28032 19.4027 4.97378 22.1355C2.67819 21.2064 0.741285 19.9219 0 17.2711Z" fill="white"/>
<path fill-rule="evenodd" clip-rule="evenodd" d="M34.9829 17.4622C35.2459 19.2658 32.4243 21.78 30.2004 22.1353C31.0373 19.7304 32.8308 18.3913 34.9829 17.4622Z" fill="white"/>
<path fill-rule="evenodd" clip-rule="evenodd" d="M7.10163 21.3165C9.22984 22.7923 10.7602 24.9785 10.9994 28.6132C8.87115 27.1375 7.53206 24.7599 7.10163 21.3165Z" fill="white"/>
<path fill-rule="evenodd" clip-rule="evenodd" d="M28.2405 21.5345C27.6426 24.7046 26.5905 27.3554 24.3427 28.6399C24.5579 25.0325 26.0644 22.9282 28.2405 21.5345Z" fill="white"/>
<path fill-rule="evenodd" clip-rule="evenodd" d="M2.4882 21.9166C5.26204 22.5998 7.17503 24.2669 8.51413 26.5898C8.53804 27.0271 7.8924 26.6718 7.62937 26.7811C8.34674 27.4643 9.75757 27.3277 9.94887 28.6121C7.29459 29.0494 3.99468 28.7214 2.84689 26.7811C4.13816 26.3985 5.9555 26.5898 7.29459 26.7811C5.42943 25.4693 3.22948 24.5402 2.4882 21.9166Z" fill="white"/>
<path fill-rule="evenodd" clip-rule="evenodd" d="M27.6912 26.8087C28.8868 27.0547 31.1346 26.1802 32.4976 27C31.1824 28.6944 27.8108 29.4323 25.3956 28.6124C25.6826 27.6559 26.5673 27.3826 27.5238 27.1913C27.476 26.9181 27.0695 27.0274 26.8064 27C27.8347 24.2672 30.0107 22.8188 32.8324 22.1356C31.8998 24.5678 29.9868 25.9069 27.6912 26.8087Z" fill="white"/>
<path fill-rule="evenodd" clip-rule="evenodd" d="M11.1898 26.1806C12.768 25.6614 17.1201 29.2141 17.0484 30.8538C16.9288 33.2587 12.1463 33.5593 9.75507 32.8761C10.8311 31.1544 13.7245 30.7991 15.9723 31.0451C14.0832 29.788 12.2659 28.3942 11.1898 26.1806Z" fill="white"/>
<path fill-rule="evenodd" clip-rule="evenodd" d="M23.7937 25.989C23.6263 28.2846 21.3786 29.9789 19.346 30.8534C21.6177 31.3727 24.6067 31.0721 25.5632 33.0944C22.7416 33.6683 18.8199 33.1217 18.2939 31.0721C19.2264 28.3392 21.4025 27.0548 23.7937 25.989Z" fill="white"/>
<path fill-rule="evenodd" clip-rule="evenodd" d="M13.6784 30.0337C12.435 31.6188 8.27421 31.5914 6.40904 30.635C7.74814 28.9679 11.7893 28.8859 13.6784 30.0337Z" fill="white"/>
<path fill-rule="evenodd" clip-rule="evenodd" d="M28.9348 30.8534C26.8305 31.7826 23.411 31.6186 21.6654 30.4435C23.0045 28.7491 27.8826 29.1864 28.9348 30.8534Z" fill="white"/>
<path fill-rule="evenodd" clip-rule="evenodd" d="M17.0496 31.8646C17.4083 32.5751 15.6866 34.3241 14.7301 34.898C14.4192 33.4496 16.5474 33.0944 17.0496 31.8646Z" fill="white"/>
<path fill-rule="evenodd" clip-rule="evenodd" d="M17.7424 32.083C18.5076 32.247 20.3727 33.914 20.3966 34.9252C19.1771 35.1438 18.7706 32.7662 17.7424 32.083Z" fill="white"/>
</svg>
