<svg width="13" height="16" viewBox="0 0 13 16" fill="none" xmlns="http://www.w3.org/2000/svg">
<path d="M8.96657 -3.03915e-05C10.0434 -3.02974e-05 11.1203 0.195762 12.0992 0.587345C12.5887 0.783136 12.7845 1.27261 12.5887 1.76209C12.3929 2.25157 11.9034 2.44736 11.414 2.25157C9.74973 1.5663 7.79182 1.6642 6.12759 2.44736C4.36547 3.23053 2.89704 4.79686 2.21177 6.65687C1.72229 8.02741 1.82019 9.59374 2.40756 10.9643C3.09283 12.3348 4.16968 13.3138 5.54022 13.8033C7.79182 14.5864 10.2392 13.4117 11.0224 11.1601C11.3161 10.3769 11.3161 9.49585 10.9245 8.71268C10.5329 7.92952 9.84763 7.34214 9.06446 7.04846C7.79182 6.55898 6.42128 7.24425 5.9318 8.51689C5.73601 9.00637 5.83391 9.39795 6.0297 9.88743C6.22549 10.279 6.61707 10.6706 7.00865 10.7685C7.59603 10.9643 7.79182 11.4538 7.59603 11.9432C7.40024 12.4327 6.91076 12.6285 6.42128 12.5306C4.56126 11.8453 3.58231 9.78954 4.26758 8.02741C5.05074 5.87371 7.49813 4.69896 9.65184 5.48213C10.9245 5.9716 11.9034 6.85267 12.4908 8.02741C13.0782 9.20216 13.1761 10.5727 12.6866 11.8453C11.5119 14.978 8.08551 16.6422 4.95285 15.5654C3.09283 14.8801 1.6244 13.5096 0.743335 11.7474C-0.137725 9.98533 -0.235621 7.92952 0.449648 6.0695C1.23281 3.72001 2.99494 1.85999 5.24653 0.783134C6.51918 0.293656 7.79182 -3.04942e-05 8.96657 -3.03915e-05Z" fill="#2E2F3F"/>
</svg>
