<svg width="24" height="24" viewBox="0 0 24 24" fill="none" xmlns="http://www.w3.org/2000/svg">
<path fill-rule="evenodd" clip-rule="evenodd" d="M11.7681 18.3429C8.09197 18.3429 5 15.349 5 11.6722C5 7.99459 8.09196 5 11.7688 5C13.8034 5 15.2509 5.79822 16.3413 6.83985L15.0555 8.12488C14.2745 7.39252 13.2171 6.82337 11.7688 6.82337C9.0842 6.82337 6.98448 8.98753 6.98448 11.6721C6.98448 14.3568 9.0842 16.5202 11.7688 16.5202C13.5099 16.5202 14.5021 15.8208 15.1371 15.1858C15.6576 14.666 15.9998 13.9172 16.1294 12.892H11.7681V11.0701H17.9019C17.9678 11.3951 18 11.786 18 12.2084C18 13.5757 17.6256 15.2681 16.4222 16.4722C15.2502 17.6921 13.7533 18.3429 11.7681 18.3429Z" fill="white"/>
</svg>
