<svg width="16" height="13" viewBox="0 0 16 13" fill="none" xmlns="http://www.w3.org/2000/svg">
<path d="M0.000123963 6.94353C0.000123993 6.26229 0.0974441 5.58104 0.389406 4.8998C1.7519 1.1043 5.93668 -0.939436 9.73219 0.423052C13.0411 1.5909 15.4741 4.70516 15.7661 8.2087C15.7661 8.6953 15.4741 9.08458 14.9875 9.18191C14.5009 9.18191 14.1116 8.88994 14.0143 8.40334C13.8197 5.67836 11.8732 3.14803 9.14826 2.17482C6.22864 1.1043 3.11438 2.66143 2.04386 5.58104C1.26529 7.81942 2.43314 10.2524 4.67151 11.031C5.45008 11.323 6.32597 11.323 7.10453 10.9337C7.8831 10.5444 8.46702 9.86315 8.75898 9.08459C9.24558 7.81942 8.56434 6.45693 7.29917 5.97033C6.42328 5.67836 5.35276 6.16497 5.0608 7.04085C4.86616 7.52746 4.37955 7.7221 3.89295 7.62478C3.40635 7.43014 3.2117 6.94353 3.30902 6.45693C3.99027 4.60784 6.034 3.63463 7.78577 4.31588C9.92683 5.09444 11.0947 7.52746 10.3161 9.66851C9.3429 12.2962 6.52061 13.6587 3.89295 12.6854C1.55725 11.8096 0.000123853 9.47387 0.000123963 6.94353Z" fill="#575869"/>
</svg>
