<svg width="24" height="24" viewBox="0 0 24 24" fill="none" xmlns="http://www.w3.org/2000/svg">
<path d="M21 6C21 8.85 16.7 11 11 11C5.3 11 1 8.85 1 6C1 3.15 5.3 1 11 1C16.7 1 21 3.15 21 6ZM13 21C8.75 21 5.12 19.9 3 18.05C3.06 20.88 7.33 23 13 23C18.67 23 22.91 20.89 23 18.09C20.91 19.9 17.37 21 13 21ZM11 17C8.42709 17.0539 5.87065 16.5774 3.49 15.6C4.77 17.62 8.43 19 13 19C18.7 19 23 16.85 23 14C22.9918 13.3816 22.7927 12.7809 22.43 12.28C20.94 15.14 16.63 17 11 17ZM12 13H11H10C6.08 12.85 2.89 11.78 1 10.11C1.09 12.89 5.36 15 11 15C16.64 15 20.91 12.89 21 10.09C19.07 11.76 15.88 12.83 12 13Z" fill="white"/>
</svg>
