<svg width="24" height="24" viewBox="0 0 24 24" fill="none" xmlns="http://www.w3.org/2000/svg">
<rect width="24" height="24" rx="4" fill="#24B674"/>
<path fill-rule="evenodd" clip-rule="evenodd" d="M6.96629 7.41573C6.66222 7.41573 6.41573 7.66222 6.41573 7.96629V14.2584C6.41573 14.5625 6.66222 14.809 6.96629 14.809H17.0337C17.3378 14.809 17.5843 14.5625 17.5843 14.2584V7.96629C17.5843 7.66222 17.3378 7.41573 17.0337 7.41573H6.96629ZM5 7.96629C5 6.88034 5.88034 6 6.96629 6H17.0337C18.1197 6 19 6.88034 19 7.96629V14.2584C19 15.3444 18.1197 16.2247 17.0337 16.2247H6.96629C5.88034 16.2247 5 15.3444 5 14.2584V7.96629Z" fill="white"/>
<path fill-rule="evenodd" clip-rule="evenodd" d="M8.77417 18.0335C8.77417 17.6426 9.09109 17.3257 9.48203 17.3257H14.5157C14.9067 17.3257 15.2236 17.6426 15.2236 18.0335C15.2236 18.4245 14.9067 18.7414 14.5157 18.7414H9.48203C9.09109 18.7414 8.77417 18.4245 8.77417 18.0335Z" fill="white"/>
<path fill-rule="evenodd" clip-rule="evenodd" d="M12.0013 14.8091C12.3923 14.8091 12.7092 15.126 12.7092 15.5169V18.0338C12.7092 18.4247 12.3923 18.7417 12.0013 18.7417C11.6104 18.7417 11.2935 18.4247 11.2935 18.0338V15.5169C11.2935 15.126 11.6104 14.8091 12.0013 14.8091Z" fill="white"/>
<path fill-rule="evenodd" clip-rule="evenodd" d="M12.0013 6C12.3923 6 12.7092 6.31692 12.7092 6.70786L12.7092 15.5169C12.7092 15.9078 12.3923 16.2247 12.0013 16.2247C11.6104 16.2247 11.2935 15.9078 11.2935 15.5169L11.2935 6.70786C11.2935 6.31692 11.6104 6 12.0013 6Z" fill="white"/>
<path fill-rule="evenodd" clip-rule="evenodd" d="M19 11.1122C19 11.5031 18.6831 11.82 18.2921 11.82H5.70787C5.31693 11.82 5 11.5031 5 11.1122C5 10.7212 5.31693 10.4043 5.70787 10.4043H18.2921C18.6831 10.4043 19 10.7212 19 11.1122Z" fill="white"/>
</svg>
