<svg width="21" height="21" viewBox="0 0 21 21" fill="none" xmlns="http://www.w3.org/2000/svg">
<path d="M17.917 17.8876C13.8064 21.9749 7.19362 21.9749 3.08298 17.8876C-1.02766 13.8003 -1.02766 7.1528 3.08298 3.06549C7.19362 -1.02183 13.8064 -1.02183 17.917 3.06549C22.0277 7.1528 22.0277 13.8003 17.917 17.8876Z" fill="#F99027"/>
<path d="M14.0747 1.9426L1.9662 14.0698C1.51939 14.519 0.715135 14.3393 0.536411 13.7105C0.178964 12.6774 0.0449219 11.5545 0.0449219 10.4766C0.0449219 7.78162 1.07258 5.08669 3.1279 3.06549C5.18322 0.999373 7.86407 0.0112305 10.5449 0.0112305C11.6173 0.0112305 12.7343 0.190893 13.7619 0.505302C14.3428 0.684964 14.5215 1.49344 14.0747 1.9426Z" fill="#FFC840"/>
<path d="M5.18307 5.17669C8.08733 2.25718 12.8682 2.25718 15.7724 5.17669C18.6767 8.09621 18.6767 12.8573 15.7724 15.7768C12.8682 18.6963 8.08733 18.6963 5.18307 15.7768C2.27882 12.8573 2.27882 8.09621 5.18307 5.17669Z" fill="#FFD45A"/>
<path d="M16.8448 9.89283C17.515 9.21909 17.6937 8.18604 17.2916 7.33264C16.9341 6.56908 16.4426 5.80551 15.7724 5.17669C12.8682 2.25718 8.08733 2.25718 5.18307 5.17669C2.27882 8.09621 2.27882 12.8573 5.18307 15.7768C5.80861 16.4056 6.56818 16.9446 7.32776 17.3039C8.17669 17.7081 9.20435 17.5285 9.87456 16.8547L16.8448 9.89283Z" fill="#F28033"/>
<path d="M10.5002 16.4502H10.4555C7.19379 16.4502 4.55762 13.8002 4.55762 10.5214C4.55762 7.24255 7.19379 4.59253 10.4555 4.59253H10.5002C13.7619 4.59253 16.398 7.24255 16.398 10.5214C16.4427 13.7553 13.8066 16.4502 10.5002 16.4502Z" fill="#FC9A2C"/>
<path d="M13.7167 11.5995C13.4487 11.33 13.1359 11.1054 12.7784 10.9707C12.421 10.8359 11.9742 10.7012 11.438 10.6114C10.9465 10.5215 10.5891 10.4317 10.4104 10.297C10.187 10.2071 10.0976 10.0724 10.0976 9.89272C10.0976 9.71306 10.187 9.5334 10.3657 9.44357C10.5444 9.30882 10.8572 9.2639 11.2146 9.2639C11.7508 9.2639 12.287 9.39865 12.8231 9.62323C13.0019 9.71306 13.2253 9.62323 13.3146 9.44357L13.5827 8.76983C13.7167 8.50034 13.6721 8.14102 13.4487 7.91644L13.0465 7.37745L12.2423 7.73678V7.78169C12.1529 7.78169 12.0189 7.73678 11.8848 7.73678C11.7955 7.73678 11.7061 7.64695 11.7061 7.55711V7.01813C11.7061 6.74863 11.6167 6.52406 11.4827 6.34439L11.0359 5.71558L10.2763 6.52406L10.5891 6.70372C10.5891 6.74863 10.5891 6.74863 10.5891 6.79355V7.55711C10.5891 7.64695 10.4997 7.73678 10.4104 7.73678C9.69547 7.82661 8.89121 8.0961 8.53377 8.50034C8.13164 8.90458 7.90823 9.39865 7.90823 9.98255C7.90823 10.4766 8.04228 10.8809 8.31036 11.1504C8.57845 11.4199 8.89121 11.6444 9.24866 11.7792C9.60611 11.9139 10.2763 12.0487 10.8125 12.1385C11.304 12.2283 11.6614 12.3631 11.8848 12.4529C12.1082 12.5427 12.1976 12.7224 12.1976 12.9021C12.1976 13.3063 11.7955 13.486 11.0359 13.486C10.6338 13.486 10.2316 13.4411 9.78483 13.3063C9.42738 13.2165 9.11462 13.0817 8.84653 12.9021C8.75717 12.8571 8.62313 12.9021 8.57845 12.9919V13.0368L7.46143 13.2165L7.81887 13.98C7.90823 14.2046 8.13164 14.3843 8.35504 14.519C8.57845 14.6089 8.84653 14.7436 9.11462 14.8334C9.3827 14.9233 9.65079 14.9682 9.96355 15.0131L10.3657 15.6419C10.4997 15.8216 10.6784 15.9114 10.9019 15.9114H11.438C11.6167 15.9114 11.7508 15.7767 11.7508 15.597V15.1928C11.7508 15.1029 11.7955 15.0131 11.8848 15.0131C12.555 14.8783 13.0912 14.6538 13.4933 14.2495C13.8955 13.8453 14.0742 13.3512 14.0742 12.8122C14.0742 12.2732 13.9848 11.9139 13.7167 11.5995Z" fill="#E0692B"/>
<path d="M12.868 13.2165C12.5106 13.5758 11.9744 13.8453 11.2595 13.98C11.1701 13.98 11.1255 14.0699 11.1255 14.1597V14.9233C11.1255 15.0131 11.0361 15.1029 10.9467 15.1029H10.0978C10.0084 15.1029 9.91907 15.0131 9.91907 14.9233V14.2046C9.91907 14.1148 9.82971 14.0249 9.74035 14.0249C9.29354 13.98 8.89141 13.8902 8.48928 13.8004C8.08716 13.6656 7.77439 13.5309 7.5063 13.3961C7.41694 13.3512 7.37226 13.2614 7.41694 13.1716L7.90843 12.0487C7.95311 11.9588 8.08716 11.9139 8.17652 11.9588C8.4446 12.1385 8.75737 12.2283 9.11482 12.3631C9.51694 12.4978 9.96375 12.5427 10.3659 12.5427C11.1255 12.5427 11.5276 12.3631 11.5276 11.9588C11.5276 11.7343 11.4382 11.5995 11.2148 11.5097C10.9914 11.4198 10.634 11.33 10.1425 11.1953C9.6063 11.0605 9.1595 10.9707 8.80205 10.8359C8.4446 10.7012 8.13184 10.4766 7.86375 10.2071C7.59567 9.93763 7.46162 9.53339 7.46162 9.03932C7.46162 8.45542 7.68503 7.96135 8.08716 7.55711C8.48928 7.15287 9.02545 6.92829 9.74035 6.79354C9.82971 6.79354 9.91907 6.70371 9.91907 6.61388V5.85032C9.91907 5.76049 10.0084 5.67065 10.0978 5.67065H10.9467C11.0361 5.67065 11.1255 5.76049 11.1255 5.85032V6.56897C11.1255 6.6588 11.2148 6.74863 11.3042 6.74863C11.6169 6.79354 11.9297 6.83846 12.2425 6.92829C12.5106 7.01812 12.7786 7.10795 13.0467 7.2427C13.1361 7.28761 13.1808 7.37745 13.1361 7.46728L12.6446 8.59017C12.5999 8.68 12.4659 8.72491 12.3765 8.68C11.751 8.36559 11.1701 8.23084 10.5893 8.23084C10.1872 8.23084 9.91907 8.27576 9.74035 8.4105C9.56162 8.54525 9.47226 8.68 9.47226 8.85966C9.47226 9.03932 9.56162 9.17407 9.78503 9.2639C10.0084 9.35373 10.3659 9.44356 10.8127 9.57831C11.3489 9.71306 11.7957 9.80289 12.1531 9.93763C12.5106 10.0724 12.8233 10.297 13.0914 10.5665C13.3595 10.8359 13.4935 11.2402 13.4935 11.7343C13.4489 12.3182 13.2701 12.8122 12.868 13.2165Z" fill="#FFE783"/>
</svg>
