<svg width="12" height="12" viewBox="0 0 12 12" fill="none" xmlns="http://www.w3.org/2000/svg">
<path d="M6.61528 11.7567C6.76848 11.6026 6.85448 11.3941 6.85448 11.1768C6.85448 10.9595 6.76848 10.751 6.61528 10.5969L2.83146 6.82127H10.687C10.9052 6.82127 11.1144 6.7346 11.2686 6.58034C11.4229 6.42608 11.5096 6.21686 11.5096 5.9987C11.5096 5.78054 11.4229 5.57132 11.2686 5.41705C11.1144 5.26279 10.9052 5.17613 10.687 5.17613H2.85613L6.61528 1.41699C6.77126 1.26209 6.85932 1.05158 6.8601 0.831757C6.86087 0.611934 6.77428 0.400808 6.61939 0.244824C6.4645 0.0888407 6.25398 0.000776421 6.03416 5.10937e-06C5.81434 -0.000766202 5.60321 0.0858185 5.44723 0.240711L0.215687 5.48048C0.0775523 5.61922 0 5.80703 0 6.00281C0 6.19859 0.0775523 6.3864 0.215687 6.52514L5.44723 11.7567C5.5237 11.8338 5.61467 11.895 5.71491 11.9367C5.81515 11.9785 5.92266 12 6.03125 12C6.13984 12 6.24736 11.9785 6.34759 11.9367C6.44783 11.895 6.53881 11.8338 6.61528 11.7567Z" fill="#848484"/>
</svg>
