<svg width="16" height="13" viewBox="0 0 16 13" fill="none" xmlns="http://www.w3.org/2000/svg">
<path d="M8.65375 3.29277e-07C11.6964 5.95271e-07 14.5427 1.86483 15.6223 4.90745C16.8001 8.04822 15.1316 11.5816 11.8927 12.6612C9.24264 13.6427 6.39632 12.2686 5.41484 9.6186C5.02224 8.53896 5.12039 7.36117 5.61114 6.37968C6.10188 5.39819 6.98522 4.613 7.96671 4.22041C9.83153 3.53336 11.8927 4.51485 12.4816 6.37968C12.6778 6.87043 12.3834 7.36117 11.8927 7.55747C11.4019 7.75377 10.9112 7.45932 10.7149 6.96858C10.4204 6.08524 9.34079 5.59449 8.45745 5.88894C7.86856 6.08524 7.37781 6.57598 7.08337 7.16488C6.78892 7.75377 6.78892 8.44081 6.98522 9.02971C7.57411 10.6982 9.43894 11.5816 11.2056 10.9927C13.463 10.2075 14.6408 7.75377 13.8556 5.49634C12.776 2.55187 9.63524 1.07964 6.69077 2.06113C4.82595 2.74817 3.25556 4.12226 2.47037 5.98709C1.68518 7.75377 1.58703 9.6186 2.27408 11.2871C2.47037 11.7779 2.27408 12.2686 1.78333 12.4649C1.29259 12.6612 0.801844 12.4649 0.605546 11.9742C-0.277793 9.8149 -0.179643 7.45932 0.801845 5.2019C1.78333 2.94447 3.74631 1.17779 6.10188 0.392596C6.98522 0.0981487 7.86856 2.60633e-07 8.65375 3.29277e-07Z" fill="#2E2F3F"/>
</svg>
