<svg width="43" height="41" viewBox="0 0 43 41" fill="none" xmlns="http://www.w3.org/2000/svg">
<path d="M23.2973 40.9659H1.77509V16.7811H3.59449V39.1908H23.2973V40.9659Z" fill="#EBC152"/>
<path d="M35.8112 16.7811H20.5903V15.006H34.0362V10.5241H1.77503V15.006H15.2209V16.7811H0V8.74905H35.8112V16.7811Z" fill="#EBC152"/>
<path d="M17.9278 10.5241C17.8834 10.5241 17.8834 10.5241 17.839 10.5241C17.7059 10.5241 14.2446 10.1691 11.4933 9.19281C9.94013 8.61593 8.83074 7.46216 8.38698 5.99776C7.9876 4.62211 8.20948 3.15772 9.05262 2.04832C10.0733 0.672675 11.6708 -0.0817121 13.3571 0.00703938C14.7771 0.0514151 16.0196 0.805802 16.6852 1.95957C17.8834 4.08961 18.7709 9.23719 18.7709 9.45907C18.8153 9.72532 18.7265 9.99158 18.549 10.2135C18.4159 10.4353 18.1496 10.5241 17.9278 10.5241ZM13.0021 1.78207C11.9814 1.78207 11.0495 2.2702 10.4283 3.06896C9.94013 3.7346 9.76263 4.62211 10.0289 5.46525C10.2951 6.39714 11.0495 7.10716 12.0702 7.50654C13.6677 8.08342 15.5759 8.43843 16.8184 8.61593C16.4634 6.8409 15.8421 4.08961 15.1321 2.89146C14.7771 2.2702 14.0671 1.87082 13.1796 1.82644C13.1352 1.78207 13.0908 1.78207 13.0021 1.78207Z" fill="#EBC152"/>
<path d="M17.9277 10.5241C17.7059 10.5241 17.4396 10.4353 17.2621 10.2578C17.0402 10.036 16.9515 9.72533 17.0402 9.45907C17.0846 9.28157 17.8834 5.59838 18.9484 3.82335C19.6584 2.66959 20.8565 1.87082 22.0991 1.73769C23.1641 1.64894 24.1403 2.00395 24.8503 2.80271C25.5604 3.60148 25.871 4.57774 25.6935 5.64276C25.516 6.8409 24.806 7.9503 23.741 8.61593C21.7884 9.85845 18.2384 10.4797 18.0609 10.5241C18.0165 10.5241 17.9721 10.5241 17.9277 10.5241ZM22.4541 3.46835C22.4097 3.46835 22.3209 3.46835 22.2766 3.46835C21.5665 3.5571 20.9009 4.00086 20.4571 4.71087C19.9246 5.64276 19.3921 7.28466 19.0815 8.43843C20.1909 8.17218 21.7884 7.68404 22.7647 7.06278C23.3859 6.6634 23.7853 6.04214 23.8741 5.33213C23.9185 4.97712 23.8741 4.40024 23.4747 3.91211C23.1641 3.5571 22.7647 3.46835 22.4541 3.46835Z" fill="#EBC152"/>
<path d="M21.4778 40.9658H14.3333V8.74905H21.5222V40.9658H21.4778ZM16.1084 39.1908H19.7028V10.5241H16.1084V39.1908Z" fill="#EBC152"/>
<path d="M42.1126 40.9658H24.1848V31.1144H25.9598V39.1908H40.2932V31.1144H42.1126V40.9658Z" fill="#EBC152"/>
<path d="M43.0001 32.0463H35.8112V30.2269H41.225V26.6325H25.0723V30.2269H31.3736V32.0463H23.2972V24.8575H43.0001V32.0463Z" fill="#EBC152"/>
<path d="M36.6987 25.745H34.9236V40.0783H36.6987V25.745Z" fill="#EBC152"/>
<path d="M32.2168 25.745H30.4418V40.0783H32.2168V25.745Z" fill="#EBC152"/>
<path d="M34.0362 15.8936H32.2611V19.488H34.0362V15.8936Z" fill="#EBC152"/>
<path d="M33.0155 26.6325C32.2612 26.6325 29.3767 26.5437 27.7348 25.0349C26.3148 23.748 26.1817 21.8843 27.4242 20.5086C28.0011 19.843 28.7555 19.488 29.5542 19.3992C30.3974 19.3549 31.2405 19.6211 31.9505 20.2867C33.8587 21.973 34.0806 25.5231 34.0806 25.6562L34.1249 26.5881L33.193 26.6325C33.1487 26.6325 33.1043 26.6325 33.0155 26.6325ZM29.7317 21.2186C29.6874 21.2186 29.6874 21.2186 29.643 21.2186C29.288 21.263 28.9774 21.3961 28.7111 21.7068C28.1342 22.3724 28.1786 23.0824 28.8886 23.7037C29.6874 24.4137 31.1074 24.7243 32.128 24.8131C31.9505 23.7924 31.5511 22.3724 30.708 21.6624C30.3974 21.3518 30.0424 21.2186 29.7317 21.2186Z" fill="#EBC152"/>
<path d="M33.3706 26.6325C33.2374 26.6325 33.1931 26.6325 33.1487 26.6325L32.1724 26.5881L32.3056 25.6118C32.3056 25.4787 32.7937 21.973 34.6575 20.2867C35.3675 19.6655 36.2106 19.3548 37.0538 19.3992C37.8525 19.4436 38.6069 19.843 39.1838 20.5086C40.4263 21.8843 40.2932 23.748 38.8732 25.0349C37.1869 26.5437 34.2581 26.6325 33.3706 26.6325ZM36.7875 21.2186C36.4769 21.2186 36.1219 21.3517 35.7669 21.6624C34.9681 22.3724 34.48 23.7924 34.2137 24.8131C35.3231 24.7243 36.8319 24.4137 37.6306 23.7037C38.2963 23.0824 38.385 22.3724 37.8081 21.7068C37.5419 21.3961 37.2313 21.2186 36.8763 21.2186C36.8763 21.2186 36.8319 21.2186 36.7875 21.2186Z" fill="#EBC152"/>
</svg>
