<svg width="18" height="18" viewBox="0 0 18 18" fill="none" xmlns="http://www.w3.org/2000/svg">
<path d="M13.4999 4.49986C13.3592 4.35926 13.1685 4.28027 12.9696 4.28027C12.7707 4.28027 12.58 4.35926 12.4394 4.49986L8.99986 7.93936L5.56036 4.49986C5.41972 4.35926 5.22899 4.28027 5.03011 4.28027C4.83124 4.28027 4.64051 4.35926 4.49986 4.49986C4.35926 4.64051 4.28027 4.83124 4.28027 5.03011C4.28027 5.22899 4.35926 5.41972 4.49986 5.56036L7.93936 8.99986L4.49986 12.4394C4.35926 12.58 4.28027 12.7707 4.28027 12.9696C4.28027 13.1685 4.35926 13.3592 4.49986 13.4999C4.64051 13.6405 4.83124 13.7195 5.03011 13.7195C5.22899 13.7195 5.41972 13.6405 5.56036 13.4999L8.99986 10.0604L12.4394 13.4999C12.58 13.6405 12.7707 13.7195 12.9696 13.7195C13.1685 13.7195 13.3592 13.6405 13.4999 13.4999C13.6405 13.3592 13.7195 13.1685 13.7195 12.9696C13.7195 12.7707 13.6405 12.58 13.4999 12.4394L10.0604 8.99986L13.4999 5.56036C13.6405 5.41972 13.7195 5.22899 13.7195 5.03011C13.7195 4.83124 13.6405 4.64051 13.4999 4.49986Z" fill="white"/>
</svg>
