<svg width="24" height="24" viewBox="0 0 24 24" fill="none" xmlns="http://www.w3.org/2000/svg">
<path d="M12 20L11.4229 19.5936C10.6631 19.0583 4.00284 14.2363 4.00284 9.83132C3.95975 8.59709 4.40874 7.39605 5.25167 6.49073C6.09461 5.58541 7.26292 5.04945 8.50124 5C9.18477 5.00669 9.85724 5.17277 10.4648 5.48495C11.0723 5.79712 11.5981 6.24671 12 6.79772C12.4019 6.24671 12.9277 5.79712 13.5352 5.48495C14.1428 5.17277 14.8152 5.00669 15.4988 5C16.7371 5.04945 17.9054 5.58541 18.7483 6.49073C19.5913 7.39605 20.0403 8.59709 19.9972 9.83132C19.9972 14.2363 13.3369 19.0583 12.5771 19.5936L12 20ZM8.50124 6.9923C7.79347 7.04227 7.13405 7.36843 6.66615 7.89998C6.19825 8.43152 5.95964 9.12552 6.00213 9.83132C6.00213 12.4319 9.90941 15.9477 12 17.5422C14.0906 15.9483 17.9979 12.4319 17.9979 9.83132C18.0404 9.12552 17.8018 8.43152 17.3339 7.89998C16.866 7.36843 16.2065 7.04227 15.4988 6.9923C14.791 7.04227 14.1316 7.36843 13.6637 7.89998C13.1958 8.43152 12.9572 9.12552 12.9996 9.83132H11.0004C11.0428 9.12552 10.8042 8.43152 10.3363 7.89998C9.86843 7.36843 9.20901 7.04227 8.50124 6.9923Z" fill="white"/>
</svg>
