<svg width="16" height="13" viewBox="0 0 16 13" fill="none" xmlns="http://www.w3.org/2000/svg">
<path d="M7.34627 12.9785C4.30365 12.9785 1.45733 11.1136 0.377689 8.07103C-0.8001 4.93026 0.868434 1.39689 4.10735 0.317252C6.75738 -0.664238 9.6037 0.709849 10.5852 3.35987C10.9778 4.43951 10.8796 5.6173 10.3889 6.59879C9.89815 7.58028 9.0148 8.36547 8.03331 8.75807C6.16848 9.44511 4.10735 8.46362 3.51846 6.59879C3.32216 6.10805 3.61661 5.6173 4.10735 5.421C4.5981 5.2247 5.08884 5.51915 5.28514 6.0099C5.57959 6.89324 6.65923 7.38398 7.54257 7.08954C8.13146 6.89324 8.62221 6.40249 8.91666 5.8136C9.2111 5.2247 9.2111 4.53766 9.0148 3.94877C8.42591 2.28023 6.56108 1.39689 4.79439 1.98579C2.53697 2.77098 1.35918 5.2247 2.14437 7.48213C3.22401 10.4266 6.36478 11.8988 9.30925 10.9173C11.1741 10.2303 12.7445 8.85622 13.5297 6.99139C14.3149 5.2247 14.413 3.35987 13.726 1.69134C13.5297 1.20059 13.726 0.709849 14.2167 0.513551C14.7074 0.317252 15.1982 0.513551 15.3945 1.0043C16.2778 3.16357 16.1797 5.51915 15.1982 7.77658C14.2167 10.034 12.2537 11.8007 9.89815 12.5859C9.0148 12.8803 8.13146 12.9785 7.34627 12.9785Z" fill="#2E2F3F"/>
</svg>
